<svg id="icon" xmlns="http://www.w3.org/2000/svg" width="171" height="127" viewBox="0 0 171 127">
  <defs>
    <style>
      .cls-1 {
        fill: #eef3fe;
      }

      .cls-1, .cls-3, .cls-7 {
        fill-rule: evenodd;
      }

      .cls-2, .cls-4, .cls-7 {
        fill: #fff;
      }

      .cls-2 {
        stroke: #e3e3e3;
        stroke-width: 1px;
      }

      .cls-2, .cls-6 {
        stroke-linejoin: round;
      }

      .cls-3 {
        fill: #5387ff;
      }

      .cls-5 {
        fill: #e3e3e3;
      }

      .cls-6 {
        fill: #8388e4;
        stroke: #fff;
        stroke-width: 3px;
      }
    </style>
  </defs>
  <path class="cls-1" d="M15,71.019c0.518-12.348,3.106-22.638,28.987-30.87S77.739,28.287,90.68,20.569c10.426-6.394,42.473-5.832,57.974,15.435,10.784,14.8,10.007,34.037-2.07,47.334-10.26,11.3-31.5,20.432-52.8,24.7-21.692,4.344-37.893,1.057-53.939-5.117S14.655,85.768,15,71.019Z"/>
  <g id="icons">
    <g>
      <rect id="Rounded_Rectangle_599" data-name="Rounded Rectangle 599" class="cls-2" x="43" y="33" width="83" height="70" rx="4" ry="4"/>
      <path class="cls-3" d="M46.167,33h76.854c2.634,0,2.979,1.641,2.979,3.078V43H43s0-4.608,0-7C43,34.38,43.244,33,46.167,33Z"/>
      <circle class="cls-4" cx="54" cy="39" r="2"/>
      <circle id="Ellipse_1_copy" data-name="Ellipse 1 copy" class="cls-4" cx="62" cy="39" r="2"/>
      <circle id="Ellipse_1_copy_2" data-name="Ellipse 1 copy 2" class="cls-4" cx="70" cy="39" r="2"/>
      <g>
        <rect class="cls-5" x="49" y="48" width="16" height="13"/>
        <rect class="cls-5" x="69" y="48" width="51" height="4"/>
        <rect id="Rectangle_2_copy" data-name="Rectangle 2 copy" class="cls-5" x="69" y="57" width="51" height="4"/>
        <rect id="Rectangle_2_copy_2" data-name="Rectangle 2 copy 2" class="cls-5" x="49" y="66" width="71" height="4"/>
        <rect id="Rectangle_2_copy_3" data-name="Rectangle 2 copy 3" class="cls-5" x="49" y="75" width="71" height="4"/>
        <rect id="Rectangle_2_copy_4" data-name="Rectangle 2 copy 4" class="cls-5" x="49" y="84" width="71" height="4"/>
        <rect id="Rectangle_2_copy_5" data-name="Rectangle 2 copy 5" class="cls-5" x="49" y="93" width="31" height="4"/>
      </g>
    </g>
  </g>
  <g>
    <circle class="cls-6" cx="123" cy="88" r="15"/>
    <path id="Forma_1" data-name="Forma 1" class="cls-7" d="M130,88h-6V80c0-.75-0.515-0.99-1.509-0.99A1.292,1.292,0,0,0,121,80.356v9.281A1.39,1.39,0,0,0,122.416,91L130,91c1.863,0,2-.612,2-1.363S131.788,88,130,88Z"/>
  </g>
</svg>
