<svg id="icon" xmlns="http://www.w3.org/2000/svg" width="171" height="127" viewBox="0 0 171 127">
  <defs>
    <style>
      .cls-1 {
        fill: #eef3fe;
      }

      .cls-1, .cls-2, .cls-3, .cls-4, .cls-5, .cls-6, .cls-7, .cls-8 {
        fill-rule: evenodd;
      }

      .cls-2 {
        fill: #f3d5af;
      }

      .cls-3 {
        fill: #8388e4;
      }

      .cls-4, .cls-7 {
        fill: #fff;
      }

      .cls-4 {
        opacity: 0.5;
      }

      .cls-5 {
        fill: #fbe3c5;
      }

      .cls-6 {
        fill: #343439;
      }

      .cls-7 {
        stroke: #fff;
        stroke-linejoin: round;
        stroke-width: 3px;
      }

      .cls-8 {
        fill: #6493ff;
      }
    </style>
  </defs>
  <path class="cls-1" d="M15,71.019c0.518-12.348,3.106-22.638,28.987-30.87S77.739,28.287,90.68,20.569c10.426-6.394,42.473-5.832,57.974,15.435,10.784,14.8,10.007,34.037-2.07,47.334-10.26,11.3-31.5,20.432-52.8,24.7-21.692,4.344-37.893,1.057-53.939-5.117S14.655,85.768,15,71.019Z"/>
  <g id="user">
    <path class="cls-2" d="M76.756,59.97s-2.469,5.279-4.923,6.132L82.91,74.687l11.077-1.226L92.756,66.1s-1.375-1.028-3.692-6.132C86.567,54.47,76.756,59.97,76.756,59.97Z"/>
    <path class="cls-3" d="M74.373,63.757S49.152,67.264,50,95.933c0,0,30.621,20.573,63.52,1.226,0,0,3.977-28.506-21.994-34.341C91.525,62.818,84.066,75.447,74.373,63.757Z"/>
    <path class="cls-4" d="M80.448,68.95a4.685,4.685,0,0,0,1.231,4.906l-2,29.874s-0.116,2.1,3,2.178c2.263,0.056,3.294-1.063,3.422-2.178L84.141,73.856s2.233-2.574,1.231-4.906C85.322,68.241,80.938,68.622,80.448,68.95Z"/>
    <path class="cls-5" d="M68.141,42.8s-3.415,4.6,2.462,7.359c0,0,.214,6.65,6.154,9.812,0.538,0.153,15.008,4.634,17.231-9.812,0,0,4.83-2.7,2.462-7.359,0,0-1.786-8.681-2.462-8.585s-12.308-3.68-12.308-3.68L68.141,36.667V42.8"/>
    <path class="cls-6" d="M67,45a41.6,41.6,0,0,0,6.064-4.654s12.311,1.856,16.25-2.8c0,0,2.81-.438,5.9,4.027,0,0,.513,4.674,2.462,0,0,0,2.92-13.14-8.615-18.4C89.064,23.175,66.083,16.959,67,45Z"/>
  </g>
  <g id="Setting">
    <path id="Forma_1_copy_2" data-name="Forma 1 copy 2" class="cls-7" d="M126.53,97.855a0.759,0.759,0,0,0-.153-0.437q-1.225-1.466-1.969-2.516a10.758,10.758,0,0,0,.7-1.662l3.391-.525a0.507,0.507,0,0,0,.35-0.229A0.714,0.714,0,0,0,129,92.059V88.011a0.652,0.652,0,0,0-.153-0.426,0.631,0.631,0,0,0-.372-0.229l-3.325-.5a15.073,15.073,0,0,0-.744-1.794q0.328-.482.985-1.313t0.918-1.181a0.735,0.735,0,0,0,.154-0.416q0-.591-3.15-3.5a0.727,0.727,0,0,0-.46-0.175,0.64,0.64,0,0,0-.438.153l-2.581,1.947A9.638,9.638,0,0,0,118.2,79.9l-0.5-3.347a0.562,0.562,0,0,0-.218-0.383A0.671,0.671,0,0,0,117.036,76h-4.069a0.64,0.64,0,0,0-.656.525,25.106,25.106,0,0,0-.5,3.369,10.6,10.6,0,0,0-1.684.7l-2.516-1.969a0.787,0.787,0,0,0-.459-0.153,4.191,4.191,0,0,0-1.729,1.291,18.607,18.607,0,0,0-1.794,1.947,0.641,0.641,0,0,0-.153.438,0.835,0.835,0,0,0,.153.437q1.225,1.466,1.969,2.516a10.881,10.881,0,0,0-.7,1.663l-3.391.525a0.508,0.508,0,0,0-.35.229,0.713,0.713,0,0,0-.153.427v4.047a0.651,0.651,0,0,0,.153.427,0.537,0.537,0,0,0,.372.208l3.325,0.525a11.237,11.237,0,0,0,.766,1.794q-0.35.481-1.028,1.334t-0.9,1.159a0.735,0.735,0,0,0-.153.416q0,0.591,3.15,3.5a0.724,0.724,0,0,0,.46.175,0.592,0.592,0,0,0,.437-0.153l2.581-1.947a9.576,9.576,0,0,0,1.641.678l0.5,3.347a0.566,0.566,0,0,0,.219.383,0.668,0.668,0,0,0,.437.164h4.069a0.639,0.639,0,0,0,.656-0.525,26,26,0,0,0,.5-3.391,9.921,9.921,0,0,0,1.685-.678l2.515,1.969a0.79,0.79,0,0,0,.46.153,4.144,4.144,0,0,0,1.717-1.3,22.66,22.66,0,0,0,1.8-1.958A0.559,0.559,0,0,0,126.53,97.855Z"/>
    <path id="Forma_1" data-name="Forma 1" class="cls-8" d="M126.53,97.855a0.759,0.759,0,0,0-.153-0.437q-1.225-1.466-1.969-2.516a10.758,10.758,0,0,0,.7-1.662l3.391-.525a0.507,0.507,0,0,0,.35-0.229A0.714,0.714,0,0,0,129,92.059V88.011a0.652,0.652,0,0,0-.153-0.426,0.631,0.631,0,0,0-.372-0.229l-3.325-.5a15.073,15.073,0,0,0-.744-1.794q0.328-.482.985-1.313t0.918-1.181a0.735,0.735,0,0,0,.154-0.416q0-.591-3.15-3.5a0.727,0.727,0,0,0-.46-0.175,0.64,0.64,0,0,0-.438.153l-2.581,1.947A9.638,9.638,0,0,0,118.2,79.9l-0.5-3.347a0.562,0.562,0,0,0-.218-0.383A0.671,0.671,0,0,0,117.036,76h-4.069a0.64,0.64,0,0,0-.656.525,25.106,25.106,0,0,0-.5,3.369,10.6,10.6,0,0,0-1.684.7l-2.516-1.969a0.787,0.787,0,0,0-.459-0.153,4.191,4.191,0,0,0-1.729,1.291,18.607,18.607,0,0,0-1.794,1.947,0.641,0.641,0,0,0-.153.438,0.835,0.835,0,0,0,.153.437q1.225,1.466,1.969,2.516a10.881,10.881,0,0,0-.7,1.663l-3.391.525a0.508,0.508,0,0,0-.35.229,0.713,0.713,0,0,0-.153.427v4.047a0.651,0.651,0,0,0,.153.427,0.537,0.537,0,0,0,.372.208l3.325,0.525a11.237,11.237,0,0,0,.766,1.794q-0.35.481-1.028,1.334t-0.9,1.159a0.735,0.735,0,0,0-.153.416q0,0.591,3.15,3.5a0.724,0.724,0,0,0,.46.175,0.592,0.592,0,0,0,.437-0.153l2.581-1.947a9.576,9.576,0,0,0,1.641.678l0.5,3.347a0.566,0.566,0,0,0,.219.383,0.668,0.668,0,0,0,.437.164h4.069a0.639,0.639,0,0,0,.656-0.525,26,26,0,0,0,.5-3.391,9.921,9.921,0,0,0,1.685-.678l2.515,1.969a0.79,0.79,0,0,0,.46.153,4.144,4.144,0,0,0,1.717-1.3,22.66,22.66,0,0,0,1.8-1.958A0.559,0.559,0,0,0,126.53,97.855Zm-7.569-3.894A5.6,5.6,0,1,1,120.6,90,5.395,5.395,0,0,1,118.961,93.962Z"/>
  </g>
</svg>
