<svg xmlns="http://www.w3.org/2000/svg" width="413" height="250" viewBox="0 0 413 250">
  <metadata><?xpacket begin="﻿" id="W5M0MpCehiHzreSzNTczkc9d"?>
<x:xmpmeta xmlns:x="adobe:ns:meta/" x:xmptk="Adobe XMP Core 5.6-c142 79.160924, 2017/07/13-01:06:39        ">
   <rdf:RDF xmlns:rdf="http://www.w3.org/1999/02/22-rdf-syntax-ns#">
      <rdf:Description rdf:about=""/>
   </rdf:RDF>
</x:xmpmeta>
                                                                                                    
                                                                                                    
                                                                                                    
                                                                                                    
                                                                                                    
                                                                                                    
                                                                                                    
                                                                                                    
                                                                                                    
                                                                                                    
                                                                                                    
                                                                                                    
                                                                                                    
                                                                                                    
                                                                                                    
                                                                                                    
                                                                                                    
                                                                                                    
                                                                                                    
                                                                                                    
                           
<?xpacket end="w"?></metadata>
<defs>
    <style>
      .cls-1 {
        fill: #dae6fe;
      }

      .cls-2 {
        fill: #bad1fd;
      }

      .cls-3 {
        fill: #2972e9;
      }

      .cls-4 {
        fill: #1357d8;
      }

      .cls-4, .cls-5 {
        fill-rule: evenodd;
      }

      .cls-5 {
        fill: #3d94f5;
      }
    </style>
  </defs>
  <circle class="cls-1" cx="184" cy="125" r="125"/>
  <circle id="Ellipse_1_copy_2" data-name="Ellipse 1 copy 2" class="cls-2" cx="183.5" cy="124.5" r="95.5"/>
  <circle id="Ellipse_1_copy" data-name="Ellipse 1 copy" class="cls-3" cx="184" cy="124" r="65"/>
  <path class="cls-4" d="M322,138H291l31-55-8-27-47,82v23h55v28h26V160h13V137H348V56H314l8,27v55Z"/>
  <path id="Shape_1_copy" data-name="Shape 1 copy" class="cls-4" d="M57,137H26L57,82,49,55,2,137v23H57v28H83V159H96V136H83V55H49l8,27v55Z"/>
  <path id="Forma_1" data-name="Forma 1" class="cls-5" d="M340.736,24.073l1.016,2.755a0.264,0.264,0,0,0,.5,0l1.016-2.754a8.12,8.12,0,0,1,4.81-4.81l2.754-1.016a0.264,0.264,0,0,0,0-.495l-2.755-1.016a8.122,8.122,0,0,1-4.809-4.81l-1.016-2.754a0.264,0.264,0,0,0-.5,0l-1.016,2.754a8.121,8.121,0,0,1-4.81,4.81l-2.754,1.016a0.264,0.264,0,0,0,0,.495l2.754,1.016A8.12,8.12,0,0,1,340.736,24.073Z"/>
  <path id="Forma_1_copy_2" data-name="Forma 1 copy 2" class="cls-5" d="M390.017,49.723l0.79,2.142a0.205,0.205,0,0,0,.385,0l0.79-2.142a6.318,6.318,0,0,1,3.741-3.741l2.142-.79a0.205,0.205,0,0,0,0-.385l-2.142-.79a6.319,6.319,0,0,1-3.741-3.741l-0.79-2.142a0.205,0.205,0,0,0-.385,0l-0.79,2.142a6.316,6.316,0,0,1-3.741,3.741l-2.142.79a0.205,0.205,0,0,0,0,.385l2.142,0.79A6.315,6.315,0,0,1,390.017,49.723Z"/>
  <path id="Forma_1_copy_4" data-name="Forma 1 copy 4" class="cls-4" d="M395.894,110.121l1.693,4.591a0.439,0.439,0,0,0,.824,0l1.694-4.591a13.535,13.535,0,0,1,8.016-8.017l4.591-1.693a0.439,0.439,0,0,0,0-.824l-4.591-1.693a13.532,13.532,0,0,1-8.016-8.016l-1.694-4.591a0.439,0.439,0,0,0-.824,0l-1.693,4.591a13.536,13.536,0,0,1-8.017,8.016l-4.591,1.693a0.439,0.439,0,0,0,0,.824l4.591,1.693A13.537,13.537,0,0,1,395.894,110.121Z"/>
</svg>
