<svg xmlns="http://www.w3.org/2000/svg" width="338" height="216" viewBox="0 0 338 216">
  <metadata><?xpacket begin="﻿" id="W5M0MpCehiHzreSzNTczkc9d"?>
<x:xmpmeta xmlns:x="adobe:ns:meta/" x:xmptk="Adobe XMP Core 5.6-c142 79.160924, 2017/07/13-01:06:39        ">
   <rdf:RDF xmlns:rdf="http://www.w3.org/1999/02/22-rdf-syntax-ns#">
      <rdf:Description rdf:about=""/>
   </rdf:RDF>
</x:xmpmeta>
                                                                                                    
                                                                                                    
                                                                                                    
                                                                                                    
                                                                                                    
                                                                                                    
                                                                                                    
                                                                                                    
                                                                                                    
                                                                                                    
                                                                                                    
                                                                                                    
                                                                                                    
                                                                                                    
                                                                                                    
                                                                                                    
                                                                                                    
                                                                                                    
                                                                                                    
                                                                                                    
                           
<?xpacket end="w"?></metadata>
<defs>
    <style>
      .cls-1 {
        fill: #bad1fd;
      }

      .cls-1, .cls-2, .cls-6, .cls-7 {
        fill-rule: evenodd;
      }

      .cls-2 {
        fill: #e2f3ff;
      }

      .cls-3 {
        fill: #2972e9;
      }

      .cls-4 {
        fill: #aad9f9;
      }

      .cls-5, .cls-6 {
        fill: #beddf2;
      }

      .cls-7 {
        fill: #3d94f5;
      }
    </style>
  </defs>
  <path id="Rectangle_9_copy" data-name="Rectangle 9 copy" class="cls-1" d="M13.406,66.022L142.7,82.518,130.594,177.4,1.3,160.907Z"/>
  <path id="Rounded_Rectangle_3_copy_2" data-name="Rounded Rectangle 3 copy 2" class="cls-2" d="M20.528,131.71l98,15.428a0.726,0.726,0,0,1,.6.834l-0.567,3.606a0.728,0.728,0,0,1-.829.609l-98-15.428a0.727,0.727,0,0,1-.6-0.834l0.568-3.606A0.727,0.727,0,0,1,20.528,131.71Z"/>
  <path id="Rounded_Rectangle_3_copy_2-2" data-name="Rounded Rectangle 3 copy 2" class="cls-2" d="M40.511,144.465l55.079,8.671a0.727,0.727,0,0,1,.6.834l-0.341,2.164a0.728,0.728,0,0,1-.829.609l-55.079-8.671a0.728,0.728,0,0,1-.6-0.834l0.341-2.164A0.727,0.727,0,0,1,40.511,144.465Z"/>
  <path id="Rectangle_9_copy-2" data-name="Rectangle 9 copy" class="cls-1" d="M210.108,52.415l89.37-25.347,24.271,90.466-89.37,26.347Z"/>
  <path id="Rounded_Rectangle_3_copy_2-3" data-name="Rounded Rectangle 3 copy 2" class="cls-2" d="M240.327,113.233l63.165-16.586a0.649,0.649,0,0,1,.78.484l0.758,3.171a0.649,0.649,0,0,1-.477.784l-63.165,16.587a0.65,0.65,0,0,1-.781-0.484l-0.757-3.171A0.649,0.649,0,0,1,240.327,113.233Z"/>
  <path id="Rounded_Rectangle_3_copy_2-4" data-name="Rounded Rectangle 3 copy 2" class="cls-2" d="M261.082,116.4l25.734-6.455a0.649,0.649,0,0,1,.759.517l0.371,1.921a0.65,0.65,0,0,1-.511.763L261.7,119.6a0.65,0.65,0,0,1-.759-0.518l-0.371-1.921A0.65,0.65,0,0,1,261.082,116.4Z"/>
  <rect class="cls-3" x="82" y="56" width="180" height="131"/>
  <circle class="cls-4" cx="91" cy="65" r="3"/>
  <circle id="Ellipse_3_copy" data-name="Ellipse 3 copy" class="cls-4" cx="101" cy="65" r="3"/>
  <circle id="Ellipse_3_copy_2" data-name="Ellipse 3 copy 2" class="cls-4" cx="111" cy="65" r="3"/>
  <rect id="Rounded_Rectangle_3" data-name="Rounded Rectangle 3" class="cls-5" x="107" y="146" width="129" height="5" rx="1" ry="1"/>
  <rect id="Rounded_Rectangle_3_copy" data-name="Rounded Rectangle 3 copy" class="cls-5" x="132" y="159" width="79" height="5" rx="1" ry="1"/>
  <path class="cls-6" d="M172,115.7a2.137,2.137,0,1,0,0,4.273A2.137,2.137,0,0,0,172,115.7Zm19.978,7.571a7.229,7.229,0,0,0,.017-7.383l-13.52-23.174a7.488,7.488,0,0,0-12.933-.009L152,115.908a7.289,7.289,0,0,0,.026,7.426A7.4,7.4,0,0,0,158.479,127h27.006A7.449,7.449,0,0,0,191.977,123.274Zm-2.935-1.675a4.088,4.088,0,0,1-3.566,2.043H158.47a4.046,4.046,0,0,1-3.531-6.076l13.538-23.191a4.086,4.086,0,0,1,7.062.009l13.529,23.192A3.955,3.955,0,0,1,189.042,121.6Zm-17.578-20.892a2.324,2.324,0,0,0-1.666,2.333c0.051,0.675.095,1.358,0.146,2.033,0.147,2.572.294,5.093,0.441,7.665a1.573,1.573,0,0,0,1.614,1.5,1.607,1.607,0,0,0,1.615-1.555c0-.53,0-1.017.051-1.555,0.095-1.649.2-3.3,0.294-4.948,0.052-1.068.147-2.136,0.2-3.2a2.607,2.607,0,0,0-.2-1.068A2.169,2.169,0,0,0,171.464,100.707Z"/>
  <path id="Forma_1_copy_5" data-name="Forma 1 copy 5" class="cls-1" d="M331.017,28.723l0.79,2.142a0.205,0.205,0,0,0,.385,0l0.79-2.142a6.318,6.318,0,0,1,3.741-3.741l2.142-.79a0.205,0.205,0,0,0,0-.385l-2.142-.79a6.316,6.316,0,0,1-3.741-3.741l-0.79-2.142a0.205,0.205,0,0,0-.385,0l-0.79,2.142a6.316,6.316,0,0,1-3.741,3.741l-2.142.79a0.205,0.205,0,0,0,0,.385l2.142,0.79A6.315,6.315,0,0,1,331.017,28.723Z"/>
  <path id="Forma_1_copy_8" data-name="Forma 1 copy 8" class="cls-1" d="M33.046,187.251l1.16,1.368a0.161,0.161,0,0,0,.284-0.1l0.006-1.794a4.963,4.963,0,0,1,1.754-3.769l1.369-1.16a0.161,0.161,0,0,0-.1-0.284l-1.794-.006a4.962,4.962,0,0,1-3.769-1.754l-1.16-1.369a0.161,0.161,0,0,0-.284.1L30.5,180.278a4.966,4.966,0,0,1-1.754,3.769l-1.369,1.16a0.161,0.161,0,0,0-.047.178,0.163,0.163,0,0,0,.151.106l1.794,0.006A4.963,4.963,0,0,1,33.046,187.251Z"/>
  <path id="Forma_1_copy_7" data-name="Forma 1 copy 7" class="cls-7" d="M54.788,8.8l-0.261,2a0.182,0.182,0,0,0,.3.158l1.5-1.355a5.592,5.592,0,0,1,4.471-1.4l2,0.261a0.182,0.182,0,0,0,.158-0.3l-1.355-1.5a5.592,5.592,0,0,1-1.4-4.471l0.261-2a0.182,0.182,0,0,0-.3-0.158l-1.5,1.355a5.592,5.592,0,0,1-4.471,1.4l-2-.261a0.182,0.182,0,0,0-.158.3l1.355,1.5A5.592,5.592,0,0,1,54.788,8.8Z"/>
  <path id="Forma_1_copy_6" data-name="Forma 1 copy 6" class="cls-7" d="M296.109,214.082l2.058,1.84a0.249,0.249,0,0,0,.282.034,0.246,0.246,0,0,0,.129-0.252l-0.371-2.736a7.636,7.636,0,0,1,1.875-6.116l1.839-2.058a0.247,0.247,0,0,0-.218-0.411l-2.736.371a7.638,7.638,0,0,1-6.115-1.874l-2.059-1.84a0.248,0.248,0,0,0-.411.218l0.371,2.736a7.638,7.638,0,0,1-1.874,6.116l-1.84,2.058a0.248,0.248,0,0,0,.218.411l2.736-.371A7.636,7.636,0,0,1,296.109,214.082Z"/>
</svg>
