<svg id="Dark" xmlns="http://www.w3.org/2000/svg" width="20" height="200" viewBox="0 0 20 200">
  <metadata><?xpacket begin="﻿" id="W5M0MpCehiHzreSzNTczkc9d"?>
<x:xmpmeta xmlns:x="adobe:ns:meta/" x:xmptk="Adobe XMP Core 5.6-c142 79.160924, 2017/07/13-01:06:39        ">
   <rdf:RDF xmlns:rdf="http://www.w3.org/1999/02/22-rdf-syntax-ns#">
      <rdf:Description rdf:about=""/>
   </rdf:RDF>
</x:xmpmeta>
                                                                                                    
                                                                                                    
                                                                                                    
                                                                                                    
                                                                                                    
                                                                                                    
                                                                                                    
                                                                                                    
                                                                                                    
                                                                                                    
                                                                                                    
                                                                                                    
                                                                                                    
                                                                                                    
                                                                                                    
                                                                                                    
                                                                                                    
                                                                                                    
                                                                                                    
                                                                                                    
                           
<?xpacket end="w"?></metadata>
<defs>
    <style>
      .cls-1 {
        fill: #343434;
        fill-rule: evenodd;
      }
    </style>
  </defs>
  <path id="Forma_1" data-name="Forma 1" class="cls-1" d="M11,1h6V5H11V1ZM3,1H9V9H3V1ZM3,11H9v4H3V11Zm8-4h6v8H11V7Z"/>
  <path id="Forma_1-2" data-name="Forma 1" class="cls-1" d="M17,22H14V20c0-.827-0.8-1-1.632-1H7c-0.827,0-1,.173-1,1v2H3c-0.827,0-1,.173-1,1v2c0,0.827.173,1,1,1H8a0.956,0.956,0,0,1,1-1h2a1.036,1.036,0,0,1,1,1h5c0.827,0,1-.173,1-1V23C18,22.173,17.827,22,17,22Zm-4,0H7V20h6v2Zm4.792,4.9a0.375,0.375,0,0,0-.393.037A3.239,3.239,0,0,1,16,27H12c0,0.661.082,2-1,2H9c-0.966,0-1-1.5-1-2H4c-0.322,0-.608,0-1,0a1.431,1.431,0,0,0-.792-0.1A0.375,0.375,0,0,0,2,27.24V31.5A1.5,1.5,0,0,0,3.5,33h13A1.5,1.5,0,0,0,18,31.5V27.24A0.375,0.375,0,0,0,17.792,26.9Z"/>
  <path id="Rectangle_8_copy" data-name="Rectangle 8 copy" class="cls-1" d="M6,42H17v8H6V42ZM3,42H5v8H3V42Zm0-5H17v4H3V37Zm2,1a1,1,0,1,1-1,1A1,1,0,0,1,5,38Zm2,8h9v2H7V46Zm4-8h5v2H11V38ZM7,43h9v2H7V43Z"/>
  <path class="cls-1" d="M17.9,58.856l-2.749-4.671A0.472,0.472,0,0,0,14.778,54H6.225a0.472,0.472,0,0,0-.373.185L3.1,58.856a0.474,0.474,0,0,0-.1.3v8.365A0.48,0.48,0,0,0,3.476,68H17.523A0.48,0.48,0,0,0,18,67.518V59.153A0.448,0.448,0,0,0,17.9,58.856ZM17,60H11V55h3ZM7,55h3v5H4Z"/>
  <path class="cls-1" d="M10,72a8,8,0,1,1-8,8A8,8,0,0,1,10,72Zm0.965,10.539a1.323,1.323,0,0,1-.881.252,1.558,1.558,0,0,1-.974-0.287,1.133,1.133,0,0,1-.375-0.96h-1.7l-0.018.032a1.98,1.98,0,0,0,.716,1.706,3.416,3.416,0,0,0,1.891.67V84.99h0.953V83.954a3.111,3.111,0,0,0,1.777-.649A1.82,1.82,0,0,0,13,81.84a1.856,1.856,0,0,0-.659-1.506,5.473,5.473,0,0,0-1.99-.928,3.366,3.366,0,0,1-1.022-.52,0.83,0.83,0,0,1-.267-0.647,0.951,0.951,0,0,1,.252-0.694,1.1,1.1,0,0,1,.815-0.258,1.1,1.1,0,0,1,.83.308,1.218,1.218,0,0,1,.3.881h1.708l0.012-.026a2.072,2.072,0,0,0-.593-1.58,2.8,2.8,0,0,0-1.69-.739V74.989H9.742v1.125a3.052,3.052,0,0,0-1.774.665,1.835,1.835,0,0,0-.653,1.454,1.816,1.816,0,0,0,.653,1.493,5.859,5.859,0,0,0,2.008.931,2.893,2.893,0,0,1,1,.5,0.9,0.9,0,0,1,.282.691A0.861,0.861,0,0,1,10.964,82.539Z"/>
  <path id="Forma_1_copy" data-name="Forma 1 copy" class="cls-1" d="M17.792,106.772l-2.816-2.816a7.313,7.313,0,1,0-1.024,1.024l2.816,2.813A0.723,0.723,0,0,0,17.792,106.772Zm-8.475-1.593a5.863,5.863,0,1,1,5.865-5.862A5.869,5.869,0,0,1,9.317,105.179Z"/>
  <path class="cls-1" d="M9,112h2v14H9V112Zm-6,6H17v2H3v-2Z"/>
  <path id="Forma_1-3" data-name="Forma 1" class="cls-1" d="M4.551,138.536a5.762,5.762,0,0,0,.514,1.221l-0.621.783a0.643,0.643,0,0,0,.048.852l1.069,1.069a0.64,0.64,0,0,0,.851.049l0.778-.616a5.694,5.694,0,0,0,1.27.537l0.117,1a0.642,0.642,0,0,0,.636.568h1.513a0.642,0.642,0,0,0,.636-0.568l0.111-.966a5.7,5.7,0,0,0,1.361-.55l0.753,0.6a0.642,0.642,0,0,0,.851-0.048l1.069-1.07a0.639,0.639,0,0,0,.048-0.851L14.97,139.8a5.568,5.568,0,0,0,.56-1.338l0.9-.1A0.641,0.641,0,0,0,17,137.722v-1.513a0.641,0.641,0,0,0-.568-0.636l-0.889-.1a5.623,5.623,0,0,0-.537-1.323l0.547-.692A0.642,0.642,0,0,0,15.5,132.6l-1.067-1.067a0.639,0.639,0,0,0-.851-0.048l-0.671.532a5.646,5.646,0,0,0-1.391-.583l-0.1-.869A0.641,0.641,0,0,0,10.787,130H9.274a0.641,0.641,0,0,0-.636.568l-0.1.869a5.608,5.608,0,0,0-1.427.6l-0.7-.552a0.642,0.642,0,0,0-.851.048L4.492,132.6a0.641,0.641,0,0,0-.048.852l0.583,0.737A5.528,5.528,0,0,0,4.5,135.53l-0.933.106a0.641,0.641,0,0,0-.568.636v1.513a0.641,0.641,0,0,0,.568.637Zm5.481-4.093a2.5,2.5,0,1,1-2.5,2.5A2.5,2.5,0,0,1,10.032,134.443Z"/>
  <path id="Forma_1_copy_3" data-name="Forma 1 copy 3" class="cls-1" d="M9.431,162.4a1.3,1.3,0,0,0,1.067.6,1.273,1.273,0,0,0,1.057-.6,2.321,2.321,0,0,0,.44-1.406h-3A2.276,2.276,0,0,0,9.431,162.4Zm7.5-3.137a10.7,10.7,0,0,1-1.149-2.71,14.119,14.119,0,0,1-.7-3.136,5.357,5.357,0,0,0-.922-2.509,4.477,4.477,0,0,0-2.213-1.595,1.637,1.637,0,0,0-.518-0.937A1.353,1.353,0,0,0,10.5,148a1.337,1.337,0,0,0-.929.377,1.654,1.654,0,0,0-.511.937,4.458,4.458,0,0,0-2.22,1.595,5.374,5.374,0,0,0-.915,2.509,14.024,14.024,0,0,1-.7,3.136,10.829,10.829,0,0,1-1.142,2.71,0.477,0.477,0,0,0-.078.248,0.443,0.443,0,0,0,.05.209,0.668,0.668,0,0,0,.673.282H16.278a0.67,0.67,0,0,0,.68-0.282A0.6,0.6,0,0,0,17,159.5,0.452,0.452,0,0,0,16.929,159.264Z"/>
</svg>
