<svg xmlns="http://www.w3.org/2000/svg" width="144" height="93" viewBox="0 0 144 93">
  <metadata><?xpacket begin="﻿" id="W5M0MpCehiHzreSzNTczkc9d"?>
<x:xmpmeta xmlns:x="adobe:ns:meta/" x:xmptk="Adobe XMP Core 5.6-c142 79.160924, 2017/07/13-01:06:39        ">
   <rdf:RDF xmlns:rdf="http://www.w3.org/1999/02/22-rdf-syntax-ns#">
      <rdf:Description rdf:about=""/>
   </rdf:RDF>
</x:xmpmeta>
                                                                                                    
                                                                                                    
                                                                                                    
                                                                                                    
                                                                                                    
                                                                                                    
                                                                                                    
                                                                                                    
                                                                                                    
                                                                                                    
                                                                                                    
                                                                                                    
                                                                                                    
                                                                                                    
                                                                                                    
                                                                                                    
                                                                                                    
                                                                                                    
                                                                                                    
                                                                                                    
                           
<?xpacket end="w"?></metadata>
<defs>
    <style>
      .cls-1 {
        fill: #eef3fe;
      }

      .cls-1, .cls-2, .cls-3, .cls-4, .cls-5, .cls-6, .cls-7, .cls-8 {
        fill-rule: evenodd;
      }

      .cls-2 {
        fill: #7484a6;
      }

      .cls-3, .cls-4 {
        fill: #fff;
      }

      .cls-4 {
        stroke: #e3e3e3;
        stroke-linejoin: round;
        stroke-width: 1px;
      }

      .cls-5 {
        fill: #569bfc;
      }

      .cls-6 {
        fill: #7879dc;
      }

      .cls-7 {
        fill: #00ca72;
      }

      .cls-8 {
        fill: #fe9c33;
      }
    </style>
  </defs>
  <path class="cls-1" d="M2,54c0.517-12.344,3.1-22.63,28.943-30.86S64.64,11.283,77.561,3.568C87.972-2.824,119.97-2.262,135.447,19c10.768,14.791,9.992,34.026-2.067,47.318C123.136,77.608,101.93,86.741,80.662,91,59,95.347,42.827,92.061,26.805,85.889S1.652,68.745,2,54Z"/>
  <path id="Rounded_Rectangle_603" data-name="Rounded Rectangle 603" class="cls-2" d="M66.9,2h36.943a2,2,0,0,1,2,2V67.977a2,2,0,0,1-2,2H66.9a2,2,0,0,1-2-2V4A2,2,0,0,1,66.9,2Z"/>
  <path id="Rounded_Rectangle_603_copy" data-name="Rounded Rectangle 603 copy" class="cls-3" d="M68.895,4h32.949a2,2,0,0,1,2,2v59.98a2,2,0,0,1-2,2H68.895a2,2,0,0,1-2-2V6A2,2,0,0,1,68.895,4Z"/>
  <path id="Rounded_Rectangle_601" data-name="Rounded Rectangle 601" class="cls-4" d="M0.9,52.521L38.62,33.147a1.562,1.562,0,0,1,2.08.73L56.773,64.371a1.55,1.55,0,0,1-.74,2.069L18.366,85.814a1.562,1.562,0,0,1-2.08-.73L0.156,54.59A1.55,1.55,0,0,1,.9,52.521Z"/>
  <path id="Rounded_Rectangle_606" data-name="Rounded Rectangle 606" class="cls-5" d="M20.483,54.769l7.253-3.725a1,1,0,0,1,.836,1.816l-7.253,3.725A1,1,0,0,1,20.483,54.769Z"/>
  <path id="Rounded_Rectangle_606_copy" data-name="Rounded Rectangle 606 copy" class="cls-5" d="M26.241,65.91l7.253-3.725A1,1,0,0,1,34.331,64l-7.253,3.725A1,1,0,0,1,26.241,65.91Z"/>
  <path id="Rounded_Rectangle_606_copy_3" data-name="Rounded Rectangle 606 copy 3" class="cls-5" d="M37.224,59.912l5.257-2.725A1,1,0,0,1,43.317,59l-5.256,2.725A1,1,0,0,1,37.224,59.912Z"/>
  <path id="Rounded_Rectangle_606_copy_4" data-name="Rounded Rectangle 606 copy 4" class="cls-5" d="M32.232,48.916l5.256-2.725a1,1,0,0,1,.836,1.816l-5.256,2.725A1,1,0,0,1,32.232,48.916Z"/>
  <path id="Forma_1_copy_2" data-name="Forma 1 copy 2" class="cls-5" d="M14.382,58.346a2,2,0,0,0,.978-2.623c-0.395-1.113-.964-1.926-2.407-1.409s-1.372,1.509-.978,2.623A1.982,1.982,0,0,0,14.382,58.346ZM12.277,62.57c-0.024-.068-0.007-0.019,0,0h0Zm6.412-2.24c-0.006-.019-0.045-0.129,0,0h0ZM18.637,60.2c-0.719-1.928-1.173-2.388-3.274-2.029a1.275,1.275,0,0,1-.8.68,1.266,1.266,0,0,1-1.05-.015c-1.832,1.047-1.913,1.69-1.28,3.591a0.457,0.457,0,0,1,.046.146l0.072,0.2s0.8,0.761,3.526-.216,2.867-2.077,2.867-2.077l-0.053-.151A1.321,1.321,0,0,1,18.637,60.2Z"/>
  <path id="Forma_1_copy_4" data-name="Forma 1 copy 4" class="cls-5" d="M20.639,70.183a2.061,2.061,0,0,0,.828-2.694c-0.433-1.1-1.021-1.9-2.4-1.307s-1.261,1.589-.828,2.694A1.906,1.906,0,0,0,20.639,70.183Zm-1.848,4.364c-0.027-.067-0.008-0.019,0,0h0Zm6.11-2.566c-0.006-.019-0.05-0.128,0,0h0Zm-0.056-.132c-0.784-1.912-1.244-2.354-3.263-1.892a1.268,1.268,0,0,1-.748.725,1.183,1.183,0,0,1-1.018.035c-1.727,1.144-1.777,1.8-1.077,3.685a0.482,0.482,0,0,1,.052.145l0.079,0.2s0.81,0.73,3.406-.386,2.683-2.233,2.683-2.233l-0.058-.15A1.223,1.223,0,0,1,24.845,71.849Z"/>
  <path id="Rounded_Rectangle_604" data-name="Rounded Rectangle 604" class="cls-6" d="M79.881,49.983h37.936a2,2,0,0,1,2,2v9a2,2,0,0,1-2,2H79.881a2,2,0,0,1-2-2v-9A2,2,0,0,1,79.881,49.983Z"/>
  <path id="Forma_1" data-name="Forma 1" class="cls-3" d="M86.123,55.8a2.177,2.177,0,0,0,1.957-2.344c0-1.295-.288-2.344-1.957-2.344s-1.957,1.049-1.957,2.344A2.177,2.177,0,0,0,86.123,55.8Zm-3.7,3.579c0-.079,0-0.022,0,0h0Zm7.393,0.062c0-.022,0-0.15,0,0h0Zm0-.156c-0.036-2.255-.335-2.9-2.621-3.3a1.623,1.623,0,0,1-2.143,0c-2.261.4-2.578,1.035-2.619,3.231a0.5,0.5,0,0,1-.006.168c0,0.039,0,.111,0,0.237,0,0,.544,1.082,3.7,1.082s3.7-1.082,3.7-1.082c0-.081,0-0.137,0-0.175A1.4,1.4,0,0,1,89.815,59.286Z"/>
  <path id="Rounded_Rectangle_605" data-name="Rounded Rectangle 605" class="cls-3" d="M94.856,53.982h18.969a1,1,0,0,1,0,2H94.856A1,1,0,1,1,94.856,53.982Zm0,4h11.979a1,1,0,1,1,0,2H94.856A1,1,0,1,1,94.856,57.981Z"/>
  <path id="Rounded_Rectangle_604-2" data-name="Rounded Rectangle 604" class="cls-7" d="M37.945,9H75.881a2,2,0,0,1,2,2v9a2,2,0,0,1-2,2H37.945a2,2,0,0,1-2-2V11A2,2,0,0,1,37.945,9Z"/>
  <path id="Forma_1-2" data-name="Forma 1" class="cls-3" d="M44.187,14.815a2.177,2.177,0,0,0,1.957-2.344c0-1.295-.288-2.344-1.957-2.344s-1.957,1.05-1.957,2.344A2.177,2.177,0,0,0,44.187,14.815Zm-3.7,3.579c0-.079,0-0.022,0,0h0Zm7.393,0.062c0-.022,0-0.15,0,0h0Zm0-.156c-0.036-2.255-.335-2.9-2.621-3.3a1.623,1.623,0,0,1-2.144,0c-2.261.4-2.578,1.036-2.62,3.231a0.474,0.474,0,0,1-.006.168c0,0.039,0,.111,0,0.237,0,0,.544,1.082,3.7,1.082s3.7-1.082,3.7-1.082c0-.081,0-0.137,0-0.175A1.4,1.4,0,0,1,47.879,18.3Z"/>
  <path id="Rounded_Rectangle_605-2" data-name="Rounded Rectangle 605" class="cls-3" d="M52.92,13H71.889a1,1,0,1,1,0,2H52.92A1,1,0,0,1,52.92,13Zm0,4H64.9a1,1,0,1,1,0,2H52.92A1,1,0,0,1,52.92,16.994Z"/>
  <path id="Rounded_Rectangle_604-3" data-name="Rounded Rectangle 604" class="cls-8" d="M92.861,23.992H130.8a2,2,0,0,1,2,2v9a2,2,0,0,1-2,2H92.861a2,2,0,0,1-2-2v-9A2,2,0,0,1,92.861,23.992Z"/>
  <path id="Forma_1-3" data-name="Forma 1" class="cls-3" d="M99.1,29.81a2.177,2.177,0,0,0,1.957-2.344c0-1.295-.288-2.344-1.957-2.344s-1.957,1.049-1.957,2.344A2.177,2.177,0,0,0,99.1,29.81Zm-3.7,3.579c0-.079,0-0.022,0,0h0Zm7.393,0.062c0-.022,0-0.15,0,0h0Zm0-.156c-0.036-2.255-.335-2.9-2.621-3.3a1.623,1.623,0,0,1-2.143,0c-2.261.4-2.578,1.035-2.619,3.231a0.472,0.472,0,0,1-.006.168c0,0.039,0,.111,0,0.237,0,0,.544,1.082,3.7,1.082s3.7-1.082,3.7-1.082V33.451C102.8,33.464,102.8,33.439,102.8,33.295Z"/>
  <path id="Rounded_Rectangle_605-3" data-name="Rounded Rectangle 605" class="cls-3" d="M107.836,27.991h18.969a1,1,0,0,1,0,2H107.836A1,1,0,0,1,107.836,27.991Zm0,4h11.98a1,1,0,0,1,0,2h-11.98A1,1,0,0,1,107.836,31.989Z"/>
</svg>
