<svg xmlns="http://www.w3.org/2000/svg" width="142" height="94" viewBox="0 0 142 94">
  <metadata><?xpacket begin="﻿" id="W5M0MpCehiHzreSzNTczkc9d"?>
<x:xmpmeta xmlns:x="adobe:ns:meta/" x:xmptk="Adobe XMP Core 5.6-c142 79.160924, 2017/07/13-01:06:39        ">
   <rdf:RDF xmlns:rdf="http://www.w3.org/1999/02/22-rdf-syntax-ns#">
      <rdf:Description rdf:about=""/>
   </rdf:RDF>
</x:xmpmeta>
                                                                                                    
                                                                                                    
                                                                                                    
                                                                                                    
                                                                                                    
                                                                                                    
                                                                                                    
                                                                                                    
                                                                                                    
                                                                                                    
                                                                                                    
                                                                                                    
                                                                                                    
                                                                                                    
                                                                                                    
                                                                                                    
                                                                                                    
                                                                                                    
                                                                                                    
                                                                                                    
                           
<?xpacket end="w"?></metadata>
<defs>
    <style>
      .cls-1 {
        fill: #eef3fe;
      }

      .cls-1, .cls-12, .cls-16, .cls-2, .cls-3, .cls-4, .cls-5, .cls-6, .cls-7, .cls-9 {
        fill-rule: evenodd;
      }

      .cls-2 {
        fill: #fbe3c5;
      }

      .cls-3 {
        fill: #193151;
      }

      .cls-5 {
        fill: #0a1c35;
      }

      .cls-6 {
        fill: #b5ccfa;
      }

      .cls-14, .cls-7 {
        fill: #5387ff;
      }

      .cls-8 {
        fill: #9c9fa6;
      }

      .cls-9 {
        fill: #212121;
        opacity: 0.1;
      }

      .cls-10 {
        fill: #7879dc;
      }

      .cls-11 {
        opacity: 0.2;
      }

      .cls-12 {
        fill: #51aafc;
      }

      .cls-13 {
        opacity: 0.22;
      }

      .cls-15 {
        fill: #33e2a6;
      }

      .cls-16 {
        fill: #4278f2;
      }
    </style>
  </defs>
  <path class="cls-1" d="M0,55.019c0.518-12.348,3.106-22.638,28.987-30.87S62.739,12.287,75.68,4.569C86.106-1.825,118.153-1.263,133.654,20c10.784,14.8,10.007,34.038-2.07,47.334-10.26,11.3-31.5,20.432-52.8,24.7-21.692,4.344-37.893,1.057-53.939-5.117S-0.345,69.768,0,55.019Z"/>
  <path class="cls-2" d="M43.91,20.907S48.156,26.313,53,28c4,1.313,9.991.332,12,0a4.04,4.04,0,0,0,2,0c3.171-.844,1.421-2.544,1.421-2.544S66.2,24.074,65,25c-1.547,1.2-6.739.286-10-1-1.374-1.065-5.936-2.954-7.2-5.735C48.911,17.758,43.929,19.688,43.91,20.907Z"/>
  <path class="cls-3" d="M38.074,83.169s-0.336,2.93.515,3.193a2.918,2.918,0,0,0,2.19,1.235c0.357,0.5,4.331,2.051,6.074,1.119-0.06-.221,1.406-1.317.3-2.64,0,0-5.105-2.226-5.421-3.724Z"/>
  <path id="Shape_121_copy" data-name="Shape 121 copy" class="cls-3" d="M28.074,84.169s-0.336,2.93.515,3.193a2.918,2.918,0,0,0,2.19,1.235c0.357,0.5,4.331,2.051,6.074,1.119-0.06-.221,1.406-1.317.3-2.64,0,0-5.105-2.226-5.421-3.724Z"/>
  <path class="cls-2" d="M36.29,8.918a0.894,0.894,0,0,0,.877.928s-0.031,1.574.816,1.989a16.1,16.1,0,0,0,4.275,1.177,8.593,8.593,0,0,1-.514,1.85c1.314,3.314-3.928,2.372-7.089-.294a3.13,3.13,0,0,0,1.037-2.352C35.861,10.851,36.357,10.228,36.29,8.918Z"/>
  <path class="cls-4" d="M35.778,11.892a5.35,5.35,0,0,1-.509-2.022A9.1,9.1,0,0,1,36.4,6.52a2.091,2.091,0,0,1,1.184-.778,14.77,14.77,0,0,0,3.829-1.024s3.685-.85,4.143,1.966c0,0-2.173-2.444-4.219-1.184,0,0-1.1.468-1.761,3.051C39.5,8.8,39.085,9.436,38.546,8.3c0,0-1.068-2.4-1.865-1.556C36.332,7.283,36.567,10.892,35.778,11.892Z"/>
  <path class="cls-2" d="M36.76,10.09a3.535,3.535,0,0,0,.816,1.97c0.7,0.551.421,0.74,3.658,2.134A3.9,3.9,0,0,0,44.1,13.36a4.662,4.662,0,0,0,.962-2.005A15.846,15.846,0,0,0,45.6,7.281a0.983,0.983,0,0,0-.685-1.249C44.3,5.557,40.983,3,39.472,8.583,38.884,10.3,37.522,4.222,36.315,7.4,36.1,9.315,36.158,9.878,36.76,10.09Z"/>
  <path class="cls-3" d="M45.071,5.454s-0.079-6.5-6.436-5.339a4.95,4.95,0,0,0-4.213,3.95c-0.7,2.649.921,5.7,0.921,5.7a10.888,10.888,0,0,1,1.5-3.6c0.115-.148.087-0.025,0.209-0.079A10.853,10.853,0,0,0,39.63,5.44C41.292,5.049,43.151,4.008,45.071,5.454Z"/>
  <path class="cls-5" d="M48.525,3.746c-4.446-3.164-7.391.041-7.965,1.894,0.412-.425,3.618-1.489,4.928,1.151a26.016,26.016,0,0,1,3.133-1.626A0.693,0.693,0,0,0,49.05,4.36,1.1,1.1,0,0,0,48.525,3.746Z"/>
  <path class="cls-6" d="M45,43a173.039,173.039,0,0,1-.647,24.3c-1.047,9.5-1.063,15.993-1.063,15.993-1.123.943-5.787,0.945-5.787,0.945C36.68,83.171,37,67,37,67c-0.18-1.728-.627-14.639-0.627-14.639a2.148,2.148,0,0,0-.464-0.921c-0.228.281-.948,1.247-0.948,1.247C35.01,53.652,35,67,35,67c-0.04,2.257-1.574,17.289-1.574,17.29a3.733,3.733,0,0,1-1.646-.055h0s-5.247.373-4.852-.941C26.89,81.514,27.192,74.665,27,67c-0.25-9.961-1-21-1-21-0.255-.164,0-5,0-5Z"/>
  <path class="cls-7" d="M51,21c-0.239-.115-1.913-1.57-4-3,0,0-3.309-2.056-5-3a2.778,2.778,0,0,1-2.151,1.093S36.139,16.523,35,14a23.808,23.808,0,0,1-2.5,1.585C29.081,17.391,28.469,17.813,28,21c-0.906,3.75-2,25-2,25l17.617,1.3L45,47c0.772,0.262-.675-5.861,0-13a61.923,61.923,0,0,0,0-10,26.436,26.436,0,0,0,3,2A33.324,33.324,0,0,0,51,21Z"/>
  <rect id="Rounded_Rectangle_598" data-name="Rounded Rectangle 598" class="cls-8" x="53" y="78" width="63" height="5" rx="2" ry="2"/>
  <path id="Rectangle_2_copy_3" data-name="Rectangle 2 copy 3" class="cls-9" d="M58,78l4,0.089L61.938,83H58V78Z"/>
  <path id="Rectangle_2_copy_4" data-name="Rectangle 2 copy 4" class="cls-9" d="M83,78l4,0.089L86.938,83H83V78Z"/>
  <path id="Rectangle_2_copy_5" data-name="Rectangle 2 copy 5" class="cls-9" d="M107,78l4,0.089L110.938,83H107V78Z"/>
  <rect class="cls-10" x="85" y="54" width="24" height="24"/>
  <rect class="cls-11" x="94" y="54" width="7" height="8"/>
  <path class="cls-12" d="M85,28h24V52l-23.934-.111Z"/>
  <rect class="cls-13" x="94" y="28" width="7" height="8"/>
  <rect class="cls-14" x="59" y="54" width="24" height="24"/>
  <rect class="cls-13" x="68" y="54" width="7" height="8"/>
  <rect class="cls-15" x="59" y="26" width="24" height="24"/>
  <rect class="cls-11" x="68" y="26" width="7" height="8"/>
  <path class="cls-2" d="M40.15,23.47S41.976,27.409,48,29a19.007,19.007,0,0,0,9,1,17.171,17.171,0,0,1,5,0c0.516,0.156,1.721,1.938-.976,2.814a9.9,9.9,0,0,1-2.754.118c-5.2-.6-15.152,1.533-21.27-4.932Z"/>
  <path class="cls-16" d="M37,30s3.8-5.288,4-6c0.187,0.037-4.511-3.479-5.88-4.825C31.6,17.043,31.214,16.581,29,19c0,0-2.528,3.3.242,5.727C29.242,24.727,36.5,29.984,37,30Z"/>
</svg>
