<svg id="icon" xmlns="http://www.w3.org/2000/svg" width="181" height="122" viewBox="0 0 181 122">
  <defs>
    <style>
      .cls-1 {
        fill: #eef3fe;
      }

      .cls-1, .cls-3, .cls-4, .cls-5, .cls-6, .cls-7, .cls-8, .cls-9 {
        fill-rule: evenodd;
      }

      .cls-2, .cls-4, .cls-9 {
        fill: #fff;
      }

      .cls-2, .cls-4 {
        stroke: #e3e3e3;
        stroke-width: 1px;
      }

      .cls-2, .cls-4, .cls-8 {
        stroke-linejoin: round;
      }

      .cls-3, .cls-5 {
        fill: #5387ff;
      }

      .cls-3 {
        opacity: 0.9;
      }

      .cls-5 {
        opacity: 0.25;
      }

      .cls-6 {
        fill: #ffd64d;
      }

      .cls-7 {
        fill: #7ea5ff;
      }

      .cls-8 {
        fill: #767ce1;
        stroke: #eef3fe;
        stroke-width: 2px;
      }
    </style>
  </defs>
  <path class="cls-1" d="M19,68.019c0.518-12.348,3.106-22.638,28.987-30.87S81.739,25.287,94.68,17.569c10.426-6.394,42.473-5.832,57.974,15.435,10.784,14.8,10.007,34.037-2.07,47.334-10.26,11.3-31.5,20.432-52.8,24.7-21.692,4.344-37.893,1.057-53.939-5.117S18.655,82.768,19,68.019Z"/>
  <g id="Calener">
    <rect id="Rounded_Rectangle_598" data-name="Rounded Rectangle 598" class="cls-2" x="41" y="28" width="76" height="66" rx="10" ry="10"/>
    <path class="cls-3" d="M46.979,28.493c13.707-.691,50.673-0.244,64.2-0.358a5.781,5.781,0,0,1,5.361,5.031,85.09,85.09,0,0,1-.089,9.758C115.878,43.149,42,43,41.582,43c0.04,0-.124-5.288-0.021-9.09A6.611,6.611,0,0,1,46.979,28.493Z"/>
    <path id="Rounded_Rectangle_600" data-name="Rounded Rectangle 600" class="cls-4" d="M56.411,24.533c2.259,0,2.651,2.233,2.589,3.467v5c0.022,1.233.137,4.036-2.615,4.036-2.83,0-2.354-2.818-2.385-4.036V28C53.986,26.766,54.37,24.533,56.411,24.533Zm22-.594c2.566,0.014,2.8,2.813,2.592,4.06v5c0,1.225.423,4-2.421,4S76,34.245,76,33V28C76.063,26.767,75.594,23.961,78.408,23.94Zm22.113,0.053c2.781-.1,2.556,2.773,2.479,4.007v5c-0.04,1.229.279,4-2.421,4.017C97.7,37,98,34.242,98,33V28C97.935,26.758,97.755,24,100.521,23.993Z"/>
    <g>
      <path id="Rounded_Rectangle_601_copy" data-name="Rounded Rectangle 601 copy" class="cls-5" d="M51,51h5a0.94,0.94,0,0,1,1,1v5a0.909,0.909,0,0,1-1,1H51a0.842,0.842,0,0,1-1-1V52A0.9,0.9,0,0,1,51,51ZM68.114,77.446"/>
      <path id="Rounded_Rectangle_601_copy_2" data-name="Rounded Rectangle 601 copy 2" class="cls-5" d="M68,51h5a0.94,0.94,0,0,1,1,1v5a0.909,0.909,0,0,1-1,1H68a0.842,0.842,0,0,1-1-1V52A0.9,0.9,0,0,1,68,51ZM85.114,77.446"/>
      <path id="Rounded_Rectangle_601_copy_3" data-name="Rounded Rectangle 601 copy 3" class="cls-6" d="M85,51h5a0.94,0.94,0,0,1,1,1v5a0.909,0.909,0,0,1-1,1H85a0.842,0.842,0,0,1-1-1V52A0.9,0.9,0,0,1,85,51Zm17.114,26.446"/>
      <path id="Rounded_Rectangle_601_copy_4" data-name="Rounded Rectangle 601 copy 4" class="cls-5" d="M102,51h5a0.94,0.94,0,0,1,1,1v5a0.909,0.909,0,0,1-1,1h-5a0.842,0.842,0,0,1-1-1V52A0.9,0.9,0,0,1,102,51Zm17.114,26.446"/>
      <path id="Rounded_Rectangle_601_copy_5" data-name="Rounded Rectangle 601 copy 5" class="cls-5" d="M51,64h5a0.94,0.94,0,0,1,1,1v5a0.909,0.909,0,0,1-1,1H51a0.842,0.842,0,0,1-1-1V65A0.9,0.9,0,0,1,51,64ZM68.114,90.446"/>
      <path id="Rounded_Rectangle_601_copy_5-2" data-name="Rounded Rectangle 601 copy 5" class="cls-7" d="M68,64h5a0.94,0.94,0,0,1,1,1v5a0.909,0.909,0,0,1-1,1H68a0.842,0.842,0,0,1-1-1V65A0.9,0.9,0,0,1,68,64ZM85.114,90.446"/>
      <path id="Rounded_Rectangle_601_copy_5-3" data-name="Rounded Rectangle 601 copy 5" class="cls-5" d="M85,64h5a0.94,0.94,0,0,1,1,1v5a0.909,0.909,0,0,1-1,1H85a0.842,0.842,0,0,1-1-1V65A0.9,0.9,0,0,1,85,64Zm17.114,26.446"/>
      <path id="Rounded_Rectangle_601_copy_5-4" data-name="Rounded Rectangle 601 copy 5" class="cls-5" d="M102,64h5a0.94,0.94,0,0,1,1,1v5a0.909,0.909,0,0,1-1,1h-5a0.842,0.842,0,0,1-1-1V65A0.9,0.9,0,0,1,102,64Zm17.114,26.446"/>
      <path id="Rounded_Rectangle_601_copy_6" data-name="Rounded Rectangle 601 copy 6" class="cls-5" d="M51,77h5a0.94,0.94,0,0,1,1,1v5a0.909,0.909,0,0,1-1,1H51a0.842,0.842,0,0,1-1-1V78A0.9,0.9,0,0,1,51,77Zm17.114,26.446"/>
      <path id="Rounded_Rectangle_601_copy_6-2" data-name="Rounded Rectangle 601 copy 6" class="cls-5" d="M68,77h5a0.94,0.94,0,0,1,1,1v5a0.909,0.909,0,0,1-1,1H68a0.842,0.842,0,0,1-1-1V78A0.9,0.9,0,0,1,68,77Zm17.114,26.446"/>
      <path id="Rounded_Rectangle_601_copy_6-3" data-name="Rounded Rectangle 601 copy 6" class="cls-5" d="M85,77h5a0.94,0.94,0,0,1,1,1v5a0.909,0.909,0,0,1-1,1H85a0.842,0.842,0,0,1-1-1V78A0.9,0.9,0,0,1,85,77Zm17.114,26.446"/>
    </g>
  </g>
  <g id="time">
    <path id="Forma_1" data-name="Forma 1" class="cls-8" d="M116.5,67a14.5,14.5,0,1,1-10.247,4.246A14.5,14.5,0,0,1,116.5,67h0Z"/>
    <path id="Forma_1_copy_5" data-name="Forma 1 copy 5" class="cls-9" d="M124.141,81.132a0.935,0.935,0,0,1,0,1.866H115.88a0.879,0.879,0,0,1-.76-0.473l-0.012-.013h0l-0.013-.026h0V82.472h0l-0.012-.026h0l-0.013-.026h0V82.406h0l-0.012-.026h0l-0.013-.013h0V82.34h0l-0.013-.026h0V82.3h0l-0.012-.027h0V82.247h0V82.221l-0.013-.013h0V82.181h0V82.154h0V82.131h0V82.118h0V82.092h0V82.065h0v-9.13a0.891,0.891,0,0,1,.872-0.92,0.9,0.9,0,0,1,.885.92v8.2h7.377Z"/>
  </g>
</svg>
