<svg id="icon" xmlns="http://www.w3.org/2000/svg" width="181" height="122" viewBox="0 0 181 122">
  <defs>
    <style>
      .cls-1 {
        fill: #eef3fe;
      }

      .cls-1, .cls-13, .cls-2, .cls-3, .cls-6 {
        fill-rule: evenodd;
      }

      .cls-13, .cls-2, .cls-5, .cls-8 {
        fill: #fff;
      }

      .cls-2, .cls-8 {
        stroke: #e3e3e3;
        stroke-linejoin: round;
        stroke-width: 1px;
      }

      .cls-3, .cls-4, .cls-9 {
        fill: #5387ff;
      }

      .cls-4 {
        opacity: 0.7;
      }

      .cls-6, .cls-7 {
        fill: #e3e3e3;
      }

      .cls-10 {
        fill: #00ca72;
      }

      .cls-11 {
        fill: #7879dc;
      }

      .cls-12 {
        fill: #fe9c33;
      }
    </style>
  </defs>
  <path class="cls-1" d="M20,68.019c0.518-12.348,3.106-22.638,28.987-30.87S82.739,25.287,95.68,17.569c10.426-6.394,42.473-5.832,57.974,15.435,10.784,14.8,10.007,34.037-2.07,47.334-10.26,11.3-31.5,20.432-52.8,24.7-21.692,4.344-37.893,1.057-53.939-5.117S19.655,82.768,20,68.019Z"/>
  <g id="Desktop">
    <path class="cls-2" d="M82.007,84.662a2.493,2.493,0,0,0-.615,1.494,2.112,2.112,0,0,0,3.6,1.494,2.059,2.059,0,0,0,.615-1.494,1.811,1.811,0,0,0-.615-1.494A2.176,2.176,0,0,0,82.007,84.662ZM121,35H46a2.984,2.984,0,0,0-3,3V88a2.984,2.984,0,0,0,3,3H76v11H65a0.5,0.5,0,1,0,0,1h37c0.815,0,.587-1,0-1H91V91h30a2.984,2.984,0,0,0,3-3V38A2.984,2.984,0,0,0,121,35Z"/>
    <path class="cls-3" d="M45,36h76.99a0.908,0.908,0,0,1,1.017,1c0.007,1.274.016,4.384-.007,5H44c-0.006-.118,0-3.786,0-5A1.085,1.085,0,0,1,45,36Z"/>
    <rect id="Rectangle_11_copy" data-name="Rectangle 11 copy" class="cls-4" x="44" y="42" width="5" height="37"/>
    <circle id="Ellipse_1_copy_2" data-name="Ellipse 1 copy 2" class="cls-5" cx="110" cy="39" r="1"/>
    <circle id="Ellipse_1_copy_3" data-name="Ellipse 1 copy 3" class="cls-5" cx="114" cy="39" r="1"/>
    <circle id="Ellipse_1_copy_4" data-name="Ellipse 1 copy 4" class="cls-5" cx="118" cy="39" r="1"/>
    <rect class="cls-5" x="48" y="38" width="7" height="2"/>
    <path class="cls-6" d="M44,80V79h79v1H44Z"/>
    <path id="Shape_709_copy" data-name="Shape 709 copy" class="cls-6" d="M76,91V90H91v1H76Z"/>
    <path id="Shape_1_copy_3" data-name="Shape 1 copy 3" class="cls-2" d="M80.86,82.815a3.572,3.572,0,0,0-.881,2.141A3.026,3.026,0,0,0,85.14,87.1a2.951,2.951,0,0,0,.881-2.141,2.6,2.6,0,0,0-.881-2.141A3.118,3.118,0,0,0,80.86,82.815Z"/>
    <g>
      <rect id="Rounded_Rectangle_598_copy" data-name="Rounded Rectangle 598 copy" class="cls-7" x="69" y="46" width="32" height="2" rx="1" ry="1"/>
      <rect id="Rounded_Rectangle_598_copy_5" data-name="Rounded Rectangle 598 copy 5" class="cls-7" x="69" y="52" width="21" height="2" rx="1" ry="1"/>
      <rect id="Rounded_Rectangle_598_copy_2" data-name="Rounded Rectangle 598 copy 2" class="cls-7" x="53" y="60" width="52" height="2" rx="1" ry="1"/>
      <rect id="Rounded_Rectangle_598_copy_3" data-name="Rounded Rectangle 598 copy 3" class="cls-7" x="53" y="66" width="52" height="2" rx="1" ry="1"/>
      <rect id="Rounded_Rectangle_598_copy_4" data-name="Rounded Rectangle 598 copy 4" class="cls-7" x="53" y="72" width="33" height="2" rx="1" ry="1"/>
    </g>
    <rect class="cls-7" x="53" y="44" width="12" height="12"/>
  </g>
  <g id="Select_Color" data-name="Select Color">
    <rect class="cls-8" x="110" y="61" width="36" height="35"/>
    <rect class="cls-9" x="115" y="66" width="11" height="11"/>
    <rect id="Rectangle_13_copy" data-name="Rectangle 13 copy" class="cls-10" x="130" y="66" width="11" height="11"/>
    <rect id="Rectangle_13_copy_2" data-name="Rectangle 13 copy 2" class="cls-11" x="115" y="81" width="11" height="11"/>
    <rect id="Rectangle_13_copy_2-2" data-name="Rectangle 13 copy 2" class="cls-12" x="130" y="81" width="11" height="11"/>
    <path id="Forma_1" data-name="Forma 1" class="cls-13" d="M117.092,72.3a0.286,0.286,0,0,1,0-.42l0.431-.42a0.3,0.3,0,0,1,.431,0l0.031,0.03,1.692,1.772a0.151,0.151,0,0,0,.215,0l4.123-4.174h0.031a0.3,0.3,0,0,1,.431,0l0.431,0.42a0.286,0.286,0,0,1,0,.42h0l-4.923,4.985a0.285,0.285,0,0,1-.216.09,0.282,0.282,0,0,1-.215-0.09l-2.4-2.522Z"/>
  </g>
</svg>
