<svg id="icon" xmlns="http://www.w3.org/2000/svg" width="171" height="127" viewBox="0 0 171 127">
  <defs>
    <style>
      .cls-1 {
        fill: #eef3fe;
      }

      .cls-1, .cls-4, .cls-5, .cls-7 {
        fill-rule: evenodd;
      }

      .cls-2 {
        fill: #7484a6;
      }

      .cls-3, .cls-4, .cls-7 {
        fill: #fff;
      }

      .cls-4 {
        stroke: #e3e3e3;
        stroke-linejoin: round;
        stroke-width: 1px;
      }

      .cls-5 {
        fill: #569bfc;
      }

      .cls-6 {
        fill: #7879dc;
      }

      .cls-8 {
        fill: #00ca72;
      }

      .cls-9 {
        fill: #fe9c33;
      }
    </style>
  </defs>
  <path class="cls-1" d="M16,71.019c0.518-12.348,3.106-22.638,28.987-30.87S78.739,28.287,91.68,20.569c10.426-6.394,42.473-5.832,57.974,15.435,10.784,14.8,10.007,34.037-2.07,47.334-10.26,11.3-31.5,20.432-52.8,24.7-21.692,4.344-37.893,1.057-53.939-5.117S15.655,85.768,16,71.019Z"/>
  <g id="_1" data-name="1">
    <g>
      <g>
        <rect id="Rounded_Rectangle_603" data-name="Rounded Rectangle 603" class="cls-2" x="79" y="19" width="41" height="68" rx="2" ry="2"/>
        <rect id="Rounded_Rectangle_603_copy" data-name="Rounded Rectangle 603 copy" class="cls-3" x="81" y="21" width="37" height="64" rx="2" ry="2"/>
      </g>
      <g id="_1_copy_2" data-name="1 copy 2">
        <g>
          <path id="Rounded_Rectangle_601" data-name="Rounded Rectangle 601" class="cls-4" d="M14.9,69.539l37.781-19.38a1.565,1.565,0,0,1,2.083.731l16.1,30.5a1.55,1.55,0,0,1-.741,2.07L32.394,102.843a1.566,1.566,0,0,1-2.083-.731l-16.154-30.5A1.55,1.55,0,0,1,14.9,69.539Z"/>
          <path id="Rounded_Rectangle_606" data-name="Rounded Rectangle 606" class="cls-5" d="M34.514,71.788l7.264-3.726a1,1,0,1,1,.837,1.816L35.351,73.6A1,1,0,1,1,34.514,71.788Z"/>
          <path id="Rounded_Rectangle_606_copy" data-name="Rounded Rectangle 606 copy" class="cls-5" d="M40.281,82.932l7.264-3.726a1,1,0,1,1,.837,1.816l-7.264,3.726A1,1,0,0,1,40.281,82.932Z"/>
          <path id="Rounded_Rectangle_606_copy_3" data-name="Rounded Rectangle 606 copy 3" class="cls-5" d="M51.281,76.932l5.264-2.726a1,1,0,1,1,.837,1.816l-5.264,2.726A1,1,0,1,1,51.281,76.932Z"/>
          <path id="Rounded_Rectangle_606_copy_4" data-name="Rounded Rectangle 606 copy 4" class="cls-5" d="M46.281,65.932l5.264-2.726a1,1,0,1,1,.837,1.816l-5.264,2.726A1,1,0,0,1,46.281,65.932Z"/>
          <path id="Forma_1_copy_2" data-name="Forma 1 copy 2" class="cls-5" d="M28.4,75.366a2,2,0,0,0,.979-2.624c-0.4-1.114-.965-1.927-2.411-1.409s-1.375,1.51-.979,2.624A1.985,1.985,0,0,0,28.4,75.366ZM26.3,79.591c-0.024-.068-0.007-0.019,0,0h0Zm6.422-2.241c-0.006-.019-0.046-0.129,0,0h0Zm-0.051-.133c-0.72-1.929-1.175-2.389-3.279-2.029a1.5,1.5,0,0,1-1.856.665c-1.835,1.047-1.916,1.69-1.281,3.592a0.457,0.457,0,0,1,.046.146l0.072,0.2s0.8,0.762,3.532-.216S32.771,77.5,32.771,77.5l-0.053-.151A1.292,1.292,0,0,1,32.666,77.217Z"/>
          <path id="Forma_1_copy_4" data-name="Forma 1 copy 4" class="cls-5" d="M34.671,87.206a2.061,2.061,0,0,0,.83-2.695c-0.434-1.105-1.022-1.9-2.4-1.308s-1.263,1.589-.83,2.695A1.909,1.909,0,0,0,34.671,87.206ZM32.82,91.572c-0.027-.067-0.008-0.019,0,0h0ZM38.939,89c-0.006-.019-0.05-0.128,0,0h0Zm-0.056-.132c-0.785-1.913-1.246-2.355-3.268-1.893a1.269,1.269,0,0,1-.749.725,1.186,1.186,0,0,1-1.019.035c-1.73,1.145-1.78,1.8-1.079,3.687a0.476,0.476,0,0,1,.051.145l0.08,0.2s0.811,0.731,3.411-.386S39,89.155,39,89.155L38.939,89A1.223,1.223,0,0,1,38.883,88.873Z"/>
        </g>
        <g id="_1-2" data-name="1">
          <rect id="Rounded_Rectangle_604" data-name="Rounded Rectangle 604" class="cls-6" x="92" y="67" width="42" height="13" rx="2" ry="2"/>
          <path id="Forma_1" data-name="Forma 1" class="cls-7" d="M100.254,72.82a2.179,2.179,0,0,0,1.961-2.345c0-1.3-.289-2.345-1.961-2.345s-1.96,1.05-1.96,2.345A2.179,2.179,0,0,0,100.254,72.82Zm-3.7,3.58c0-.079,0-0.022,0,0h0Zm7.405,0.062c0-.022,0-0.15,0,0h0Zm0-.156c-0.036-2.256-.335-2.9-2.624-3.306a1.627,1.627,0,0,1-2.147,0c-2.264.4-2.582,1.036-2.623,3.233a0.5,0.5,0,0,1-.006.168c0,0.039,0,.111,0,0.237,0,0,.545,1.082,3.7,1.082s3.7-1.082,3.7-1.082V76.462C103.956,76.475,103.955,76.45,103.952,76.306Z"/>
          <path id="Rounded_Rectangle_605" data-name="Rounded Rectangle 605" class="cls-7" d="M109,71h19a1,1,0,0,1,0,2H109A1,1,0,0,1,109,71Zm0,4h12a1,1,0,0,1,0,2H109A1,1,0,0,1,109,75Z"/>
        </g>
        <g id="_1_copy_3" data-name="1 copy 3">
          <rect id="Rounded_Rectangle_604-2" data-name="Rounded Rectangle 604" class="cls-8" x="50" y="26" width="42" height="13" rx="2" ry="2"/>
          <path id="Forma_1-2" data-name="Forma 1" class="cls-7" d="M58.254,31.82a2.179,2.179,0,0,0,1.96-2.345c0-1.3-.288-2.345-1.96-2.345s-1.96,1.05-1.96,2.345A2.179,2.179,0,0,0,58.254,31.82Zm-3.7,3.58c0-.079,0-0.022,0,0h0Zm7.4,0.062c0-.022,0-0.15,0,0h0Zm0-.156c-0.036-2.256-.335-2.9-2.625-3.306a1.627,1.627,0,0,1-2.147,0c-2.264.4-2.582,1.036-2.623,3.232a0.5,0.5,0,0,1-.006.168c0,0.039,0,.111,0,0.237,0,0,.545,1.082,3.7,1.082s3.7-1.082,3.7-1.082c0-.081,0-0.137,0-0.175A1.4,1.4,0,0,1,61.952,35.306Z"/>
          <path id="Rounded_Rectangle_605-2" data-name="Rounded Rectangle 605" class="cls-7" d="M67,30H86a1,1,0,0,1,0,2H67A1,1,0,0,1,67,30Zm0,4H79a1,1,0,0,1,0,2H67A1,1,0,0,1,67,34Z"/>
        </g>
        <g id="_1_copy_4" data-name="1 copy 4">
          <rect id="Rounded_Rectangle_604-3" data-name="Rounded Rectangle 604" class="cls-9" x="105" y="41" width="42" height="13" rx="2" ry="2"/>
          <path id="Forma_1-3" data-name="Forma 1" class="cls-7" d="M113.254,46.82a2.179,2.179,0,0,0,1.961-2.345c0-1.3-.289-2.345-1.961-2.345s-1.96,1.05-1.96,2.345A2.179,2.179,0,0,0,113.254,46.82Zm-3.7,3.581c0-.079,0-0.022,0,0h0Zm7.4,0.062c0-.022,0-0.15,0,0h0Zm0-.156c-0.036-2.256-.335-2.9-2.624-3.306a1.627,1.627,0,0,1-2.147,0c-2.264.4-2.582,1.036-2.624,3.233a0.651,0.651,0,0,1,0,.168v0.237s0.545,1.082,3.7,1.082,3.7-1.082,3.7-1.082V50.462C116.956,50.475,116.955,50.45,116.952,50.306Z"/>
          <path id="Rounded_Rectangle_605-3" data-name="Rounded Rectangle 605" class="cls-7" d="M122,45h19a1,1,0,0,1,0,2H122A1,1,0,0,1,122,45Zm0,4h12a1,1,0,0,1,0,2H122A1,1,0,0,1,122,49Z"/>
        </g>
      </g>
    </g>
  </g>
</svg>
