<svg id="icon" xmlns="http://www.w3.org/2000/svg" width="181" height="122" viewBox="0 0 181 122">
  <defs>
    <style>
      .cls-1 {
        fill: #eef3fe;
      }

      .cls-1, .cls-10, .cls-2, .cls-3, .cls-4, .cls-5, .cls-6, .cls-7, .cls-8, .cls-9 {
        fill-rule: evenodd;
      }

      .cls-2 {
        fill: #f3d5af;
      }

      .cls-3 {
        fill: #5387ff;
      }

      .cls-4 {
        fill: #fff;
        opacity: 0.5;
      }

      .cls-5 {
        fill: #fbe3c5;
      }

      .cls-6 {
        fill: #343439;
      }

      .cls-7 {
        fill: #8388e4;
      }

      .cls-8 {
        fill: #33e2a6;
      }

      .cls-9 {
        fill: #51aafc;
      }

      .cls-10 {
        fill: #8f94e7;
        opacity: 0.85;
      }
    </style>
  </defs>
  <path class="cls-1" d="M20,68.019c0.518-12.348,3.106-22.638,28.987-30.87S82.739,25.287,95.68,17.569c10.426-6.394,42.473-5.832,57.974,15.435,10.784,14.8,10.007,34.037-2.07,47.334-10.26,11.3-31.5,20.432-52.8,24.7-21.692,4.344-37.893,1.057-53.939-5.117S19.655,82.768,20,68.019Z"/>
  <g id="user-1">
    <path class="cls-2" d="M87.818,29.882s-1,2.136-1.992,2.481l4.482,3.474,4.482-.5-0.5-2.977A7.136,7.136,0,0,1,92.8,29.882C91.787,27.657,87.818,29.882,87.818,29.882Z"/>
    <path class="cls-3" d="M86.969,31.36S75.431,31.821,77,44h26s1.528-10.765-9.086-12.892C93.914,31.108,90.8,36.161,86.969,31.36Z"/>
    <path class="cls-4" d="M89.312,33.516a1.9,1.9,0,0,0,.5,1.985L89,43.508s-0.047.851,1.215,0.881a1.167,1.167,0,0,0,1.384-.881L90.806,35.5a2.179,2.179,0,0,0,.5-1.985C91.283,33.229,89.51,33.383,89.312,33.516Z"/>
    <path class="cls-5" d="M84.332,22.935s-1.382,1.861,1,2.977a4.961,4.961,0,0,0,2.49,3.97c0.218,0.062,6.073,1.875,6.972-3.97a2.259,2.259,0,0,0,1-2.977s-0.722-3.512-1-3.474-4.98-1.489-4.98-1.489l-5.478,2.481v2.481"/>
    <path class="cls-6" d="M84,23a4.385,4.385,0,0,0,2.324-1.057S91.3,22.694,92.9,20.81c0,0,1.137-.177,2.389,1.629,0,0-.076,1.452.713-0.439,0,0,1.465-4.878-3.2-7C92.8,15,83.237,11.742,84,23Z"/>
  </g>
  <g id="user-2">
    <path class="cls-2" d="M53.538,79.522s-1,2.136-1.992,2.481l4.482,3.474,4.482-.5L60.011,82a7.134,7.134,0,0,1-1.494-2.481C57.508,77.3,53.538,79.522,53.538,79.522Z"/>
    <path class="cls-7" d="M52.689,81S41.431,81.821,43,94H69s1.248-11.125-9.366-13.252C59.634,80.748,56.522,85.8,52.689,81Z"/>
    <path class="cls-4" d="M55.032,83.156a1.9,1.9,0,0,0,.5,1.985l-0.81,8.007s-0.047.851,1.215,0.881a1.167,1.167,0,0,0,1.384-.881l-0.794-8.007a2.179,2.179,0,0,0,.5-1.985C57,82.869,55.23,83.023,55.032,83.156Z"/>
    <path class="cls-5" d="M50.052,72.575s-1.382,1.861,1,2.977a4.961,4.961,0,0,0,2.49,3.97c0.218,0.062,6.073,1.875,6.972-3.97a2.259,2.259,0,0,0,1-2.977s-0.722-3.512-1-3.474-4.98-1.489-4.98-1.489l-5.478,2.481v2.481"/>
    <path class="cls-6" d="M50,73a7.714,7.714,0,0,0,2.044-1.417s4.981,0.751,6.575-1.133c0,0,1.137-.177,2.389,1.629,0,0,.2,1.812.992-0.079,0,0,1.185-5.238-3.483-7.365C58.518,64.635,48.718,61.806,50,73Z"/>
  </g>
  <g id="user-3">
    <path class="cls-2" d="M87.818,79.522s-1,2.136-1.992,2.481l4.482,3.474,4.482-.5L94.291,82A7.134,7.134,0,0,1,92.8,79.522C91.787,77.3,87.818,79.522,87.818,79.522Z"/>
    <path class="cls-8" d="M86.969,81S75.431,81.821,77,94h26s1.528-11.125-9.086-13.252C93.914,80.748,90.8,85.8,86.969,81Z"/>
    <path class="cls-4" d="M89.312,83.156a1.9,1.9,0,0,0,.5,1.985L89,93.148s-0.047.851,1.215,0.881a1.167,1.167,0,0,0,1.384-.881l-0.794-8.007a2.179,2.179,0,0,0,.5-1.985C91.283,82.869,89.51,83.023,89.312,83.156Z"/>
    <path class="cls-5" d="M84.332,72.575s-1.382,1.861,1,2.977a4.961,4.961,0,0,0,2.49,3.97c0.218,0.062,6.073,1.875,6.972-3.97a2.259,2.259,0,0,0,1-2.977s-0.722-3.512-1-3.474-4.98-1.489-4.98-1.489l-5.478,2.481v2.481"/>
    <path class="cls-6" d="M84,73a7.287,7.287,0,0,0,2.324-1.417S91.3,72.334,92.9,70.45c0,0,1.137-.177,2.389,1.629,0,0-.076,1.812.713-0.079,0,0,1.465-5.238-3.2-7.365C92.8,64.635,82.664,61.248,84,73Z"/>
  </g>
  <g id="user-4">
    <path class="cls-2" d="M121.418,79.522s-1,2.136-1.992,2.481l4.482,3.474,4.481-.5L127.891,82a7.138,7.138,0,0,1-1.493-2.481C125.388,77.3,121.418,79.522,121.418,79.522Z"/>
    <path class="cls-9" d="M120.569,81s-11.138.821-9.569,13h25s2.128-11.125-8.486-13.252C127.514,80.748,124.4,85.8,120.569,81Z"/>
    <path class="cls-4" d="M122.912,83.156a1.9,1.9,0,0,0,.5,1.985l-0.81,8.007s-0.047.851,1.215,0.881a1.167,1.167,0,0,0,1.384-.881l-0.793-8.007a2.18,2.18,0,0,0,.5-1.985C124.883,82.869,123.11,83.023,122.912,83.156Z"/>
    <path class="cls-5" d="M117.932,72.575s-1.382,1.861,1,2.977a4.962,4.962,0,0,0,2.49,3.97c0.218,0.062,6.072,1.875,6.971-3.97a2.259,2.259,0,0,0,1-2.977s-0.722-3.512-1-3.474-4.979-1.489-4.979-1.489l-5.478,2.481v2.481"/>
    <path class="cls-6" d="M117,73a7.862,7.862,0,0,0,2.924-1.417s4.981,0.751,6.575-1.133c0,0,1.137-.177,2.388,1.629,0,0,.325,1.812,1.113-0.079,0,0,1.065-5.238-3.6-7.365C126.4,64.635,115.877,61.654,117,73Z"/>
  </g>
  <path class="cls-10" d="M125,60V55a2.115,2.115,0,0,0-2-2H91V47H89v6H57a2.206,2.206,0,0,0-2,2v5h2V56a0.9,0.9,0,0,1,1-1H89v5h2V55h31a0.953,0.953,0,0,1,1,1v4h2Z"/>
</svg>
