<svg id="Icon" xmlns="http://www.w3.org/2000/svg" width="181" height="122" viewBox="0 0 181 122">
  <defs>
    <style>
      .cls-1 {
        fill: #eef3fe;
      }

      .cls-1, .cls-11, .cls-12, .cls-13, .cls-14, .cls-2, .cls-3, .cls-4, .cls-5, .cls-6, .cls-7, .cls-8, .cls-9 {
        fill-rule: evenodd;
      }

      .cls-10, .cls-2, .cls-5 {
        fill: #fff;
      }

      .cls-2 {
        stroke: #e3e3e3;
        stroke-linejoin: round;
        stroke-width: 1px;
      }

      .cls-3 {
        fill: #7879dc;
      }

      .cls-4 {
        fill: #00ca72;
      }

      .cls-6 {
        fill: #57b6f1;
      }

      .cls-7 {
        fill: #569bfc;
      }

      .cls-8 {
        fill: #1b6abf;
      }

      .cls-9 {
        fill: #3d93f0;
      }

      .cls-11 {
        fill: #c8e6f8;
      }

      .cls-12 {
        fill: #fe8300;
      }

      .cls-13 {
        fill: #2669a9;
      }

      .cls-14 {
        fill: #de617e;
      }
    </style>
  </defs>
  <path class="cls-1" d="M19,76.019c0.518-12.348,3.106-22.638,28.987-30.87S81.739,33.287,94.68,25.569c10.426-6.394,42.473-5.832,57.974,15.435,10.784,14.8,10.007,34.037-2.07,47.334-10.26,11.3-31.5,20.432-52.8,24.7-21.692,4.344-37.893,1.057-53.939-5.117S18.655,90.768,19,76.019Z"/>
  <g>
    <path id="Rounded_Rectangle_1" data-name="Rounded Rectangle 1" class="cls-2" d="M29.9,19.483L92.523,8.928a3.627,3.627,0,0,1,4.147,3.011l11.6,75.329A3.618,3.618,0,0,1,105.25,91.4L42.628,101.956a3.626,3.626,0,0,1-4.147-3.011L26.88,23.616A3.618,3.618,0,0,1,29.9,19.483Z"/>
    <path id="Rounded_Rectangle_604" data-name="Rounded Rectangle 604" class="cls-3" d="M55.417,30.524l27.829-4.029a1.5,1.5,0,1,1,.337,2.981L55.753,33.5A1.5,1.5,0,0,1,55.417,30.524Zm1,7,23.829-3.029a1.5,1.5,0,1,1,.337,2.981l-23.83,3.029A1.5,1.5,0,0,1,56.417,37.524Z"/>
    <path id="Rounded_Rectangle_605" data-name="Rounded Rectangle 605" class="cls-4" d="M38.853,32.949l7.829-1.643a2,2,0,0,1,2.368,1.547l1.643,7.829a2,2,0,0,1-1.547,2.368l-7.83,1.643a2,2,0,0,1-2.368-1.547l-1.643-7.83A2,2,0,0,1,38.853,32.949Z"/>
    <path class="cls-5" d="M42.7,40.385a0.812,0.812,0,0,1-1.164,0l-1.725-1.761a0.836,0.836,0,0,1-.242-0.593,0.845,0.845,0,0,1,.242-0.6,0.812,0.812,0,0,1,1.164,0L42.12,38.6l3.9-4a0.812,0.812,0,0,1,1.164,0,0.85,0.85,0,0,1,0,1.188Z"/>
    <g>
      <path id="Rounded_Rectangle_605_copy" data-name="Rounded Rectangle 605 copy" class="cls-4" d="M42.709,55.1l7.779-1.869A2,2,0,0,1,52.9,54.709l1.869,7.779A2,2,0,0,1,53.291,64.9l-7.779,1.869A2,2,0,0,1,43.1,65.291l-1.869-7.779A2,2,0,0,1,42.709,55.1Z"/>
      <path id="Rounded_Rectangle_604_copy" data-name="Rounded Rectangle 604 copy" class="cls-6" d="M61.343,51.9l27.713-4.764a1.5,1.5,0,1,1,.415,2.971L61.758,54.869A1.5,1.5,0,0,1,61.343,51.9Zm1.185,6.971L86.269,55.21a1.5,1.5,0,1,1,.415,2.971L62.943,61.84A1.5,1.5,0,0,1,62.528,58.869Z"/>
      <path id="Shape_1_copy" data-name="Shape 1 copy" class="cls-5" d="M47.9,62.484a0.812,0.812,0,0,1-1.16.1l-1.865-1.612a0.836,0.836,0,0,1-.29-0.571,0.844,0.844,0,0,1,.192-0.613,0.812,0.812,0,0,1,1.16-.1l1.237,1.069,3.557-4.31a0.812,0.812,0,0,1,1.16-.1,0.85,0.85,0,0,1,.1,1.184Z"/>
    </g>
    <g id="Group_42_copy" data-name="Group 42 copy">
      <path id="Rounded_Rectangle_605_copy-2" data-name="Rounded Rectangle 605 copy" class="cls-2" d="M47.566,78.089l7.842-1.9a2.016,2.016,0,0,1,2.432,1.5l1.884,7.89a2.029,2.029,0,0,1-1.49,2.446l-7.842,1.9a2.016,2.016,0,0,1-2.432-1.5l-1.884-7.89A2.029,2.029,0,0,1,47.566,78.089Z"/>
      <path id="Rounded_Rectangle_604_copy-2" data-name="Rounded Rectangle 604 copy" class="cls-7" d="M66.352,74.841l27.94-4.832a1.521,1.521,0,0,1,.419,3.013l-27.94,4.832A1.521,1.521,0,0,1,66.352,74.841Zm1.195,7.07L91.482,78.2a1.521,1.521,0,0,1,.419,3.013L67.966,84.925A1.521,1.521,0,0,1,67.547,81.911Z"/>
    </g>
  </g>
  <g>
    <path class="cls-8" d="M121.73,7.561V9.684l3.392,0.91V7.258Z"/>
    <path id="Rounded_Rectangle_5" data-name="Rounded Rectangle 5" class="cls-6" d="M119.905,8.891a1.947,1.947,0,0,1,2.206-1.886l1.453,0.105a2.576,2.576,0,0,1,2.363,2.177l0.133,1.284-6.155-.379v-1.3Z"/>
    <path id="Ellipse_1_copy_3" data-name="Ellipse 1 copy 3" class="cls-9" d="M122.426,9.38A15.445,15.445,0,0,1,138,24.693a15.576,15.576,0,0,1-31.148,0A15.445,15.445,0,0,1,122.426,9.38Z"/>
    <circle id="Rounded_Rectangle_4" data-name="Rounded Rectangle 4" class="cls-10" cx="122.188" cy="24.703" r="14.031"/>
    <circle id="Rounded_Rectangle_4_copy" data-name="Rounded Rectangle 4 copy" class="cls-10" cx="122.188" cy="24.703" r="14.031"/>
    <path id="Ellipse_1_copy" data-name="Ellipse 1 copy" class="cls-6" d="M121.576,9.38a15.444,15.444,0,0,1,15.573,15.312,15.576,15.576,0,0,1-31.147,0A15.444,15.444,0,0,1,121.576,9.38ZM122,11A13.763,13.763,0,0,1,136,24.5a14.018,14.018,0,0,1-28.017,0A13.763,13.763,0,0,1,122,11Z"/>
    <path class="cls-11" d="M121.421,21.812a3.336,3.336,0,1,1-3.392,3.335A3.364,3.364,0,0,1,121.421,21.812Z"/>
    <path class="cls-11" d="M114.287,18.208l1.049-1.111,1.809,1.65L116.1,19.857Z"/>
    <path class="cls-12" d="M121.576,23.631a1.668,1.668,0,1,1-1.7,1.668A1.682,1.682,0,0,1,121.576,23.631Z"/>
    <path id="Rounded_Rectangle_3" data-name="Rounded Rectangle 3" class="cls-12" d="M118.567,24.342l9.84,1.008a0.758,0.758,0,1,1-.114,1.512l-9.839-1.008A0.758,0.758,0,1,1,118.567,24.342Z"/>
    <path id="Rectangle_3_copy" data-name="Rectangle 3 copy" class="cls-11" d="M112.037,25.333l-0.043-1.515,2.466-.068,0.043,1.515Z"/>
    <path id="Rectangle_3_copy_6" data-name="Rectangle 3 copy 6" class="cls-11" d="M112.037,25.333l-0.043-1.515,2.466-.068,0.043,1.515Zm17,0-0.043-1.515,2.466-.068,0.043,1.515Z"/>
    <path id="Rectangle_3_copy_2" data-name="Rectangle 3 copy 2" class="cls-11" d="M120.192,32.465l1.468-.042,0.065,2.387-1.467.042Z"/>
    <path id="Rectangle_3_copy_7" data-name="Rectangle 3 copy 7" class="cls-11" d="M116.447,29.326l0.906,1.156-1.881,1.472L114.566,30.8Z"/>
    <path id="Rectangle_3_copy_5" data-name="Rectangle 3 copy 5" class="cls-11" d="M121.192,14.465l1.468-.042,0.065,2.387-1.467.042Z"/>
    <path id="Rectangle_3_copy_3" data-name="Rectangle 3 copy 3" class="cls-11" d="M127.418,17.247l1.055,1-1.693,1.712-1.055-1Z"/>
    <path id="Rectangle_3_copy_4" data-name="Rectangle 3 copy 4" class="cls-11" d="M126.079,31.105l1.1-.963,1.617,1.782-1.095.963Z"/>
  </g>
  <g id="Calculator">
    <path id="Rounded_Rectangle_598" data-name="Rounded Rectangle 598" class="cls-13" d="M131.071,46.116L159,57.859a1.67,1.67,0,0,1,.893,2.188L145.122,94.993a1.677,1.677,0,0,1-2.194.891L115,84.141a1.669,1.669,0,0,1-.892-2.188l14.766-34.946A1.676,1.676,0,0,1,131.071,46.116Z"/>
    <path id="Rounded_Rectangle_599" data-name="Rounded Rectangle 599" class="cls-11" d="M132.71,49.978l22.6,9.5a1.67,1.67,0,0,1,.893,2.188l-2.375,5.619a1.675,1.675,0,0,1-2.193.891l-22.6-9.5a1.67,1.67,0,0,1-.893-2.188l2.375-5.619A1.676,1.676,0,0,1,132.71,49.978Z"/>
    <path id="Rounded_Rectangle_603_copy" data-name="Rounded Rectangle 603 copy" class="cls-5" d="M152.827,59.745a0.77,0.77,0,0,1-.32,1.044l-6.62,3.516a0.772,0.772,0,1,1-.726-1.363l6.621-3.516A0.773,0.773,0,0,1,152.827,59.745Z"/>
    <path id="Rounded_Rectangle_603_copy_2" data-name="Rounded Rectangle 603 copy 2" class="cls-5" d="M147.827,57.745a0.77,0.77,0,0,1-.32,1.044l-6.62,3.516a0.772,0.772,0,1,1-.726-1.363l6.621-3.516A0.773,0.773,0,0,1,147.827,57.745Z"/>
    <path id="Rounded_Rectangle_600" data-name="Rounded Rectangle 600" class="cls-14" d="M127.966,60.13l15.968,6.715a1.421,1.421,0,1,1-1.106,2.617L126.86,62.747A1.421,1.421,0,1,1,127.966,60.13Z"/>
    <path id="Rounded_Rectangle_600_copy" data-name="Rounded Rectangle 600 copy" class="cls-12" d="M147.791,68.467l3.394,1.427a1.421,1.421,0,1,1-1.106,2.617l-3.394-1.427A1.421,1.421,0,1,1,147.791,68.467Z"/>
    <path id="Rounded_Rectangle_601" data-name="Rounded Rectangle 601" class="cls-5" d="M125.747,64.092l4.165,1.752a0.834,0.834,0,0,1,.446,1.094l-1.626,3.849a0.837,0.837,0,0,1-1.1.445L123.47,69.48a0.834,0.834,0,0,1-.446-1.094l1.626-3.849A0.839,0.839,0,0,1,125.747,64.092Z"/>
    <path id="Rounded_Rectangle_601_copy" data-name="Rounded Rectangle 601 copy" class="cls-5" d="M132.149,66.785l4.166,1.752a0.834,0.834,0,0,1,.446,1.094l-1.626,3.849a0.838,0.838,0,0,1-1.1.445l-4.165-1.752a0.834,0.834,0,0,1-.446-1.094l1.626-3.849A0.837,0.837,0,0,1,132.149,66.785Z"/>
    <path id="Rounded_Rectangle_601_copy_2" data-name="Rounded Rectangle 601 copy 2" class="cls-5" d="M138.706,69.542l4.166,1.752a0.835,0.835,0,0,1,.446,1.094l-1.627,3.849a0.837,0.837,0,0,1-1.1.445l-4.166-1.752a0.835,0.835,0,0,1-.446-1.094l1.626-3.849A0.838,0.838,0,0,1,138.706,69.542Z"/>
    <path id="Rounded_Rectangle_601_copy_3" data-name="Rounded Rectangle 601 copy 3" class="cls-5" d="M123.08,70.4l4.165,1.752a0.834,0.834,0,0,1,.446,1.094L126.065,77.1a0.837,0.837,0,0,1-1.1.445L120.8,75.792a0.834,0.834,0,0,1-.446-1.094l1.626-3.849A0.838,0.838,0,0,1,123.08,70.4Z"/>
    <path id="Rounded_Rectangle_601_copy_4" data-name="Rounded Rectangle 601 copy 4" class="cls-5" d="M129.482,73.1l4.166,1.752a0.834,0.834,0,0,1,.446,1.094l-1.626,3.849a0.839,0.839,0,0,1-1.1.445l-4.165-1.752a0.834,0.834,0,0,1-.446-1.094l1.626-3.849A0.837,0.837,0,0,1,129.482,73.1Z"/>
    <path id="Rounded_Rectangle_601_copy_5" data-name="Rounded Rectangle 601 copy 5" class="cls-5" d="M136.039,75.854l4.166,1.752a0.835,0.835,0,0,1,.446,1.094l-1.626,3.849a0.838,0.838,0,0,1-1.1.445l-4.166-1.752a0.835,0.835,0,0,1-.446-1.094l1.626-3.849A0.838,0.838,0,0,1,136.039,75.854Z"/>
    <path id="Rounded_Rectangle_601_copy_6" data-name="Rounded Rectangle 601 copy 6" class="cls-5" d="M120.413,76.716l4.165,1.752a0.836,0.836,0,0,1,.447,1.094L123.4,83.411a0.837,0.837,0,0,1-1.1.445L118.136,82.1a0.834,0.834,0,0,1-.446-1.094l1.626-3.849A0.838,0.838,0,0,1,120.413,76.716Z"/>
    <path id="Rounded_Rectangle_601_copy_7" data-name="Rounded Rectangle 601 copy 7" class="cls-5" d="M126.815,79.408l4.166,1.752a0.834,0.834,0,0,1,.446,1.094L129.8,86.1a0.838,0.838,0,0,1-1.1.445L124.539,84.8a0.834,0.834,0,0,1-.446-1.094l1.626-3.849A0.837,0.837,0,0,1,126.815,79.408Z"/>
    <path id="Rounded_Rectangle_601_copy_8" data-name="Rounded Rectangle 601 copy 8" class="cls-5" d="M133.372,82.166l4.166,1.752a0.835,0.835,0,0,1,.446,1.094l-1.626,3.849a0.838,0.838,0,0,1-1.1.445L131.1,87.554a0.835,0.835,0,0,1-.446-1.094l1.626-3.849A0.839,0.839,0,0,1,133.372,82.166Z"/>
    <path id="Rounded_Rectangle_602" data-name="Rounded Rectangle 602" class="cls-5" d="M145.681,72.384l3.857,1.622a1.251,1.251,0,0,1,.669,1.641l-1.268,3a1.257,1.257,0,0,1-1.645.668L143.437,77.7a1.251,1.251,0,0,1-.669-1.641l1.268-3A1.257,1.257,0,0,1,145.681,72.384Z"/>
    <path id="Rounded_Rectangle_602_copy" data-name="Rounded Rectangle 602 copy" class="cls-5" d="M142.982,78.773l3.857,1.622a1.252,1.252,0,0,1,.669,1.641l-3.968,9.391a1.257,1.257,0,0,1-1.645.668l-3.857-1.622a1.251,1.251,0,0,1-.669-1.641l3.968-9.391A1.257,1.257,0,0,1,142.982,78.773Z"/>
  </g>
</svg>
