<svg id="icon" xmlns="http://www.w3.org/2000/svg" width="181" height="122" viewBox="0 0 181 122">
  <defs>
    <style>
      .cls-1 {
        fill: #eef3fe;
      }

      .cls-1, .cls-10, .cls-11, .cls-12, .cls-13, .cls-2, .cls-3, .cls-4, .cls-5, .cls-6, .cls-7, .cls-8, .cls-9 {
        fill-rule: evenodd;
      }

      .cls-2 {
        fill: #5387ff;
      }

      .cls-3 {
        fill: #4278f2;
      }

      .cls-4 {
        fill: #fbe3c5;
      }

      .cls-5 {
        fill: #b5ccfa;
      }

      .cls-6 {
        fill: #193151;
      }

      .cls-7 {
        fill: #f8f0e5;
        stroke: #11518e;
        stroke-linejoin: round;
        stroke-width: 2px;
      }

      .cls-8 {
        fill: #11518e;
      }

      .cls-9 {
        fill: #faad27;
      }

      .cls-10 {
        fill: #47e3ae;
      }

      .cls-11 {
        fill: #8388e4;
      }

      .cls-12 {
        fill: #fff;
      }

      .cls-13 {
        fill: #4cfbbf;
      }
    </style>
  </defs>
  <path class="cls-1" d="M19,68.019c0.518-12.348,3.106-22.638,28.987-30.87S81.739,25.287,94.68,17.569c10.426-6.394,42.473-5.832,57.974,15.435,10.784,14.8,10.007,34.037-2.07,47.334-10.26,11.3-31.5,20.432-52.8,24.7-21.692,4.344-37.893,1.057-53.939-5.117S18.655,82.768,19,68.019Z"/>
  <g id="icon-2" data-name="icon">
    <g id="_1" data-name="1">
      <path class="cls-2" d="M42,31s-2.819,1.636-5,8c-1.278,3.729.525,7.789,1.016,11.169C38.257,52.738,38.692,62.126,40,63H57s-1.444-10.39.029-16.991C58.476,39.523,62,42,62,42s-4.453-5.039-7-8c-1.612-1.873-6.075-2.687-6.978-3.1C47.209,31.026,44.23,33.1,42,31Z"/>
      <path class="cls-3" d="M52,36s-2.739-5.642,2-3c0,0,.675,3.249,2.257,4.511C57.608,38.588,59.89,38.675,60,39a7.9,7.9,0,0,0,2,2l-2,1H58a7.664,7.664,0,0,1-4-2A11.486,11.486,0,0,1,52,36Z"/>
      <path class="cls-3" d="M41,38c1.131,2.156,4.307,6.151,7,7a75.406,75.406,0,0,0,9,2v3a78.144,78.144,0,0,1-9-1c-3.657-.724-7.313-1.742-9.123-4.008C37.828,43.679,36.7,42,37,40,37.429,37.184,39.525,35.189,41,38Z"/>
      <path class="cls-4" d="M43,32a9.532,9.532,0,0,0-1.774-1.2c-0.362-.053-5.509-8.154,1.649-9.844,0,0,1.126-1.424,3.86,1.278A8.84,8.84,0,0,1,48,30S47.7,32.28,43,32Z"/>
      <path class="cls-5" d="M40,63l2,30h3s2.472-19.531,4.309-22.484c0,0,2.337,18.366,3.691,21.484h3l1-29H40Z"/>
      <path class="cls-6" d="M41.226,93.519"/>
      <path id="Rounded_Rectangle_598" data-name="Rounded Rectangle 598" class="cls-6" d="M41.721,92.923l1.129-.458a1.517,1.517,0,0,1,2.074.428,1.453,1.453,0,0,1-.436,2.034l-1.129.458c-2.053,1.359-3.375.346-3.456-.428C39.775,93.722,41.028,93.367,41.721,92.923Z"/>
      <path id="Rounded_Rectangle_598_copy" data-name="Rounded Rectangle 598 copy" class="cls-6" d="M55.612,92.67l-0.425-.8c-0.187-.636-0.8-0.648-1.362-0.368a1.754,1.754,0,0,0-.685,1.935l0.425,0.8c0.533,1.923,1.445,2.684,2.85,1.741C58.116,94.837,55.8,93.306,55.612,92.67Z"/>
      <path class="cls-6" d="M40,27s-0.78-4.148,3-5a3.828,3.828,0,0,1,2,0c0.352,0.274.006,1.924,1.735,2.509s2.051,0.692,2.574,0C51.886,14.206,31.309,15.79,40,27Z"/>
    </g>
    <g id="_2" data-name="2">
      <path class="cls-7" d="M55.861,39.007l3.5,56.519,66.592-4.835-4.673-57.519Z"/>
      <path id="Shape_711_copy" data-name="Shape 711 copy" class="cls-8" d="M56.692,38.007v11.67l66.423-5.5-1.663-10.67Z"/>
      <path id="Forma_1" data-name="Forma 1" class="cls-9" d="M91.585,55.341l3.054,6.944,7.819,0.645a0.587,0.587,0,0,1,.351,1.037L96.878,68.9l1.777,7.343a0.611,0.611,0,0,1-.918.641l-6.72-3.893L84.3,76.888a0.611,0.611,0,0,1-.918-0.641L85.157,68.9l-5.932-4.937a0.587,0.587,0,0,1,.351-1.037l7.819-.645,3.054-6.943A0.626,0.626,0,0,1,91.585,55.341Z"/>
    </g>
    <g id="_3" data-name="3">
      <path id="Rounded_Rectangle_599_copy" data-name="Rounded Rectangle 599 copy" class="cls-6" d="M138.027,95.6l0.747-1.744a1.413,1.413,0,0,1,1.9-.7,1.483,1.483,0,0,1,.779,1.915L141.079,98.2c-0.421.876-2.473,1.155-3.029,0.21A3.764,3.764,0,0,1,138.027,95.6Z"/>
      <path id="Rounded_Rectangle_599" data-name="Rounded Rectangle 599" class="cls-6" d="M124.981,94.476l1.814-.561c0.752-.232,2.086.013,2.2,1.085a1.823,1.823,0,0,1-1.394,1.741l-2.481,1.785c-0.459-.059-2.628-1.181-2.268-2.216A3.776,3.776,0,0,1,124.981,94.476Z"/>
      <path class="cls-5" d="M122.388,61.652A47.846,47.846,0,0,0,126,94h3s-0.7-24.506,2.445-25.425c0,0-.7,13.863,6.555,25.425h4s-5.627-26.3-1-34Z"/>
      <path class="cls-10" d="M126.333,33.724S122.833,37.5,122,41s-4.719,16.057-.38,22.515A35.99,35.99,0,0,0,140,63s1-1.207,1-5c0,0,.632-20.329-8.094-26.765,0,0-.349,3.018-4.71,1.388a1.711,1.711,0,0,0-.992.088A6.769,6.769,0,0,0,126.333,33.724Z"/>
      <g id="pen">
        <path class="cls-4" d="M125.311,32.4s-3.277-8.927,4.966-9.1c0,0,8.753,1.781,3.026,9.872,0,0-.611,2.5-1.3,2.828a3.74,3.74,0,0,1-3,0c-0.361-.139-0.592-1.226-0.592-2.082a4.562,4.562,0,0,1-3.1-1.517"/>
        <path class="cls-6" d="M125,35s-7.637-4.959-2.612-13.023c0,0,2.548-4.279,10.612-2.977,12.477,4.471,5,16,5,16a1.962,1.962,0,0,1-2,1c-1.852,0-2-1-2-1l0.221-6.41s-0.365-3.165-1.315-3.967c-1.407,1.406-3.944-1.322-3.944-1.322-0.186-.272-3.528,1.87-3.137,5.445,0.138,1.263.909,3.569,2.175,4.255,1.6,0.869.377,2.7-1,3C126.08,36.2,125,35,125,35Z"/>
        <path class="cls-8" d="M73.615,34.445"/>
        <path class="cls-11" d="M108.451,35.293l18.692,16.975,4.248,4.244,4.249-5.093L113.549,29.352Z"/>
        <path class="cls-12" d="M108.451,35.293l-0.85-5.941,0.85-.849,5.947,0.849Z"/>
        <path class="cls-6" d="M107.6,30.837a47.748,47.748,0,0,1,3.5-3.5h-4.673S107.243,31.435,107.6,30.837Z"/>
      </g>
      <path class="cls-4" d="M119.452,40.174s-3.529.365-2.337,2.334c0,0,3.189,1.824,4.674,1.167C121.789,43.675,123.176,40.539,119.452,40.174Z"/>
      <path class="cls-13" d="M135,36s-1.838,4.807-3,7-4.5,2.807-7,1-3-1-3-1l-2,2s5.328,3.474,9,4,4.972-1.131,7-4a27.384,27.384,0,0,0,3-5S137.917,36,135,36Z"/>
    </g>
    <path class="cls-4" d="M56,47s1.392-1.4,2-2,0.517,0.756,1,1,1.2-1.369,2-1,0.517,0.881,0,2-1.608,1.569-3,2a2.389,2.389,0,0,1-2,0V47Z"/>
  </g>
</svg>
