<svg id="icon" xmlns="http://www.w3.org/2000/svg" width="181" height="122" viewBox="0 0 181 122">
  <defs>
    <style>
      .cls-1 {
        fill: #eef3fe;
      }

      .cls-1, .cls-2, .cls-3, .cls-4, .cls-5, .cls-6, .cls-8, .cls-9 {
        fill-rule: evenodd;
      }

      .cls-2 {
        fill: #f3d5af;
      }

      .cls-3 {
        fill: #5387ff;
      }

      .cls-4, .cls-7 {
        fill: #fff;
      }

      .cls-4 {
        opacity: 0.5;
      }

      .cls-5 {
        fill: #fbe3c5;
      }

      .cls-6 {
        fill: #343439;
      }

      .cls-7 {
        stroke: #e3e3e3;
        stroke-linejoin: round;
        stroke-width: 1px;
      }

      .cls-8 {
        fill: #e3e3e3;
      }

      .cls-9 {
        fill: #33e2a6;
      }
    </style>
  </defs>
  <path class="cls-1" d="M19,68.019c0.518-12.348,3.106-22.638,28.987-30.87S81.739,25.287,94.68,17.569c10.426-6.394,42.473-5.832,57.974,15.435,10.784,14.8,10.007,34.037-2.07,47.334-10.26,11.3-31.5,20.432-52.8,24.7-21.692,4.344-37.893,1.057-53.939-5.117S18.655,82.768,19,68.019Z"/>
  <g id="icon-2" data-name="icon">
    <g id="user">
      <path class="cls-2" d="M76.756,54.97s-2.469,5.279-4.923,6.132L82.91,69.687l11.077-1.226L92.756,61.1s-1.375-1.028-3.692-6.132C86.568,49.47,76.756,54.97,76.756,54.97Z"/>
      <path class="cls-3" d="M74.374,58.757S49.152,62.264,50,90.933c0,0,30.62,20.573,63.52,1.226,0,0,3.977-28.506-21.994-34.341C91.526,57.818,84.066,70.447,74.374,58.757Z"/>
      <path class="cls-4" d="M80.448,63.95a4.685,4.685,0,0,0,1.231,4.906l-2,29.874s-0.116,2.1,3,2.178c2.262,0.056,3.294-1.063,3.422-2.178L84.141,68.856s2.233-2.574,1.231-4.906C85.322,63.241,80.938,63.622,80.448,63.95Z"/>
      <path class="cls-5" d="M68.141,37.8s-3.415,4.6,2.462,7.359c0,0,.214,6.65,6.154,9.812,0.538,0.153,15.009,4.634,17.231-9.812,0,0,4.83-2.7,2.462-7.359,0,0-1.786-8.681-2.462-8.585s-12.308-3.679-12.308-3.679L68.141,31.667V37.8"/>
      <path class="cls-6" d="M67,39a24.934,24.934,0,0,0,6-4s12.06,2.657,16-2c0,0,3.124-.893,6.218,3.572,0,0,.834,5.1,2.782.428,0,0,2.6-13.568-8.936-18.825C89.064,18.175,64.688,11.924,67,39Z"/>
    </g>
    <g id="note">
      <rect id="Rounded_Rectangle_598" data-name="Rounded Rectangle 598" class="cls-7" x="93" y="59" width="37" height="44" rx="2" ry="2"/>
      <g>
        <path id="Rounded_Rectangle_599" data-name="Rounded Rectangle 599" class="cls-8" d="M112,73h13a1,1,0,0,1,0,2H112A1,1,0,0,1,112,73Zm0,3h9a1,1,0,0,1,0,2h-9A1,1,0,0,1,112,76Z"/>
        <path id="Rounded_Rectangle_599_copy" data-name="Rounded Rectangle 599 copy" class="cls-8" d="M125,73a1,1,0,0,1,0,2m-4,1a1,1,0,0,1,0,2"/>
        <path id="Rounded_Rectangle_599_copy_2" data-name="Rounded Rectangle 599 copy 2" class="cls-8" d="M112,87h13a1,1,0,0,1,0,2H112A1,1,0,0,1,112,87Zm0,3h9a1,1,0,0,1,0,2h-9A1,1,0,0,1,112,90Z"/>
        <path id="Rounded_Rectangle_599_copy_2-2" data-name="Rounded Rectangle 599 copy 2" class="cls-8" d="M125,87a1,1,0,0,1,0,2m-4,1a1,1,0,0,1,0,2"/>
        <path id="Forma_1" data-name="Forma 1" class="cls-9" d="M101.425,76.277l-1.718-1.742-1.819,1.831,2.775,2.806,0.005-.005,0.8,0.8,7.1-6.053-1.854-1.867Z"/>
        <path id="Forma_1_copy_2" data-name="Forma 1 copy 2" class="cls-9" d="M101.425,91.831l-1.718-1.742-1.819,1.831,2.775,2.806,0.005,0,0.8,0.8,7.1-6.053L106.716,87.6Z"/>
      </g>
    </g>
    <path class="cls-5" d="M111.254,58.134s-8.81,3.672,0,3.782c0,0-1.211,5.452.706,6.051,0,0,5.46.595,8.04-2.967,0,0-.107-4.755,0-6S112.093,57.472,111.254,58.134Z"/>
  </g>
</svg>
