<svg id="icon" xmlns="http://www.w3.org/2000/svg" width="171" height="127" viewBox="0 0 171 127">
  <defs>
    <style>
      .cls-1 {
        fill: #eef3fe;
      }

      .cls-1, .cls-2, .cls-3, .cls-6, .cls-7 {
        fill-rule: evenodd;
      }

      .cls-2, .cls-5 {
        fill: #fff;
      }

      .cls-2 {
        stroke: #e3e3e3;
        stroke-linejoin: round;
        stroke-width: 1px;
      }

      .cls-3 {
        fill: #cbd9e6;
        opacity: 0.5;
      }

      .cls-4 {
        fill: #11518e;
        opacity: 0.15;
      }

      .cls-6 {
        fill: #8388e4;
      }

      .cls-7 {
        fill: #3be2a9;
      }

      .cls-8 {
        fill: #dce5ee;
      }
    </style>
  </defs>
  <path class="cls-1" d="M15,71.019c0.518-12.348,3.106-22.638,28.987-30.87S77.739,28.287,90.68,20.569c10.426-6.394,42.473-5.832,57.974,15.435,10.784,14.8,10.007,34.037-2.07,47.334-10.26,11.3-31.5,20.432-52.8,24.7-21.692,4.344-37.893,1.057-53.939-5.117S14.655,85.768,15,71.019Z"/>
  <g id="icon-2" data-name="icon">
    <g id="_3" data-name="3">
      <path class="cls-2" d="M52.5,91.007H38.921s-7.27,4.841-2.037,16.085c0,0,.621,2.029,11.117,1.908h9s3.115-6.741,2.972-7.5S52.5,91.007,52.5,91.007Z"/>
      <path class="cls-2" d="M121,19H55.009C50.608,19,49,21.773,49,27l-0.057,76.678S46.924,108.592,42,109h75c4.375,0,9-4.929,9-11V25C126,23.2,125.873,19,121,19Z"/>
      <g>
        <g id="_1" data-name="1">
          <path id="Rounded_Rectangle_601" data-name="Rounded Rectangle 601" class="cls-3" d="M61.035,33.838h10.56a1.038,1.038,0,0,1,1.054,1.021V45.543a1.038,1.038,0,0,1-1.054,1.021H61.035a1.038,1.038,0,0,1-1.054-1.021V34.86A1.038,1.038,0,0,1,61.035,33.838Z"/>
          <g>
            <rect id="Rounded_Rectangle_602" data-name="Rounded Rectangle 602" class="cls-4" x="78.406" y="36" width="34" height="3" rx="1.5" ry="1.5"/>
            <rect id="Rounded_Rectangle_602_copy" data-name="Rounded Rectangle 602 copy" class="cls-4" x="78.406" y="41" width="24" height="3" rx="1.5" ry="1.5"/>
          </g>
        </g>
        <g id="_2" data-name="2">
          <path id="Rounded_Rectangle_601-2" data-name="Rounded Rectangle 601" class="cls-3" d="M61.035,55.838h10.56a1.038,1.038,0,0,1,1.054,1.021V67.543a1.038,1.038,0,0,1-1.054,1.021H61.035a1.038,1.038,0,0,1-1.054-1.021V56.86A1.038,1.038,0,0,1,61.035,55.838Z"/>
          <g>
            <rect id="Rounded_Rectangle_602-2" data-name="Rounded Rectangle 602" class="cls-4" x="78.406" y="58" width="34" height="3" rx="1.5" ry="1.5"/>
            <rect id="Rounded_Rectangle_602_copy-2" data-name="Rounded Rectangle 602 copy" class="cls-4" x="78.406" y="63" width="24" height="3" rx="1.5" ry="1.5"/>
          </g>
        </g>
        <g id="_3-2" data-name="3">
          <path id="Rounded_Rectangle_601-3" data-name="Rounded Rectangle 601" class="cls-3" d="M61.035,77.839h10.56a1.038,1.038,0,0,1,1.054,1.021V89.543a1.038,1.038,0,0,1-1.054,1.021H61.035a1.038,1.038,0,0,1-1.054-1.021V78.86A1.038,1.038,0,0,1,61.035,77.839Z"/>
          <g>
            <rect id="Rounded_Rectangle_602-3" data-name="Rounded Rectangle 602" class="cls-4" x="78.406" y="80" width="34" height="3" rx="1.5" ry="1.5"/>
            <rect id="Rounded_Rectangle_602_copy-3" data-name="Rounded Rectangle 602 copy" class="cls-4" x="78.406" y="85" width="24" height="3" rx="1.5" ry="1.5"/>
          </g>
        </g>
      </g>
    </g>
    <g>
      <g>
        <circle class="cls-5" cx="105" cy="86" r="14"/>
        <path class="cls-6" d="M127.641,106.96l-9.719-9.72a17.068,17.068,0,1,0-1.685,1.685l9.719,9.72a1.2,1.2,0,0,0,.843.355,1.165,1.165,0,0,0,.842-0.355A1.2,1.2,0,0,0,127.641,106.96Zm-37.256-20.9a14.659,14.659,0,1,1,14.66,14.67A14.676,14.676,0,0,1,90.386,86.055Z"/>
      </g>
      <path id="Forma_1_copy_5" data-name="Forma 1 copy 5" class="cls-7" d="M66.593,40.758l-2.563-2.24a1.232,1.232,0,0,0-1.786-.13,1.311,1.311,0,0,0,.244,1.745L65.343,42.7l0.006-.005a2.052,2.052,0,0,0,2.192-.056,88.722,88.722,0,0,0,7.253-7.018,1,1,0,0,0-.511-1.582A1.648,1.648,0,0,0,73,34.6Z"/>
      <path id="Forma_1_copy_6" data-name="Forma 1 copy 6" class="cls-7" d="M66.593,63.758l-2.563-2.24a1.232,1.232,0,0,0-1.786-.13,1.311,1.311,0,0,0,.244,1.745L65.343,65.7l0.006-.005a2.052,2.052,0,0,0,2.192-.056,88.717,88.717,0,0,0,7.253-7.018,1,1,0,0,0-.511-1.582A1.648,1.648,0,0,0,73,57.6Z"/>
      <g>
        <rect id="Rounded_Rectangle_602_copy_2" data-name="Rounded Rectangle 602 copy 2" class="cls-8" x="91" y="80" width="23" height="3.75" rx="1.5" ry="1.5"/>
        <rect id="Rounded_Rectangle_602_copy_2-2" data-name="Rounded Rectangle 602 copy 2" class="cls-8" x="91" y="85.25" width="12.125" height="3.75" rx="1.5" ry="1.5"/>
      </g>
      <path id="Forma_1_copy_7" data-name="Forma 1 copy 7" class="cls-7" d="M66.593,84.758l-2.563-2.24a1.232,1.232,0,0,0-1.786-.13,1.311,1.311,0,0,0,.244,1.745L65.343,86.7l0.006-.005a2.052,2.052,0,0,0,2.192-.056,88.709,88.709,0,0,0,7.253-7.018,1,1,0,0,0-.511-1.582A1.648,1.648,0,0,0,73,78.6Z"/>
    </g>
  </g>
</svg>
