<svg id="icon" xmlns="http://www.w3.org/2000/svg" width="206" height="139" viewBox="0 0 206 139">
  <defs>
    <style>
      .cls-1 {
        fill: #eef3fe;
      }

      .cls-1, .cls-10, .cls-3, .cls-4, .cls-5, .cls-6, .cls-7, .cls-8 {
        fill-rule: evenodd;
      }

      .cls-10, .cls-2 {
        fill: #fff;
      }

      .cls-2 {
        stroke: #e3e3e3;
        stroke-linejoin: round;
        stroke-width: 1px;
      }

      .cls-3 {
        fill: #343439;
      }

      .cls-4 {
        fill: #565657;
      }

      .cls-5 {
        fill: #33e2a6;
      }

      .cls-6 {
        fill: #ffc501;
      }

      .cls-7 {
        fill: #7879dc;
      }

      .cls-8 {
        opacity: 0.05;
      }

      .cls-9 {
        fill: #30d28e;
        opacity: 0.8;
      }

      .cls-11 {
        fill: #fea84c;
      }
    </style>
  </defs>
  <path class="cls-1" d="M40,73.019c0.518-12.348,3.106-22.638,28.987-30.87s33.752-11.862,46.693-19.58c10.426-6.394,42.473-5.832,57.974,15.435,10.784,14.8,10.007,34.037-2.07,47.334-10.26,11.3-31.5,20.432-52.8,24.7-21.692,4.344-37.893,1.057-53.94-5.117S39.655,87.768,40,73.019Z"/>
  <g id="_2" data-name="2">
    <g>
      <rect id="Rounded_Rectangle_593" data-name="Rounded Rectangle 593" class="cls-2" x="16" y="43" width="148" height="86" rx="5" ry="5"/>
      <g id="Bar">
        <path id="Invoices" class="cls-3" d="M29,51.531h-1V58.9h1V51.531Zm1.679,1.893V58.9h0.99V54.836a1.338,1.338,0,0,1,.505-0.519,1.527,1.527,0,0,1,.777-0.185,1.133,1.133,0,0,1,.867.3,1.489,1.489,0,0,1,.284,1.027V58.9h0.99V55.443a2.288,2.288,0,0,0-.483-1.6,1.769,1.769,0,0,0-1.362-.519,1.808,1.808,0,0,0-.932.24,1.979,1.979,0,0,0-.681.676l-0.07-.815H30.681Zm6.379,0H36.044L38.07,58.9h0.749l2-5.476h-1.01l-1.252,3.861-0.1.385h-0.03l-0.086-.385Zm4.343,2.8a3.008,3.008,0,0,0,.656,2,2.421,2.421,0,0,0,3.561,0,3.013,3.013,0,0,0,.654-2V56.111a3.018,3.018,0,0,0-.656-2,2.411,2.411,0,0,0-3.561,0,3.028,3.028,0,0,0-.653,2v0.111Zm0.99-.111a2.616,2.616,0,0,1,.364-1.432,1.192,1.192,0,0,1,1.073-.572,1.209,1.209,0,0,1,1.083.572,2.589,2.589,0,0,1,.37,1.432v0.111a2.6,2.6,0,0,1-.367,1.437,1.311,1.311,0,0,1-2.159,0,2.61,2.61,0,0,1-.364-1.437V56.111Zm6.162-2.687h-0.99V58.9h0.99V53.424Zm0-2.419h-0.99v1.017h0.99V51Zm2.616,6.655a2.73,2.73,0,0,1-.329-1.392V56.056a2.679,2.679,0,0,1,.334-1.379,1.142,1.142,0,0,1,1.063-.569,1.064,1.064,0,0,1,.817.352,1.213,1.213,0,0,1,.324.853h0.9l0.01-.03a1.8,1.8,0,0,0-.56-1.392,2.044,2.044,0,0,0-1.49-.567,2.128,2.128,0,0,0-1.767.787,3.028,3.028,0,0,0-.626,1.946v0.212a3.041,3.041,0,0,0,.623,1.953,2.294,2.294,0,0,0,3.217.235,1.576,1.576,0,0,0,.6-1.258l-0.015-.03H53.38a0.97,0.97,0,0,1-.342.752,1.16,1.16,0,0,1-.8.306A1.14,1.14,0,0,1,51.171,57.66Zm7.7,1.151a2.374,2.374,0,0,0,.769-0.478l-0.387-.648a1.967,1.967,0,0,1-.651.4,2.478,2.478,0,0,1-.882.144,1.261,1.261,0,0,1-1.106-.514,2.275,2.275,0,0,1-.362-1.339l0.015-.025h3.478V55.823a2.828,2.828,0,0,0-.545-1.817,1.967,1.967,0,0,0-1.636-.683,2.114,2.114,0,0,0-1.651.772,2.853,2.853,0,0,0-.676,1.951v0.223a2.914,2.914,0,0,0,.656,1.984,2.293,2.293,0,0,0,1.827.754A3.045,3.045,0,0,0,58.869,58.811ZM58.462,54.5a1.6,1.6,0,0,1,.291.987v0.081H56.3l-0.01-.025a1.91,1.91,0,0,1,.415-1.03,1.074,1.074,0,0,1,.857-0.4A1.051,1.051,0,0,1,58.462,54.5ZM63.717,58a1.347,1.347,0,0,1-.827.225,1.509,1.509,0,0,1-.859-0.245,0.924,0.924,0,0,1-.392-0.777H60.694l-0.01.03a1.521,1.521,0,0,0,.568,1.24,2.38,2.38,0,0,0,1.639.531,2.4,2.4,0,0,0,1.531-.461,1.445,1.445,0,0,0,.585-1.189,1.215,1.215,0,0,0-.518-1.017,3.883,3.883,0,0,0-1.518-.6,2.463,2.463,0,0,1-.922-0.324,0.6,0.6,0,0,1-.224-0.5,0.745,0.745,0,0,1,.259-0.567,1.122,1.122,0,0,1,.782-0.238,1.1,1.1,0,0,1,.782.288,0.864,0.864,0,0,1,.309.643H64.9l0.01-.03a1.454,1.454,0,0,0-.548-1.179A2.482,2.482,0,0,0,61.4,53.8a1.448,1.448,0,0,0-.566,1.144,1.177,1.177,0,0,0,.515,1,3.938,3.938,0,0,0,1.475.582,2.393,2.393,0,0,1,.942.364,0.666,0.666,0,0,1,.249.536A0.69,0.69,0,0,1,63.717,58Z"/>
        <g id="_1" data-name="1">
          <g id="_1-2" data-name="1">
            <path id="_1-3" data-name="1" class="cls-4" d="M29.4,75.987H33V75.26H31.612V68.986H31.247l-2.231,1.672,0.385,0.5,1.115-.777,0.406-.462-0.1.58v4.76H29.4v0.728Z"/>
            <path id="_124" data-name="$124" class="cls-4" d="M97.6,77.015H98.25V76.094a1.816,1.816,0,0,0,1.65-1.931,1.819,1.819,0,0,0-.144-0.751,1.919,1.919,0,0,0-.379-0.561,2.849,2.849,0,0,0-.532-0.425q-0.3-.185-0.595-0.345V69.619a3.131,3.131,0,0,1,.671.1,2.4,2.4,0,0,1,.46.175l0.23-.71a2.808,2.808,0,0,0-.561-0.2,4.275,4.275,0,0,0-.8-0.095V68.008H97.6v0.911a1.8,1.8,0,0,0-1.175.57,1.769,1.769,0,0,0-.388,1.181,1.958,1.958,0,0,0,.134.761,1.841,1.841,0,0,0,.355.555,2.334,2.334,0,0,0,.5.405q0.283,0.17.571,0.32v2.7a3.047,3.047,0,0,1-.81-0.11,2.2,2.2,0,0,1-.523-0.22l-0.259.73a2.318,2.318,0,0,0,.657.225,5.1,5.1,0,0,0,.935.1v0.881Zm1.223-1.977a1.269,1.269,0,0,1-.724.355V72.962a4.527,4.527,0,0,1,.393.23,1.616,1.616,0,0,1,.316.27,1.244,1.244,0,0,1,.216.34A1.249,1.249,0,0,1,98.82,75.038Zm-1.784-5.06a0.967,0.967,0,0,1,.715-0.349v2.182a2.857,2.857,0,0,1-.657-0.488,0.953,0.953,0,0,1-.264-0.7A1.088,1.088,0,0,1,97.036,69.978Zm4.5,6.036h3.405V75.274H103.63V68.889h-0.345l-2.11,1.7,0.364,0.51,1.055-.791,0.384-.47-0.1.591v4.844h-1.343v0.741Zm8.354-6.1a1.549,1.549,0,0,0-.336-0.546,1.493,1.493,0,0,0-.537-0.355,1.973,1.973,0,0,0-.729-0.125,2.822,2.822,0,0,0-.987.17,2.464,2.464,0,0,0-.8.47l0.317,0.57a2.719,2.719,0,0,1,.595-0.355,1.713,1.713,0,0,1,.709-0.155,1,1,0,0,1,.816.325,1.238,1.238,0,0,1,.268.816,2.882,2.882,0,0,1-.153.891,6.149,6.149,0,0,1-.408.951,10.482,10.482,0,0,1-.566.946q-0.312.465-.633,0.881t-0.618.756c-0.2.227-.368,0.417-0.509,0.57v0.29h3.817V75.274h-2.09l-0.614.11v-0.04l0.47-.43q0.373-.48.748-1.016a11.122,11.122,0,0,0,.676-1.1,7.256,7.256,0,0,0,.489-1.116,3.382,3.382,0,0,0,.187-1.086A1.978,1.978,0,0,0,109.893,69.915Zm6.09,3.248h-1.131V68.9h-0.518l-3.185,4.634v0.33H114.1v2.152h0.749V73.863h1.131v-0.7Zm-1.88,0h-1.409l-0.672.08,0.461-.49,1.352-1.912,0.336-.68H114.2l-0.1.821v2.182Z"/>
            <path id="Paid" class="cls-5" d="M131.988,76.854h1.259V74.529c0.031,0.006.082,0.013,0.152,0.019s0.143,0.011.216,0.014,0.144,0,.212,0h0.147a3.4,3.4,0,0,0,.924-0.125,2.217,2.217,0,0,0,.8-0.405,2.033,2.033,0,0,0,.561-0.719,2.464,2.464,0,0,0,.212-1.075,2.35,2.35,0,0,0-.244-1.143,1.876,1.876,0,0,0-.63-0.685,2.32,2.32,0,0,0-.869-0.328,5.747,5.747,0,0,0-.961-0.082q-0.459,0-.924.043a8.324,8.324,0,0,0-.85.121v6.685Zm2.344-5.662a1.11,1.11,0,0,1,.41.174,0.931,0.931,0,0,1,.289.333,1.108,1.108,0,0,1,.11.526,1.383,1.383,0,0,1-.114.608,0.926,0.926,0,0,1-.308.362,1.188,1.188,0,0,1-.437.178,2.533,2.533,0,0,1-.492.048h-0.115c-0.052,0-.106,0-0.161,0s-0.107-.008-0.156-0.014a0.959,0.959,0,0,1-.111-0.019v-2.19q0.1-.019.267-0.034c0.11-.01.227-0.015,0.349-0.015A2.276,2.276,0,0,1,134.332,71.192Zm2.878,2.055a2.689,2.689,0,0,1,.658-0.2,4,4,0,0,1,.758-0.077,0.661,0.661,0,0,1,.616.236,1.308,1.308,0,0,1,.074.776,5.719,5.719,0,0,0-1.1.043,2.6,2.6,0,0,0-.846.26,1.3,1.3,0,0,0-.731,1.239,1.557,1.557,0,0,0,.1.574,1.341,1.341,0,0,0,.285.444,1.25,1.25,0,0,0,.442.289,1.566,1.566,0,0,0,.579.1,1.49,1.49,0,0,0,.841-0.217A1.677,1.677,0,0,0,139.4,76.2h0.046l0.193,0.666h0.974a3.174,3.174,0,0,1-.137-0.738q-0.029-.391-0.023-0.805c0-.276.013-0.558,0.032-0.844s0.027-.571.027-0.854a2.841,2.841,0,0,0-.078-0.695,1.294,1.294,0,0,0-.267-0.531,1.2,1.2,0,0,0-.51-0.342,2.3,2.3,0,0,0-.8-0.121,5.369,5.369,0,0,0-1.057.1,3.8,3.8,0,0,0-.874.275Zm0.814,2.5a0.563,0.563,0,0,1-.152-0.42,0.442,0.442,0,0,1,.12-0.318,0.77,0.77,0,0,1,.322-0.193,1.911,1.911,0,0,1,.464-0.087,3.139,3.139,0,0,1,.547.01v0.627a1.164,1.164,0,0,1-.312.362,0.891,0.891,0,0,1-.571.169A0.57,0.57,0,0,1,138.024,75.749Zm3.591,1.1h1.195V72.031h-1.195v4.823Zm0.023-5.715a0.76,0.76,0,0,0,.547.188,0.829,0.829,0,0,0,.565-0.188,0.6,0.6,0,0,0,.216-0.468,0.625,0.625,0,0,0-.216-0.477,0.8,0.8,0,0,0-.565-0.2,0.738,0.738,0,0,0-.547.2,0.65,0.65,0,0,0-.2.477A0.619,0.619,0,0,0,141.638,71.138ZM147.9,70.1h-1.2V72.06a1.772,1.772,0,0,0-.368-0.111,2.667,2.667,0,0,0-.468-0.034,1.863,1.863,0,0,0-1.564.685,3.062,3.062,0,0,0-.533,1.919,2.982,2.982,0,0,0,.478,1.871,1.621,1.621,0,0,0,1.343.6,1.546,1.546,0,0,0,.813-0.207,1.425,1.425,0,0,0,.529-0.545h0.037l0.165,0.627h0.856a7.02,7.02,0,0,1-.083-0.9q-0.009-.405-0.009-0.81V70.1Zm-2.69,5.45A2.058,2.058,0,0,1,145,74.558a2.2,2.2,0,0,1,.253-1.225,0.869,0.869,0,0,1,.759-0.357,1.286,1.286,0,0,1,.4.053,0.9,0.9,0,0,1,.285.159v2.045a0.973,0.973,0,0,1-.285.516,0.8,0.8,0,0,1-.551.178A0.7,0.7,0,0,1,145.205,75.551Z"/>
          </g>
          <g id="_1_copy_4" data-name="1 copy 4">
            <path id="_2-2" data-name="2" class="cls-4" d="M31.745,90.994a1.5,1.5,0,0,0-.352-0.536,1.578,1.578,0,0,0-.563-0.349,2.191,2.191,0,0,0-.764-0.123,3.141,3.141,0,0,0-1.035.167,2.62,2.62,0,0,0-.834.462l0.332,0.561a2.917,2.917,0,0,1,.623-0.349,1.9,1.9,0,0,1,.744-0.153,1.079,1.079,0,0,1,.854.32,1.169,1.169,0,0,1,.281.8,2.669,2.669,0,0,1-.161.875,5.752,5.752,0,0,1-.427.934,10.358,10.358,0,0,1-.593.929q-0.327.457-.663,0.865t-0.648.742q-0.312.335-.533,0.561v0.285h4V96.26H29.816l-0.643.108V96.329l0.492-.423q0.392-.472.784-1a10.854,10.854,0,0,0,.708-1.077,6.833,6.833,0,0,0,.512-1.1,3.145,3.145,0,0,0,.2-1.067A1.841,1.841,0,0,0,31.745,90.994Z"/>
            <path id="_148" data-name="$148" class="cls-4" d="M97.636,98.015H98.3V97.094a2.022,2.022,0,0,0,1.262-.645,1.923,1.923,0,0,0,.427-1.286,1.78,1.78,0,0,0-.147-0.751,1.916,1.916,0,0,0-.388-0.561,2.908,2.908,0,0,0-.545-0.425q-0.3-.185-0.609-0.345V90.619a3.279,3.279,0,0,1,.688.1,2.493,2.493,0,0,1,.472.175l0.236-.71a2.924,2.924,0,0,0-.575-0.2,4.478,4.478,0,0,0-.82-0.095V89.008H97.636v0.911a1.856,1.856,0,0,0-1.2.57,1.741,1.741,0,0,0-.4,1.181,1.918,1.918,0,0,0,.138.761,1.839,1.839,0,0,0,.364.555,2.384,2.384,0,0,0,.516.405q0.29,0.17.585,0.32v2.7a3.193,3.193,0,0,1-.83-0.11,2.284,2.284,0,0,1-.535-0.22l-0.265.73a2.413,2.413,0,0,0,.673.225,5.349,5.349,0,0,0,.958.1v0.881Zm1.252-1.977a1.312,1.312,0,0,1-.742.355V93.962q0.216,0.11.4,0.23a1.647,1.647,0,0,1,.324.27,1.239,1.239,0,0,1,.221.34,1.063,1.063,0,0,1,.084.43A1.08,1.08,0,0,1,98.889,96.038Zm-1.827-5.06a1,1,0,0,1,.732-0.349v2.182a2.922,2.922,0,0,1-.673-0.488,0.94,0.94,0,0,1-.27-0.7A1.07,1.07,0,0,1,97.062,90.978Zm4.612,6.036h3.487V96.274h-1.346V89.889h-0.354l-2.161,1.7,0.374,0.51,1.08-.791,0.393-.47-0.1.591v4.844h-1.375v0.741Zm9.44-2.852h-1.159V89.9h-0.531l-3.261,4.634v0.33h3.025v2.152h0.767V94.863h1.159v-0.7Zm-1.926,0h-1.444l-0.687.08,0.471-.49,1.385-1.912,0.344-.68h0.03l-0.1.821v2.182Zm2.928,1.886a1.566,1.566,0,0,0,.378.566,1.814,1.814,0,0,0,.614.38,2.309,2.309,0,0,0,.835.14,2.456,2.456,0,0,0,.874-0.145,1.875,1.875,0,0,0,.648-0.4,1.675,1.675,0,0,0,.4-0.61,2.153,2.153,0,0,0,.138-0.786,1.841,1.841,0,0,0-.1-0.626,1.739,1.739,0,0,0-.27-0.5,2.322,2.322,0,0,0-.4-0.4,4.428,4.428,0,0,0-.487-0.33,2.915,2.915,0,0,0,.845-0.856,1.953,1.953,0,0,0,.255-1.006,1.576,1.576,0,0,0-.127-0.641,1.467,1.467,0,0,0-.359-0.5,1.661,1.661,0,0,0-.565-0.33,2.188,2.188,0,0,0-.746-0.12,2.25,2.25,0,0,0-.791.13,1.814,1.814,0,0,0-.6.36,1.532,1.532,0,0,0-.383.55,1.83,1.83,0,0,0-.133.71,1.78,1.78,0,0,0,.093.6,1.731,1.731,0,0,0,.256.47,2.1,2.1,0,0,0,.373.375,4.828,4.828,0,0,0,.457.315,2.926,2.926,0,0,0-1.012.846,1.87,1.87,0,0,0-.324,1.1A1.9,1.9,0,0,0,112.116,96.048Zm3.02-.28a1.031,1.031,0,0,1-.275.37,1.184,1.184,0,0,1-.4.22,1.48,1.48,0,0,1-.471.075,1.391,1.391,0,0,1-.535-0.1,1.151,1.151,0,0,1-.389-0.255,1.032,1.032,0,0,1-.235-0.38,1.345,1.345,0,0,1-.079-0.46,1.544,1.544,0,0,1,.256-0.8,2.288,2.288,0,0,1,.854-0.761q0.265,0.14.511,0.29a2.51,2.51,0,0,1,.437.335,1.609,1.609,0,0,1,.31.41,1.124,1.124,0,0,1,.117.525A1.247,1.247,0,0,1,115.136,95.768Zm-2.151-4.533a0.91,0.91,0,0,1,.221-0.325,1.2,1.2,0,0,1,.354-0.23,1.162,1.162,0,0,1,.471-0.09,1.079,1.079,0,0,1,.742.275,1,1,0,0,1,.309.786,1.393,1.393,0,0,1-.211.751,2.8,2.8,0,0,1-.653.691c-0.171-.087-0.334-0.178-0.491-0.275a2.559,2.559,0,0,1-.418-0.315,1.365,1.365,0,0,1-.29-0.385,1.09,1.09,0,0,1-.108-0.5A1.036,1.036,0,0,1,112.985,91.235Z"/>
            <path id="Sent" class="cls-6" d="M134.711,96.65a1.482,1.482,0,0,1-.835.2,2.606,2.606,0,0,1-.452-0.038,3.794,3.794,0,0,1-.415-0.1,3.085,3.085,0,0,1-.353-0.125,2.318,2.318,0,0,1-.255-0.125l-0.393,1.123a3.429,3.429,0,0,0,.751.269,4.637,4.637,0,0,0,1.179.134,3.3,3.3,0,0,0,.934-0.125,1.908,1.908,0,0,0,.724-0.384,1.74,1.74,0,0,0,.465-0.648,2.362,2.362,0,0,0,.165-0.926,1.758,1.758,0,0,0-.21-0.9,2.082,2.082,0,0,0-.527-0.6,3.659,3.659,0,0,0-.688-0.418q-0.372-.173-0.688-0.336a2.4,2.4,0,0,1-.528-0.355,0.623,0.623,0,0,1-.21-0.48,0.6,0.6,0,0,1,.228-0.49,1.031,1.031,0,0,1,.657-0.182,3.133,3.133,0,0,1,.849.11,2.073,2.073,0,0,1,.59.245l0.384-1.1a2.487,2.487,0,0,0-.795-0.293,5.028,5.028,0,0,0-1.028-.1,2.981,2.981,0,0,0-.858.115,1.822,1.822,0,0,0-.666.355,1.588,1.588,0,0,0-.433.6,2.162,2.162,0,0,0-.152.85,1.848,1.848,0,0,0,.21.931,2.06,2.06,0,0,0,.527.61,3.473,3.473,0,0,0,.688.413c0.248,0.112.477,0.221,0.689,0.326a2.31,2.31,0,0,1,.527.35,0.645,0.645,0,0,1,.21.5A0.675,0.675,0,0,1,134.711,96.65Zm5.492-.024a1.756,1.756,0,0,1-.442.245,1.708,1.708,0,0,1-.657.12,1.066,1.066,0,0,1-.853-0.307,1.471,1.471,0,0,1-.291-0.912h2.681c0.03-.166.052-0.326,0.067-0.48s0.023-.3.023-0.432a2.494,2.494,0,0,0-.152-0.931,1.576,1.576,0,0,0-.4-0.6,1.512,1.512,0,0,0-.572-0.317,2.308,2.308,0,0,0-.662-0.1,2.007,2.007,0,0,0-1.582.634,2.789,2.789,0,0,0-.563,1.9,3.062,3.062,0,0,0,.5,1.858,1.836,1.836,0,0,0,1.582.677,2.986,2.986,0,0,0,.978-0.158,2.223,2.223,0,0,0,.729-0.389ZM139.5,94.2a1.283,1.283,0,0,1,.147.8h-1.662a1.516,1.516,0,0,1,.264-0.782,0.786,0.786,0,0,1,.674-0.293A0.642,0.642,0,0,1,139.5,94.2Zm5.948,3.658V94.869a4.129,4.129,0,0,0-.09-0.936,1.481,1.481,0,0,0-.268-0.6,1,1,0,0,0-.438-0.317,1.692,1.692,0,0,0-.59-0.1,1.533,1.533,0,0,0-.876.23,1.993,1.993,0,0,0-.545.538h-0.036l-0.134-.634h-0.92v4.8h1.162v-3.11a1.148,1.148,0,0,1,.326-0.514,0.8,0.8,0,0,1,.559-0.206,0.569,0.569,0,0,1,.531.259,1.711,1.711,0,0,1,.157.845v2.726h1.162Zm0.509-3.744h0.617V96.53a1.718,1.718,0,0,0,.29,1.118,1.128,1.128,0,0,0,.907.341,2.509,2.509,0,0,0,.653-0.086,2.825,2.825,0,0,0,.563-0.211l-0.206-.96a1.994,1.994,0,0,1-.29.115,1.093,1.093,0,0,1-.309.038,0.351,0.351,0,0,1-.353-0.216,1.967,1.967,0,0,1-.093-0.715V94.11h1.09V93.054h-1.09V91.8l-1.162.355v0.9h-0.617V94.11Z"/>
          </g>
          <g id="_1_copy_5" data-name="1 copy 5">
            <path id="_3" data-name="3" class="cls-4" d="M29.771,118.241a2.963,2.963,0,0,1-.568-0.182l-0.219.7a3.717,3.717,0,0,0,.656.177,4.689,4.689,0,0,0,.844.069,3.125,3.125,0,0,0,.969-0.148,2.386,2.386,0,0,0,.8-0.427,2.02,2.02,0,0,0,.537-0.694,2.158,2.158,0,0,0,.2-0.944A2.032,2.032,0,0,0,32.839,116a1.75,1.75,0,0,0-1.021-.984,2.338,2.338,0,0,0-.771-0.142l-0.354.068v-0.019l0.365-.285,1.656-2.351V112H28.995v0.728h2.063l0.677-.1-0.479.433-1.5,2.183v0.285h0.771a1.906,1.906,0,0,1,1.193.335,1.213,1.213,0,0,1,.432,1.023,1.347,1.347,0,0,1-.125.58,1.388,1.388,0,0,1-.344.457,1.459,1.459,0,0,1-.521.29,2.1,2.1,0,0,1-.656.1A3.367,3.367,0,0,1,29.771,118.241Z"/>
            <path id="Thomas_copy" data-name="Thomas  copy" class="cls-4" d="M49.859,69H44.99v0.728h2.045v6.156h0.779V69.729h2.045V69Zm4.654,6.884v-2.97a4.735,4.735,0,0,0-.089-1.008,1.517,1.517,0,0,0-.282-0.634,1.009,1.009,0,0,0-.483-0.329,2.246,2.246,0,0,0-.685-0.093,1.794,1.794,0,0,0-.849.182,1.864,1.864,0,0,0-.586.487H51.5V69H50.751v6.884H51.5V72.61a1.358,1.358,0,0,1,.46-0.772,1.208,1.208,0,0,1,.8-0.3,1.105,1.105,0,0,1,.5.1,0.738,0.738,0,0,1,.3.29,1.324,1.324,0,0,1,.155.482,4.723,4.723,0,0,1,.042.674v2.8h0.751Zm1.229-1.4a2.3,2.3,0,0,0,.375.816,1.672,1.672,0,0,0,.643.521,2.143,2.143,0,0,0,.915.182,1.837,1.837,0,0,0,1.525-.664,3,3,0,0,0,.53-1.913,4.268,4.268,0,0,0-.122-1.057,2.3,2.3,0,0,0-.375-0.816,1.674,1.674,0,0,0-.643-0.521,2.142,2.142,0,0,0-.915-0.182,1.837,1.837,0,0,0-1.525.664,3.005,3.005,0,0,0-.53,1.913A4.262,4.262,0,0,0,55.742,74.484Zm1.933-2.945a1.1,1.1,0,0,1,.591.153,1.175,1.175,0,0,1,.394.408,1.949,1.949,0,0,1,.221.6,3.628,3.628,0,0,1,.07.728q0,1.9-1.276,1.888a1.067,1.067,0,0,1-.591-0.157,1.214,1.214,0,0,1-.394-0.413,1.946,1.946,0,0,1-.221-0.6,3.577,3.577,0,0,1-.07-0.718q0-1.9,1.276-1.888h0Zm6.736,4.347V72.6a1.62,1.62,0,0,1,.375-0.787,0.963,0.963,0,0,1,.732-0.275,1.057,1.057,0,0,1,.455.084,0.617,0.617,0,0,1,.272.256,1.162,1.162,0,0,1,.131.433,5.011,5.011,0,0,1,.033.615v2.96H67.16v-2.95a5.433,5.433,0,0,0-.08-1.023,1.555,1.555,0,0,0-.258-0.639,0.935,0.935,0,0,0-.45-0.329,2.068,2.068,0,0,0-.666-0.093,1.706,1.706,0,0,0-.859.216,1.555,1.555,0,0,0-.6.6,1.184,1.184,0,0,0-.446-0.634,1.352,1.352,0,0,0-.736-0.182,1.66,1.66,0,0,0-.868.2,2.238,2.238,0,0,0-.586.516H61.578l-0.141-.6H60.912v4.917h0.751V72.5a1.47,1.47,0,0,1,.4-0.688,0.994,0.994,0,0,1,.718-0.275,0.92,0.92,0,0,1,.455.1,0.649,0.649,0,0,1,.267.3,1.54,1.54,0,0,1,.127.487,6.169,6.169,0,0,1,.033.683v2.783h0.751Zm4.278-3.953a1.786,1.786,0,0,1,.3-0.147,2.965,2.965,0,0,1,.366-0.111q0.192-.046.375-0.071a2.5,2.5,0,0,1,.343-0.025,1.024,1.024,0,0,1,.751.216,1.092,1.092,0,0,1,.206.757q0,0.236-.028.531a1.742,1.742,0,0,0-.258-0.02H70.491a5.552,5.552,0,0,0-.943.074,2.268,2.268,0,0,0-.732.246,1.244,1.244,0,0,0-.474.462,1.419,1.419,0,0,0-.169.723,1.479,1.479,0,0,0,.108.58,1.308,1.308,0,0,0,.3.438,1.291,1.291,0,0,0,.446.28,1.557,1.557,0,0,0,.558.1,1.908,1.908,0,0,0,.535-0.069,1.875,1.875,0,0,0,.413-0.172,1.364,1.364,0,0,0,.305-0.236,1.621,1.621,0,0,0,.211-0.27h0.047l0.2,0.688h0.554a3.376,3.376,0,0,1-.1-0.6q-0.028-.324-0.028-0.688,0-.5.028-1.062T71.767,72.4a2.785,2.785,0,0,0-.052-0.531,1.259,1.259,0,0,0-.206-0.487,1.1,1.1,0,0,0-.45-0.359,1.874,1.874,0,0,0-.783-0.138,4.433,4.433,0,0,0-.99.108,2.633,2.633,0,0,0-.83.334Zm0.5,3.122a0.743,0.743,0,0,1-.235-0.565,0.643,0.643,0,0,1,.127-0.408,0.861,0.861,0,0,1,.338-0.256A1.735,1.735,0,0,1,69.9,73.7a4.6,4.6,0,0,1,.568-0.034q0.131,0,.267,0t0.267,0.015V74.5a1.129,1.129,0,0,1-.145.266,1.159,1.159,0,0,1-.249.251,1.337,1.337,0,0,1-.357.187,1.391,1.391,0,0,1-.469.074A0.839,0.839,0,0,1,69.187,75.054Zm5.8,0.094a1.219,1.219,0,0,1-.666.167,2.349,2.349,0,0,1-.7-0.108,2.68,2.68,0,0,1-.563-0.236l-0.225.669a2.792,2.792,0,0,0,.629.256,3.326,3.326,0,0,0,.91.108,2.066,2.066,0,0,0,.718-0.113,1.472,1.472,0,0,0,.511-0.31,1.2,1.2,0,0,0,.3-0.472,1.737,1.737,0,0,0,.1-0.59,1.332,1.332,0,0,0-.169-0.713,1.551,1.551,0,0,0-.418-0.448,2.3,2.3,0,0,0-.544-0.285q-0.3-.108-0.544-0.221a1.79,1.79,0,0,1-.418-0.256,0.493,0.493,0,0,1-.169-0.4,0.607,0.607,0,0,1,.192-0.511,1,1,0,0,1,.605-0.147,2.464,2.464,0,0,1,.652.084,2.867,2.867,0,0,1,.521.192l0.178-.649a3.206,3.206,0,0,0-.6-0.221,3.28,3.28,0,0,0-.849-0.093,1.593,1.593,0,0,0-1.07.329,1.293,1.293,0,0,0-.385,1.038,1.233,1.233,0,0,0,.169.688,1.438,1.438,0,0,0,.417.418,2.5,2.5,0,0,0,.544.266q0.3,0.1.544,0.216a1.427,1.427,0,0,1,.418.28,0.621,0.621,0,0,1,.169.462A0.655,0.655,0,0,1,74.985,75.147Z"/>
            <path id="Jesica_copy" data-name="Jesica copy" class="cls-4" d="M46.335,95.191a2.026,2.026,0,0,1-.124.784,0.5,0.5,0,0,1-.508.287,1.331,1.331,0,0,1-.559-0.117L45,96.828a0.682,0.682,0,0,0,.169.068q0.105,0.029.215,0.049t0.22,0.029c0.073,0.006.134,0.01,0.183,0.01a1.181,1.181,0,0,0,.984-0.409,1.875,1.875,0,0,0,.325-1.188V90.069h-0.76v5.123Zm5.412,0.74a1.305,1.305,0,0,1-.467.273,1.762,1.762,0,0,1-.623.117,1.7,1.7,0,0,1-.682-0.122,1.116,1.116,0,0,1-.453-0.351,1.52,1.52,0,0,1-.256-0.56,3.159,3.159,0,0,1-.082-0.76h2.94a5.129,5.129,0,0,0,.055-0.711,2.618,2.618,0,0,0-.156-0.989,1.463,1.463,0,0,0-.4-0.579,1.35,1.35,0,0,0-.559-0.278,2.726,2.726,0,0,0-.623-0.073,1.8,1.8,0,0,0-1.493.652,2.984,2.984,0,0,0-.522,1.9,4.263,4.263,0,0,0,.119,1.052,2.292,2.292,0,0,0,.366.8,1.628,1.628,0,0,0,.632.516,2.12,2.12,0,0,0,.907.18,2.827,2.827,0,0,0,.884-0.136,2.026,2.026,0,0,0,.691-0.37ZM51.2,92.878a1.565,1.565,0,0,1,.266,1.037H49.192a1.559,1.559,0,0,1,.389-1.032,1.221,1.221,0,0,1,.865-0.3A0.955,0.955,0,0,1,51.2,92.878Zm3.892,3.277a1.176,1.176,0,0,1-.65.166,2.259,2.259,0,0,1-.687-0.107A2.592,2.592,0,0,1,53.2,95.98l-0.22.662a2.7,2.7,0,0,0,.614.253,3.2,3.2,0,0,0,.888.107,1.989,1.989,0,0,0,.7-0.112,1.432,1.432,0,0,0,.5-0.307,1.191,1.191,0,0,0,.3-0.468,1.743,1.743,0,0,0,.1-0.584,1.335,1.335,0,0,0-.165-0.706,1.528,1.528,0,0,0-.408-0.443,2.231,2.231,0,0,0-.531-0.282q-0.289-.107-0.531-0.219a1.742,1.742,0,0,1-.407-0.253,0.491,0.491,0,0,1-.165-0.394,0.605,0.605,0,0,1,.188-0.507,0.962,0.962,0,0,1,.591-0.146,2.37,2.37,0,0,1,.636.083,2.778,2.778,0,0,1,.508.19l0.174-.643a3.1,3.1,0,0,0-.581-0.219,3.162,3.162,0,0,0-.829-0.092,1.54,1.54,0,0,0-1.044.326,1.291,1.291,0,0,0-.376,1.027,1.236,1.236,0,0,0,.165.682,1.415,1.415,0,0,0,.407.414,2.426,2.426,0,0,0,.531.263q0.289,0.1.531,0.214a1.393,1.393,0,0,1,.407.278,0.62,0.62,0,0,1,.165.458A0.653,0.653,0,0,1,55.09,96.156Zm2.253,0.73h0.733v-4.87H57.342v4.87Zm-0.014-5.98a0.483,0.483,0,0,0,.362.146,0.529,0.529,0,0,0,.375-0.146,0.485,0.485,0,0,0,.156-0.37,0.534,0.534,0,0,0-.156-0.385,0.5,0.5,0,0,0-.375-0.161,0.461,0.461,0,0,0-.362.161,0.561,0.561,0,0,0-.142.385A0.509,0.509,0,0,0,57.329,90.906Zm5.2,5.064a1.64,1.64,0,0,1-.426.243,1.54,1.54,0,0,1-.591.107,1.177,1.177,0,0,1-1.067-.57,1.8,1.8,0,0,1-.229-0.594,3.524,3.524,0,0,1-.069-0.706q0-1.87,1.3-1.87a2,2,0,0,1,.549.073,1.932,1.932,0,0,1,.467.2l0.211-.672a2.2,2.2,0,0,0-.554-0.209,3.278,3.278,0,0,0-.746-0.073,1.759,1.759,0,0,0-1.474.657,3.026,3.026,0,0,0-.513,1.894A4.812,4.812,0,0,0,59.49,95.5a2.261,2.261,0,0,0,.339.808,1.554,1.554,0,0,0,.6.516,2.02,2.02,0,0,0,.9.18,2.743,2.743,0,0,0,.788-0.112,1.951,1.951,0,0,0,.65-0.326Zm1.4-3a1.734,1.734,0,0,1,.3-0.145,2.869,2.869,0,0,1,.357-0.11q0.188-.045.366-0.07a2.414,2.414,0,0,1,.334-0.025,0.989,0.989,0,0,1,.733.214,1.092,1.092,0,0,1,.2.75q0,0.234-.027.526a1.687,1.687,0,0,0-.252-0.019H65.685a5.345,5.345,0,0,0-.92.073,2.189,2.189,0,0,0-.714.243,1.222,1.222,0,0,0-.463.458,1.421,1.421,0,0,0-.165.716,1.483,1.483,0,0,0,.105.575,1.3,1.3,0,0,0,.288.433,1.259,1.259,0,0,0,.435.278,1.5,1.5,0,0,0,.545.1,1.836,1.836,0,0,0,.522-0.068,1.816,1.816,0,0,0,.4-0.17,1.328,1.328,0,0,0,.3-0.234,1.6,1.6,0,0,0,.206-0.268h0.046l0.192,0.682H67a3.391,3.391,0,0,1-.1-0.594q-0.027-.321-0.028-0.682,0-.5.028-1.052t0.028-1.139a2.8,2.8,0,0,0-.05-0.526,1.257,1.257,0,0,0-.2-0.482,1.078,1.078,0,0,0-.44-0.356,1.808,1.808,0,0,0-.765-0.136,4.268,4.268,0,0,0-.966.107,2.547,2.547,0,0,0-.81.331Zm0.485,3.092a0.741,0.741,0,0,1-.229-0.56,0.644,0.644,0,0,1,.124-0.4,0.842,0.842,0,0,1,.33-0.253,1.673,1.673,0,0,1,.476-0.127,4.425,4.425,0,0,1,.554-0.034q0.128,0,.261,0T66.189,94.7v0.808a1.161,1.161,0,0,1-.385.511,1.3,1.3,0,0,1-.348.185,1.338,1.338,0,0,1-.458.073A0.813,0.813,0,0,1,64.412,96.063Z"/>
            <path id="Johny_copy" data-name="Johny copy" class="cls-4" d="M46.389,117.225a2.028,2.028,0,0,1-.129.8,0.517,0.517,0,0,1-.529.293,1.417,1.417,0,0,1-.581-0.119l-0.152.7a0.7,0.7,0,0,0,.176.07c0.073,0.02.148,0.036,0.224,0.049s0.153,0.023.229,0.03,0.14,0.01.191,0.01a1.242,1.242,0,0,0,1.025-.417,1.885,1.885,0,0,0,.338-1.212V112H46.389v5.224Zm2.3,0.313a2.319,2.319,0,0,0,.381.824,1.7,1.7,0,0,0,.653.526,2.179,2.179,0,0,0,.929.184,1.874,1.874,0,0,0,1.549-.67,3.022,3.022,0,0,0,.539-1.932,4.3,4.3,0,0,0-.124-1.068,2.322,2.322,0,0,0-.381-0.824,1.7,1.7,0,0,0-.653-0.526,2.18,2.18,0,0,0-.929-0.184,1.873,1.873,0,0,0-1.549.67,3.022,3.022,0,0,0-.539,1.932A4.285,4.285,0,0,0,48.687,117.538Zm1.964-2.975a1.123,1.123,0,0,1,.6.154,1.193,1.193,0,0,1,.4.412,1.967,1.967,0,0,1,.224.606,3.644,3.644,0,0,1,.072.735q0,1.917-1.3,1.907a1.089,1.089,0,0,1-.6-0.159,1.232,1.232,0,0,1-.4-0.417,1.952,1.952,0,0,1-.224-0.606,3.587,3.587,0,0,1-.072-0.725q0-1.917,1.3-1.907h0Zm7.111,4.39v-3a4.746,4.746,0,0,0-.091-1.018,1.531,1.531,0,0,0-.286-0.641,1.026,1.026,0,0,0-.491-0.333,2.326,2.326,0,0,0-.7-0.094,1.825,1.825,0,0,0-.863.184,1.884,1.884,0,0,0-.6.491H54.7V112H53.939v6.952H54.7v-3.307a1.37,1.37,0,0,1,.467-0.78,1.231,1.231,0,0,1,.81-0.3,1.116,1.116,0,0,1,.51.1,0.741,0.741,0,0,1,.31.293,1.33,1.33,0,0,1,.157.486,4.745,4.745,0,0,1,.043.68v2.831h0.763Zm5.214,0v-3a4.312,4.312,0,0,0-.1-1.018,1.62,1.62,0,0,0-.3-0.641,1.027,1.027,0,0,0-.491-0.333,2.29,2.29,0,0,0-.686-0.094,1.944,1.944,0,0,0-.92.2,1.733,1.733,0,0,0-.615.521H59.83l-0.143-.606H59.153v4.966h0.763v-3.4a1.516,1.516,0,0,1,.462-0.71,1.237,1.237,0,0,1,.834-0.283,0.815,0.815,0,0,1,.786.393,2.494,2.494,0,0,1,.215,1.166v2.831h0.762Zm1.649-4.966H63.747l1.916,4.966a2.458,2.458,0,0,1-.41,1.008,0.692,0.692,0,0,1-.515.293,0.643,0.643,0,0,1-.238-0.05l-0.133.685a1.372,1.372,0,0,0,.562.1,0.805,0.805,0,0,0,.553-0.214,2.06,2.06,0,0,0,.429-0.571,5.622,5.622,0,0,0,.348-0.814q0.157-.458.319-0.944l1.411-4.459H67.226L66.3,117.2l-0.21.963H66.04l-0.268-.953Z"/>
            <path id="_158" data-name="$158" class="cls-4" d="M97.554,120.015h0.635v-0.921a1.89,1.89,0,0,0,1.2-.645,1.99,1.99,0,0,0,.406-1.286,1.865,1.865,0,0,0-.14-0.751,1.923,1.923,0,0,0-.369-0.56,2.82,2.82,0,0,0-.518-0.426q-0.289-.184-0.579-0.345v-2.462a3,3,0,0,1,.653.095,2.34,2.34,0,0,1,.448.175l0.224-.71a2.684,2.684,0,0,0-.546-0.2,4.02,4.02,0,0,0-.779-0.095v-0.881H97.554v0.911a1.728,1.728,0,0,0-1.143.57,1.8,1.8,0,0,0-.378,1.181,2.009,2.009,0,0,0,.131.761,1.858,1.858,0,0,0,.345.555,2.266,2.266,0,0,0,.49.405q0.275,0.171.555,0.321v2.7a2.938,2.938,0,0,1-.789-0.11,2.088,2.088,0,0,1-.509-0.221l-0.252.731a2.182,2.182,0,0,0,.639.225,4.739,4.739,0,0,0,.91.095v0.881Zm1.19-1.977a1.221,1.221,0,0,1-.7.356v-2.432a4.292,4.292,0,0,1,.383.23,1.585,1.585,0,0,1,.308.27,1.255,1.255,0,0,1,.21.34A1.279,1.279,0,0,1,98.744,118.038Zm-1.736-5.06a0.931,0.931,0,0,1,.7-0.349v2.182a2.8,2.8,0,0,1-.639-0.488,0.969,0.969,0,0,1-.257-0.7A1.107,1.107,0,0,1,97.009,112.978Zm4.382,6.036H104.7v-0.74h-1.279v-6.385h-0.336l-2.053,1.7,0.355,0.51,1.026-.79,0.374-.471-0.094.591v4.844H101.39v0.74Zm5.454-.625a2.223,2.223,0,0,1-.461-0.135l-0.2.68a2.67,2.67,0,0,0,.541.15,4.18,4.18,0,0,0,.709.05,2.537,2.537,0,0,0,.877-0.15,2.027,2.027,0,0,0,.714-0.44,2.076,2.076,0,0,0,.481-0.726,2.626,2.626,0,0,0,.177-1,2.12,2.12,0,0,0-.532-1.551,1.983,1.983,0,0,0-1.456-.55l-0.4.02v-1.992h2.212v-0.74H106.6v3.462l0.784-.05a1.683,1.683,0,0,1,1.143.361,1.367,1.367,0,0,1,.416,1.091,1.525,1.525,0,0,1-.42,1.16,1.481,1.481,0,0,1-1.064.4A3.5,3.5,0,0,1,106.844,118.389Zm4.466-.341a1.585,1.585,0,0,0,.359.566,1.718,1.718,0,0,0,.583.38,2.087,2.087,0,0,0,.794.14,2.218,2.218,0,0,0,.83-0.145,1.766,1.766,0,0,0,.616-0.4,1.682,1.682,0,0,0,.383-0.611,2.256,2.256,0,0,0,.13-0.785,1.953,1.953,0,0,0-.093-0.626,1.789,1.789,0,0,0-.257-0.495,2.254,2.254,0,0,0-.382-0.4,4.085,4.085,0,0,0-.462-0.331,2.846,2.846,0,0,0,.8-0.855,2.033,2.033,0,0,0,.243-1.006,1.645,1.645,0,0,0-.121-0.641,1.477,1.477,0,0,0-.341-0.5,1.565,1.565,0,0,0-.536-0.33,2,2,0,0,0-.71-0.12,2.036,2.036,0,0,0-.751.13,1.705,1.705,0,0,0-.569.36,1.542,1.542,0,0,0-.364.55,1.93,1.93,0,0,0-.126.711,1.83,1.83,0,0,0,.089.6,1.719,1.719,0,0,0,.242.471,2.069,2.069,0,0,0,.355.375,4.44,4.44,0,0,0,.434.315,2.826,2.826,0,0,0-.961.846,1.935,1.935,0,0,0-.308,1.1A1.992,1.992,0,0,0,111.31,118.048Zm2.869-.28a1.03,1.03,0,0,1-.261.37,1.118,1.118,0,0,1-.378.221,1.346,1.346,0,0,1-.448.075,1.272,1.272,0,0,1-.508-0.095,1.093,1.093,0,0,1-.369-0.256,1.027,1.027,0,0,1-.224-0.38,1.417,1.417,0,0,1-.075-0.46,1.6,1.6,0,0,1,.243-0.8,2.209,2.209,0,0,1,.812-0.76q0.252,0.14.485,0.29a2.43,2.43,0,0,1,.416.335,1.6,1.6,0,0,1,.293.41,1.167,1.167,0,0,1,.112.526A1.294,1.294,0,0,1,114.179,117.768Zm-2.043-4.533a0.9,0.9,0,0,1,.21-0.326,1.143,1.143,0,0,1,.336-0.23,1.06,1.06,0,0,1,.448-0.09,1,1,0,0,1,.7.275,1.026,1.026,0,0,1,.294.786,1.458,1.458,0,0,1-.2.751,2.75,2.75,0,0,1-.621.69c-0.162-.086-0.317-0.178-0.467-0.275a2.538,2.538,0,0,1-.4-0.315,1.378,1.378,0,0,1-.276-0.386,1.14,1.14,0,0,1-.1-0.495A1.072,1.072,0,0,1,112.136,113.235Z"/>
            <path id="Draft" class="cls-7" d="M131.988,119.863c0.079,0.013.2,0.024,0.355,0.034l0.5,0.029q0.26,0.015.5,0.024c0.16,0.006.289,0.01,0.386,0.01a3.556,3.556,0,0,0,1.542-.3,2.768,2.768,0,0,0,1-.791,3.051,3.051,0,0,0,.546-1.129,5.288,5.288,0,0,0,.163-1.321,5.194,5.194,0,0,0-.172-1.38,2.9,2.9,0,0,0-.546-1.08,2.465,2.465,0,0,0-.973-0.7,3.756,3.756,0,0,0-1.447-.251c-0.127,0-.271,0-0.432.005s-0.326.008-.5,0.014-0.336.016-.5,0.029-0.3.029-.432,0.048v6.762Zm2.81-5.479a1.556,1.556,0,0,1,.533.521,2.08,2.08,0,0,1,.268.719,4.49,4.49,0,0,1,.073.8,4.744,4.744,0,0,1-.082.882,2.185,2.185,0,0,1-.287.757,1.517,1.517,0,0,1-.555.526,1.762,1.762,0,0,1-.877.2c-0.031,0-.076,0-0.137,0l-0.191-.01-0.186-.009a0.609,0.609,0,0,1-.123-0.015V114.22a2.621,2.621,0,0,1,.3-0.029c0.136-.006.271-0.009,0.4-0.009A1.635,1.635,0,0,1,134.8,114.384Zm5.713,0.647a1.626,1.626,0,0,0-.537-0.106,1.024,1.024,0,0,0-.619.192,1.3,1.3,0,0,0-.418.55H138.9l-0.137-.636h-0.919v4.823h1.183v-3.116a0.861,0.861,0,0,1,.287-0.458,0.8,0.8,0,0,1,.532-0.179,1.481,1.481,0,0,1,.509.106Zm0.782,1.215a2.673,2.673,0,0,1,.65-0.2,3.964,3.964,0,0,1,.751-0.077,0.65,0.65,0,0,1,.609.237,1.323,1.323,0,0,1,.073.776,5.554,5.554,0,0,0-1.087.044,2.551,2.551,0,0,0-.837.26,1.379,1.379,0,0,0-.537.492,1.408,1.408,0,0,0-.186.747,1.553,1.553,0,0,0,.1.574,1.326,1.326,0,0,0,.282.444,1.23,1.23,0,0,0,.437.29,1.544,1.544,0,0,0,.573.1,1.469,1.469,0,0,0,.832-0.217,1.685,1.685,0,0,0,.5-0.516H143.5l0.191,0.665h0.964a3.216,3.216,0,0,1-.136-0.738c-0.018-.26-0.026-0.529-0.023-0.805s0.014-.558.032-0.844,0.027-.571.027-0.854a2.89,2.89,0,0,0-.077-0.694,1.314,1.314,0,0,0-.264-0.531,1.185,1.185,0,0,0-.505-0.342,2.234,2.234,0,0,0-.791-0.121,5.3,5.3,0,0,0-1.046.1,3.77,3.77,0,0,0-.864.275Zm0.805,2.5a0.564,0.564,0,0,1-.15-0.419,0.446,0.446,0,0,1,.118-0.319,0.772,0.772,0,0,1,.318-0.193,1.846,1.846,0,0,1,.46-0.086,3.079,3.079,0,0,1,.541.009v0.627a1.168,1.168,0,0,1-.309.362,0.878,0.878,0,0,1-.564.169A0.559,0.559,0,0,1,142.1,118.749Zm3.033-2.657h0.628v3.762h1.182v-3.762h1v-1.061h-1c0-.155,0-0.291.014-0.41a0.956,0.956,0,0,1,.064-0.3,0.35,0.35,0,0,1,.154-0.179,0.605,0.605,0,0,1,.287-0.058,2.368,2.368,0,0,1,.332.024,1.943,1.943,0,0,1,.368.1l0.228-1a3.442,3.442,0,0,0-1.21-.184,1.336,1.336,0,0,0-1.055.41,1.975,1.975,0,0,0-.364,1.327v0.27h-0.628v1.061Zm2.793,0h0.627v2.43a1.712,1.712,0,0,0,.3,1.124,1.157,1.157,0,0,0,.923.343,2.57,2.57,0,0,0,.664-0.087,2.9,2.9,0,0,0,.573-0.212l-0.209-.965a2.067,2.067,0,0,1-.3.116,1.12,1.12,0,0,1-.314.038,0.357,0.357,0,0,1-.36-0.217,1.949,1.949,0,0,1-.095-0.718v-1.852h1.11v-1.061h-1.11v-1.264l-1.183.357v0.907h-0.627v1.061Z"/>
          </g>
          <path class="cls-8" d="M27,82H155v1H27V82Zm0,22H155v1H27v-1Z"/>
        </g>
      </g>
    </g>
    <g>
      <circle class="cls-9" cx="116" cy="22" r="12"/>
      <path id="_" data-name="$" class="cls-10" d="M117.466,26.264a2.1,2.1,0,0,1-1.452.455,2.18,2.18,0,0,1-1.469-.5,2.092,2.092,0,0,1-.581-1.667h-1.95L112,24.6a3.459,3.459,0,0,0,.934,2.7,4.051,4.051,0,0,0,2.46,1.069V30h1.32V28.361a3.862,3.862,0,0,0,2.4-1.027,3.123,3.123,0,0,0,.876-2.324,3.158,3.158,0,0,0-.867-2.349,6.679,6.679,0,0,0-2.627-1.44,4.79,4.79,0,0,1-1.626-.884,1.564,1.564,0,0,1-.44-1.162,1.749,1.749,0,0,1,.423-1.234,1.69,1.69,0,0,1,1.3-.459,1.589,1.589,0,0,1,1.3.568,2.37,2.37,0,0,1,.465,1.545h1.95l0.025-.042a3.824,3.824,0,0,0-.78-2.552,3.352,3.352,0,0,0-2.241-1.162V13.986h-1.32v1.836a3.584,3.584,0,0,0-2.3,1.065,3.238,3.238,0,0,0-.839,2.3,3.149,3.149,0,0,0,.88,2.354,6.686,6.686,0,0,0,2.639,1.436,4.237,4.237,0,0,1,1.573.863,1.616,1.616,0,0,1,.46,1.183A1.578,1.578,0,0,1,117.466,26.264Z"/>
    </g>
    <g id="Group_49_copy" data-name="Group 49 copy">
      <circle class="cls-11" cx="181" cy="57" r="9"/>
      <path id="_2-3" data-name="$" class="cls-10" d="M182.108,60.187a1.587,1.587,0,0,1-1.093.34,1.651,1.651,0,0,1-1.107-.372,1.562,1.562,0,0,1-.437-1.248H178l-0.012.032a2.577,2.577,0,0,0,.7,2.023,3.06,3.06,0,0,0,1.853.8v1.223h0.994V61.756a2.922,2.922,0,0,0,1.809-.769,2.328,2.328,0,0,0,.659-1.739,2.353,2.353,0,0,0-.653-1.758,5.036,5.036,0,0,0-1.978-1.078,3.619,3.619,0,0,1-1.225-.662,1.168,1.168,0,0,1-.331-0.87,1.3,1.3,0,0,1,.319-0.923,1.276,1.276,0,0,1,.981-0.343,1.2,1.2,0,0,1,.981.425,1.768,1.768,0,0,1,.35,1.157h1.469l0.019-.032a2.851,2.851,0,0,0-.588-1.91,2.527,2.527,0,0,0-1.687-.87V51h-0.994v1.374a2.7,2.7,0,0,0-1.731.8,2.415,2.415,0,0,0-.632,1.724,2.346,2.346,0,0,0,.663,1.762,5.043,5.043,0,0,0,1.987,1.075,3.2,3.2,0,0,1,1.185.646,1.207,1.207,0,0,1,.347.886A1.18,1.18,0,0,1,182.108,60.187Z"/>
    </g>
  </g>
</svg>
