<svg id="icon" xmlns="http://www.w3.org/2000/svg" width="181" height="122" viewBox="0 0 181 122">
  <defs>
    <style>
      .cls-1 {
        fill: #eef3fe;
      }

      .cls-1, .cls-11, .cls-12, .cls-13, .cls-14, .cls-2, .cls-3, .cls-4, .cls-6, .cls-8 {
        fill-rule: evenodd;
      }

      .cls-10, .cls-2, .cls-8 {
        fill: #fff;
      }

      .cls-3 {
        fill: #f2f5fb;
        stroke: #dfe4e5;
        stroke-width: 2px;
      }

      .cls-3, .cls-8 {
        stroke-linejoin: round;
      }

      .cls-4 {
        fill: #dfe4e5;
      }

      .cls-5 {
        fill: #33e2a6;
      }

      .cls-6 {
        fill: #212121;
      }

      .cls-7 {
        fill: #de617e;
      }

      .cls-8 {
        stroke: #fff;
        stroke-width: 1px;
      }

      .cls-9 {
        fill: #ffc501;
      }

      .cls-11, .cls-12 {
        fill: #8388e4;
      }

      .cls-12, .cls-14 {
        opacity: 0.7;
      }

      .cls-13, .cls-14 {
        fill: #5387ff;
      }
    </style>
  </defs>
  <path id="bg" class="cls-1" d="M17,66.019c0.518-12.348,3.106-22.638,28.987-30.87S79.739,23.287,92.68,15.569C103.106,9.175,135.153,9.737,150.654,31c10.784,14.8,10.007,34.037-2.07,47.334-10.26,11.3-31.5,20.432-52.8,24.7-21.692,4.344-37.893,1.057-53.939-5.117S16.655,80.768,17,66.019Z"/>
  <g id="icon-2" data-name="icon">
    <g id="_1" data-name="1">
      <path id="Rounded_Rectangle_680" data-name="Rounded Rectangle 680" class="cls-2" d="M28.543,31.7L95.728,21.208a2,2,0,0,1,2.285,1.667l11.729,75.09a2,2,0,0,1-1.668,2.285L40.889,110.744a2,2,0,0,1-2.285-1.667L26.875,33.987A2,2,0,0,1,28.543,31.7Z"/>
      <path id="Rounded_Rectangle_681" data-name="Rounded Rectangle 681" class="cls-3" d="M51.144,24.124l20.748-3.241A6.5,6.5,0,1,1,73.9,33.727L53.15,36.968A6.5,6.5,0,1,1,51.144,24.124Z"/>
      <path id="Rounded_Rectangle_682" data-name="Rounded Rectangle 682" class="cls-4" d="M54.88,28.6L69.7,26.286a1.5,1.5,0,0,1,.463,2.964l-14.82,2.315A1.5,1.5,0,0,1,54.88,28.6Z"/>
      <g id="_1-2" data-name="1">
        <g>
          <circle class="cls-5" cx="44.625" cy="50.453" r="6.031"/>
          <path id="Forma_1" data-name="Forma 1" class="cls-2" d="M43.564,51.4l-2.051-1.075a1.473,1.473,0,0,0-1.106.308,1.631,1.631,0,0,0,.173,1.16l2.843,1.6,0,0,0.545,0.46,4.491-6.028a1.979,1.979,0,0,0-.187-1.248,1.259,1.259,0,0,0-1.081.178Z"/>
        </g>
        <path id="Approved" class="cls-6" d="M61.349,51.415l0.8-.125-3.432-6.18-0.344.054L56.989,52.1l0.752-.118,0.353-1.888,2.327-.365Zm-2.723-4.08L58.7,46.3H58.7l0.378,0.942L60.092,49.1l-1.858.291ZM63.2,53.014l0.725-.114-0.3-1.919a2.138,2.138,0,0,0,.444.077,2.7,2.7,0,0,0,.537-0.042,2.074,2.074,0,0,0,.829-0.309,1.875,1.875,0,0,0,.58-0.6,2.33,2.33,0,0,0,.3-0.855,3.46,3.46,0,0,0-.013-1.07,2.857,2.857,0,0,0-.721-1.711,1.9,1.9,0,0,0-2.166-.043,1.413,1.413,0,0,0-.463.578l-0.036.006L62.7,46.479l-0.5.078ZM64.68,46.84a1,1,0,0,1,.415.28,1.541,1.541,0,0,1,.286.494,3.476,3.476,0,0,1,.171.677,2.285,2.285,0,0,1-.15,1.455,1.2,1.2,0,0,1-.919.631,1.826,1.826,0,0,1-.564.017,1.218,1.218,0,0,1-.4-0.14l-0.356-2.287a1.391,1.391,0,0,1,.261-0.8,1.054,1.054,0,0,1,.692-0.359A1.156,1.156,0,0,1,64.68,46.84Zm3.428,5.406,0.725-.114-0.3-1.919a2.138,2.138,0,0,0,.444.077,2.7,2.7,0,0,0,.537-0.042,2.072,2.072,0,0,0,.829-0.309,1.873,1.873,0,0,0,.58-0.6,2.328,2.328,0,0,0,.3-0.855,3.457,3.457,0,0,0-.013-1.07,2.857,2.857,0,0,0-.721-1.711,1.9,1.9,0,0,0-2.166-.043,1.413,1.413,0,0,0-.463.578l-0.036.006L67.6,45.711l-0.5.078Zm1.476-6.174a1,1,0,0,1,.415.28,1.541,1.541,0,0,1,.286.494,3.469,3.469,0,0,1,.17.677,2.285,2.285,0,0,1-.15,1.455,1.2,1.2,0,0,1-.919.631,1.826,1.826,0,0,1-.564.017,1.218,1.218,0,0,1-.4-0.14L68.064,47.2a1.392,1.392,0,0,1,.261-0.8,1.054,1.054,0,0,1,.692-0.359A1.156,1.156,0,0,1,69.584,46.071Zm4.716-1.41a2.217,2.217,0,0,0-.6,0,1.044,1.044,0,0,0-.585.267,1.434,1.434,0,0,0-.337.549l-0.036.006-0.224-.541-0.508.08,0.718,4.612,0.725-.114-0.5-3.228a0.961,0.961,0,0,1,.2-0.593,0.866,0.866,0,0,1,.583-0.313,1.633,1.633,0,0,1,.531.011Zm1.166,3.2a2.149,2.149,0,0,0,.482.709,1.624,1.624,0,0,0,.7.392,2.147,2.147,0,0,0,.91.032,1.822,1.822,0,0,0,1.376-.853,2.794,2.794,0,0,0,.233-1.874,3.942,3.942,0,0,0-.272-0.973,2.153,2.153,0,0,0-.482-0.709,1.627,1.627,0,0,0-.7-0.392,2.148,2.148,0,0,0-.91-0.032,1.822,1.822,0,0,0-1.376.853,2.794,2.794,0,0,0-.233,1.874A3.935,3.935,0,0,0,75.465,47.856ZM76.9,44.8a1.094,1.094,0,0,1,.593.053,1.129,1.129,0,0,1,.44.323,1.819,1.819,0,0,1,.3.529,3.346,3.346,0,0,1,.174.672q0.277,1.78-.957,1.964a1.067,1.067,0,0,1-.594-0.058,1.167,1.167,0,0,1-.441-0.328,1.813,1.813,0,0,1-.3-0.529,3.3,3.3,0,0,1-.173-0.663q-0.277-1.78.957-1.964h0Zm3.153-1.042-0.834.131,2.7,4.405,0.308-.048,1.2-5.016-0.78.122L82.05,46.2l-0.087.93H81.954l-0.39-.836Zm7.666,2.6a1.319,1.319,0,0,1-.422.331,1.837,1.837,0,0,1-.6.207,1.773,1.773,0,0,1-.693-0.009,1.112,1.112,0,0,1-.5-0.262,1.427,1.427,0,0,1-.336-0.491,2.9,2.9,0,0,1-.194-0.707l2.91-.456a4.7,4.7,0,0,0-.05-0.682,2.411,2.411,0,0,0-.3-0.912,1.4,1.4,0,0,0-.484-0.486,1.375,1.375,0,0,0-.594-0.176,2.846,2.846,0,0,0-.627.027,1.842,1.842,0,0,0-1.381.849,2.774,2.774,0,0,0-.237,1.88,3.92,3.92,0,0,0,.273.978,2.154,2.154,0,0,0,.481.7,1.618,1.618,0,0,0,.7.391,2.206,2.206,0,0,0,.924.03,2.952,2.952,0,0,0,.855-0.266,2.062,2.062,0,0,0,.63-0.458ZM86.727,43.55a1.452,1.452,0,0,1,.416.941l-2.248.352a1.462,1.462,0,0,1,.233-1.038,1.258,1.258,0,0,1,.812-0.42A0.979,0.979,0,0,1,86.727,43.55ZM91.9,40.013l-0.725.114,0.3,1.919a2.727,2.727,0,0,0-.44-0.054,3.041,3.041,0,0,0-.536.046,1.946,1.946,0,0,0-1.414.85,2.644,2.644,0,0,0-.269,1.88,3.054,3.054,0,0,0,.722,1.748,1.6,1.6,0,0,0,1.437.37,1.526,1.526,0,0,0,.774-0.338,1.5,1.5,0,0,0,.442-0.617l0.036-.006,0.283,0.626L93,46.473a4.466,4.466,0,0,1-.2-0.739q-0.069-.381-0.142-0.852Zm-1.469,6.159a1.033,1.033,0,0,1-.415-0.308,1.69,1.69,0,0,1-.281-0.523,3.945,3.945,0,0,1-.168-0.692,2.1,2.1,0,0,1,.145-1.4,1.227,1.227,0,0,1,.914-0.573,2.255,2.255,0,0,1,.562-0.031,1.021,1.021,0,0,1,.4.126l0.356,2.288a1.329,1.329,0,0,1-.256.8,1.071,1.071,0,0,1-.7.359A1.038,1.038,0,0,1,90.436,46.172Z"/>
      </g>
      <g id="_2" data-name="2">
        <g>
          <circle class="cls-7" cx="47.719" cy="70.203" r="6.031"/>
          <path id="Forma_1-2" data-name="Forma 1" class="cls-8" d="M48.721,70.553l1.638-2.247a0.313,0.313,0,0,0-.505-0.369l-1.638,2.247L45.97,68.543a0.313,0.313,0,1,0-.368.505l2.246,1.641-1.639,2.247a0.313,0.313,0,1,0,.5.369l1.639-2.247L50.6,72.7a0.313,0.313,0,1,0,.368-0.505Z"/>
        </g>
        <path id="Rejected" class="cls-6" d="M61.01,72.439l0.76-.118-0.46-2.933h0.919l2.205,2.519,0.888-.138-1.995-2.315-0.493-.274a2.008,2.008,0,0,0,.945-0.792A1.823,1.823,0,0,0,64,67.093a1.846,1.846,0,0,0-.3-0.806,1.573,1.573,0,0,0-.549-0.483,1.875,1.875,0,0,0-.716-0.2,3.425,3.425,0,0,0-.816.032q-0.376.058-.823,0.166a8.1,8.1,0,0,0-.785.226Zm1.719-5.964a1.106,1.106,0,0,1,.468.771,1.168,1.168,0,0,1-.258,1.045,1.688,1.688,0,0,1-.994.477l-0.714.111-0.374-2.387a0.94,0.94,0,0,1,.165-0.054l0.221-.053q0.117-.028.246-0.048l0.247-.038A1.326,1.326,0,0,1,62.73,66.475Zm6.141,3.812a1.335,1.335,0,0,1-.426.332,1.865,1.865,0,0,1-.605.208,1.8,1.8,0,0,1-.7-0.01,1.127,1.127,0,0,1-.505-0.263,1.431,1.431,0,0,1-.34-0.492,2.894,2.894,0,0,1-.2-0.709l2.939-.457a4.682,4.682,0,0,0-.051-0.684,2.41,2.41,0,0,0-.3-0.915,1.41,1.41,0,0,0-.489-0.488,1.4,1.4,0,0,0-.6-0.177,2.886,2.886,0,0,0-.633.028,1.862,1.862,0,0,0-1.4.852,2.765,2.765,0,0,0-.239,1.885,3.912,3.912,0,0,0,.276.981,2.159,2.159,0,0,0,.486.706,1.635,1.635,0,0,0,.709.392,2.241,2.241,0,0,0,.933.03,2.992,2.992,0,0,0,.863-0.267,2.083,2.083,0,0,0,.636-0.459Zm-1-2.815a1.452,1.452,0,0,1,.42.944l-2.27.353a1.459,1.459,0,0,1,.235-1.041,1.274,1.274,0,0,1,.82-0.421A0.994,0.994,0,0,1,67.866,67.472ZM70.738,70.9q0.054,0.342.071,0.6a1.208,1.208,0,0,1-.039.437,0.539,0.539,0,0,1-.2.282,0.9,0.9,0,0,1-.4.142l0.1,0.629c0.05,0,.1,0,0.139-0.008s0.089-.009.138-0.017a1.065,1.065,0,0,0,.867-0.571,2.31,2.31,0,0,0,.091-1.332L70.75,66.185l-0.733.114Zm-0.9-5.651a0.5,0.5,0,0,0,.383.083,0.551,0.551,0,0,0,.354-0.2,0.456,0.456,0,0,0,.1-0.376,0.5,0.5,0,0,0-.213-0.341,0.524,0.524,0,0,0-.4-0.094,0.477,0.477,0,0,0-.338.209,0.524,0.524,0,0,0-.085.388A0.477,0.477,0,0,0,69.838,65.246Zm6.127,3.937a1.335,1.335,0,0,1-.426.332,1.866,1.866,0,0,1-.605.208,1.8,1.8,0,0,1-.7-0.01,1.126,1.126,0,0,1-.505-0.263,1.429,1.429,0,0,1-.34-0.492,2.9,2.9,0,0,1-.2-0.709l2.939-.457a4.7,4.7,0,0,0-.051-0.684,2.4,2.4,0,0,0-.3-0.915,1.409,1.409,0,0,0-.489-0.488,1.394,1.394,0,0,0-.6-0.177,2.885,2.885,0,0,0-.633.027,1.862,1.862,0,0,0-1.4.852,2.766,2.766,0,0,0-.239,1.885,3.914,3.914,0,0,0,.276.981,2.158,2.158,0,0,0,.486.706,1.637,1.637,0,0,0,.709.392,2.241,2.241,0,0,0,.933.03,2.994,2.994,0,0,0,.863-0.267,2.08,2.08,0,0,0,.636-0.459Zm-1-2.815a1.452,1.452,0,0,1,.42.944l-2.271.353a1.458,1.458,0,0,1,.235-1.041,1.273,1.273,0,0,1,.82-0.421A0.994,0.994,0,0,1,74.961,66.368Zm5.377,2.172a1.682,1.682,0,0,1-.389.3,1.632,1.632,0,0,1-.575.194,1.308,1.308,0,0,1-.669-0.047,1.221,1.221,0,0,1-.483-0.328,1.681,1.681,0,0,1-.317-0.529,3.228,3.228,0,0,1-.174-0.66q-0.279-1.776,1.022-1.979a2.128,2.128,0,0,1,.56-0.016,2.017,2.017,0,0,1,.5.117l0.11-.671a2.3,2.3,0,0,0-.585-0.113,3.48,3.48,0,0,0-.757.047,1.817,1.817,0,0,0-1.376.854,2.8,2.8,0,0,0-.231,1.879,4.414,4.414,0,0,0,.261.978,2.122,2.122,0,0,0,.459.715,1.556,1.556,0,0,0,.676.4,2.139,2.139,0,0,0,.924.032,2.908,2.908,0,0,0,.771-0.229,2.013,2.013,0,0,0,.6-0.411Zm0.153-3.209,0.714-.111,0.424,2.7a1.913,1.913,0,0,0,.4,1.033,0.915,0.915,0,0,0,.838.2,2.606,2.606,0,0,0,.62-0.172,2.823,2.823,0,0,0,.51-0.278l-0.253-.539q-0.188.115-.345,0.191a1.393,1.393,0,0,1-.395.114,0.437,0.437,0,0,1-.434-0.136,1.427,1.427,0,0,1-.226-0.662l-0.4-2.563,1.245-.194-0.1-.648-1.245.194L81.66,63.33l-0.7.327L81.1,64.573l-0.714.111Zm7.156,2.033a1.335,1.335,0,0,1-.426.332,1.866,1.866,0,0,1-.605.208,1.8,1.8,0,0,1-.7-0.01,1.127,1.127,0,0,1-.505-0.263,1.43,1.43,0,0,1-.34-0.492,2.892,2.892,0,0,1-.2-0.709l2.939-.457a4.7,4.7,0,0,0-.051-0.684,2.408,2.408,0,0,0-.3-0.915,1.411,1.411,0,0,0-.489-0.488,1.4,1.4,0,0,0-.6-0.177,2.886,2.886,0,0,0-.633.027,1.862,1.862,0,0,0-1.4.852,2.765,2.765,0,0,0-.239,1.885,3.912,3.912,0,0,0,.276.981,2.162,2.162,0,0,0,.486.706,1.636,1.636,0,0,0,.709.392,2.243,2.243,0,0,0,.933.03,3,3,0,0,0,.863-0.267,2.083,2.083,0,0,0,.636-0.459Zm-1-2.815a1.452,1.452,0,0,1,.42.944l-2.271.353a1.458,1.458,0,0,1,.235-1.041,1.274,1.274,0,0,1,.82-0.421A0.994,0.994,0,0,1,86.644,64.55ZM91.874,61l-0.732.114,0.3,1.925A2.768,2.768,0,0,0,91,62.986a3.086,3.086,0,0,0-.541.046,1.968,1.968,0,0,0-1.428.852,2.636,2.636,0,0,0-.272,1.886,3.053,3.053,0,0,0,.73,1.754,1.621,1.621,0,0,0,1.451.371,1.547,1.547,0,0,0,.782-0.34,1.5,1.5,0,0,0,.447-0.619l0.037-.006,0.286,0.628,0.494-.077a4.448,4.448,0,0,1-.2-0.741q-0.069-.382-0.143-0.854ZM90.39,67.18a1.045,1.045,0,0,1-.419-0.309,1.693,1.693,0,0,1-.284-0.524,3.939,3.939,0,0,1-.17-0.694,2.089,2.089,0,0,1,.146-1.4,1.24,1.24,0,0,1,.923-0.575,2.291,2.291,0,0,1,.567-0.031,1.036,1.036,0,0,1,.4.127l0.36,2.294a1.328,1.328,0,0,1-.259.8,1.084,1.084,0,0,1-.7.361A1.056,1.056,0,0,1,90.39,67.18Z"/>
      </g>
      <g id="_3" data-name="3">
        <g>
          <circle class="cls-9" cx="50.953" cy="90.953" r="6.016"/>
          <path id="Forma_1-3" data-name="Forma 1" class="cls-8" d="M54.9,91.4l-3.8-4.235a0.519,0.519,0,0,0-.464-0.159,0.492,0.492,0,0,0-.389.282l-2.218,5.1a0.406,0.406,0,0,0,.075.442,0.519,0.519,0,0,0,.464.159l6.014-.868a0.491,0.491,0,0,0,.389-0.282A0.405,0.405,0,0,0,54.9,91.4Zm-0.312.309a0.08,0.08,0,0,1-.065.047l-6.014.868a0.084,0.084,0,0,1-.077-0.027,0.066,0.066,0,0,1-.013-0.074l2.218-5.1a0.081,0.081,0,0,1,.065-0.047,0.085,0.085,0,0,1,.078.027l3.8,4.235A0.066,0.066,0,0,1,54.591,91.709Zm-3.87-3,0.411-.059,0.332,1.964-0.411.059Zm0.6,2.3a0.272,0.272,0,0,1,.315.206,0.256,0.256,0,0,1-.232.285,0.272,0.272,0,0,1-.315-0.206A0.256,0.256,0,0,1,51.32,91.012Z"/>
        </g>
        <path id="Expired" class="cls-6" d="M63.989,92.641l3.493-.538-0.106-.669-2.742.422L64.277,89.6l2.47-.38-0.106-.669-2.47.38-0.328-2.071,2.7-.415-0.106-.669-3.447.531Zm4.334-.667,0.805-.124,0.759-1.525,0.194-.586,0.358,0.5,1.177,1.227,0.86-.132-1.992-2.1,1.185-2.406-0.814.125-0.68,1.383-0.181.556-0.335-.477L68.6,87.3l-0.887.136,1.87,1.973ZM73.713,93l0.724-.111L74.139,91a2.168,2.168,0,0,0,.443.075,2.734,2.734,0,0,0,.536-0.041,2.091,2.091,0,0,0,.828-0.3,1.852,1.852,0,0,0,.579-0.589,2.258,2.258,0,0,0,.3-0.838,3.332,3.332,0,0,0-.013-1.05,2.778,2.778,0,0,0-.72-1.677,1.679,1.679,0,0,0-1.433-.326,1.662,1.662,0,0,0-.729.284,1.391,1.391,0,0,0-.462.567l-0.036.006-0.222-.522-0.5.077Zm1.473-6.055a1,1,0,0,1,.414.274,1.505,1.505,0,0,1,.285.484,3.363,3.363,0,0,1,.17.664,2.2,2.2,0,0,1-.149,1.427,1.2,1.2,0,0,1-.917.618,1.852,1.852,0,0,1-.563.017,1.228,1.228,0,0,1-.4-0.137L73.67,88.047a1.349,1.349,0,0,1,.26-0.786,1.058,1.058,0,0,1,.69-0.352A1.176,1.176,0,0,1,75.186,86.942Zm3.289,3.469L79.2,90.3l-0.717-4.523-0.724.111Zm-0.894-5.552a0.5,0.5,0,0,0,.379.081,0.546,0.546,0,0,0,.35-0.193,0.442,0.442,0,0,0,.1-0.367,0.488,0.488,0,0,0-.21-0.334,0.522,0.522,0,0,0-.395-0.092,0.472,0.472,0,0,0-.334.2,0.507,0.507,0,0,0-.084.379A0.465,0.465,0,0,0,77.581,84.859Zm4.737,0.327a2.258,2.258,0,0,0-.6,0,1.051,1.051,0,0,0-.584.261,1.4,1.4,0,0,0-.336.538l-0.036.006-0.223-.531-0.507.078,0.717,4.523,0.724-.112-0.5-3.166a0.932,0.932,0,0,1,.2-0.581,0.869,0.869,0,0,1,.582-0.307,1.657,1.657,0,0,1,.53.011Zm4.395,3.048a1.315,1.315,0,0,1-.421.324,1.856,1.856,0,0,1-.6.2A1.8,1.8,0,0,1,85,88.753a1.117,1.117,0,0,1-.5-0.257,1.4,1.4,0,0,1-.336-0.481,2.8,2.8,0,0,1-.193-0.693l2.9-.447a4.55,4.55,0,0,0-.05-0.669,2.336,2.336,0,0,0-.3-0.894,1.323,1.323,0,0,0-1.076-.65,2.887,2.887,0,0,0-.626.027,1.843,1.843,0,0,0-1.379.833,2.677,2.677,0,0,0-.236,1.843,3.792,3.792,0,0,0,.272.959,2.112,2.112,0,0,0,.48.691,1.624,1.624,0,0,0,.7.383,2.241,2.241,0,0,0,.922.029,2.983,2.983,0,0,0,.853-0.261,2.058,2.058,0,0,0,.629-0.449Zm-0.992-2.752a1.413,1.413,0,0,1,.415.923l-2.244.345a1.414,1.414,0,0,1,.233-1.018,1.264,1.264,0,0,1,.811-0.412A0.991,0.991,0,0,1,85.721,85.483Zm5.169-3.469-0.724.111,0.3,1.881a2.763,2.763,0,0,0-.439-0.053A3.073,3.073,0,0,0,89.49,84a1.948,1.948,0,0,0-1.411.833,2.553,2.553,0,0,0-.269,1.843,2.968,2.968,0,0,0,.721,1.714,1.614,1.614,0,0,0,1.434.363,1.537,1.537,0,0,0,.772-0.332,1.466,1.466,0,0,0,.442-0.605l0.036-.005L91.5,88.425l0.489-.075a4.315,4.315,0,0,1-.2-0.725q-0.069-.374-0.142-0.835Zm-1.467,6.04a1.031,1.031,0,0,1-.414-0.3,1.649,1.649,0,0,1-.281-0.513,3.809,3.809,0,0,1-.168-0.678,2.022,2.022,0,0,1,.144-1.37,1.227,1.227,0,0,1,.912-0.562,2.291,2.291,0,0,1,.56-0.031,1.032,1.032,0,0,1,.4.124l0.356,2.243a1.289,1.289,0,0,1-.256.785,1.075,1.075,0,0,1-.695.353A1.055,1.055,0,0,1,89.423,88.054Z"/>
      </g>
    </g>
    <g>
      <g id="_1-3" data-name="1">
        <rect id="Rounded_Rectangle_683" data-name="Rounded Rectangle 683" class="cls-10" x="106" y="41" width="49" height="16" rx="2" ry="2"/>
        <path id="Forma_1-4" data-name="Forma 1" class="cls-11" d="M115.022,44a2.883,2.883,0,0,0,0,5.755A2.887,2.887,0,0,0,115.022,44Zm2.944,5.755a3.853,3.853,0,0,1-2.944,1.415,3.944,3.944,0,0,1-2.988-1.415A4.372,4.372,0,0,0,111,52.585v0.708a0.686,0.686,0,0,0,.663.708h6.675A0.686,0.686,0,0,0,119,53.292V52.585A4.373,4.373,0,0,0,117.966,49.755Z"/>
        <path id="Rounded_Rectangle_685" data-name="Rounded Rectangle 685" class="cls-12" d="M123,46h26a1,1,0,0,1,0,2H123A1,1,0,0,1,123,46Zm0,4h19a1,1,0,0,1,0,2H123A1,1,0,0,1,123,50Z"/>
      </g>
      <g id="_2-2" data-name="2">
        <rect id="Rounded_Rectangle_683-2" data-name="Rounded Rectangle 683" class="cls-10" x="116" y="64" width="46" height="16" rx="2" ry="2"/>
        <path id="Forma_1-5" data-name="Forma 1" class="cls-13" d="M125.022,67a2.883,2.883,0,0,0,0,5.755A2.887,2.887,0,0,0,125.022,67Zm2.944,5.755a3.853,3.853,0,0,1-2.944,1.415,3.944,3.944,0,0,1-2.988-1.415A4.372,4.372,0,0,0,121,75.585v0.707a0.686,0.686,0,0,0,.663.708h6.675A0.686,0.686,0,0,0,129,76.292V75.585A4.373,4.373,0,0,0,127.966,72.755Z"/>
        <path id="Rounded_Rectangle_685-2" data-name="Rounded Rectangle 685" class="cls-14" d="M133,69h23a1,1,0,0,1,0,2H133A1,1,0,0,1,133,69Zm0,4h16a1,1,0,0,1,0,2H133A1,1,0,0,1,133,73Z"/>
      </g>
    </g>
  </g>
</svg>
