<svg id="icon" xmlns="http://www.w3.org/2000/svg" width="215" height="146" viewBox="0 0 215 146">
  <defs>
    <style>
      .cls-1 {
        fill: #eef3fe;
      }

      .cls-1, .cls-3, .cls-5, .cls-7, .cls-8, .cls-9 {
        fill-rule: evenodd;
      }

      .cls-2, .cls-5 {
        fill: #fff;
      }

      .cls-2 {
        stroke: #e3e3e3;
        stroke-linejoin: round;
        stroke-width: 1px;
      }

      .cls-3 {
        fill: #2c3032;
      }

      .cls-4 {
        fill: #8388e4;
      }

      .cls-6 {
        fill: #69a4e0;
      }

      .cls-7 {
        fill: #343439;
      }

      .cls-9 {
        fill: #565657;
      }

      .cls-10 {
        fill: #5387ff;
        opacity: 0.5;
      }
    </style>
  </defs>
  <path class="cls-1" d="M51,73.019c0.518-12.348,3.106-22.638,28.987-30.87s33.752-11.862,46.693-19.58c10.426-6.394,42.473-5.832,57.974,15.435,10.784,14.8,10.007,34.037-2.07,47.334-10.26,11.3-31.5,20.432-52.8,24.7-21.691,4.344-37.892,1.057-53.939-5.117S50.655,87.768,51,73.019Z"/>
  <g id="_2-graphic" data-name="2-graphic">
    <g id="Bar">
      <rect id="Rounded_Rectangle_593" data-name="Rounded Rectangle 593" class="cls-2" x="21" y="29" width="151" height="57" rx="5" ry="5"/>
      <g id="_1" data-name="1">
        <path id="Angel" class="cls-3" d="M62.312,73.159H63.1L60.714,67H60.373L58,73.159H58.74l0.625-1.68h2.3Zm-2.018-4.131,0.223-.935h0.009l0.223,0.918,0.7,1.845H59.606Zm7.169,4.131V70.544a3.5,3.5,0,0,0-.094-0.888A1.364,1.364,0,0,0,67.09,69.1a0.973,0.973,0,0,0-.462-0.29,2.288,2.288,0,0,0-.646-0.082,1.955,1.955,0,0,0-.866.178,1.615,1.615,0,0,0-.579.455H64.5l-0.135-.528h-0.5v4.33h0.718V70.2a1.313,1.313,0,0,1,.435-0.619,1.22,1.22,0,0,1,.785-0.247,0.786,0.786,0,0,1,.74.342,2.041,2.041,0,0,1,.2,1.018v2.468h0.718Zm4.747-4.148a5.008,5.008,0,0,0-.651-0.182,4.23,4.23,0,0,0-.875-0.078,2.125,2.125,0,0,0-1.615.576,2.356,2.356,0,0,0-.547,1.685,2.75,2.75,0,0,0,.426,1.7,1.586,1.586,0,0,0,1.333.546,1.683,1.683,0,0,0,.727-0.134,1.19,1.19,0,0,0,.458-0.385H71.5v0.416a2.605,2.605,0,0,1-.054.567,0.816,0.816,0,0,1-.2.39,0.805,0.805,0,0,1-.381.216,2.4,2.4,0,0,1-.615.065A2.533,2.533,0,0,1,69.6,74.32q-0.251-.069-0.458-0.147l-0.189.589a2.652,2.652,0,0,0,.561.169,4.625,4.625,0,0,0,.866.065,2.046,2.046,0,0,0,1.368-.4,1.549,1.549,0,0,0,.462-1.239V69.011Zm-2.333,3.516a0.963,0.963,0,0,1-.35-0.338,1.585,1.585,0,0,1-.2-0.52A3.29,3.29,0,0,1,69.266,71a1.857,1.857,0,0,1,.35-1.247,1.212,1.212,0,0,1,.96-0.4,2.206,2.206,0,0,1,.915.165v2.217a1.236,1.236,0,0,1-.368.688,1.075,1.075,0,0,1-.718.221A1.063,1.063,0,0,1,69.876,72.527Zm6.721-.216a1.31,1.31,0,0,1-.458.242,1.882,1.882,0,0,1-.61.1,1.819,1.819,0,0,1-.669-0.108,1.087,1.087,0,0,1-.444-0.312,1.3,1.3,0,0,1-.251-0.5,2.559,2.559,0,0,1-.081-0.676h2.88a4.143,4.143,0,0,0,.054-0.632,2.134,2.134,0,0,0-.153-0.879,1.309,1.309,0,0,0-.395-0.515,1.38,1.38,0,0,0-.547-0.247,2.925,2.925,0,0,0-.61-0.065,1.847,1.847,0,0,0-1.463.58,2.48,2.48,0,0,0-.511,1.689,3.461,3.461,0,0,0,.117.935,1.959,1.959,0,0,0,.359.715,1.574,1.574,0,0,0,.619.459,2.261,2.261,0,0,0,.888.16,3.028,3.028,0,0,0,.866-0.121,2.053,2.053,0,0,0,.677-0.329ZM76.059,69.6a1.3,1.3,0,0,1,.26.922H74.094a1.32,1.32,0,0,1,.381-0.918,1.273,1.273,0,0,1,.848-0.268A0.987,0.987,0,0,1,76.059,69.6Zm2.889-2.5H78.231v5.2a0.936,0.936,0,0,0,.26.749,0.99,0.99,0,0,0,.664.221A2.718,2.718,0,0,0,79.6,73.22a1.539,1.539,0,0,0,.4-0.113l-0.081-.546a1.488,1.488,0,0,1-.305.078,1.95,1.95,0,0,1-.251.017,0.374,0.374,0,0,1-.305-0.13,0.682,0.682,0,0,1-.108-0.433v-5Z"/>
        <rect id="Rounded_Rectangle_679" data-name="Rounded Rectangle 679" class="cls-4" x="92" y="65" width="62" height="14" rx="1" ry="1"/>
        <path id="W0-0484648" class="cls-5" d="M98.784,69.108H98L99.787,76H100.2l1.272-4.535,0.161-1.037h0.045l0.161,1.027L103.11,76h0.412l1.747-6.89h-0.717l-1.058,4.526-0.165,1.144H103.32l-0.156-1.124-1.3-4.545h-0.358l-1.29,4.526-0.152,1.144h-0.009l-0.144-1.124Zm7.434,5.979a1.646,1.646,0,0,0,1.559.921,1.683,1.683,0,0,0,1.536-.882,5.244,5.244,0,0,0,.524-2.626,5.558,5.558,0,0,0-.488-2.641,1.81,1.81,0,0,0-3.1.015,5.232,5.232,0,0,0-.525,2.626A5.566,5.566,0,0,0,106.218,75.088Zm0.569-4.729a1.042,1.042,0,0,1,.99-0.688,0.948,0.948,0,0,1,.618.2,1.435,1.435,0,0,1,.407.581,3.524,3.524,0,0,1,.224.9,8.975,8.975,0,0,1,.067,1.144,5.393,5.393,0,0,1-.318,2.146,1.047,1.047,0,0,1-1,.683,0.879,0.879,0,0,1-.587-0.208,1.558,1.558,0,0,1-.408-0.582,3.589,3.589,0,0,1-.237-0.891,7.906,7.906,0,0,1-.076-1.148A5.4,5.4,0,0,1,106.787,70.359Zm3.964,3.1h2.167V72.743h-2.167V73.46Zm3.573,1.628a1.647,1.647,0,0,0,1.559.921,1.682,1.682,0,0,0,1.536-.882,5.244,5.244,0,0,0,.524-2.626,5.558,5.558,0,0,0-.488-2.641,1.81,1.81,0,0,0-3.1.015,5.233,5.233,0,0,0-.524,2.626A5.567,5.567,0,0,0,114.324,75.088Zm0.569-4.729a1.042,1.042,0,0,1,.99-0.688,0.948,0.948,0,0,1,.618.2,1.446,1.446,0,0,1,.408.581,3.526,3.526,0,0,1,.223.9A8.966,8.966,0,0,1,117.2,72.5a5.393,5.393,0,0,1-.318,2.146,1.048,1.048,0,0,1-1,.683,0.879,0.879,0,0,1-.587-0.208,1.546,1.546,0,0,1-.407-0.582,3.544,3.544,0,0,1-.238-0.891,8.05,8.05,0,0,1-.076-1.148A5.4,5.4,0,0,1,114.893,70.359Zm8.129,2.772h-1.057V69h-0.484l-2.974,4.487v0.32h2.759v2.084h0.7V73.809h1.057V73.13Zm-1.756,0H119.95l-0.627.078,0.429-.475,1.263-1.851,0.314-.659h0.027l-0.09.795V73.13Zm2.67,1.827a1.521,1.521,0,0,0,.344.548,1.655,1.655,0,0,0,.56.368,2,2,0,0,0,.762.136,2.127,2.127,0,0,0,.8-0.141,1.7,1.7,0,0,0,.591-0.388,1.626,1.626,0,0,0,.367-0.591,2.2,2.2,0,0,0,.126-0.761,1.889,1.889,0,0,0-.09-0.606,1.762,1.762,0,0,0-.246-0.48,2.179,2.179,0,0,0-.368-0.388,4.065,4.065,0,0,0-.443-0.32,2.755,2.755,0,0,0,.77-0.829,1.973,1.973,0,0,0,.233-0.974,1.618,1.618,0,0,0-.116-0.62,1.433,1.433,0,0,0-.327-0.484,1.5,1.5,0,0,0-.515-0.32,1.9,1.9,0,0,0-.681-0.116,1.945,1.945,0,0,0-.721.126,1.63,1.63,0,0,0-.546.349,1.491,1.491,0,0,0-.35.533,1.893,1.893,0,0,0-.121.688,1.807,1.807,0,0,0,.086.581,1.68,1.68,0,0,0,.232.456,1.989,1.989,0,0,0,.341.363,4.387,4.387,0,0,0,.416.305,2.718,2.718,0,0,0-.922.819,1.891,1.891,0,0,0-.3,1.061A1.946,1.946,0,0,0,123.936,74.957Zm2.754-.271a1.007,1.007,0,0,1-.251.358,1.058,1.058,0,0,1-.363.213,1.277,1.277,0,0,1-.43.073,1.207,1.207,0,0,1-.488-0.092,1.052,1.052,0,0,1-.354-0.247,1.017,1.017,0,0,1-.215-0.368,1.41,1.41,0,0,1-.071-0.446,1.56,1.56,0,0,1,.233-0.775,2.136,2.136,0,0,1,.779-0.736q0.242,0.136.466,0.281a2.3,2.3,0,0,1,.4.325,1.52,1.52,0,0,1,.282.4,1.133,1.133,0,0,1,.108.509A1.271,1.271,0,0,1,126.69,74.686Zm-1.962-4.39a0.882,0.882,0,0,1,.2-0.315,1.1,1.1,0,0,1,.322-0.223,1.013,1.013,0,0,1,.43-0.087,0.949,0.949,0,0,1,.676.266,0.994,0.994,0,0,1,.283.761,1.418,1.418,0,0,1-.193.727,2.649,2.649,0,0,1-.6.669q-0.233-.126-0.447-0.266a2.343,2.343,0,0,1-.381-0.305,1.29,1.29,0,0,1-.264-0.373,1.1,1.1,0,0,1-.1-0.48A1.05,1.05,0,0,1,124.728,70.3Zm8.057,2.835h-1.057V69h-0.483l-2.974,4.487v0.32h2.759v2.084h0.7V73.809h1.057V73.13Zm-1.755,0h-1.317l-0.627.078,0.43-.475,1.263-1.851,0.313-.659h0.027l-0.089.795V73.13Zm5.871-.746a1.7,1.7,0,0,0-1.321-.523,1.515,1.515,0,0,0-.833.218,1.385,1.385,0,0,0-.484.48,4.351,4.351,0,0,1,.269-1.017,3.627,3.627,0,0,1,.506-0.892,2.992,2.992,0,0,1,.721-0.669,2.512,2.512,0,0,1,.914-0.368l-0.152-.62a2.869,2.869,0,0,0-1.2.47,3.534,3.534,0,0,0-.954.974,4.919,4.919,0,0,0-.632,1.41,6.5,6.5,0,0,0-.228,1.768,3.443,3.443,0,0,0,.139,1.027,2.1,2.1,0,0,0,.4.751,1.674,1.674,0,0,0,.618.46,2.015,2.015,0,0,0,.807.155,1.887,1.887,0,0,0,.815-0.17,1.711,1.711,0,0,0,.6-0.465,2.079,2.079,0,0,0,.367-0.688,2.726,2.726,0,0,0,.125-0.838A2.085,2.085,0,0,0,136.9,72.384Zm-0.349,2.1a1.356,1.356,0,0,1-.237.446,1.135,1.135,0,0,1-.363.291,1.027,1.027,0,0,1-.471.107,1.077,1.077,0,0,1-.559-0.14,1.284,1.284,0,0,1-.4-0.368,1.574,1.574,0,0,1-.237-0.518,2.313,2.313,0,0,1-.076-0.591V73.518a1.735,1.735,0,0,1,.017-0.223,1.3,1.3,0,0,1,.444-0.523,1.247,1.247,0,0,1,.757-0.233,1.13,1.13,0,0,1,.913.349,1.57,1.57,0,0,1,.3,1.037A1.8,1.8,0,0,1,136.552,74.487Zm6-1.357h-1.057V69h-0.484l-2.974,4.487v0.32h2.759v2.084h0.7V73.809h1.057V73.13Zm-1.756,0h-1.317l-0.627.078,0.43-.475,1.263-1.851,0.314-.659h0.027l-0.09.795V73.13Zm2.669,1.827a1.537,1.537,0,0,0,.345.548,1.655,1.655,0,0,0,.56.368,2,2,0,0,0,.761.136,2.129,2.129,0,0,0,.8-0.141,1.7,1.7,0,0,0,.591-0.388,1.639,1.639,0,0,0,.367-0.591,2.2,2.2,0,0,0,.126-0.761,1.889,1.889,0,0,0-.09-0.606,1.762,1.762,0,0,0-.246-0.48,2.179,2.179,0,0,0-.368-0.388,4.065,4.065,0,0,0-.443-0.32,2.755,2.755,0,0,0,.77-0.829,1.973,1.973,0,0,0,.233-0.974,1.618,1.618,0,0,0-.116-0.62,1.433,1.433,0,0,0-.327-0.484,1.505,1.505,0,0,0-.515-0.32,1.9,1.9,0,0,0-.681-0.116,1.945,1.945,0,0,0-.721.126,1.63,1.63,0,0,0-.546.349,1.491,1.491,0,0,0-.35.533,1.893,1.893,0,0,0-.121.688,1.836,1.836,0,0,0,.085.581,1.712,1.712,0,0,0,.233.456,1.989,1.989,0,0,0,.341.363,4.387,4.387,0,0,0,.416.305,2.718,2.718,0,0,0-.922.819,1.891,1.891,0,0,0-.3,1.061A1.969,1.969,0,0,0,143.462,74.957Zm2.755-.271a1.019,1.019,0,0,1-.251.358,1.068,1.068,0,0,1-.363.213,1.282,1.282,0,0,1-.43.073,1.207,1.207,0,0,1-.488-0.092,1.052,1.052,0,0,1-.354-0.247,1.017,1.017,0,0,1-.215-0.368,1.382,1.382,0,0,1-.071-0.446,1.56,1.56,0,0,1,.233-0.775,2.136,2.136,0,0,1,.779-0.736q0.242,0.136.466,0.281a2.3,2.3,0,0,1,.4.325,1.52,1.52,0,0,1,.282.4,1.133,1.133,0,0,1,.108.509A1.271,1.271,0,0,1,146.217,74.686Zm-1.962-4.39a0.882,0.882,0,0,1,.2-0.315,1.1,1.1,0,0,1,.322-0.223,1.013,1.013,0,0,1,.43-0.087,0.949,0.949,0,0,1,.676.266,1,1,0,0,1,.283.761,1.418,1.418,0,0,1-.193.727,2.669,2.669,0,0,1-.6.669q-0.232-.126-0.448-0.266a2.378,2.378,0,0,1-.38-0.305,1.29,1.29,0,0,1-.264-0.373,1.1,1.1,0,0,1-.1-0.48A1.05,1.05,0,0,1,144.255,70.3Z"/>
      </g>
      <g id="_2" data-name="2">
        <rect id="Rounded_Rectangle_593_copy" data-name="Rounded Rectangle 593 copy" class="cls-2" x="61" y="91" width="133" height="36" rx="5" ry="5"/>
        <g>
          <rect id="Rounded_Rectangle_679_copy" data-name="Rounded Rectangle 679 copy" class="cls-6" x="126" y="102" width="57" height="14" rx="1" ry="1"/>
          <path id="W0-080458" class="cls-5" d="M132.8,106.1H132l1.827,6.89h0.42l1.3-4.535,0.165-1.037h0.045l0.165,1.027,1.3,4.545h0.42l1.78-6.89h-0.73L137.6,110.63l-0.168,1.143h-0.01l-0.159-1.124L135.94,106.1h-0.365l-1.315,4.526-0.155,1.143H134.1l-0.146-1.124Zm7.579,5.979a1.683,1.683,0,0,0,1.589.921,1.721,1.721,0,0,0,1.566-.882,5.157,5.157,0,0,0,.534-2.626,5.47,5.47,0,0,0-.5-2.641,1.865,1.865,0,0,0-3.16.014,5.161,5.161,0,0,0-.534,2.627A5.468,5.468,0,0,0,140.378,112.083Zm0.58-4.729a1.061,1.061,0,0,1,1.009-.688,0.982,0.982,0,0,1,.63.2,1.454,1.454,0,0,1,.416.582,3.514,3.514,0,0,1,.228.9,8.79,8.79,0,0,1,.068,1.144,5.3,5.3,0,0,1-.324,2.146,1.066,1.066,0,0,1-1.018.683,0.906,0.906,0,0,1-.6-0.208,1.555,1.555,0,0,1-.416-0.581,3.542,3.542,0,0,1-.242-0.892,7.887,7.887,0,0,1-.077-1.148A5.31,5.31,0,0,1,140.958,107.354Zm4.041,3.1h2.21v-0.717H145v0.717Zm3.643,1.628a1.683,1.683,0,0,0,1.589.921,1.721,1.721,0,0,0,1.566-.882,5.157,5.157,0,0,0,.534-2.626,5.47,5.47,0,0,0-.5-2.641,1.865,1.865,0,0,0-3.16.014,5.161,5.161,0,0,0-.534,2.627A5.468,5.468,0,0,0,148.642,112.083Zm0.58-4.729a1.061,1.061,0,0,1,1.009-.688,0.984,0.984,0,0,1,.63.2,1.454,1.454,0,0,1,.416.582,3.514,3.514,0,0,1,.228.9,8.969,8.969,0,0,1,.068,1.144,5.3,5.3,0,0,1-.324,2.146,1.066,1.066,0,0,1-1.018.683,0.906,0.906,0,0,1-.6-0.208,1.555,1.555,0,0,1-.416-0.581,3.542,3.542,0,0,1-.242-0.892,7.887,7.887,0,0,1-.077-1.148A5.31,5.31,0,0,1,149.222,107.354Zm4.242,4.6a1.525,1.525,0,0,0,.351.548,1.678,1.678,0,0,0,.571.368,2.059,2.059,0,0,0,.776.136,2.2,2.2,0,0,0,.813-0.141,1.739,1.739,0,0,0,.6-0.387,1.636,1.636,0,0,0,.375-0.591,2.178,2.178,0,0,0,.128-0.761,1.864,1.864,0,0,0-.092-0.606,1.727,1.727,0,0,0-.251-0.48,2.169,2.169,0,0,0-.374-0.387,4.1,4.1,0,0,0-.452-0.32,2.772,2.772,0,0,0,.785-0.829,1.952,1.952,0,0,0,.238-0.974,1.582,1.582,0,0,0-.119-0.62,1.429,1.429,0,0,0-.333-0.484,1.534,1.534,0,0,0-.526-0.32,1.954,1.954,0,0,0-.694-0.116,2.019,2.019,0,0,0-.735.126,1.686,1.686,0,0,0-.557.348,1.5,1.5,0,0,0-.356.533,1.857,1.857,0,0,0-.123.689,1.779,1.779,0,0,0,.087.581,1.653,1.653,0,0,0,.237.455,2.028,2.028,0,0,0,.347.364,4.532,4.532,0,0,0,.425.3,2.771,2.771,0,0,0-.941.819,1.861,1.861,0,0,0-.3,1.061A1.9,1.9,0,0,0,153.464,111.952Zm2.808-.271a1.027,1.027,0,0,1-.256.359,1.123,1.123,0,0,1-.37.213,1.341,1.341,0,0,1-.438.072,1.243,1.243,0,0,1-.5-0.092,1.058,1.058,0,0,1-.361-0.247,1.01,1.01,0,0,1-.219-0.368,1.359,1.359,0,0,1-.073-0.446,1.538,1.538,0,0,1,.238-0.775,2.166,2.166,0,0,1,.794-0.737c0.164,0.091.323,0.185,0.475,0.281a2.392,2.392,0,0,1,.406.325,1.554,1.554,0,0,1,.288.4,1.122,1.122,0,0,1,.109.509A1.27,1.27,0,0,1,156.272,111.681Zm-2-4.39a0.885,0.885,0,0,1,.205-0.315,1.123,1.123,0,0,1,.329-0.223,1.051,1.051,0,0,1,.438-0.087,0.95,0.95,0,0,1,.977,1.027,1.393,1.393,0,0,1-.2.727,2.671,2.671,0,0,1-.607.669q-0.239-.126-0.457-0.267a2.41,2.41,0,0,1-.388-0.305,1.309,1.309,0,0,1-.269-0.373,1.093,1.093,0,0,1-.1-0.48A1.032,1.032,0,0,1,154.272,107.291Zm4.323,4.792a1.684,1.684,0,0,0,1.589.921,1.721,1.721,0,0,0,1.566-.882,5.146,5.146,0,0,0,.535-2.626,5.457,5.457,0,0,0-.5-2.641,1.865,1.865,0,0,0-3.16.014,5.161,5.161,0,0,0-.534,2.627A5.48,5.48,0,0,0,158.6,112.083Zm0.58-4.729a1.062,1.062,0,0,1,1.009-.688,0.982,0.982,0,0,1,.63.2,1.445,1.445,0,0,1,.416.582,3.473,3.473,0,0,1,.228.9,8.781,8.781,0,0,1,.069,1.144,5.3,5.3,0,0,1-.324,2.146,1.069,1.069,0,0,1-1.019.683,0.907,0.907,0,0,1-.6-0.208,1.553,1.553,0,0,1-.415-0.581,3.46,3.46,0,0,1-.242-0.892,7.741,7.741,0,0,1-.078-1.148A5.31,5.31,0,0,1,159.175,107.354Zm8.287,2.772h-1.077V106h-0.493l-3.032,4.487v0.32h2.812v2.084h0.713V110.8h1.077v-0.678Zm-1.79,0H164.33l-0.639.077,0.438-.475,1.288-1.851,0.319-.659h0.028l-0.092.8v2.113ZM169,112.282a2.2,2.2,0,0,1-.452-0.131l-0.192.659a2.643,2.643,0,0,0,.53.145,4.114,4.114,0,0,0,.694.049,2.5,2.5,0,0,0,.858-0.146,1.964,1.964,0,0,0,.7-0.426,2.014,2.014,0,0,0,.47-0.7,2.507,2.507,0,0,0,.174-0.964,2.04,2.04,0,0,0-.521-1.5,1.953,1.953,0,0,0-1.425-.533l-0.392.02v-1.929h2.164V106.1h-2.849v3.353l0.767-.049a1.666,1.666,0,0,1,1.119.349,1.321,1.321,0,0,1,.406,1.057,1.377,1.377,0,0,1-1.452,1.511A3.462,3.462,0,0,1,169,112.282Zm4.369-.33a1.527,1.527,0,0,0,.352.548,1.669,1.669,0,0,0,.571.368,2.059,2.059,0,0,0,.776.136,2.2,2.2,0,0,0,.813-0.141,1.739,1.739,0,0,0,.6-0.387,1.636,1.636,0,0,0,.375-0.591,2.178,2.178,0,0,0,.128-0.761,1.864,1.864,0,0,0-.092-0.606,1.727,1.727,0,0,0-.251-0.48,2.169,2.169,0,0,0-.374-0.387,4.1,4.1,0,0,0-.452-0.32,2.772,2.772,0,0,0,.785-0.829,1.952,1.952,0,0,0,.237-0.974,1.582,1.582,0,0,0-.118-0.62,1.417,1.417,0,0,0-.334-0.484,1.52,1.52,0,0,0-.525-0.32,1.954,1.954,0,0,0-.694-0.116,2.016,2.016,0,0,0-.735.126,1.676,1.676,0,0,0-.557.348,1.5,1.5,0,0,0-.356.533,1.857,1.857,0,0,0-.123.689,1.779,1.779,0,0,0,.087.581,1.653,1.653,0,0,0,.237.455,1.994,1.994,0,0,0,.347.364,4.532,4.532,0,0,0,.425.3,2.761,2.761,0,0,0-.941.819,1.861,1.861,0,0,0-.3,1.061A1.922,1.922,0,0,0,173.37,111.952Zm2.808-.271a1.025,1.025,0,0,1-.255.359,1.123,1.123,0,0,1-.37.213,1.341,1.341,0,0,1-.438.072,1.243,1.243,0,0,1-.5-0.092,1.049,1.049,0,0,1-.361-0.247,1.01,1.01,0,0,1-.219-0.368,1.359,1.359,0,0,1-.073-0.446,1.546,1.546,0,0,1,.237-0.775,2.169,2.169,0,0,1,.8-0.737q0.246,0.137.475,0.281a2.392,2.392,0,0,1,.406.325,1.554,1.554,0,0,1,.288.4,1.122,1.122,0,0,1,.109.509A1.253,1.253,0,0,1,176.178,111.681Zm-2-4.39a0.885,0.885,0,0,1,.2-0.315,1.123,1.123,0,0,1,.329-0.223,1.051,1.051,0,0,1,.438-0.087,0.95,0.95,0,0,1,.977,1.027,1.393,1.393,0,0,1-.2.727,2.671,2.671,0,0,1-.607.669q-0.238-.126-0.457-0.267a2.367,2.367,0,0,1-.388-0.305,1.29,1.29,0,0,1-.269-0.373,1.079,1.079,0,0,1-.1-0.48A1.032,1.032,0,0,1,174.179,107.291Z"/>
          <path id="John" class="cls-7" d="M102.085,110.033a1.332,1.332,0,0,1-.314.927,1.046,1.046,0,0,1-.812.348,1.094,1.094,0,0,1-.816-0.291,1.222,1.222,0,0,1-.287-0.891H98.994l-0.009.026a1.653,1.653,0,0,0,.518,1.366,2.144,2.144,0,0,0,1.457.47,2.045,2.045,0,0,0,1.462-.53,1.864,1.864,0,0,0,.563-1.425v-4.564h-0.9v4.564Zm2.1-.472a2.555,2.555,0,0,0,.595,1.745,2.255,2.255,0,0,0,3.23,0,2.561,2.561,0,0,0,.593-1.747v-0.1a2.563,2.563,0,0,0-.595-1.747,2.038,2.038,0,0,0-1.621-.684,2.016,2.016,0,0,0-1.61.686,2.573,2.573,0,0,0-.592,1.745v0.1Zm0.9-.1a2.219,2.219,0,0,1,.33-1.249,1.1,1.1,0,0,1,.974-0.5,1.11,1.11,0,0,1,.983.5,2.2,2.2,0,0,1,.335,1.249v0.1a2.195,2.195,0,0,1-.333,1.253,1.218,1.218,0,0,1-1.959,0,2.21,2.21,0,0,1-.33-1.253v-0.1Zm5.517-4.453h-0.9V111.9h0.9v-3.579a1.263,1.263,0,0,1,.479-0.426,1.515,1.515,0,0,1,.7-0.152,1.018,1.018,0,0,1,.782.282,1.256,1.256,0,0,1,.262.874v3h0.9V108.9a1.976,1.976,0,0,0-.44-1.412,1.621,1.621,0,0,0-1.229-.459,1.767,1.767,0,0,0-.823.192,1.793,1.793,0,0,0-.627.536v-2.75Zm4.41,2.11V111.9h0.9v-3.544a1.184,1.184,0,0,1,.458-0.452,1.435,1.435,0,0,1,.7-0.161,1.051,1.051,0,0,1,.786.265,1.261,1.261,0,0,1,.258.9v3h0.9v-3.014a1.944,1.944,0,0,0-.438-1.4,1.635,1.635,0,0,0-1.235-.452,1.7,1.7,0,0,0-.846.209,1.764,1.764,0,0,0-.618.589l-0.064-.71h-0.8Z"/>
        </g>
      </g>
    </g>
    <path id="My_Team_s_Work" data-name="My Team’s Work" class="cls-8" d="M37.5,43.97h0.849v-6.88H37.681l-2.139,3.5-0.317.786H35.2l-0.338-.767-2.241-3.519H31.992v6.88h0.8V39.34l-0.143-1.022H32.7l0.368,0.934,1.975,3.116H35.3l1.862-3.106,0.389-.944H37.6L37.5,39.35v4.62Zm2.783-4.915H39.339L41.4,43.97a2.329,2.329,0,0,1-.44,1,0.76,0.76,0,0,1-.553.29,0.738,0.738,0,0,1-.256-0.049L40,45.886a1.584,1.584,0,0,0,.6.1,0.9,0.9,0,0,0,.593-0.211,2.067,2.067,0,0,0,.461-0.565,5.354,5.354,0,0,0,.373-0.806q0.169-.452.343-0.934l1.514-4.413H43.074l-1,3.175-0.226.954H41.8l-0.288-.944Zm11.246-1.966H46.216v0.727h2.231V43.97H49.3V37.817h2.231V37.089Zm3.09,5.917a1.5,1.5,0,0,1-.522.275,2.157,2.157,0,0,1-.7.118,2.085,2.085,0,0,1-.762-0.123,1.24,1.24,0,0,1-.507-0.354,1.469,1.469,0,0,1-.287-0.565,2.893,2.893,0,0,1-.092-0.767h3.285a4.686,4.686,0,0,0,.061-0.718,2.412,2.412,0,0,0-.174-1,1.485,1.485,0,0,0-.45-0.585,1.575,1.575,0,0,0-.624-0.28,3.353,3.353,0,0,0-.7-0.074,2.111,2.111,0,0,0-1.668.659,2.805,2.805,0,0,0-.583,1.917,3.912,3.912,0,0,0,.133,1.062,2.219,2.219,0,0,0,.409.811,1.794,1.794,0,0,0,.706.521,2.588,2.588,0,0,0,1.013.182,3.469,3.469,0,0,0,.987-0.138,2.349,2.349,0,0,0,.773-0.373ZM54,39.925a1.469,1.469,0,0,1,.3,1.047H51.762A1.494,1.494,0,0,1,52.2,39.93a1.455,1.455,0,0,1,.967-0.3A1.128,1.128,0,0,1,54,39.925Zm2.558,0.093a2.024,2.024,0,0,1,.333-0.147,3.441,3.441,0,0,1,.4-0.111q0.21-.046.409-0.071a2.971,2.971,0,0,1,.373-0.025,1.186,1.186,0,0,1,.819.216,1.028,1.028,0,0,1,.225.757,5.167,5.167,0,0,1-.031.531,2.071,2.071,0,0,0-.281-0.02H58.526a6.608,6.608,0,0,0-1.029.074,2.63,2.63,0,0,0-.8.246,1.309,1.309,0,0,0-.517.462,1.323,1.323,0,0,0-.184.723,1.37,1.37,0,0,0,.118.58,1.307,1.307,0,0,0,.322.437,1.429,1.429,0,0,0,.486.28,1.836,1.836,0,0,0,.609.1,2.259,2.259,0,0,0,.583-0.069,2.151,2.151,0,0,0,.45-0.172,1.475,1.475,0,0,0,.333-0.236,1.641,1.641,0,0,0,.23-0.27h0.051L59.4,43.989H60a3.132,3.132,0,0,1-.112-0.6q-0.031-.324-0.031-0.688,0-.5.031-1.062t0.031-1.15a2.56,2.56,0,0,0-.056-0.531,1.207,1.207,0,0,0-.225-0.487,1.188,1.188,0,0,0-.491-0.359,2.211,2.211,0,0,0-.855-0.138,5.264,5.264,0,0,0-1.08.108,3.025,3.025,0,0,0-.906.334ZM57.1,43.139a0.713,0.713,0,0,1-.256-0.565,0.608,0.608,0,0,1,.138-0.408,0.935,0.935,0,0,1,.368-0.255,2.029,2.029,0,0,1,.532-0.128,5.471,5.471,0,0,1,.619-0.034q0.143,0,.292,0t0.292,0.015v0.816a1.109,1.109,0,0,1-.159.265,1.218,1.218,0,0,1-.271.251,1.508,1.508,0,0,1-.389.187,1.643,1.643,0,0,1-.512.074A0.965,0.965,0,0,1,57.1,43.139ZM65.28,43.97V40.687a1.57,1.57,0,0,1,.409-0.786,1.1,1.1,0,0,1,.8-0.275,1.246,1.246,0,0,1,.5.083,0.653,0.653,0,0,1,.3.256,1.092,1.092,0,0,1,.143.433,4.59,4.59,0,0,1,.036.614V43.97h0.819V41.021A4.98,4.98,0,0,0,68.191,40a1.485,1.485,0,0,0-.281-0.639,1.02,1.02,0,0,0-.491-0.329,2.449,2.449,0,0,0-.727-0.093,2,2,0,0,0-.936.216,1.631,1.631,0,0,0-.65.6,1.193,1.193,0,0,0-.486-0.634,1.582,1.582,0,0,0-.8-0.182,1.945,1.945,0,0,0-.947.2,2.389,2.389,0,0,0-.64.516H62.189l-0.154-.6H61.463V43.97h0.819V40.588a1.447,1.447,0,0,1,.435-0.688,1.141,1.141,0,0,1,.783-0.275,1.081,1.081,0,0,1,.5.1,0.675,0.675,0,0,1,.292.295,1.441,1.441,0,0,1,.138.487,5.674,5.674,0,0,1,.036.683V43.97H65.28Zm4.226-6.129a0.381,0.381,0,0,0,.307.133,0.5,0.5,0,0,0,.113-0.01,0.749,0.749,0,0,1-.133.462,1.025,1.025,0,0,1-.368.295l0.256,0.334a1.379,1.379,0,0,0,.558-0.4A1.433,1.433,0,0,0,70.57,37.7a0.684,0.684,0,0,0-.179-0.516,0.645,0.645,0,0,0-.466-0.172,0.567,0.567,0,0,0-.384.128,0.443,0.443,0,0,0-.148.354A0.52,0.52,0,0,0,69.506,37.841Zm3.582,5.391a1.425,1.425,0,0,1-.727.167,2.776,2.776,0,0,1-.767-0.108,3.072,3.072,0,0,1-.614-0.236l-0.246.668a3.206,3.206,0,0,0,.686.256,3.94,3.94,0,0,0,.993.108,2.44,2.44,0,0,0,.783-0.113,1.635,1.635,0,0,0,.558-0.31,1.2,1.2,0,0,0,.332-0.472,1.605,1.605,0,0,0,.108-0.59,1.244,1.244,0,0,0-.184-0.713,1.614,1.614,0,0,0-.455-0.447,2.588,2.588,0,0,0-.594-0.285q-0.322-.108-0.593-0.221a1.991,1.991,0,0,1-.455-0.256,0.474,0.474,0,0,1-.184-0.4,0.581,0.581,0,0,1,.21-0.511,1.164,1.164,0,0,1,.66-0.147,2.917,2.917,0,0,1,.711.083,3.309,3.309,0,0,1,.568.192l0.194-.649a3.7,3.7,0,0,0-.65-0.221,3.892,3.892,0,0,0-.926-0.093,1.846,1.846,0,0,0-1.167.329,1.237,1.237,0,0,0-.42,1.037,1.153,1.153,0,0,0,.184.688,1.51,1.51,0,0,0,.455.418,2.836,2.836,0,0,0,.594.265q0.322,0.1.594,0.216a1.572,1.572,0,0,1,.455.28,0.592,0.592,0,0,1,.184.462A0.635,0.635,0,0,1,73.088,43.232Zm5.076-6.143h-0.9l2.047,6.989H79.78l1.453-4.6,0.184-1.052h0.051l0.184,1.042,1.453,4.61h0.471l2-6.989H84.753l-1.209,4.59-0.189,1.16h-0.01L83.167,41.7l-1.484-4.61H81.274L79.8,41.679l-0.174,1.16h-0.01L79.453,41.7Zm7.7,5.48a2.214,2.214,0,0,0,.409.816,1.8,1.8,0,0,0,.7.521,2.52,2.52,0,0,0,1,.182,2.087,2.087,0,0,0,1.663-.663,2.825,2.825,0,0,0,.578-1.912,3.931,3.931,0,0,0-.133-1.057,2.219,2.219,0,0,0-.409-0.816,1.8,1.8,0,0,0-.7-0.521,2.524,2.524,0,0,0-1-.182A2.087,2.087,0,0,0,86.3,39.6a2.825,2.825,0,0,0-.578,1.912A3.924,3.924,0,0,0,85.858,42.569Zm2.108-2.944a1.279,1.279,0,0,1,.645.152,1.229,1.229,0,0,1,.43.408,1.851,1.851,0,0,1,.241.6,3.332,3.332,0,0,1,.077.727q0,1.9-1.392,1.887a1.245,1.245,0,0,1-.645-0.157,1.268,1.268,0,0,1-.43-0.413,1.843,1.843,0,0,1-.24-0.6,3.283,3.283,0,0,1-.077-0.717q0-1.9,1.392-1.887h0Zm6.119-.57a2.607,2.607,0,0,0-.665-0.1,1.216,1.216,0,0,0-.691.182,1.536,1.536,0,0,0-.466.516H92.223l-0.153-.6H91.5V43.97h0.819v-3.44a0.951,0.951,0,0,1,1.013-.816,1.918,1.918,0,0,1,.583.1Zm3.889,4.915h1.013l-1.709-2.221-0.512-.393,0.42-.324,1.566-1.976H97.8l-1.586,2.084-0.42.138V37.089H94.976v6.88h0.819V41.758h0.471Z"/>
    <g id="_1-2" data-name="1">
      <g id="_1_copy_5" data-name="1 copy 5">
        <path id="_8:00_AM" data-name="8:00 AM" class="cls-9" d="M89.114,57.951a1.526,1.526,0,0,0,.349.548,1.666,1.666,0,0,0,.566.368A2.041,2.041,0,0,0,90.8,59a2.173,2.173,0,0,0,.806-0.14,1.727,1.727,0,0,0,.6-0.388,1.631,1.631,0,0,0,.371-0.591,2.186,2.186,0,0,0,.127-0.761,1.881,1.881,0,0,0-.091-0.606,1.741,1.741,0,0,0-.249-0.48,2.2,2.2,0,0,0-.371-0.388,4.119,4.119,0,0,0-.448-0.32,2.768,2.768,0,0,0,.779-0.829,1.964,1.964,0,0,0,.236-0.974,1.592,1.592,0,0,0-.118-0.62,1.424,1.424,0,0,0-.331-0.485,1.52,1.52,0,0,0-.521-0.32,1.936,1.936,0,0,0-.689-0.116,1.988,1.988,0,0,0-.729.126,1.654,1.654,0,0,0-.553.349,1.491,1.491,0,0,0-.353.533,1.86,1.86,0,0,0-.122.688,1.794,1.794,0,0,0,.086.582,1.678,1.678,0,0,0,.236.456,2,2,0,0,0,.344.364,4.454,4.454,0,0,0,.421.305,2.741,2.741,0,0,0-.933.819,1.874,1.874,0,0,0-.3,1.061A1.936,1.936,0,0,0,89.114,57.951ZM91.9,57.68a1.01,1.01,0,0,1-.254.359,1.083,1.083,0,0,1-.367.213,1.311,1.311,0,0,1-.435.073,1.234,1.234,0,0,1-.494-0.092,1.056,1.056,0,0,1-.358-0.247,1,1,0,0,1-.217-0.368,1.371,1.371,0,0,1-.073-0.446,1.553,1.553,0,0,1,.236-0.775,2.152,2.152,0,0,1,.788-0.737q0.245,0.136.471,0.281a2.328,2.328,0,0,1,.4.325,1.55,1.55,0,0,1,.285.4,1.127,1.127,0,0,1,.109.509A1.264,1.264,0,0,1,91.9,57.68Zm-1.984-4.391a0.883,0.883,0,0,1,.2-0.315,1.113,1.113,0,0,1,.326-0.223,1.032,1.032,0,0,1,.435-0.087,0.967,0.967,0,0,1,.684.267,0.99,0.99,0,0,1,.285.761,1.4,1.4,0,0,1-.195.727,2.671,2.671,0,0,1-.6.669q-0.236-.126-0.453-0.267a2.411,2.411,0,0,1-.385-0.305,1.311,1.311,0,0,1-.267-0.373,1.1,1.1,0,0,1-.1-0.48A1.045,1.045,0,0,1,89.916,53.289Zm4.367,1.653a0.482,0.482,0,0,0,.376.155,0.507,0.507,0,0,0,.39-0.155,0.651,0.651,0,0,0,0-.819,0.517,0.517,0,0,0-.39-0.15,0.49,0.49,0,0,0-.376.15A0.667,0.667,0,0,0,94.283,54.942Zm0,3.906a0.482,0.482,0,0,0,.376.155,0.508,0.508,0,0,0,.39-0.155,0.651,0.651,0,0,0,0-.819,0.517,0.517,0,0,0-.39-0.15,0.49,0.49,0,0,0-.376.15A0.667,0.667,0,0,0,94.283,58.848Zm1.907-.766A1.668,1.668,0,0,0,97.767,59a1.706,1.706,0,0,0,1.554-.882,5.191,5.191,0,0,0,.53-2.627,5.5,5.5,0,0,0-.494-2.641,1.842,1.842,0,0,0-3.135.015,5.192,5.192,0,0,0-.53,2.627A5.508,5.508,0,0,0,96.19,58.082Zm0.575-4.73a1.054,1.054,0,0,1,1-.688,0.968,0.968,0,0,1,.625.2,1.443,1.443,0,0,1,.412.581,3.509,3.509,0,0,1,.227.9,8.915,8.915,0,0,1,.068,1.144,5.341,5.341,0,0,1-.322,2.147,1.06,1.06,0,0,1-1.01.683,0.894,0.894,0,0,1-.593-0.208,1.549,1.549,0,0,1-.412-0.581,3.524,3.524,0,0,1-.24-0.892,7.843,7.843,0,0,1-.077-1.148A5.343,5.343,0,0,1,96.766,53.352Zm4.362,4.73a1.668,1.668,0,0,0,1.577.921,1.707,1.707,0,0,0,1.554-.882,5.2,5.2,0,0,0,.53-2.627,5.5,5.5,0,0,0-.494-2.641,1.842,1.842,0,0,0-3.135.015,5.2,5.2,0,0,0-.53,2.627A5.511,5.511,0,0,0,101.128,58.082Zm0.576-4.73a1.053,1.053,0,0,1,1-.688,0.968,0.968,0,0,1,.625.2,1.444,1.444,0,0,1,.412.581,3.52,3.52,0,0,1,.227.9,8.969,8.969,0,0,1,.068,1.144,5.345,5.345,0,0,1-.322,2.147,1.06,1.06,0,0,1-1.01.683,0.9,0.9,0,0,1-.594-0.208,1.553,1.553,0,0,1-.412-0.581,3.5,3.5,0,0,1-.24-0.892,7.9,7.9,0,0,1-.077-1.148A5.333,5.333,0,0,1,101.7,53.352Zm10.034,5.534h0.8L110.125,52h-0.344l-2.4,6.891h0.752l0.631-1.88h2.326ZM109.7,54.263l0.226-1.047h0.009l0.225,1.027,0.7,2.064h-1.857Zm8.552,4.623H119V52.1h-0.589l-1.893,3.45-0.281.775h-0.018l-0.3-.756L113.94,52.1h-0.562v6.785h0.707V54.322l-0.127-1.008H114l0.326,0.921,1.749,3.072H116.3l1.649-3.063,0.345-.931h0.045l-0.091,1.018v4.555Z"/>
        <path id="_9:00_AM" data-name="9:00 AM" class="cls-9" d="M130.155,55a1.768,1.768,0,0,0,.4.62,1.706,1.706,0,0,0,.581.383,1.87,1.87,0,0,0,.7.131,2.041,2.041,0,0,0,.77-0.121,1.344,1.344,0,0,0,.536-0.431,4.177,4.177,0,0,1-.261,1.023,3.194,3.194,0,0,1-.491.838,2.629,2.629,0,0,1-.721.611,2.787,2.787,0,0,1-.942.33L130.885,59a3.3,3.3,0,0,0,1.2-.4,3.014,3.014,0,0,0,.96-0.877,4.352,4.352,0,0,0,.636-1.381,7.132,7.132,0,0,0,.229-1.914,2.814,2.814,0,0,0-.513-1.8,1.735,1.735,0,0,0-1.433-.64,2.052,2.052,0,0,0-.852.165,1.684,1.684,0,0,0-.608.456,1.99,1.99,0,0,0-.37.688,2.841,2.841,0,0,0-.126.863A2.3,2.3,0,0,0,130.155,55Zm0.91-1.963a1.049,1.049,0,0,1,.857-0.373,1.09,1.09,0,0,1,.982.548,2.047,2.047,0,0,1,.23.582,2.928,2.928,0,0,1,.076.674v0.2a1.6,1.6,0,0,1-.018.223,0.976,0.976,0,0,1-.45.407,1.7,1.7,0,0,1-.757.155,1.188,1.188,0,0,1-.888-0.344,1.419,1.419,0,0,1-.338-1.032A1.6,1.6,0,0,1,131.065,53.037Zm4.349,1.9a0.478,0.478,0,0,0,.374.155,0.506,0.506,0,0,0,.388-0.155,0.654,0.654,0,0,0,0-.819,0.515,0.515,0,0,0-.388-0.15,0.486,0.486,0,0,0-.374.15A0.669,0.669,0,0,0,135.414,54.942Zm0,3.906a0.479,0.479,0,0,0,.374.155,0.507,0.507,0,0,0,.388-0.155,0.654,0.654,0,0,0,0-.819,0.515,0.515,0,0,0-.388-0.15,0.486,0.486,0,0,0-.374.15A0.669,0.669,0,0,0,135.414,58.848Zm1.9-.766a1.657,1.657,0,0,0,1.568.921,1.7,1.7,0,0,0,1.546-.882,5.22,5.22,0,0,0,.527-2.627,5.531,5.531,0,0,0-.491-2.641,1.826,1.826,0,0,0-3.118.015,5.208,5.208,0,0,0-.528,2.627A5.538,5.538,0,0,0,137.311,58.082Zm0.572-4.73a1.05,1.05,0,0,1,1-.688,0.959,0.959,0,0,1,.622.2,1.441,1.441,0,0,1,.41.581,3.523,3.523,0,0,1,.225.9,8.969,8.969,0,0,1,.068,1.144,5.369,5.369,0,0,1-.32,2.147,1.053,1.053,0,0,1-1,.683,0.886,0.886,0,0,1-.59-0.208,1.55,1.55,0,0,1-.41-0.581,3.543,3.543,0,0,1-.239-0.892,7.9,7.9,0,0,1-.077-1.148A5.375,5.375,0,0,1,137.883,53.352Zm4.34,4.73a1.657,1.657,0,0,0,1.568.921,1.7,1.7,0,0,0,1.546-.882,5.22,5.22,0,0,0,.527-2.627,5.531,5.531,0,0,0-.491-2.641,1.827,1.827,0,0,0-3.119.015,5.22,5.22,0,0,0-.527,2.627A5.526,5.526,0,0,0,142.223,58.082Zm0.572-4.73a1.048,1.048,0,0,1,1-.688,0.959,0.959,0,0,1,.622.2,1.441,1.441,0,0,1,.41.581,3.523,3.523,0,0,1,.225.9,8.969,8.969,0,0,1,.068,1.144,5.369,5.369,0,0,1-.32,2.147,1.055,1.055,0,0,1-1,.683,0.886,0.886,0,0,1-.59-0.208,1.539,1.539,0,0,1-.41-0.581,3.5,3.5,0,0,1-.239-0.892,7.9,7.9,0,0,1-.077-1.148A5.375,5.375,0,0,1,142.795,53.352Zm9.981,5.534h0.793L151.172,52H150.83l-2.389,6.891h0.748l0.628-1.88h2.314Zm-2.026-4.623,0.224-1.047h0.009l0.224,1.027,0.7,2.064h-1.848Zm8.506,4.623H160V52.1h-0.586l-1.883,3.45-0.28.775h-0.018l-0.3-.756-1.974-3.47h-0.558v6.785h0.7V54.322l-0.127-1.008h0.045l0.325,0.921,1.739,3.072h0.226l1.64-3.063,0.342-.931h0.045l-0.09,1.018v4.555Z"/>
      </g>
    </g>
    <circle class="cls-10" cx="42" cy="71" r="10"/>
    <path class="cls-5" d="M42,67a2.09,2.09,0,1,1-2.207,2.087A2.149,2.149,0,0,1,42,67Zm0,5.217A3.9,3.9,0,0,0,38,76h8A3.9,3.9,0,0,0,42,72.217Z"/>
    <circle id="Ellipse_552_copy" data-name="Ellipse 552 copy" class="cls-10" cx="83" cy="109" r="10"/>
    <path id="Shape_1_copy_2" data-name="Shape 1 copy 2" class="cls-5" d="M83,105a2.09,2.09,0,1,1-2.207,2.087A2.149,2.149,0,0,1,83,105Zm0,5.217A3.9,3.9,0,0,0,79,114h8A3.9,3.9,0,0,0,83,110.217Z"/>
  </g>
</svg>
