<svg id="icon" xmlns="http://www.w3.org/2000/svg" width="197" height="128" viewBox="0 0 197 128">
  <defs>
    <style>
      .cls-1 {
        fill: #eef3fe;
      }

      .cls-1, .cls-3, .cls-4, .cls-5, .cls-8 {
        fill-rule: evenodd;
      }

      .cls-2, .cls-8 {
        fill: #fff;
      }

      .cls-2 {
        stroke: #e3e3e3;
        stroke-linejoin: round;
        stroke-width: 1px;
      }

      .cls-3 {
        fill: #343439;
      }

      .cls-4 {
        fill: #565657;
      }

      .cls-5 {
        opacity: 0.05;
      }

      .cls-6 {
        fill: #69a4e0;
      }

      .cls-7 {
        fill: #33e2a6;
      }

      .cls-10, .cls-9 {
        fill: #8388e4;
      }

      .cls-10 {
        opacity: 0.6;
      }
    </style>
  </defs>
  <g id="graphic">
    <path class="cls-1" d="M42,65.019c0.518-12.348,3.106-22.638,28.987-30.87s33.752-11.862,46.693-19.58C128.106,8.175,160.153,8.737,175.654,30c10.784,14.8,10.007,34.037-2.07,47.334-10.26,11.3-31.5,20.432-52.8,24.7-21.691,4.344-37.892,1.057-53.939-5.117S41.655,79.768,42,65.019Z"/>
    <rect id="Rounded_Rectangle_593" data-name="Rounded Rectangle 593" class="cls-2" x="11" y="31" width="148" height="86" rx="5" ry="5"/>
    <g id="Bar">
      <path id="My_Work" data-name="My Work" class="cls-3" d="M23.3,39.526H22v7.292h0.985V41.173l0.03,0,2.271,5.649h0.685l2.206-5.469,0.03,0.005v5.464H29.2V39.526H27.971L25.645,45.45h-0.03ZM31.282,41.4h-1.1l2.011,5.308-0.235.566a2.917,2.917,0,0,1-.335.621,0.608,0.608,0,0,1-.515.281q-0.055,0-.263-0.015a1.327,1.327,0,0,0-.178-0.01l-0.1.776q0.1,0.025.285,0.053a2.159,2.159,0,0,0,.305.028A1.352,1.352,0,0,0,32.19,48.6a2.811,2.811,0,0,0,.588-0.952l2.276-6.25h-1.1L32.627,45.49H32.6l-0.175-.681ZM39,39.526H37.935l1.756,7.292h0.88l1.476-5.058,0.105-.656h0.03l0.11,0.656,1.456,5.058h0.88l1.761-7.292h-1.07l-1.04,4.763-0.135.977h-0.03l-0.17-.977-1.3-4.763H41.676l-1.291,4.763-0.17.962-0.03-.005-0.125-.956Zm7.9,4.643a2.966,2.966,0,0,0,.653,1.981,2.418,2.418,0,0,0,3.544,0,2.971,2.971,0,0,0,.65-1.983v-0.11a2.976,2.976,0,0,0-.653-1.983,2.408,2.408,0,0,0-3.544,0,2.986,2.986,0,0,0-.65,1.981v0.11Zm0.985-.11a2.578,2.578,0,0,1,.363-1.417,1.188,1.188,0,0,1,1.068-.566,1.2,1.2,0,0,1,1.078.566,2.551,2.551,0,0,1,.368,1.417v0.11a2.559,2.559,0,0,1-.365,1.422,1.309,1.309,0,0,1-2.148,0,2.572,2.572,0,0,1-.363-1.422v-0.11Zm7.763-2.7a1.407,1.407,0,0,0-.165-0.038,1.225,1.225,0,0,0-.21-0.018,1.326,1.326,0,0,0-.778.235,1.879,1.879,0,0,0-.568.656l-0.1-.791h-0.88v5.419h0.985V42.946a1.189,1.189,0,0,1,.413-0.521,1.128,1.128,0,0,1,.658-0.185l0.505,0.03Zm4.187,5.464H61L58.863,43.9l1.966-2.5h-1.18l-1.626,2.133h-0.5V39H56.542v7.813h0.985v-2.5h0.505Z"/>
      <g id="_1" data-name="1">
        <g id="_1_copy_5" data-name="1 copy 5">
          <path id="_7:00_AM" data-name="7:00 AM" class="cls-4" d="M23.2,64.887l2.7-6.523V58.1H22v0.717h2.663l0.551-.087-0.411.475-2.345,5.68H23.2Zm4.311-3.945a0.5,0.5,0,0,0,.388.155,0.532,0.532,0,0,0,.4-0.155,0.636,0.636,0,0,0,0-.819,0.542,0.542,0,0,0-.4-0.15,0.514,0.514,0,0,0-.388.15A0.651,0.651,0,0,0,27.514,60.942Zm0,3.906A0.505,0.505,0,0,0,27.9,65a0.533,0.533,0,0,0,.4-0.155,0.636,0.636,0,0,0,0-.819,0.542,0.542,0,0,0-.4-0.15,0.514,0.514,0,0,0-.388.15A0.651,0.651,0,0,0,27.514,64.848Zm1.967-.766A1.729,1.729,0,0,0,31.106,65a1.77,1.77,0,0,0,1.6-.882,5.06,5.06,0,0,0,.546-2.627,5.358,5.358,0,0,0-.509-2.641,1.93,1.93,0,0,0-3.233.015,5.061,5.061,0,0,0-.546,2.627A5.366,5.366,0,0,0,29.48,64.082Zm0.593-4.73a1.087,1.087,0,0,1,1.032-.688,1.018,1.018,0,0,1,.645.2,1.444,1.444,0,0,1,.425.581,3.422,3.422,0,0,1,.233.9,8.634,8.634,0,0,1,.07,1.144,5.193,5.193,0,0,1-.332,2.147,1.093,1.093,0,0,1-1.042.683,0.94,0.94,0,0,1-.612-0.208,1.55,1.55,0,0,1-.425-0.581,3.437,3.437,0,0,1-.247-0.892,7.609,7.609,0,0,1-.08-1.148A5.2,5.2,0,0,1,30.073,59.352Zm4.5,4.73A1.729,1.729,0,0,0,36.2,65a1.77,1.77,0,0,0,1.6-.882,5.061,5.061,0,0,0,.547-2.627,5.358,5.358,0,0,0-.509-2.641,1.93,1.93,0,0,0-3.233.015,5.06,5.06,0,0,0-.547,2.627A5.366,5.366,0,0,0,34.572,64.082Zm0.593-4.73a1.087,1.087,0,0,1,1.032-.688,1.018,1.018,0,0,1,.645.2,1.443,1.443,0,0,1,.425.581,3.422,3.422,0,0,1,.234.9,8.651,8.651,0,0,1,.07,1.144,5.2,5.2,0,0,1-.332,2.147,1.093,1.093,0,0,1-1.042.683,0.94,0.94,0,0,1-.612-0.208,1.55,1.55,0,0,1-.425-0.581,3.441,3.441,0,0,1-.248-0.892,7.61,7.61,0,0,1-.079-1.148A5.2,5.2,0,0,1,35.165,59.352Zm10.347,5.534h0.822L43.849,58H43.494l-2.476,6.891h0.775l0.651-1.88h2.4Zm-2.1-4.623,0.232-1.047h0.009l0.232,1.027,0.725,2.064H42.7Zm8.818,4.623H53V58.1H52.4l-1.953,3.45-0.29.775H50.136l-0.308-.756L47.782,58.1H47.2v6.785h0.729V60.322L47.8,59.314h0.047l0.336,0.921,1.8,3.072H50.22l1.7-3.063,0.355-.931h0.047l-0.093,1.018v4.555Z"/>
          <path id="_8:00_AM" data-name="8:00 AM" class="cls-4" d="M22.118,84.951a1.519,1.519,0,0,0,.36.548,1.73,1.73,0,0,0,.585.368,2.172,2.172,0,0,0,.8.136,2.312,2.312,0,0,0,.833-0.141,1.791,1.791,0,0,0,.618-0.388,1.624,1.624,0,0,0,.384-0.591,2.123,2.123,0,0,0,.131-0.761,1.823,1.823,0,0,0-.094-0.606,1.719,1.719,0,0,0-.257-0.48,2.233,2.233,0,0,0-.384-0.388,4.257,4.257,0,0,0-.463-0.32,2.808,2.808,0,0,0,.805-0.829,1.914,1.914,0,0,0,.243-0.974,1.548,1.548,0,0,0-.122-0.62,1.425,1.425,0,0,0-.342-0.485,1.58,1.58,0,0,0-.538-0.32,2.061,2.061,0,0,0-.712-0.116,2.116,2.116,0,0,0-.754.126,1.718,1.718,0,0,0-.571.349,1.489,1.489,0,0,0-.365.533,1.809,1.809,0,0,0-.126.688,1.741,1.741,0,0,0,.089.582,1.659,1.659,0,0,0,.243.456,2.03,2.03,0,0,0,.356.364,4.614,4.614,0,0,0,.435.305,2.806,2.806,0,0,0-.964.819A1.83,1.83,0,0,0,22,84.268,1.878,1.878,0,0,0,22.118,84.951ZM25,84.68a1.012,1.012,0,0,1-.262.359,1.13,1.13,0,0,1-.379.213,1.4,1.4,0,0,1-.449.073,1.313,1.313,0,0,1-.51-0.092,1.092,1.092,0,0,1-.37-0.247,1,1,0,0,1-.225-0.368,1.334,1.334,0,0,1-.075-0.446A1.517,1.517,0,0,1,22.97,83.4a2.194,2.194,0,0,1,.815-0.737q0.253,0.136.487,0.281a2.4,2.4,0,0,1,.417.325,1.553,1.553,0,0,1,.3.4,1.1,1.1,0,0,1,.112.509A1.229,1.229,0,0,1,25,84.68Zm-2.05-4.391a0.88,0.88,0,0,1,.211-0.315,1.152,1.152,0,0,1,.337-0.223,1.1,1.1,0,0,1,.449-0.087,1.018,1.018,0,0,1,.707.267,0.973,0.973,0,0,1,.295.761,1.367,1.367,0,0,1-.2.727,2.7,2.7,0,0,1-.623.669q-0.244-.126-0.468-0.266a2.48,2.48,0,0,1-.4-0.305,1.313,1.313,0,0,1-.276-0.373,1.067,1.067,0,0,1-.1-0.48A1.015,1.015,0,0,1,22.947,80.289Zm4.513,1.653a0.506,0.506,0,0,0,.389.155,0.533,0.533,0,0,0,.4-0.155,0.635,0.635,0,0,0,0-.819,0.543,0.543,0,0,0-.4-0.15,0.515,0.515,0,0,0-.389.15A0.65,0.65,0,0,0,27.459,81.942Zm0,3.906a0.507,0.507,0,0,0,.389.155,0.534,0.534,0,0,0,.4-0.155,0.635,0.635,0,0,0,0-.819,0.543,0.543,0,0,0-.4-0.15,0.515,0.515,0,0,0-.389.15A0.65,0.65,0,0,0,27.459,85.848Zm1.971-.766A1.733,1.733,0,0,0,31.059,86a1.774,1.774,0,0,0,1.606-.882,5.051,5.051,0,0,0,.548-2.627,5.349,5.349,0,0,0-.51-2.641,1.937,1.937,0,0,0-3.239.015,5.051,5.051,0,0,0-.548,2.627A5.356,5.356,0,0,0,29.43,85.082Zm0.595-4.73a1.089,1.089,0,0,1,1.035-.688,1.022,1.022,0,0,1,.646.2,1.445,1.445,0,0,1,.426.582,3.418,3.418,0,0,1,.234.9,8.632,8.632,0,0,1,.07,1.144,5.184,5.184,0,0,1-.332,2.147,1.1,1.1,0,0,1-1.044.683,0.943,0.943,0,0,1-.613-0.208,1.551,1.551,0,0,1-.426-0.582,3.436,3.436,0,0,1-.248-0.892,7.6,7.6,0,0,1-.079-1.148A5.188,5.188,0,0,1,30.025,80.352Zm4.508,4.73A1.733,1.733,0,0,0,36.162,86a1.774,1.774,0,0,0,1.606-.882,5.052,5.052,0,0,0,.548-2.627,5.349,5.349,0,0,0-.51-2.641,1.937,1.937,0,0,0-3.239.015,5.051,5.051,0,0,0-.548,2.627A5.356,5.356,0,0,0,34.533,85.082Zm0.595-4.73a1.089,1.089,0,0,1,1.035-.688,1.022,1.022,0,0,1,.646.2,1.445,1.445,0,0,1,.426.582,3.418,3.418,0,0,1,.234.9,8.633,8.633,0,0,1,.07,1.144,5.186,5.186,0,0,1-.332,2.147,1.1,1.1,0,0,1-1.044.683,0.943,0.943,0,0,1-.613-0.208,1.551,1.551,0,0,1-.426-0.582,3.436,3.436,0,0,1-.248-0.892,7.6,7.6,0,0,1-.08-1.148A5.188,5.188,0,0,1,35.127,80.352ZM45.5,85.887H46.32L43.829,79H43.474l-2.481,6.891H41.77l0.652-1.88h2.4Zm-2.105-4.623,0.233-1.047h0.009l0.233,1.027,0.727,2.064H42.673Zm8.837,4.623H53V79.1H52.4l-1.957,3.45-0.29.775H50.13l-0.309-.756-2.05-3.47H47.19v6.785h0.73V81.322L47.79,80.314h0.047l0.337,0.921,1.807,3.072h0.234l1.7-3.063,0.356-.93h0.047l-0.094,1.018v4.555Z"/>
          <path id="_9:00_AM" data-name="9:00 AM" class="cls-4" d="M22.16,104a1.749,1.749,0,0,0,1.01,1,2,2,0,0,0,.722.131,2.174,2.174,0,0,0,.8-0.121,1.392,1.392,0,0,0,.554-0.431,4.06,4.06,0,0,1-.27,1.022,3.152,3.152,0,0,1-.508.838,2.67,2.67,0,0,1-.745.611,2.943,2.943,0,0,1-.973.33L22.915,108a3.486,3.486,0,0,0,1.243-.4,3.1,3.1,0,0,0,.992-0.877,4.293,4.293,0,0,0,.657-1.382,6.9,6.9,0,0,0,.238-1.914,2.75,2.75,0,0,0-.531-1.8,1.819,1.819,0,0,0-1.481-.639,2.2,2.2,0,0,0-.88.164,1.737,1.737,0,0,0-.629.456,1.982,1.982,0,0,0-.382.688,2.753,2.753,0,0,0-.13.863A2.236,2.236,0,0,0,22.16,104Zm0.941-1.963a1.1,1.1,0,0,1,.885-0.373,1.2,1.2,0,0,1,.6.146,1.139,1.139,0,0,1,.414.4,2.007,2.007,0,0,1,.237.581,2.842,2.842,0,0,1,.079.674v0.2a1.545,1.545,0,0,1-.019.223,1,1,0,0,1-.466.407,1.8,1.8,0,0,1-.782.156,1.249,1.249,0,0,1-.917-0.345,1.388,1.388,0,0,1-.349-1.032A1.563,1.563,0,0,1,23.1,102.037Zm4.493,1.9a0.5,0.5,0,0,0,.386.155,0.531,0.531,0,0,0,.4-0.155,0.637,0.637,0,0,0,0-.819,0.539,0.539,0,0,0-.4-0.15,0.511,0.511,0,0,0-.386.15A0.653,0.653,0,0,0,27.594,103.942Zm0,3.906a0.5,0.5,0,0,0,.386.155,0.531,0.531,0,0,0,.4-0.155,0.637,0.637,0,0,0,0-.819,0.539,0.539,0,0,0-.4-0.15,0.511,0.511,0,0,0-.386.15A0.653,0.653,0,0,0,27.594,107.848Zm1.96-.766a1.722,1.722,0,0,0,1.62.921,1.763,1.763,0,0,0,1.6-.882,5.076,5.076,0,0,0,.545-2.627,5.373,5.373,0,0,0-.508-2.641,1.921,1.921,0,0,0-3.222.015,5.072,5.072,0,0,0-.545,2.626A5.38,5.38,0,0,0,29.555,107.082Zm0.591-4.73a1.084,1.084,0,0,1,1.029-.688,1.011,1.011,0,0,1,.642.2,1.436,1.436,0,0,1,.424.581,3.439,3.439,0,0,1,.233.9,8.665,8.665,0,0,1,.07,1.143,5.208,5.208,0,0,1-.331,2.147,1.089,1.089,0,0,1-1.038.683,0.935,0.935,0,0,1-.61-0.208,1.556,1.556,0,0,1-.424-0.581,3.453,3.453,0,0,1-.247-0.892,7.65,7.65,0,0,1-.079-1.149A5.213,5.213,0,0,1,30.146,102.352Zm4.484,4.73a1.722,1.722,0,0,0,1.62.921,1.763,1.763,0,0,0,1.6-.882,5.076,5.076,0,0,0,.545-2.627,5.373,5.373,0,0,0-.508-2.641,1.921,1.921,0,0,0-3.222.015,5.072,5.072,0,0,0-.545,2.626A5.38,5.38,0,0,0,34.63,107.082Zm0.591-4.73a1.084,1.084,0,0,1,1.029-.688,1.011,1.011,0,0,1,.642.2,1.436,1.436,0,0,1,.424.581,3.439,3.439,0,0,1,.233.9,8.665,8.665,0,0,1,.07,1.143,5.208,5.208,0,0,1-.331,2.147,1.089,1.089,0,0,1-1.038.683,0.935,0.935,0,0,1-.61-0.208,1.556,1.556,0,0,1-.424-0.581,3.453,3.453,0,0,1-.247-0.892,7.65,7.65,0,0,1-.079-1.149A5.213,5.213,0,0,1,35.222,102.352Zm10.314,5.535h0.819L43.878,101H43.524l-2.468,6.892h0.773l0.649-1.881h2.391Zm-2.094-4.624,0.232-1.046h0.009l0.232,1.027,0.723,2.064H42.728Zm8.79,4.624H53V101.1H52.4l-1.946,3.45-0.289.776H50.145l-0.307-.756L47.8,101.1H47.221v6.785h0.726v-4.565l-0.13-1.008h0.047l0.335,0.92,1.8,3.073h0.233l1.695-3.063,0.354-.93h0.047l-0.093,1.017v4.556Z"/>
        </g>
        <path class="cls-5" d="M21,70H151v1H21V70Zm0,22H151v1H21V92Z"/>
        <rect class="cls-6" x="63" y="56" width="86" height="36"/>
        <rect id="Rectangle_12_copy" data-name="Rectangle 12 copy" class="cls-7" x="71" y="87" width="82" height="19"/>
        <path id="Task_48438" data-name="Task#48438" class="cls-8" d="M72.736,62.1H67.99v0.717h1.994v6.067h0.759V62.819h1.994V62.1ZM72.8,64.99a1.729,1.729,0,0,1,.3-0.145,2.851,2.851,0,0,1,.357-0.11q0.187-.045.366-0.07a2.42,2.42,0,0,1,.334-0.025,0.99,0.99,0,0,1,.732.213,1.084,1.084,0,0,1,.2.746q0,0.233-.027.523a1.682,1.682,0,0,0-.252-0.019H74.556a5.353,5.353,0,0,0-.919.073,2.191,2.191,0,0,0-.713.242,1.219,1.219,0,0,0-.462.456,1.411,1.411,0,0,0-.165.712,1.472,1.472,0,0,0,.105.572,1.288,1.288,0,0,0,.288.431,1.255,1.255,0,0,0,.434.276,1.5,1.5,0,0,0,.544.1A1.838,1.838,0,0,0,74.19,68.9a1.819,1.819,0,0,0,.4-0.17,1.328,1.328,0,0,0,.3-0.233,1.593,1.593,0,0,0,.206-0.266h0.046l0.192,0.678h0.539a3.381,3.381,0,0,1-.1-0.591q-0.027-.32-0.027-0.678,0-.494.027-1.047T75.8,65.456a2.778,2.778,0,0,0-.05-0.523,1.249,1.249,0,0,0-.2-0.48A1.074,1.074,0,0,0,75.11,64.1a1.81,1.81,0,0,0-.764-0.136,4.281,4.281,0,0,0-.965.107,2.552,2.552,0,0,0-.809.329Zm0.485,3.077a0.736,0.736,0,0,1-.229-0.557,0.639,0.639,0,0,1,.123-0.4,0.841,0.841,0,0,1,.329-0.252,1.681,1.681,0,0,1,.476-0.126,4.451,4.451,0,0,1,.553-0.034q0.128,0,.261,0t0.261,0.015v0.8a1.123,1.123,0,0,1-.142.262,1.136,1.136,0,0,1-.242.247,1.3,1.3,0,0,1-.347.184,1.342,1.342,0,0,1-.457.073A0.813,0.813,0,0,1,73.285,68.068Zm5.651,0.092a1.179,1.179,0,0,1-.649.165,2.265,2.265,0,0,1-.686-0.107,2.6,2.6,0,0,1-.549-0.233l-0.219.659a2.7,2.7,0,0,0,.613.252,3.207,3.207,0,0,0,.887.107,1.993,1.993,0,0,0,.7-0.111,1.43,1.43,0,0,0,.5-0.305,1.185,1.185,0,0,0,.3-0.465,1.73,1.73,0,0,0,.1-0.582,1.324,1.324,0,0,0-.165-0.7,1.522,1.522,0,0,0-.407-0.441,2.231,2.231,0,0,0-.53-0.281q-0.288-.106-0.531-0.218a1.739,1.739,0,0,1-.407-0.252,0.488,0.488,0,0,1-.165-0.392,0.6,0.6,0,0,1,.188-0.5A0.962,0.962,0,0,1,78.5,64.6a2.372,2.372,0,0,1,.636.082,2.762,2.762,0,0,1,.507.189l0.174-.64a3.1,3.1,0,0,0-.581-0.218,3.167,3.167,0,0,0-.828-0.092,1.542,1.542,0,0,0-1.043.325,1.283,1.283,0,0,0-.375,1.023,1.226,1.226,0,0,0,.165.678,1.409,1.409,0,0,0,.407.412,2.417,2.417,0,0,0,.531.262q0.288,0.1.53,0.213a1.39,1.39,0,0,1,.407.276,0.616,0.616,0,0,1,.165.456A0.649,0.649,0,0,1,78.937,68.16Zm4.774,0.727h0.905L83.088,66.7l-0.457-.388,0.375-.32,1.4-1.948h-0.85L82.137,66.1l-0.375.136V62.1H81.031v6.785h0.732V66.706h0.421Zm3.2-.562h0.631L87.9,66.706h0.658l0.146-.62H88.036l0.284-1.27h0.695l0.146-.62h-0.7L88.8,62.664H88.173L87.825,64.2h-0.96l0.347-1.531H86.582L86.234,64.2H85.548l-0.128.62H86.1l-0.284,1.27H85.091l-0.128.62h0.713L85.32,68.324h0.631l0.357-1.619h0.96Zm-0.183-3.509h0.96L87.4,66.086h-0.96Zm7.755,1.309H93.4V62H92.91l-3.036,4.488V66.8H92.69v2.084H93.4V66.8h1.079V66.124Zm-1.792,0H91.346l-0.64.078,0.439-.475,1.289-1.851,0.32-.659h0.027l-0.091.795v2.113Zm2.725,1.827a1.523,1.523,0,0,0,.352.548,1.684,1.684,0,0,0,.572.368,2.077,2.077,0,0,0,.777.136,2.212,2.212,0,0,0,.814-0.141,1.744,1.744,0,0,0,.6-0.388,1.63,1.63,0,0,0,.375-0.591,2.167,2.167,0,0,0,.128-0.761,1.867,1.867,0,0,0-.091-0.606,1.736,1.736,0,0,0-.251-0.48,2.21,2.21,0,0,0-.375-0.388,4.16,4.16,0,0,0-.453-0.32,2.779,2.779,0,0,0,.786-0.829,1.949,1.949,0,0,0,.238-0.974,1.578,1.578,0,0,0-.119-0.62,1.425,1.425,0,0,0-.334-0.485,1.537,1.537,0,0,0-.526-0.32,1.971,1.971,0,0,0-.695-0.116,2.024,2.024,0,0,0-.736.126,1.672,1.672,0,0,0-.558.349,1.491,1.491,0,0,0-.357.533,1.845,1.845,0,0,0-.124.688,1.78,1.78,0,0,0,.087.582,1.675,1.675,0,0,0,.238.456,2.007,2.007,0,0,0,.347.364,4.506,4.506,0,0,0,.425.305,2.759,2.759,0,0,0-.942.819,1.862,1.862,0,0,0-.3,1.061A1.918,1.918,0,0,0,95.416,67.951Zm2.812-.271a1.011,1.011,0,0,1-.256.359,1.1,1.1,0,0,1-.37.213,1.335,1.335,0,0,1-.439.073,1.256,1.256,0,0,1-.5-0.092,1.065,1.065,0,0,1-.361-0.247,1,1,0,0,1-.219-0.368,1.361,1.361,0,0,1-.073-0.446,1.543,1.543,0,0,1,.238-0.775,2.163,2.163,0,0,1,.8-0.737q0.247,0.136.475,0.281a2.35,2.35,0,0,1,.407.325,1.552,1.552,0,0,1,.288.4,1.119,1.119,0,0,1,.11.509A1.254,1.254,0,0,1,98.228,67.68Zm-2-4.391a0.881,0.881,0,0,1,.206-0.315,1.123,1.123,0,0,1,.329-0.223,1.05,1.05,0,0,1,.439-0.087,0.952,0.952,0,0,1,.979,1.027,1.392,1.392,0,0,1-.2.727,2.679,2.679,0,0,1-.608.669q-0.238-.126-0.457-0.266a2.435,2.435,0,0,1-.389-0.305,1.314,1.314,0,0,1-.27-0.373,1.09,1.09,0,0,1-.1-0.48A1.037,1.037,0,0,1,96.225,63.289Zm8.226,2.835h-1.079V62h-0.494l-3.036,4.488V66.8h2.816v2.084h0.714V66.8h1.079V66.124Zm-1.793,0h-1.344l-0.64.078,0.439-.475,1.289-1.851,0.32-.659h0.028l-0.092.795v2.113Zm3.48,2.127a2.39,2.39,0,0,1-.5-0.179l-0.192.688a2.935,2.935,0,0,0,.576.174,3.679,3.679,0,0,0,.74.068,2.485,2.485,0,0,0,.851-0.145,2.038,2.038,0,0,0,.7-0.422,1.983,1.983,0,0,0,.471-0.683,2.366,2.366,0,0,0,.173-0.93,2.212,2.212,0,0,0-.128-0.78,1.766,1.766,0,0,0-.356-0.591,1.55,1.55,0,0,0-.54-0.378,1.855,1.855,0,0,0-.677-0.141L106.947,65V64.981l0.32-.281,1.455-2.316V62.1h-3.265v0.717h1.81l0.595-.1-0.421.426L106.124,65.3v0.281H106.8a1.545,1.545,0,0,1,1.047.329,1.265,1.265,0,0,1,.38,1.008,1.467,1.467,0,0,1-.11.572,1.363,1.363,0,0,1-.3.451,1.254,1.254,0,0,1-.457.286,1.665,1.665,0,0,1-.576.1A2.637,2.637,0,0,1,106.138,68.252Zm4.23-.3a1.513,1.513,0,0,0,.352.548,1.683,1.683,0,0,0,.571.368,2.081,2.081,0,0,0,.778.136,2.206,2.206,0,0,0,.813-0.141,1.747,1.747,0,0,0,.6-0.388,1.618,1.618,0,0,0,.375-0.591,2.174,2.174,0,0,0,.128-0.761,1.889,1.889,0,0,0-.091-0.606,1.724,1.724,0,0,0-.252-0.48,2.224,2.224,0,0,0-.375-0.388,4.08,4.08,0,0,0-.453-0.32,2.785,2.785,0,0,0,.787-0.829,1.955,1.955,0,0,0,.238-0.974,1.582,1.582,0,0,0-.119-0.62,1.424,1.424,0,0,0-.334-0.485,1.537,1.537,0,0,0-.526-0.32,1.969,1.969,0,0,0-.7-0.116,2.023,2.023,0,0,0-.736.126,1.683,1.683,0,0,0-.558.349,1.506,1.506,0,0,0-.357.533,1.851,1.851,0,0,0-.123.688,1.78,1.78,0,0,0,.087.582,1.667,1.667,0,0,0,.238.456,1.991,1.991,0,0,0,.347.364,4.555,4.555,0,0,0,.425.305,2.761,2.761,0,0,0-.941.819,1.856,1.856,0,0,0-.3,1.061A1.9,1.9,0,0,0,110.368,67.951Zm2.812-.271a1.018,1.018,0,0,1-.256.359,1.1,1.1,0,0,1-.371.213,1.33,1.33,0,0,1-.439.073,1.254,1.254,0,0,1-.5-0.092,1.063,1.063,0,0,1-.361-0.247,1,1,0,0,1-.22-0.368,1.358,1.358,0,0,1-.073-0.446A1.539,1.539,0,0,1,111.2,66.4a2.156,2.156,0,0,1,.8-0.737c0.165,0.091.323,0.184,0.476,0.281a2.369,2.369,0,0,1,.407.325,1.544,1.544,0,0,1,.288.4,1.12,1.12,0,0,1,.11.509A1.254,1.254,0,0,1,113.18,67.68Zm-2-4.391a0.879,0.879,0,0,1,.206-0.315,1.117,1.117,0,0,1,.329-0.223,1.049,1.049,0,0,1,.439-0.087,0.952,0.952,0,0,1,.978,1.027,1.392,1.392,0,0,1-.2.727,2.682,2.682,0,0,1-.608.669c-0.159-.084-0.311-0.173-0.458-0.266a2.406,2.406,0,0,1-.388-0.305,1.311,1.311,0,0,1-.27-0.373,1.092,1.092,0,0,1-.1-0.48A1.031,1.031,0,0,1,111.177,63.289Z"/>
        <path id="Meeting_with_teams" data-name="Meeting with teams" class="cls-8" d="M72.891,81.916h0.756V75.069H73.055l-1.9,3.482-0.282.782H70.851l-0.3-.763-1.995-3.5H67.991v6.847H68.7V77.309l-0.128-1.017h0.046l0.328,0.929,1.758,3.1h0.228l1.658-3.091,0.346-.939h0.046l-0.091,1.027v4.6Zm5.282-.959a1.3,1.3,0,0,1-.465.274,1.738,1.738,0,0,1-.619.117,1.679,1.679,0,0,1-.678-0.122,1.112,1.112,0,0,1-.451-0.352,1.531,1.531,0,0,1-.255-0.562,3.2,3.2,0,0,1-.082-0.763h2.924a5.2,5.2,0,0,0,.055-0.714,2.653,2.653,0,0,0-.155-0.993,1.469,1.469,0,0,0-.4-0.582,1.337,1.337,0,0,0-.556-0.279,2.674,2.674,0,0,0-.619-0.073,1.783,1.783,0,0,0-1.484.655,3.019,3.019,0,0,0-.519,1.907,4.324,4.324,0,0,0,.118,1.056,2.315,2.315,0,0,0,.364.807,1.625,1.625,0,0,0,.629.518,2.091,2.091,0,0,0,.9.181,2.786,2.786,0,0,0,.879-0.137,2.009,2.009,0,0,0,.688-0.372Zm-0.547-3.066a1.583,1.583,0,0,1,.264,1.042H75.632a1.575,1.575,0,0,1,.387-1.037,1.207,1.207,0,0,1,.861-0.3A0.945,0.945,0,0,1,77.627,77.891ZM82.7,80.957a1.3,1.3,0,0,1-.464.274,1.738,1.738,0,0,1-.619.117,1.68,1.68,0,0,1-.678-0.122,1.113,1.113,0,0,1-.451-0.352,1.53,1.53,0,0,1-.255-0.562,3.2,3.2,0,0,1-.082-0.763h2.924a5.2,5.2,0,0,0,.055-0.714,2.655,2.655,0,0,0-.155-0.993,1.468,1.468,0,0,0-.4-0.582,1.337,1.337,0,0,0-.556-0.279,2.675,2.675,0,0,0-.619-0.073,1.783,1.783,0,0,0-1.485.655,3.019,3.019,0,0,0-.519,1.907,4.324,4.324,0,0,0,.118,1.056,2.315,2.315,0,0,0,.364.807,1.624,1.624,0,0,0,.628.518,2.092,2.092,0,0,0,.9.181,2.786,2.786,0,0,0,.879-0.137,2.009,2.009,0,0,0,.688-0.372Zm-0.546-3.066a1.584,1.584,0,0,1,.264,1.042H80.159a1.575,1.575,0,0,1,.387-1.037,1.207,1.207,0,0,1,.861-0.3A0.946,0.946,0,0,1,82.153,77.891Zm1.521-.181h0.71v2.856a2.1,2.1,0,0,0,.228,1.13,0.875,0.875,0,0,0,.783.337,2.421,2.421,0,0,0,.628-0.078,2.679,2.679,0,0,0,.537-0.205l-0.164-.6q-0.2.088-.364,0.142a1.3,1.3,0,0,1-.4.054,0.422,0.422,0,0,1-.4-0.21,1.569,1.569,0,0,1-.118-0.719V77.71h1.239V77.025H85.113V75.832l-0.729.225v0.968h-0.71V77.71Zm3.843,4.206h0.729V77.025H87.517v4.891ZM87.5,75.91a0.478,0.478,0,0,0,.36.147,0.524,0.524,0,0,0,.373-0.147,0.49,0.49,0,0,0,.155-0.372,0.539,0.539,0,0,0-.155-0.386,0.5,0.5,0,0,0-.373-0.161,0.457,0.457,0,0,0-.36.161,0.567,0.567,0,0,0-.141.386A0.514,0.514,0,0,0,87.5,75.91Zm5.952,6.006V78.962a4.378,4.378,0,0,0-.1-1,1.614,1.614,0,0,0-.282-0.631A0.981,0.981,0,0,0,92.608,77a2.1,2.1,0,0,0-.656-0.093,1.815,1.815,0,0,0-.879.2,1.68,1.68,0,0,0-.587.513H90.45l-0.137-.6H89.8v4.891h0.729V78.571a1.493,1.493,0,0,1,.442-0.7,1.156,1.156,0,0,1,.8-0.279,0.773,0.773,0,0,1,.751.386,2.527,2.527,0,0,1,.2,1.149v2.788h0.729Zm4.818-4.685a4.682,4.682,0,0,0-.66-0.205,3.875,3.875,0,0,0-.888-0.088,2.037,2.037,0,0,0-1.639.65,2.856,2.856,0,0,0-.555,1.9,3.374,3.374,0,0,0,.433,1.917,1.538,1.538,0,0,0,1.353.616,1.558,1.558,0,0,0,.738-0.152,1.25,1.25,0,0,0,.465-0.435h0.036v0.47a3.256,3.256,0,0,1-.055.641,0.962,0.962,0,0,1-.2.44,0.8,0.8,0,0,1-.387.245,2.2,2.2,0,0,1-.624.073,2.325,2.325,0,0,1-.665-0.078q-0.255-.078-0.465-0.166l-0.191.665a2.493,2.493,0,0,0,.569.191,4.23,4.23,0,0,0,.879.073,1.934,1.934,0,0,0,1.389-.45,1.86,1.86,0,0,0,.469-1.4v-4.91ZM95.905,81.2a1.034,1.034,0,0,1-.355-0.382,1.916,1.916,0,0,1-.2-0.587,4.115,4.115,0,0,1-.064-0.753,2.268,2.268,0,0,1,.355-1.408,1.174,1.174,0,0,1,.975-0.45,2.041,2.041,0,0,1,.929.186v2.5a1.448,1.448,0,0,1-.373.778,1.019,1.019,0,0,1-.729.249A0.992,0.992,0,0,1,95.905,81.2Zm8.625-4.177-0.975,2.827-0.218.968h-0.009l-0.155-.949-0.9-2.846h-0.792l1.585,5h0.355l1.147-3.218,0.183-.812h0.027l0.173,0.8,1.193,3.228H106.5l1.53-5h-0.692l-0.81,2.837-0.174.959h-0.018l-0.227-.939-1.048-2.856H104.53Zm4.426,4.891h0.729V77.025h-0.729v4.891Zm-0.014-6.006a0.478,0.478,0,0,0,.36.147,0.526,0.526,0,0,0,.374-0.147,0.49,0.49,0,0,0,.154-0.372,0.539,0.539,0,0,0-.154-0.386,0.5,0.5,0,0,0-.374-0.161,0.457,0.457,0,0,0-.36.161,0.567,0.567,0,0,0-.141.386A0.515,0.515,0,0,0,108.942,75.91Zm1.7,1.8h0.71v2.856a2.1,2.1,0,0,0,.228,1.13,0.876,0.876,0,0,0,.783.337,2.426,2.426,0,0,0,.629-0.078,2.683,2.683,0,0,0,.537-0.205l-0.164-.6c-0.134.059-.255,0.106-0.364,0.142a1.3,1.3,0,0,1-.4.054,0.423,0.423,0,0,1-.4-0.21,1.57,1.57,0,0,1-.118-0.719V77.71h1.239V77.025H112.08V75.832l-0.729.225v0.968h-0.71V77.71Zm7.34,4.206V78.962a4.8,4.8,0,0,0-.086-1,1.535,1.535,0,0,0-.273-0.631A0.983,0.983,0,0,0,117.153,77a2.138,2.138,0,0,0-.665-0.093,1.705,1.705,0,0,0-.824.181,1.824,1.824,0,0,0-.57.484h-0.036v-2.5h-0.729v6.847h0.729V78.659a1.357,1.357,0,0,1,.446-0.768,1.157,1.157,0,0,1,.774-0.3,1.054,1.054,0,0,1,.488.1,0.727,0.727,0,0,1,.3.289,1.352,1.352,0,0,1,.15.479,4.871,4.871,0,0,1,.041.67v2.788h0.728Zm3.161-4.206h0.71v2.856a2.1,2.1,0,0,0,.228,1.13,0.876,0.876,0,0,0,.783.337,2.426,2.426,0,0,0,.629-0.078,2.683,2.683,0,0,0,.537-0.205l-0.164-.6c-0.134.059-.255,0.106-0.364,0.142a1.3,1.3,0,0,1-.4.054,0.423,0.423,0,0,1-.4-0.21,1.57,1.57,0,0,1-.118-0.719V77.71h1.238V77.025h-1.238V75.832l-0.729.225v0.968h-0.71V77.71Zm6.639,3.247a1.293,1.293,0,0,1-.464.274,1.741,1.741,0,0,1-.62.117,1.677,1.677,0,0,1-.678-0.122,1.114,1.114,0,0,1-.451-0.352,1.544,1.544,0,0,1-.255-0.562,3.183,3.183,0,0,1-.082-0.763h2.924a5.257,5.257,0,0,0,.054-0.714,2.637,2.637,0,0,0-.155-0.993,1.464,1.464,0,0,0-.4-0.582,1.341,1.341,0,0,0-.556-0.279,2.671,2.671,0,0,0-.619-0.073,1.784,1.784,0,0,0-1.485.655,3.019,3.019,0,0,0-.519,1.907,4.323,4.323,0,0,0,.119,1.056,2.3,2.3,0,0,0,.364.807,1.623,1.623,0,0,0,.628.518,2.093,2.093,0,0,0,.9.181,2.788,2.788,0,0,0,.879-0.137,2.007,2.007,0,0,0,.687-0.372Zm-0.546-3.066a1.584,1.584,0,0,1,.264,1.042H125.24a1.581,1.581,0,0,1,.387-1.037,1.209,1.209,0,0,1,.861-0.3A0.945,0.945,0,0,1,127.235,77.891Zm2.277,0.093a1.7,1.7,0,0,1,.3-0.146,2.784,2.784,0,0,1,.355-0.111c0.124-.03.246-0.054,0.364-0.07a2.369,2.369,0,0,1,.333-0.025,0.977,0.977,0,0,1,.728.215,1.1,1.1,0,0,1,.2.753q0,0.235-.027.528a1.649,1.649,0,0,0-.25-0.02H131.26a5.261,5.261,0,0,0-.915.073,2.164,2.164,0,0,0-.71.245,1.216,1.216,0,0,0-.46.46,1.431,1.431,0,0,0-.164.719,1.519,1.519,0,0,0,.1.577,1.314,1.314,0,0,0,.287.435,1.256,1.256,0,0,0,.433.279,1.477,1.477,0,0,0,.542.1,1.768,1.768,0,0,0,.92-0.24,1.332,1.332,0,0,0,.3-0.235,1.623,1.623,0,0,0,.205-0.269h0.045l0.191,0.685h0.538a3.394,3.394,0,0,1-.1-0.6q-0.029-.323-0.028-0.685,0-.5.028-1.056t0.027-1.144a2.863,2.863,0,0,0-.05-0.528,1.266,1.266,0,0,0-.2-0.484,1.066,1.066,0,0,0-.437-0.357,1.78,1.78,0,0,0-.76-0.137,4.2,4.2,0,0,0-.961.108,2.518,2.518,0,0,0-.806.333Zm0.482,3.106a0.747,0.747,0,0,1-.227-0.562,0.651,0.651,0,0,1,.123-0.406,0.84,0.84,0,0,1,.327-0.254,1.662,1.662,0,0,1,.474-0.127,4.38,4.38,0,0,1,.551-0.034c0.085,0,.172,0,0.26,0s0.174,0.008.259,0.015v0.812a1.111,1.111,0,0,1-.141.264,1.145,1.145,0,0,1-.241.249,1.306,1.306,0,0,1-.346.186,1.322,1.322,0,0,1-.456.073A0.8,0.8,0,0,1,129.994,81.089Zm7.277,0.826V78.649a1.631,1.631,0,0,1,.364-0.782,0.924,0.924,0,0,1,.711-0.274,1.008,1.008,0,0,1,.442.083,0.608,0.608,0,0,1,.264.254,1.185,1.185,0,0,1,.127.43,5.136,5.136,0,0,1,.032.611v2.944h0.729V78.981a5.478,5.478,0,0,0-.078-1.017,1.561,1.561,0,0,0-.25-0.636A0.913,0.913,0,0,0,139.175,77a1.97,1.97,0,0,0-.647-0.093,1.622,1.622,0,0,0-.833.215,1.532,1.532,0,0,0-.579.6,1.175,1.175,0,0,0-.432-0.631,1.292,1.292,0,0,0-.715-0.181,1.583,1.583,0,0,0-.843.2,2.2,2.2,0,0,0-.569.513h-0.036l-0.137-.6h-0.51v4.891H134.6V78.551a1.458,1.458,0,0,1,.387-0.685,0.951,0.951,0,0,1,.7-0.274,0.874,0.874,0,0,1,.442.1,0.645,0.645,0,0,1,.26.293,1.6,1.6,0,0,1,.123.484,6.351,6.351,0,0,1,.032.68v2.768h0.728Zm5.747-.734a1.162,1.162,0,0,1-.647.166,2.228,2.228,0,0,1-.683-0.108,2.563,2.563,0,0,1-.546-0.235l-0.219.665a2.688,2.688,0,0,0,.61.254,3.157,3.157,0,0,0,.884.108,1.965,1.965,0,0,0,.7-0.113,1.426,1.426,0,0,0,.5-0.308,1.206,1.206,0,0,0,.3-0.469,1.761,1.761,0,0,0,.1-0.587,1.353,1.353,0,0,0-.164-0.709,1.539,1.539,0,0,0-.406-0.445,2.216,2.216,0,0,0-.528-0.284q-0.286-.107-0.528-0.22a1.723,1.723,0,0,1-.405-0.254,0.493,0.493,0,0,1-.164-0.4,0.612,0.612,0,0,1,.186-0.509,0.953,0.953,0,0,1,.588-0.147,2.344,2.344,0,0,1,.633.083,2.754,2.754,0,0,1,.5.191l0.173-.645a3.052,3.052,0,0,0-.578-0.22,3.112,3.112,0,0,0-.824-0.093,1.523,1.523,0,0,0-1.039.328,1.3,1.3,0,0,0-.373,1.032,1.253,1.253,0,0,0,.164.685,1.408,1.408,0,0,0,.405.416,2.391,2.391,0,0,0,.529.264q0.286,0.1.528,0.215a1.378,1.378,0,0,1,.405.279,0.628,0.628,0,0,1,.164.46A0.658,0.658,0,0,1,143.018,81.182Z"/>
      </g>
    </g>
  </g>
  <g id="_1-2" data-name="1">
    <g>
      <rect id="Rounded_Rectangle_593_copy" data-name="Rounded Rectangle 593 copy" class="cls-2" x="121" y="17" width="66" height="23" rx="5" ry="5"/>
      <rect id="Rounded_Rectangle_600" data-name="Rounded Rectangle 600" class="cls-9" x="127" y="21" width="6" height="6" rx="1" ry="1"/>
      <rect id="Rounded_Rectangle_600_copy" data-name="Rounded Rectangle 600 copy" class="cls-9" x="127" y="30" width="6" height="6" rx="1" ry="1"/>
      <rect id="Rounded_Rectangle_599" data-name="Rounded Rectangle 599" class="cls-10" x="137" y="23" width="41" height="3" rx="1.2" ry="1.2"/>
      <rect id="Rounded_Rectangle_599_copy" data-name="Rounded Rectangle 599 copy" class="cls-10" x="137" y="32" width="28" height="3" rx="1.2" ry="1.2"/>
    </g>
  </g>
</svg>
