<svg id="icon" xmlns="http://www.w3.org/2000/svg" width="171" height="127" viewBox="0 0 171 127">
  <defs>
    <style>
      .cls-1 {
        fill: #eef3fe;
      }

      .cls-1, .cls-12, .cls-16, .cls-2, .cls-3, .cls-4, .cls-5, .cls-6, .cls-7, .cls-9 {
        fill-rule: evenodd;
      }

      .cls-2 {
        fill: #fbe3c5;
      }

      .cls-3 {
        fill: #193151;
      }

      .cls-5 {
        fill: #0a1c35;
      }

      .cls-6 {
        fill: #b5ccfa;
      }

      .cls-14, .cls-7 {
        fill: #5387ff;
      }

      .cls-8 {
        fill: #9c9fa6;
      }

      .cls-9 {
        fill: #212121;
        opacity: 0.1;
      }

      .cls-10 {
        fill: #7879dc;
      }

      .cls-11 {
        opacity: 0.2;
      }

      .cls-12 {
        fill: #51aafc;
      }

      .cls-13 {
        opacity: 0.22;
      }

      .cls-15 {
        fill: #33e2a6;
      }

      .cls-16 {
        fill: #4278f2;
      }
    </style>
  </defs>
  <path class="cls-1" d="M15,71.019c0.518-12.348,3.106-22.638,28.987-30.87S77.739,28.287,90.68,20.569c10.426-6.394,42.473-5.832,57.974,15.435,10.784,14.8,10.007,34.037-2.07,47.334-10.26,11.3-31.5,20.432-52.8,24.7-21.692,4.344-37.893,1.057-53.939-5.117S14.655,85.768,15,71.019Z"/>
  <g id="illustrator">
    <g id="illustrator-2" data-name="illustrator">
      <path class="cls-2" d="M58.91,36.907S63.156,42.313,68,44c4,1.313,9.991.333,12,0a4.04,4.04,0,0,0,2,0c3.171-.844,1.421-2.544,1.421-2.544S81.2,40.074,80,41c-1.547,1.2-6.739.286-10-1-1.374-1.065-5.936-2.954-7.2-5.735C63.911,33.758,58.929,35.688,58.91,36.907Z"/>
      <path class="cls-3" d="M53.074,100.169s-0.336,1.93.515,2.192a2.916,2.916,0,0,0,2.19,1.235c0.357,0.5,4.331,2.052,6.074,1.119-0.06-.221,1.406-1.317.3-2.64,0,0-5.105-1.226-5.421-2.724Z"/>
      <path id="Shape_121_copy" data-name="Shape 121 copy" class="cls-3" d="M43.074,100.169s-0.336,2.93.515,3.193a2.917,2.917,0,0,0,2.19,1.234c0.357,0.5,4.331,2.052,6.074,1.119-0.06-.221,1.406-1.317.3-2.64,0,0-5.105-2.226-5.421-3.724Z"/>
      <g id="Group_10_copy" data-name="Group 10 copy">
        <path class="cls-2" d="M51.29,24.918a0.894,0.894,0,0,0,.877.928s-0.031,1.574.816,1.989a16.1,16.1,0,0,0,4.275,1.177,8.593,8.593,0,0,1-.514,1.85c1.314,3.314-3.928,2.372-7.089-.294a3.13,3.13,0,0,0,1.037-2.352C50.861,26.851,51.357,26.228,51.29,24.918Z"/>
        <g>
          <path class="cls-4" d="M50.778,27.892a5.35,5.35,0,0,1-.509-2.022A9.1,9.1,0,0,1,51.4,22.52a2.091,2.091,0,0,1,1.184-.778,14.767,14.767,0,0,0,3.829-1.024s3.685-.85,4.143,1.966c0,0-2.173-2.444-4.219-1.184,0,0-1.1.468-1.761,3.051-0.079.251-.492,0.884-1.031-0.252,0,0-1.068-2.4-1.865-1.556C51.332,23.283,51.567,26.892,50.778,27.892Z"/>
          <path class="cls-2" d="M51.76,26.09a3.535,3.535,0,0,0,.816,1.97c0.7,0.551.421,0.74,3.658,2.134A3.9,3.9,0,0,0,59.1,29.36a4.662,4.662,0,0,0,.962-2,15.846,15.846,0,0,0,.535-4.074,0.983,0.983,0,0,0-.685-1.249C59.3,21.557,55.983,19,54.472,24.583c-0.588,1.716-1.95-4.361-3.157-1.183C51.1,25.315,51.158,25.878,51.76,26.09Z"/>
          <path class="cls-3" d="M60.071,21.454s-0.079-6.5-6.436-5.339a4.95,4.95,0,0,0-4.213,3.95c-0.7,2.649.921,5.7,0.921,5.7a10.887,10.887,0,0,1,1.5-3.6c0.115-.148.087-0.025,0.209-0.079a10.851,10.851,0,0,0,2.583-.647C56.292,21.049,58.151,20.008,60.071,21.454Z"/>
          <path class="cls-5" d="M63.525,19.746c-4.446-3.164-7.391.041-7.965,1.894,0.412-.425,3.618-1.489,4.928,1.151a26.014,26.014,0,0,1,3.133-1.626,0.693,0.693,0,0,0,.429-0.806A1.1,1.1,0,0,0,63.525,19.746Z"/>
        </g>
      </g>
      <path class="cls-6" d="M60,57c0,4.524.235,16.895-.647,26.3C58.306,92.806,57,100,57,100H53L52,83c-0.18-1.728-.627-14.639-0.627-14.639a2.148,2.148,0,0,0-.464-0.921c-0.228.281-.948,1.247-0.948,1.247C50.01,69.652,50,83,50,83c-0.04,2.257-2,17-2,17H43s-0.808-9.335-1-17c-0.249-9.961-1-21-1-21V57H60Z"/>
      <path class="cls-7" d="M66,37c-0.239-.115-1.913-1.57-4-3,0,0-3.309-2.056-5-3a2.778,2.778,0,0,1-2.151,1.093S51.139,32.523,50,30a23.808,23.808,0,0,1-2.5,1.585C44.081,33.391,43.469,33.813,43,37c-0.906,3.75-2,26-2,26H60V50a61.923,61.923,0,0,0,0-10,26.436,26.436,0,0,0,3,2A33.324,33.324,0,0,0,66,37Z"/>
    </g>
    <g id="Stand">
      <rect id="Rounded_Rectangle_598" data-name="Rounded Rectangle 598" class="cls-8" x="68" y="94" width="63" height="5" rx="2" ry="2"/>
      <path id="Rectangle_2_copy_3" data-name="Rectangle 2 copy 3" class="cls-9" d="M73,94l4,0.089L76.938,99H73V94Z"/>
      <path id="Rectangle_2_copy_4" data-name="Rectangle 2 copy 4" class="cls-9" d="M98,94l4,0.089L101.938,99H98V94Z"/>
      <path id="Rectangle_2_copy_5" data-name="Rectangle 2 copy 5" class="cls-9" d="M122,94l4,0.089L125.938,99H122V94Z"/>
    </g>
    <g id="box-1">
      <rect class="cls-10" x="100" y="70" width="24" height="24"/>
      <rect class="cls-11" x="109" y="70" width="7" height="8"/>
    </g>
    <g id="box-2">
      <path class="cls-12" d="M100,44h24V68l-23.934-.111Z"/>
      <rect class="cls-13" x="109" y="44" width="7" height="8"/>
    </g>
    <g id="box-3">
      <rect class="cls-14" x="74" y="70" width="24" height="24"/>
      <rect class="cls-13" x="83" y="70" width="7" height="8"/>
    </g>
    <g id="box-4">
      <rect class="cls-15" x="74" y="42" width="24" height="24"/>
      <rect class="cls-11" x="83" y="42" width="7" height="8"/>
    </g>
    <path class="cls-2" d="M55.15,39.47S56.976,43.409,63,45a19.007,19.007,0,0,0,9,1,17.171,17.171,0,0,1,5,0c0.516,0.156,1.721,1.938-.976,2.814a9.9,9.9,0,0,1-2.754.118c-5.2-.6-15.152,1.533-21.27-4.932Z"/>
    <path class="cls-16" d="M52,46s3.8-5.288,4-6c0.187,0.036-4.511-3.479-5.88-4.825-3.524-2.133-4.055-2.664-6.258-.24-0.12.166-2.39,3.362,0.38,5.792C44.242,40.727,51.5,45.984,52,46Z"/>
  </g>
</svg>
