<svg id="icon" xmlns="http://www.w3.org/2000/svg" width="171" height="127" viewBox="0 0 171 127">
  <defs>
    <style>
      .cls-1, .cls-12 {
        fill: #eef3fe;
      }

      .cls-1, .cls-10, .cls-13, .cls-14, .cls-2, .cls-3, .cls-4, .cls-5, .cls-6, .cls-7, .cls-8, .cls-9 {
        fill-rule: evenodd;
      }

      .cls-2 {
        fill: #193151;
      }

      .cls-3 {
        fill: #fbe3c5;
      }

      .cls-5 {
        fill: #0a1c35;
      }

      .cls-6 {
        fill: #b5ccfa;
      }

      .cls-7 {
        fill: #5387ff;
      }

      .cls-8 {
        fill: #fc9236;
      }

      .cls-9 {
        fill: #4278f2;
      }

      .cls-10 {
        fill: #fff;
        stroke: #dfe4e5;
      }

      .cls-10, .cls-12 {
        stroke-linejoin: round;
        stroke-width: 1px;
      }

      .cls-11 {
        fill: #747aea;
      }

      .cls-12 {
        stroke: #e3e3e3;
      }

      .cls-13 {
        fill: #3c3c3c;
      }

      .cls-14 {
        fill: #3be2a9;
      }
    </style>
  </defs>
  <path class="cls-1" d="M15,73.019c0.518-12.348,3.106-22.638,28.987-30.87S77.739,30.287,90.68,22.569c10.426-6.394,42.473-5.832,57.974,15.435,10.784,14.8,10.007,34.037-2.07,47.334-10.26,11.3-31.5,20.432-52.8,24.7-21.692,4.344-37.893,1.057-53.939-5.117S14.655,87.768,15,73.019Z"/>
  <g id="icon-2" data-name="icon">
    <g id="illustrator">
      <path class="cls-2" d="M127.484,97.9a16.71,16.71,0,0,1,.945,2.457,6.323,6.323,0,0,0,1.877,2.391s2.336,4.394-1.757,4.134c-4.071-.259-0.221-0.009-0.221-0.009s-1.67,1.008-4-2.715a13.792,13.792,0,0,1-.55-2.668c-0.071-1.27-.151-3.162-0.127-3.24A34.57,34.57,0,0,1,127.484,97.9Z"/>
      <path class="cls-3" d="M111.294,36.461S104.265,40.25,101,41a8,8,0,0,1-5.61-1.279s-6-3.015-7.233-3.9A2.344,2.344,0,0,1,86,36c-3-1.642-1-3-1-3s4.286-1.569,5.272-.325c1.275,1.608,5.978,2.641,8.474,3.335,0,0,6.123-1.607,8.254-4.01C107,32,111.566,35.2,111.294,36.461Z"/>
      <path class="cls-2" d="M116.445,100.925s0.348,3.1-.534,3.378a3.022,3.022,0,0,1-2.271,1.306c-0.37.524-5.526,2.17-7.334,1.183,0.062-.234-1.457-1.393-0.306-2.792,0,0,5.293-2.355,5.621-3.94Z"/>
      <g id="Group_10_copy" data-name="Group 10 copy">
        <path class="cls-3" d="M118.258,23.434a0.943,0.943,0,0,1-.91.981s0.033,1.665-.845,2.1a16.455,16.455,0,0,1-4.432,1.245,9.173,9.173,0,0,0,.532,1.957c-1.362,3.506,4.073,2.509,7.35-.312a3.341,3.341,0,0,1-1.075-2.488C118.7,25.479,118.188,24.82,118.258,23.434Z"/>
        <g>
          <path class="cls-4" d="M118.788,26.58a5.736,5.736,0,0,0,.528-2.139,9.748,9.748,0,0,0-1.173-3.543,2.165,2.165,0,0,0-1.227-.823,15.063,15.063,0,0,1-3.97-1.084s-3.821-.9-4.3,2.08c0,0,2.253-2.586,4.375-1.252,0,0,1.145.5,1.825,3.228,0.083,0.265.51,0.935,1.069-.266,0,0,1.107-2.535,1.933-1.646C118.214,21.7,117.97,25.522,118.788,26.58Z"/>
          <path class="cls-3" d="M117.77,24.674a3.782,3.782,0,0,1-.846,2.084,9.248,9.248,0,0,1-3.3,1.567l-1.825.592c-0.265.1-1.581,0.561-1.642-.784a5.412,5.412,0,0,0-.724-2.124,3.636,3.636,0,0,1-.37-2.784,2.7,2.7,0,0,0-.458-1.523,1.235,1.235,0,0,1,.71-1.321c0.634-.5,4.075-3.2,5.642,2.7,0.61,1.815,2.023-4.614,3.274-1.251C118.451,23.854,118.394,24.449,117.77,24.674Z"/>
          <path class="cls-2" d="M109.154,19.77s0.081-6.877,6.673-5.648A5.183,5.183,0,0,1,120.2,18.3c0.729,2.8-.955,6.033-0.955,6.033a11.655,11.655,0,0,0-1.55-3.81c-0.119-.156-0.091-0.026-0.217-0.084a11.063,11.063,0,0,1-2.678-.685C113.071,19.342,111.144,18.24,109.154,19.77Z"/>
          <path class="cls-5" d="M105.572,17.963c4.609-3.347,7.663.043,8.258,2-0.427-.45-3.752-1.575-5.109,1.218a26.785,26.785,0,0,0-3.249-1.72,0.736,0.736,0,0,1-.444-0.852A1.153,1.153,0,0,1,105.572,17.963Z"/>
        </g>
      </g>
      <path class="cls-6" d="M109,50c0,9.028,2,51,2,51h6l1.214-16.887c0.057-1.662-.043-14.721-0.043-14.721a2.29,2.29,0,0,1,.481-0.975,1.5,1.5,0,0,0,.984.261c-0.051,1.022,2.419,16.033,2.419,16.033C122.1,87.1,123,100,123,100h6V46Z"/>
      <path class="cls-7" d="M103,34a18.4,18.4,0,0,1,5.058-3.131s2.855-.176,4.252-1.373a2.845,2.845,0,0,0,2.258,1.528s3.53,0.873,4.711-1.8l2.466,0.735c2.772,0.825,7.339,2.26,6.975,4.982C127.747,42.232,129,63,129,63l-17.3-.016L109,63V39a25.2,25.2,0,0,1-3,2C105.312,40.011,104.447,34.091,103,34Z"/>
      <path class="cls-8" d="M119.947,59.015s0.746-3.61-2.155-2.919c0,0,.8,1.822.589,2.168s-0.7,1.013-.7,1.013a1.23,1.23,0,0,1-1.03.2,2.571,2.571,0,0,0-.955-0.342s0.214,3.593,3.1,1.429l0.024,0.021a0.99,0.99,0,0,0,.208.187l10.05,7.023a1,1,0,0,0,1.374-.265,0.965,0.965,0,0,0-.256-1.355l-10.05-7.023a1,1,0,0,0-.177-0.094Z"/>
      <path class="cls-3" d="M123,42s2.231,3.413,2,10a18.849,18.849,0,0,1-2,10s-0.108-.443,0,1c0,0,.311,3.216,3,3,0.523-.853.484-2.078,1-3s0.611-.465.8-1.129c2.434-8.582,3.83-11.1.478-20.991Z"/>
      <path class="cls-9" d="M129.145,42.69s-5.293.8-5.949,0.589c0.009-.031-0.866-4.487-1.2-6.279-0.135-1.19.175-4.9,4-4,0,0,2.891-1.194,3.332,2.277C129.332,35.277,129.392,42.285,129.145,42.69Z"/>
    </g>
    <g id="icon-3" data-name="icon">
      <path id="Forma_1" data-name="Forma 1" class="cls-10" d="M37.963,34.011H33.978c-3.726,0-5.834,1.909-5.978,4.959v69.976c0,4.054,1.992,5,4.981,5H91.787c3.949,0,5.978-2.012,5.978-5V39.006c-0.144-3.05-1.939-5-5.978-5H37.963Z"/>
      <path id="Forma_1_copy_6" data-name="Forma 1 copy 6" class="cls-10" d="M60.9,29.016c0.4-1.748,1.39-3,3.985-3,2.143,0,2.615,1.259,2.989,3,0.122,0.668.7,1,1.993,1h3.985s3,1.8,3,3.569c0,1.724-3,3.425-3,3.425H54.918s-3-1.54-3-3.175c0-1.849,3-3.818,3-3.818H58.9c0.979,0,1.878-.354,1.993-1"/>
      <rect id="Rounded_Rectangle_602" data-name="Rounded Rectangle 602" class="cls-11" x="58" y="32" width="12" height="3" rx="1.5" ry="1.5"/>
      <g id="tick-1">
        <rect id="Rounded_Rectangle_601" data-name="Rounded Rectangle 601" class="cls-12" x="38" y="56" width="12" height="12" rx="1" ry="1"/>
        <path id="Cleaning" class="cls-13" d="M57.772,63.356a1.743,1.743,0,0,1-.466.2,2.4,2.4,0,0,1-.648.078,1.862,1.862,0,0,1-.764-0.156,1.674,1.674,0,0,1-.611-0.467,2.274,2.274,0,0,1-.409-0.778,3.6,3.6,0,0,1-.148-1.089,3.758,3.758,0,0,1,.157-1.167,2.173,2.173,0,0,1,.417-0.769,1.535,1.535,0,0,1,.59-0.423,1.815,1.815,0,0,1,.669-0.13,2.486,2.486,0,0,1,1.131.207l0.165-.639a2.509,2.509,0,0,0-.536-0.151,4.747,4.747,0,0,0-.809-0.056,2.492,2.492,0,0,0-.908.173,2.217,2.217,0,0,0-.8.549,2.77,2.77,0,0,0-.578.968A4.167,4.167,0,0,0,54,61.143a4.441,4.441,0,0,0,.2,1.4,2.758,2.758,0,0,0,.536.972,2.13,2.13,0,0,0,.792.566,2.546,2.546,0,0,0,.974.186,4.03,4.03,0,0,0,.809-0.078,1.45,1.45,0,0,0,.627-0.276Zm1.849-5.237H58.96V63.3a0.98,0.98,0,0,0,.239.747,0.866,0.866,0,0,0,.611.22,2.314,2.314,0,0,0,.409-0.043,1.33,1.33,0,0,0,.367-0.112l-0.074-.544a1.284,1.284,0,0,1-.281.078,1.665,1.665,0,0,1-.231.017,0.332,0.332,0,0,1-.281-0.13,0.725,0.725,0,0,1-.1-0.432V58.119Zm4.44,5.2a1.181,1.181,0,0,1-.421.242,1.611,1.611,0,0,1-.561.1,1.556,1.556,0,0,1-.615-0.108,1.006,1.006,0,0,1-.409-0.311,1.337,1.337,0,0,1-.231-0.5,2.762,2.762,0,0,1-.074-0.674H64.4a4.481,4.481,0,0,0,.049-0.631,2.292,2.292,0,0,0-.14-0.877,1.3,1.3,0,0,0-.363-0.514,1.223,1.223,0,0,0-.5-0.246,2.488,2.488,0,0,0-.561-0.065,1.634,1.634,0,0,0-1.345.579,2.618,2.618,0,0,0-.47,1.685,3.728,3.728,0,0,0,.107.933,2.021,2.021,0,0,0,.33.713,1.463,1.463,0,0,0,.569.458,1.937,1.937,0,0,0,.817.16,2.584,2.584,0,0,0,.8-0.121,1.834,1.834,0,0,0,.623-0.328Zm-0.5-2.709a1.373,1.373,0,0,1,.239.92H61.758a1.372,1.372,0,0,1,.351-0.916,1.111,1.111,0,0,1,.78-0.268A0.868,0.868,0,0,1,63.566,60.612Zm2.063,0.082a1.578,1.578,0,0,1,.268-0.129,2.616,2.616,0,0,1,.322-0.1q0.169-.04.33-0.062a2.21,2.21,0,0,1,.3-0.022,0.9,0.9,0,0,1,.66.19,0.958,0.958,0,0,1,.182.665q0,0.207-.025.467a1.536,1.536,0,0,0-.227-0.017H67.214a4.893,4.893,0,0,0-.829.065,2,2,0,0,0-.644.216,1.093,1.093,0,0,0-.417.406,1.244,1.244,0,0,0-.149.635,1.3,1.3,0,0,0,.095.51,1.148,1.148,0,0,0,.26.385,1.134,1.134,0,0,0,.392.246,1.371,1.371,0,0,0,.491.086,1.679,1.679,0,0,0,.471-0.06,1.648,1.648,0,0,0,.363-0.151,1.2,1.2,0,0,0,.268-0.207A1.435,1.435,0,0,0,67.7,63.58h0.041l0.173,0.6H68.4a2.973,2.973,0,0,1-.091-0.527q-0.025-.285-0.025-0.6,0-.441.025-0.933t0.025-1.011a2.443,2.443,0,0,0-.045-0.467,1.107,1.107,0,0,0-.182-0.428,0.968,0.968,0,0,0-.4-0.315,1.651,1.651,0,0,0-.689-0.121,3.909,3.909,0,0,0-.871.095,2.319,2.319,0,0,0-.73.294Zm0.438,2.744a0.652,0.652,0,0,1-.206-0.5,0.565,0.565,0,0,1,.112-0.359,0.756,0.756,0,0,1,.3-0.225,1.525,1.525,0,0,1,.429-0.112,4.038,4.038,0,0,1,.5-0.03q0.115,0,.235,0t0.235,0.013v0.717a1,1,0,0,1-.128.233,1.02,1.02,0,0,1-.219.22,1.176,1.176,0,0,1-.314.164,1.224,1.224,0,0,1-.413.065A0.739,0.739,0,0,1,66.066,63.438Zm6.826,0.73v-2.61a3.771,3.771,0,0,0-.087-0.886,1.407,1.407,0,0,0-.256-0.557,0.888,0.888,0,0,0-.425-0.289,1.949,1.949,0,0,0-.594-0.082,1.68,1.68,0,0,0-.8.177,1.512,1.512,0,0,0-.532.454H70.168l-0.124-.527H69.582v4.321h0.66V61.213a1.316,1.316,0,0,1,.4-0.618,1.064,1.064,0,0,1,.722-0.246,0.705,0.705,0,0,1,.681.341,2.184,2.184,0,0,1,.186,1.015v2.463h0.66Zm1.345,0H74.9V59.847h-0.66v4.321Zm-0.012-5.306a0.439,0.439,0,0,0,.326.13,0.481,0.481,0,0,0,.338-0.13,0.428,0.428,0,0,0,.14-0.328,0.47,0.47,0,0,0-.14-0.341,0.457,0.457,0,0,0-.338-0.143,0.419,0.419,0,0,0-.326.143,0.493,0.493,0,0,0-.128.341A0.448,0.448,0,0,0,74.225,58.862Zm5.394,5.306v-2.61a3.771,3.771,0,0,0-.087-0.886,1.407,1.407,0,0,0-.256-0.557,0.888,0.888,0,0,0-.425-0.289,1.949,1.949,0,0,0-.594-0.082,1.68,1.68,0,0,0-.8.177,1.512,1.512,0,0,0-.532.454H76.895l-0.124-.527H76.309v4.321h0.66V61.213a1.316,1.316,0,0,1,.4-0.618,1.064,1.064,0,0,1,.722-0.246,0.705,0.705,0,0,1,.681.341,2.184,2.184,0,0,1,.186,1.015v2.463h0.66Zm4.366-4.139a4.311,4.311,0,0,0-.6-0.181,3.6,3.6,0,0,0-.8-0.078,1.869,1.869,0,0,0-1.486.575,2.479,2.479,0,0,0-.5,1.681,2.921,2.921,0,0,0,.392,1.694,1.407,1.407,0,0,0,1.226.544,1.443,1.443,0,0,0,.668-0.134,1.122,1.122,0,0,0,.421-0.385h0.033v0.415a2.813,2.813,0,0,1-.05.566,0.842,0.842,0,0,1-.182.389,0.729,0.729,0,0,1-.351.216,2.039,2.039,0,0,1-.565.065,2.16,2.16,0,0,1-.6-0.069q-0.231-.069-0.421-0.147l-0.173.588a2.3,2.3,0,0,0,.516.169,3.931,3.931,0,0,0,.8.065,1.782,1.782,0,0,0,1.259-.4,1.618,1.618,0,0,0,.425-1.236V60.029Zm-2.146,3.508a0.923,0.923,0,0,1-.322-0.337,1.665,1.665,0,0,1-.182-0.518,3.556,3.556,0,0,1-.058-0.665,1.966,1.966,0,0,1,.322-1.244,1.075,1.075,0,0,1,.883-0.4,1.889,1.889,0,0,1,.842.164v2.212a1.266,1.266,0,0,1-.338.687,0.938,0.938,0,0,1-.66.22A0.917,0.917,0,0,1,81.839,63.537Z"/>
      </g>
      <g id="tick-2">
        <rect id="Rounded_Rectangle_601-2" data-name="Rounded Rectangle 601" class="cls-12" x="38" y="73" width="12" height="12" rx="1" ry="1"/>
        <path id="Painters" class="cls-13" d="M54,80.872h0.754V78.3a1.416,1.416,0,0,0,.154.019q0.109,0.01.222,0.015t0.218,0H55.5a3.612,3.612,0,0,0,.917-0.116,2.176,2.176,0,0,0,.79-0.383,1.931,1.931,0,0,0,.554-0.692,2.362,2.362,0,0,0,.209-1.046,2.144,2.144,0,0,0-.223-1.036,1.753,1.753,0,0,0-.576-0.639,2.218,2.218,0,0,0-.785-0.319,4.28,4.28,0,0,0-.849-0.087q-0.39,0-.79.029a4.311,4.311,0,0,0-.744.116v6.71Zm2.134-6.091a1.516,1.516,0,0,1,.522.228,1.174,1.174,0,0,1,.372.426,1.41,1.41,0,0,1,.141.663,1.71,1.71,0,0,1-.15.765,1.178,1.178,0,0,1-.395.465,1.53,1.53,0,0,1-.549.227,3.009,3.009,0,0,1-.613.063H55.317c-0.067,0-.136,0-0.209,0L54.9,77.6a0.445,0.445,0,0,1-.145-0.024V74.772a1.458,1.458,0,0,1,.345-0.048q0.218-.01.454-0.01A2.556,2.556,0,0,1,56.134,74.782Zm2.706,2.2a1.714,1.714,0,0,1,.3-0.144,2.832,2.832,0,0,1,.354-0.11q0.186-.045.363-0.07a2.371,2.371,0,0,1,.331-0.025,0.979,0.979,0,0,1,.726.213,1.088,1.088,0,0,1,.2.746q0,0.232-.027.523a1.659,1.659,0,0,0-.25-0.019h-0.25a5.278,5.278,0,0,0-.913.073,2.17,2.17,0,0,0-.708.242,1.214,1.214,0,0,0-.459.455,1.416,1.416,0,0,0-.163.712,1.479,1.479,0,0,0,.1.571,1.289,1.289,0,0,0,.286.431,1.246,1.246,0,0,0,.431.276,1.484,1.484,0,0,0,.54.1,1.771,1.771,0,0,0,.917-0.237,1.322,1.322,0,0,0,.3-0.232,1.589,1.589,0,0,0,.2-0.266h0.045l0.191,0.678H61.89a3.383,3.383,0,0,1-.1-0.591q-0.027-.32-0.027-0.678,0-.494.027-1.046t0.027-1.133a2.789,2.789,0,0,0-.05-0.523,1.252,1.252,0,0,0-.2-0.479,1.067,1.067,0,0,0-.436-0.353,1.786,1.786,0,0,0-.758-0.136,4.226,4.226,0,0,0-.958.106,2.523,2.523,0,0,0-.8.329Zm0.481,3.074a0.737,0.737,0,0,1-.227-0.557,0.641,0.641,0,0,1,.123-0.4,0.834,0.834,0,0,1,.327-0.252,1.656,1.656,0,0,1,.472-0.126,4.37,4.37,0,0,1,.549-0.034q0.127,0,.259,0T61.082,78.7v0.8a1.154,1.154,0,0,1-.381.508,1.285,1.285,0,0,1-.345.184,1.324,1.324,0,0,1-.454.073A0.8,0.8,0,0,1,59.321,80.054Zm4.022,0.818h0.726V76.031H63.343v4.841Zm-0.014-5.945a0.478,0.478,0,0,0,.359.145,0.524,0.524,0,0,0,.372-0.145,0.483,0.483,0,0,0,.154-0.368,0.531,0.531,0,0,0-.154-0.383,0.5,0.5,0,0,0-.372-0.16,0.457,0.457,0,0,0-.359.16,0.558,0.558,0,0,0-.141.383A0.506,0.506,0,0,0,63.329,74.927Zm5.933,5.945V77.948a4.3,4.3,0,0,0-.1-0.993,1.593,1.593,0,0,0-.282-0.625,0.976,0.976,0,0,0-.468-0.324,2.108,2.108,0,0,0-.654-0.092,1.819,1.819,0,0,0-.876.2,1.671,1.671,0,0,0-.586.508H66.266l-0.136-.591H65.621v4.841h0.726V77.561a1.477,1.477,0,0,1,.44-0.692,1.158,1.158,0,0,1,.794-0.276,0.772,0.772,0,0,1,.749.382,2.486,2.486,0,0,1,.2,1.138v2.76h0.726Zm0.726-4.164H70.7v2.827a2.065,2.065,0,0,0,.227,1.118,0.875,0.875,0,0,0,.781.334,2.427,2.427,0,0,0,.626-0.077,2.673,2.673,0,0,0,.536-0.2L72.7,80.117q-0.2.087-.363,0.14a1.3,1.3,0,0,1-.4.053,0.421,0.421,0,0,1-.4-0.208,1.543,1.543,0,0,1-.118-0.712V76.708h1.235V76.031H71.423V74.849l-0.726.223v0.959H69.988v0.678Zm6.619,3.215a1.292,1.292,0,0,1-.463.271,1.742,1.742,0,0,1-.617.116,1.684,1.684,0,0,1-.676-0.121,1.107,1.107,0,0,1-.449-0.349,1.511,1.511,0,0,1-.254-0.557,3.146,3.146,0,0,1-.082-0.755h2.914a5.112,5.112,0,0,0,.054-0.707,2.612,2.612,0,0,0-.154-0.983,1.453,1.453,0,0,0-.4-0.576,1.335,1.335,0,0,0-.554-0.276,2.69,2.69,0,0,0-.617-0.073,1.783,1.783,0,0,0-1.48.649,2.974,2.974,0,0,0-.517,1.888,4.256,4.256,0,0,0,.118,1.046,2.284,2.284,0,0,0,.363.8,1.616,1.616,0,0,0,.626.513,2.1,2.1,0,0,0,.9.179,2.8,2.8,0,0,0,.876-0.136,2,2,0,0,0,.686-0.368Zm-0.545-3.036a1.56,1.56,0,0,1,.263,1.031H74.074a1.553,1.553,0,0,1,.386-1.026,1.208,1.208,0,0,1,.858-0.3A0.946,0.946,0,0,1,76.062,76.888Zm4.412-.857a2.1,2.1,0,0,0-.59-0.1,1,1,0,0,0-.613.179,1.467,1.467,0,0,0-.413.508H78.822l-0.136-.591H78.178v4.841H78.9V77.483a1.013,1.013,0,0,1,.281-0.576,0.833,0.833,0,0,1,.617-0.228,1.547,1.547,0,0,1,.517.1Zm2.533,4.115a1.164,1.164,0,0,1-.645.165,2.237,2.237,0,0,1-.681-0.106,2.564,2.564,0,0,1-.545-0.232l-0.218.658a2.669,2.669,0,0,0,.608.252,3.162,3.162,0,0,0,.881.107,1.968,1.968,0,0,0,.694-0.111,1.42,1.42,0,0,0,.495-0.305,1.186,1.186,0,0,0,.3-0.465,1.74,1.74,0,0,0,.1-0.581,1.33,1.33,0,0,0-.163-0.7,1.518,1.518,0,0,0-.4-0.441,2.21,2.21,0,0,0-.527-0.281Q82.608,78,82.368,77.885a1.73,1.73,0,0,1-.4-0.252,0.489,0.489,0,0,1-.163-0.392,0.6,0.6,0,0,1,.186-0.5,0.952,0.952,0,0,1,.586-0.145,2.344,2.344,0,0,1,.631.082,2.741,2.741,0,0,1,.5.189l0.172-.639a3.069,3.069,0,0,0-.577-0.218,3.123,3.123,0,0,0-.822-0.092,1.523,1.523,0,0,0-1.035.324,1.286,1.286,0,0,0-.372,1.022,1.232,1.232,0,0,0,.163.678,1.4,1.4,0,0,0,.4.411,2.4,2.4,0,0,0,.527.261q0.286,0.1.526,0.213a1.382,1.382,0,0,1,.4.276,0.618,0.618,0,0,1,.163.455A0.65,0.65,0,0,1,83.008,80.146Z"/>
      </g>
      <g id="tick-3">
        <rect id="Rounded_Rectangle_601-3" data-name="Rounded Rectangle 601" class="cls-12" x="38" y="90" width="12" height="12" rx="1" ry="1"/>
        <path id="HVAC" class="cls-13" d="M58.807,98.888H59.56V92.11H58.807v2.953H55.754V92.11H55v6.778h0.754V95.78h3.052v3.108Zm2.334-6.778H60.314l2.453,6.885H63.1L65.51,92.11H64.756l-1.535,4.638-0.236,1.046H62.976l-0.218-1.026Zm8.384,6.778h0.8L67.909,92H67.563l-2.407,6.885H65.91l0.633-1.879h2.332Zm-2.043-4.619,0.226-1.046h0.009l0.226,1.026,0.7,2.063H66.787Zm7.348,3.709a1.9,1.9,0,0,1-.513.223,2.6,2.6,0,0,1-.713.087,2.018,2.018,0,0,1-.84-0.174,1.847,1.847,0,0,1-.672-0.523,2.562,2.562,0,0,1-.45-0.872,4.1,4.1,0,0,1-.164-1.22,4.282,4.282,0,0,1,.173-1.307,2.448,2.448,0,0,1,.459-0.862,1.69,1.69,0,0,1,.649-0.474A1.967,1.967,0,0,1,73.5,92.71a2.7,2.7,0,0,1,1.245.232l0.182-.716a2.721,2.721,0,0,0-.59-0.169,5.135,5.135,0,0,0-.89-0.063,2.7,2.7,0,0,0-1,.194,2.44,2.44,0,0,0-.886.615,3.115,3.115,0,0,0-.636,1.084,4.746,4.746,0,0,0-.241,1.612,5.056,5.056,0,0,0,.218,1.574,3.1,3.1,0,0,0,.59,1.089,2.345,2.345,0,0,0,.872.634A2.758,2.758,0,0,0,73.432,99a4.356,4.356,0,0,0,.89-0.087,1.581,1.581,0,0,0,.69-0.31Z"/>
      </g>
      <path id="Services" class="cls-13" d="M40.44,47.662a1.075,1.075,0,0,1-.335.354,1.441,1.441,0,0,1-.5.2,2.922,2.922,0,0,1-.62.063,3.99,3.99,0,0,1-1.011-.118,3.286,3.286,0,0,1-.681-0.241l-0.28.717a3.458,3.458,0,0,0,.761.247A5.745,5.745,0,0,0,39.014,49a3.4,3.4,0,0,0,1-.136,2.206,2.206,0,0,0,.751-0.387,1.66,1.66,0,0,0,.47-0.6,1.862,1.862,0,0,0,.16-0.785,1.52,1.52,0,0,0-.25-0.891,2.425,2.425,0,0,0-.626-0.615,5.04,5.04,0,0,0-.816-0.45q-0.441-.194-0.816-0.392a2.554,2.554,0,0,1-.626-0.451,0.881,0.881,0,0,1,.08-1.3,1.48,1.48,0,0,1,.991-0.286,4.613,4.613,0,0,1,1.006.1,3.352,3.352,0,0,1,.675.21l0.25-.717a3.049,3.049,0,0,0-.781-0.223,6.5,6.5,0,0,0-1.111-.087,2.5,2.5,0,0,0-1.621.465,1.54,1.54,0,0,0-.57,1.259,1.6,1.6,0,0,0,.25.925,2.26,2.26,0,0,0,.626.61,4.472,4.472,0,0,0,.816.421,8.214,8.214,0,0,1,.816.373,2.494,2.494,0,0,1,.625.455,0.911,0.911,0,0,1,.25.664A0.977,0.977,0,0,1,40.44,47.662Zm5.549,0.271a1.462,1.462,0,0,1-.51.271,2.1,2.1,0,0,1-.681.116,2.025,2.025,0,0,1-.746-0.121,1.211,1.211,0,0,1-.5-0.349,1.451,1.451,0,0,1-.28-0.557,2.874,2.874,0,0,1-.09-0.756H46.4a4.654,4.654,0,0,0,.06-0.707,2.4,2.4,0,0,0-.17-0.983,1.462,1.462,0,0,0-.44-0.576A1.533,1.533,0,0,0,45.239,44a3.248,3.248,0,0,0-.681-0.073,2.056,2.056,0,0,0-1.631.649,2.779,2.779,0,0,0-.571,1.889,3.881,3.881,0,0,0,.13,1.046,2.2,2.2,0,0,0,.4.8,1.756,1.756,0,0,0,.691.513,2.515,2.515,0,0,0,.991.179,3.368,3.368,0,0,0,.966-0.136A2.291,2.291,0,0,0,46.29,48.5Zm-0.6-3.037a1.456,1.456,0,0,1,.29,1.032H43.2a1.478,1.478,0,0,1,.425-1.027,1.417,1.417,0,0,1,.946-0.3A1.1,1.1,0,0,1,45.389,44.9Zm4.864-.857a2.534,2.534,0,0,0-.651-0.1,1.182,1.182,0,0,0-.675.179,1.51,1.51,0,0,0-.455.509h-0.04l-0.15-.591h-0.56v4.844h0.8V45.492a0.932,0.932,0,0,1,.991-0.8,1.861,1.861,0,0,1,.571.1Zm1.111,0H50.443l2.172,4.95h0.34l2.132-4.95H54.226L53.1,46.858l-0.25.94h-0.01l-0.28-.92Zm4.754,4.844h0.8V44.039h-0.8v4.844ZM56.1,42.934a0.555,0.555,0,0,0,.4.145,0.611,0.611,0,0,0,.41-0.145,0.463,0.463,0,0,0,.17-0.368,0.507,0.507,0,0,0-.17-0.383,0.578,0.578,0,0,0-.41-0.16,0.538,0.538,0,0,0-.55.543A0.482,0.482,0,0,0,56.1,42.934Zm5.679,5.038a1.872,1.872,0,0,1-1.111.349,1.461,1.461,0,0,1-.706-0.155,1.294,1.294,0,0,1-.46-0.412,1.7,1.7,0,0,1-.25-0.591,3.2,3.2,0,0,1-.075-0.7q0-1.86,1.421-1.86a2.387,2.387,0,0,1,.6.073,2.221,2.221,0,0,1,.51.2l0.23-.668A2.546,2.546,0,0,0,61.336,44a3.911,3.911,0,0,0-.816-0.073,2.005,2.005,0,0,0-1.611.654,2.816,2.816,0,0,0-.561,1.884,4.375,4.375,0,0,0,.115,1.041,2.149,2.149,0,0,0,.37.8,1.664,1.664,0,0,0,.655.513A2.4,2.4,0,0,0,60.47,49a3.274,3.274,0,0,0,.861-0.111,2.22,2.22,0,0,0,.711-0.325Zm4.483-.039a1.46,1.46,0,0,1-.51.271,2.094,2.094,0,0,1-.68.116,2.025,2.025,0,0,1-.746-0.121,1.212,1.212,0,0,1-.5-0.349,1.451,1.451,0,0,1-.28-0.557,2.874,2.874,0,0,1-.09-0.756h3.212a4.642,4.642,0,0,0,.06-0.707,2.394,2.394,0,0,0-.17-0.983,1.461,1.461,0,0,0-.44-0.576A1.533,1.533,0,0,0,65.514,44a3.248,3.248,0,0,0-.68-0.073,2.057,2.057,0,0,0-1.631.649,2.779,2.779,0,0,0-.57,1.889,3.881,3.881,0,0,0,.13,1.046,2.194,2.194,0,0,0,.4.8,1.756,1.756,0,0,0,.691.513,2.515,2.515,0,0,0,.991.179,3.368,3.368,0,0,0,.966-0.136,2.29,2.29,0,0,0,.755-0.368Zm-0.6-3.037a1.456,1.456,0,0,1,.29,1.032H63.473A1.478,1.478,0,0,1,63.9,44.9a1.416,1.416,0,0,1,.946-0.3A1.1,1.1,0,0,1,65.664,44.9Zm4.253,3.26a1.385,1.385,0,0,1-.711.165,2.694,2.694,0,0,1-.751-0.107,2.993,2.993,0,0,1-.6-0.233l-0.24.659a3.117,3.117,0,0,0,.67.252,3.828,3.828,0,0,0,.971.107,2.369,2.369,0,0,0,.766-0.111,1.6,1.6,0,0,0,.545-0.305,1.179,1.179,0,0,0,.325-0.465A1.6,1.6,0,0,0,71,47.536a1.233,1.233,0,0,0-.18-0.7,1.585,1.585,0,0,0-.445-0.441,2.526,2.526,0,0,0-.581-0.281q-0.315-.106-0.58-0.218a1.94,1.94,0,0,1-.445-0.252,0.469,0.469,0,0,1-.18-0.392,0.575,0.575,0,0,1,.205-0.5,1.131,1.131,0,0,1,.645-0.145,2.832,2.832,0,0,1,.7.082,3.214,3.214,0,0,1,.555.189l0.19-.639a3.612,3.612,0,0,0-.635-0.218,3.78,3.78,0,0,0-.906-0.092,1.8,1.8,0,0,0-1.141.325,1.224,1.224,0,0,0-.41,1.022,1.143,1.143,0,0,0,.18.678,1.481,1.481,0,0,0,.445.412,2.759,2.759,0,0,0,.581.262q0.315,0.1.58,0.213a1.539,1.539,0,0,1,.445.276,0.586,0.586,0,0,1,.18.455A0.627,0.627,0,0,1,69.918,48.156Z"/>
    </g>
  </g>
  <path id="Forma_1-2" data-name="Forma 1" class="cls-14" d="M47.906,58.182L43.023,63.4,41.049,61.29a0.593,0.593,0,0,0-.878,0,0.7,0.7,0,0,0,0,.938l2.413,2.577a0.593,0.593,0,0,0,.878,0v0l5.32-5.684a0.7,0.7,0,0,0,0-.938A0.593,0.593,0,0,0,47.906,58.182Z"/>
  <path id="Forma_1_copy" data-name="Forma 1 copy" class="cls-14" d="M47.906,75.182L43.023,80.4,41.049,78.29a0.593,0.593,0,0,0-.878,0,0.7,0.7,0,0,0,0,.938l2.413,2.577a0.593,0.593,0,0,0,.878,0v0l5.32-5.684a0.7,0.7,0,0,0,0-.938A0.593,0.593,0,0,0,47.906,75.182Z"/>
</svg>
