<svg id="icon" xmlns="http://www.w3.org/2000/svg" width="171" height="127" viewBox="0 0 171 127">
  <defs>
    <style>
      .cls-1 {
        fill: #eef3fe;
      }

      .cls-1, .cls-2, .cls-3 {
        fill-rule: evenodd;
      }

      .cls-2 {
        fill: #e3e3e3;
      }

      .cls-3 {
        fill: #fff;
      }

      .cls-4 {
        fill: #51aafc;
        stroke: #eef3fe;
        stroke-linejoin: round;
        stroke-width: 4px;
      }
    </style>
  </defs>
  <path class="cls-1" d="M15,71.019c0.518-12.348,3.106-22.638,28.987-30.87S77.739,28.287,90.68,20.569c10.426-6.394,42.473-5.832,57.974,15.435,10.784,14.8,10.007,34.037-2.07,47.334-10.26,11.3-31.5,20.432-52.8,24.7-21.692,4.344-37.893,1.057-53.939-5.117S14.655,85.768,15,71.019Z"/>
  <g id="icon-2" data-name="icon">
    <g>
      <path id="Shape_703_copy" data-name="Shape 703 copy" class="cls-2" d="M60,106V28a2.707,2.707,0,0,1,3-3l41.92,0a1.824,1.824,0,0,1,1.378.621l20.2,21.236A1.713,1.713,0,0,1,127,48v58a2.831,2.831,0,0,1-3,3H63A2.656,2.656,0,0,1,60,106Z"/>
      <g>
        <path id="Shape_703_copy_2" data-name="Shape 703 copy 2" class="cls-3" d="M61,106V28a1.891,1.891,0,0,1,2-2h40V47a1.806,1.806,0,0,0,2,2h21v57a1.925,1.925,0,0,1-2,2H63A1.869,1.869,0,0,1,61,106Z"/>
        <path id="Rounded_Rectangle_602_copy_6" data-name="Rounded Rectangle 602 copy 6" class="cls-2" d="M71.5,55h35a1.5,1.5,0,0,1,0,3h-35A1.5,1.5,0,0,1,71.5,55Zm0.031-11.094H91.406a1.5,1.5,0,0,1,1.5,1.5v0.188a1.5,1.5,0,0,1-1.5,1.5H71.531a1.5,1.5,0,0,1-1.5-1.5V45.406A1.5,1.5,0,0,1,71.531,43.906ZM71.5,66h45a1.5,1.5,0,0,1,0,3h-45A1.5,1.5,0,0,1,71.5,66Zm0,10h45a1.5,1.5,0,0,1,0,3h-45A1.5,1.5,0,0,1,71.5,76Zm0,10h45a1.5,1.5,0,0,1,0,3h-45A1.5,1.5,0,0,1,71.5,86Zm-1,10h46a1.5,1.5,0,0,1,0,3h-46A1.5,1.5,0,0,1,70.5,96Z"/>
      </g>
    </g>
    <g>
      <circle class="cls-4" cx="60.5" cy="86.5" r="14.5"/>
      <path id="Shape_704_copy" data-name="Shape 704 copy" class="cls-3" d="M67,91H58V81c-0.018-.929.093-2,1.6-2,1.425,0,1.4,1.067,1.4,2v7h6c0.993,0,1.99.188,1.99,1.531C68.99,90.969,67.994,91.017,67,91Z"/>
    </g>
  </g>
</svg>
