<svg id="icon" xmlns="http://www.w3.org/2000/svg" width="181" height="122" viewBox="0 0 181 122">
  <defs>
    <style>
      .cls-1 {
        fill: #eef3fe;
      }

      .cls-1, .cls-3, .cls-4, .cls-5, .cls-6, .cls-7, .cls-9 {
        fill-rule: evenodd;
      }

      .cls-2, .cls-4, .cls-9 {
        fill: #fff;
      }

      .cls-2, .cls-4 {
        stroke: #e3e3e3;
        stroke-width: 1px;
      }

      .cls-2, .cls-4, .cls-8 {
        stroke-linejoin: round;
      }

      .cls-3 {
        fill: #6493ff;
      }

      .cls-5 {
        fill: #dee8ea;
      }

      .cls-6 {
        fill: #ffd64d;
      }

      .cls-7 {
        fill: #86abff;
      }

      .cls-8 {
        fill: #8388e4;
        stroke: #eef3fe;
        stroke-width: 2px;
      }
    </style>
  </defs>
  <path class="cls-1" d="M16,69.019c0.518-12.348,3.106-22.638,28.987-30.87S78.739,26.287,91.68,18.569c10.426-6.394,42.473-5.832,57.974,15.435,10.784,14.8,10.007,34.037-2.07,47.334-10.26,11.3-31.5,20.432-52.8,24.7-21.692,4.344-37.893,1.057-53.939-5.117S15.655,83.768,16,69.019Z"/>
  <g id="Calener">
    <rect id="Rounded_Rectangle_598" data-name="Rounded Rectangle 598" class="cls-2" x="40" y="27" width="74" height="66" rx="10" ry="10"/>
    <path class="cls-3" d="M40,42V36s-1.48-9,9-9h57s8-1,8,7v8H40"/>
    <path id="Rounded_Rectangle_600" data-name="Rounded Rectangle 600" class="cls-4" d="M55.494,24.262c2.151,0,2.394,2.032,2.335,3.206v4.8c0.063,1.174.088,3.2-2.4,3.2-2.18,0-2.46-2.021-2.4-3.2v-4.8C53.015,26.294,53.55,24.262,55.494,24.262Zm20.729-.084c2.467,0,2.571,2.107,2.405,3.29v4.8c-0.06,1.174-.391,3.272-2.336,3.272-2.331,0-2.643-2.085-2.464-3.272v-4.8C73.888,26.294,73.782,24.178,76.223,24.178ZM97.1,24.218c2.494,0,2.392,2.076,2.332,3.251v4.8c-0.059,1.174.156,3.264-2.3,3.264-2.7,0-2.5-2.08-2.5-3.264v-4.8C94.566,26.286,94.5,24.218,97.1,24.218Z"/>
    <path id="Rounded_Rectangle_601_copy" data-name="Rounded Rectangle 601 copy" class="cls-5" d="M49,48h7a0.98,0.98,0,0,1,1,1v6a1.092,1.092,0,0,1-1,1H49a0.946,0.946,0,0,1-1-1V49A0.967,0.967,0,0,1,49,48ZM65.925,73.7"/>
    <path id="Rounded_Rectangle_601_copy_2" data-name="Rounded Rectangle 601 copy 2" class="cls-5" d="M65,48h7a0.98,0.98,0,0,1,1,1v6a1.092,1.092,0,0,1-1,1H65a0.946,0.946,0,0,1-1-1V49A0.967,0.967,0,0,1,65,48ZM81.925,73.7"/>
    <path id="Rounded_Rectangle_601_copy_3" data-name="Rounded Rectangle 601 copy 3" class="cls-6" d="M81,48h7a0.98,0.98,0,0,1,1,1v6a1.092,1.092,0,0,1-1,1H81a0.946,0.946,0,0,1-1-1V49A0.967,0.967,0,0,1,81,48ZM97.925,73.7"/>
    <path id="Rounded_Rectangle_601_copy_4" data-name="Rounded Rectangle 601 copy 4" class="cls-5" d="M97,48h7a0.98,0.98,0,0,1,1,1v6a1.092,1.092,0,0,1-1,1H97a0.946,0.946,0,0,1-1-1V49A0.967,0.967,0,0,1,97,48Zm16.925,25.7"/>
    <path id="Rounded_Rectangle_601_copy_5" data-name="Rounded Rectangle 601 copy 5" class="cls-5" d="M49,62h7a0.98,0.98,0,0,1,1,1v6a1.092,1.092,0,0,1-1,1H49a0.946,0.946,0,0,1-1-1V63A0.967,0.967,0,0,1,49,62ZM65.925,87.7"/>
    <path id="Rounded_Rectangle_601_copy_5-2" data-name="Rounded Rectangle 601 copy 5" class="cls-5" d="M65,62h7a0.98,0.98,0,0,1,1,1v6a1.092,1.092,0,0,1-1,1H65a0.946,0.946,0,0,1-1-1V63A0.967,0.967,0,0,1,65,62ZM81.925,87.7"/>
    <path id="Rounded_Rectangle_601_copy_5-3" data-name="Rounded Rectangle 601 copy 5" class="cls-5" d="M81,62h7a0.98,0.98,0,0,1,1,1v6a1.092,1.092,0,0,1-1,1H81a0.946,0.946,0,0,1-1-1V63A0.967,0.967,0,0,1,81,62ZM97.925,87.7"/>
    <path id="Rounded_Rectangle_601_copy_5-4" data-name="Rounded Rectangle 601 copy 5" class="cls-5" d="M97,62h7a0.98,0.98,0,0,1,1,1v6a1.092,1.092,0,0,1-1,1H97a0.946,0.946,0,0,1-1-1V63A0.967,0.967,0,0,1,97,62Zm16.925,25.7"/>
    <path id="Rounded_Rectangle_601_copy_6" data-name="Rounded Rectangle 601 copy 6" class="cls-5" d="M49,76h7a0.98,0.98,0,0,1,1,1v6a1.092,1.092,0,0,1-1,1H49a0.946,0.946,0,0,1-1-1V77A0.967,0.967,0,0,1,49,76Zm16.925,25.7"/>
    <path id="Rounded_Rectangle_601_copy_6-2" data-name="Rounded Rectangle 601 copy 6" class="cls-7" d="M65,76h7a0.98,0.98,0,0,1,1,1v6a1.092,1.092,0,0,1-1,1H65a0.946,0.946,0,0,1-1-1V77A0.967,0.967,0,0,1,65,76Zm16.925,25.7"/>
    <path id="Rounded_Rectangle_601_copy_6-3" data-name="Rounded Rectangle 601 copy 6" class="cls-5" d="M81,76h7a0.98,0.98,0,0,1,1,1v6a1.092,1.092,0,0,1-1,1H81a0.946,0.946,0,0,1-1-1V77A0.967,0.967,0,0,1,81,76Zm16.925,25.7"/>
  </g>
  <g id="clock">
    <circle class="cls-8" cx="108" cy="80" r="17"/>
    <path id="Forma_1" data-name="Forma 1" class="cls-9" d="M115,80h-7V71c0-.75-0.515-0.99-1.509-0.99A1.292,1.292,0,0,0,105,71.356V81.637A1.39,1.39,0,0,0,106.416,83L115,83c1.863,0,2-.612,2-1.363S116.788,80,115,80Z"/>
  </g>
</svg>
