<svg id="icon" xmlns="http://www.w3.org/2000/svg" width="220" height="130" viewBox="0 0 220 130">
  <defs>
    <style>
      .cls-1 {
        fill: #eef3fe;
      }

      .cls-1, .cls-3, .cls-4, .cls-5, .cls-8 {
        fill-rule: evenodd;
      }

      .cls-2, .cls-8 {
        fill: #fff;
      }

      .cls-2 {
        stroke: #e3e3e3;
        stroke-linejoin: round;
        stroke-width: 1px;
      }

      .cls-3 {
        fill: #343439;
      }

      .cls-4 {
        fill: #565657;
      }

      .cls-5 {
        opacity: 0.05;
      }

      .cls-6 {
        fill: #8f94f6;
      }

      .cls-7 {
        fill: #33e2a6;
      }

      .cls-10, .cls-9 {
        fill: #5387ff;
      }

      .cls-9 {
        opacity: 0.9;
      }

      .cls-10 {
        opacity: 0.6;
      }
    </style>
  </defs>
  <path class="cls-1" d="M31,77.019c0.518-12.348,3.106-22.638,28.987-30.87s33.752-11.863,46.693-19.58c10.426-6.394,42.473-5.832,57.974,15.435,10.784,14.8,10.007,34.037-2.07,47.334-10.26,11.3-31.5,20.432-52.8,24.7-21.691,4.344-37.892,1.057-53.939-5.117S30.655,91.768,31,77.019Z"/>
  <g id="bar">
    <rect id="Rounded_Rectangle_593" data-name="Rounded Rectangle 593" class="cls-2" x="22" y="27" width="148" height="86" rx="5" ry="5"/>
    <g id="Bar-2" data-name="Bar">
      <path id="Work" class="cls-3" d="M33.12,35.531H32.011L33.838,42.9h0.916l1.535-5.111,0.109-.663h0.031l0.114,0.663L38.057,42.9h0.916L40.8,35.531H39.691l-1.082,4.813-0.14.987H38.437l-0.177-.987-1.353-4.813h-1l-1.342,4.813-0.177.972-0.031-.005-0.13-.967Zm8.215,4.691a2.942,2.942,0,0,0,.679,2,2.566,2.566,0,0,0,3.686,0,2.947,2.947,0,0,0,.676-2V40.111a2.952,2.952,0,0,0-.679-2,2.319,2.319,0,0,0-1.85-.784,2.3,2.3,0,0,0-1.837.787,2.961,2.961,0,0,0-.676,2v0.111Zm1.025-.111a2.548,2.548,0,0,1,.377-1.432,1.246,1.246,0,0,1,1.111-.572,1.263,1.263,0,0,1,1.121.572,2.521,2.521,0,0,1,.382,1.432v0.111a2.529,2.529,0,0,1-.38,1.437,1.385,1.385,0,0,1-2.235,0,2.542,2.542,0,0,1-.377-1.437V40.111Zm8.075-2.733a1.524,1.524,0,0,0-.172-0.038,1.3,1.3,0,0,0-.218-0.018,1.409,1.409,0,0,0-.809.238,1.918,1.918,0,0,0-.591.663l-0.1-.8H47.631V42.9h1.025V38.988a1.139,1.139,0,0,1,1.114-.714l0.526,0.03ZM54.79,42.9H56l-2.222-2.95,2.045-2.525H54.6L52.907,39.58H52.391V35H51.366V42.9h1.025V40.374h0.526Z"/>
      <g id="_1" data-name="1">
        <g id="_1_copy_5" data-name="1 copy 5">
          <path id="_7:00_AM" data-name="7:00 AM" class="cls-4" d="M34.163,59.887l2.613-6.523V53.1H33v0.717h2.577l0.533-.087-0.4.475-2.269,5.68h0.723Zm4.172-3.945a0.48,0.48,0,0,0,.375.155,0.506,0.506,0,0,0,.389-0.155,0.652,0.652,0,0,0,0-.819,0.515,0.515,0,0,0-.389-0.15,0.488,0.488,0,0,0-.375.15A0.668,0.668,0,0,0,38.336,55.942Zm0,3.906a0.481,0.481,0,0,0,.375.155,0.506,0.506,0,0,0,.389-0.155,0.652,0.652,0,0,0,0-.819,0.515,0.515,0,0,0-.389-0.15,0.488,0.488,0,0,0-.375.15A0.668,0.668,0,0,0,38.336,59.848Zm1.9-.766A1.664,1.664,0,0,0,41.812,60a1.7,1.7,0,0,0,1.551-.882,5.2,5.2,0,0,0,.529-2.627,5.511,5.511,0,0,0-.493-2.641,1.836,1.836,0,0,0-3.128.015,5.2,5.2,0,0,0-.529,2.627A5.517,5.517,0,0,0,40.239,59.082Zm0.574-4.73a1.051,1.051,0,0,1,1-.688,0.964,0.964,0,0,1,.624.2,1.442,1.442,0,0,1,.411.581,3.513,3.513,0,0,1,.226.9,8.934,8.934,0,0,1,.068,1.144,5.35,5.35,0,0,1-.321,2.147,1.057,1.057,0,0,1-1.008.683,0.891,0.891,0,0,1-.592-0.208,1.547,1.547,0,0,1-.411-0.581,3.525,3.525,0,0,1-.24-0.892,7.858,7.858,0,0,1-.077-1.148A5.354,5.354,0,0,1,40.813,54.352Zm4.353,4.73A1.664,1.664,0,0,0,46.739,60a1.7,1.7,0,0,0,1.551-.882,5.2,5.2,0,0,0,.529-2.627,5.511,5.511,0,0,0-.493-2.641,1.836,1.836,0,0,0-3.128.015,5.2,5.2,0,0,0-.529,2.627A5.517,5.517,0,0,0,45.166,59.082Zm0.574-4.73a1.051,1.051,0,0,1,1-.688,0.964,0.964,0,0,1,.624.2,1.443,1.443,0,0,1,.411.581,3.518,3.518,0,0,1,.226.9,8.934,8.934,0,0,1,.068,1.144,5.35,5.35,0,0,1-.321,2.147,1.057,1.057,0,0,1-1.008.683,0.891,0.891,0,0,1-.592-0.208,1.548,1.548,0,0,1-.411-0.581,3.525,3.525,0,0,1-.24-0.892,7.858,7.858,0,0,1-.077-1.148A5.354,5.354,0,0,1,45.74,54.352Zm10.013,5.534h0.8L54.144,53H53.8l-2.4,6.891h0.75l0.63-1.88h2.321ZM53.72,55.263l0.225-1.047h0.009l0.225,1.027,0.7,2.064H53.028Zm8.534,4.623H63V53.1H62.417l-1.89,3.45-0.28.775H60.229l-0.3-.756L57.95,53.1H57.39v6.785H58.1V55.322l-0.127-1.008h0.045l0.326,0.921,1.745,3.072H60.31l1.645-3.063,0.344-.931h0.045l-0.09,1.018v4.555Z"/>
          <path id="_8:00_AM" data-name="8:00 AM" class="cls-4" d="M33.118,79.951a1.519,1.519,0,0,0,.36.548,1.73,1.73,0,0,0,.585.368,2.172,2.172,0,0,0,.8.136,2.312,2.312,0,0,0,.833-0.141,1.791,1.791,0,0,0,.618-0.388,1.624,1.624,0,0,0,.384-0.591,2.123,2.123,0,0,0,.131-0.761,1.823,1.823,0,0,0-.094-0.606,1.719,1.719,0,0,0-.257-0.48,2.233,2.233,0,0,0-.384-0.388,4.257,4.257,0,0,0-.463-0.32,2.808,2.808,0,0,0,.805-0.829,1.914,1.914,0,0,0,.243-0.974,1.548,1.548,0,0,0-.122-0.62,1.425,1.425,0,0,0-.342-0.485,1.58,1.58,0,0,0-.538-0.32,2.061,2.061,0,0,0-.712-0.116,2.116,2.116,0,0,0-.754.126,1.718,1.718,0,0,0-.571.349,1.489,1.489,0,0,0-.365.533,1.809,1.809,0,0,0-.126.688,1.741,1.741,0,0,0,.089.582,1.659,1.659,0,0,0,.243.456,2.03,2.03,0,0,0,.356.364,4.614,4.614,0,0,0,.435.305,2.806,2.806,0,0,0-.964.819A1.83,1.83,0,0,0,33,79.268,1.878,1.878,0,0,0,33.118,79.951ZM36,79.68a1.012,1.012,0,0,1-.262.359,1.13,1.13,0,0,1-.379.213,1.4,1.4,0,0,1-.449.073,1.313,1.313,0,0,1-.51-0.092,1.092,1.092,0,0,1-.37-0.247,1,1,0,0,1-.225-0.368,1.334,1.334,0,0,1-.075-0.446A1.517,1.517,0,0,1,33.97,78.4a2.194,2.194,0,0,1,.815-0.737q0.253,0.136.487,0.281a2.4,2.4,0,0,1,.417.325,1.553,1.553,0,0,1,.295.4,1.1,1.1,0,0,1,.112.509A1.229,1.229,0,0,1,36,79.68Zm-2.05-4.391a0.88,0.88,0,0,1,.211-0.315,1.152,1.152,0,0,1,.337-0.223,1.1,1.1,0,0,1,.449-0.087,1.018,1.018,0,0,1,.707.267,0.973,0.973,0,0,1,.295.761,1.367,1.367,0,0,1-.2.727,2.7,2.7,0,0,1-.623.669q-0.244-.126-0.468-0.266a2.48,2.48,0,0,1-.4-0.305,1.313,1.313,0,0,1-.276-0.373,1.067,1.067,0,0,1-.1-0.48A1.015,1.015,0,0,1,33.947,75.289Zm4.513,1.653a0.506,0.506,0,0,0,.389.155,0.533,0.533,0,0,0,.4-0.155,0.635,0.635,0,0,0,0-.819,0.543,0.543,0,0,0-.4-0.15,0.515,0.515,0,0,0-.389.15A0.65,0.65,0,0,0,38.459,76.942Zm0,3.906a0.507,0.507,0,0,0,.389.155,0.534,0.534,0,0,0,.4-0.155,0.635,0.635,0,0,0,0-.819,0.543,0.543,0,0,0-.4-0.15,0.515,0.515,0,0,0-.389.15A0.65,0.65,0,0,0,38.459,80.848Zm1.971-.766A1.733,1.733,0,0,0,42.059,81a1.774,1.774,0,0,0,1.606-.882,5.051,5.051,0,0,0,.548-2.627,5.349,5.349,0,0,0-.51-2.641,1.937,1.937,0,0,0-3.239.015,5.051,5.051,0,0,0-.548,2.627A5.356,5.356,0,0,0,40.43,80.082Zm0.595-4.73a1.089,1.089,0,0,1,1.035-.688,1.022,1.022,0,0,1,.646.2,1.445,1.445,0,0,1,.426.582,3.418,3.418,0,0,1,.234.9,8.632,8.632,0,0,1,.07,1.144,5.184,5.184,0,0,1-.332,2.147,1.1,1.1,0,0,1-1.044.683,0.943,0.943,0,0,1-.613-0.208,1.551,1.551,0,0,1-.426-0.582,3.436,3.436,0,0,1-.248-0.892,7.6,7.6,0,0,1-.08-1.148A5.188,5.188,0,0,1,41.025,75.352Zm4.508,4.73A1.733,1.733,0,0,0,47.162,81a1.774,1.774,0,0,0,1.606-.882,5.052,5.052,0,0,0,.548-2.627,5.349,5.349,0,0,0-.51-2.641,1.937,1.937,0,0,0-3.239.015,5.051,5.051,0,0,0-.548,2.627A5.356,5.356,0,0,0,45.533,80.082Zm0.595-4.73a1.089,1.089,0,0,1,1.035-.688,1.022,1.022,0,0,1,.646.2,1.445,1.445,0,0,1,.426.582,3.418,3.418,0,0,1,.234.9,8.633,8.633,0,0,1,.07,1.144,5.186,5.186,0,0,1-.332,2.147,1.1,1.1,0,0,1-1.044.683,0.943,0.943,0,0,1-.613-0.208,1.551,1.551,0,0,1-.426-0.582,3.436,3.436,0,0,1-.248-0.892,7.6,7.6,0,0,1-.08-1.148A5.188,5.188,0,0,1,46.127,75.352ZM56.5,80.887H57.32L54.829,74H54.474l-2.481,6.891H52.77l0.652-1.88h2.4Zm-2.105-4.623,0.233-1.047h0.009l0.233,1.027,0.727,2.064H53.673Zm8.837,4.623H64V74.1H63.4l-1.957,3.45-0.29.775H61.13l-0.309-.756-2.05-3.47H58.19v6.785h0.73V76.322L58.79,75.314h0.047l0.337,0.921,1.807,3.072h0.234l1.7-3.063,0.356-.93h0.047l-0.094,1.018v4.555Z"/>
          <path id="_9:00_AM" data-name="9:00 AM" class="cls-4" d="M33.16,99a1.747,1.747,0,0,0,1.01,1,2,2,0,0,0,.722.131,2.174,2.174,0,0,0,.8-0.121,1.385,1.385,0,0,0,.554-0.431,4.061,4.061,0,0,1-.27,1.022,3.152,3.152,0,0,1-.508.838,2.67,2.67,0,0,1-.745.611,2.943,2.943,0,0,1-.973.33L33.915,103a3.486,3.486,0,0,0,1.243-.4,3.1,3.1,0,0,0,.992-0.877,4.293,4.293,0,0,0,.657-1.382,6.9,6.9,0,0,0,.238-1.914,2.747,2.747,0,0,0-.531-1.8,1.818,1.818,0,0,0-1.481-.64,2.184,2.184,0,0,0-.88.165,1.737,1.737,0,0,0-.629.456,1.983,1.983,0,0,0-.382.688,2.75,2.75,0,0,0-.13.863A2.233,2.233,0,0,0,33.16,99ZM34.1,97.037a1.1,1.1,0,0,1,.885-0.373,1.2,1.2,0,0,1,.6.145,1.146,1.146,0,0,1,.414.4,2.009,2.009,0,0,1,.238.582,2.838,2.838,0,0,1,.079.674v0.2a1.547,1.547,0,0,1-.019.223,1,1,0,0,1-.466.407,1.807,1.807,0,0,1-.782.155,1.25,1.25,0,0,1-.917-0.344,1.389,1.389,0,0,1-.349-1.032A1.562,1.562,0,0,1,34.1,97.037Zm4.493,1.9a0.5,0.5,0,0,0,.386.155,0.529,0.529,0,0,0,.4-0.155,0.637,0.637,0,0,0,0-.819,0.539,0.539,0,0,0-.4-0.15,0.511,0.511,0,0,0-.386.15A0.653,0.653,0,0,0,38.594,98.942Zm0,3.906a0.5,0.5,0,0,0,.386.155,0.531,0.531,0,0,0,.4-0.155,0.637,0.637,0,0,0,0-.819,0.539,0.539,0,0,0-.4-0.15,0.511,0.511,0,0,0-.386.15A0.653,0.653,0,0,0,38.594,102.848Zm1.96-.766a1.722,1.722,0,0,0,1.62.921,1.763,1.763,0,0,0,1.6-.882,5.075,5.075,0,0,0,.545-2.627,5.373,5.373,0,0,0-.508-2.641,1.921,1.921,0,0,0-3.222.015,5.074,5.074,0,0,0-.545,2.627A5.38,5.38,0,0,0,40.555,102.082Zm0.591-4.73a1.083,1.083,0,0,1,1.029-.688,1.012,1.012,0,0,1,.643.2,1.443,1.443,0,0,1,.424.582,3.435,3.435,0,0,1,.233.9,8.67,8.67,0,0,1,.07,1.144,5.207,5.207,0,0,1-.331,2.147,1.089,1.089,0,0,1-1.038.683,0.935,0.935,0,0,1-.61-0.208,1.556,1.556,0,0,1-.424-0.581,3.453,3.453,0,0,1-.247-0.892,7.645,7.645,0,0,1-.079-1.149A5.212,5.212,0,0,1,41.146,97.352Zm4.484,4.73a1.722,1.722,0,0,0,1.62.921,1.763,1.763,0,0,0,1.6-.882,5.075,5.075,0,0,0,.545-2.627,5.373,5.373,0,0,0-.508-2.641,1.921,1.921,0,0,0-3.222.015,5.074,5.074,0,0,0-.545,2.627A5.38,5.38,0,0,0,45.63,102.082Zm0.591-4.73a1.083,1.083,0,0,1,1.029-.688,1.012,1.012,0,0,1,.642.2,1.443,1.443,0,0,1,.424.582,3.435,3.435,0,0,1,.233.9,8.67,8.67,0,0,1,.07,1.144,5.207,5.207,0,0,1-.331,2.147,1.089,1.089,0,0,1-1.038.683,0.935,0.935,0,0,1-.61-0.208,1.556,1.556,0,0,1-.424-0.581,3.453,3.453,0,0,1-.247-0.892,7.645,7.645,0,0,1-.079-1.149A5.212,5.212,0,0,1,46.222,97.352Zm10.314,5.535h0.819L54.878,96H54.524l-2.468,6.892h0.773l0.649-1.881h2.391Zm-2.094-4.624,0.232-1.047h0.009l0.232,1.027,0.723,2.064H53.728Zm8.79,4.624H64V96.1H63.4l-1.946,3.45-0.289.776H61.145l-0.307-.756L58.8,96.1H58.221v6.785h0.726V98.322l-0.13-1.008h0.047L59.2,98.234l1.8,3.073h0.233l1.695-3.063,0.354-.93h0.047l-0.093,1.018v4.556Z"/>
        </g>
        <path class="cls-5" d="M32,66H162v1H32V66Zm0,22H162v1H32V88Z"/>
        <rect class="cls-6" x="74" y="52" width="86" height="36"/>
        <rect id="Rectangle_12_copy" data-name="Rectangle 12 copy" class="cls-7" x="82" y="83" width="82" height="19"/>
        <path id="Task_48438" data-name="Task#48438" class="cls-8" d="M83.839,58.1H78.99v0.717h2.037v6.067H81.8V58.819h2.037V58.1ZM83.9,60.99a1.782,1.782,0,0,1,.3-0.145,2.953,2.953,0,0,1,.365-0.11q0.191-.045.374-0.07a2.527,2.527,0,0,1,.341-0.025,1.027,1.027,0,0,1,.748.213,1.068,1.068,0,0,1,.206.746q0,0.233-.028.523a1.756,1.756,0,0,0-.257-0.019H85.7a5.586,5.586,0,0,0-.939.073,2.272,2.272,0,0,0-.729.242,1.233,1.233,0,0,0-.472.456,1.386,1.386,0,0,0-.168.712,1.445,1.445,0,0,0,.107.572,1.267,1.267,0,0,0,.738.707,1.564,1.564,0,0,0,.556.1,1.917,1.917,0,0,0,.533-0.068,1.878,1.878,0,0,0,.411-0.17,1.353,1.353,0,0,0,.3-0.233,1.6,1.6,0,0,0,.21-0.266H86.3l0.2,0.678h0.551a3.312,3.312,0,0,1-.1-0.591q-0.028-.32-0.028-0.678,0-.494.028-1.047t0.028-1.134a2.715,2.715,0,0,0-.051-0.523,1.234,1.234,0,0,0-.206-0.48,1.094,1.094,0,0,0-.448-0.354,1.885,1.885,0,0,0-.78-0.136,4.464,4.464,0,0,0-.986.107,2.639,2.639,0,0,0-.827.33Zm0.5,3.077a0.728,0.728,0,0,1-.234-0.557,0.63,0.63,0,0,1,.126-0.4,0.858,0.858,0,0,1,.336-0.252,1.747,1.747,0,0,1,.486-0.126A4.646,4.646,0,0,1,85.68,62.7q0.131,0,.266,0t0.266,0.014v0.8a1.117,1.117,0,0,1-.145.262,1.149,1.149,0,0,1-.248.247,1.334,1.334,0,0,1-.355.184,1.4,1.4,0,0,1-.467.073A0.841,0.841,0,0,1,84.4,64.068Zm5.774,0.092a1.224,1.224,0,0,1-.663.165,2.361,2.361,0,0,1-.7-0.107,2.681,2.681,0,0,1-.561-0.233l-0.224.659a2.793,2.793,0,0,0,.626.252,3.344,3.344,0,0,0,.906.107,2.076,2.076,0,0,0,.715-0.111,1.466,1.466,0,0,0,.509-0.305,1.183,1.183,0,0,0,.3-0.465,1.7,1.7,0,0,0,.1-0.582,1.3,1.3,0,0,0-.168-0.7A1.535,1.535,0,0,0,90.6,62.4a2.3,2.3,0,0,0-.542-0.281q-0.294-.107-0.542-0.218a1.785,1.785,0,0,1-.416-0.252,0.483,0.483,0,0,1-.168-0.392,0.6,0.6,0,0,1,.191-0.5,1,1,0,0,1,.6-0.145,2.473,2.473,0,0,1,.649.082,2.86,2.86,0,0,1,.519.189l0.177-.64a3.213,3.213,0,0,0-.593-0.218,3.3,3.3,0,0,0-.846-0.092,1.6,1.6,0,0,0-1.065.325,1.268,1.268,0,0,0-.383,1.023,1.206,1.206,0,0,0,.168.678,1.425,1.425,0,0,0,.416.412,2.493,2.493,0,0,0,.542.262q0.294,0.1.542,0.213a1.423,1.423,0,0,1,.416.276,0.609,0.609,0,0,1,.168.455A0.643,0.643,0,0,1,90.174,64.16Zm4.877,0.727h0.925l-1.56-2.19-0.467-.388,0.383-.32,1.43-1.948H94.893L93.445,62.1l-0.383.136V58.1H92.314v6.785h0.748V62.706h0.43Zm3.27-.562h0.645l0.364-1.619H100l0.149-.62H99.471l0.29-1.27h0.71l0.149-.62H99.9l0.355-1.531H99.611L99.256,60.2H98.275l0.355-1.531H97.986L97.631,60.2h-0.7l-0.131.62H97.49l-0.29,1.27H96.463l-0.131.62h0.729L96.7,64.324h0.645l0.364-1.619h0.981Zm-0.187-3.509h0.981l-0.29,1.27H97.845Zm7.924,1.308h-1.1V58h-0.505l-3.1,4.488V62.8h2.878v2.084h0.729V62.8h1.1V62.124Zm-1.832,0h-1.373L102.2,62.2l0.448-.475,1.318-1.851,0.327-.659h0.028l-0.094.795v2.113Zm2.785,1.827a1.5,1.5,0,0,0,.359.548,1.732,1.732,0,0,0,.584.368,2.17,2.17,0,0,0,.8.136,2.3,2.3,0,0,0,.831-0.141,1.786,1.786,0,0,0,.617-0.388,1.623,1.623,0,0,0,.383-0.591,2.129,2.129,0,0,0,.131-0.761,1.833,1.833,0,0,0-.094-0.606,1.71,1.71,0,0,0-.257-0.48,2.2,2.2,0,0,0-.383-0.388,4.192,4.192,0,0,0-.462-0.32,2.811,2.811,0,0,0,.8-0.829,1.916,1.916,0,0,0,.243-0.974,1.547,1.547,0,0,0-.121-0.62,1.428,1.428,0,0,0-.341-0.485,1.583,1.583,0,0,0-.538-0.32,2.047,2.047,0,0,0-.71-0.116,2.109,2.109,0,0,0-.752.126,1.718,1.718,0,0,0-.57.349,1.484,1.484,0,0,0-.364.533,1.812,1.812,0,0,0-.126.688,1.753,1.753,0,0,0,.088.582,1.708,1.708,0,0,0,.243.456,2.036,2.036,0,0,0,.355.364,4.6,4.6,0,0,0,.435.305,2.809,2.809,0,0,0-.963.819,1.837,1.837,0,0,0-.308,1.061A1.882,1.882,0,0,0,107.012,63.951Zm2.873-.271a1.019,1.019,0,0,1-.262.359,1.127,1.127,0,0,1-.378.213,1.394,1.394,0,0,1-.449.073,1.306,1.306,0,0,1-.509-0.092,1.1,1.1,0,0,1-.369-0.247,0.983,0.983,0,0,1-.224-0.368,1.334,1.334,0,0,1-.075-0.446,1.52,1.52,0,0,1,.243-0.775,2.192,2.192,0,0,1,.813-0.737q0.252,0.136.486,0.281a2.4,2.4,0,0,1,.415.325,1.549,1.549,0,0,1,.3.4,1.1,1.1,0,0,1,.112.509A1.237,1.237,0,0,1,109.885,63.68Zm-2.046-4.391a0.863,0.863,0,0,1,.21-0.315,1.139,1.139,0,0,1,.336-0.223,1.093,1.093,0,0,1,.449-0.087,1.013,1.013,0,0,1,.7.267,0.975,0.975,0,0,1,.294.761,1.377,1.377,0,0,1-.2.727,2.709,2.709,0,0,1-.622.669q-0.243-.126-0.467-0.267a2.445,2.445,0,0,1-.4-0.305,1.332,1.332,0,0,1-.276-0.373,1.078,1.078,0,0,1-.1-0.48A1.012,1.012,0,0,1,107.839,59.289Zm8.4,2.835h-1.1V58h-0.505l-3.1,4.488V62.8h2.878v2.084h0.729V62.8h1.1V62.124Zm-1.831,0h-1.374l-0.654.078,0.449-.475,1.317-1.851,0.327-.659h0.028l-0.093.795v2.113Zm3.555,2.127a2.481,2.481,0,0,1-.509-0.179l-0.2.688a3.067,3.067,0,0,0,.588.174,3.856,3.856,0,0,0,.757.068,2.589,2.589,0,0,0,.869-0.145,2.086,2.086,0,0,0,.715-0.422,1.979,1.979,0,0,0,.481-0.683,2.314,2.314,0,0,0,.178-0.931,2.188,2.188,0,0,0-.131-0.78,1.754,1.754,0,0,0-.365-0.591,1.565,1.565,0,0,0-.551-0.378,1.93,1.93,0,0,0-.691-0.141L118.794,61V60.981l0.327-.281,1.486-2.316V58.1h-3.336v0.717h1.85l0.607-.1-0.429.426L117.953,61.3v0.281h0.692a1.6,1.6,0,0,1,1.069.33,1.249,1.249,0,0,1,.388,1.008,1.432,1.432,0,0,1-.112.572,1.363,1.363,0,0,1-.308.451,1.3,1.3,0,0,1-.467.286,1.736,1.736,0,0,1-.589.1A2.75,2.75,0,0,1,117.967,64.252Zm4.322-.3a1.53,1.53,0,0,0,.359.548,1.732,1.732,0,0,0,.584.368,2.17,2.17,0,0,0,.8.136,2.3,2.3,0,0,0,.831-0.141,1.786,1.786,0,0,0,.617-0.388,1.623,1.623,0,0,0,.383-0.591,2.129,2.129,0,0,0,.131-0.761,1.808,1.808,0,0,0-.094-0.606,1.71,1.71,0,0,0-.257-0.48,2.2,2.2,0,0,0-.383-0.388,4.192,4.192,0,0,0-.462-0.32,2.8,2.8,0,0,0,.8-0.829,1.916,1.916,0,0,0,.243-0.974,1.547,1.547,0,0,0-.121-0.62,1.428,1.428,0,0,0-.341-0.485,1.583,1.583,0,0,0-.538-0.32,2.047,2.047,0,0,0-.71-0.116,2.109,2.109,0,0,0-.752.126,1.718,1.718,0,0,0-.57.349,1.484,1.484,0,0,0-.364.533,1.812,1.812,0,0,0-.126.688,1.753,1.753,0,0,0,.088.582,1.708,1.708,0,0,0,.243.456,2.036,2.036,0,0,0,.355.364,4.6,4.6,0,0,0,.435.305,2.8,2.8,0,0,0-.962.819,1.83,1.83,0,0,0-.309,1.061A1.882,1.882,0,0,0,122.289,63.951Zm2.873-.271a1.019,1.019,0,0,1-.262.359,1.127,1.127,0,0,1-.378.213,1.394,1.394,0,0,1-.449.073,1.306,1.306,0,0,1-.509-0.092,1.1,1.1,0,0,1-.369-0.247,1,1,0,0,1-.224-0.368,1.334,1.334,0,0,1-.075-0.446,1.52,1.52,0,0,1,.243-0.775,2.192,2.192,0,0,1,.813-0.737q0.252,0.136.486,0.281a2.442,2.442,0,0,1,.416.325,1.568,1.568,0,0,1,.294.4,1.1,1.1,0,0,1,.112.509A1.237,1.237,0,0,1,125.162,63.68Zm-2.046-4.391a0.863,0.863,0,0,1,.21-0.315,1.139,1.139,0,0,1,.336-0.223,1.093,1.093,0,0,1,.449-0.087,1.013,1.013,0,0,1,.7.267,0.975,0.975,0,0,1,.294.761,1.377,1.377,0,0,1-.2.727,2.69,2.69,0,0,1-.622.669c-0.162-.084-0.317-0.173-0.467-0.267a2.489,2.489,0,0,1-.4-0.305,1.332,1.332,0,0,1-.276-0.373,1.078,1.078,0,0,1-.1-0.48A1.012,1.012,0,0,1,123.116,59.289Z"/>
        <path id="Meeting_with_teams" data-name="Meeting with teams" class="cls-8" d="M84.891,77.147h0.756V71.061H85.055l-1.9,3.1-0.282.7H82.851l-0.3-.678-1.995-3.113H79.991v6.086H80.7V73.052l-0.128-.9h0.046l0.328,0.826L82.7,75.73h0.228l1.658-2.747,0.346-.835h0.046l-0.091.913v4.086Zm5.282-.852a1.335,1.335,0,0,1-.465.243,1.929,1.929,0,0,1-.619.1,1.866,1.866,0,0,1-.678-0.109,1.1,1.1,0,0,1-.451-0.313,1.3,1.3,0,0,1-.255-0.5,2.545,2.545,0,0,1-.082-0.678h2.924a4.121,4.121,0,0,0,.055-0.635,2.123,2.123,0,0,0-.155-0.883,1.316,1.316,0,0,0-.4-0.517,1.408,1.408,0,0,0-.556-0.248,3,3,0,0,0-.619-0.065,1.885,1.885,0,0,0-1.484.582,2.471,2.471,0,0,0-.519,1.7,3.437,3.437,0,0,0,.118.939,1.958,1.958,0,0,0,.364.717,1.6,1.6,0,0,0,.629.461,2.316,2.316,0,0,0,.9.161,3.106,3.106,0,0,0,.879-0.122,2.094,2.094,0,0,0,.688-0.33ZM89.627,73.57a1.294,1.294,0,0,1,.264.926H87.632a1.318,1.318,0,0,1,.387-0.922A1.3,1.3,0,0,1,88.88,73.3,1.008,1.008,0,0,1,89.627,73.57ZM94.7,76.3a1.334,1.334,0,0,1-.464.243,1.929,1.929,0,0,1-.619.1,1.867,1.867,0,0,1-.678-0.109,1.1,1.1,0,0,1-.451-0.313,1.3,1.3,0,0,1-.255-0.5,2.545,2.545,0,0,1-.082-0.678h2.924a4.12,4.12,0,0,0,.055-0.635,2.124,2.124,0,0,0-.155-0.883,1.315,1.315,0,0,0-.4-0.517,1.407,1.407,0,0,0-.556-0.248A3,3,0,0,0,93.4,72.7a1.885,1.885,0,0,0-1.485.582,2.471,2.471,0,0,0-.519,1.7,3.437,3.437,0,0,0,.118.939,1.958,1.958,0,0,0,.364.717,1.6,1.6,0,0,0,.628.461,2.316,2.316,0,0,0,.9.161,3.105,3.105,0,0,0,.879-0.122,2.094,2.094,0,0,0,.688-0.33ZM94.153,73.57a1.294,1.294,0,0,1,.264.926H92.159a1.318,1.318,0,0,1,.387-0.922,1.3,1.3,0,0,1,.861-0.269A1.008,1.008,0,0,1,94.153,73.57Zm1.521-.161h0.71v2.539a1.7,1.7,0,0,0,.228,1,0.923,0.923,0,0,0,.783.3,2.708,2.708,0,0,0,.628-0.07A2.883,2.883,0,0,0,98.561,77l-0.164-.53q-0.2.078-.364,0.126a1.445,1.445,0,0,1-.4.048,0.437,0.437,0,0,1-.4-0.187,1.26,1.26,0,0,1-.118-0.639V73.409h1.239V72.8H97.113V71.739l-0.729.2V72.8h-0.71v0.609Zm3.843,3.739h0.729V72.8H99.517v4.347ZM99.5,71.809a0.51,0.51,0,0,0,.36.13,0.563,0.563,0,0,0,.374-0.13,0.414,0.414,0,0,0,.155-0.33,0.453,0.453,0,0,0-.155-0.343,0.532,0.532,0,0,0-.374-0.144,0.483,0.483,0,0,0-.36.144,0.472,0.472,0,0,0-.141.343A0.43,0.43,0,0,0,99.5,71.809Zm5.951,5.338V74.522a3.51,3.51,0,0,0-.095-0.891,1.36,1.36,0,0,0-.283-0.561,0.987,0.987,0,0,0-.469-0.291,2.344,2.344,0,0,0-.655-0.083,2,2,0,0,0-.879.178,1.64,1.64,0,0,0-.588.456H102.45l-0.137-.53H101.8v4.347h0.729V74.174a1.317,1.317,0,0,1,.442-0.622,1.246,1.246,0,0,1,.8-0.248,0.8,0.8,0,0,1,.752.343,2.038,2.038,0,0,1,.2,1.022v2.478h0.728Zm4.818-4.165a5.111,5.111,0,0,0-.66-0.183,4.35,4.35,0,0,0-.888-0.078,2.169,2.169,0,0,0-1.639.578,2.346,2.346,0,0,0-.556,1.691,2.734,2.734,0,0,0,.433,1.7,1.617,1.617,0,0,0,1.352.548,1.723,1.723,0,0,0,.738-0.135,1.2,1.2,0,0,0,.464-0.387h0.037v0.417a2.612,2.612,0,0,1-.055.57,0.811,0.811,0,0,1-.2.391,0.826,0.826,0,0,1-.387.217,2.456,2.456,0,0,1-.624.065,2.605,2.605,0,0,1-.665-0.07q-0.255-.07-0.465-0.148l-0.191.591a2.734,2.734,0,0,0,.569.169,4.75,4.75,0,0,0,.879.065,2.093,2.093,0,0,0,1.389-.4,1.545,1.545,0,0,0,.469-1.243V72.983Zm-2.368,3.53a0.978,0.978,0,0,1-.355-0.339,1.572,1.572,0,0,1-.2-0.522,3.234,3.234,0,0,1-.064-0.669,1.849,1.849,0,0,1,.355-1.252,1.238,1.238,0,0,1,.975-0.4,2.263,2.263,0,0,1,.929.165v2.226a1.239,1.239,0,0,1-.374.691A1.282,1.282,0,0,1,107.905,76.513ZM116.53,72.8l-0.975,2.513-0.218.861h-0.009l-0.155-.843-0.9-2.53h-0.792l1.585,4.443h0.355l1.147-2.861,0.183-.722h0.027l0.173,0.713,1.193,2.869H118.5l1.53-4.443h-0.692l-0.81,2.521-0.174.852h-0.018l-0.227-.835L117.058,72.8H116.53Zm4.426,4.347h0.729V72.8h-0.729v4.347Zm-0.014-5.338a0.51,0.51,0,0,0,.36.13,0.563,0.563,0,0,0,.374-0.13,0.413,0.413,0,0,0,.154-0.33,0.452,0.452,0,0,0-.154-0.343,0.532,0.532,0,0,0-.374-0.144,0.483,0.483,0,0,0-.36.144,0.473,0.473,0,0,0-.141.343A0.43,0.43,0,0,0,120.942,71.809Zm1.7,1.6h0.71v2.539a1.694,1.694,0,0,0,.228,1,0.924,0.924,0,0,0,.783.3,2.714,2.714,0,0,0,.629-0.07A2.887,2.887,0,0,0,125.528,77l-0.164-.53c-0.134.052-.255,0.094-0.364,0.126a1.449,1.449,0,0,1-.4.048,0.438,0.438,0,0,1-.4-0.187,1.261,1.261,0,0,1-.118-0.639V73.409h1.239V72.8H124.08V71.739l-0.729.2V72.8h-0.71v0.609Zm7.34,3.739V74.522a3.808,3.808,0,0,0-.086-0.891,1.294,1.294,0,0,0-.273-0.561,0.992,0.992,0,0,0-.469-0.291,2.388,2.388,0,0,0-.665-0.083,1.882,1.882,0,0,0-.824.161,1.784,1.784,0,0,0-.57.43h-0.036V71.061h-0.729v6.086h0.729v-2.9a1.186,1.186,0,0,1,.446-0.683,1.243,1.243,0,0,1,.774-0.265,1.167,1.167,0,0,1,.488.087,0.7,0.7,0,0,1,.3.256,1.11,1.11,0,0,1,.15.426,3.856,3.856,0,0,1,.041.6v2.478h0.728Zm3.161-3.739h0.71v2.539a1.694,1.694,0,0,0,.228,1,0.924,0.924,0,0,0,.783.3,2.714,2.714,0,0,0,.629-0.07A2.887,2.887,0,0,0,136.029,77l-0.164-.53c-0.134.052-.255,0.094-0.364,0.126a1.449,1.449,0,0,1-.4.048,0.438,0.438,0,0,1-.4-0.187,1.261,1.261,0,0,1-.118-0.639V73.409h1.238V72.8h-1.238V71.739l-0.729.2V72.8h-0.71v0.609Zm6.639,2.886a1.332,1.332,0,0,1-.464.243,1.932,1.932,0,0,1-.62.1,1.864,1.864,0,0,1-.678-0.109,1.1,1.1,0,0,1-.451-0.313,1.307,1.307,0,0,1-.255-0.5,2.529,2.529,0,0,1-.082-0.678h2.924a4.165,4.165,0,0,0,.054-0.635,2.11,2.11,0,0,0-.155-0.883,1.311,1.311,0,0,0-.4-0.517,1.412,1.412,0,0,0-.556-0.248,3,3,0,0,0-.619-0.065,1.885,1.885,0,0,0-1.485.582,2.472,2.472,0,0,0-.519,1.7,3.437,3.437,0,0,0,.119.939,1.944,1.944,0,0,0,.364.717,1.6,1.6,0,0,0,.628.461,2.318,2.318,0,0,0,.9.161,3.108,3.108,0,0,0,.879-0.122,2.091,2.091,0,0,0,.687-0.33Zm-0.546-2.726a1.294,1.294,0,0,1,.264.926H137.24a1.324,1.324,0,0,1,.387-0.922,1.3,1.3,0,0,1,.861-0.269A1.008,1.008,0,0,1,139.235,73.57Zm2.277,0.083a1.786,1.786,0,0,1,.3-0.13,3.049,3.049,0,0,1,.355-0.1c0.124-.027.246-0.048,0.364-0.063a2.666,2.666,0,0,1,.333-0.022,1.059,1.059,0,0,1,.728.191,0.9,0.9,0,0,1,.2.669,4.6,4.6,0,0,1-.027.469,1.86,1.86,0,0,0-.25-0.017H143.26a5.9,5.9,0,0,0-.915.065,2.348,2.348,0,0,0-.71.217,1.091,1.091,0,0,0-.624,1.048,1.218,1.218,0,0,0,.1.513,1.167,1.167,0,0,0,.287.387,1.28,1.28,0,0,0,.433.248,1.641,1.641,0,0,0,.542.087,2.02,2.02,0,0,0,.519-0.061A1.933,1.933,0,0,0,143.3,77a1.323,1.323,0,0,0,.3-0.209,1.479,1.479,0,0,0,.205-0.239h0.045l0.191,0.609h0.538a2.713,2.713,0,0,1-.1-0.53q-0.029-.287-0.028-0.609,0-.443.028-0.939T144.5,74.07a2.271,2.271,0,0,0-.05-0.47,1.061,1.061,0,0,0-.2-0.43,1.049,1.049,0,0,0-.437-0.317,1.977,1.977,0,0,0-.76-0.122,4.71,4.71,0,0,0-.961.1,2.705,2.705,0,0,0-.806.3Zm0.482,2.76a0.628,0.628,0,0,1-.227-0.5,0.535,0.535,0,0,1,.123-0.361,0.833,0.833,0,0,1,.327-0.226,1.823,1.823,0,0,1,.474-0.113,4.915,4.915,0,0,1,.551-0.03c0.085,0,.172,0,0.26,0s0.174,0.007.259,0.013v0.722a0.955,0.955,0,0,1-.141.235,1.085,1.085,0,0,1-.241.222,1.365,1.365,0,0,1-.346.165,1.477,1.477,0,0,1-.456.065A0.863,0.863,0,0,1,141.994,76.413Zm7.277,0.735v-2.9a1.387,1.387,0,0,1,.364-0.7,0.988,0.988,0,0,1,.711-0.243,1.118,1.118,0,0,1,.442.074,0.582,0.582,0,0,1,.264.226,0.969,0.969,0,0,1,.127.383,4.065,4.065,0,0,1,.032.543v2.617h0.729V74.539a4.342,4.342,0,0,0-.078-0.9,1.3,1.3,0,0,0-.25-0.565,0.911,0.911,0,0,0-.437-0.291,2.2,2.2,0,0,0-.647-0.083,1.783,1.783,0,0,0-.833.191,1.452,1.452,0,0,0-.579.53,1.054,1.054,0,0,0-.432-0.561,1.418,1.418,0,0,0-.715-0.161,1.743,1.743,0,0,0-.843.178,2.131,2.131,0,0,0-.569.456h-0.036l-0.137-.53h-0.51v4.347H146.6V74.157a1.267,1.267,0,0,1,.387-0.609,1.018,1.018,0,0,1,.7-0.243,0.964,0.964,0,0,1,.442.087,0.6,0.6,0,0,1,.26.261,1.3,1.3,0,0,1,.123.43,5.024,5.024,0,0,1,.032.6v2.46h0.728Zm5.747-.652a1.275,1.275,0,0,1-.647.148,2.485,2.485,0,0,1-.683-0.1,2.741,2.741,0,0,1-.546-0.209l-0.219.591a2.88,2.88,0,0,0,.61.226,3.533,3.533,0,0,0,.884.1,2.191,2.191,0,0,0,.7-0.1,1.463,1.463,0,0,0,.5-0.274,1.065,1.065,0,0,0,.3-0.417,1.408,1.408,0,0,0,.1-0.522,1.1,1.1,0,0,0-.164-0.63,1.441,1.441,0,0,0-.406-0.4,2.316,2.316,0,0,0-.528-0.252q-0.286-.1-0.528-0.2a1.767,1.767,0,0,1-.405-0.226,0.417,0.417,0,0,1-.164-0.352,0.514,0.514,0,0,1,.186-0.452,1.045,1.045,0,0,1,.588-0.13,2.618,2.618,0,0,1,.633.074,2.958,2.958,0,0,1,.5.17l0.173-.574a3.3,3.3,0,0,0-.578-0.2,3.485,3.485,0,0,0-.824-0.083,1.651,1.651,0,0,0-1.039.291,1.091,1.091,0,0,0-.373.917,1.017,1.017,0,0,0,.164.609,1.335,1.335,0,0,0,.405.37,2.523,2.523,0,0,0,.529.235q0.286,0.091.528,0.191a1.392,1.392,0,0,1,.405.248,0.523,0.523,0,0,1,.164.409A0.56,0.56,0,0,1,155.018,76.5Z"/>
      </g>
    </g>
    <g id="_1-2" data-name="1">
      <g>
        <rect id="Rounded_Rectangle_593_copy" data-name="Rounded Rectangle 593 copy" class="cls-2" x="132" y="13" width="66" height="23" rx="5" ry="5"/>
        <rect id="Rounded_Rectangle_600" data-name="Rounded Rectangle 600" class="cls-9" x="138" y="17" width="6" height="6" rx="1" ry="1"/>
        <rect id="Rounded_Rectangle_600_copy" data-name="Rounded Rectangle 600 copy" class="cls-9" x="138" y="26" width="6" height="6" rx="1" ry="1"/>
        <rect id="Rounded_Rectangle_599" data-name="Rounded Rectangle 599" class="cls-10" x="148" y="19" width="41" height="3" rx="1.2" ry="1.2"/>
        <rect id="Rounded_Rectangle_599_copy" data-name="Rounded Rectangle 599 copy" class="cls-10" x="148" y="28" width="28" height="3" rx="1.2" ry="1.2"/>
      </g>
    </g>
  </g>
</svg>
