<svg id="icon" xmlns="http://www.w3.org/2000/svg" width="181" height="122" viewBox="0 0 181 122">
  <defs>
    <style>
      .cls-1 {
        fill: #eef3fe;
      }

      .cls-1, .cls-10, .cls-11, .cls-13, .cls-15, .cls-2, .cls-3, .cls-4, .cls-5, .cls-6, .cls-8, .cls-9 {
        fill-rule: evenodd;
      }

      .cls-2 {
        fill: #f3d5af;
      }

      .cls-3 {
        fill: #8388e4;
      }

      .cls-15, .cls-4, .cls-7, .cls-9 {
        fill: #fff;
      }

      .cls-4 {
        opacity: 0.5;
      }

      .cls-5 {
        fill: #fbe3c5;
      }

      .cls-6 {
        fill: #343439;
      }

      .cls-7, .cls-9 {
        stroke: #e3e3e3;
        stroke-linejoin: round;
        stroke-width: 1px;
      }

      .cls-8 {
        fill: #6493ff;
      }

      .cls-10, .cls-12 {
        fill: #dee8ea;
      }

      .cls-11 {
        fill: #ffd64d;
      }

      .cls-13 {
        fill: #86abff;
      }

      .cls-14 {
        fill: #eeb907;
      }
    </style>
  </defs>
  <path class="cls-1" d="M16,68.019c0.518-12.348,3.106-22.638,28.987-30.87S78.739,25.287,91.68,17.569c10.426-6.394,42.473-5.832,57.974,15.435,10.784,14.8,10.007,34.037-2.07,47.334-10.26,11.3-31.5,20.432-52.8,24.7-21.692,4.344-37.893,1.057-53.939-5.117S15.655,82.768,16,68.019Z"/>
  <g id="user">
    <path class="cls-2" d="M69.809,60.01s-2.445,5.227-4.874,6.071L75.9,74.58l10.966-1.214-1.218-7.285s-1.362-1.018-3.656-6.071C79.522,54.565,69.809,60.01,69.809,60.01Z"/>
    <path class="cls-3" d="M67.45,63.759S42.48,67.231,43.32,95.613c0,0,30.314,20.367,62.884,1.214,0,0,3.937-28.221-21.774-34C84.43,62.829,77.045,75.332,67.45,63.759Z"/>
    <path class="cls-4" d="M73.464,68.9a4.638,4.638,0,0,0,1.218,4.857L72.7,103.332s-0.115,2.081,2.972,2.157c2.24,0.054,3.261-1.053,3.388-2.157L77.12,73.757s2.21-2.548,1.219-4.857C78.289,68.2,73.949,68.575,73.464,68.9Z"/>
    <path class="cls-5" d="M61.28,43.011S57.9,47.564,63.717,50.3c0,0,.212,6.583,6.092,9.714C70.342,60.161,84.667,64.6,86.867,50.3c0,0,4.781-2.675,2.437-7.285,0,0-1.768-8.594-2.437-8.5s-12.185-3.643-12.185-3.643l-13.4,6.071v6.071"/>
    <path class="cls-6" d="M60,44s4-1.236,6.153-3.418c0,0,12.188,1.838,16.088-2.773,0,0,2.782-.434,5.845,3.987,0,0,.985,4.831,2.914.2,0,0,2.413-13.213-9.007-18.417C81.993,23.583,59.092,15.331,60,44Z"/>
  </g>
  <g id="Calener">
    <rect id="Rounded_Rectangle_601" data-name="Rounded Rectangle 601" class="cls-7" x="94" y="70" width="41" height="37" rx="6" ry="6"/>
    <path class="cls-8" d="M93,78V75c0-2.534-.818-6,6-6h31a4.67,4.67,0,0,1,5,5v4H93Z"/>
    <path id="Rounded_Rectangle_600" data-name="Rounded Rectangle 600" class="cls-9" d="M101.854,67.993c1.21,0,1.375,1.268,1.341,1.928v2.7c0.036,0.66.05,1.8-1.35,1.8a1.459,1.459,0,0,1-1.35-1.8v-2.7C100.47,69.26,100.669,67.989,101.854,67.993Zm11.688,0.078a1.393,1.393,0,0,1,1.353,1.851v2.7c-0.033.661-.22,1.84-1.314,1.84a1.436,1.436,0,0,1-1.386-1.84v-2.7C112.229,69.261,112.169,68.071,113.542,68.071Zm11.742,0.022c1.4,0,1.345,1.168,1.311,1.829v2.7c-0.033.661,0.088,1.836-1.294,1.836-1.516,0-1.406-1.17-1.406-1.836v-2.7C123.86,69.256,123.824,68.093,125.284,68.093Z"/>
    <path id="Rounded_Rectangle_601_copy" data-name="Rounded Rectangle 601 copy" class="cls-10" d="M100.5,81.622h2.7a0.833,0.833,0,0,1,.9.9v2.7a0.8,0.8,0,0,1-.9.9h-2.7a0.822,0.822,0,0,1-.9-0.9v-2.7A0.837,0.837,0,0,1,100.5,81.622Zm8.942,14.307"/>
    <path id="Rounded_Rectangle_601_copy_2" data-name="Rounded Rectangle 601 copy 2" class="cls-10" d="M124.8,81.622h2.7a0.833,0.833,0,0,1,.9.9v2.7a0.8,0.8,0,0,1-.9.9h-2.7a0.821,0.821,0,0,1-.9-0.9v-2.7A0.837,0.837,0,0,1,124.8,81.622Z"/>
    <path id="Rounded_Rectangle_601_copy_3" data-name="Rounded Rectangle 601 copy 3" class="cls-10" d="M108.6,81.622h2.7a0.833,0.833,0,0,1,.9.9v2.7a0.8,0.8,0,0,1-.9.9h-2.7a0.822,0.822,0,0,1-.9-0.9v-2.7A0.837,0.837,0,0,1,108.6,81.622Z"/>
    <path id="Rounded_Rectangle_601_copy_5" data-name="Rounded Rectangle 601 copy 5" class="cls-11" d="M116.7,81.622h2.7a0.833,0.833,0,0,1,.9.9v2.7a0.8,0.8,0,0,1-.9.9h-2.7a0.822,0.822,0,0,1-.9-0.9v-2.7A0.837,0.837,0,0,1,116.7,81.622Z"/>
    <path id="Rounded_Rectangle_601_copy_4" data-name="Rounded Rectangle 601 copy 4" class="cls-10" d="M100.5,89.722h2.7a0.833,0.833,0,0,1,.9.9v2.7a0.8,0.8,0,0,1-.9.9h-2.7a0.822,0.822,0,0,1-.9-0.9v-2.7A0.837,0.837,0,0,1,100.5,89.722Zm8.942,14.307"/>
    <path id="Rounded_Rectangle_601_copy_4-2" data-name="Rounded Rectangle 601 copy 4" class="cls-10" d="M124.8,89.722h2.7a0.833,0.833,0,0,1,.9.9v2.7a0.8,0.8,0,0,1-.9.9h-2.7a0.821,0.821,0,0,1-.9-0.9v-2.7A0.837,0.837,0,0,1,124.8,89.722Z"/>
    <rect id="Rounded_Rectangle_601_copy_4-3" data-name="Rounded Rectangle 601 copy 4" class="cls-12" x="107.688" y="89.719" width="4.5" height="4.5" rx="1" ry="1"/>
    <path id="Rounded_Rectangle_601_copy_6" data-name="Rounded Rectangle 601 copy 6" class="cls-10" d="M116.7,89.722h2.7a0.833,0.833,0,0,1,.9.9v2.7a0.8,0.8,0,0,1-.9.9h-2.7a0.822,0.822,0,0,1-.9-0.9v-2.7A0.837,0.837,0,0,1,116.7,89.722Z"/>
    <path id="Rounded_Rectangle_601_copy_7" data-name="Rounded Rectangle 601 copy 7" class="cls-10" d="M100.5,97.822h2.7a0.833,0.833,0,0,1,.9.9v2.7a0.8,0.8,0,0,1-.9.9h-2.7a0.822,0.822,0,0,1-.9-0.9v-2.7A0.837,0.837,0,0,1,100.5,97.822Zm8.942,14.307"/>
    <path id="Rounded_Rectangle_601_copy_7-2" data-name="Rounded Rectangle 601 copy 7" class="cls-13" d="M108.6,97.822h2.7a0.833,0.833,0,0,1,.9.9v2.7a0.8,0.8,0,0,1-.9.9h-2.7a0.822,0.822,0,0,1-.9-0.9v-2.7A0.837,0.837,0,0,1,108.6,97.822Z"/>
    <path id="Rounded_Rectangle_601_copy_7-3" data-name="Rounded Rectangle 601 copy 7" class="cls-10" d="M116.7,97.822h2.7a0.833,0.833,0,0,1,.9.9v2.7a0.8,0.8,0,0,1-.9.9h-2.7a0.822,0.822,0,0,1-.9-0.9v-2.7A0.837,0.837,0,0,1,116.7,97.822Z"/>
  </g>
  <g id="clock_copy" data-name="clock copy">
    <circle class="cls-14" cx="111" cy="53" r="9"/>
    <path id="Forma_1" data-name="Forma 1" class="cls-15" d="M115,53.385h-3.5V48.538c0-.4-0.258-0.533-0.755-0.533a0.669,0.669,0,0,0-.746.724v5.536a0.721,0.721,0,0,0,.709.732L115,55c0.931,0,1-.33,1-0.734A0.808,0.808,0,0,0,115,53.385Z"/>
  </g>
</svg>
