<svg id="icon" xmlns="http://www.w3.org/2000/svg" width="181" height="122" viewBox="0 0 181 122">
  <defs>
    <style>
      .cls-1, .cls-3 {
        fill: #eef3fe;
      }

      .cls-1, .cls-4, .cls-5, .cls-7 {
        fill-rule: evenodd;
      }

      .cls-2, .cls-6 {
        fill: #fff;
      }

      .cls-2, .cls-3 {
        stroke: #e3e3e3;
        stroke-linejoin: round;
        stroke-width: 1px;
      }

      .cls-4 {
        fill: #3c3c3c;
      }

      .cls-5 {
        fill: #5387ff;
      }

      .cls-7 {
        fill: #3be2a9;
      }
    </style>
  </defs>
  <path class="cls-1" d="M20,68.019c0.518-12.348,3.106-22.638,28.987-30.87S82.739,25.287,95.68,17.569c10.426-6.394,42.473-5.832,57.974,15.435,10.784,14.8,10.007,34.037-2.07,47.334-10.26,11.3-31.5,20.432-52.8,24.7-21.692,4.344-37.893,1.057-53.939-5.117S19.655,82.768,20,68.019Z"/>
  <g id="Graph">
    <rect id="Rounded_Rectangle_1326" data-name="Rounded Rectangle 1326" class="cls-2" x="57" y="22" width="67" height="82" rx="4" ry="4"/>
    <g id="tick-1">
      <rect id="Rounded_Rectangle_601" data-name="Rounded Rectangle 601" class="cls-3" x="64" y="45" width="12" height="12" rx="1" ry="1"/>
      <path id="Cleaning" class="cls-4" d="M84.772,52.356a1.743,1.743,0,0,1-.466.2,2.4,2.4,0,0,1-.648.078,1.862,1.862,0,0,1-.763-0.156,1.674,1.674,0,0,1-.611-0.467,2.274,2.274,0,0,1-.409-0.778,3.6,3.6,0,0,1-.148-1.089,3.758,3.758,0,0,1,.157-1.167,2.173,2.173,0,0,1,.417-0.769,1.535,1.535,0,0,1,.59-0.423,1.815,1.815,0,0,1,.669-0.13,2.486,2.486,0,0,1,1.131.207l0.165-.639a2.509,2.509,0,0,0-.537-0.151,4.747,4.747,0,0,0-.809-0.056,2.492,2.492,0,0,0-.908.173,2.217,2.217,0,0,0-.8.549,2.77,2.77,0,0,0-.578.968A4.167,4.167,0,0,0,81,50.143a4.441,4.441,0,0,0,.2,1.4,2.758,2.758,0,0,0,.537.972,2.13,2.13,0,0,0,.792.566,2.546,2.546,0,0,0,.974.186,4.03,4.03,0,0,0,.809-0.078,1.45,1.45,0,0,0,.627-0.277Zm1.849-5.237H85.96V52.3a0.98,0.98,0,0,0,.239.748,0.866,0.866,0,0,0,.611.22,2.314,2.314,0,0,0,.409-0.043,1.33,1.33,0,0,0,.367-0.112l-0.074-.544a1.284,1.284,0,0,1-.281.078,1.665,1.665,0,0,1-.231.017,0.332,0.332,0,0,1-.281-0.13,0.725,0.725,0,0,1-.1-0.432V47.119Zm4.44,5.2a1.181,1.181,0,0,1-.421.242,1.611,1.611,0,0,1-.561.1,1.556,1.556,0,0,1-.615-0.108,1.006,1.006,0,0,1-.409-0.311,1.337,1.337,0,0,1-.231-0.5,2.762,2.762,0,0,1-.074-0.674H91.4a4.481,4.481,0,0,0,.049-0.631,2.292,2.292,0,0,0-.14-0.877,1.3,1.3,0,0,0-.363-0.514,1.223,1.223,0,0,0-.5-0.246,2.488,2.488,0,0,0-.561-0.065,1.634,1.634,0,0,0-1.345.579,2.618,2.618,0,0,0-.47,1.685,3.728,3.728,0,0,0,.107.933,2.021,2.021,0,0,0,.33.713,1.463,1.463,0,0,0,.57.458,1.937,1.937,0,0,0,.817.16,2.584,2.584,0,0,0,.8-0.121,1.834,1.834,0,0,0,.623-0.328Zm-0.5-2.709a1.373,1.373,0,0,1,.239.92H88.758a1.372,1.372,0,0,1,.351-0.916,1.111,1.111,0,0,1,.78-0.268A0.868,0.868,0,0,1,90.566,49.612Zm2.063,0.082a1.578,1.578,0,0,1,.268-0.129,2.616,2.616,0,0,1,.322-0.1q0.169-.04.33-0.062a2.21,2.21,0,0,1,.3-0.022,0.9,0.9,0,0,1,.66.19,0.958,0.958,0,0,1,.182.665q0,0.207-.025.467a1.536,1.536,0,0,0-.227-0.017H94.214a4.893,4.893,0,0,0-.829.065,2,2,0,0,0-.644.216,1.093,1.093,0,0,0-.417.406,1.244,1.244,0,0,0-.149.635,1.3,1.3,0,0,0,.095.51,1.148,1.148,0,0,0,.26.385,1.134,1.134,0,0,0,.392.246,1.371,1.371,0,0,0,.491.086,1.679,1.679,0,0,0,.471-0.061,1.648,1.648,0,0,0,.363-0.151,1.2,1.2,0,0,0,.268-0.207A1.435,1.435,0,0,0,94.7,52.58h0.041l0.173,0.6H95.4a2.973,2.973,0,0,1-.091-0.527q-0.025-.285-0.025-0.6,0-.441.025-0.933t0.025-1.011a2.443,2.443,0,0,0-.045-0.467,1.107,1.107,0,0,0-.182-0.428,0.968,0.968,0,0,0-.4-0.315,1.651,1.651,0,0,0-.689-0.121,3.909,3.909,0,0,0-.871.095,2.319,2.319,0,0,0-.73.294Zm0.438,2.744a0.652,0.652,0,0,1-.206-0.5,0.565,0.565,0,0,1,.112-0.359,0.756,0.756,0,0,1,.3-0.225,1.525,1.525,0,0,1,.429-0.112,4.038,4.038,0,0,1,.5-0.03q0.115,0,.235,0t0.235,0.013v0.717a1,1,0,0,1-.128.233,1.02,1.02,0,0,1-.219.22,1.176,1.176,0,0,1-.314.164,1.224,1.224,0,0,1-.413.065A0.739,0.739,0,0,1,93.066,52.438Zm6.826,0.73v-2.61a3.771,3.771,0,0,0-.087-0.886,1.407,1.407,0,0,0-.256-0.557,0.888,0.888,0,0,0-.425-0.289,1.949,1.949,0,0,0-.594-0.082,1.68,1.68,0,0,0-.8.177,1.512,1.512,0,0,0-.532.454H97.168l-0.124-.527H96.582v4.321h0.66V50.213a1.316,1.316,0,0,1,.4-0.618,1.064,1.064,0,0,1,.722-0.246,0.705,0.705,0,0,1,.681.341,2.184,2.184,0,0,1,.186,1.015v2.463h0.66Zm1.345,0h0.66V48.847h-0.66v4.321Zm-0.012-5.306a0.438,0.438,0,0,0,.326.13,0.479,0.479,0,0,0,.338-0.13,0.426,0.426,0,0,0,.14-0.328,0.467,0.467,0,0,0-.14-0.341,0.456,0.456,0,0,0-.338-0.143,0.418,0.418,0,0,0-.326.143,0.49,0.49,0,0,0-.128.341A0.445,0.445,0,0,0,101.225,47.862Zm5.393,5.306v-2.61a3.818,3.818,0,0,0-.086-0.886,1.407,1.407,0,0,0-.256-0.557,0.891,0.891,0,0,0-.425-0.289,1.954,1.954,0,0,0-.595-0.082,1.679,1.679,0,0,0-.8.177,1.51,1.51,0,0,0-.532.454H103.9l-0.124-.527h-0.462v4.321h0.66V50.213a1.314,1.314,0,0,1,.4-0.618,1.065,1.065,0,0,1,.722-0.246,0.7,0.7,0,0,1,.681.341,2.181,2.181,0,0,1,.186,1.015v2.463h0.66Zm4.366-4.139a4.292,4.292,0,0,0-.6-0.181,3.6,3.6,0,0,0-.8-0.078,1.867,1.867,0,0,0-1.485.575,2.478,2.478,0,0,0-.5,1.681,2.925,2.925,0,0,0,.392,1.694,1.409,1.409,0,0,0,1.226.544,1.439,1.439,0,0,0,.668-0.134,1.117,1.117,0,0,0,.421-0.385h0.033v0.415a2.816,2.816,0,0,1-.049.566,0.84,0.84,0,0,1-.182.389,0.727,0.727,0,0,1-.351.216,2.032,2.032,0,0,1-.565.065,2.159,2.159,0,0,1-.6-0.069c-0.154-.046-0.3-0.095-0.421-0.147l-0.174.588a2.3,2.3,0,0,0,.516.169,3.938,3.938,0,0,0,.8.065,1.78,1.78,0,0,0,1.258-.4,1.615,1.615,0,0,0,.425-1.236V49.029Zm-2.146,3.508a0.917,0.917,0,0,1-.321-0.337,1.64,1.64,0,0,1-.182-0.518,3.513,3.513,0,0,1-.058-0.665,1.969,1.969,0,0,1,.322-1.244,1.076,1.076,0,0,1,.883-0.4,1.89,1.89,0,0,1,.842.164v2.212a1.269,1.269,0,0,1-.338.687,0.94,0.94,0,0,1-.661.22A0.921,0.921,0,0,1,108.838,52.537Z"/>
    </g>
    <g id="tick-2">
      <rect id="Rounded_Rectangle_601-2" data-name="Rounded Rectangle 601" class="cls-3" x="64" y="62" width="12" height="12" rx="1" ry="1"/>
      <path id="Painters" class="cls-4" d="M81,69.872h0.754V67.3a1.416,1.416,0,0,0,.154.019q0.109,0.01.222,0.015t0.218,0H82.5a3.612,3.612,0,0,0,.917-0.116,2.176,2.176,0,0,0,.79-0.383,1.931,1.931,0,0,0,.554-0.692,2.362,2.362,0,0,0,.209-1.046,2.144,2.144,0,0,0-.222-1.036,1.753,1.753,0,0,0-.577-0.639,2.218,2.218,0,0,0-.785-0.319,4.28,4.28,0,0,0-.849-0.087q-0.39,0-.79.029a4.311,4.311,0,0,0-.745.116v6.71Zm2.134-6.09a1.516,1.516,0,0,1,.522.227,1.174,1.174,0,0,1,.372.426,1.41,1.41,0,0,1,.141.663,1.71,1.71,0,0,1-.15.765,1.178,1.178,0,0,1-.395.465,1.53,1.53,0,0,1-.549.227,3.009,3.009,0,0,1-.613.063H82.317c-0.067,0-.136,0-0.209,0L81.9,66.6a0.445,0.445,0,0,1-.145-0.024V63.772a1.458,1.458,0,0,1,.345-0.048q0.218-.01.454-0.01A2.556,2.556,0,0,1,83.134,63.782Zm2.706,2.2a1.714,1.714,0,0,1,.3-0.144,2.832,2.832,0,0,1,.354-0.11q0.186-.045.363-0.07a2.371,2.371,0,0,1,.331-0.025,0.979,0.979,0,0,1,.726.213,1.088,1.088,0,0,1,.2.746q0,0.232-.027.523a1.659,1.659,0,0,0-.25-0.019h-0.25a5.278,5.278,0,0,0-.913.073,2.17,2.17,0,0,0-.708.242,1.214,1.214,0,0,0-.459.455,1.416,1.416,0,0,0-.163.712,1.479,1.479,0,0,0,.1.571,1.289,1.289,0,0,0,.286.431,1.246,1.246,0,0,0,.431.276,1.484,1.484,0,0,0,.54.1,1.771,1.771,0,0,0,.917-0.237,1.322,1.322,0,0,0,.3-0.232,1.589,1.589,0,0,0,.2-0.266h0.045l0.191,0.678H88.89a3.383,3.383,0,0,1-.1-0.591q-0.027-.32-0.027-0.678,0-.494.027-1.046t0.027-1.133a2.789,2.789,0,0,0-.05-0.523,1.252,1.252,0,0,0-.2-0.479,1.067,1.067,0,0,0-.436-0.353,1.786,1.786,0,0,0-.758-0.136,4.226,4.226,0,0,0-.958.106,2.523,2.523,0,0,0-.8.329Zm0.481,3.074a0.737,0.737,0,0,1-.227-0.557,0.641,0.641,0,0,1,.123-0.4,0.834,0.834,0,0,1,.327-0.252,1.656,1.656,0,0,1,.472-0.126,4.37,4.37,0,0,1,.549-0.034q0.127,0,.259,0T88.082,67.7v0.8a1.154,1.154,0,0,1-.381.508,1.285,1.285,0,0,1-.345.184,1.324,1.324,0,0,1-.454.073A0.8,0.8,0,0,1,86.321,69.054Zm4.022,0.818h0.726V65.031H90.343v4.841Zm-0.014-5.945a0.478,0.478,0,0,0,.359.145,0.524,0.524,0,0,0,.372-0.145,0.483,0.483,0,0,0,.154-0.368,0.531,0.531,0,0,0-.154-0.383,0.5,0.5,0,0,0-.372-0.16,0.457,0.457,0,0,0-.359.16,0.558,0.558,0,0,0-.141.383A0.506,0.506,0,0,0,90.329,63.927Zm5.933,5.945V66.948a4.3,4.3,0,0,0-.1-0.993,1.593,1.593,0,0,0-.282-0.625,0.976,0.976,0,0,0-.468-0.324,2.108,2.108,0,0,0-.654-0.092,1.819,1.819,0,0,0-.876.2,1.671,1.671,0,0,0-.586.508H93.266l-0.136-.591H92.621v4.841h0.726V66.561a1.477,1.477,0,0,1,.44-0.692,1.158,1.158,0,0,1,.794-0.276,0.772,0.772,0,0,1,.749.382,2.486,2.486,0,0,1,.2,1.138v2.76h0.726Zm0.726-4.164H97.7v2.827a2.065,2.065,0,0,0,.227,1.118,0.875,0.875,0,0,0,.781.334,2.427,2.427,0,0,0,.626-0.077,2.673,2.673,0,0,0,.536-0.2L99.7,69.117q-0.2.087-.363,0.14a1.3,1.3,0,0,1-.4.053,0.421,0.421,0,0,1-.4-0.208,1.543,1.543,0,0,1-.118-0.712V65.708h1.235V65.031H98.423V63.849l-0.726.223v0.959H96.988v0.678Zm6.619,3.215a1.29,1.29,0,0,1-.463.271,1.743,1.743,0,0,1-.617.116,1.687,1.687,0,0,1-.677-0.121,1.111,1.111,0,0,1-.449-0.349,1.5,1.5,0,0,1-.254-0.557,3.12,3.12,0,0,1-.082-0.755h2.914a5.012,5.012,0,0,0,.055-0.707,2.606,2.606,0,0,0-.155-0.983,1.457,1.457,0,0,0-.4-0.576,1.338,1.338,0,0,0-.554-0.276,2.692,2.692,0,0,0-.617-0.073,1.783,1.783,0,0,0-1.48.649,2.973,2.973,0,0,0-.518,1.888,4.29,4.29,0,0,0,.118,1.046,2.3,2.3,0,0,0,.363.8,1.624,1.624,0,0,0,.627.513,2.1,2.1,0,0,0,.9.179,2.8,2.8,0,0,0,.876-0.136,2,2,0,0,0,.685-0.368Zm-0.545-3.036a1.556,1.556,0,0,1,.264,1.031h-2.252a1.551,1.551,0,0,1,.386-1.026,1.209,1.209,0,0,1,.858-0.3A0.944,0.944,0,0,1,103.062,65.888Zm4.413-.857a2.1,2.1,0,0,0-.591-0.1,1,1,0,0,0-.612.179,1.452,1.452,0,0,0-.413.508h-0.037l-0.136-.591h-0.508v4.841H105.9V66.483a1.013,1.013,0,0,1,.281-0.576,0.835,0.835,0,0,1,.618-0.228,1.544,1.544,0,0,1,.517.1Zm2.533,4.115a1.166,1.166,0,0,1-.645.165,2.238,2.238,0,0,1-.681-0.106,2.587,2.587,0,0,1-.545-0.232l-0.218.658a2.691,2.691,0,0,0,.609.252,3.157,3.157,0,0,0,.88.107,1.969,1.969,0,0,0,.695-0.111,1.415,1.415,0,0,0,.5-0.305,1.191,1.191,0,0,0,.3-0.465,1.752,1.752,0,0,0,.095-0.581,1.329,1.329,0,0,0-.163-0.7,1.522,1.522,0,0,0-.4-0.441,2.215,2.215,0,0,0-.527-0.281c-0.19-.071-0.366-0.144-0.526-0.218a1.721,1.721,0,0,1-.4-0.252,0.489,0.489,0,0,1-.164-0.392,0.6,0.6,0,0,1,.186-0.5,0.952,0.952,0,0,1,.586-0.145,2.344,2.344,0,0,1,.631.082,2.776,2.776,0,0,1,.5.189l0.172-.639a3.047,3.047,0,0,0-.576-0.218,3.125,3.125,0,0,0-.822-0.092,1.523,1.523,0,0,0-1.035.324,1.286,1.286,0,0,0-.372,1.022,1.231,1.231,0,0,0,.163.678,1.411,1.411,0,0,0,.4.411,2.412,2.412,0,0,0,.527.261q0.286,0.1.526,0.213a1.359,1.359,0,0,1,.4.276,0.618,0.618,0,0,1,.164.455A0.65,0.65,0,0,1,110.008,69.146Z"/>
    </g>
    <g id="tick-3">
      <rect id="Rounded_Rectangle_601-3" data-name="Rounded Rectangle 601" class="cls-3" x="64" y="79" width="12" height="12" rx="1" ry="1"/>
      <path id="HVAC" class="cls-4" d="M84.807,87.888H85.56V81.11H84.807v2.953H81.754V81.11H81v6.778h0.754V84.78h3.052v3.108Zm2.335-6.778H86.314l2.453,6.885H89.1L91.51,81.11H90.756l-1.535,4.638-0.236,1.046H88.976l-0.218-1.026Zm8.384,6.778h0.8L93.909,81H93.563l-2.407,6.885H91.91l0.633-1.879h2.332Zm-2.043-4.619,0.226-1.046h0.009l0.226,1.026,0.7,2.063H92.787Zm7.347,3.709a1.892,1.892,0,0,1-.513.223,2.6,2.6,0,0,1-.713.087,2.018,2.018,0,0,1-.84-0.174,1.847,1.847,0,0,1-.672-0.523,2.562,2.562,0,0,1-.45-0.872,4.1,4.1,0,0,1-.164-1.22,4.282,4.282,0,0,1,.173-1.307,2.448,2.448,0,0,1,.459-0.862,1.69,1.69,0,0,1,.649-0.474A1.967,1.967,0,0,1,99.5,81.71a2.7,2.7,0,0,1,1.245.232l0.181-.716a2.71,2.71,0,0,0-.59-0.169,5.136,5.136,0,0,0-.89-0.063,2.7,2.7,0,0,0-1,.194,2.44,2.44,0,0,0-.886.615,3.115,3.115,0,0,0-.636,1.084,4.746,4.746,0,0,0-.241,1.612,5.056,5.056,0,0,0,.218,1.574,3.1,3.1,0,0,0,.59,1.089,2.345,2.345,0,0,0,.872.634A2.758,2.758,0,0,0,99.432,88a4.361,4.361,0,0,0,.891-0.087,1.584,1.584,0,0,0,.69-0.31Z"/>
    </g>
    <path id="Service" class="cls-4" d="M67.587,37.471a1.191,1.191,0,0,1-.35.4,1.431,1.431,0,0,1-.522.233,2.784,2.784,0,0,1-.647.072,3.812,3.812,0,0,1-1.054-.135,3.236,3.236,0,0,1-.71-0.275l-0.292.819a3.381,3.381,0,0,0,.793.282A5.483,5.483,0,0,0,66.1,39a3.257,3.257,0,0,0,1.044-.155,2.235,2.235,0,0,0,.783-0.443,1.882,1.882,0,0,0,.49-0.686,2.3,2.3,0,0,0,.167-0.9,1.862,1.862,0,0,0-.261-1.019,2.657,2.657,0,0,0-.652-0.7,5.134,5.134,0,0,0-.85-0.515q-0.459-.221-0.85-0.448a2.688,2.688,0,0,1-.652-0.515,1.073,1.073,0,0,1,.084-1.489,1.451,1.451,0,0,1,1.033-.327,4.4,4.4,0,0,1,1.049.114,3.28,3.28,0,0,1,.7.24l0.261-.819a2.975,2.975,0,0,0-.814-0.255,6.2,6.2,0,0,0-1.158-.1,2.453,2.453,0,0,0-1.69.531,1.833,1.833,0,0,0-.595,1.439,1.955,1.955,0,0,0,.261,1.057,2.472,2.472,0,0,0,.652.7,4.524,4.524,0,0,0,.85.482,8.241,8.241,0,0,1,.85.426,2.63,2.63,0,0,1,.652.52,1.1,1.1,0,0,1,.261.758A1.2,1.2,0,0,1,67.587,37.471Zm5.786,0.31a1.489,1.489,0,0,1-.532.31,2.011,2.011,0,0,1-.71.133,1.944,1.944,0,0,1-.777-0.138,1.273,1.273,0,0,1-.517-0.4,1.725,1.725,0,0,1-.292-0.637,3.583,3.583,0,0,1-.094-0.864H73.8a5.8,5.8,0,0,0,.063-0.808,2.971,2.971,0,0,0-.177-1.124,1.661,1.661,0,0,0-.459-0.659,1.539,1.539,0,0,0-.637-0.316,3.1,3.1,0,0,0-.71-0.083,2.054,2.054,0,0,0-1.7.742,3.387,3.387,0,0,0-.595,2.159,4.834,4.834,0,0,0,.136,1.2,2.6,2.6,0,0,0,.417.913,1.854,1.854,0,0,0,.72.587,2.42,2.42,0,0,0,1.033.2,3.227,3.227,0,0,0,1.007-.155,2.307,2.307,0,0,0,.788-0.421ZM72.747,34.31a1.776,1.776,0,0,1,.3,1.179H70.462a1.771,1.771,0,0,1,.443-1.174,1.394,1.394,0,0,1,.986-0.343A1.09,1.09,0,0,1,72.747,34.31Zm5.071-.98a2.428,2.428,0,0,0-.678-0.111,1.152,1.152,0,0,0-.7.2,1.681,1.681,0,0,0-.475.581H75.919l-0.157-.675H75.178v5.536h0.835V34.991a1.157,1.157,0,0,1,.323-0.659,0.961,0.961,0,0,1,.71-0.26,1.787,1.787,0,0,1,.595.111Zm1.158,0h-0.96l2.264,5.658h0.355l2.223-5.658h-0.9l-1.169,3.222-0.261,1.074h-0.01l-0.292-1.052Zm4.957,5.536h0.835V33.33H83.934v5.536Zm-0.016-6.8a0.551,0.551,0,0,0,.412.166,0.6,0.6,0,0,0,.428-0.166,0.552,0.552,0,0,0,.177-0.421,0.606,0.606,0,0,0-.177-0.437,0.575,0.575,0,0,0-.428-0.183,0.526,0.526,0,0,0-.412.183,0.637,0.637,0,0,0-.162.437A0.578,0.578,0,0,0,83.918,32.068Zm5.922,5.757a1.877,1.877,0,0,1-.485.277,1.761,1.761,0,0,1-.673.122,1.341,1.341,0,0,1-1.216-.648A2.041,2.041,0,0,1,87.2,36.9a3.989,3.989,0,0,1-.078-0.8q0-2.126,1.482-2.126a2.281,2.281,0,0,1,.626.083,2.2,2.2,0,0,1,.532.227l0.24-.764a2.512,2.512,0,0,0-.631-0.238,3.734,3.734,0,0,0-.85-0.083,2.006,2.006,0,0,0-1.68.747A3.434,3.434,0,0,0,86.26,36.1a5.464,5.464,0,0,0,.12,1.19,2.567,2.567,0,0,0,.386.919,1.77,1.77,0,0,0,.684.587,2.307,2.307,0,0,0,1.023.2,3.133,3.133,0,0,0,.9-0.127,2.222,2.222,0,0,0,.741-0.371Zm4.675-.044a1.489,1.489,0,0,1-.532.31,2.011,2.011,0,0,1-.71.133,1.944,1.944,0,0,1-.777-0.138,1.273,1.273,0,0,1-.517-0.4,1.726,1.726,0,0,1-.292-0.637,3.588,3.588,0,0,1-.094-0.864h3.35a5.8,5.8,0,0,0,.063-0.808,2.971,2.971,0,0,0-.177-1.124,1.661,1.661,0,0,0-.459-0.659,1.539,1.539,0,0,0-.636-0.316,3.1,3.1,0,0,0-.71-0.083,2.054,2.054,0,0,0-1.7.742,3.387,3.387,0,0,0-.595,2.159,4.839,4.839,0,0,0,.136,1.2,2.6,2.6,0,0,0,.417.913,1.854,1.854,0,0,0,.72.587,2.42,2.42,0,0,0,1.033.2,3.227,3.227,0,0,0,1.007-.155,2.308,2.308,0,0,0,.788-0.421ZM93.889,34.31a1.776,1.776,0,0,1,.3,1.179H91.6a1.771,1.771,0,0,1,.444-1.174,1.393,1.393,0,0,1,.986-0.343A1.09,1.09,0,0,1,93.889,34.31Z"/>
  </g>
  <g id="setting">
    <path id="Forma_1" data-name="Forma 1" class="cls-5" d="M140.91,61a0.878,0.878,0,0,0-.867-0.665A2.981,2.981,0,0,1,138,55.148a0.749,0.749,0,0,0,.082-1.018,13.373,13.373,0,0,0-2.137-2.16,0.751,0.751,0,0,0-1.026.083,3.108,3.108,0,0,1-3.365.756,3,3,0,0,1-1.823-2.931,0.748,0.748,0,0,0-.662-0.788,13.471,13.471,0,0,0-3.036-.008,0.751,0.751,0,0,0-.668.772,3,3,0,0,1-1.847,2.88,3.119,3.119,0,0,1-3.341-.761,0.752,0.752,0,0,0-1.018-.086,13.4,13.4,0,0,0-2.183,2.159,0.751,0.751,0,0,0,.081,1.026,2.992,2.992,0,0,1,.754,3.368,3.119,3.119,0,0,1-2.936,1.825,0.733,0.733,0,0,0-.779.663,13.528,13.528,0,0,0-.006,3.07,0.892,0.892,0,0,0,.885.664,2.959,2.959,0,0,1,2.776,1.85A3,3,0,0,1,117,69.852a0.751,0.751,0,0,0-.083,1.017,13.423,13.423,0,0,0,2.135,2.161,0.75,0.75,0,0,0,1.027-.081,3.1,3.1,0,0,1,3.364-.757,3,3,0,0,1,1.826,2.93,0.749,0.749,0,0,0,.662.789,13.432,13.432,0,0,0,3.036.008,0.752,0.752,0,0,0,.668-0.773,3,3,0,0,1,1.846-2.879,3.113,3.113,0,0,1,3.342.761,0.753,0.753,0,0,0,1.018.085,13.451,13.451,0,0,0,2.183-2.159,0.749,0.749,0,0,0-.081-1.026,2.982,2.982,0,0,1,2-5.2l0.166,0a0.752,0.752,0,0,0,.79-0.662A13.47,13.47,0,0,0,140.91,61Z"/>
    <circle id="Forma_1_copy_9" data-name="Forma 1 copy 9" class="cls-6" cx="127.531" cy="62.531" r="4.5"/>
    <path id="Forma_1-2" data-name="Forma 1" class="cls-7" d="M73.906,47.182L69.023,52.4,67.049,50.29a0.593,0.593,0,0,0-.878,0,0.7,0.7,0,0,0,0,.938l2.413,2.577a0.593,0.593,0,0,0,.878,0v0l5.32-5.684a0.7,0.7,0,0,0,0-.938A0.593,0.593,0,0,0,73.906,47.182Z"/>
    <path id="Forma_1_copy_2" data-name="Forma 1 copy 2" class="cls-7" d="M73.906,64.182L69.023,69.4,67.049,67.29a0.593,0.593,0,0,0-.878,0,0.7,0.7,0,0,0,0,.938l2.413,2.577a0.593,0.593,0,0,0,.878,0v0l5.32-5.684a0.7,0.7,0,0,0,0-.938A0.593,0.593,0,0,0,73.906,64.182Z"/>
  </g>
</svg>
