<svg id="icon" xmlns="http://www.w3.org/2000/svg" width="181" height="122" viewBox="0 0 181 122">
  <defs>
    <style>
      .cls-1, .cls-5 {
        fill: #eef3fe;
      }

      .cls-1, .cls-10, .cls-3, .cls-4, .cls-6, .cls-7, .cls-8, .cls-9 {
        fill-rule: evenodd;
      }

      .cls-2 {
        fill: #fff;
      }

      .cls-2, .cls-5 {
        stroke: #e3e3e3;
        stroke-linejoin: round;
        stroke-width: 1px;
      }

      .cls-3 {
        fill: #343439;
      }

      .cls-4 {
        fill: #565657;
      }

      .cls-6 {
        fill: #3be2a9;
      }

      .cls-7 {
        fill: #b5ccfa;
      }

      .cls-8 {
        fill: #fbe3c5;
      }

      .cls-9 {
        fill: #5387ff;
      }

      .cls-10 {
        fill: #193151;
      }
    </style>
  </defs>
  <path class="cls-1" d="M20,74.019c0.518-12.348,3.106-22.638,28.987-30.87S82.739,31.287,95.68,23.569c10.426-6.394,42.473-5.832,57.974,15.435,10.784,14.8,10.007,34.037-2.07,47.334-10.26,11.3-31.5,20.432-52.8,24.7-21.692,4.344-37.893,1.057-53.939-5.117S19.655,88.768,20,74.019Z"/>
  <g id="Bar">
    <rect id="Rounded_Rectangle_1327" data-name="Rounded Rectangle 1327" class="cls-2" x="40" y="6" width="79" height="91" rx="4" ry="4"/>
    <g id="Bar-2" data-name="Bar">
      <path id="Product" class="cls-3" d="M52.936,19.944a2.786,2.786,0,0,0,1.908-.6,2.222,2.222,0,0,0,0-3.2,2.771,2.771,0,0,0-1.908-.607H50V22.9H51.04V19.944h1.9Zm-1.9-3.628h1.9a1.523,1.523,0,0,1,1.161.41,1.431,1.431,0,0,1,.387,1.022,1.411,1.411,0,0,1-.384,1.015,1.539,1.539,0,0,1-1.164.4h-1.9V16.316Zm8.513,1.063a1.556,1.556,0,0,0-.174-0.038,1.333,1.333,0,0,0-.221-0.018,1.438,1.438,0,0,0-.819.238,1.926,1.926,0,0,0-.6.663l-0.1-.8H56.716V22.9h1.037V18.988a1.153,1.153,0,0,1,1.127-.714l0.532,0.03Zm0.59,2.844a2.921,2.921,0,0,0,.687,2,2.618,2.618,0,0,0,3.73,0,2.925,2.925,0,0,0,.684-2V20.111a2.931,2.931,0,0,0-.687-2,2.36,2.36,0,0,0-1.872-.784,2.336,2.336,0,0,0-1.858.787,2.94,2.94,0,0,0-.684,2v0.111Zm1.037-.111a2.525,2.525,0,0,1,.382-1.432,1.265,1.265,0,0,1,1.124-.572,1.283,1.283,0,0,1,1.135.572,2.5,2.5,0,0,1,.387,1.432v0.111a2.507,2.507,0,0,1-.384,1.437,1.411,1.411,0,0,1-2.261,0,2.519,2.519,0,0,1-.382-1.437V20.111Zm5.1,0.258a2.937,2.937,0,0,0,.59,1.91,1.986,1.986,0,0,0,1.632.726,2.13,2.13,0,0,0,.953-0.2,1.826,1.826,0,0,0,.69-0.6L70.3,22.9h0.8V15H70.056v3.011A1.806,1.806,0,0,0,69.4,17.5a2.11,2.11,0,0,0-.887-0.177,1.915,1.915,0,0,0-1.645.81,3.548,3.548,0,0,0-.587,2.131v0.106Zm1.037-.106a2.96,2.96,0,0,1,.355-1.539,1.2,1.2,0,0,1,1.1-.592,1.413,1.413,0,0,1,.766.2,1.562,1.562,0,0,1,.518.539v2.556a1.532,1.532,0,0,1-.516.567,1.415,1.415,0,0,1-.779.2,1.25,1.25,0,0,1-1.095-.5,2.256,2.256,0,0,1-.353-1.329V20.263ZM76.327,22.9h0.932V17.424H76.221v3.947a1.364,1.364,0,0,1-.545.61,1.76,1.76,0,0,1-.913.215,1.017,1.017,0,0,1-.837-0.329,1.975,1.975,0,0,1-.269-1.2V17.424H72.62v3.229a2.584,2.584,0,0,0,.521,1.781,1.867,1.867,0,0,0,1.453.572,1.946,1.946,0,0,0,.974-0.238,1.891,1.891,0,0,0,.69-0.678Zm3.588-1.24a2.631,2.631,0,0,1-.345-1.392V20.056a2.583,2.583,0,0,1,.35-1.379,1.21,1.21,0,0,1,1.113-.569,1.139,1.139,0,0,1,.855.352,1.182,1.182,0,0,1,.34.853h0.942l0.011-.03a1.763,1.763,0,0,0-.587-1.392,2.2,2.2,0,0,0-1.561-.567,2.274,2.274,0,0,0-1.851.787,2.938,2.938,0,0,0-.655,1.946v0.213a2.951,2.951,0,0,0,.653,1.953,2.483,2.483,0,0,0,3.369.235,1.55,1.55,0,0,0,.632-1.258l-0.016-.03H82.228a0.952,0.952,0,0,1-.358.752,1.248,1.248,0,0,1-.837.306A1.209,1.209,0,0,1,79.914,21.66Zm4.9-5.557v1.321H83.913v0.739h0.906v3.325a1.554,1.554,0,0,0,.374,1.151,1.373,1.373,0,0,0,1.006.367,1.8,1.8,0,0,0,.448-0.058,0.936,0.936,0,0,0,.342-0.149l-0.142-.683a1.53,1.53,0,0,1-.184.048,1.007,1.007,0,0,1-.2.023,0.613,0.613,0,0,1-.44-0.157,0.725,0.725,0,0,1-.166-0.541V18.163h1.079V17.424H85.856V16.1H84.818Z"/>
      <g id="_1" data-name="1">
        <g id="_1_copy_5" data-name="1 copy 5">
          <path id="Furniture" class="cls-4" d="M69.991,41.886h0.764V38.838h2.56V38.117h-2.56V35.789H73.5V35.069H69.991v6.817Zm4.614-4.87v2.941a4.3,4.3,0,0,0,.1,1,1.593,1.593,0,0,0,.286.628,0.99,0.99,0,0,0,.47.326,2.077,2.077,0,0,0,.649.092,1.545,1.545,0,0,0,.912-0.253,1.9,1.9,0,0,0,.571-0.633h0.046l0.184,0.769h0.507a5.061,5.061,0,0,1-.078-0.657q-0.023-.375-0.023-0.725V37.017H77.487v3.253a2.091,2.091,0,0,1-.189.4,1.651,1.651,0,0,1-.267.336,1.142,1.142,0,0,1-.345.229,1.114,1.114,0,0,1-.442.083,0.9,0.9,0,0,1-.442-0.1,0.691,0.691,0,0,1-.276-0.287,1.455,1.455,0,0,1-.143-0.477,4.717,4.717,0,0,1-.041-0.667V37.017H74.6Zm7.367,0a2.147,2.147,0,0,0-.6-0.1,1.018,1.018,0,0,0-.622.18,1.478,1.478,0,0,0-.419.511H80.3l-0.138-.594H79.641v4.87h0.737V38.477a1.015,1.015,0,0,1,.285-0.579,0.849,0.849,0,0,1,.626-0.229,1.583,1.583,0,0,1,.525.1Zm4.494,4.87V38.945a4.289,4.289,0,0,0-.1-1,1.594,1.594,0,0,0-.285-0.628,0.991,0.991,0,0,0-.474-0.326,2.156,2.156,0,0,0-.663-0.093,1.859,1.859,0,0,0-.889.2,1.69,1.69,0,0,0-.594.511H83.426l-0.138-.594H82.772v4.87h0.737V38.555a1.485,1.485,0,0,1,.447-0.7,1.18,1.18,0,0,1,.806-0.278,0.785,0.785,0,0,1,.76.385,2.482,2.482,0,0,1,.207,1.144v2.776h0.737Zm1.5,0H88.7v-4.87H87.966v4.87Zm-0.014-5.98a0.487,0.487,0,0,0,.364.146,0.534,0.534,0,0,0,.378-0.146,0.484,0.484,0,0,0,.157-0.37,0.532,0.532,0,0,0-.157-0.385,0.508,0.508,0,0,0-.378-0.161,0.465,0.465,0,0,0-.364.161,0.56,0.56,0,0,0-.143.385A0.507,0.507,0,0,0,87.952,35.906ZM89.67,37.7h0.718v2.844a2.063,2.063,0,0,0,.23,1.125A0.89,0.89,0,0,0,91.41,42a2.482,2.482,0,0,0,.635-0.078,2.731,2.731,0,0,0,.543-0.2l-0.166-.594q-0.2.088-.368,0.141a1.327,1.327,0,0,1-.405.054,0.428,0.428,0,0,1-.405-0.209,1.543,1.543,0,0,1-.12-0.716V37.7h1.252V37.017H91.125V35.828l-0.737.224v0.964H89.67V37.7Zm3.656-.682v2.941a4.29,4.29,0,0,0,.1,1,1.593,1.593,0,0,0,.285.628,0.989,0.989,0,0,0,.47.326,2.077,2.077,0,0,0,.649.092,1.545,1.545,0,0,0,.912-0.253,1.9,1.9,0,0,0,.571-0.633h0.046l0.184,0.769h0.506a5.063,5.063,0,0,1-.078-0.657q-0.023-.375-0.023-0.725V37.017H96.208v3.253a2.1,2.1,0,0,1-.189.4,1.654,1.654,0,0,1-.267.336,1.142,1.142,0,0,1-.345.229,1.114,1.114,0,0,1-.442.083,0.9,0.9,0,0,1-.442-0.1,0.691,0.691,0,0,1-.276-0.287,1.458,1.458,0,0,1-.143-0.477,4.733,4.733,0,0,1-.041-0.667V37.017H93.325Zm7.367,0a2.143,2.143,0,0,0-.6-0.1,1.019,1.019,0,0,0-.622.18,1.48,1.48,0,0,0-.419.511H99.016l-0.138-.594H98.362v4.87H99.1V38.477a1.015,1.015,0,0,1,.285-0.579,0.849,0.849,0,0,1,.626-0.229,1.59,1.59,0,0,1,.525.1Zm3.886,3.915a1.312,1.312,0,0,1-.469.273,1.785,1.785,0,0,1-.627.117A1.723,1.723,0,0,1,102.8,41.2a1.128,1.128,0,0,1-.456-0.351,1.521,1.521,0,0,1-.257-0.56,3.1,3.1,0,0,1-.083-0.76h2.956a5.069,5.069,0,0,0,.055-0.711,2.592,2.592,0,0,0-.157-0.988,1.455,1.455,0,0,0-.405-0.58,1.357,1.357,0,0,0-.561-0.278,2.76,2.76,0,0,0-.627-0.073,1.816,1.816,0,0,0-1.5.653,2.972,2.972,0,0,0-.525,1.9,4.237,4.237,0,0,0,.12,1.052,2.29,2.29,0,0,0,.369.8,1.628,1.628,0,0,0,.635.516,2.143,2.143,0,0,0,.912.18,2.852,2.852,0,0,0,.888-0.136,2.032,2.032,0,0,0,.695-0.37Zm-0.552-3.053a1.559,1.559,0,0,1,.267,1.037h-2.284a1.555,1.555,0,0,1,.391-1.032,1.233,1.233,0,0,1,.871-0.3A0.963,0.963,0,0,1,104.026,37.878Z"/>
          <path id="Electronics" class="cls-4" d="M70.991,61.886h3.48V61.165H71.739V58.74H74.2V58.02H71.739v-2.23h2.687V55.069H70.991v6.817Zm5.563-6.817H75.833v5.843a1.128,1.128,0,0,0,.261.843,0.93,0.93,0,0,0,.667.248,2.448,2.448,0,0,0,.446-0.049,1.424,1.424,0,0,0,.4-0.127l-0.081-.614a1.368,1.368,0,0,1-.307.088,1.761,1.761,0,0,1-.252.02,0.359,0.359,0,0,1-.307-0.146,0.838,0.838,0,0,1-.108-0.487V55.069ZM81.4,60.932a1.282,1.282,0,0,1-.46.273,1.712,1.712,0,0,1-.613.117A1.653,1.653,0,0,1,79.66,61.2a1.1,1.1,0,0,1-.446-0.351,1.529,1.529,0,0,1-.252-0.56,3.2,3.2,0,0,1-.081-0.76h2.894a5.2,5.2,0,0,0,.054-0.711,2.655,2.655,0,0,0-.153-0.988,1.461,1.461,0,0,0-.4-0.58,1.321,1.321,0,0,0-.55-0.278,2.643,2.643,0,0,0-.613-0.073,1.761,1.761,0,0,0-1.47.653,3.019,3.019,0,0,0-.514,1.9,4.33,4.33,0,0,0,.117,1.052,2.31,2.31,0,0,0,.361.8,1.609,1.609,0,0,0,.622.516,2.059,2.059,0,0,0,.893.18,2.743,2.743,0,0,0,.87-0.136,1.985,1.985,0,0,0,.681-0.37Zm-0.541-3.053a1.583,1.583,0,0,1,.261,1.037H78.889a1.573,1.573,0,0,1,.383-1.032,1.191,1.191,0,0,1,.852-0.3A0.933,0.933,0,0,1,80.863,57.878ZM85.7,60.971a1.607,1.607,0,0,1-.419.243,1.5,1.5,0,0,1-.582.107,1.2,1.2,0,0,1-.636-0.156,1.22,1.22,0,0,1-.415-0.414,1.814,1.814,0,0,1-.225-0.594,3.57,3.57,0,0,1-.068-0.706q0-1.87,1.28-1.87a1.938,1.938,0,0,1,.541.073,1.887,1.887,0,0,1,.46.2l0.207-.672a2.144,2.144,0,0,0-.545-0.209,3.178,3.178,0,0,0-.735-0.073,1.72,1.72,0,0,0-1.452.657,3.061,3.061,0,0,0-.5,1.894,4.885,4.885,0,0,0,.1,1.047,2.28,2.28,0,0,0,.334.808,1.536,1.536,0,0,0,.59.516,1.963,1.963,0,0,0,.884.18,2.662,2.662,0,0,0,.775-0.112,1.91,1.91,0,0,0,.64-0.326ZM86.336,57.7h0.7v2.844a2.1,2.1,0,0,0,.225,1.125A0.864,0.864,0,0,0,88.04,62a2.382,2.382,0,0,0,.622-0.078,2.64,2.64,0,0,0,.532-0.2l-0.162-.594q-0.2.088-.361,0.141a1.274,1.274,0,0,1-.4.054,0.417,0.417,0,0,1-.4-0.209,1.571,1.571,0,0,1-.117-0.716V57.7h1.226V57.017H87.761V55.828l-0.721.224v0.964h-0.7V57.7Zm5.932-.682a2.062,2.062,0,0,0-.586-0.1,0.983,0.983,0,0,0-.609.18,1.473,1.473,0,0,0-.41.511H90.628l-0.135-.594h-0.5v4.87h0.721V58.477a1.024,1.024,0,0,1,.279-0.579,0.822,0.822,0,0,1,.613-0.229,1.521,1.521,0,0,1,.514.1ZM92.918,60.5a2.307,2.307,0,0,0,.361.808,1.616,1.616,0,0,0,.618.516,2.005,2.005,0,0,0,.879.18,1.743,1.743,0,0,0,1.465-.657,3.041,3.041,0,0,0,.509-1.894,4.351,4.351,0,0,0-.117-1.047,2.314,2.314,0,0,0-.361-0.808,1.619,1.619,0,0,0-.618-0.516,2.007,2.007,0,0,0-.879-0.18,1.742,1.742,0,0,0-1.465.657,3.041,3.041,0,0,0-.51,1.894A4.344,4.344,0,0,0,92.918,60.5Zm1.857-2.917a1.028,1.028,0,0,1,.568.151,1.148,1.148,0,0,1,.379.4,1.97,1.97,0,0,1,.212.594,3.7,3.7,0,0,1,.068.721q0,1.88-1.226,1.87a1,1,0,0,1-.568-0.156,1.186,1.186,0,0,1-.379-0.409,1.962,1.962,0,0,1-.212-0.594,3.644,3.644,0,0,1-.068-0.711q0-1.88,1.226-1.87h0Zm6.726,4.3V58.945a4.384,4.384,0,0,0-.095-1,1.6,1.6,0,0,0-.28-0.628,0.969,0.969,0,0,0-.464-0.326,2.069,2.069,0,0,0-.649-0.093,1.789,1.789,0,0,0-.87.2,1.666,1.666,0,0,0-.581.511H98.525l-0.135-.594h-0.5v4.87h0.721V58.555a1.488,1.488,0,0,1,.437-0.7,1.14,1.14,0,0,1,.789-0.278,0.764,0.764,0,0,1,.743.385,2.519,2.519,0,0,1,.2,1.144v2.776H101.5Zm1.469,0h0.721v-4.87H102.97v4.87Zm-0.013-5.98a0.471,0.471,0,0,0,.356.146,0.515,0.515,0,0,0,.369-0.146,0.487,0.487,0,0,0,.154-0.37,0.535,0.535,0,0,0-.154-0.385,0.491,0.491,0,0,0-.369-0.161,0.451,0.451,0,0,0-.356.161,0.563,0.563,0,0,0-.14.385A0.51,0.51,0,0,0,102.957,55.906Zm5.116,5.064a1.609,1.609,0,0,1-.419.243,1.5,1.5,0,0,1-.582.107,1.155,1.155,0,0,1-1.05-.57,1.816,1.816,0,0,1-.225-0.594,3.5,3.5,0,0,1-.068-0.706q0-1.87,1.28-1.87a1.933,1.933,0,0,1,.541.073,1.887,1.887,0,0,1,.46.2l0.207-.672a2.141,2.141,0,0,0-.545-0.209,3.181,3.181,0,0,0-.735-0.073,1.719,1.719,0,0,0-1.451.657,3.059,3.059,0,0,0-.505,1.894,4.9,4.9,0,0,0,.1,1.047,2.286,2.286,0,0,0,.334.808,1.536,1.536,0,0,0,.59.516,1.966,1.966,0,0,0,.884.18,2.659,2.659,0,0,0,.775-0.112,1.915,1.915,0,0,0,.641-0.326Zm2.957,0.185a1.144,1.144,0,0,1-.64.166,2.193,2.193,0,0,1-.676-0.107,2.513,2.513,0,0,1-.541-0.234l-0.216.662a2.619,2.619,0,0,0,.6.253,3.1,3.1,0,0,0,.874.107,1.932,1.932,0,0,0,.69-0.112,1.4,1.4,0,0,0,.491-0.307,1.194,1.194,0,0,0,.293-0.468A1.771,1.771,0,0,0,112,60.532a1.353,1.353,0,0,0-.162-0.706,1.522,1.522,0,0,0-.4-0.443,2.18,2.18,0,0,0-.522-0.282q-0.285-.107-0.523-0.219a1.72,1.72,0,0,1-.4-0.253,0.5,0.5,0,0,1-.162-0.394,0.611,0.611,0,0,1,.185-0.506,0.935,0.935,0,0,1,.581-0.146,2.3,2.3,0,0,1,.627.083,2.7,2.7,0,0,1,.5.19l0.172-.643a3.03,3.03,0,0,0-.573-0.219,3.062,3.062,0,0,0-.816-0.093,1.5,1.5,0,0,0-1.028.326,1.3,1.3,0,0,0-.369,1.027,1.253,1.253,0,0,0,.162.682,1.4,1.4,0,0,0,.4.414,2.4,2.4,0,0,0,.523.263q0.285,0.1.523,0.214a1.369,1.369,0,0,1,.4.278,0.623,0.623,0,0,1,.163.458A0.658,0.658,0,0,1,111.03,61.156Z"/>
          <path id="Cell_Phone" data-name="Cell Phone" class="cls-4" d="M74.293,80.976a1.986,1.986,0,0,1-.529.223,2.755,2.755,0,0,1-.735.087,2.131,2.131,0,0,1-.866-0.175,1.9,1.9,0,0,1-.692-0.523,2.539,2.539,0,0,1-.463-0.872,3.994,3.994,0,0,1-.168-1.221,4.173,4.173,0,0,1,.178-1.308,2.429,2.429,0,0,1,.473-0.863,1.739,1.739,0,0,1,.669-0.475,2.079,2.079,0,0,1,.758-0.145,2.846,2.846,0,0,1,1.282.233l0.187-.717a2.87,2.87,0,0,0-.608-0.17,5.437,5.437,0,0,0-.917-0.063,2.853,2.853,0,0,0-1.029.194,2.514,2.514,0,0,0-.912.615,3.1,3.1,0,0,0-.655,1.085,4.629,4.629,0,0,0-.248,1.614,4.93,4.93,0,0,0,.225,1.575,3.085,3.085,0,0,0,.608,1.09,2.414,2.414,0,0,0,.9.635,2.915,2.915,0,0,0,1.1.208,4.619,4.619,0,0,0,.917-0.087,1.653,1.653,0,0,0,.711-0.31Zm4.071-.039a1.34,1.34,0,0,1-.477.271,1.842,1.842,0,0,1-.636.116,1.784,1.784,0,0,1-.7-0.121,1.137,1.137,0,0,1-.463-0.349,1.494,1.494,0,0,1-.262-0.557,3.066,3.066,0,0,1-.084-0.756h3a4.973,4.973,0,0,0,.056-0.707,2.546,2.546,0,0,0-.159-0.984,1.456,1.456,0,0,0-.412-0.577A1.4,1.4,0,0,0,77.662,77a2.854,2.854,0,0,0-.636-0.073,1.862,1.862,0,0,0-1.526.649,2.914,2.914,0,0,0-.533,1.89,4.143,4.143,0,0,0,.122,1.047,2.255,2.255,0,0,0,.374.8,1.657,1.657,0,0,0,.646.514,2.216,2.216,0,0,0,.927.179,2.96,2.96,0,0,0,.9-0.136,2.088,2.088,0,0,0,.707-0.368ZM77.8,77.9a1.528,1.528,0,0,1,.271,1.032H75.753a1.531,1.531,0,0,1,.4-1.027,1.268,1.268,0,0,1,.884-0.3A0.99,0.99,0,0,1,77.8,77.9Zm3.013-2.8H80.068v5.815a1.092,1.092,0,0,0,.271.838,0.989,0.989,0,0,0,.693.247,2.642,2.642,0,0,0,.463-0.048,1.521,1.521,0,0,0,.416-0.126l-0.084-.611a1.463,1.463,0,0,1-.318.087,1.9,1.9,0,0,1-.262.019,0.378,0.378,0,0,1-.318-0.145,0.805,0.805,0,0,1-.112-0.485V75.1Zm2.733,0H82.8v5.815a1.092,1.092,0,0,0,.271.838,0.989,0.989,0,0,0,.693.247,2.643,2.643,0,0,0,.463-0.048,1.519,1.519,0,0,0,.416-0.126l-0.084-.611a1.463,1.463,0,0,1-.318.087,1.9,1.9,0,0,1-.262.019,0.378,0.378,0,0,1-.318-0.145,0.806,0.806,0,0,1-.112-0.485V75.1Zm4.474,6.785H88.8V79.308a1.494,1.494,0,0,0,.159.019q0.112,0.01.229,0.015t0.225,0h0.154a3.833,3.833,0,0,0,.945-0.116,2.273,2.273,0,0,0,.814-0.383,1.943,1.943,0,0,0,.571-0.693,2.305,2.305,0,0,0,.215-1.047,2.1,2.1,0,0,0-.229-1.037,1.775,1.775,0,0,0-.594-0.64,2.323,2.323,0,0,0-.81-0.32,4.534,4.534,0,0,0-.875-0.087q-0.4,0-.814.029a4.579,4.579,0,0,0-.767.116v6.717Zm2.2-6.1a1.589,1.589,0,0,1,.538.228,1.186,1.186,0,0,1,.384.427,1.376,1.376,0,0,1,.145.664,1.671,1.671,0,0,1-.154.766,1.189,1.189,0,0,1-.407.465,1.6,1.6,0,0,1-.566.228,3.193,3.193,0,0,1-.632.063H89.38c-0.069,0-.14,0-0.215,0l-0.215-.01a0.474,0.474,0,0,1-.15-0.024V75.78a1.546,1.546,0,0,1,.356-0.048q0.225-.01.468-0.01A2.713,2.713,0,0,1,90.222,75.79Zm6.71,6.1V78.96a4.616,4.616,0,0,0-.089-0.994,1.487,1.487,0,0,0-.281-0.625,1.007,1.007,0,0,0-.482-0.325,2.269,2.269,0,0,0-.683-0.092,1.808,1.808,0,0,0-.847.179,1.857,1.857,0,0,0-.585.48H93.928V75.1H93.179v6.785h0.749V78.659a1.335,1.335,0,0,1,.459-0.761,1.213,1.213,0,0,1,.8-0.3,1.115,1.115,0,0,1,.5.1,0.733,0.733,0,0,1,.3.286,1.3,1.3,0,0,1,.154.475,4.605,4.605,0,0,1,.042.664v2.762h0.749Zm1.226-1.381a2.252,2.252,0,0,0,.374.8,1.664,1.664,0,0,0,.641.514,2.158,2.158,0,0,0,.912.179,1.841,1.841,0,0,0,1.521-.654,2.933,2.933,0,0,0,.529-1.885,4.163,4.163,0,0,0-.122-1.042,2.261,2.261,0,0,0-.374-0.8A1.662,1.662,0,0,0,101,77.1a2.16,2.16,0,0,0-.913-0.179,1.841,1.841,0,0,0-1.52.654,2.935,2.935,0,0,0-.529,1.885A4.157,4.157,0,0,0,98.158,80.505Zm1.928-2.9a1.1,1.1,0,0,1,.59.15,1.168,1.168,0,0,1,.393.4,1.908,1.908,0,0,1,.22.591,3.52,3.52,0,0,1,.07.717q0,1.871-1.273,1.861a1.074,1.074,0,0,1-.589-0.155,1.2,1.2,0,0,1-.393-0.407,1.9,1.9,0,0,1-.22-0.591,3.483,3.483,0,0,1-.07-0.708q0-1.871,1.272-1.861h0Zm6.982,4.284V78.96a4.215,4.215,0,0,0-.1-0.994,1.576,1.576,0,0,0-.29-0.625,1.009,1.009,0,0,0-.482-0.325,2.237,2.237,0,0,0-.674-0.092,1.922,1.922,0,0,0-.9.2,1.71,1.71,0,0,0-.6.509H103.98l-0.141-.591h-0.524v4.846h0.749V78.572a1.475,1.475,0,0,1,.454-0.693,1.215,1.215,0,0,1,.819-0.276,0.8,0.8,0,0,1,.772.383,2.431,2.431,0,0,1,.211,1.139v2.762h0.748Zm4.5-.95a1.337,1.337,0,0,1-.477.271,1.849,1.849,0,0,1-.637.116,1.783,1.783,0,0,1-.7-0.121,1.137,1.137,0,0,1-.463-0.349,1.485,1.485,0,0,1-.262-0.557,3.021,3.021,0,0,1-.085-0.756h3a5.031,5.031,0,0,0,.056-0.707,2.546,2.546,0,0,0-.159-0.984,1.459,1.459,0,0,0-.412-0.577A1.4,1.4,0,0,0,110.868,77a2.849,2.849,0,0,0-.636-0.073,1.863,1.863,0,0,0-1.526.649,2.912,2.912,0,0,0-.533,1.89,4.149,4.149,0,0,0,.121,1.047,2.247,2.247,0,0,0,.375.8,1.651,1.651,0,0,0,.645.514,2.217,2.217,0,0,0,.927.179,2.96,2.96,0,0,0,.9-0.136,2.086,2.086,0,0,0,.707-0.368ZM111.008,77.9a1.527,1.527,0,0,1,.272,1.032h-2.321a1.526,1.526,0,0,1,.4-1.027,1.267,1.267,0,0,1,.884-0.3A0.988,0.988,0,0,1,111.008,77.9Z"/>
        </g>
      </g>
    </g>
    <rect id="Rounded_Rectangle_601" data-name="Rounded Rectangle 601" class="cls-5" x="50" y="32" width="12" height="12" rx="1" ry="1"/>
    <rect id="Rounded_Rectangle_601_copy" data-name="Rounded Rectangle 601 copy" class="cls-5" x="50" y="52" width="12" height="12" rx="1" ry="1"/>
    <rect id="Rounded_Rectangle_601_copy_2" data-name="Rounded Rectangle 601 copy 2" class="cls-5" x="50" y="72" width="12" height="12" rx="1" ry="1"/>
    <path id="Forma_1" data-name="Forma 1" class="cls-6" d="M59.906,34.182L55.023,39.4,53.049,37.29a0.593,0.593,0,0,0-.878,0,0.7,0.7,0,0,0,0,.938l2.413,2.577a0.593,0.593,0,0,0,.878,0v0l5.32-5.684a0.7,0.7,0,0,0,0-.938A0.593,0.593,0,0,0,59.906,34.182Z"/>
    <path id="Forma_1_copy_7" data-name="Forma 1 copy 7" class="cls-6" d="M59.906,54.182L55.023,59.4,53.049,57.29a0.593,0.593,0,0,0-.878,0,0.7,0.7,0,0,0,0,.938l2.413,2.577a0.593,0.593,0,0,0,.878,0v0l5.32-5.684a0.7,0.7,0,0,0,0-.938A0.593,0.593,0,0,0,59.906,54.182Z"/>
  </g>
  <g id="Man">
    <path class="cls-7" d="M119,112V70h19v42h-6s-1.638-27.393-3.205-30.756c0,0-1.956,9.134-2.55,14.45S125,112,125,112h-6Z"/>
    <path class="cls-8" d="M145.795,79.544c1.363,0.509,2.108-.543,2.55-1.7A5.113,5.113,0,0,0,147,73l-3-19h0a2.988,2.988,0,0,0-3.305,1.319c-1.275,1.947-.474,1.5-0.425,1.7,0,0,2.71,13.869,3.73,15.981a3.933,3.933,0,0,0-.746,5.52c0.286-.326.239-1.582,0.746-1.52A18.362,18.362,0,0,1,145.795,79.544Z"/>
    <path class="cls-8" d="M109.67,54.894c-1.5-2.317-4.25-10.2-4.25-10.2l-2.125-3.4s-0.866-2.179,0-3.4c0.377-.669,2.383.5,1.628-1.039-0.849-1.728-.932-4.22.5-1.936,0.794,1.27,1.921,2.667,1.7,4.25-0.013,0,.414-0.158,1.035-2.985,0,0,.934-1.626,1.273.513a15.612,15.612,0,0,1-1.458,5.872s1.883,5.768,3.825,7.225a12.434,12.434,0,0,1,2.771,3.133c0.03,0.013,1.325,2.181-.846,2.491C112.465,55.6,110.4,56.006,109.67,54.894Z"/>
    <path class="cls-9" d="M119,54V70h19V57s4.9,0.642,6.52-2.956c0.012,0-1.968-10.6-10.943-12.752-5.2-.822-8.6-0.253-10.732.427s-8.76,4.658-10.625,8.925a14.541,14.541,0,0,1,1.7,2.125c0.8,1.24,1.169,2.886,3.825,1.275C119.052,53.44,119.023,53.952,119,54Z"/>
    <path class="cls-8" d="M122.42,29.819s-1.639.466-.425,2.125A6.763,6.763,0,0,1,123,37s0.545,1.621,3.245,1.319L126,41s4.67,0.1,6,0a10.39,10.39,0,0,0-.23-1.831c-0.186-1.519-.425-7.225-0.425-7.225l-2.55-2.55h-4.25l-1.275.425h-0.85Z"/>
    <path class="cls-10" d="M123.27,29.394s-2.246-1.586-.425-2.975c0,0-1.6-1.052-1.7-2.125s0.477-1.55,2.125-1.275c0,0,5.329-1.4,9.35-.425a7.254,7.254,0,0,1,3.825,3.4,15.157,15.157,0,0,1,.425,5.525,12.9,12.9,0,0,1-2.975,6.8s-3.74,2.4-6.375,0c0,0-4.606-5.37-4.25-8.925"/>
    <path class="cls-10" d="M132,113l0.62,2.669s-0.082,1.324.85,1.275H144.1s2.891-.035.85-1.275S139,112,139,112h-7v1Z"/>
    <path id="Shape_8_copy" data-name="Shape 8 copy" class="cls-10" d="M125,113l-0.455,2.669s0.083,1.324-.858,1.275H112.965s-2.917-.035-0.858-1.275S119,112,119,112h6v1Z"/>
  </g>
</svg>
