<svg id="icon" xmlns="http://www.w3.org/2000/svg" width="181" height="122" viewBox="0 0 181 122">
  <defs>
    <style>
      .cls-1 {
        fill: #eef3fe;
      }

      .cls-1, .cls-2, .cls-4, .cls-5, .cls-7 {
        fill-rule: evenodd;
      }

      .cls-2 {
        fill: #fff;
        stroke: #dfe4e5;
        stroke-linejoin: round;
        stroke-width: 1px;
      }

      .cls-3 {
        fill: #8388e4;
      }

      .cls-4 {
        fill: #3c3c3c;
      }

      .cls-5 {
        fill: #36be8f;
      }

      .cls-6 {
        fill: #e3e3e3;
      }

      .cls-7 {
        fill: #de617e;
      }
    </style>
  </defs>
  <path class="cls-1" d="M20,68.019c0.518-12.348,3.106-22.638,28.987-30.87S82.739,25.287,95.68,17.569c10.426-6.394,42.473-5.832,57.974,15.435,10.784,14.8,10.007,34.037-2.07,47.334-10.26,11.3-31.5,20.432-52.8,24.7-21.692,4.344-37.893,1.057-53.939-5.117S19.655,82.768,20,68.019Z"/>
  <g id="icon-2" data-name="icon">
    <path id="Forma_1" data-name="Forma 1" class="cls-2" d="M73.963,22.011L70,22c-3.726,0-5.856,1.95-6,5V97c0,4.054,2.011,5,5,5h57c3.949,0,6-2.017,6-5V27c-0.144-3.05-1.962-5-6-5h-4Z"/>
    <path id="Forma_1_copy_6" data-name="Forma 1 copy 6" class="cls-2" d="M93.9,17.016c0.4-1.748,1.39-3,3.985-3,2.143,0,2.615,1.259,2.989,3,0.122,0.668.7,1,1.993,1h3.985s3,1.8,3,3.569c0,1.724-3,3.425-3,3.425H87.918s-3-1.54-3-3.175c0-1.849,3-3.819,3-3.819H91.9c0.979,0,1.878-.353,1.993-1"/>
    <rect id="Rounded_Rectangle_602" data-name="Rounded Rectangle 602" class="cls-3" x="91" y="20" width="12" height="3" rx="1.5" ry="1.5"/>
    <path id="Inventory" class="cls-4" d="M69.992,40.956h0.826V34.011H69.992v6.945Zm6.618,0v-3a4.134,4.134,0,0,0-.1-1.017A1.584,1.584,0,0,0,76.2,36.3a1.075,1.075,0,0,0-.513-0.332,2.46,2.46,0,0,0-.716-0.094,2.11,2.11,0,0,0-.96.2,1.8,1.8,0,0,0-.642.521h-0.04l-0.149-.605H72.619v4.961h0.8V37.563a1.506,1.506,0,0,1,.483-0.709,1.324,1.324,0,0,1,.871-0.283,0.863,0.863,0,0,1,.821.392,2.4,2.4,0,0,1,.224,1.166v2.828h0.8ZM78.3,35.995H77.386l2.16,5.07h0.338L82,35.995H81.148l-1.115,2.887-0.249.962h-0.01L79.5,38.9Zm7.782,3.988a1.441,1.441,0,0,1-.507.278,2.028,2.028,0,0,1-.677.119,1.96,1.96,0,0,1-.741-0.124,1.207,1.207,0,0,1-.493-0.357,1.5,1.5,0,0,1-.279-0.571,3.026,3.026,0,0,1-.09-0.774h3.195a4.9,4.9,0,0,0,.06-0.724,2.518,2.518,0,0,0-.169-1.007,1.429,1.429,0,0,0-1.045-.873,3.143,3.143,0,0,0-.677-0.074,2.016,2.016,0,0,0-1.622.665,2.9,2.9,0,0,0-.567,1.935,4.088,4.088,0,0,0,.129,1.072,2.274,2.274,0,0,0,.4.819,1.751,1.751,0,0,0,.687.526,2.436,2.436,0,0,0,.985.184,3.261,3.261,0,0,0,.96-0.139,2.252,2.252,0,0,0,.751-0.377Zm-0.6-3.11a1.522,1.522,0,0,1,.289,1.057H83.308a1.536,1.536,0,0,1,.423-1.052,1.381,1.381,0,0,1,.94-0.308A1.075,1.075,0,0,1,85.487,36.873Zm6.31,4.083v-3a4.129,4.129,0,0,0-.1-1.017,1.583,1.583,0,0,0-.308-0.64,1.074,1.074,0,0,0-.513-0.332,2.46,2.46,0,0,0-.717-0.094,2.11,2.11,0,0,0-.96.2,1.8,1.8,0,0,0-.642.521h-0.04l-0.149-.605H87.806v4.961h0.8V37.563a1.507,1.507,0,0,1,.483-0.709,1.324,1.324,0,0,1,.871-0.283,0.863,0.863,0,0,1,.821.392A2.4,2.4,0,0,1,91,38.128v2.828h0.8Zm0.8-4.266h0.776v2.9a2,2,0,0,0,.249,1.146,0.988,0.988,0,0,0,.856.342A2.84,2.84,0,0,0,95.16,41a3.06,3.06,0,0,0,.587-0.208l-0.179-.605q-0.219.089-.4,0.144a1.518,1.518,0,0,1-.438.055,0.47,0.47,0,0,1-.438-0.213,1.491,1.491,0,0,1-.129-0.729V36.689h1.353V35.995H94.165v-1.21l-0.8.228v0.982H92.593v0.694Zm3.772,2.852a2.268,2.268,0,0,0,.4.823,1.758,1.758,0,0,0,.682.526,2.373,2.373,0,0,0,.97.184,1.994,1.994,0,0,0,1.617-.67,2.925,2.925,0,0,0,.562-1.93,4.116,4.116,0,0,0-.129-1.066,2.269,2.269,0,0,0-.4-0.824,1.763,1.763,0,0,0-.682-0.526,2.374,2.374,0,0,0-.97-0.184,1.993,1.993,0,0,0-1.617.67,2.925,2.925,0,0,0-.562,1.93A4.1,4.1,0,0,0,96.365,39.542Zm2.05-2.971a1.161,1.161,0,0,1,1.045.566,1.91,1.91,0,0,1,.234.605,3.486,3.486,0,0,1,.075.734q0,1.915-1.353,1.905a1.176,1.176,0,0,1-.627-0.159A1.253,1.253,0,0,1,97.37,39.8a1.9,1.9,0,0,1-.234-0.605,3.434,3.434,0,0,1-.075-0.724q0-1.915,1.353-1.9h0Zm5.951-.575a2.454,2.454,0,0,0-.647-0.1,1.151,1.151,0,0,0-.672.184,1.531,1.531,0,0,0-.453.521h-0.039l-0.15-.605h-0.557v4.961h0.8V37.483a1.015,1.015,0,0,1,.309-0.59,0.95,0.95,0,0,1,.677-0.233,1.8,1.8,0,0,1,.567.1Zm1.134,0h-0.915l2,4.961a2.386,2.386,0,0,1-.428,1.007,0.728,0.728,0,0,1-.537.293,0.694,0.694,0,0,1-.249-0.05l-0.139.685a1.487,1.487,0,0,0,.587.1,0.86,0.86,0,0,0,.577-0.213,2.07,2.07,0,0,0,.448-0.571,5.415,5.415,0,0,0,.363-0.814q0.165-.456.334-0.943l1.473-4.455h-0.8l-0.969,3.2-0.219.962h-0.05l-0.28-.953Z"/>
    <g id="_1" data-name="1">
      <path id="In_Stock" data-name="In Stock" class="cls-5" d="M69.869,51.471H69V57.92h0.871V51.471Zm1.469,1.657V57.92H72.2V54.363a1.171,1.171,0,0,1,.442-0.454,1.336,1.336,0,0,1,.68-0.162,0.991,0.991,0,0,1,.759.266,1.3,1.3,0,0,1,.248.9V57.92H75.2V54.895a2,2,0,0,0-.422-1.4,1.547,1.547,0,0,0-1.192-.454,1.581,1.581,0,0,0-.816.21,1.733,1.733,0,0,0-.6.591l-0.062-.713H71.338Zm10.531,3.924a1.546,1.546,0,0,1-.974.279A1.723,1.723,0,0,1,79.861,57a1.086,1.086,0,0,1-.457-0.937H78.577l-0.009.027a1.6,1.6,0,0,0,.688,1.4,2.691,2.691,0,0,0,1.638.523,2.516,2.516,0,0,0,1.59-.474,1.51,1.51,0,0,0,.609-1.253,1.626,1.626,0,0,0-.506-1.214,3.257,3.257,0,0,0-1.473-.744,3.253,3.253,0,0,1-1.15-.494,0.863,0.863,0,0,1-.354-0.7,1,1,0,0,1,.323-0.771,1.328,1.328,0,0,1,.93-0.3,1.363,1.363,0,0,1,.974.359,1.2,1.2,0,0,1,.38.908h0.827l0.013-.027a1.757,1.757,0,0,0-.583-1.349,2.226,2.226,0,0,0-1.612-.578,2.269,2.269,0,0,0-1.531.5,1.594,1.594,0,0,0-.589,1.262,1.509,1.509,0,0,0,.548,1.191,3.651,3.651,0,0,0,1.524.718,2.594,2.594,0,0,1,1.1.5,0.974,0.974,0,0,1,.312.735A0.909,0.909,0,0,1,81.869,57.052Zm2.672-5.08v1.156H83.784v0.647H84.54v2.91a1.4,1.4,0,0,0,.312,1.008,1.117,1.117,0,0,0,.84.321,1.436,1.436,0,0,0,.374-0.051,0.766,0.766,0,0,0,.286-0.131l-0.119-.6a1.229,1.229,0,0,1-.154.042,0.8,0.8,0,0,1-.167.02,0.5,0.5,0,0,1-.367-0.137,0.655,0.655,0,0,1-.138-0.474v-2.91h0.9V53.128h-0.9V51.972H84.54Zm2.494,3.605a2.633,2.633,0,0,0,.574,1.752,2.118,2.118,0,0,0,3.116,0,2.638,2.638,0,0,0,.572-1.754v-0.1a2.642,2.642,0,0,0-.574-1.754,2.109,2.109,0,0,0-3.116,0,2.65,2.65,0,0,0-.572,1.752v0.1Zm0.866-.1a2.29,2.29,0,0,1,.319-1.253,1.043,1.043,0,0,1,.939-0.5,1.058,1.058,0,0,1,.948.5,2.267,2.267,0,0,1,.323,1.253v0.1a2.274,2.274,0,0,1-.321,1.258,1.147,1.147,0,0,1-1.889,0,2.285,2.285,0,0,1-.319-1.258v-0.1Zm5.412,1.355a2.389,2.389,0,0,1-.288-1.218V55.431a2.344,2.344,0,0,1,.293-1.207,1,1,0,0,1,.93-0.5,0.93,0.93,0,0,1,.715.308,1.062,1.062,0,0,1,.284.746h0.787l0.009-.027a1.579,1.579,0,0,0-.49-1.218,1.789,1.789,0,0,0-1.3-.5,1.862,1.862,0,0,0-1.546.689,2.651,2.651,0,0,0-.547,1.7v0.186a2.662,2.662,0,0,0,.545,1.71,2.006,2.006,0,0,0,2.815.206,1.38,1.38,0,0,0,.528-1.1l-0.013-.027H95.245a0.849,0.849,0,0,1-.3.658,1.015,1.015,0,0,1-.7.268A1,1,0,0,1,93.312,56.835Zm6.656,1.085h1.024l-1.877-2.582,1.728-2.21H99.806l-1.429,1.887H97.941v-4H97.075v6.91h0.866V55.71h0.444Z"/>
    </g>
    <g id="_2" data-name="2">
      <path id="In_Stock-2" data-name="In Stock" class="cls-5" d="M69.869,69.471H69V75.92h0.871V69.471Zm1.469,1.657V75.92H72.2V72.363a1.171,1.171,0,0,1,.442-0.454,1.336,1.336,0,0,1,.68-0.162,0.991,0.991,0,0,1,.759.266,1.3,1.3,0,0,1,.248.9V75.92H75.2V72.895a2,2,0,0,0-.422-1.4,1.547,1.547,0,0,0-1.192-.454,1.581,1.581,0,0,0-.816.21,1.733,1.733,0,0,0-.6.591l-0.062-.713H71.338Zm10.531,3.924a1.546,1.546,0,0,1-.974.279A1.723,1.723,0,0,1,79.861,75a1.086,1.086,0,0,1-.457-0.937H78.577l-0.009.027a1.6,1.6,0,0,0,.688,1.4,2.691,2.691,0,0,0,1.638.523,2.516,2.516,0,0,0,1.59-.474,1.51,1.51,0,0,0,.609-1.253,1.626,1.626,0,0,0-.506-1.214,3.257,3.257,0,0,0-1.473-.744,3.253,3.253,0,0,1-1.15-.494,0.863,0.863,0,0,1-.354-0.7,1,1,0,0,1,.323-0.771,1.328,1.328,0,0,1,.93-0.3,1.363,1.363,0,0,1,.974.359,1.2,1.2,0,0,1,.38.908h0.827l0.013-.027a1.757,1.757,0,0,0-.583-1.349,2.226,2.226,0,0,0-1.612-.578,2.269,2.269,0,0,0-1.531.5,1.594,1.594,0,0,0-.589,1.262,1.509,1.509,0,0,0,.548,1.191,3.651,3.651,0,0,0,1.524.718,2.594,2.594,0,0,1,1.1.5,0.974,0.974,0,0,1,.312.735A0.909,0.909,0,0,1,81.869,75.052Zm2.672-5.08v1.156H83.784v0.647H84.54v2.91a1.4,1.4,0,0,0,.312,1.008,1.117,1.117,0,0,0,.84.321,1.436,1.436,0,0,0,.374-0.051,0.766,0.766,0,0,0,.286-0.131l-0.119-.6a1.229,1.229,0,0,1-.154.042,0.8,0.8,0,0,1-.167.02,0.5,0.5,0,0,1-.367-0.137,0.655,0.655,0,0,1-.138-0.474v-2.91h0.9V71.128h-0.9V69.972H84.54Zm2.494,3.605a2.633,2.633,0,0,0,.574,1.752,2.118,2.118,0,0,0,3.116,0,2.638,2.638,0,0,0,.572-1.754v-0.1a2.642,2.642,0,0,0-.574-1.754,2.109,2.109,0,0,0-3.116,0,2.65,2.65,0,0,0-.572,1.752v0.1Zm0.866-.1a2.29,2.29,0,0,1,.319-1.254,1.043,1.043,0,0,1,.939-0.5,1.058,1.058,0,0,1,.948.5,2.267,2.267,0,0,1,.323,1.254v0.1a2.274,2.274,0,0,1-.321,1.258,1.147,1.147,0,0,1-1.889,0,2.285,2.285,0,0,1-.319-1.258v-0.1Zm5.412,1.355a2.389,2.389,0,0,1-.288-1.218V73.431a2.344,2.344,0,0,1,.293-1.207,1,1,0,0,1,.93-0.5,0.93,0.93,0,0,1,.715.308,1.062,1.062,0,0,1,.284.746h0.787l0.009-.027a1.579,1.579,0,0,0-.49-1.218,1.789,1.789,0,0,0-1.3-.5,1.862,1.862,0,0,0-1.546.689,2.651,2.651,0,0,0-.547,1.7v0.186a2.662,2.662,0,0,0,.545,1.71,2.006,2.006,0,0,0,2.815.206,1.38,1.38,0,0,0,.528-1.1l-0.013-.026H95.245a0.849,0.849,0,0,1-.3.658,1.015,1.015,0,0,1-.7.268A1,1,0,0,1,93.312,74.835Zm6.656,1.085h1.024l-1.877-2.582,1.728-2.21H99.806l-1.429,1.887H97.941v-4H97.075v6.91h0.866V73.71h0.444Z"/>
      <rect id="Rounded_Rectangle_604" data-name="Rounded Rectangle 604" class="cls-6" x="105" y="54" width="22" height="3" rx="1.5" ry="1.5"/>
      <rect id="Rounded_Rectangle_604_copy" data-name="Rounded Rectangle 604 copy" class="cls-6" x="105" y="72" width="22" height="3" rx="1.5" ry="1.5"/>
      <rect id="Rounded_Rectangle_604_copy_2" data-name="Rounded Rectangle 604 copy 2" class="cls-6" x="111" y="90" width="15" height="3" rx="1.5" ry="1.5"/>
    </g>
    <g id="_3" data-name="3">
      <path id="Out_Stock" data-name="Out Stock" class="cls-7" d="M74.027,90.124a2.812,2.812,0,0,0-.71-1.964,2.373,2.373,0,0,0-1.842-.782,2.248,2.248,0,0,0-1.777.784,2.877,2.877,0,0,0-.684,1.962v1.147a2.866,2.866,0,0,0,.684,1.962,2.253,2.253,0,0,0,1.777.78,2.375,2.375,0,0,0,1.842-.78,2.8,2.8,0,0,0,.71-1.962V90.124Zm-0.845,1.147a2.241,2.241,0,0,1-.461,1.464,1.524,1.524,0,0,1-1.246.565,1.413,1.413,0,0,1-1.177-.567,2.317,2.317,0,0,1-.439-1.462V90.115a2.3,2.3,0,0,1,.439-1.453,1.413,1.413,0,0,1,1.177-.567,1.523,1.523,0,0,1,1.243.567,2.222,2.222,0,0,1,.463,1.453v1.156ZM78.13,93.92h0.759V89.128H78.045v3.455a1.169,1.169,0,0,1-.444.534,1.355,1.355,0,0,1-.744.188,0.8,0.8,0,0,1-.682-0.288,1.831,1.831,0,0,1-.219-1.054V89.128H75.112v2.826a2.377,2.377,0,0,0,.425,1.559,1.468,1.468,0,0,0,1.183.5,1.5,1.5,0,0,0,.793-0.208,1.6,1.6,0,0,0,.562-0.594Zm2.32-5.948v1.156H79.713v0.647H80.45v2.91a1.424,1.424,0,0,0,.3,1.008,1.075,1.075,0,0,0,.819.321,1.367,1.367,0,0,0,.365-0.051,0.737,0.737,0,0,0,.279-0.131l-0.116-.6a1.173,1.173,0,0,1-.15.042,0.761,0.761,0,0,1-.163.02,0.479,0.479,0,0,1-.358-0.137,0.666,0.666,0,0,1-.135-0.474v-2.91h0.879V89.128H81.295V87.972H80.45Zm7.9,5.08a1.481,1.481,0,0,1-.95.279A1.652,1.652,0,0,1,86.4,93a1.1,1.1,0,0,1-.446-0.937H85.146l-0.008.027a1.611,1.611,0,0,0,.671,1.4,2.579,2.579,0,0,0,1.6.523,2.41,2.41,0,0,0,1.55-.474,1.524,1.524,0,0,0,.594-1.253,1.646,1.646,0,0,0-.493-1.214,3.147,3.147,0,0,0-1.437-.744,3.133,3.133,0,0,1-1.121-.494,0.87,0.87,0,0,1-.345-0.7,1.011,1.011,0,0,1,.315-0.771,1.274,1.274,0,0,1,.907-0.3,1.31,1.31,0,0,1,.95.359,1.21,1.21,0,0,1,.371.908H89.5l0.013-.027a1.778,1.778,0,0,0-.568-1.349,2.139,2.139,0,0,0-1.572-.578,2.177,2.177,0,0,0-1.492.5,1.611,1.611,0,0,0-.575,1.262,1.526,1.526,0,0,0,.534,1.191,3.522,3.522,0,0,0,1.486.718,2.5,2.5,0,0,1,1.072.5,0.986,0.986,0,0,1,.3.735A0.918,0.918,0,0,1,88.355,93.052Zm2.605-5.08v1.156H90.223v0.647H90.96v2.91a1.424,1.424,0,0,0,.3,1.008,1.075,1.075,0,0,0,.819.321,1.368,1.368,0,0,0,.364-0.051,0.737,0.737,0,0,0,.279-0.131l-0.116-.6a1.17,1.17,0,0,1-.15.042,0.759,0.759,0,0,1-.163.02,0.48,0.48,0,0,1-.358-0.137,0.666,0.666,0,0,1-.135-0.474v-2.91h0.879V89.128H91.8V87.972H90.96Zm2.431,3.605a2.678,2.678,0,0,0,.56,1.752,2.03,2.03,0,0,0,3.038,0,2.682,2.682,0,0,0,.557-1.754v-0.1a2.687,2.687,0,0,0-.559-1.754,2.022,2.022,0,0,0-3.038,0,2.7,2.7,0,0,0-.557,1.752v0.1Zm0.845-.1a2.337,2.337,0,0,1,.311-1.254,1.011,1.011,0,0,1,.916-0.5,1.025,1.025,0,0,1,.924.5A2.311,2.311,0,0,1,96.7,91.48v0.1a2.319,2.319,0,0,1-.313,1.258,1.1,1.1,0,0,1-1.842,0,2.331,2.331,0,0,1-.311-1.258v-0.1Zm5.276,1.355a2.439,2.439,0,0,1-.281-1.218V91.431a2.392,2.392,0,0,1,.285-1.207,0.968,0.968,0,0,1,.907-0.5,0.9,0.9,0,0,1,.7.308,1.079,1.079,0,0,1,.276.746h0.768l0.008-.027a1.6,1.6,0,0,0-.478-1.218,1.72,1.72,0,0,0-1.271-.5,1.8,1.8,0,0,0-1.507.689,2.7,2.7,0,0,0-.534,1.7v0.186a2.708,2.708,0,0,0,.532,1.71,1.922,1.922,0,0,0,2.745.206,1.393,1.393,0,0,0,.514-1.1l-0.013-.026H101.4a0.859,0.859,0,0,1-.291.658A1.05,1.05,0,0,1,99.513,92.835ZM106,93.92h1l-1.831-2.582,1.685-2.21h-1.012l-1.394,1.887h-0.424v-4h-0.845v6.91h0.845V91.71h0.433Z"/>
    </g>
  </g>
</svg>
