<svg xmlns="http://www.w3.org/2000/svg" width="178" height="122" viewBox="0 0 178 122">
  <defs>
    <style>
      .cls-1, .cls-3 {
        fill: #eef3fe;
      }

      .cls-1, .cls-5, .cls-6, .cls-7, .cls-8, .cls-9 {
        fill-rule: evenodd;
      }

      .cls-2 {
        fill: #fff;
      }

      .cls-2, .cls-3 {
        stroke: #e3e3e3;
        stroke-linejoin: round;
        stroke-width: 1px;
      }

      .cls-4 {
        fill: #e3e3e3;
      }

      .cls-5 {
        fill: #3be2a9;
      }

      .cls-6 {
        fill: #80a6ff;
      }

      .cls-7 {
        fill: #6291fe;
      }

      .cls-8 {
        fill: #4b7ff8;
      }

      .cls-9 {
        fill: #b4cbff;
      }
    </style>
  </defs>
  <path class="cls-1" d="M16,68.019c0.518-12.348,3.106-22.638,28.987-30.87S78.739,25.287,91.68,17.569c10.426-6.394,42.473-5.832,57.974,15.435,10.784,14.8,10.007,34.037-2.07,47.334-10.26,11.3-31.5,20.432-52.8,24.7-21.692,4.344-37.893,1.057-53.939-5.117S15.655,82.768,16,68.019Z"/>
  <g id="note">
    <rect id="Rounded_Rectangle_598" data-name="Rounded Rectangle 598" class="cls-2" x="56" y="28" width="63" height="76" rx="2" ry="2"/>
    <g>
      <rect id="Rounded_Rectangle_601" data-name="Rounded Rectangle 601" class="cls-3" x="64" y="39" width="12" height="12" rx="1" ry="1"/>
      <rect id="Rounded_Rectangle_601_copy" data-name="Rounded Rectangle 601 copy" class="cls-3" x="64" y="60" width="12" height="12" rx="1" ry="1"/>
      <rect id="Rounded_Rectangle_601_copy_2" data-name="Rounded Rectangle 601 copy 2" class="cls-3" x="64" y="80" width="12" height="12" rx="1" ry="1"/>
      <rect id="Rounded_Rectangle_602" data-name="Rounded Rectangle 602" class="cls-4" x="80" y="41" width="29" height="3" rx="1.5" ry="1.5"/>
      <rect id="Rounded_Rectangle_602_copy" data-name="Rounded Rectangle 602 copy" class="cls-4" x="80" y="47" width="18" height="3" rx="1.5" ry="1.5"/>
      <rect id="Rounded_Rectangle_602_copy_2" data-name="Rounded Rectangle 602 copy 2" class="cls-4" x="80" y="62" width="29" height="3" rx="1.5" ry="1.5"/>
      <rect id="Rounded_Rectangle_602_copy_2-2" data-name="Rounded Rectangle 602 copy 2" class="cls-4" x="80" y="68" width="18" height="3" rx="1.5" ry="1.5"/>
      <rect id="Rounded_Rectangle_602_copy_3" data-name="Rounded Rectangle 602 copy 3" class="cls-4" x="80" y="82" width="29" height="3" rx="1.5" ry="1.5"/>
      <rect id="Rounded_Rectangle_602_copy_3-2" data-name="Rounded Rectangle 602 copy 3" class="cls-4" x="80" y="88" width="18" height="3" rx="1.5" ry="1.5"/>
    </g>
    <path id="Forma_1" data-name="Forma 1" class="cls-5" d="M73.906,41.182L69.023,46.4,67.049,44.29a0.593,0.593,0,0,0-.878,0,0.7,0.7,0,0,0,0,.938l2.413,2.577a0.593,0.593,0,0,0,.878,0v0l5.32-5.684a0.7,0.7,0,0,0,0-.938A0.593,0.593,0,0,0,73.906,41.182Z"/>
    <path id="Forma_1_copy_2" data-name="Forma 1 copy 2" class="cls-5" d="M73.906,62.182L69.023,67.4,67.049,65.29a0.593,0.593,0,0,0-.878,0,0.7,0.7,0,0,0,0,.938l2.413,2.577a0.593,0.593,0,0,0,.878,0v0l5.32-5.684a0.7,0.7,0,0,0,0-.938A0.593,0.593,0,0,0,73.906,62.182Z"/>
    <path id="Forma_1_copy_7" data-name="Forma 1 copy 7" class="cls-5" d="M73.906,82.182L69.023,87.4,67.049,85.29a0.593,0.593,0,0,0-.878,0,0.7,0.7,0,0,0,0,.938l2.413,2.577a0.593,0.593,0,0,0,.878,0v0l5.32-5.684a0.7,0.7,0,0,0,0-.938A0.593,0.593,0,0,0,73.906,82.182Z"/>
  </g>
  <g id="inventory">
    <path id="Shape_1_copy_3" data-name="Shape 1 copy 3" class="cls-6" d="M126,62.229L107,73l19,11,18-11Z"/>
    <path id="Shape_1_copy_2" data-name="Shape 1 copy 2" class="cls-7" d="M128.192,82.407L126,83.887v20.884L144,94V73Z"/>
    <path id="Shape_1_copy" data-name="Shape 1 copy" class="cls-8" d="M107,73V94l19,11V84Z"/>
    <path class="cls-9" d="M114.5,82.278V76.889L133.08,66.167l3.649,2.133L118.147,79.078l-0.28,4.94Z"/>
  </g>
</svg>
