<svg id="icon" xmlns="http://www.w3.org/2000/svg" width="181" height="122" viewBox="0 0 181 122">
  <defs>
    <style>
      .cls-1 {
        fill: #eef3fe;
      }

      .cls-1, .cls-4, .cls-5, .cls-6 {
        fill-rule: evenodd;
      }

      .cls-2 {
        fill: #fff;
        stroke: #e3e3e3;
        stroke-linejoin: round;
        stroke-width: 1px;
      }

      .cls-3 {
        fill: #e3e3e3;
      }

      .cls-4 {
        fill: #3c3c3c;
      }

      .cls-5 {
        fill: #36be8f;
      }

      .cls-6 {
        fill: #de617e;
      }
    </style>
  </defs>
  <path class="cls-1" d="M20,68.019c0.518-12.348,3.106-22.638,28.987-30.87S82.739,25.287,95.68,17.569c10.426-6.394,42.473-5.832,57.974,15.435,10.784,14.8,10.007,34.037-2.07,47.334-10.26,11.3-31.5,20.432-52.8,24.7-21.692,4.344-37.893,1.057-53.939-5.117S19.655,82.768,20,68.019Z"/>
  <g id="Graph_copy" data-name="Graph copy">
    <rect id="Rounded_Rectangle_602" data-name="Rounded Rectangle 602" class="cls-2" x="52" y="20" width="88" height="81" rx="3" ry="3"/>
    <g id="tick-3">
      <rect id="Rounded_Rectangle_603" data-name="Rounded Rectangle 603" class="cls-3" x="96" y="47" width="34" height="2" rx="1" ry="1"/>
      <rect id="Rounded_Rectangle_603_copy" data-name="Rounded Rectangle 603 copy" class="cls-3" x="96" y="53" width="19" height="2" rx="1" ry="1"/>
      <rect id="Rounded_Rectangle_603_copy_2" data-name="Rounded Rectangle 603 copy 2" class="cls-3" x="96" y="63" width="34" height="2" rx="1" ry="1"/>
      <rect id="Rounded_Rectangle_603_copy_2-2" data-name="Rounded Rectangle 603 copy 2" class="cls-3" x="96" y="69" width="19" height="2" rx="1" ry="1"/>
      <rect id="Rounded_Rectangle_603_copy_3" data-name="Rounded Rectangle 603 copy 3" class="cls-3" x="96" y="79" width="34" height="2" rx="1" ry="1"/>
      <rect id="Rounded_Rectangle_603_copy_3-2" data-name="Rounded Rectangle 603 copy 3" class="cls-3" x="96" y="85" width="19" height="2" rx="1" ry="1"/>
    </g>
    <path id="Product" class="cls-4" d="M60.991,36.882h0.838V34.294q0.05,0.01.172,0.019t0.247,0.015q0.126,0,.242,0h0.167a4.422,4.422,0,0,0,1.02-.117,2.537,2.537,0,0,0,.878-0.384,1.992,1.992,0,0,0,.616-0.7,2.18,2.18,0,0,0,.232-1.051,1.984,1.984,0,0,0-.247-1.041,1.839,1.839,0,0,0-.641-0.642,2.619,2.619,0,0,0-.873-0.321,5.246,5.246,0,0,0-.944-0.088q-0.434,0-.878.029a5.277,5.277,0,0,0-.828.117v6.743Zm2.372-6.12a1.782,1.782,0,0,1,.581.229,1.226,1.226,0,0,1,.414.428,1.3,1.3,0,0,1,.157.666,1.578,1.578,0,0,1-.167.769,1.225,1.225,0,0,1-.439.467,1.8,1.8,0,0,1-.611.229,3.689,3.689,0,0,1-.681.063H62.455q-0.111,0-.232,0l-0.232-.01a0.551,0.551,0,0,1-.162-0.024V30.752a1.783,1.783,0,0,1,.384-0.049q0.242-.01.5-0.01A3.132,3.132,0,0,1,63.364,30.762Zm5.391,1.255a2.566,2.566,0,0,0-.656-0.1,1.2,1.2,0,0,0-.681.18,1.519,1.519,0,0,0-.459.511h-0.04l-0.151-.593H66.2v4.865h0.808V33.477a0.939,0.939,0,0,1,1-.808,1.884,1.884,0,0,1,.576.1ZM69.482,35.5a2.194,2.194,0,0,0,.4.807,1.777,1.777,0,0,0,.692.516,2.479,2.479,0,0,0,.984.18,2.056,2.056,0,0,0,1.641-.657,2.8,2.8,0,0,0,.57-1.893,3.907,3.907,0,0,0-.131-1.046,2.2,2.2,0,0,0-.4-0.808,1.78,1.78,0,0,0-.692-0.516,2.481,2.481,0,0,0-.984-0.18,2.055,2.055,0,0,0-1.64.657,2.8,2.8,0,0,0-.57,1.892A3.9,3.9,0,0,0,69.482,35.5Zm2.08-2.914a1.258,1.258,0,0,1,.636.151,1.213,1.213,0,0,1,.424.4,1.837,1.837,0,0,1,.237.593,3.317,3.317,0,0,1,.076.72q0,1.878-1.373,1.868a1.226,1.226,0,0,1-.636-0.156,1.251,1.251,0,0,1-.424-0.409,1.831,1.831,0,0,1-.237-0.593,3.262,3.262,0,0,1-.076-0.71q0-1.878,1.373-1.868h0Zm7.359-2.51H78.113V32.1a3.146,3.146,0,0,0-.469-0.127,3.53,3.53,0,0,0-.591-0.039,2.2,2.2,0,0,0-1.681.647,2.657,2.657,0,0,0-.611,1.892,3.057,3.057,0,0,0,.49,1.917,1.8,1.8,0,0,0,1.5.613,1.751,1.751,0,0,0,.9-0.224,1.6,1.6,0,0,0,.585-0.564h0.04l0.2,0.691h0.545a4.412,4.412,0,0,1-.091-0.793q-0.01-.4-0.01-0.9V30.071Zm-2.64,6.105a1.111,1.111,0,0,1-.4-0.384,1.7,1.7,0,0,1-.217-0.584,3.9,3.9,0,0,1-.066-0.739,2.1,2.1,0,0,1,.394-1.416,1.384,1.384,0,0,1,1.09-.443,2.617,2.617,0,0,1,.616.058,1.15,1.15,0,0,1,.414.195v2.413a1.361,1.361,0,0,1-.414.783,1.22,1.22,0,0,1-.818.258A1.194,1.194,0,0,1,76.281,36.177Zm4.114-4.159v2.938a3.925,3.925,0,0,0,.106,1,1.53,1.53,0,0,0,.313.627,1.092,1.092,0,0,0,.515.326A2.481,2.481,0,0,0,82.04,37a1.817,1.817,0,0,0,1-.253,1.968,1.968,0,0,0,.626-0.632h0.05l0.2,0.769h0.555a4.63,4.63,0,0,1-.086-0.657q-0.025-.374-0.025-0.725V32.017H83.554v3.25a2.012,2.012,0,0,1-.207.4,1.683,1.683,0,0,1-.293.336,1.266,1.266,0,0,1-.379.229,1.325,1.325,0,0,1-.485.083,1.065,1.065,0,0,1-.485-0.1,0.723,0.723,0,0,1-.3-0.287,1.359,1.359,0,0,1-.156-0.477A4.31,4.31,0,0,1,81.2,34.79V32.017H80.394Zm8.7,3.95a1.894,1.894,0,0,1-1.121.35,1.48,1.48,0,0,1-.712-0.156,1.3,1.3,0,0,1-.464-0.414,1.7,1.7,0,0,1-.252-0.593,3.2,3.2,0,0,1-.076-0.705q0-1.868,1.433-1.868a2.415,2.415,0,0,1,.606.073,2.247,2.247,0,0,1,.515.2l0.232-.671a2.58,2.58,0,0,0-.611-0.209,3.97,3.97,0,0,0-.823-0.073,2.027,2.027,0,0,0-1.625.657,2.82,2.82,0,0,0-.565,1.892A4.38,4.38,0,0,0,85.75,35.5a2.152,2.152,0,0,0,.373.807,1.678,1.678,0,0,0,.661.516,2.425,2.425,0,0,0,.989.18,3.317,3.317,0,0,0,.868-0.112,2.244,2.244,0,0,0,.717-0.326ZM89.8,32.7H90.59v2.841a1.911,1.911,0,0,0,.252,1.124,1.019,1.019,0,0,0,.868.336,2.975,2.975,0,0,0,.7-0.078,3.187,3.187,0,0,0,.6-0.2l-0.182-.594q-0.222.088-.4,0.141a1.591,1.591,0,0,1-.444.053,0.483,0.483,0,0,1-.444-0.209,1.422,1.422,0,0,1-.131-0.715V32.7h1.373V32.017H91.4V30.83l-0.808.224v0.963H89.8V32.7Z"/>
    <path id="Active" class="cls-5" d="M64.362,53.92h0.871l-2.228-6.456H62.273L60,53.92h0.871l0.564-1.663h2.375ZM62.62,48.754h0.026l0.919,2.771H61.679Zm4.367,4.079a2.423,2.423,0,0,1-.284-1.219V51.428a2.377,2.377,0,0,1,.288-1.208,0.981,0.981,0,0,1,.917-0.5,0.91,0.91,0,0,1,.7.308,1.072,1.072,0,0,1,.28.747h0.776l0.009-.027a1.594,1.594,0,0,0-.483-1.219,1.748,1.748,0,0,0-1.285-.5,1.823,1.823,0,0,0-1.523.69,2.681,2.681,0,0,0-.54,1.7v0.186a2.694,2.694,0,0,0,.538,1.712,1.956,1.956,0,0,0,2.774.206,1.39,1.39,0,0,0,.52-1.1L69.663,52.4H68.892a0.856,0.856,0,0,1-.295.658,0.992,0.992,0,0,1-.689.268A0.98,0.98,0,0,1,66.987,52.834Zm4.037-4.869v1.157H70.279V49.77h0.746v2.913a1.417,1.417,0,0,0,.308,1.009,1.092,1.092,0,0,0,.828.322,1.4,1.4,0,0,0,.368-0.051,0.748,0.748,0,0,0,.282-0.131l-0.117-.6a1.2,1.2,0,0,1-.152.042,0.776,0.776,0,0,1-.165.02,0.487,0.487,0,0,1-.362-0.137,0.662,0.662,0,0,1-.137-0.475V49.77h0.889V49.122H71.878V47.965H71.024Zm3.58,1.157H73.75v4.8H74.6v-4.8Zm0-2.12H73.75v0.891H74.6V47Zm1.768,2.12H75.5l1.747,4.8H77.89l1.725-4.8H78.744l-1.079,3.383-0.082.337H77.556l-0.074-.337Zm6.887,4.72a2.045,2.045,0,0,0,.663-0.419l-0.334-.568a1.691,1.691,0,0,1-.561.348,2.1,2.1,0,0,1-.761.126,1.081,1.081,0,0,1-.954-0.45A2.017,2.017,0,0,1,81,51.707l0.013-.022h3V51.224a2.505,2.505,0,0,0-.47-1.592,1.684,1.684,0,0,0-1.411-.6,1.812,1.812,0,0,0-1.424.676,2.525,2.525,0,0,0-.583,1.709v0.2a2.58,2.58,0,0,0,.566,1.738,1.963,1.963,0,0,0,1.576.661A2.591,2.591,0,0,0,83.26,53.843Zm-0.351-3.78a1.42,1.42,0,0,1,.251.865V51H81.045l-0.009-.022a1.69,1.69,0,0,1,.358-0.9,0.92,0.92,0,0,1,.739-0.352A0.9,0.9,0,0,1,82.909,50.062Z"/>
    <path id="Active_copy" data-name="Active copy" class="cls-5" d="M64.362,69.92h0.871l-2.228-6.456H62.273L60,69.92h0.871l0.564-1.663h2.375ZM62.62,64.754h0.026l0.919,2.771H61.679Zm4.367,4.079a2.423,2.423,0,0,1-.284-1.219V67.428a2.377,2.377,0,0,1,.288-1.208,0.981,0.981,0,0,1,.917-0.5,0.91,0.91,0,0,1,.7.308,1.072,1.072,0,0,1,.28.747h0.776l0.009-.027a1.594,1.594,0,0,0-.483-1.219,1.748,1.748,0,0,0-1.285-.5,1.823,1.823,0,0,0-1.523.69,2.681,2.681,0,0,0-.54,1.7v0.186a2.694,2.694,0,0,0,.538,1.712,1.956,1.956,0,0,0,2.774.206,1.39,1.39,0,0,0,.52-1.1L69.663,68.4H68.892a0.856,0.856,0,0,1-.295.658,0.992,0.992,0,0,1-.689.268A0.98,0.98,0,0,1,66.987,68.834Zm4.037-4.869v1.157H70.279V65.77h0.746v2.913a1.417,1.417,0,0,0,.308,1.009,1.092,1.092,0,0,0,.828.322,1.4,1.4,0,0,0,.368-0.051,0.748,0.748,0,0,0,.282-0.131l-0.117-.6a1.2,1.2,0,0,1-.152.042,0.776,0.776,0,0,1-.165.02,0.487,0.487,0,0,1-.362-0.137,0.662,0.662,0,0,1-.137-0.474V65.77h0.889V65.122H71.878V63.965H71.024Zm3.58,1.157H73.75v4.8H74.6v-4.8ZM74.6,63H73.75v0.891H74.6V63Zm1.768,2.119H75.5l1.747,4.8H77.89l1.725-4.8H78.744l-1.079,3.383-0.082.337H77.556l-0.074-.337Zm6.887,4.72a2.045,2.045,0,0,0,.663-0.419l-0.334-.567a1.691,1.691,0,0,1-.561.348,2.1,2.1,0,0,1-.761.126,1.081,1.081,0,0,1-.954-0.45A2.017,2.017,0,0,1,81,67.707l0.013-.022h3V67.224a2.505,2.505,0,0,0-.47-1.592,1.684,1.684,0,0,0-1.411-.6,1.812,1.812,0,0,0-1.424.676,2.525,2.525,0,0,0-.583,1.709v0.2a2.58,2.58,0,0,0,.566,1.738,1.963,1.963,0,0,0,1.576.661A2.591,2.591,0,0,0,83.26,69.843Zm-0.351-3.78a1.42,1.42,0,0,1,.251.865V67H81.045l-0.009-.022a1.69,1.69,0,0,1,.358-0.9,0.92,0.92,0,0,1,.739-0.353A0.9,0.9,0,0,1,82.909,66.062Z"/>
    <path id="Inactive" class="cls-6" d="M60.88,79.464H60V85.92H60.88V79.464Zm1.486,1.658v4.8h0.877V82.359a1.177,1.177,0,0,1,.447-0.454,1.362,1.362,0,0,1,.687-0.162,1.009,1.009,0,0,1,.767.266,1.3,1.3,0,0,1,.251.9V85.92h0.877V82.892a1.991,1.991,0,0,0-.427-1.4,1.575,1.575,0,0,0-1.206-.454,1.613,1.613,0,0,0-.825.211,1.745,1.745,0,0,0-.6.592l-0.062-.714H62.366Zm9.041,4.8a2.54,2.54,0,0,1-.1-0.47,4.48,4.48,0,0,1-.027-0.5v-2.31a1.467,1.467,0,0,0-.5-1.195,1.993,1.993,0,0,0-1.317-.415,2.042,2.042,0,0,0-1.35.435,1.147,1.147,0,0,0-.492.958l0.009,0.027,0.832-.009a0.638,0.638,0,0,1,.262-0.51,1.061,1.061,0,0,1,.69-0.213,1.016,1.016,0,0,1,.73.246,0.879,0.879,0,0,1,.258.667v0.474H69.454a2.615,2.615,0,0,0-1.515.388,1.238,1.238,0,0,0-.558,1.075,1.408,1.408,0,0,0,.394,1.057,1.577,1.577,0,0,0,1.146.384,1.637,1.637,0,0,0,.848-0.233,2.04,2.04,0,0,0,.638-0.579,2.8,2.8,0,0,0,.029.335q0.024,0.166.069,0.383h0.9Zm-2.95-.825a0.657,0.657,0,0,1-.2-0.505,0.8,0.8,0,0,1,.318-0.625,1.278,1.278,0,0,1,.848-0.266h0.983v0.78a1.16,1.16,0,0,1-.5.559,1.564,1.564,0,0,1-.859.244A0.84,0.84,0,0,1,68.457,85.1Zm5.066-.262a2.372,2.372,0,0,1-.291-1.219V83.428a2.328,2.328,0,0,1,.3-1.208,1.013,1.013,0,0,1,.941-0.5,0.946,0.946,0,0,1,.723.308,1.057,1.057,0,0,1,.287.747h0.8l0.009-.027a1.572,1.572,0,0,0-.5-1.219,1.82,1.82,0,0,0-1.319-.5,1.892,1.892,0,0,0-1.564.69,2.635,2.635,0,0,0-.554,1.7v0.186a2.647,2.647,0,0,0,.552,1.712,2.045,2.045,0,0,0,2.848.206,1.376,1.376,0,0,0,.534-1.1L76.27,84.4H75.478a0.846,0.846,0,0,1-.3.658,1.033,1.033,0,0,1-.707.268A1.012,1.012,0,0,1,73.523,84.834Zm4.145-4.869v1.157H76.9V81.77h0.765v2.913a1.393,1.393,0,0,0,.316,1.009,1.137,1.137,0,0,0,.85.322,1.468,1.468,0,0,0,.378-0.051,0.777,0.777,0,0,0,.289-0.131l-0.12-.6a1.257,1.257,0,0,1-.156.042,0.817,0.817,0,0,1-.169.02,0.508,0.508,0,0,1-.371-0.137,0.651,0.651,0,0,1-.14-0.474V81.77h0.912V81.122H78.544V79.965H77.667Zm3.675,1.157H80.466v4.8h0.877v-4.8Zm0-2.12H80.466v0.891h0.877V79Zm1.815,2.12h-0.9l1.793,4.8h0.663l1.771-4.8H85.592l-1.108,3.383-0.085.337H84.373L84.3,84.506Zm7.07,4.72a2.108,2.108,0,0,0,.681-0.419l-0.343-.567a1.744,1.744,0,0,1-.576.348,2.211,2.211,0,0,1-.781.126,1.121,1.121,0,0,1-.979-0.45,1.978,1.978,0,0,1-.32-1.173l0.013-.022H91V83.224a2.46,2.46,0,0,0-.483-1.592,1.75,1.75,0,0,0-1.448-.6,1.88,1.88,0,0,0-1.462.676,2.484,2.484,0,0,0-.6,1.709v0.2a2.537,2.537,0,0,0,.581,1.738,2.04,2.04,0,0,0,1.617.661A2.722,2.722,0,0,0,90.228,85.843Zm-0.36-3.78a1.394,1.394,0,0,1,.258.865V83H87.954l-0.009-.022a1.666,1.666,0,0,1,.367-0.9,0.954,0.954,0,0,1,.759-0.353A0.934,0.934,0,0,1,89.868,82.062Z"/>
  </g>
</svg>
