<svg id="icon" xmlns="http://www.w3.org/2000/svg" width="181" height="122" viewBox="0 0 181 122">
  <defs>
    <style>
      .cls-1 {
        fill: #eef3fe;
      }

      .cls-1, .cls-3, .cls-5, .cls-6, .cls-7, .cls-8 {
        fill-rule: evenodd;
      }

      .cls-2 {
        fill: #fff;
        stroke: #e3e3e3;
        stroke-linejoin: round;
        stroke-width: 1px;
      }

      .cls-3 {
        fill: #343439;
      }

      .cls-4 {
        fill: #e3e3e3;
      }

      .cls-5 {
        fill: #b5ccfa;
      }

      .cls-6 {
        fill: #fbe3c5;
      }

      .cls-7 {
        fill: #8388e4;
      }

      .cls-8 {
        fill: #193151;
      }
    </style>
  </defs>
  <path class="cls-1" d="M20,68.019c0.518-12.348,3.106-22.638,28.987-30.87S82.739,25.287,95.68,17.569c10.426-6.394,42.473-5.832,57.974,15.435,10.784,14.8,10.007,34.037-2.07,47.334-10.26,11.3-31.5,20.432-52.8,24.7-21.692,4.344-37.893,1.057-53.939-5.117S19.655,82.768,20,68.019Z"/>
  <g id="Bar_copy" data-name="Bar copy">
    <rect id="Rounded_Rectangle_1327" data-name="Rounded Rectangle 1327" class="cls-2" x="44" y="10" width="71" height="83" rx="4" ry="4"/>
    <g id="Bar">
      <path id="Stock" class="cls-3" d="M55.838,25.908a1.812,1.812,0,0,1-1.129.319,2.017,2.017,0,0,1-1.2-.377,1.235,1.235,0,0,1-.53-1.07H52.022l-0.01.03a1.816,1.816,0,0,0,.8,1.6,3.151,3.151,0,0,0,1.9.6,2.947,2.947,0,0,0,1.843-.541,1.717,1.717,0,0,0,.706-1.432,1.844,1.844,0,0,0-.586-1.387,3.8,3.8,0,0,0-1.708-.85,3.8,3.8,0,0,1-1.333-.564,0.981,0.981,0,0,1-.41-0.8,1.133,1.133,0,0,1,.375-0.881,1.554,1.554,0,0,1,1.078-.339,1.594,1.594,0,0,1,1.129.41,1.356,1.356,0,0,1,.441,1.038H57.2l0.015-.03a1.994,1.994,0,0,0-.675-1.541,2.6,2.6,0,0,0-1.869-.66A2.656,2.656,0,0,0,52.9,20a1.811,1.811,0,0,0-.683,1.442,1.715,1.715,0,0,0,.635,1.361,4.257,4.257,0,0,0,1.767.82,3.026,3.026,0,0,1,1.275.577,1.1,1.1,0,0,1,.362.84A1.033,1.033,0,0,1,55.838,25.908Zm3.1-5.8v1.321H58.058v0.739h0.877v3.325a1.585,1.585,0,0,0,.362,1.151,1.306,1.306,0,0,0,.974.367,1.688,1.688,0,0,0,.433-0.058,0.892,0.892,0,0,0,.331-0.149L60.9,26.115a1.448,1.448,0,0,1-.178.048,0.945,0.945,0,0,1-.194.023,0.583,0.583,0,0,1-.426-0.157,0.741,0.741,0,0,1-.161-0.541V22.163h1.045V21.424H59.94V20.1h-1Zm2.891,4.119a2.981,2.981,0,0,0,.665,2,2.48,2.48,0,0,0,3.612,0,2.986,2.986,0,0,0,.663-2V24.111a2.99,2.99,0,0,0-.665-2,2.252,2.252,0,0,0-1.812-.784,2.23,2.23,0,0,0-1.8.787,3,3,0,0,0-.663,2v0.111Zm1-.111a2.587,2.587,0,0,1,.37-1.432,1.214,1.214,0,0,1,1.089-.572,1.231,1.231,0,0,1,1.1.572,2.56,2.56,0,0,1,.375,1.432v0.111a2.57,2.57,0,0,1-.372,1.437,1.341,1.341,0,0,1-2.19,0,2.581,2.581,0,0,1-.37-1.437V24.111ZM69.1,25.66a2.7,2.7,0,0,1-.334-1.392V24.056a2.649,2.649,0,0,1,.339-1.379,1.162,1.162,0,0,1,1.078-.569,1.086,1.086,0,0,1,.829.352,1.2,1.2,0,0,1,.329.853h0.913l0.01-.03A1.791,1.791,0,0,0,71.7,21.89a2.09,2.09,0,0,0-1.512-.567,2.171,2.171,0,0,0-1.792.787,3,3,0,0,0-.635,1.946v0.213a3.013,3.013,0,0,0,.632,1.953,2.35,2.35,0,0,0,3.263.235,1.568,1.568,0,0,0,.612-1.258l-0.015-.03H71.345A0.964,0.964,0,0,1,71,25.92a1.186,1.186,0,0,1-.811.306A1.161,1.161,0,0,1,69.1,25.66Zm7.716,1.24h1.188l-2.177-2.95,2-2.525h-1.2L74.975,23.58h-0.5V19h-1V26.9h1V24.374h0.515Z"/>
      <rect id="Rounded_Rectangle_1270" data-name="Rounded Rectangle 1270" class="cls-4" x="53" y="34" width="53" height="2" rx="1" ry="1"/>
      <rect id="Rounded_Rectangle_1270_copy" data-name="Rounded Rectangle 1270 copy" class="cls-4" x="53" y="42" width="53" height="2" rx="1" ry="1"/>
      <rect id="Rounded_Rectangle_1270_copy_2" data-name="Rounded Rectangle 1270 copy 2" class="cls-4" x="53" y="50" width="53" height="2" rx="1" ry="1"/>
      <rect id="Rounded_Rectangle_1270_copy_3" data-name="Rounded Rectangle 1270 copy 3" class="cls-4" x="53" y="58" width="53" height="2" rx="1" ry="1"/>
      <rect id="Rounded_Rectangle_1270_copy_3-2" data-name="Rounded Rectangle 1270 copy 3" class="cls-4" x="53" y="66" width="53" height="2" rx="1" ry="1"/>
      <rect id="Rounded_Rectangle_1270_copy_4" data-name="Rounded Rectangle 1270 copy 4" class="cls-4" x="53" y="74" width="53" height="2" rx="1" ry="1"/>
      <rect id="Rounded_Rectangle_1270_copy_4-2" data-name="Rounded Rectangle 1270 copy 4" class="cls-4" x="53" y="82" width="44" height="2" rx="1" ry="1"/>
    </g>
  </g>
  <g id="Man_copy" data-name="Man copy">
    <path class="cls-5" d="M113,109V66h19l1,42h-7s-1.638-27.393-3.2-30.756c0,0-1.956,9.134-2.55,14.45S118,109,118,109h-5Z"/>
    <path class="cls-6" d="M139.795,75.544c1.363,0.509,2.107-.543,2.55-1.7A5.114,5.114,0,0,0,141,69l-3-19h0a2.988,2.988,0,0,0-3.305,1.319c-1.275,1.947-.474,1.5-0.425,1.7,0,0,2.71,13.869,3.73,15.981a3.934,3.934,0,0,0-.746,5.52c0.286-.326.239-1.582,0.746-1.52A18.444,18.444,0,0,1,139.795,75.544Z"/>
    <path class="cls-6" d="M103.67,50.894c-1.5-2.317-4.25-10.2-4.25-10.2l-2.125-3.4s-0.866-2.179,0-3.4c0.377-.669,2.382.5,1.628-1.04-0.849-1.728-.931-4.22.5-1.935,0.794,1.27,1.921,2.667,1.7,4.25-0.013,0,.414-0.158,1.035-2.985,0,0,.933-1.626,1.273.513a15.631,15.631,0,0,1-1.458,5.872s1.883,5.768,3.825,7.225a12.434,12.434,0,0,1,2.771,3.132c0.03,0.013,1.325,2.181-.846,2.491C106.465,51.6,104.4,52.006,103.67,50.894Z"/>
    <path class="cls-7" d="M113,50V66h19V53s4.9,0.642,6.52-2.956c0.012,0-1.968-10.6-10.943-12.752-5.2-.822-8.6-0.253-10.732.427s-8.76,4.658-10.625,8.925a14.535,14.535,0,0,1,1.7,2.125c0.8,1.24,1.169,2.886,3.825,1.275C113.052,49.44,113.023,49.952,113,50Z"/>
    <path class="cls-6" d="M116.42,25.819s-1.64.466-.425,2.125A6.763,6.763,0,0,1,117,33s0.545,1.621,3.245,1.319L120,37s4.67,0.1,6,0a10.39,10.39,0,0,0-.23-1.831c-0.186-1.519-.425-7.225-0.425-7.225l-2.55-2.55h-4.25l-1.275.425h-0.85Z"/>
    <path class="cls-8" d="M117.27,25.394s-2.246-1.586-.425-2.975c0,0-1.6-1.052-1.7-2.125s0.477-1.55,2.125-1.275c0,0,5.329-1.4,9.35-.425a7.253,7.253,0,0,1,3.825,3.4,15.157,15.157,0,0,1,.425,5.525,12.9,12.9,0,0,1-2.975,6.8s-3.74,2.4-6.375,0c0,0-4.606-5.37-4.25-8.925"/>
    <path class="cls-8" d="M126,109l0.62,2.669s-0.082,1.324.85,1.275H138.1s2.891-.035.85-1.275S133,108,133,108h-7v1Z"/>
    <path id="Shape_8_copy" data-name="Shape 8 copy" class="cls-8" d="M118,109l-0.455,2.669s0.083,1.324-.858,1.275h-9.722s-2.917-.035-0.858-1.275S113,108,113,108h5v1Z"/>
  </g>
</svg>
