<svg id="icon" xmlns="http://www.w3.org/2000/svg" width="181" height="122" viewBox="0 0 181 122">
  <defs>
    <style>
      .cls-1 {
        fill: #eef3fe;
      }

      .cls-1, .cls-2, .cls-3 {
        fill-rule: evenodd;
      }

      .cls-2 {
        fill: #5387ff;
      }

      .cls-3 {
        fill: #fff;
      }
    </style>
  </defs>
  <path class="cls-1" d="M20,68.019c0.518-12.348,3.106-22.638,28.987-30.87S82.739,25.287,95.68,17.569c10.426-6.394,42.473-5.832,57.974,15.435,10.784,14.8,10.007,34.037-2.07,47.334-10.26,11.3-31.5,20.432-52.8,24.7-21.692,4.344-37.893,1.057-53.939-5.117S19.655,82.768,20,68.019Z"/>
  <g id="Brand">
    <path class="cls-2" d="M76.25,97.946a6.876,6.876,0,0,0,9.779,0L119.5,64.19a9.888,9.888,0,0,0,2.182-3.355,34.925,34.925,0,0,0,9.519,1.435c7.135-.037,9.5-3.187,10.278-5.07,0.776-1.864,1.331-5.778-3.679-10.923l-0.166-.168A39.981,39.981,0,0,0,124.9,37.945c-0.943-.391-1.885-0.746-2.81-1.081V36.808a7.6,7.6,0,0,0-7.468-7.53L94.568,29a9.713,9.713,0,0,0-7.08,2.908L53.994,65.662a7.016,7.016,0,0,0,0,9.86Zm25.805-56.869a5.69,5.69,0,0,1,8.1,0A5.776,5.776,0,0,1,111.759,46a39.809,39.809,0,0,0,7.635,4.194c1,0.41,1.959.783,2.883,1.1l-0.111-8.127c0.167,0.075.314,0.13,0.481,0.2a34.8,34.8,0,0,1,10.85,6.9l0.111,0.112c2.4,2.479,2.662,4.063,2.459,4.548-0.629,1.51-7.376,2.852-17.616-1.454a39.436,39.436,0,0,1-8.078-4.529c-0.074.093-.166,0.186-0.24,0.279a5.691,5.691,0,0,1-8.1,0A5.8,5.8,0,0,1,102.055,41.077Z"/>
    <path id="Rounded_Rectangle_1328" data-name="Rounded Rectangle 1328" class="cls-3" d="M62.59,70.289l24.7-24.7a1.5,1.5,0,0,1,2.121,2.121l-24.7,24.7A1.5,1.5,0,0,1,62.59,70.289Z"/>
    <path id="Rounded_Rectangle_1328_copy" data-name="Rounded Rectangle 1328 copy" class="cls-3" d="M78.59,86.289l24.7-24.7a1.5,1.5,0,1,1,2.121,2.121l-24.7,24.7A1.5,1.5,0,0,1,78.59,86.289Z"/>
    <path id="BRAND-2" data-name="BRAND" class="cls-3" d="M75.5,80.565a3.391,3.391,0,0,0,1.165-1.929A2.194,2.194,0,0,0,76,76.764a2.147,2.147,0,0,0-1.24-.688,1.912,1.912,0,0,0-1.407.337,1.98,1.98,0,0,0,.185-1.106,1.715,1.715,0,0,0-.455-0.96,2.022,2.022,0,0,0-1.769-.738A3.672,3.672,0,0,0,69.3,74.68l-2.048,1.9,5.8,6.259Zm-2.661-2.822,0.056-.052a1.594,1.594,0,0,1,1.082-.451,1.364,1.364,0,0,1,.984.486,1.207,1.207,0,0,1,.371.986,1.709,1.709,0,0,1-.6,1.019l-1.409,1.3L71.46,79.024Zm-3.768-1.294,1-.931a1.917,1.917,0,0,1,1.072-.574,1.107,1.107,0,0,1,.935.416,1.082,1.082,0,0,1,.322.912,1.6,1.6,0,0,1-.554.94l-1.117,1.034Zm9.448-3.5a1.37,1.37,0,0,1,1.016-.414,1.429,1.429,0,0,1,.986.509l0.466,0.5a5.278,5.278,0,0,0,.6.558,0.937,0.937,0,0,0,.629.24l1.074-.994-0.091-.1a1.047,1.047,0,0,1-.6-0.189,2.873,2.873,0,0,1-.566-0.474l-0.482-.52a2.386,2.386,0,0,0-1.1-.72,1.8,1.8,0,0,0-1.268.16,2.349,2.349,0,0,0,.213-1.239,1.9,1.9,0,0,0-.523-1.069,2.254,2.254,0,0,0-1.821-.821A3.361,3.361,0,0,0,75.007,69.4L72.855,71.39l5.8,6.259,1.044-.966-2.4-2.6Zm-3.848-1.683,1.108-1.026a1.656,1.656,0,0,1,1.112-.531,1.326,1.326,0,0,1,.97.479,1.233,1.233,0,0,1,.393,1,1.928,1.928,0,0,1-.692,1.088l-1.052.974Zm13.3-2.251,1.078-1L81.105,63.75l-0.992.919,3.615,8.28,1.078-1-0.873-1.907,2.216-2.052Zm-6.036-3.33,0.026-.024,3.088,1.724L83.413,68.9Zm6.973-9.165-1.044.966,4.168,4.5-0.018.032-6.946-1.944-1.044.967,5.8,6.259,1.044-.967-4.168-4.5,0.018-.033,6.947,1.944,1.044-.967Zm9.177,3.129a3.583,3.583,0,0,0,1.25-2.531,3.514,3.514,0,0,0-1.027-2.6l-0.88-.95a3.527,3.527,0,0,0-2.517-1.223A3.571,3.571,0,0,0,92.3,53.385L90.231,55.3l5.8,6.259Zm-5.02-5.421a2.045,2.045,0,0,1,1.666-.6,2.606,2.606,0,0,1,1.647.891l0.888,0.959a2.623,2.623,0,0,1,.77,1.719,2.045,2.045,0,0,1-.722,1.615l-1.022.947L92.051,55.17Z"/>
  </g>
</svg>
