<svg id="icon" xmlns="http://www.w3.org/2000/svg" width="181" height="122" viewBox="0 0 181 122">
  <defs>
    <style>
      .cls-1 {
        fill: #eef3fe;
      }

      .cls-1, .cls-10, .cls-11, .cls-12, .cls-13, .cls-2, .cls-3, .cls-4, .cls-5, .cls-6, .cls-7, .cls-8, .cls-9 {
        fill-rule: evenodd;
      }

      .cls-2 {
        fill: #fbe3c5;
      }

      .cls-3 {
        fill: #193151;
      }

      .cls-4 {
        fill: #b5ccfa;
      }

      .cls-5 {
        fill: #5387ff;
      }

      .cls-6 {
        fill: #4278f2;
      }

      .cls-7 {
        fill: #6492fc;
      }

      .cls-8 {
        fill: #7879dc;
      }

      .cls-9 {
        fill: #8a8be8;
      }

      .cls-10 {
        fill: #9899f7;
      }

      .cls-11 {
        fill: #33e2a6;
      }

      .cls-12 {
        fill: #45ecb3;
      }

      .cls-13 {
        fill: #68fac8;
      }
    </style>
  </defs>
  <path class="cls-1" d="M20,76.019c0.518-12.348,3.106-22.638,28.987-30.87S82.739,33.287,95.68,25.569c10.426-6.394,42.473-5.832,57.974,15.435,10.784,14.8,10.007,34.037-2.07,47.334-10.26,11.3-31.5,20.432-52.8,24.7-21.692,4.344-37.893,1.057-53.939-5.117S19.655,90.768,20,76.019Z"/>
  <g id="Illustrator">
    <path class="cls-2" d="M77.258,11.853s2.847,9.6-3.884,11c0,0,0,2.787.582,3.475l-6.587-.579s1.236-8,0-11.584l-1.745-2.316,3.49-1.158,4.072-.58,2.909,1.159Z"/>
    <path class="cls-2" d="M98,36.438s1.832-4.031,4.405-1.711l0.6,2.706-2.735,1.575Z"/>
    <path class="cls-3" d="M68.344,20.54A1.42,1.42,0,0,1,67.2,21a2.443,2.443,0,0,1-.992-1.038S60.777,7.894,69.7,6.64c0,0,6.032,1.437,8.444,2.387,0.1,0.04.194,0.08,0.282,0.12,0.775,0.724,2.024,1.414.582,2.706,0,0-2.763,2.9-8.725,1.737,0,0-2.889-1.852-1.159,2.714,0,0,.147.514,0.46,0.345C69.578,16.65,70.053,19.626,68.344,20.54Z"/>
    <path class="cls-2" d="M93.663,42.185l-2.792.908L89.01,44V41.73A2.1,2.1,0,0,1,90,40a10.564,10.564,0,0,1,3.663-1S94.419,39.388,93.663,42.185Z"/>
    <path class="cls-3" d="M58.572,103.169s-1.842,2.317-.582,3.476,5.09,4.44,5.817,4.633,4.46,0.145,4.072-1.159-3.2-4.536-4.072-6.37a3.193,3.193,0,0,0-2.909-1.738Z"/>
    <path class="cls-3" d="M75.023,102.011s-1.272,2.244,0,3.475a23.929,23.929,0,0,0,6.4,3.475c1.054,0.272,3.272-1,2.908-1.737s-4.654-4.634-4.654-4.634l-2.908-1.158Z"/>
    <path class="cls-4" d="M58.727,58.033S57.3,101.472,57.3,104.014s7.485,0.571,7.584.02c0.06-.331.359-13.267,2.453-23.792C68.22,69.388,68.877,65.17,69.853,66.5c0,0,.659,1.1,1.362,5.329,1.592,9.567,1.737,29.077,2.263,30.412,0.7,1.782,6.489.19,6.569-.487s-1.355-44.414-1.5-45.8a40.027,40.027,0,0,0-1.5-5.4L63.648,53.6l-3.991.438L58.723,56.31Z"/>
    <path class="cls-5" d="M76.095,25.175s20.941,8.109,23.268,8.688L97.848,37h-1.1s-8.974-1.834-15.419-3.717l-5.235-1.158,0.582-1.159V26.912Z"/>
    <path class="cls-5" d="M61.552,26.912s3.241-2.9,5.817-2.9c0,0,1.648,1.786,6.4,0,0,0,5.218.585,5.232,9.984,0.015,9.94,0,23,0,23s0.26,0.979-1,1c-1.7.028-15.357,0.013-17.552-.1C59.188,57.852,59,56,59,56S57.292,30.268,61.552,26.912Z"/>
    <path class="cls-6" d="M59.552,31.387s0.145-5.02,4.072-4.054c0,0,3.587,4.817,7.562,7.134s16.578,4.74,17.451,5.029,1.26,3.089,0,3.475c0,0-7.611,2.069-19.778-2.324C68.859,40.647,59.843,35.441,59.552,31.387Z"/>
  </g>
  <g id="Box">
    <g id="Group_1_copy" data-name="Group 1 copy">
      <path class="cls-5" d="M106,81V95l17-10V71H106V81Z"/>
      <path class="cls-7" d="M95,89l11,6V76L95,74V89Z"/>
    </g>
    <g id="Group_1_copy_2" data-name="Group 1 copy 2">
      <path class="cls-8" d="M106,66V82l17-11V57l-17-1V66Z"/>
      <path class="cls-9" d="M95,76l11,6V61H95V76Z"/>
      <path class="cls-10" d="M94,61l11.548,6.8L123,57l-11-7Z"/>
    </g>
    <g>
      <path class="cls-11" d="M100,50V65l18-10V40H100V50Z"/>
      <path class="cls-12" d="M89,58l11,7V45L89,43V58Z"/>
      <path class="cls-13" d="M89,43l11.255,7.982L118,40l-12.044-6.836Z"/>
    </g>
  </g>
</svg>
