<svg id="icon" xmlns="http://www.w3.org/2000/svg" width="181" height="122" viewBox="0 0 181 122">
  <defs>
    <style>
      .cls-1 {
        fill: #eef3fe;
      }

      .cls-1, .cls-2, .cls-3, .cls-4, .cls-5 {
        fill-rule: evenodd;
      }

      .cls-2 {
        fill: #bfcbd0;
      }

      .cls-3 {
        fill: #6493ff;
      }

      .cls-4 {
        fill: #212121;
        opacity: 0.23;
      }

      .cls-5 {
        fill: #fff;
      }
    </style>
  </defs>
  <path class="cls-1" d="M19,69.019c0.518-12.348,3.106-22.638,28.987-30.87S81.739,26.287,94.68,18.569c10.426-6.394,42.473-5.832,57.974,15.435,10.784,14.8,10.007,34.037-2.07,47.334-10.26,11.3-31.5,20.432-52.8,24.7-21.692,4.344-37.893,1.057-53.939-5.117S18.655,83.768,19,69.019Z"/>
  <g id="icon-2" data-name="icon">
    <path class="cls-2" d="M100,64V33a3.661,3.661,0,0,0-4-4H54a3.661,3.661,0,0,0-4,4V64a3.661,3.661,0,0,0,4,4h5l0.4,4.3a0.787,0.787,0,0,0,.54.81c0.09,0,.27.09,0.36,0.09a0.972,0.972,0,0,0,.63-0.27L69,68H96A3.633,3.633,0,0,0,100,64Z"/>
    <path id="Shape_1_copy_3" data-name="Shape 1 copy 3" class="cls-3" d="M83,62a3.661,3.661,0,0,0-4,4V98c0,2.52,1.48,3,4,3h27l8.07,5.23a0.972,0.972,0,0,0,.63.27,0.541,0.541,0,0,0,.36-0.09,0.865,0.865,0,0,0,.54-0.81L120,101h6c2.52,0,3-1.48,3-4V66a3.661,3.661,0,0,0-4-4H83Z"/>
    <path class="cls-4" d="M119.429,54.086l1.806-1.835a1.011,1.011,0,0,1,1.484.029,1.153,1.153,0,0,1-.028,1.567l0,0-3.784,3.841a1.019,1.019,0,0,1-.824.308l-0.073-.013a1.042,1.042,0,0,1-.684-0.446l-3.466-5.088a1.148,1.148,0,0,1,.265-1.542,1.013,1.013,0,0,1,1.439.247l1.744,2.56-0.006-.093a14.164,14.164,0,0,0-11.424-13.446,1.1,1.1,0,0,1-.867-1.272,1.059,1.059,0,0,1,1.2-.916c7.6,1.316,13.038,8.175,13.2,16.028Zm-1.421,3.9"/>
    <path id="Shape_703_copy" data-name="Shape 703 copy" class="cls-4" d="M57.571,81.914l-1.806,1.835a1.011,1.011,0,0,1-1.484-.029,1.153,1.153,0,0,1,.028-1.567l0,0L58.1,78.31A1.018,1.018,0,0,1,58.919,78l0.073,0.012a1.043,1.043,0,0,1,.684.446l3.466,5.088a1.148,1.148,0,0,1-.265,1.542,1.013,1.013,0,0,1-1.439-.247l-1.744-2.56L59.7,82.376A14.165,14.165,0,0,0,71.124,95.822a1.1,1.1,0,0,1,.867,1.272,1.058,1.058,0,0,1-1.2.916c-7.6-1.316-13.037-8.175-13.2-16.028Zm1.421-3.9"/>
    <path id="Shape_1_copy_2" data-name="Shape 1 copy 2" class="cls-5" d="M85.1,41.3H75.2V37.7a0.9,0.9,0,1,0-1.8,0v3.6H63.5a0.9,0.9,0,1,0,0,1.8h6.03a20.6,20.6,0,0,0,3.6,8.19,18.934,18.934,0,0,1-9,5.4,0.925,0.925,0,0,0-.63,1.08,0.894,0.894,0,0,0,.9.63h0.27a20.388,20.388,0,0,0,9.63-5.76,20.388,20.388,0,0,0,9.63,5.76H84.2a1.084,1.084,0,0,0,.9-0.63,0.925,0.925,0,0,0-.63-1.08,18.5,18.5,0,0,1-9-5.4,20.6,20.6,0,0,0,3.6-8.19H85.1A0.9,0.9,0,1,0,85.1,41.3ZM74.3,49.85a16.28,16.28,0,0,1-2.88-6.75h5.85A18.779,18.779,0,0,1,74.3,49.85Z"/>
    <path id="Shape_1_copy" data-name="Shape 1 copy" class="cls-5" d="M114.5,92.1a0.811,0.811,0,0,0,.45-0.09,0.911,0.911,0,0,0,.36-1.26l-10.8-19.8-0.09-.09c0-.09-0.09-0.09-0.09-0.18a0.314,0.314,0,0,0-.18-0.09l-0.09-.09h-0.09a0.18,0.18,0,0,1-.18-0.09h-0.36a0.18,0.18,0,0,0-.18.09h-0.09l-0.09.09-0.09.09a0.315,0.315,0,0,0-.09.18l-0.09.09L92,90.75a0.911,0.911,0,0,0,.36,1.26,1.337,1.337,0,0,0,.54.09,1.074,1.074,0,0,0,.81-0.45L97.85,84h11.7l4.14,7.65A1.074,1.074,0,0,0,114.5,92.1ZM98.84,82.2l4.86-8.91,4.86,8.91H98.84Z"/>
  </g>
</svg>
