<svg id="icon" xmlns="http://www.w3.org/2000/svg" width="181" height="122" viewBox="0 0 181 122">
  <defs>
    <style>
      .cls-1 {
        fill: #eef3fe;
      }

      .cls-1, .cls-2, .cls-3, .cls-4, .cls-6 {
        fill-rule: evenodd;
      }

      .cls-2, .cls-5, .cls-6 {
        fill: #fff;
      }

      .cls-2 {
        stroke: #e3e3e3;
        stroke-linejoin: round;
        stroke-width: 1px;
      }

      .cls-3 {
        fill: #7879dc;
      }

      .cls-4 {
        fill: #f04d4f;
      }
    </style>
  </defs>
  <path class="cls-1" d="M20,68.019c0.518-12.348,3.106-22.638,28.987-30.87S82.739,25.287,95.68,17.569c10.426-6.394,42.473-5.832,57.974,15.435,10.784,14.8,10.007,34.037-2.07,47.334-10.26,11.3-31.5,20.432-52.8,24.7-21.692,4.344-37.893,1.057-53.939-5.117S19.655,82.768,20,68.019Z"/>
  <g id="Area">
    <g id="area-2" data-name="area">
      <path class="cls-2" d="M57.4,49.94a2.2,2.2,0,0,0-1.722.833L33.694,78.493a2.2,2.2,0,0,0,1.722,3.567H143.583a2.2,2.2,0,0,0,1.722-3.567L123.32,50.773a2.2,2.2,0,0,0-1.722-.833H57.4Z"/>
      <path id="Shape_1_copy_7" data-name="Shape 1 copy 7" class="cls-3" d="M126,78l-8-10h14l7,10H126Z"/>
      <path id="Shape_1_copy_6" data-name="Shape 1 copy 6" class="cls-3" d="M113,68l7,10H59l7-10h47Z"/>
      <path id="Shape_1_copy_5" data-name="Shape 1 copy 5" class="cls-3" d="M47,68H61L53,78H40Z"/>
      <path id="Shape_1_copy_4" data-name="Shape 1 copy 4" class="cls-3" d="M128,64H115l-8-10h14Z"/>
      <path id="Shape_1_copy_3" data-name="Shape 1 copy 3" class="cls-3" d="M99,54h3l7,10H94Z"/>
      <path id="Shape_1_copy_2" data-name="Shape 1 copy 2" class="cls-3" d="M80,54l5,10H70l7-10h3Z"/>
      <path id="Shape_1_copy" data-name="Shape 1 copy" class="cls-3" d="M72,54L64,64H51l8-10H72Z"/>
    </g>
    <g id="Location-1">
      <path id="Forma_1" data-name="Forma 1" class="cls-4" d="M81.5,45A6.769,6.769,0,0,0,75,52a7.266,7.266,0,0,0,.568,2.855,44.379,44.379,0,0,0,5.657,9.014,0.345,0.345,0,0,0,.548,0,44.385,44.385,0,0,0,5.657-9.014A7.266,7.266,0,0,0,88,52,6.769,6.769,0,0,0,81.5,45Z"/>
      <circle id="Forma_1_copy_2" data-name="Forma 1 copy 2" class="cls-5" cx="81.5" cy="51.5" r="3.5"/>
    </g>
    <g id="Location-2">
      <path id="Forma_1-2" data-name="Forma 1" class="cls-4" d="M113.5,52.151c-4.659,0-8.45,4.079-8.45,9.093a9.449,9.449,0,0,0,.739,3.712,57.717,57.717,0,0,0,7.354,11.718,0.449,0.449,0,0,0,.713,0,57.684,57.684,0,0,0,7.355-11.718,9.449,9.449,0,0,0,.739-3.712C121.949,56.23,118.159,52.151,113.5,52.151Z"/>
      <path id="Forma_1_copy_2-2" data-name="Forma 1 copy 2" class="cls-6" d="M113.5,65.154a4.56,4.56,0,1,1,4.551-4.56A4.561,4.561,0,0,1,113.5,65.154Z"/>
    </g>
  </g>
</svg>
