<svg id="icon" xmlns="http://www.w3.org/2000/svg" width="181" height="122" viewBox="0 0 181 122">
  <defs>
    <style>
      .cls-1 {
        fill: #eef3fe;
      }

      .cls-1, .cls-2, .cls-3, .cls-4, .cls-5, .cls-6, .cls-7, .cls-8, .cls-9 {
        fill-rule: evenodd;
      }

      .cls-2 {
        fill: #f3d5af;
      }

      .cls-3 {
        fill: #5387ff;
      }

      .cls-4 {
        fill: #fff;
        opacity: 0.5;
      }

      .cls-5 {
        fill: #fbe3c5;
      }

      .cls-6 {
        fill: #343439;
      }

      .cls-7 {
        fill: #7879dc;
      }

      .cls-8 {
        fill: #00ca72;
      }

      .cls-9 {
        fill: #212121;
        opacity: 0.2;
      }
    </style>
  </defs>
  <path class="cls-1" d="M20,72.019c0.518-12.348,3.106-22.638,28.987-30.87S82.739,29.287,95.68,21.569c10.426-6.394,42.473-5.832,57.974,15.435,10.784,14.8,10.007,34.037-2.07,47.334-10.26,11.3-31.5,20.432-52.8,24.7-21.692,4.344-37.893,1.057-53.939-5.117S19.655,86.768,20,72.019Z"/>
  <g>
    <g id="user-1">
      <path class="cls-2" d="M87.032,33.908s-1.469,3.141-2.929,3.649l6.591,5.108,6.591-.73-0.732-4.379s-0.818-.612-2.2-3.649C92.87,30.636,87.032,33.908,87.032,33.908Z"/>
      <path class="cls-3" d="M85.614,36.161s-15.007,2.087-14.5,19.145c0,0,18.219,12.241,37.795.73,0,0,2.366-16.961-13.087-20.433C95.819,35.6,91.381,43.117,85.614,36.161Z"/>
      <path class="cls-4" d="M89.229,39.251a2.787,2.787,0,0,0,.732,2.919L88.77,59.945s-0.069,1.251,1.786,1.3c1.346,0.033,1.96-.633,2.036-1.3L91.426,42.17s1.328-1.531.732-2.919C92.128,38.829,89.52,39.056,89.229,39.251Z"/>
      <path class="cls-5" d="M81.906,23.691s-2.032,2.737,1.465,4.378a7.3,7.3,0,0,0,3.662,5.838c0.32,0.091,8.93,2.757,10.252-5.838,0,0,2.874-1.608,1.465-4.378,0,0-1.063-5.165-1.465-5.108s-7.323-2.189-7.323-2.189l-8.055,3.649v3.649"/>
      <path class="cls-6" d="M81,25a22.315,22.315,0,0,0,3.835-2.768s7.325,1.1,9.669-1.666c0,0,1.672-.261,3.513,2.4,0,0-.176,2.819.984,0.038,0,0,2.218-7.857-4.645-10.985C94.355,12.015,79.273,7.77,81,25Z"/>
    </g>
    <g id="user-2">
      <path class="cls-2" d="M49.7,77.258s-1.469,3.141-2.929,3.649l6.591,5.108,6.591-.73-0.732-4.379s-0.818-.612-2.2-3.649C55.535,73.986,49.7,77.258,49.7,77.258Z"/>
      <path class="cls-7" d="M48.279,79.511S33.272,81.6,33.776,98.656c0,0,18.219,12.241,37.795.73,0,0,2.366-16.961-13.086-20.433C58.485,78.953,54.046,86.467,48.279,79.511Z"/>
      <path class="cls-4" d="M51.894,82.6a2.788,2.788,0,0,0,.732,2.919L51.435,103.3s-0.069,1.251,1.786,1.3c1.346,0.033,1.96-.632,2.036-1.3L54.091,85.52s1.328-1.531.732-2.919C54.793,82.179,52.185,82.406,51.894,82.6Z"/>
      <path class="cls-5" d="M44.571,67.041s-2.032,2.737,1.465,4.379A7.3,7.3,0,0,0,49.7,77.258c0.32,0.091,8.93,2.757,10.252-5.838,0,0,2.874-1.608,1.465-4.379,0,0-1.062-5.165-1.465-5.108s-7.323-2.189-7.323-2.189l-8.055,3.649v3.649"/>
      <path class="cls-6" d="M44,68a15.794,15.794,0,0,0,3.5-2.418s7.325,1.1,9.669-1.666c0,0,1.672-.261,3.513,2.4,0,0,.159,2.469,1.319-0.312,0,0,1.883-7.507-4.98-10.635C57.02,55.365,42.747,51.043,44,68Z"/>
    </g>
    <g id="user_-3" data-name="user -3">
      <path class="cls-2" d="M124.962,77.258s-1.47,3.141-2.929,3.649l6.59,5.108,6.591-.73-0.732-4.379s-0.818-.612-2.2-3.649C130.8,73.986,124.962,77.258,124.962,77.258Z"/>
      <path class="cls-8" d="M123.544,79.511s-15.007,2.087-14.5,19.145c0,0,18.219,12.241,37.8.73,0,0,2.366-16.961-13.087-20.433C133.749,78.953,129.311,86.467,123.544,79.511Z"/>
      <path class="cls-4" d="M127.159,82.6a2.786,2.786,0,0,0,.732,2.919L126.7,103.3s-0.069,1.251,1.787,1.3c1.346,0.033,1.96-.632,2.035-1.3L129.356,85.52s1.328-1.531.732-2.919C130.058,82.179,127.45,82.406,127.159,82.6Z"/>
      <path class="cls-5" d="M119.836,67.041S117.8,69.778,121.3,71.42a7.3,7.3,0,0,0,3.662,5.838c0.32,0.091,8.93,2.757,10.252-5.838,0,0,2.874-1.608,1.465-4.379,0,0-1.063-5.165-1.465-5.108s-7.323-2.189-7.323-2.189l-8.055,3.649v3.649"/>
      <path class="cls-6" d="M119,68a15.072,15.072,0,0,0,3.765-2.418s7.325,1.1,9.669-1.666c0,0,1.672-.261,3.512,2.4,0,0,.306,2.781,1.465,0,0,0,1.737-7.818-5.126-10.946C132.285,55.365,118.182,50.77,119,68Z"/>
    </g>
    <path class="cls-9" d="M90.5,67a1.473,1.473,0,0,0-1.392,1.56V81.22l-9.473,6.9a1.673,1.673,0,0,0-.4,2.16,1.407,1.407,0,0,0,1.177.72,1.326,1.326,0,0,0,.749-0.24L90.5,83.951l9.339,6.811a1.233,1.233,0,0,0,.75.24,1.345,1.345,0,0,0,1.177-.72,1.674,1.674,0,0,0-.4-2.16l-9.473-6.9V68.558A1.492,1.492,0,0,0,90.5,67Z"/>
  </g>
</svg>
