<svg id="icon" xmlns="http://www.w3.org/2000/svg" width="181" height="122" viewBox="0 0 181 122">
  <defs>
    <style>
      .cls-1 {
        fill: #eef3fe;
      }

      .cls-1, .cls-10, .cls-11, .cls-2, .cls-3 {
        fill-rule: evenodd;
      }

      .cls-2, .cls-9 {
        fill: #fff;
        stroke: #e3e3e3;
        stroke-linejoin: round;
        stroke-width: 1px;
      }

      .cls-3 {
        fill: #11518e;
      }

      .cls-4 {
        fill: #569bfc;
      }

      .cls-5 {
        fill: #faad27;
      }

      .cls-6 {
        fill: #8388e4;
      }

      .cls-7 {
        fill: #de617e;
      }

      .cls-8 {
        fill: #48cfb7;
      }

      .cls-10 {
        fill: #6493ff;
      }

      .cls-11, .cls-12 {
        fill: #dee8ea;
      }

      .cls-13 {
        fill: #ffd64d;
      }

      .cls-14 {
        fill: #86abff;
      }
    </style>
  </defs>
  <path class="cls-1" d="M19,68.019c0.518-12.348,3.106-22.638,28.987-30.87S81.739,25.287,94.68,17.569c10.426-6.394,42.473-5.832,57.974,15.435,10.784,14.8,10.007,34.037-2.07,47.334-10.26,11.3-31.5,20.432-52.8,24.7-21.692,4.344-37.893,1.057-53.939-5.117S18.655,82.768,19,68.019Z"/>
  <g id="icon-2" data-name="icon">
    <g id="File">
      <path class="cls-2" d="M44,40V92.882C44,95.254,45.494,97,48.591,97h65.137c4.25,0,5.272-1.547,5.272-5.138V41c0-4.1-2.506-6-6-6H49C46.251,35,44,36.551,44,40Z"/>
    </g>
    <g id="Graph">
      <g>
        <path id="Rectangle_12_copy" data-name="Rectangle 12 copy" class="cls-3" d="M55.157,64.493l12.532-8.618,1.155,1.633L56.311,66.126Z"/>
        <path id="Rectangle_12_copy_3" data-name="Rectangle 12 copy 3" class="cls-3" d="M79.558,60.186L91.124,50.31l1.318,1.5L80.876,61.69Z"/>
        <path id="Rectangle_12_copy_2" data-name="Rectangle 12 copy 2" class="cls-3" d="M81,60.407L67.181,56,66,57.593,79.819,62Z"/>
        <circle class="cls-4" cx="56.5" cy="64.5" r="2.5"/>
        <circle id="Ellipse_1_copy" data-name="Ellipse 1 copy" class="cls-5" cx="67.5" cy="57.5" r="2.5"/>
        <circle id="Ellipse_1_copy_3" data-name="Ellipse 1 copy 3" class="cls-6" cx="91.5" cy="50.5" r="2.5"/>
        <circle id="Ellipse_1_copy_2" data-name="Ellipse 1 copy 2" class="cls-7" cx="79.5" cy="60.5" r="2.5"/>
      </g>
      <rect id="Rounded_Rectangle_606" data-name="Rounded Rectangle 606" class="cls-8" x="54" y="76" width="4" height="13" rx="2" ry="2"/>
      <rect id="Rounded_Rectangle_606_copy" data-name="Rounded Rectangle 606 copy" class="cls-8" x="66" y="66" width="4" height="23" rx="2" ry="2"/>
      <rect id="Rounded_Rectangle_606_copy_2" data-name="Rounded Rectangle 606 copy 2" class="cls-8" x="78" y="69" width="4" height="20" rx="2" ry="2"/>
      <rect id="Rounded_Rectangle_606_copy_3" data-name="Rounded Rectangle 606 copy 3" class="cls-8" x="90" y="59" width="4" height="30" rx="2" ry="2"/>
    </g>
    <g id="Calener">
      <rect id="Rounded_Rectangle_607" data-name="Rounded Rectangle 607" class="cls-9" x="106" y="61" width="44" height="41" rx="6" ry="6"/>
      <path class="cls-10" d="M106.435,70c-0.022-1.623.186-3.91,0.186-4.027,0-.211,0-4.081,4.524-4.585,1.861-.39,8.879.124,16.934-0.016,9.019-.156,17.036-0.038,17.687-0.037,0.668,0,4.379.068,3.844,4.682,0,0.352-.013,3.321-0.013,4.01C149.6,70.024,106,70,106.435,70Z"/>
      <path id="Rounded_Rectangle_600" data-name="Rounded Rectangle 600" class="cls-2" d="M114.541,59c1.344,0,1.5,1.27,1.459,2v3c0.039,0.734.055,2-1.5,2-1.362,0-1.537-1.263-1.5-2V61C112.991,60.266,113.326,59,114.541,59Zm12.956-.053c1.542,0,1.606,1.317,1.5,2.057v3c-0.037.734-.245,2.045-1.46,2.045A1.6,1.6,0,0,1,126,64V61C126.037,60.266,125.971,58.944,127.5,58.944Zm13.046,0.025c1.559,0,1.494,1.3,1.457,2.032v3c-0.037.734,0.1,2.04-1.438,2.04-1.685,0-1.563-1.3-1.562-2.04V61C138.961,60.261,138.921,58.968,140.543,58.968Z"/>
      <path id="Rounded_Rectangle_601_copy" data-name="Rounded Rectangle 601 copy" class="cls-11" d="M113,74h3a0.926,0.926,0,0,1,1,1v3a0.888,0.888,0,0,1-1,1h-3a0.913,0.913,0,0,1-1-1V75A0.93,0.93,0,0,1,113,74Zm9.935,15.9"/>
      <rect id="Rounded_Rectangle_601_copy_2" data-name="Rounded Rectangle 601 copy 2" class="cls-12" x="139" y="74" width="5" height="5" rx="1" ry="1"/>
      <rect id="Rounded_Rectangle_601_copy_3" data-name="Rounded Rectangle 601 copy 3" class="cls-12" x="121" y="74" width="5" height="5" rx="1" ry="1"/>
      <rect id="Rounded_Rectangle_601_copy_5" data-name="Rounded Rectangle 601 copy 5" class="cls-13" x="130" y="74" width="5" height="5" rx="1" ry="1"/>
      <path id="Rounded_Rectangle_601_copy_4" data-name="Rounded Rectangle 601 copy 4" class="cls-11" d="M113,83h3a0.926,0.926,0,0,1,1,1v3a0.888,0.888,0,0,1-1,1h-3a0.913,0.913,0,0,1-1-1V84A0.93,0.93,0,0,1,113,83Zm9.935,15.9"/>
      <rect id="Rounded_Rectangle_601_copy_4-2" data-name="Rounded Rectangle 601 copy 4" class="cls-12" x="139" y="83" width="5" height="5" rx="1" ry="1"/>
      <rect id="Rounded_Rectangle_601_copy_4-3" data-name="Rounded Rectangle 601 copy 4" class="cls-12" x="121" y="83" width="5" height="5" rx="1" ry="1"/>
      <rect id="Rounded_Rectangle_601_copy_6" data-name="Rounded Rectangle 601 copy 6" class="cls-12" x="130" y="83" width="5" height="5" rx="1" ry="1"/>
      <path id="Rounded_Rectangle_601_copy_7" data-name="Rounded Rectangle 601 copy 7" class="cls-11" d="M113,92h3a0.926,0.926,0,0,1,1,1v3a0.888,0.888,0,0,1-1,1h-3a0.913,0.913,0,0,1-1-1V93A0.93,0.93,0,0,1,113,92Zm9.935,15.9"/>
      <rect id="Rounded_Rectangle_601_copy_7-2" data-name="Rounded Rectangle 601 copy 7" class="cls-14" x="121" y="92" width="5" height="5" rx="1" ry="1"/>
      <rect id="Rounded_Rectangle_601_copy_7-3" data-name="Rounded Rectangle 601 copy 7" class="cls-12" x="130" y="92" width="5" height="5" rx="1" ry="1"/>
    </g>
  </g>
</svg>
