<svg id="icon" xmlns="http://www.w3.org/2000/svg" width="181" height="122" viewBox="0 0 181 122">
  <defs>
    <style>
      .cls-1 {
        fill: #eef3fe;
      }

      .cls-1, .cls-2, .cls-3 {
        fill-rule: evenodd;
      }

      .cls-2 {
        fill: #5387ff;
      }

      .cls-3 {
        fill: #f04d4f;
      }

      .cls-4 {
        fill: #fff;
      }
    </style>
  </defs>
  <path class="cls-1" d="M20,68.019c0.518-12.348,3.106-22.638,28.987-30.87S82.739,25.287,95.68,17.569c10.426-6.394,42.473-5.832,57.974,15.435,10.784,14.8,10.007,34.037-2.07,47.334-10.26,11.3-31.5,20.432-52.8,24.7-21.692,4.344-37.893,1.057-53.939-5.117S19.655,82.768,20,68.019Z"/>
  <g id="Global">
    <path class="cls-2" d="M58,66l14.228,0.374A39.3,39.3,0,0,0,76,83H63A34.585,34.585,0,0,1,58,66ZM92,47V34a55.2,55.2,0,0,1,11,13H92Zm12,1a39.534,39.534,0,0,1,4,17H92V48h12ZM90,47H79A55.335,55.335,0,0,1,90,34V47h0Zm0,1V65H74a38.361,38.361,0,0,1,4.493-16.706ZM72,65H58a34.579,34.579,0,0,1,5-17H77C74.628,52.672,72.155,58.844,72,65Zm2,1H90V83H78C75.538,78.378,74.163,72.2,74,66ZM90,84V97A55.152,55.152,0,0,1,79,84H90Zm2,0h11A55.342,55.342,0,0,1,92,97V84Zm0-1V66h16c-0.164,6.2-2.535,12.376-5,17H92Zm18-17,14,0.374A33.187,33.187,0,0,1,119,83H105C107.373,78.328,109.845,72.156,110,66Zm0-1a41.093,41.093,0,0,0-4-17l13.032,0.294A33.463,33.463,0,0,1,124,65H110Zm8-18H105A58.061,58.061,0,0,0,93.554,33,33.911,33.911,0,0,1,118,47ZM88.446,33A58.082,58.082,0,0,0,77,47H64A33.908,33.908,0,0,1,88.446,33ZM64,84H77A58.672,58.672,0,0,0,88,98C78,97.24,69.529,91.613,64,84ZM94,98a58.631,58.631,0,0,0,11-14h13C112.47,91.614,104,97.24,94,98Z"/>
    <g id="Location-1">
      <path id="Forma_1" data-name="Forma 1" class="cls-3" d="M66.5,37A6.769,6.769,0,0,0,60,44a7.267,7.267,0,0,0,.568,2.855,44.377,44.377,0,0,0,5.657,9.014,0.345,0.345,0,0,0,.548,0,44.387,44.387,0,0,0,5.657-9.014A7.267,7.267,0,0,0,73,44,6.769,6.769,0,0,0,66.5,37Z"/>
      <circle id="Forma_1_copy_2" data-name="Forma 1 copy 2" class="cls-4" cx="66.5" cy="43.5" r="3.5"/>
    </g>
    <g id="Location-2">
      <path id="Forma_1-2" data-name="Forma 1" class="cls-3" d="M84.5,67A6.768,6.768,0,0,0,78,74a7.267,7.267,0,0,0,.568,2.855,44.377,44.377,0,0,0,5.657,9.014,0.345,0.345,0,0,0,.548,0,44.387,44.387,0,0,0,5.657-9.014A7.265,7.265,0,0,0,91,74,6.769,6.769,0,0,0,84.5,67Z"/>
      <circle id="Forma_1_copy_2-2" data-name="Forma 1 copy 2" class="cls-4" cx="84.5" cy="73.5" r="3.5"/>
    </g>
    <g id="Location-3">
      <path id="Forma_1-3" data-name="Forma 1" class="cls-3" d="M114.5,52A6.769,6.769,0,0,0,108,59a7.25,7.25,0,0,0,.569,2.855,44.344,44.344,0,0,0,5.657,9.014,0.345,0.345,0,0,0,.548,0,44.4,44.4,0,0,0,5.658-9.014A7.267,7.267,0,0,0,121,59,6.769,6.769,0,0,0,114.5,52Z"/>
      <circle id="Forma_1_copy_2-3" data-name="Forma 1 copy 2" class="cls-4" cx="114.5" cy="58.5" r="3.5"/>
    </g>
  </g>
</svg>
