<svg id="icon" xmlns="http://www.w3.org/2000/svg" width="178" height="122" viewBox="0 0 178 122">
  <defs>
    <style>
      .cls-1, .cls-3 {
        fill: #eef3fe;
      }

      .cls-1, .cls-2, .cls-5, .cls-6, .cls-9 {
        fill-rule: evenodd;
      }

      .cls-2, .cls-4, .cls-9 {
        fill: #fff;
        stroke-width: 1px;
      }

      .cls-2, .cls-4 {
        stroke: #e3e3e3;
      }

      .cls-2, .cls-4, .cls-8, .cls-9 {
        stroke-linejoin: round;
      }

      .cls-5 {
        fill: #3be2a9;
      }

      .cls-7 {
        fill: #e3e3e3;
      }

      .cls-8 {
        fill: #ffc501;
        stroke: #eef3fe;
        stroke-width: 2px;
      }

      .cls-9 {
        stroke: #fff;
      }
    </style>
  </defs>
  <path class="cls-1" d="M19,68.019c0.518-12.348,3.106-22.638,28.987-30.87S81.739,25.287,94.68,17.569c10.426-6.394,42.473-5.832,57.974,15.435,10.784,14.8,10.007,34.037-2.07,47.334-10.26,11.3-31.5,20.432-52.8,24.7-21.692,4.344-37.893,1.057-53.939-5.117S18.655,82.768,19,68.019Z"/>
  <g id="icon-2" data-name="icon">
    <g id="File">
      <path class="cls-2" d="M58,23V98h57c0.912,0,1,.243,1,1v1c0,2.424,2.567,4,5,4a3.75,3.75,0,0,0,4-4V22c0-1.667,1.239-2.788,2-4H63C60.251,18,58,19.551,58,23Z"/>
      <path id="Shape_706_copy_2" data-name="Shape 706 copy 2" class="cls-2" d="M118,97H55v2c0,2.273,1.414,5,4,5h61c-0.913-1.212-2-2.333-2-4V97Z"/>
      <path id="Shape_706_copy" data-name="Shape 706 copy" class="cls-2" d="M130,18h-0.27C127.3,18,125,19.576,125,22v6h9V22C134.152,19.576,132.433,18,130,18Z"/>
    </g>
    <g id="Text">
      <rect id="Rounded_Rectangle_601" data-name="Rounded Rectangle 601" class="cls-3" x="68" y="39" width="12" height="13" rx="1" ry="1"/>
      <rect id="Rounded_Rectangle_601-2" data-name="Rounded Rectangle 601" class="cls-3" x="68" y="59" width="12" height="13" rx="1" ry="1"/>
      <rect id="Rounded_Rectangle_601_copy_2" data-name="Rounded Rectangle 601 copy 2" class="cls-4" x="68" y="78" width="12" height="13" rx="1" ry="1"/>
      <path id="Forma_1" data-name="Forma 1" class="cls-5" d="M77.906,42.182L73.023,47.4,71.049,45.29a0.593,0.593,0,0,0-.878,0,0.7,0.7,0,0,0,0,.938l2.413,2.577a0.593,0.593,0,0,0,.878,0v0l5.32-5.684a0.7,0.7,0,0,0,0-.938A0.593,0.593,0,0,0,77.906,42.182Z"/>
      <path id="Forma_1_copy_2" data-name="Forma 1 copy 2" class="cls-5" d="M77.906,62.182L73.023,67.4,71.049,65.29a0.593,0.593,0,0,0-.878,0,0.7,0.7,0,0,0,0,.938l2.413,2.577a0.593,0.593,0,0,0,.878,0v0l5.32-5.684a0.7,0.7,0,0,0,0-.938A0.593,0.593,0,0,0,77.906,62.182Z"/>
      <path id="Tax" class="cls-6" d="M71.513,25.985h-5.5v0.838h2.31v7.086H69.2V26.823h2.311V25.985Zm0.074,3.373a2,2,0,0,1,.344-0.169,3.287,3.287,0,0,1,.413-0.128q0.217-.052.424-0.081a2.769,2.769,0,0,1,.387-0.029A1.142,1.142,0,0,1,74,29.2a1.273,1.273,0,0,1,.233.872q0,0.272-.032.611a1.931,1.931,0,0,0-.291-0.023H73.623a6.162,6.162,0,0,0-1.065.085,2.53,2.53,0,0,0-.827.283,1.418,1.418,0,0,0-.535.532,1.657,1.657,0,0,0-.191.832,1.731,1.731,0,0,0,.122.668,1.507,1.507,0,0,0,.334.5,1.451,1.451,0,0,0,.5.323,1.728,1.728,0,0,0,.631.113,2.063,2.063,0,0,0,1.071-.277,1.542,1.542,0,0,0,.344-0.272,1.859,1.859,0,0,0,.239-0.311H74.3l0.223,0.792h0.625a3.969,3.969,0,0,1-.117-0.691Q75,32.867,75,32.449q0-.577.032-1.223T75.064,29.9a3.26,3.26,0,0,0-.058-0.611,1.463,1.463,0,0,0-.233-0.56,1.247,1.247,0,0,0-.509-0.413,2.084,2.084,0,0,0-.885-0.159,4.925,4.925,0,0,0-1.118.125,2.944,2.944,0,0,0-.938.385Zm0.562,3.594a0.863,0.863,0,0,1-.265-0.651,0.75,0.75,0,0,1,.143-0.47,0.975,0.975,0,0,1,.382-0.294,1.928,1.928,0,0,1,.551-0.147,5.118,5.118,0,0,1,.641-0.04q0.148,0,.3.006t0.3,0.017v0.94a1.35,1.35,0,0,1-.445.594,1.5,1.5,0,0,1-.4.215,1.543,1.543,0,0,1-.53.085A0.939,0.939,0,0,1,72.149,32.952Zm4,0.957h0.943l1.145-1.721,0.329-.679,0.318,0.679L80,33.909H81.01l-1.9-2.943L80.9,28.249H79.95l-1.028,1.562-0.307.645-0.3-.645-1.007-1.562H76.272l1.781,2.762Z"/>
      <rect id="Rounded_Rectangle_602" data-name="Rounded Rectangle 602" class="cls-7" x="83" y="41" width="32" height="2" rx="1" ry="1"/>
      <rect id="Rounded_Rectangle_602_copy" data-name="Rounded Rectangle 602 copy" class="cls-7" x="83" y="46" width="22" height="2" rx="1" ry="1"/>
      <rect id="Rounded_Rectangle_602_copy_2" data-name="Rounded Rectangle 602 copy 2" class="cls-7" x="83" y="61" width="22" height="2" rx="1" ry="1"/>
      <rect id="Rounded_Rectangle_602_copy_2-2" data-name="Rounded Rectangle 602 copy 2" class="cls-7" x="83" y="66" width="32" height="2" rx="1" ry="1"/>
      <rect id="Rounded_Rectangle_602_copy_3" data-name="Rounded Rectangle 602 copy 3" class="cls-7" x="83" y="80" width="28" height="2" rx="1" ry="1"/>
      <rect id="Rounded_Rectangle_602_copy_3-2" data-name="Rounded Rectangle 602 copy 3" class="cls-7" x="83" y="85" width="22" height="2" rx="1" ry="1"/>
    </g>
  </g>
  <g id="Percentage">
    <circle class="cls-8" cx="129" cy="77" r="13"/>
    <path id="_" data-name="%" class="cls-9" d="M125.657,76.232a2.549,2.549,0,0,0,2.217-1.278,2.648,2.648,0,0,0,0-2.593,2.566,2.566,0,0,0-3.5-.934,2.6,2.6,0,0,0-.939.934,2.589,2.589,0,0,0,0,2.593,2.591,2.591,0,0,0,.939.934,2.5,2.5,0,0,0,1.287.344h0Zm-0.34,7.706H125.8a0.266,0.266,0,0,0,.268-0.163l6.7-12.238a0.211,0.211,0,0,0,.027-0.208,0.2,0.2,0,0,0-.188-0.082h-0.464a0.289,0.289,0,0,0-.269.163l-6.722,12.238a0.213,0.213,0,0,0-.026.209,0.193,0.193,0,0,0,.187.082h0Zm0.34-8.467a1.711,1.711,0,0,1-1.269-.526,1.856,1.856,0,0,1,0-2.575,1.774,1.774,0,0,1,2.521,0,1.847,1.847,0,0,1,0,2.566,1.68,1.68,0,0,1-1.252.535h0Zm6.722,8.63a2.46,2.46,0,0,0,1.278-.344,2.531,2.531,0,0,0,.921-0.943,2.6,2.6,0,0,0,.34-1.305,2.551,2.551,0,0,0-1.27-2.212,2.474,2.474,0,0,0-1.269-.344,2.507,2.507,0,0,0-1.287.344,2.6,2.6,0,0,0-.939.934,2.47,2.47,0,0,0-.348,1.278,2.55,2.55,0,0,0,.348,1.305,2.578,2.578,0,0,0,.939.943,2.508,2.508,0,0,0,1.287.344h0Zm0-.761a1.741,1.741,0,0,1-1.278-.526,1.768,1.768,0,0,1-.528-1.305,1.8,1.8,0,0,1,1.806-1.795,1.691,1.691,0,0,1,1.251.526,1.742,1.742,0,0,1,.519,1.269,1.793,1.793,0,0,1-.519,1.3,1.676,1.676,0,0,1-1.251.535h0Z"/>
  </g>
</svg>
