<svg id="icon" xmlns="http://www.w3.org/2000/svg" width="178" height="122" viewBox="0 0 178 122">
  <defs>
    <style>
      .cls-1, .cls-4 {
        fill: #eef3fe;
      }

      .cls-1, .cls-2, .cls-3, .cls-5, .cls-6, .cls-9 {
        fill-rule: evenodd;
      }

      .cls-2, .cls-7, .cls-9 {
        fill: #fff;
      }

      .cls-2, .cls-7 {
        stroke: #e3e3e3;
        stroke-linejoin: round;
        stroke-width: 1px;
      }

      .cls-5 {
        fill: #343439;
      }

      .cls-6 {
        fill: #3be2a9;
      }

      .cls-8 {
        fill: #ffc501;
      }

      .cls-10 {
        fill: #56d9a4;
      }
    </style>
  </defs>
  <path class="cls-1" d="M18,71.019c0.518-12.348,3.106-22.638,28.987-30.87S80.739,28.287,93.68,20.569c10.426-6.394,42.473-5.832,57.974,15.435,10.784,14.8,10.007,34.037-2.07,47.334-10.26,11.3-31.5,20.432-52.8,24.7-21.692,4.344-37.893,1.057-53.939-5.117S17.655,85.768,18,71.019Z"/>
  <g id="internal-icon">
    <g id="_3" data-name="3">
      <path class="cls-2" d="M111.467,88.007h13.581s7.27,4.841,2.037,16.085c0,0-1.048,2.017-11.544,1.9h-8.149S103.854,99.259,104,98.5,111.467,88.007,111.467,88.007Z"/>
      <path class="cls-2" d="M55.227,23H112.96s5.352,0.346,6.066,7.915v69.763s0.01,4.868,4.933,5.277l-63.532.879s-8.514-3.046-9.533-10.553L50.027,29.156S49.408,24.005,55.227,23Z"/>
      <path id="Currency" class="cls-3" d="M62.867,37.742a2.275,2.275,0,0,1-.6.25,3.168,3.168,0,0,1-.835.1,2.446,2.446,0,0,1-.984-0.2,2.152,2.152,0,0,1-.787-0.588,2.843,2.843,0,0,1-.527-0.98,4.436,4.436,0,0,1-.191-1.371,4.633,4.633,0,0,1,.2-1.469,2.72,2.72,0,0,1,.537-0.969,1.977,1.977,0,0,1,.76-0.533,2.387,2.387,0,0,1,.861-0.163,3.267,3.267,0,0,1,1.457.261l0.213-.805a3.286,3.286,0,0,0-.691-0.19,6.255,6.255,0,0,0-1.042-.071,3.276,3.276,0,0,0-1.17.218,2.861,2.861,0,0,0-1.037.691,3.473,3.473,0,0,0-.744,1.219,5.141,5.141,0,0,0-.282,1.812,5.474,5.474,0,0,0,.255,1.769,3.451,3.451,0,0,0,.691,1.224,2.742,2.742,0,0,0,1.021.713,3.347,3.347,0,0,0,1.255.234,5.305,5.305,0,0,0,1.042-.1,1.888,1.888,0,0,0,.808-0.348Zm1.17-4.419V36.61a4.649,4.649,0,0,0,.112,1.116,1.754,1.754,0,0,0,.33.7,1.144,1.144,0,0,0,.542.365,2.474,2.474,0,0,0,.75.1,1.829,1.829,0,0,0,1.053-.283,2.145,2.145,0,0,0,.659-0.708h0.053l0.213,0.86h0.585a5.473,5.473,0,0,1-.09-0.735q-0.027-.419-0.027-0.811v-3.9H67.365v3.635a2.307,2.307,0,0,1-.218.452,1.864,1.864,0,0,1-.308.376,1.278,1.278,0,0,1-.909.348,1.068,1.068,0,0,1-.511-0.109A0.784,0.784,0,0,1,65.1,37.7a1.586,1.586,0,0,1-.165-0.533,5.114,5.114,0,0,1-.048-0.745v-3.1H64.037Zm8.508,0a2.56,2.56,0,0,0-.691-0.109,1.206,1.206,0,0,0-.718.2,1.669,1.669,0,0,0-.484.572H70.609l-0.159-.664h-0.6v5.442H70.7V34.956a1.122,1.122,0,0,1,.33-0.648,1,1,0,0,1,.723-0.256,1.882,1.882,0,0,1,.606.109Zm3.616,0a2.561,2.561,0,0,0-.691-0.109,1.206,1.206,0,0,0-.718.2,1.669,1.669,0,0,0-.484.572H74.225l-0.16-.664h-0.6v5.442H74.32V34.956a1.122,1.122,0,0,1,.33-0.648,1,1,0,0,1,.723-0.256,1.883,1.883,0,0,1,.606.109ZM80.648,37.7a1.529,1.529,0,0,1-.542.3,2.119,2.119,0,0,1-.723.131A2.046,2.046,0,0,1,78.59,38a1.291,1.291,0,0,1-.526-0.392,1.668,1.668,0,0,1-.3-0.626,3.4,3.4,0,0,1-.1-0.849h3.414a5.521,5.521,0,0,0,.064-0.794,2.827,2.827,0,0,0-.181-1.1,1.634,1.634,0,0,0-.468-0.648,1.591,1.591,0,0,0-.649-0.31,3.271,3.271,0,0,0-.723-0.082,2.127,2.127,0,0,0-1.734.729,3.244,3.244,0,0,0-.606,2.122,4.6,4.6,0,0,0,.138,1.175,2.52,2.52,0,0,0,.425.9,1.879,1.879,0,0,0,.734.577,2.545,2.545,0,0,0,1.053.2,3.4,3.4,0,0,0,1.026-.152,2.385,2.385,0,0,0,.8-0.414ZM80.01,34.286a1.7,1.7,0,0,1,.308,1.159H77.681a1.708,1.708,0,0,1,.452-1.154,1.452,1.452,0,0,1,1-.337A1.132,1.132,0,0,1,80.01,34.286Zm6.742,4.479V35.478a4.65,4.65,0,0,0-.112-1.116,1.758,1.758,0,0,0-.33-0.7,1.146,1.146,0,0,0-.548-0.365,2.565,2.565,0,0,0-.766-0.1,2.206,2.206,0,0,0-1.026.223,1.937,1.937,0,0,0-.686.572H83.243l-0.16-.664h-0.6v5.442h0.851V35.043a1.654,1.654,0,0,1,.516-0.778,1.391,1.391,0,0,1,.931-0.31,0.915,0.915,0,0,1,.877.43,2.7,2.7,0,0,1,.239,1.279v3.1h0.851Zm4.9-1.023a1.926,1.926,0,0,1-.495.272,1.851,1.851,0,0,1-.686.12,1.483,1.483,0,0,1-.75-0.174,1.405,1.405,0,0,1-.489-0.462,1.963,1.963,0,0,1-.266-0.664,3.787,3.787,0,0,1-.08-0.789q0-2.09,1.51-2.09a2.407,2.407,0,0,1,.638.082,2.293,2.293,0,0,1,.542.223l0.245-.751a2.61,2.61,0,0,0-.643-0.234,3.938,3.938,0,0,0-.867-0.082,2.076,2.076,0,0,0-1.712.735,3.289,3.289,0,0,0-.6,2.117,5.185,5.185,0,0,0,.122,1.17,2.477,2.477,0,0,0,.394.9,1.787,1.787,0,0,0,.7.577,2.425,2.425,0,0,0,1.042.2,3.3,3.3,0,0,0,.915-0.125,2.3,2.3,0,0,0,.755-0.365Zm1.606-4.419H92.282l2.138,5.442a2.658,2.658,0,0,1-.457,1.1,0.774,0.774,0,0,1-.574.321,0.724,0.724,0,0,1-.266-0.055l-0.149.751A1.553,1.553,0,0,0,93.6,41a0.906,0.906,0,0,0,.617-0.234,2.265,2.265,0,0,0,.478-0.626,6.11,6.11,0,0,0,.388-0.892q0.175-.5.356-1.034l1.574-4.887H96.164l-1.035,3.516-0.235,1.056H94.841l-0.3-1.045Z"/>
      <g>
        <rect id="Rounded_Rectangle_601" data-name="Rounded Rectangle 601" class="cls-4" x="58" y="47" width="12" height="13" rx="1" ry="1"/>
        <path id="USD" class="cls-5" d="M80.321,50.095v4.522a1.576,1.576,0,0,1-.482,1.223,1.776,1.776,0,0,1-1.249.442,1.549,1.549,0,0,1-1.64-1.665V50.095H76v4.522a2.2,2.2,0,0,0,.724,1.751A2.722,2.722,0,0,0,78.59,57a2.887,2.887,0,0,0,1.928-.631,2.17,2.17,0,0,0,.748-1.753V50.095H80.321Zm5.772,5.892a1.726,1.726,0,0,1-1.062.295,1.92,1.92,0,0,1-1.127-.348,1.135,1.135,0,0,1-.5-0.989H82.5l-0.01.028a1.668,1.668,0,0,0,.75,1.478A3,3,0,0,0,85.03,57a2.807,2.807,0,0,0,1.734-.5,1.577,1.577,0,0,0,.664-1.323,1.69,1.69,0,0,0-.552-1.281,3.594,3.594,0,0,0-1.607-.785,3.607,3.607,0,0,1-1.254-.521,0.9,0.9,0,0,1-.386-0.741,1.038,1.038,0,0,1,.352-0.814A1.479,1.479,0,0,1,85,50.721a1.515,1.515,0,0,1,1.062.379,1.242,1.242,0,0,1,.415.959h0.9l0.014-.028a1.827,1.827,0,0,0-.635-1.424A2.475,2.475,0,0,0,85,50a2.528,2.528,0,0,0-1.669.533,1.662,1.662,0,0,0-.643,1.333,1.573,1.573,0,0,0,.6,1.258,4.036,4.036,0,0,0,1.662.758,2.871,2.871,0,0,1,1.2.533,1.012,1.012,0,0,1,.341.776A0.948,0.948,0,0,1,86.093,55.987Zm4.87,0.916a3,3,0,0,0,2.2-.816,2.839,2.839,0,0,0,.832-2.12V53.036a2.848,2.848,0,0,0-.832-2.12,3,3,0,0,0-2.2-.821h-2.2V56.9h2.2Zm0-6.084a1.95,1.95,0,0,1,1.528.622,2.283,2.283,0,0,1,.559,1.585v0.94a2.3,2.3,0,0,1-.559,1.595,1.95,1.95,0,0,1-1.528.622H89.711V50.82h1.252Z"/>
        <path id="Forma_1" data-name="Forma 1" class="cls-6" d="M67.906,50.182L63.023,55.4,61.049,53.29a0.593,0.593,0,0,0-.878,0,0.7,0.7,0,0,0,0,.938l2.413,2.577a0.593,0.593,0,0,0,.878,0v0l5.32-5.684a0.7,0.7,0,0,0,0-.938A0.593,0.593,0,0,0,67.906,50.182Z"/>
      </g>
      <g id="Group_18_copy" data-name="Group 18 copy">
        <rect id="Rounded_Rectangle_601-2" data-name="Rounded Rectangle 601" class="cls-4" x="58" y="67" width="12" height="13" rx="1" ry="1"/>
        <path id="AUD" class="cls-5" d="M79.916,76.892H80.9l-2.517-6.9H77.555l-2.571,6.9h0.984l0.637-1.777h2.684Zm-1.969-5.519h0.029l1.038,2.961h-2.13Zm8.213-1.379v4.581a1.59,1.59,0,0,1-.492,1.239,1.823,1.823,0,0,1-1.276.448,1.674,1.674,0,0,1-1.207-.448,1.633,1.633,0,0,1-.468-1.239V69.994H81.752v4.581a2.225,2.225,0,0,0,.739,1.774,2.794,2.794,0,0,0,1.9.642,2.963,2.963,0,0,0,1.969-.639,2.19,2.19,0,0,0,.764-1.776V69.994H86.16Zm4.736,6.9a3.083,3.083,0,0,0,2.245-.827,2.864,2.864,0,0,0,.85-2.148V72.974a2.874,2.874,0,0,0-.85-2.148,3.073,3.073,0,0,0-2.245-.831H88.653v6.9H90.9Zm0-6.163a2,2,0,0,1,1.56.63,2.3,2.3,0,0,1,.57,1.606v0.952a2.315,2.315,0,0,1-.57,1.615,2,2,0,0,1-1.56.63H89.617V70.729H90.9Z"/>
        <rect id="Rounded_Rectangle_601_copy_2" data-name="Rounded Rectangle 601 copy 2" class="cls-7" x="58" y="86" width="12" height="13" rx="1" ry="1"/>
        <path id="EGP" class="cls-5" d="M79.783,92.034H76.928v-2.2h3.29V89.107H75.987v6.808H80.27v-0.72H76.928V92.759h2.855V92.034Zm6.6,0.477H83.866v0.72h1.576v1.534a1.405,1.405,0,0,1-.537.372,2.5,2.5,0,0,1-.977.157,1.676,1.676,0,0,1-1.318-.587,2.18,2.18,0,0,1-.516-1.494V91.8a2.237,2.237,0,0,1,.487-1.482,1.59,1.59,0,0,1,1.284-.585,1.569,1.569,0,0,1,1.165.414,1.411,1.411,0,0,1,.411,1.036h0.9l0.01-.028a1.925,1.925,0,0,0-.654-1.541,2.641,2.641,0,0,0-1.834-.606,2.61,2.61,0,0,0-1.958.781,2.776,2.776,0,0,0-.759,2.02v1.4a2.685,2.685,0,0,0,2.779,2.8A3.459,3.459,0,0,0,85.52,95.7a2.227,2.227,0,0,0,.862-0.7V92.511Zm4.283,0.673a2.5,2.5,0,0,0,1.731-.556,2.08,2.08,0,0,0,0-2.96,2.483,2.483,0,0,0-1.731-.561h-2.66v6.808h0.941V93.184h1.719Zm-1.719-3.353h1.719a1.367,1.367,0,0,1,1.053.379,1.337,1.337,0,0,1,.351.945,1.317,1.317,0,0,1-.349.938,1.381,1.381,0,0,1-1.055.372H88.946V89.832Z"/>
      </g>
      <path id="Forma_1_copy_2" data-name="Forma 1 copy 2" class="cls-6" d="M67.906,70.182L63.023,75.4,61.049,73.29a0.593,0.593,0,0,0-.878,0,0.7,0.7,0,0,0,0,.938l2.413,2.577a0.593,0.593,0,0,0,.878,0v0l5.32-5.684a0.7,0.7,0,0,0,0-.938A0.593,0.593,0,0,0,67.906,70.182Z"/>
    </g>
    <g id="Dollar">
      <circle class="cls-8" cx="111.063" cy="21.281" r="10"/>
      <path id="Forma_1-2" data-name="Forma 1" class="cls-9" d="M113.993,26.455l-0.277-1.242a0.243,0.243,0,0,0-.324-0.18l-0.04.016-0.095.023-0.146.035c-0.055.013-.12,0.026-0.194,0.039s-0.151.025-.233,0.035-0.17.019-.265,0.027-0.189.011-.284,0.011a3.183,3.183,0,0,1-2.989-1.985h3.06a0.255,0.255,0,0,0,.245-0.2l0.189-.875a0.252,0.252,0,0,0-.047-0.211,0.249,0.249,0,0,0-.2-0.094h-3.628a6.866,6.866,0,0,1,0-.82h3.858a0.23,0.23,0,0,0,.253-0.2l0.19-.891a0.229,0.229,0,0,0-.056-0.2,0.233,0.233,0,0,0-.2-0.094h-3.7a3.1,3.1,0,0,1,1.186-1.375,3.272,3.272,0,0,1,1.787-.5,0.712,0.712,0,0,1,.233.008,1.824,1.824,0,0,0,.23.02,1.33,1.33,0,0,1,.2.023l0.178,0.027,0.139,0.027,0.09,0.02,0.032,0.008a0.233,0.233,0,0,0,.3-0.172l0.34-1.242a0.262,0.262,0,0,0-.024-0.187,0.3,0.3,0,0,0-.158-0.117,6.375,6.375,0,0,0-1.534-.18,5.3,5.3,0,0,0-3.167,1,5.094,5.094,0,0,0-1.925,2.641h-0.775a0.251,0.251,0,0,0-.182.07,0.244,0.244,0,0,0-.071.18v0.891a0.243,0.243,0,0,0,.071.18,0.25,0.25,0,0,0,.182.07h0.53c-0.016.25-.018,0.524-0.008,0.821h-0.522a0.247,0.247,0,0,0-.178.074A0.239,0.239,0,0,0,106,22.1v0.883a0.24,0.24,0,0,0,.075.176,0.247,0.247,0,0,0,.178.074H107a5.047,5.047,0,0,0,1.882,2.747A5.3,5.3,0,0,0,112.119,27c0.1,0,.2,0,0.3-0.008s0.2-.013.289-0.023,0.178-.022.265-0.035,0.166-.026.237-0.039l0.2-.039c0.063-.013.12-0.027,0.17-0.043s0.092-.027.126-0.035a0.4,0.4,0,0,0,.083-0.027l0.04-.008a0.248,0.248,0,0,0,.134-0.114A0.228,0.228,0,0,0,113.993,26.455Z"/>
    </g>
    <g id="EGP-2" data-name="EGP">
      <circle class="cls-10" cx="126" cy="59" r="12"/>
      <path id="_" data-name="$" class="cls-9" d="M127.466,62.5a2.194,2.194,0,0,1-1.452.426,2.273,2.273,0,0,1-1.469-.466,1.893,1.893,0,0,1-.581-1.563h-1.95L122,60.934a3.126,3.126,0,0,0,.934,2.534,4.186,4.186,0,0,0,2.46,1V66h1.32V64.463a3.991,3.991,0,0,0,2.4-.963,2.83,2.83,0,0,0,.876-2.179,2.859,2.859,0,0,0-.867-2.2,6.813,6.813,0,0,0-2.627-1.35,4.888,4.888,0,0,1-1.626-.829,1.417,1.417,0,0,1-.44-1.09,1.578,1.578,0,0,1,.423-1.157,1.756,1.756,0,0,1,1.3-.43,1.637,1.637,0,0,1,1.3.533,2.127,2.127,0,0,1,.465,1.449h1.95l0.025-.039a3.2,3.2,0,0,0-3.021-3.482V50.987h-1.32v1.721a3.688,3.688,0,0,0-2.3,1,2.928,2.928,0,0,0-.839,2.159,2.852,2.852,0,0,0,.88,2.207,6.823,6.823,0,0,0,2.639,1.346,4.321,4.321,0,0,1,1.573.809,1.465,1.465,0,0,1,.46,1.109A1.436,1.436,0,0,1,127.466,62.5Z"/>
    </g>
  </g>
</svg>
