<svg id="icon" xmlns="http://www.w3.org/2000/svg" width="171" height="127" viewBox="0 0 171 127">
  <defs>
    <style>
      .cls-1 {
        fill: #eef3fe;
      }

      .cls-1, .cls-2, .cls-3, .cls-4 {
        fill-rule: evenodd;
      }

      .cls-2 {
        fill: #8388e4;
      }

      .cls-3 {
        fill: #fea546;
      }

      .cls-4 {
        fill: #5d8cf8;
      }
    </style>
  </defs>
  <path class="cls-1" d="M15,71.019c0.518-12.348,3.106-22.638,28.987-30.87S77.739,28.287,90.68,20.569c10.426-6.394,42.473-5.832,57.974,15.435,10.784,14.8,10.007,34.037-2.07,47.334-10.26,11.3-31.5,20.432-52.8,24.7-21.692,4.344-37.893,1.057-53.939-5.117S14.655,85.768,15,71.019Z"/>
  <g id="Location">
    <path id="Forma_1" data-name="Forma 1" class="cls-2" d="M112.6,53.577l9.865-11.172a16.912,16.912,0,0,0,0-21.8,12.864,12.864,0,0,0-19.73,0,16.914,16.914,0,0,0,0,21.8Zm0.376-31.444a8.433,8.433,0,1,1-8.393,8.433A8.424,8.424,0,0,1,112.977,22.133Z"/>
    <path id="Forma_1-2" data-name="Forma 1" class="cls-3" d="M92.376,52.8h3.052a1.533,1.533,0,0,0,0-3.067H92.376A1.533,1.533,0,0,0,92.376,52.8ZM87.038,63.533a5.343,5.343,0,0,1-1.91-.353,1.533,1.533,0,0,0-1.088,2.866,8.39,8.39,0,0,0,3,.554H87.58a1.533,1.533,0,0,0,0-3.067H87.038Zm-3.623-9.7a1.52,1.52,0,0,0,.806-0.232,5.251,5.251,0,0,1,2.219-.771,1.534,1.534,0,0,0-.334-3.05A8.249,8.249,0,0,0,82.6,51,1.535,1.535,0,0,0,83.415,53.837Zm9.724,23.5c-0.131,0-.261,0-0.391.009a1.533,1.533,0,0,0,.061,3.065l0.064,0,2.989-.006a1.533,1.533,0,0,0,0-3.067H93.139Zm8.393-27.6a1.533,1.533,0,0,0,0,3.067m9.591,24.533a1.533,1.533,0,0,0,0,3.067h3.052a1.533,1.533,0,0,0,0-3.067h-3.052Zm5.452-12.267a1.528,1.528,0,0,0-1.526-1.533H112a1.533,1.533,0,0,0,0,3.067h3.052A1.529,1.529,0,0,0,116.575,65.067ZM101.967,80.4h3.052a1.533,1.533,0,0,0,0-3.067h-3.052A1.533,1.533,0,0,0,101.967,80.4Zm5.452-15.333a1.528,1.528,0,0,0-1.526-1.533h-3.052a1.533,1.533,0,0,0,0,3.067h3.052A1.529,1.529,0,0,0,107.419,65.067ZM93.685,63.533a1.533,1.533,0,0,0,0,3.067h3.052a1.533,1.533,0,0,0,0-3.067H93.685Zm-18.75,41.4H71.883a1.534,1.534,0,0,0,0,3.067h3.052A1.534,1.534,0,0,0,74.935,104.933Zm-9.156,0H62.727a1.534,1.534,0,0,0,0,3.067h3.052A1.534,1.534,0,0,0,65.779,104.933Zm52.708-5.34a1.525,1.525,0,0,0-1.823,1.159,5.334,5.334,0,0,1-1.012,2.134,1.538,1.538,0,0,0,.256,2.153,1.522,1.522,0,0,0,2.143-.257,8.48,8.48,0,0,0,1.59-3.355A1.534,1.534,0,0,0,118.487,99.593Zm-1.637-2.757a1.509,1.509,0,0,0,.941-0.328,1.538,1.538,0,0,0,.257-2.153,8.467,8.467,0,0,0-2.868-2.343,1.521,1.521,0,0,0-2.046.69,1.538,1.538,0,0,0,.687,2.056,5.358,5.358,0,0,1,1.826,1.493A1.528,1.528,0,0,0,116.85,96.836Zm-6.815-4.169a1.528,1.528,0,0,0-1.526-1.533h-3.052a1.533,1.533,0,0,0,0,3.067h3.052A1.529,1.529,0,0,0,110.035,92.667Zm1.416,12.266h-2.945a1.534,1.534,0,0,0,0,3.067l3.007,0,0.045-1.533V108a1.483,1.483,0,0,0,1.472-1.533A1.574,1.574,0,0,0,111.451,104.933Zm17.447-34.3a1.526,1.526,0,1,0-3.014.486,5.053,5.053,0,0,1,.064.846,5.374,5.374,0,0,1-.217,1.515,1.527,1.527,0,1,0,2.93.862A8.5,8.5,0,0,0,129,71.979,8.276,8.276,0,0,0,128.9,70.636ZM80.986,61.778a1.538,1.538,0,0,0,.974-1.937,5.381,5.381,0,0,1-.266-1.668,6.051,6.051,0,0,1,.043-0.689,1.526,1.526,0,1,0-3.028-.383,8.97,8.97,0,0,0-.067,1.064,8.48,8.48,0,0,0,.416,2.634,1.529,1.529,0,0,0,1.45,1.055A1.476,1.476,0,0,0,80.986,61.778Zm43.822,2.887a8.273,8.273,0,0,0-3.536-1.107,1.533,1.533,0,0,0-.238,3.058,5.232,5.232,0,0,1,2.243.7,1.522,1.522,0,0,0,2.086-.557A1.539,1.539,0,0,0,124.808,64.665ZM122.67,76.918a5.276,5.276,0,0,1-2.063.415h-0.328a1.533,1.533,0,0,0,0,3.067h0.328a8.3,8.3,0,0,0,3.243-.655A1.532,1.532,0,0,0,122.67,76.918ZM87.892,84.753a5.339,5.339,0,0,1,.945-2.167,1.539,1.539,0,0,0-.325-2.144,1.523,1.523,0,0,0-2.133.327,8.422,8.422,0,0,0-1.485,3.407A1.527,1.527,0,1,0,87.892,84.753Zm2.391,8.824a1.534,1.534,0,0,0,.636-2.927,5.4,5.4,0,0,1-1.874-1.435,1.52,1.52,0,0,0-2.15-.187,1.537,1.537,0,0,0-.186,2.16,8.455,8.455,0,0,0,2.941,2.249A1.529,1.529,0,0,0,90.284,93.577Zm-6.193,11.356H81.039a1.534,1.534,0,0,0,0,3.067h3.052A1.534,1.534,0,0,0,84.091,104.933Zm9.156,0H90.2a1.534,1.534,0,0,0,0,3.067h3.052A1.534,1.534,0,0,0,93.247,104.933Zm7.632-12.266a1.528,1.528,0,0,0-1.526-1.533H96.3a1.533,1.533,0,0,0,0,3.067h3.052A1.53,1.53,0,0,0,100.879,92.667Zm1.524,12.266H99.351a1.534,1.534,0,0,0,0,3.067H102.4A1.534,1.534,0,0,0,102.4,104.933ZM101.532,52.8h3.052a1.533,1.533,0,0,0,0-3.067h-3.052"/>
    <path id="Forma_1-3" data-name="Forma 1" class="cls-4" d="M70.291,60.431a16.933,16.933,0,0,0-26.026,0,22.525,22.525,0,0,0,0,28.978l13.012,14.77L70.29,89.41A22.524,22.524,0,0,0,70.291,60.431Zm-13.014,21.5a9.2,9.2,0,1,1,9.156-9.2A9.187,9.187,0,0,1,57.278,81.933Z"/>
  </g>
</svg>
