<svg id="icon" xmlns="http://www.w3.org/2000/svg" width="171" height="127" viewBox="0 0 171 127">
  <defs>
    <style>
      .cls-1 {
        fill: #eef3fe;
      }

      .cls-1, .cls-10, .cls-3, .cls-4, .cls-5, .cls-6, .cls-7, .cls-8 {
        fill-rule: evenodd;
      }

      .cls-10, .cls-2 {
        fill: #fff;
      }

      .cls-2 {
        stroke: #e3e3e3;
        stroke-linejoin: round;
        stroke-width: 1px;
      }

      .cls-3 {
        fill: #343439;
      }

      .cls-4 {
        fill: #33e2a6;
      }

      .cls-5, .cls-9 {
        fill: #6493ff;
      }

      .cls-6 {
        fill: #565657;
      }

      .cls-7 {
        fill: #de617e;
      }

      .cls-8 {
        opacity: 0.05;
      }
    </style>
  </defs>
  <path class="cls-1" d="M12,72.019c0.518-12.348,3.106-22.638,28.987-30.87S74.739,29.287,87.68,21.569C98.106,15.175,130.153,15.737,145.654,37c10.784,14.8,10.007,34.037-2.07,47.334-10.26,11.3-31.5,20.432-52.8,24.7-21.692,4.344-37.893,1.057-53.939-5.117S11.655,86.768,12,72.019Z"/>
  <g id="Bar">
    <rect id="Rounded_Rectangle_593" data-name="Rounded Rectangle 593" class="cls-2" x="10" y="25" width="135" height="86" rx="5" ry="5"/>
    <path id="Audit_Logs" data-name="Audit Logs" class="cls-3" d="M22.753,41h1.224l-2.449-7.109H20.4L17.924,41h1.224l0.546-1.66h2.517Zm-1.8-5.454h0.029l0.912,2.8H20.021ZM28.079,41H29.1V35.714H27.913v3.818a1.116,1.116,0,0,1-.456.447,1.524,1.524,0,0,1-.719.154,0.813,0.813,0,0,1-.683-0.281,1.767,1.767,0,0,1-.22-1.037v-3.1h-1.18V38.8a2.63,2.63,0,0,0,.478,1.736,1.652,1.652,0,0,0,1.327.559,1.689,1.689,0,0,0,.885-0.23,1.771,1.771,0,0,0,.627-0.654Zm2.039-2.466a2.981,2.981,0,0,0,.541,1.86,1.8,1.8,0,0,0,1.512.708,1.709,1.709,0,0,0,.834-0.2,1.762,1.762,0,0,0,.615-0.574L33.762,41h0.961V33.38H33.538v2.905a1.74,1.74,0,0,0-.588-0.5,1.664,1.664,0,0,0-.768-0.173,1.751,1.751,0,0,0-1.522.774,3.488,3.488,0,0,0-.541,2.039v0.1Zm1.185-.1a2.694,2.694,0,0,1,.288-1.331,0.956,0.956,0,0,1,.893-0.51,1.16,1.16,0,0,1,.624.164,1.249,1.249,0,0,1,.429.456v2.3a1.227,1.227,0,0,1-.427.459,1.189,1.189,0,0,1-.636.161,0.982,0.982,0,0,1-.89-0.434,2.129,2.129,0,0,1-.28-1.167v-0.1Zm5.956-2.715H36.074V41h1.185V35.714Zm0-2.334H36.074v1.04h1.185V33.38Zm1.663,1.05v1.284h-0.8v0.879h0.8v2.92a1.672,1.672,0,0,0,.373,1.2,1.366,1.366,0,0,0,1.027.383,1.974,1.974,0,0,0,.432-0.046,1.361,1.361,0,0,0,.358-0.129l-0.127-.869a1.16,1.16,0,0,1-.176.046,1.046,1.046,0,0,1-.19.017,0.513,0.513,0,0,1-.376-0.139,0.637,0.637,0,0,1-.142-0.466v-2.92h0.946V35.714H40.1V34.43h-1.18Zm6.878-.542H44.615V41h4.512V40.05H45.8V33.888Zm3.99,4.521a2.868,2.868,0,0,0,.646,1.938,2.475,2.475,0,0,0,3.551,0,2.867,2.867,0,0,0,.646-1.941v-0.1a2.871,2.871,0,0,0-.646-1.936,2.467,2.467,0,0,0-3.551,0,2.871,2.871,0,0,0-.646,1.936v0.1Zm1.185-.1a2.328,2.328,0,0,1,.3-1.247,1.015,1.015,0,0,1,.924-0.491,1.035,1.035,0,0,1,.939.491,2.3,2.3,0,0,1,.31,1.247v0.1a2.3,2.3,0,0,1-.31,1.257,1.14,1.14,0,0,1-1.866,0,2.344,2.344,0,0,1-.3-1.26v-0.1Zm4.507,0.225a2.981,2.981,0,0,0,.541,1.86,1.8,1.8,0,0,0,1.512.708,1.768,1.768,0,0,0,.778-0.164,1.658,1.658,0,0,0,.588-0.481V41a1.1,1.1,0,0,1-.3.847,1.353,1.353,0,0,1-.941.276,3.413,3.413,0,0,1-.763-0.085,3,3,0,0,1-.675-0.237l-0.19.933a3.875,3.875,0,0,0,.807.291,3.494,3.494,0,0,0,.832.11,2.607,2.607,0,0,0,1.785-.557A2,2,0,0,0,60.087,41V35.714H59.1l-0.117.688a1.76,1.76,0,0,0-.607-0.583,1.662,1.662,0,0,0-.832-0.2,1.751,1.751,0,0,0-1.522.774,3.487,3.487,0,0,0-.541,2.039v0.1Zm1.18-.1a2.694,2.694,0,0,1,.288-1.331,0.96,0.96,0,0,1,.9-0.51,1.156,1.156,0,0,1,.627.164,1.269,1.269,0,0,1,.427.452v2.315a1.171,1.171,0,0,1-.422.456,1.214,1.214,0,0,1-.642.159,0.988,0.988,0,0,1-.893-0.434,2.115,2.115,0,0,1-.283-1.167v-0.1Zm7.378,1.6a1.192,1.192,0,0,1-.7.181A1.331,1.331,0,0,1,62.575,40a0.791,0.791,0,0,1-.332-0.669h-1.1l-0.01.029a1.49,1.49,0,0,0,.566,1.211,2.362,2.362,0,0,0,1.624.527,2.474,2.474,0,0,0,1.549-.452,1.4,1.4,0,0,0,.588-1.165,1.213,1.213,0,0,0-.493-1.013A3.576,3.576,0,0,0,63.5,37.9a2.3,2.3,0,0,1-.863-0.288,0.515,0.515,0,0,1-.21-0.43,0.611,0.611,0,0,1,.224-0.478,0.968,0.968,0,0,1,.654-0.2,0.954,0.954,0,0,1,.678.237,0.741,0.741,0,0,1,.254.559h1.137l0.01-.029a1.408,1.408,0,0,0-.554-1.169,2.29,2.29,0,0,0-1.524-.486,2.221,2.221,0,0,0-1.478.471,1.435,1.435,0,0,0-.561,1.135,1.183,1.183,0,0,0,.493,1,3.559,3.559,0,0,0,1.424.562,2.4,2.4,0,0,1,.876.32,0.547,0.547,0,0,1,.232.452A0.562,0.562,0,0,1,64.041,40.03Z"/>
    <g id="_1" data-name="1">
      <g id="_1-2" data-name="1">
        <path id="Create" class="cls-4" d="M112.37,56.053a1.355,1.355,0,0,1-.336.989,1.311,1.311,0,0,1-.981.343,1.222,1.222,0,0,1-1.039-.516,2.152,2.152,0,0,1-.382-1.312V54.33a2.16,2.16,0,0,1,.375-1.3,1.191,1.191,0,0,1,1.016-.516,1.366,1.366,0,0,1,1.005.34,1.327,1.327,0,0,1,.342.982h1.018l0.009-.026a1.969,1.969,0,0,0-.622-1.578,2.522,2.522,0,0,0-1.752-.576,2.249,2.249,0,0,0-1.763.758,2.786,2.786,0,0,0-.676,1.927v1.217a2.753,2.753,0,0,0,.685,1.927,2.3,2.3,0,0,0,1.784.754,2.417,2.417,0,0,0,1.72-.6,1.984,1.984,0,0,0,.619-1.562l-0.008-.026H112.37Zm4.388-2.7a1.273,1.273,0,0,0-.151-0.037,0.965,0.965,0,0,0-.178-0.015,1.054,1.054,0,0,0-.643.206,1.521,1.521,0,0,0-.457.571l-0.069-.69H114.3v4.755h1.053v-3.3a0.865,0.865,0,0,1,.318-0.374,0.932,0.932,0,0,1,.513-0.132l0.451,0.018Zm3.578,4.72a2.218,2.218,0,0,0,.711-0.4l-0.342-.7a2.114,2.114,0,0,1-.583.3,2.339,2.339,0,0,1-.743.105,1.028,1.028,0,0,1-.862-0.365,1.573,1.573,0,0,1-.3-0.949l0.009-.022h2.9V55.473a2.41,2.41,0,0,0-.486-1.58,1.741,1.741,0,0,0-1.429-.591,1.856,1.856,0,0,0-1.492.675,2.565,2.565,0,0,0-.579,1.725v0.176a2.48,2.48,0,0,0,.579,1.7,2.024,2.024,0,0,0,1.6.657A2.933,2.933,0,0,0,120.336,58.074Zm-0.465-3.632a1.213,1.213,0,0,1,.21.74v0.084h-1.832l-0.009-.022a1.5,1.5,0,0,1,.307-0.784,0.809,0.809,0,0,1,.659-0.3A0.773,0.773,0,0,1,119.871,54.442Zm5.993,3.7a3.016,3.016,0,0,1-.126-0.53,3.952,3.952,0,0,1-.039-0.565V54.937a1.494,1.494,0,0,0-.5-1.213,1.987,1.987,0,0,0-1.321-.422,2.078,2.078,0,0,0-1.371.435,1.181,1.181,0,0,0-.5,1l0,0.026,1.014,0a0.553,0.553,0,0,1,.212-0.45,0.875,0.875,0,0,1,.572-0.174,0.85,0.85,0,0,1,.621.211,0.783,0.783,0,0,1,.215.584v0.417h-0.819a2.565,2.565,0,0,0-1.512.385,1.246,1.246,0,0,0-.537,1.074,1.4,1.4,0,0,0,.392,1.05,1.544,1.544,0,0,0,1.124.382,1.445,1.445,0,0,0,.793-0.226,1.807,1.807,0,0,0,.567-0.56,2.7,2.7,0,0,0,.05.343q0.038,0.171.093,0.352h1.066Zm-2.857-.925a0.557,0.557,0,0,1-.175-0.433,0.7,0.7,0,0,1,.26-0.543,1.045,1.045,0,0,1,.719-0.231h0.836v0.7a1.014,1.014,0,0,1-.423.462,1.3,1.3,0,0,1-.712.2A0.722,0.722,0,0,1,123.007,57.22Zm4.091-4.986V53.39h-0.714v0.791H127.1v2.628a1.518,1.518,0,0,0,.332,1.083,1.205,1.205,0,0,0,.912.345,1.728,1.728,0,0,0,.383-0.042,1.2,1.2,0,0,0,.319-0.117l-0.113-.782a1.012,1.012,0,0,1-.156.042,0.914,0.914,0,0,1-.169.015,0.452,0.452,0,0,1-.334-0.125,0.582,0.582,0,0,1-.125-0.42V54.181h0.84V53.39h-0.84V52.234H127.1Zm5.745,5.84a2.223,2.223,0,0,0,.71-0.4l-0.342-.7a2.114,2.114,0,0,1-.583.3,2.339,2.339,0,0,1-.743.105,1.028,1.028,0,0,1-.862-0.365,1.573,1.573,0,0,1-.3-0.949l0.009-.022h2.9V55.473a2.41,2.41,0,0,0-.486-1.58,1.741,1.741,0,0,0-1.429-.591,1.856,1.856,0,0,0-1.492.675,2.565,2.565,0,0,0-.579,1.725v0.176a2.48,2.48,0,0,0,.579,1.7,2.025,2.025,0,0,0,1.6.657A2.941,2.941,0,0,0,132.843,58.074Zm-0.466-3.632a1.213,1.213,0,0,1,.21.74v0.084h-1.832l-0.009-.022a1.5,1.5,0,0,1,.307-0.784,0.809,0.809,0,0,1,.659-0.3A0.773,0.773,0,0,1,132.377,54.442Z"/>
      </g>
      <path id="Read" class="cls-5" d="M111.071,76.49a1.006,1.006,0,0,1,.76.29,1.081,1.081,0,0,1,.279.782v0.514a3.983,3.983,0,0,0,.048.615,0.705,0.705,0,0,0,.221.453h1.083v-0.1a0.787,0.787,0,0,1-.23-0.409,2.195,2.195,0,0,1-.069-0.549V77.554a1.812,1.812,0,0,0-.236-0.958,1.338,1.338,0,0,0-.769-0.558,1.746,1.746,0,0,0,.739-0.573,1.447,1.447,0,0,0,.253-0.855,1.7,1.7,0,0,0-.576-1.38,2.465,2.465,0,0,0-1.629-.483h-2.17v6.4h1.052V76.49h1.244ZM109.827,73.6h1.118a1.217,1.217,0,0,1,.871.275,1,1,0,0,1,.286.758,0.929,0.929,0,0,1-.291.751,1.411,1.411,0,0,1-.922.246h-1.062V73.6Zm7.49,5.471a2.218,2.218,0,0,0,.711-0.4l-0.343-.7a2.109,2.109,0,0,1-.582.3,2.343,2.343,0,0,1-.743.106,1.027,1.027,0,0,1-.862-0.365,1.566,1.566,0,0,1-.3-0.949l0.008-.022h2.9V76.473a2.416,2.416,0,0,0-.485-1.58,1.741,1.741,0,0,0-1.429-.591,1.858,1.858,0,0,0-1.493.675,2.569,2.569,0,0,0-.578,1.725v0.176a2.485,2.485,0,0,0,.578,1.7,2.028,2.028,0,0,0,1.605.657A2.937,2.937,0,0,0,117.317,79.074Zm-0.465-3.632a1.213,1.213,0,0,1,.21.74v0.084h-1.833l-0.008-.022a1.5,1.5,0,0,1,.307-0.784,0.809,0.809,0,0,1,.659-0.3A0.774,0.774,0,0,1,116.852,75.442Zm5.993,3.7a3.016,3.016,0,0,1-.126-0.53,3.952,3.952,0,0,1-.039-0.565V75.937a1.5,1.5,0,0,0-.5-1.213,1.99,1.99,0,0,0-1.322-.422,2.082,2.082,0,0,0-1.371.435,1.184,1.184,0,0,0-.5,1l0,0.026,1.013,0a0.554,0.554,0,0,1,.213-0.451,0.874,0.874,0,0,1,.571-0.174,0.85,0.85,0,0,1,.622.211,0.782,0.782,0,0,1,.214.584v0.417h-0.818a2.565,2.565,0,0,0-1.512.385,1.246,1.246,0,0,0-.537,1.074,1.4,1.4,0,0,0,.392,1.05,1.544,1.544,0,0,0,1.124.382,1.447,1.447,0,0,0,.793-0.226,1.829,1.829,0,0,0,.567-0.56,2.53,2.53,0,0,0,.05.343q0.036,0.171.093,0.352h1.066Zm-2.857-.925a0.558,0.558,0,0,1-.176-0.433,0.706,0.706,0,0,1,.26-0.543,1.047,1.047,0,0,1,.719-0.231h0.836v0.7a1.011,1.011,0,0,1-.422.461,1.3,1.3,0,0,1-.713.2A0.721,0.721,0,0,1,119.988,78.22Zm3.6-1.294a2.712,2.712,0,0,0,.481,1.674,1.586,1.586,0,0,0,1.343.637,1.5,1.5,0,0,0,.741-0.178,1.584,1.584,0,0,0,.546-0.516l0.125,0.6h0.854V72.289h-1.053V74.9a1.545,1.545,0,0,0-.522-0.446,1.462,1.462,0,0,0-.682-0.156,1.549,1.549,0,0,0-1.352.7,3.174,3.174,0,0,0-.481,1.835v0.092Zm1.053-.092a2.445,2.445,0,0,1,.256-1.2,0.845,0.845,0,0,1,.792-0.459,1.021,1.021,0,0,1,.555.147,1.116,1.116,0,0,1,.381.411v2.074a1.1,1.1,0,0,1-.379.413,1.046,1.046,0,0,1-.565.145,0.869,0.869,0,0,1-.791-0.391,1.937,1.937,0,0,1-.249-1.05V76.833Z"/>
      <g id="_1_copy_5" data-name="1 copy 5">
        <path id="John_Doe" data-name="John Doe" class="cls-6" d="M59.3,56.224a1.281,1.281,0,0,1-.262.844,0.835,0.835,0,0,1-.674.316,0.961,0.961,0,0,1-.717-0.261,1.108,1.108,0,0,1-.258-0.806H56.376l-0.009.026a1.727,1.727,0,0,0,.524,1.411,2.147,2.147,0,0,0,1.477.483,1.885,1.885,0,0,0,1.984-2.013V51.746H59.3v4.478Zm2.062-.409a2.6,2.6,0,0,0,.574,1.745,2.178,2.178,0,0,0,3.154,0,2.6,2.6,0,0,0,.574-1.747V55.723a2.606,2.606,0,0,0-.574-1.742,2.17,2.17,0,0,0-3.154,0,2.605,2.605,0,0,0-.574,1.742v0.092Zm1.053-.092A2.118,2.118,0,0,1,62.69,54.6a0.9,0.9,0,0,1,.821-0.442,0.916,0.916,0,0,1,.834.442,2.092,2.092,0,0,1,.275,1.123v0.092a2.1,2.1,0,0,1-.275,1.132,1,1,0,0,1-1.657,0,2.134,2.134,0,0,1-.269-1.134V55.723Zm5.207-4.434H66.573v6.855h1.053V54.633a1.07,1.07,0,0,1,.4-0.336,1.317,1.317,0,0,1,.585-0.121,0.792,0.792,0,0,1,.639.253,1.245,1.245,0,0,1,.214.811v2.9H70.52v-2.9a2.186,2.186,0,0,0-.418-1.47,1.466,1.466,0,0,0-1.163-.477,1.515,1.515,0,0,0-.743.185,1.68,1.68,0,0,0-.57.519V51.289Zm3.977,2.1v4.755h1.053v-3.48a1.029,1.029,0,0,1,.394-0.358,1.242,1.242,0,0,1,.585-0.13,0.825,0.825,0,0,1,.641.233,1.16,1.16,0,0,1,.212.787v2.949H75.54V55.187a2.1,2.1,0,0,0-.409-1.428A1.454,1.454,0,0,0,73.99,53.3a1.525,1.525,0,0,0-.786.2,1.687,1.687,0,0,0-.578.569l-0.061-.685H71.6Zm9.435,4.755a2.584,2.584,0,0,0,2.7-2.712V54.462a2.664,2.664,0,0,0-.751-1.956,2.624,2.624,0,0,0-1.952-.76H78.954v6.4h2.084Zm0-5.541a1.5,1.5,0,0,1,1.2.521,1.971,1.971,0,0,1,.446,1.329v0.98a1.984,1.984,0,0,1-.446,1.338,1.5,1.5,0,0,1-1.2.521H80.007V52.6h1.031Zm3.556,3.212a2.6,2.6,0,0,0,.574,1.745,2.178,2.178,0,0,0,3.154,0,2.6,2.6,0,0,0,.574-1.747V55.723a2.606,2.606,0,0,0-.574-1.742,2.17,2.17,0,0,0-3.154,0,2.606,2.606,0,0,0-.574,1.742v0.092Zm1.053-.092a2.118,2.118,0,0,1,.271-1.123,0.9,0.9,0,0,1,.821-0.442,0.916,0.916,0,0,1,.834.442,2.091,2.091,0,0,1,.275,1.123v0.092a2.1,2.1,0,0,1-.275,1.132,1,1,0,0,1-1.657,0,2.133,2.133,0,0,1-.269-1.134V55.723Zm7.174,2.351a2.22,2.22,0,0,0,.71-0.4l-0.342-.7a2.108,2.108,0,0,1-.583.3,2.34,2.34,0,0,1-.743.105A1.028,1.028,0,0,1,91,57.02a1.573,1.573,0,0,1-.3-0.949l0.009-.022h2.9V55.473a2.414,2.414,0,0,0-.485-1.58,1.742,1.742,0,0,0-1.43-.591,1.857,1.857,0,0,0-1.492.675,2.567,2.567,0,0,0-.578,1.725v0.176a2.482,2.482,0,0,0,.578,1.7,2.026,2.026,0,0,0,1.6.657A2.939,2.939,0,0,0,92.82,58.074Zm-0.466-3.632a1.213,1.213,0,0,1,.21.74v0.084H90.732l-0.009-.022a1.5,1.5,0,0,1,.308-0.784,0.808,0.808,0,0,1,.658-0.3A0.773,0.773,0,0,1,92.354,54.442Z"/>
        <path id="_1254" data-name="#1254" class="cls-6" d="M20.741,58.145h0.724l0.329-1.8h1.087V55.649H21.924l0.251-1.376h1.031v-0.7h-0.9l0.338-1.828H21.915l-0.338,1.828h-0.97l0.338-1.828H20.222l-0.338,1.828H18.7v0.7h1.053L19.5,55.649H18.372v0.694h1l-0.329,1.8h0.723l0.329-1.8h0.975Zm-0.264-3.872h0.975L21.2,55.649H20.226Zm6.3-2.619-2.391.228v0.848h1.339v5.414H26.78V51.654Zm6.437,5.638H30.488l-0.009-.022,1.33-1.547a11.591,11.591,0,0,0,.934-1.27,1.945,1.945,0,0,0,.284-1.015,1.716,1.716,0,0,0-.509-1.292,1.95,1.95,0,0,0-1.414-.492,2,2,0,0,0-1.5.569,1.84,1.84,0,0,0-.535,1.391l0.009,0.026h1.018a1.243,1.243,0,0,1,.26-0.809,0.908,0.908,0,0,1,.749-0.321,0.812,0.812,0,0,1,.645.257,0.973,0.973,0,0,1,.225.666,1.605,1.605,0,0,1-.186.716,5.3,5.3,0,0,1-.667.949L29.15,57.411v0.734h4.068V57.292Zm1.98-1.9a0.793,0.793,0,0,1,.305-0.413,1.172,1.172,0,0,1,.643-0.141,0.888,0.888,0,0,1,.754.349,1.5,1.5,0,0,1,.264.925,1.522,1.522,0,0,1-.256.936,0.881,0.881,0,0,1-.749.338,0.969,0.969,0,0,1-.7-0.253,0.92,0.92,0,0,1-.266-0.7l-0.988.031-0.009.022a1.507,1.507,0,0,0,.552,1.3,2.192,2.192,0,0,0,1.406.455,1.933,1.933,0,0,0,1.542-.593,2.267,2.267,0,0,0,.515-1.543,2.323,2.323,0,0,0-.489-1.569,1.688,1.688,0,0,0-1.369-.558,1.761,1.761,0,0,0-1.014.325l0.191-1.63h2.452V51.746H34.66L34.3,55.315Zm7.451-3.643H41.569L38.935,56.07l0.026,0.655H41.6v1.419h1.048V56.725h0.8V55.864h-0.8V51.746ZM41.474,53.5l0.1-.246,0.026,0v2.61H39.962Z"/>
        <path id="_1264" data-name="#1264" class="cls-6" d="M20.741,79.145h0.724l0.329-1.8h1.087V76.649H21.924l0.251-1.376h1.031v-0.7h-0.9l0.338-1.828H21.915l-0.338,1.828h-0.97l0.338-1.828H20.222l-0.338,1.828H18.7v0.7h1.053L19.5,76.649H18.372v0.694h1l-0.329,1.8h0.723l0.329-1.8h0.975Zm-0.264-3.872h0.975L21.2,76.649H20.226Zm6.3-2.619-2.391.228v0.848h1.339v5.414H26.78V72.654Zm6.437,5.638H30.488l-0.009-.022,1.33-1.547a11.591,11.591,0,0,0,.934-1.27,1.945,1.945,0,0,0,.284-1.015,1.716,1.716,0,0,0-.509-1.292,1.95,1.95,0,0,0-1.414-.492,2,2,0,0,0-1.5.569,1.84,1.84,0,0,0-.535,1.391l0.009,0.026h1.018a1.243,1.243,0,0,1,.26-0.809,0.908,0.908,0,0,1,.749-0.321,0.812,0.812,0,0,1,.645.257,0.973,0.973,0,0,1,.225.666,1.605,1.605,0,0,1-.186.716,5.3,5.3,0,0,1-.667.949L29.15,78.411v0.734h4.068V78.292Zm1.566-4.9a2.737,2.737,0,0,0-.665,1.912v1.393a2.708,2.708,0,0,0,.6,1.863,1.963,1.963,0,0,0,1.536.681,1.927,1.927,0,0,0,1.477-.6,2.2,2.2,0,0,0,.559-1.569,2.266,2.266,0,0,0-.466-1.485,1.562,1.562,0,0,0-1.276-.567,2.027,2.027,0,0,0-.777.145,1.808,1.808,0,0,0-.609.4V75.234a2.02,2.02,0,0,1,.353-1.244,1.107,1.107,0,0,1,.929-0.47,2.664,2.664,0,0,1,.6.059,3.594,3.594,0,0,1,.52.165l0.2-.826a3.216,3.216,0,0,0-.615-0.191,3.421,3.421,0,0,0-.71-0.072A2.149,2.149,0,0,0,34.783,73.388Zm2.188,2.791a1.349,1.349,0,0,1,.275.892,1.594,1.594,0,0,1-.262.945,0.841,0.841,0,0,1-.726.369,0.926,0.926,0,0,1-.784-0.435,2.048,2.048,0,0,1-.307-1.2V76.367a1,1,0,0,1,.405-0.38,1.353,1.353,0,0,1,.639-0.138A0.937,0.937,0,0,1,36.971,76.178Zm5.677-3.432H41.569L38.935,77.07l0.026,0.655H41.6v1.419h1.048V77.725h0.8V76.864h-0.8V72.746ZM41.474,74.5l0.1-.246,0.026,0v2.61H39.962Z"/>
        <path id="_1278" data-name="#1278" class="cls-6" d="M20.741,101.145h0.724l0.329-1.8h1.087V98.649H21.924l0.251-1.375h1.031v-0.7h-0.9l0.338-1.828H21.915l-0.338,1.828h-0.97l0.338-1.828H20.222l-0.338,1.828H18.7v0.7h1.053L19.5,98.649H18.372v0.694h1l-0.329,1.8h0.723l0.329-1.8h0.975Zm-0.264-3.872h0.975L21.2,98.649H20.226Zm6.3-2.619-2.391.229v0.848h1.339v5.414H26.78V94.654Zm6.437,5.638H30.488l-0.009-.022,1.33-1.547a11.6,11.6,0,0,0,.934-1.27,1.946,1.946,0,0,0,.284-1.015,1.716,1.716,0,0,0-.509-1.292,1.951,1.951,0,0,0-1.414-.492,2,2,0,0,0-1.5.569,1.84,1.84,0,0,0-.535,1.391l0.009,0.026h1.018a1.243,1.243,0,0,1,.26-0.809,0.909,0.909,0,0,1,.749-0.321,0.812,0.812,0,0,1,.645.257,0.973,0.973,0,0,1,.225.666,1.6,1.6,0,0,1-.186.716,5.291,5.291,0,0,1-.667.949l-1.971,2.312v0.734h4.068v-0.853Zm5.064-5.546h-4.3V95.6h3.279a10.121,10.121,0,0,0-1.466,2.283,6.047,6.047,0,0,0-.5,2.507v0.752H36.34v-0.752a6.632,6.632,0,0,1,.4-2.377,8.949,8.949,0,0,1,1.54-2.413V94.746ZM42.593,95.1a2.039,2.039,0,0,0-1.367-.451,2.18,2.18,0,0,0-1.43.448,1.581,1.581,0,0,0-.546,1.3,1.436,1.436,0,0,0,.264.855,1.71,1.71,0,0,0,.724.574,1.947,1.947,0,0,0-.864.611,1.464,1.464,0,0,0-.318.932,1.666,1.666,0,0,0,.609,1.38,2.434,2.434,0,0,0,1.57.488,2.258,2.258,0,0,0,1.492-.488,1.693,1.693,0,0,0,.587-1.38A1.49,1.49,0,0,0,43,98.438a1.9,1.9,0,0,0-.829-0.611,1.672,1.672,0,0,0,.693-0.574,1.47,1.47,0,0,0,.256-0.855A1.6,1.6,0,0,0,42.593,95.1ZM41.972,100.1a1.015,1.015,0,0,1-.736.287,1.158,1.158,0,0,1-.812-0.287,0.991,0.991,0,0,1-.314-0.767,1.018,1.018,0,0,1,.316-0.771,1.116,1.116,0,0,1,.8-0.3,1,1,0,0,1,.741.3,1.049,1.049,0,0,1,.3.771A1.025,1.025,0,0,1,41.972,100.1Zm-0.137-2.962a0.767,0.767,0,0,1-.6.266,0.9,0.9,0,0,1-.671-0.266,0.954,0.954,0,0,1-.26-0.7,0.864,0.864,0,0,1,.923-0.927,0.79,0.79,0,0,1,.606.257,0.946,0.946,0,0,1,.238.67A1.01,1.01,0,0,1,41.835,97.135Z"/>
        <path id="Shawn" class="cls-6" d="M60.827,78.149a1.391,1.391,0,0,1-.869.24A1.553,1.553,0,0,1,59,78.1a1.014,1.014,0,0,1-.392-0.868H57.6l-0.009.026a1.651,1.651,0,0,0,.693,1.463,2.778,2.778,0,0,0,1.676.519,2.573,2.573,0,0,0,1.616-.475,1.522,1.522,0,0,0,.615-1.27,1.624,1.624,0,0,0-.52-1.241,3.647,3.647,0,0,0-1.512-.767,3.408,3.408,0,0,1-1.048-.455,0.733,0.733,0,0,1-.316-0.609,0.839,0.839,0,0,1,.288-0.659,1.2,1.2,0,0,1,.821-0.255,1.267,1.267,0,0,1,.882.3,1.029,1.029,0,0,1,.331.8h1.014l0.009-.026a1.715,1.715,0,0,0-.591-1.373,2.342,2.342,0,0,0-1.635-.556,2.367,2.367,0,0,0-1.559.5,1.581,1.581,0,0,0-.606,1.274A1.5,1.5,0,0,0,58.3,75.64a4.2,4.2,0,0,0,1.57.749,2.558,2.558,0,0,1,.99.457,0.846,0.846,0,0,1,.279.655A0.776,0.776,0,0,1,60.827,78.149Zm3.372-5.86H63.147v6.856H64.2V75.633a1.07,1.07,0,0,1,.4-0.336,1.318,1.318,0,0,1,.585-0.121,0.792,0.792,0,0,1,.639.253,1.245,1.245,0,0,1,.214.811v2.9h1.053v-2.9a2.186,2.186,0,0,0-.418-1.47,1.466,1.466,0,0,0-1.163-.477,1.516,1.516,0,0,0-.743.185,1.678,1.678,0,0,0-.57.518V72.289Zm7.875,6.856a3.024,3.024,0,0,1-.126-0.53,3.938,3.938,0,0,1-.039-0.565V75.937a1.5,1.5,0,0,0-.5-1.213,1.986,1.986,0,0,0-1.321-.422,2.081,2.081,0,0,0-1.371.435,1.183,1.183,0,0,0-.5,1l0,0.026,1.014,0a0.555,0.555,0,0,1,.212-0.451,0.876,0.876,0,0,1,.572-0.174,0.851,0.851,0,0,1,.622.211,0.783,0.783,0,0,1,.214.584v0.417H70.039a2.565,2.565,0,0,0-1.512.385A1.246,1.246,0,0,0,67.99,77.8a1.4,1.4,0,0,0,.392,1.05,1.545,1.545,0,0,0,1.124.382,1.444,1.444,0,0,0,.793-0.226,1.818,1.818,0,0,0,.568-0.56,2.545,2.545,0,0,0,.05.343q0.037,0.171.093,0.352h1.066Zm-2.857-.925a0.557,0.557,0,0,1-.175-0.433,0.7,0.7,0,0,1,.26-0.543,1.045,1.045,0,0,1,.719-0.231h0.836v0.7a1.012,1.012,0,0,1-.422.461,1.3,1.3,0,0,1-.713.2A0.722,0.722,0,0,1,69.218,78.22Zm6.925-3.83H75.376L74.4,77.69H74.371l-0.7-3.3H72.616L73.9,79.145H74.76L75.739,76h0.026l0.992,3.147h0.862L78.9,74.39H77.849l-0.684,3.344H77.139Zm3.487,0v4.755h1.053V75.664a1.03,1.03,0,0,1,.394-0.358,1.244,1.244,0,0,1,.585-0.13,0.825,0.825,0,0,1,.641.233,1.161,1.161,0,0,1,.212.787v2.949h1.053V76.187a2.1,2.1,0,0,0-.409-1.428,1.454,1.454,0,0,0-1.142-.457,1.525,1.525,0,0,0-.786.2,1.688,1.688,0,0,0-.578.569l-0.061-.686H79.629Z"/>
        <path id="Robinson" class="cls-6" d="M59.11,98.49a1.006,1.006,0,0,1,.76.29,1.08,1.08,0,0,1,.279.782v0.514a4.006,4.006,0,0,0,.048.615,0.709,0.709,0,0,0,.221.453H61.5v-0.1a0.789,0.789,0,0,1-.23-0.409,2.188,2.188,0,0,1-.069-0.549V99.554a1.808,1.808,0,0,0-.236-0.958,1.334,1.334,0,0,0-.769-0.558,1.742,1.742,0,0,0,.739-0.573,1.441,1.441,0,0,0,.253-0.855,1.7,1.7,0,0,0-.576-1.38,2.465,2.465,0,0,0-1.629-.483h-2.17v6.4h1.053V98.49H59.11ZM57.867,95.6h1.118a1.215,1.215,0,0,1,.871.275,1,1,0,0,1,.286.758,0.93,0.93,0,0,1-.29.751,1.414,1.414,0,0,1-.923.246H57.867V95.6Zm4.289,3.212a2.6,2.6,0,0,0,.574,1.744,2.177,2.177,0,0,0,3.154,0,2.6,2.6,0,0,0,.574-1.746V98.723a2.607,2.607,0,0,0-.574-1.742,2.171,2.171,0,0,0-3.154,0,2.605,2.605,0,0,0-.574,1.742v0.092Zm1.053-.092a2.118,2.118,0,0,1,.271-1.123,0.9,0.9,0,0,1,.821-0.442,0.916,0.916,0,0,1,.834.442,2.092,2.092,0,0,1,.275,1.123v0.092a2.1,2.1,0,0,1-.275,1.132,1.006,1.006,0,0,1-1.657,0,2.133,2.133,0,0,1-.268-1.134V98.723Zm8.282,0.11A3.179,3.179,0,0,0,71.012,97a1.553,1.553,0,0,0-1.358-.694,1.471,1.471,0,0,0-.706.163,1.518,1.518,0,0,0-.52.466V94.289H67.375v6.856h0.853l0.126-.629a1.508,1.508,0,0,0,.541.536,1.527,1.527,0,0,0,.767.185,1.592,1.592,0,0,0,1.349-.635,2.715,2.715,0,0,0,.479-1.677V98.833Zm-1.053.092a1.948,1.948,0,0,1-.247,1.053,0.869,0.869,0,0,1-.793.389,1.069,1.069,0,0,1-.6-0.156,1.043,1.043,0,0,1-.373-0.442v-2a1.1,1.1,0,0,1,.375-0.439,1.031,1.031,0,0,1,.587-0.158,0.845,0.845,0,0,1,.8.457,2.486,2.486,0,0,1,.251,1.2v0.092Zm3.084-2.536H72.47v4.755h1.053V96.39Zm0-2.1H72.47v0.936h1.053V94.289Zm1.17,2.1v4.755h1.053V97.664a1.029,1.029,0,0,1,.394-0.358,1.242,1.242,0,0,1,.585-0.13,0.825,0.825,0,0,1,.641.233,1.16,1.16,0,0,1,.212.787v2.949h1.053V98.187a2.1,2.1,0,0,0-.409-1.428,1.453,1.453,0,0,0-1.141-.457,1.526,1.526,0,0,0-.786.2,1.688,1.688,0,0,0-.578.569l-0.061-.686H74.692Zm7.444,3.885a1.05,1.05,0,0,1-.626.162,1.171,1.171,0,0,1-.676-0.189,0.715,0.715,0,0,1-.294-0.6H79.561l-0.009.026a1.347,1.347,0,0,0,.5,1.09,2.077,2.077,0,0,0,1.443.475,2.176,2.176,0,0,0,1.375-.407,1.268,1.268,0,0,0,.522-1.048,1.1,1.1,0,0,0-.437-0.912,3.152,3.152,0,0,0-1.3-.516,2.023,2.023,0,0,1-.767-0.259,0.465,0.465,0,0,1-.186-0.387,0.553,0.553,0,0,1,.2-0.431,0.852,0.852,0,0,1,.581-0.176,0.841,0.841,0,0,1,.6.213,0.671,0.671,0,0,1,.225.5h1.009l0.009-.026a1.274,1.274,0,0,0-.492-1.053,2.017,2.017,0,0,0-1.354-.437,1.956,1.956,0,0,0-1.313.424,1.3,1.3,0,0,0-.5,1.022,1.07,1.07,0,0,0,.438.9,3.139,3.139,0,0,0,1.265.505,2.109,2.109,0,0,1,.778.288,0.494,0.494,0,0,1,.206.407A0.509,0.509,0,0,1,82.136,100.275Zm2.008-1.459a2.6,2.6,0,0,0,.574,1.744,2.177,2.177,0,0,0,3.154,0,2.6,2.6,0,0,0,.574-1.746V98.723a2.606,2.606,0,0,0-.574-1.742,2.171,2.171,0,0,0-3.154,0,2.606,2.606,0,0,0-.574,1.742v0.092Zm1.053-.092a2.118,2.118,0,0,1,.271-1.123,0.9,0.9,0,0,1,.821-0.442,0.916,0.916,0,0,1,.834.442,2.091,2.091,0,0,1,.275,1.123v0.092a2.1,2.1,0,0,1-.275,1.132,1.006,1.006,0,0,1-1.657,0,2.134,2.134,0,0,1-.269-1.134V98.723Zm4.159-2.334v4.755h1.053V97.664a1.029,1.029,0,0,1,.394-0.358,1.242,1.242,0,0,1,.585-0.13,0.825,0.825,0,0,1,.641.233,1.16,1.16,0,0,1,.212.787v2.949h1.053V98.187a2.1,2.1,0,0,0-.409-1.428,1.454,1.454,0,0,0-1.141-.457,1.526,1.526,0,0,0-.786.2,1.688,1.688,0,0,0-.578.569l-0.061-.686H89.355Z"/>
        <path id="Delete" class="cls-7" d="M110.858,101.145a2.583,2.583,0,0,0,2.7-2.712V97.462a2.663,2.663,0,0,0-.751-1.956,2.625,2.625,0,0,0-1.952-.76h-2.083v6.4h2.083Zm0-5.542a1.506,1.506,0,0,1,1.2.521,1.973,1.973,0,0,1,.446,1.329v0.98a1.987,1.987,0,0,1-.446,1.338,1.5,1.5,0,0,1-1.2.521h-1.031V95.6h1.031Zm6.758,5.471a2.209,2.209,0,0,0,.711-0.4l-0.343-.7a2.09,2.09,0,0,1-.582.3,2.353,2.353,0,0,1-.743.105,1.027,1.027,0,0,1-.862-0.364,1.575,1.575,0,0,1-.3-0.95l0.009-.022h2.9V98.473a2.416,2.416,0,0,0-.485-1.58,1.743,1.743,0,0,0-1.43-.591,1.858,1.858,0,0,0-1.492.675,2.569,2.569,0,0,0-.578,1.725v0.176a2.485,2.485,0,0,0,.578,1.7,2.028,2.028,0,0,0,1.605.657A2.926,2.926,0,0,0,117.616,101.074Zm-0.466-3.632a1.213,1.213,0,0,1,.21.74v0.084h-1.832l-0.009-.022a1.506,1.506,0,0,1,.308-0.784,0.809,0.809,0,0,1,.658-0.3A0.772,0.772,0,0,1,117.15,97.442Zm3.225-3.153h-1.052v6.856h1.052V94.289Zm4.185,6.785a2.192,2.192,0,0,0,.71-0.4l-0.342-.7a2.09,2.09,0,0,1-.582.3,2.353,2.353,0,0,1-.743.105,1.027,1.027,0,0,1-.862-0.364,1.575,1.575,0,0,1-.3-0.95l0.009-.022h2.9V98.473a2.416,2.416,0,0,0-.485-1.58,1.743,1.743,0,0,0-1.43-.591,1.858,1.858,0,0,0-1.492.675,2.564,2.564,0,0,0-.578,1.725v0.176a2.48,2.48,0,0,0,.578,1.7,2.028,2.028,0,0,0,1.605.657A2.926,2.926,0,0,0,124.56,101.074Zm-0.466-3.632a1.213,1.213,0,0,1,.21.74v0.084h-1.832l-0.009-.022a1.506,1.506,0,0,1,.308-0.784,0.809,0.809,0,0,1,.658-0.3A0.772,0.772,0,0,1,124.094,97.442Zm2.4-2.208V96.39h-0.714v0.791H126.5v2.628a1.518,1.518,0,0,0,.332,1.083,1.205,1.205,0,0,0,.912.345,1.723,1.723,0,0,0,.383-0.042,1.184,1.184,0,0,0,.318-0.116l-0.112-.782a1.047,1.047,0,0,1-.156.041,0.857,0.857,0,0,1-.169.016,0.451,0.451,0,0,1-.334-0.126,0.576,0.576,0,0,1-.125-0.419V97.181h0.84V96.39h-0.84V95.234H126.5Zm5.744,5.84a2.2,2.2,0,0,0,.711-0.4l-0.342-.7a2.11,2.11,0,0,1-.583.3,2.348,2.348,0,0,1-.743.105,1.028,1.028,0,0,1-.862-0.364,1.568,1.568,0,0,1-.3-0.95l0.008-.022h2.9V98.473a2.41,2.41,0,0,0-.485-1.58,1.741,1.741,0,0,0-1.429-.591,1.858,1.858,0,0,0-1.493.675,2.569,2.569,0,0,0-.578,1.725v0.176a2.485,2.485,0,0,0,.578,1.7,2.028,2.028,0,0,0,1.605.657A2.923,2.923,0,0,0,132.24,101.074Zm-0.465-3.632a1.213,1.213,0,0,1,.21.74v0.084h-1.833l-0.008-.022a1.506,1.506,0,0,1,.307-0.784,0.809,0.809,0,0,1,.659-0.3A0.773,0.773,0,0,1,131.775,97.442Z"/>
      </g>
      <path class="cls-8" d="M20,64H135v1H20V64Zm0,22H135v1H20V86Z"/>
    </g>
  </g>
  <g id="_2" data-name="2">
    <rect id="Rounded_Rectangle_593_copy" data-name="Rounded Rectangle 593 copy" class="cls-2" x="108" y="16" width="53" height="17" rx="5" ry="5"/>
    <path id="Rounded_Rectangle_599" data-name="Rounded Rectangle 599" class="cls-5" d="M131.047,21h22.906a1.047,1.047,0,1,1,0,2.094H131.047A1.047,1.047,0,1,1,131.047,21Zm0,4.906h13.437a1.047,1.047,0,1,1,0,2.094H131.047A1.047,1.047,0,1,1,131.047,25.906Z"/>
    <g>
      <rect id="Rounded_Rectangle_598" data-name="Rounded Rectangle 598" class="cls-9" x="114" y="19" width="10" height="10" rx="2" ry="2"/>
      <path class="cls-10" d="M118.274,26.622a0.738,0.738,0,0,1-1.058,0l-1.569-1.6a0.76,0.76,0,0,1-.22-0.539,0.768,0.768,0,0,1,.22-0.541,0.739,0.739,0,0,1,1.059,0L117.746,25l3.547-3.637a0.738,0.738,0,0,1,1.058,0,0.773,0.773,0,0,1,0,1.08Z"/>
    </g>
  </g>
</svg>
