<svg xmlns="http://www.w3.org/2000/svg" width="108" height="16" viewBox="0 0 108 16">
  <defs>
    <style>
      .cls-1 {
        fill: #fff;
        fill-rule: evenodd;
      }
    </style>
  </defs>
  <path id="F_copy_7" data-name="F copy 7" class="cls-1" d="M0,16H8.648s0.163-.705.222-0.877Zm0.443-1.534H8.87l0.222-.877Zm0.443-1.534H9.313l0.222-.877ZM9.535,11.4L9.757,9.863h6.652l0.665-2.849H10.2l0.665-3.288h7.318L19.292,0H6.431L4.657,11.4H9.535ZM21.9,4.134a2.452,2.452,0,0,0,2.324-1.961A1.6,1.6,0,0,0,22.579.233a2.4,2.4,0,0,0-2.3,1.939A1.6,1.6,0,0,0,21.9,4.134ZM21.731,15.781L23.5,5.041H19.957l-1.774,10.74h3.548Zm7.5,0.208a8.154,8.154,0,0,0,4.748-1.41l-1.108-2.226a5.248,5.248,0,0,1-2.787.9c-1.561,0-2.287-.693-2.368-1.64h7.539l0.222-.877c0.626-3.614-1.277-5.923-4.465-5.923a6.809,6.809,0,0,0-6.674,5.575C23.74,13.852,25.911,15.989,29.233,15.989ZM32.6,9.205H27.94A2.772,2.772,0,0,1,30.6,7.452,1.707,1.707,0,0,1,32.6,9.205Zm7.07,6.784a4.5,4.5,0,0,0,2.687-.647l-0.222-2.63a1.725,1.725,0,0,1-.965.28,0.8,0.8,0,0,1-.749-1.08L42.353,1.1H38.805L36.82,12.86C36.464,14.909,37.481,15.989,39.666,15.989Zm14.218-.208L56.545,1.1H53.218L52.331,5.479a4.41,4.41,0,0,0-3.082-.663c-2.7,0-5.112,2.093-5.715,5.575-0.626,3.614,1.125,5.6,3.778,5.6a4.756,4.756,0,0,0,3.245-.866v0.658h3.326Zm-4.937-2.789c-1.36,0-2.187-1.014-1.912-2.6a2.9,2.9,0,0,1,2.81-2.578,2.333,2.333,0,0,1,1.909.948l-0.565,3.261A3.417,3.417,0,0,1,48.946,12.992Zm14.029,2.789,1.774-11.4h4.213L69.628,1.1h-12.2L56.766,4.384H60.98l-2,11.4h3.991ZM72.467,4.134a2.452,2.452,0,0,0,2.324-1.961A1.6,1.6,0,0,0,73.143.233a2.4,2.4,0,0,0-2.3,1.939A1.6,1.6,0,0,0,72.467,4.134ZM72.289,15.781l1.774-10.74H70.515l-1.774,10.74h3.548ZM78.7,15.989a4.41,4.41,0,0,0,2.675-.647l-0.222-2.63a1.6,1.6,0,0,1-.931.28,0.8,0.8,0,0,1-.749-1.08l0.571-3.8h2.218l0.665-3.069H80.715l0.444-2.849H77.61L77.167,5.041H75.393L74.949,8.11h1.774l-0.842,4.75C75.526,14.909,76.52,15.989,78.7,15.989Zm14.649-.208,1.774-10.74H91.8L91.58,5.7a3.768,3.768,0,0,0-2.936-.882c-2.7,0-5.111,2.093-5.715,5.575-0.627,3.614,1.125,5.6,3.778,5.6a5.091,5.091,0,0,0,3.32-.866v0.658h3.326Zm-5.012-2.789c-1.36,0-2.187-1.014-1.912-2.6a2.875,2.875,0,0,1,2.806-2.556,2.3,2.3,0,0,1,1.9.931l-0.444,3.288A3.656,3.656,0,0,1,88.342,12.992Zm18.317,2.789L107.9,8.188c0.34-1.961-.53-3.372-2.96-3.372a6.641,6.641,0,0,0-3.826.882V5.041H97.789l-2,10.74h3.548l1.331-6.575c0.485-.485,1.074-1.392,2.1-1.392a1.3,1.3,0,0,1,1.456,1.763l-1.116,6.2h3.548Z"/>
</svg>
