<svg id="icon" xmlns="http://www.w3.org/2000/svg" width="181" height="144" viewBox="0 0 181 144">
  <defs>
    <style>
      .cls-1 {
        fill: #eef3fe;
      }

      .cls-1, .cls-10, .cls-11, .cls-13, .cls-2, .cls-3, .cls-4, .cls-5, .cls-6, .cls-7, .cls-8, .cls-9 {
        fill-rule: evenodd;
      }

      .cls-2 {
        fill: #b5ccfa;
      }

      .cls-3 {
        fill: #5387ff;
      }

      .cls-4 {
        fill: #f8eccd;
      }

      .cls-5 {
        fill: #193151;
      }

      .cls-6 {
        fill: #8388e4;
      }

      .cls-7 {
        fill: #fbe3c5;
      }

      .cls-12, .cls-8 {
        fill: #fff;
        stroke-linejoin: round;
      }

      .cls-8 {
        stroke: #ee8d26;
        stroke-width: 3px;
      }

      .cls-9 {
        fill: #ee8d26;
      }

      .cls-10 {
        fill: #4278f2;
      }

      .cls-11 {
        fill: #757adb;
      }

      .cls-12 {
        stroke: #e3e3e3;
        stroke-width: 1px;
      }

      .cls-13 {
        fill: #212121;
      }
    </style>
  </defs>
  <path class="cls-1" d="M18,98.019c0.518-12.348,3.106-22.638,28.987-30.87S80.739,55.287,93.68,47.569c10.426-6.395,42.473-5.832,57.974,15.435,10.784,14.8,10.007,34.037-2.07,47.334-10.26,11.3-31.5,20.432-52.8,24.7-21.692,4.344-37.893,1.057-53.939-5.117S17.655,112.768,18,98.019Z"/>
  <g id="icon-2" data-name="icon">
    <g id="_1" data-name="1">
      <path class="cls-2" d="M124.725,80.588a29.432,29.432,0,0,0-1-7.181,52.5,52.5,0,0,0-12.735,1.055c-3.946.8-6.407,1.664-6.436,5.954-0.052,7.895-1.93,14.619-3.259,22.208-0.772,4.41.562,8.354,2.041,12.438,1.692,4.674,1.481,9.109,2.662,13.938,1.368-.008,3.632.008,5,0,1.35-6.088.347-16.108,0.462-22.343a44.613,44.613,0,0,1,.966-9.076s0.077,0.217.084,0.254c0.109,0.6.222,1.159,0.333,1.67,0.954,4.374,4.681,10.116,7.595,13.332,3.334,3.681,5.47,8.941,8.39,12.959,1.262-.527,1.908-1.268,3.192-2.813-1.041-6.831-3.366-10.685-5.622-16.368a36.273,36.273,0,0,1-2.9-12.677,41.487,41.487,0,0,1,.771-6.268c0.258-1.941.336-3.918,0.487-5.883Z"/>
      <path class="cls-3" d="M104.324,79.793c0.219-7.89.84-28.452,4.8-32.406,2.022-2,8.907-2.4,11.439-.84a4.825,4.825,0,0,1,.416.29,10.922,10.922,0,0,1,1.237,1.189l1.051,1.123c1.214,1.3,1.562,3.317,2.334,4.872,4.158,8.38-1.055,29.783-1.055,29.783l-20.022-2.04S104.313,80.194,104.324,79.793Z"/>
      <path class="cls-4" d="M87.725,52.788a4.828,4.828,0,0,1-.922-2.408c-0.032-.542-0.9-0.525-1.3-0.861a5.069,5.069,0,0,1-1.086-1.325c-0.49-.9-0.047-1.86.258-2.738a1.1,1.1,0,0,1,.285-0.514,1.573,1.573,0,0,1,.93-0.317,3.045,3.045,0,0,1,.6-0.024,0.76,0.76,0,0,1,.212.035,5.563,5.563,0,0,1,1.315,1.1c0.233,0.172.927-.1,0.893,0.511-0.013.224-.121,0.769-0.153,1.246-0.046.7,0.756,1.427,1.173,2.1,1.64,2.631,1.4,2,1.4,2l-2.6,2-0.4.2Z"/>
      <path class="cls-5" d="M106.466,128L110,128h1v4l-9.618,1h0a1.78,1.78,0,0,1,1.052-2.822l0.439-.133Z"/>
      <path class="cls-3" d="M102.2,60.352a25.692,25.692,0,0,1-5.045.1,5.774,5.774,0,0,1-1.732-.343,6.591,6.591,0,0,1-2.151-1.7c-2.284-2.4-3.985-3.216-5.751-6.017L90,50.912a0.726,0.726,0,0,1,1.1.162c1.448,1.413,2.3,1.227,3.744,2.64a1.645,1.645,0,0,0,.784.513,1.526,1.526,0,0,0,.7-0.08c3.971-1.143,7.513-4.06,11.085-6.059a14.184,14.184,0,0,1,5.622-2.159,4.569,4.569,0,0,1,3.678,7.834A25.311,25.311,0,0,1,102.2,60.352Z"/>
      <path class="cls-4" d="M119.344,46.579c2.919-1.623,7.58-11.464.033-13.628-7.986-1.546-6.5,9.409-6,12.453C113.476,47.239,115.064,49.538,119.344,46.579Z"/>
      <path class="cls-5" d="M120.956,33.541a8.727,8.727,0,0,1-3.6,2.05c-1.027.366-2.111,0.606-3.138,0.976-0.048,0-.042.063-0.04,0.074a25.246,25.246,0,0,0-.522,5.552c-3.06.952-5.123-8.9-1.53-12.606,1.562-2.025,11.168-5.979,13.55,4.453a7.744,7.744,0,0,1-4,8.214c-0.713.358-1.725,0.532-2.188-.117a18.95,18.95,0,0,0,1.885-5.349,15.668,15.668,0,0,0-.361-3.476S121.506,32.9,120.956,33.541Z"/>
      <path class="cls-5" d="M127.754,122.909a5.394,5.394,0,0,1,.442-0.384c0.335-.284,2.967-1.869,3.647-1.087A0.962,0.962,0,0,1,132,122a31.463,31.463,0,0,1-1.71,6.748c-0.375.952-.924,2-1.871,2.2a2.6,2.6,0,0,1-1.249-.133,12.428,12.428,0,0,1-1.757-.665,0.992,0.992,0,0,1-.528-0.434,0.982,0.982,0,0,1,.622-1.134,2.2,2.2,0,0,0,1.128-.782,1.788,1.788,0,0,0,.143-0.635C126.938,125.546,126.756,123.979,127.754,122.909Z"/>
    </g>
    <g id="_2" data-name="2">
      <path class="cls-2" d="M50.023,81.088C49.019,93.576,55,131,55,131h5c0.864-1.289,1.125-16.719,1.125-16.719,0.079-2.3,1.941-6.364,1.941-6.364C63.136,107.49,64,105,64,105l1.085,1.93c-0.07,1.413,1.335,8.178,1.335,8.178C66.477,118.411,68,130,68,130c0.613,0.019,6,0,6,0l2.264-54.2Z"/>
      <path class="cls-6" d="M50.228,59.57a27.748,27.748,0,0,1,4-7.433c0.812-1.071,1.844-1.966,2.671-3l0.07-.089a6.078,6.078,0,0,1,2.916-2.39l0.147-.047c0.15-.045,1.673-0.565,1.83-0.57a6.218,6.218,0,0,0,3.6,2.64c3.939-.614,4.32-3.36,4.32-3.36a13.613,13.613,0,0,1,2.331,1.506,9.261,9.261,0,0,1,.951,1.2,22.515,22.515,0,0,1,1.428,2.541c1.166,2.313.152,4.663-.422,7.323,0.354,21.838-1.792,18.63-1.01,24.126-0.191.263-23.2,4.95-23.2,4.95S48.141,68.9,50.228,59.57Z"/>
      <path class="cls-7" d="M86.991,49.688,92.584,38.36a39.256,39.256,0,0,1-.72-4.08,14.42,14.42,0,0,0-.728-2.607,3.807,3.807,0,0,1,.171-1.515,5.215,5.215,0,0,0-.119-1.758c-0.265-1.018-1.272-1.419-2.117-1.856a1.123,1.123,0,0,0-.574-0.181,1.623,1.623,0,0,0-.919.424,3.153,3.153,0,0,0-.464.406,0.79,0.79,0,0,0-.134.176,5.756,5.756,0,0,0-.211,1.752c-0.054.294-.76,0.587-0.308,1.015,0.167,0.158.63,0.487,0.989,0.82a3.74,3.74,0,0,1,1,2.212,48.4,48.4,0,0,1,.294,5.193h3.84Z"/>
      <path class="cls-6" d="M87.014,51.641c1.474-1.044,2.852-2.217,4.288-3.385a1.715,1.715,0,0,0,.835-1.606,83.963,83.963,0,0,0-.255-12.13l-3.846.3-0.119,5.741a3.286,3.286,0,0,1-.332,1.67,3.259,3.259,0,0,1-1.522,1.1,11.574,11.574,0,0,1-5.185.9,34.153,34.153,0,0,0-9.654,1.328c-0.6.182-1.008,1.55-1.277,2.115a2.373,2.373,0,0,0-.154,1.018,14.109,14.109,0,0,0,.094,3.837c0.272,1.242,1.017,3.52,2.252,4.165,1.193,0.623,3.286-.027,4.544-0.306a34.408,34.408,0,0,0,7.872-3.209A23.463,23.463,0,0,0,87.014,51.641Z"/>
      <path class="cls-7" d="M70.744,42.68c-0.289.632-.9,0.831-1.2,1.44-0.289.593,0.513,2.627,0.172,3.212-0.462.8-1.184,1.216-4.012,1.348-2.787.125-3.845-2.638-4.119-3.79-1.022-4.307-1.688-11.145,3.221-12.724C70.174,30.44,72.476,38.893,70.744,42.68Z"/>
      <path class="cls-5" d="M68.387,33.822a2.239,2.239,0,0,1,1.342.852,4.311,4.311,0,0,1,.95,1.333c0.3-1.59.9-3.5-1.119-4.863-9.074-5.389-14.9,4.258-10.619,10.778A11.31,11.31,0,0,0,61.175,45.6a0.59,0.59,0,0,0,.768.224,5.194,5.194,0,0,1,.47-3.511,0.854,0.854,0,0,0,.124-0.881c-0.332-.415-1.035.154-1.578,0.065-0.6-.1-0.648-1-0.194-1.409a2.69,2.69,0,0,1,1.739-.486c0.062,0,.681-2.742.839-3.041A5.086,5.086,0,0,1,68.387,33.822ZM57.193,30.781"/>
      <path id="Shape_709_copy" data-name="Shape 709 copy" class="cls-5" d="M73,130H68v4l9.618,1h0a1.78,1.78,0,0,0-1.052-2.822l-0.439-.133Z"/>
      <path id="Shape_709_copy_2" data-name="Shape 709 copy 2" class="cls-5" d="M59.534,131L56,131H55v4l9.618,1h0a1.78,1.78,0,0,0-1.052-2.822l-0.439-.133Z"/>
    </g>
    <g id="clock">
      <path id="Forma_1" data-name="Forma 1" class="cls-8" d="M90.49,61.346A27.154,27.154,0,1,1,71.3,69.3,27.154,27.154,0,0,1,90.49,61.346h0Z"/>
      <path id="Forma_1_copy_5" data-name="Forma 1 copy 5" class="cls-9" d="M105.25,88.252a1.872,1.872,0,0,1,0,3.736H88.737a1.756,1.756,0,0,1-1.519-.946l-0.025-.026h0l-0.025-.053h0V90.935h0l-0.025-.053h0l-0.025-.053h0V90.8h0l-0.025-.053h0l-0.025-.026h0V90.67h0l-0.025-.053h0V90.591h0l-0.025-.053h0V90.484h0V90.431L86.992,90.4h0V90.352h0V90.3h0V90.252h0V90.226h0V90.173h0V90.12h0V71.842A1.783,1.783,0,0,1,88.736,70,1.8,1.8,0,0,1,90.5,71.842v16.41H105.25Z"/>
    </g>
    <g id="Hand">
      <path class="cls-4" d="M117.272,82.775a0.77,0.77,0,0,1-.107-0.187,5.661,5.661,0,0,1,.016-1.722c-0.015-.291-0.657-0.665-0.169-1.021a2.319,2.319,0,0,1,1.053-.668c1.089-.119,4.467-5,3.935-6.176-0.618-1.363.9-6.484,2.8-6.274,4.095,0.453-1.026,11.6-2.6,12.366-0.436.211-.052,0.8-0.076,1.295a7.167,7.167,0,0,1-.787,1.736c-0.382.952-1.4,1.212-2.266,1.529a1.083,1.083,0,0,1-.575.1,1.579,1.579,0,0,1-.83-0.527A3.082,3.082,0,0,1,117.272,82.775Z"/>
      <path class="cls-10" d="M125,76c0-.06.239-0.291,0.258-0.365,1.187-4.75,3.5-7.566,2.485-16.556a19.536,19.536,0,0,0-2.34-7.153c-0.248-.369-0.414-0.691-0.569-0.906-0.309-.426-0.575-0.432-1.358.437C122.462,59.982,120.761,76.951,121,74v2h4Z"/>
    </g>
    <g id="Hand-2">
      <path class="cls-7" d="M55.464,75.4c0.65,0.853,3.9,4.888,4.68,5.64a4.793,4.793,0,0,0,2.146,1.354c0.48,0.069,1.044.074,1.269,0.109,0.61,0.093.2,0.733,0.32,1a5.7,5.7,0,0,1,.814,1.55,0.776,0.776,0,0,1-.01.22,3.149,3.149,0,0,1-.15.595,1.621,1.621,0,0,1-.511.867,1.116,1.116,0,0,1-.57.178c-0.936.122-1.984,0.365-2.774-.316a9.6,9.6,0,0,1-1.254-1.24,4.177,4.177,0,0,0-1.2-1.44c-0.927-.7-4.8-4.1-5.64-4.92C50.864,77.3,54.1,73.609,55.464,75.4Z"/>
      <path class="cls-11" d="M56.652,48.372A25.08,25.08,0,0,0,48,59.117c-0.806,1.922-2.151,3.442-2.521,5.568A11.264,11.264,0,0,0,46.3,71.04C47.788,74.463,53.052,80.713,56,83c0.662-1,1.36-1.926,2-3,0,0,0-2,0-2-0.944-1.706-4.3-6.236-5.242-7.941a2.885,2.885,0,0,1-.427-1.113c-0.1-1.112,1.06-1.973,1.226-3.063l0.324,0.261c-0.1-.081,6.157-6.778,6.516-7.189a17.371,17.371,0,0,0,3.367-5.208C65.416,49.336,60.858,45.437,56.652,48.372Z"/>
    </g>
    <rect id="Rounded_Rectangle_599" data-name="Rounded Rectangle 599" class="cls-12" x="65" y="7" width="54" height="20" rx="2" ry="2"/>
    <path id="_9:00-5:00" data-name="9:00-5:00" class="cls-13" d="M74.168,14.294a1.772,1.772,0,0,0-.742-0.935,2.366,2.366,0,0,0-1.284-.331,2.3,2.3,0,0,0-1.2.3,1.768,1.768,0,0,0-.731.852,2.485,2.485,0,0,0-.2,1.042,2.511,2.511,0,0,0,.286,1.237,1.809,1.809,0,0,0,1.719.915,1.678,1.678,0,0,0,1.269-.458,0.044,0.044,0,0,1,.041-0.015,0.03,0.03,0,0,1,.02.034v1.208a0.962,0.962,0,0,1-.312.75,1.165,1.165,0,0,1-.813.282,1.089,1.089,0,0,1-.767-0.273,0.92,0.92,0,0,1-.3-0.711v-0.1Q71.151,18,71,18H70.322a0.157,0.157,0,0,0-.112.039,0.141,0.141,0,0,0-.041.107V18.3a1.555,1.555,0,0,0,.256.881,1.687,1.687,0,0,0,.721.6,2.533,2.533,0,0,0,1.069.214,2.33,2.33,0,0,0,1.524-.477,1.564,1.564,0,0,0,.583-1.276v-3a2.681,2.681,0,0,0-.153-0.945h0ZM73.176,16a0.968,0.968,0,0,1-.389.433,1.186,1.186,0,0,1-.614.151,1.041,1.041,0,0,1-1-.565,1.553,1.553,0,0,1-.184-0.8,1.646,1.646,0,0,1,.153-0.75,1.02,1.02,0,0,1,1.023-.623,1.225,1.225,0,0,1,.644.161,0.986,0.986,0,0,1,.4.472,1.619,1.619,0,0,1,.133.691,1.825,1.825,0,0,1-.164.828h0Zm3.509,0.565a0.751,0.751,0,0,0,.532-0.2,0.634,0.634,0,0,0,.215-0.482,0.6,0.6,0,0,0-.225-0.467,0.774,0.774,0,0,0-.522-0.195,0.76,0.76,0,0,0-.511.195,0.6,0.6,0,0,0-.225.467,0.641,0.641,0,0,0,.21.482,0.733,0.733,0,0,0,.527.2h0Zm0,3.243a0.751,0.751,0,0,0,.532-0.2,0.634,0.634,0,0,0,.215-0.482,0.6,0.6,0,0,0-.225-0.467,0.774,0.774,0,0,0-.522-0.195,0.76,0.76,0,0,0-.511.195,0.6,0.6,0,0,0-.225.467,0.641,0.641,0,0,0,.21.482,0.733,0.733,0,0,0,.527.2h0Zm4.665,0.2A2.368,2.368,0,0,0,83,19.45a1.929,1.929,0,0,0,.619-1.5V15.063a1.914,1.914,0,0,0-.619-1.5,2.382,2.382,0,0,0-1.652-.555,2.343,2.343,0,0,0-1.642.555,1.93,1.93,0,0,0-.609,1.5v2.883a1.945,1.945,0,0,0,.609,1.5,2.33,2.33,0,0,0,1.642.56h0Zm0-.808a1.29,1.29,0,0,1-.921-0.326A1.137,1.137,0,0,1,80.081,18v-2.98a1.138,1.138,0,0,1,.348-0.872,1.291,1.291,0,0,1,.921-0.326,1.321,1.321,0,0,1,.941.326,1.139,1.139,0,0,1,.348.872V18a1.138,1.138,0,0,1-.348.872,1.32,1.32,0,0,1-.941.326h0Zm5.79,0.808a2.368,2.368,0,0,0,1.652-.56,1.929,1.929,0,0,0,.619-1.5V15.063a1.914,1.914,0,0,0-.619-1.5,2.382,2.382,0,0,0-1.652-.555,2.343,2.343,0,0,0-1.642.555,1.93,1.93,0,0,0-.609,1.5v2.883a1.945,1.945,0,0,0,.609,1.5,2.33,2.33,0,0,0,1.642.56h0Zm0-.808a1.291,1.291,0,0,1-.921-0.326A1.138,1.138,0,0,1,85.871,18v-2.98a1.138,1.138,0,0,1,.348-0.872,1.291,1.291,0,0,1,.921-0.326,1.321,1.321,0,0,1,.941.326,1.139,1.139,0,0,1,.348.872V18a1.138,1.138,0,0,1-.348.872,1.32,1.32,0,0,1-.941.326h0Zm3.417-1.86h3.059a0.156,0.156,0,0,0,.112-0.039,0.141,0.141,0,0,0,.041-0.107V16.68a0.141,0.141,0,0,0-.041-0.107,0.157,0.157,0,0,0-.112-0.039H90.556a0.157,0.157,0,0,0-.113.039,0.141,0.141,0,0,0-.041.107V17.2a0.14,0.14,0,0,0,.041.107,0.156,0.156,0,0,0,.113.039h0Zm8.368-.448a1.642,1.642,0,0,0-.691-0.954A2.188,2.188,0,0,0,97,15.6a1.9,1.9,0,0,0-1.238.4q-0.061.039-.061-0.029l0.01-2.016a0.044,0.044,0,0,1,.051-0.049h2.844a0.157,0.157,0,0,0,.113-0.039,0.141,0.141,0,0,0,.041-0.107V13.242a0.141,0.141,0,0,0-.041-0.107,0.157,0.157,0,0,0-.113-0.039H94.884a0.157,0.157,0,0,0-.113.039,0.141,0.141,0,0,0-.041.107v3.7a0.14,0.14,0,0,0,.041.107,0.156,0.156,0,0,0,.113.039H95.61a0.2,0.2,0,0,0,.184-0.117,0.835,0.835,0,0,1,.414-0.414,1.5,1.5,0,0,1,.66-0.141,1.291,1.291,0,0,1,.736.2,0.853,0.853,0,0,1,.368.57,2.045,2.045,0,0,1,.061.614,1.5,1.5,0,0,1-.082.545,1.057,1.057,0,0,1-.379.6,1.111,1.111,0,0,1-.706.224,1.146,1.146,0,0,1-.7-0.209,1.031,1.031,0,0,1-.389-0.57,0.616,0.616,0,0,1-.041-0.156,0.155,0.155,0,0,0-.164-0.136h-0.7a0.129,0.129,0,0,0-.154.136v0.02a3.479,3.479,0,0,0,.113.419,1.86,1.86,0,0,0,.747.954,2.272,2.272,0,0,0,1.279.351,2.3,2.3,0,0,0,1.3-.365,1.8,1.8,0,0,0,.742-0.988,2.807,2.807,0,0,0,.123-0.847,3.476,3.476,0,0,0-.112-0.886h0Zm2.343-.331a0.752,0.752,0,0,0,.532-0.2,0.635,0.635,0,0,0,.215-0.482,0.6,0.6,0,0,0-.225-0.467,0.774,0.774,0,0,0-.522-0.195,0.761,0.761,0,0,0-.512.195,0.6,0.6,0,0,0-.225.467,0.641,0.641,0,0,0,.21.482,0.735,0.735,0,0,0,.527.2h0Zm0,3.243a0.752,0.752,0,0,0,.532-0.2,0.635,0.635,0,0,0,.215-0.482,0.6,0.6,0,0,0-.225-0.467,0.774,0.774,0,0,0-.522-0.195,0.761,0.761,0,0,0-.512.195,0.6,0.6,0,0,0-.225.467,0.641,0.641,0,0,0,.21.482,0.735,0.735,0,0,0,.527.2h0Zm4.665,0.2a2.368,2.368,0,0,0,1.652-.56,1.931,1.931,0,0,0,.619-1.5V15.063a1.916,1.916,0,0,0-.619-1.5,2.382,2.382,0,0,0-1.652-.555,2.343,2.343,0,0,0-1.642.555,1.929,1.929,0,0,0-.609,1.5v2.883a1.944,1.944,0,0,0,.609,1.5,2.33,2.33,0,0,0,1.642.56h0Zm0-.808a1.292,1.292,0,0,1-.921-0.326A1.138,1.138,0,0,1,104.663,18v-2.98a1.138,1.138,0,0,1,.348-0.872,1.292,1.292,0,0,1,.921-0.326,1.321,1.321,0,0,1,.941.326,1.138,1.138,0,0,1,.348.872V18a1.138,1.138,0,0,1-.348.872,1.321,1.321,0,0,1-.941.326h0Zm5.79,0.808a2.368,2.368,0,0,0,1.652-.56,1.928,1.928,0,0,0,.619-1.5V15.063a1.913,1.913,0,0,0-.619-1.5,2.382,2.382,0,0,0-1.652-.555,2.343,2.343,0,0,0-1.642.555,1.929,1.929,0,0,0-.609,1.5v2.883a1.944,1.944,0,0,0,.609,1.5,2.33,2.33,0,0,0,1.642.56h0Zm0-.808a1.292,1.292,0,0,1-.921-0.326A1.138,1.138,0,0,1,110.453,18v-2.98a1.138,1.138,0,0,1,.348-0.872,1.292,1.292,0,0,1,.921-0.326,1.321,1.321,0,0,1,.941.326,1.138,1.138,0,0,1,.348.872V18a1.138,1.138,0,0,1-.348.872,1.321,1.321,0,0,1-.941.326h0Z"/>
  </g>
</svg>
