<svg id="dark" xmlns="http://www.w3.org/2000/svg" width="109" height="220" viewBox="0 0 109 220">
  <metadata><?xpacket begin="﻿" id="W5M0MpCehiHzreSzNTczkc9d"?>
<x:xmpmeta xmlns:x="adobe:ns:meta/" x:xmptk="Adobe XMP Core 5.6-c142 79.160924, 2017/07/13-01:06:39        ">
   <rdf:RDF xmlns:rdf="http://www.w3.org/1999/02/22-rdf-syntax-ns#">
      <rdf:Description rdf:about=""/>
   </rdf:RDF>
</x:xmpmeta>
                                                                                                    
                                                                                                    
                                                                                                    
                                                                                                    
                                                                                                    
                                                                                                    
                                                                                                    
                                                                                                    
                                                                                                    
                                                                                                    
                                                                                                    
                                                                                                    
                                                                                                    
                                                                                                    
                                                                                                    
                                                                                                    
                                                                                                    
                                                                                                    
                                                                                                    
                                                                                                    
                           
<?xpacket end="w"?></metadata>
<defs>
    <style>
      .cls-1 {
        fill: #343434;
        fill-rule: evenodd;
      }
    </style>
  </defs>
  <g>
    <path class="cls-1" d="M16,2V3c0,0.816-.162,2-1,2H13c-0.839,0-1-1.184-1-2V2H8V3c0,0.816-.162,2-1,2H5C4.161,5,4,3.816,4,3V2A0.847,0.847,0,0,0,3,3V13.653A1.364,1.364,0,0,0,4.375,15h11.25A1.365,1.365,0,0,0,17,13.653V3A0.847,0.847,0,0,0,16,2ZM5,3A0.994,0.994,0,0,0,6,4,1.106,1.106,0,0,0,7,3c0.027-.916.006-0.1,0-2H5C5.018,2.233,5,3,5,3Zm8,0a1.043,1.043,0,0,0,1,1,0.836,0.836,0,0,0,1-1s-0.012-.636,0-2H13V3h0ZM7,11.385a0.376,0.376,0,0,0-.378-0.371H5.365a0.376,0.376,0,0,0-.378.371v1.237a0.376,0.376,0,0,0,.378.371H6.626A0.376,0.376,0,0,0,7,12.621V11.385Zm0-4.01A0.378,0.378,0,0,0,6.626,7H5.365a0.378,0.378,0,0,0-.378.376V8.629a0.378,0.378,0,0,0,.378.376H6.626A0.378,0.378,0,0,0,7,8.629V7.374Zm4,4.01a0.376,0.376,0,0,0-.378-0.371H9.37a0.376,0.376,0,0,0-.378.371v1.237a0.376,0.376,0,0,0,.378.371H10.63a0.376,0.376,0,0,0,.378-0.371V11.385Zm0-4.01A0.379,0.379,0,0,0,10.63,7H9.37a0.378,0.378,0,0,0-.378.376V8.629a0.378,0.378,0,0,0,.378.376H10.63a0.379,0.379,0,0,0,.378-0.376V7.374Zm4,4.01a0.376,0.376,0,0,0-.378-0.371H13.374a0.376,0.376,0,0,0-.378.371v1.237a0.376,0.376,0,0,0,.378.371h1.261a0.376,0.376,0,0,0,.378-0.371V11.385Zm0-4.01A0.378,0.378,0,0,0,14.634,7H13.374A0.378,0.378,0,0,0,13,7.374V8.629a0.378,0.378,0,0,0,.378.376h1.261a0.378,0.378,0,0,0,.378-0.376V7.374Z"/>
    <path id="Forma_1" data-name="Forma 1" class="cls-1" d="M9.5,26.507c1.484,0,2.639-1.576,2.639-3.207V22.789a2.643,2.643,0,1,0-5.278,0V23.3C6.865,24.931,8.019,26.507,9.5,26.507Zm-5.287.528A1.831,1.831,0,0,0,5.8,25.3V24.435A1.611,1.611,0,0,0,4.217,22.7a1.625,1.625,0,0,0-1.586,1.733V25.3A1.851,1.851,0,0,0,4.217,27.035Zm9.15,2.163h0a3.423,3.423,0,0,0-1.136-.978,1.233,1.233,0,0,0-.611-0.249,1.692,1.692,0,0,0-.976.635h0l-0.39.367a1.631,1.631,0,0,1-.749.313,1.635,1.635,0,0,1-.75-0.312l-0.39-.367h0a1.692,1.692,0,0,0-.976-0.635,1.132,1.132,0,0,0-.611.249,4,4,0,0,0-1.135.977h0l0,0c0.233-.33-0.886.617-0.838,2.871C4.8,32.842,4.966,33,5.741,33h7.526c0.781,0,.941-0.142.941-0.928C14.269,29.2,12.954,28.616,13.367,29.2ZM14.8,27.035A1.831,1.831,0,0,0,16.385,25.3V24.435a1.592,1.592,0,1,0-3.172,0V25.3A1.851,1.851,0,0,0,14.8,27.035ZM1.978,28.357a1.862,1.862,0,0,0-.941,1.935c0,0.009,0,1.075,0,1.083a1.475,1.475,0,0,0,1.424,1.637,1.238,1.238,0,0,0,1.4-.94V29.286l-0.177-.619A1.534,1.534,0,0,0,1.978,28.357ZM17.97,30.292a1.862,1.862,0,0,0-.94-1.935,2.144,2.144,0,0,0-1.567.314,1.333,1.333,0,0,0-.315.614v2.786c-0.025,0-.106.9,1.439,0.906,1.4,0.006,1.382-.3,1.384-0.906C17.971,32.063,17.97,30.3,17.97,30.292Zm-3.175-1.083c0-.257-0.012.01,0,0h0Z"/>
    <path id="Forma_1_copy_16" data-name="Forma 1 copy 16" class="cls-1" d="M8.366,45.78a0.606,0.606,0,0,0-.243.081,2.073,2.073,0,0,0-.149.155,0.749,0.749,0,0,1-.28.236h0a0.77,0.77,0,0,1-.286-0.242,1.874,1.874,0,0,0-.144-0.15,0.329,0.329,0,0,0-.242-0.081c-2.016.146-4.2,0-4.815,0.964-0.1.163-2.313,4.011-.484,6.249A0.318,0.318,0,0,0,2,53H8M7.905,51.476a0.246,0.246,0,0,1-.426,0l-1.161-.631a0.227,0.227,0,0,1-.029-0.1l0.685-2.932a0.231,0.231,0,0,1,.1-0.195l0.476-.335a0.249,0.249,0,0,1,.285,0l0.476,0.335a0.231,0.231,0,0,1,.1.195M7.636,44.6a3.3,3.3,0,1,0,0-6.6A3.3,3.3,0,1,0,7.636,44.6Zm10.158,1.23a0.668,0.668,0,0,0-.489-0.207h-0.7V45.1a0.874,0.874,0,0,0-.87-0.873H15.39a0.874,0.874,0,0,0-.87.873v0.524H13.432V45.1a0.874,0.874,0,0,0-.87-0.873H12.214a0.874,0.874,0,0,0-.87.873v0.524h-0.7a0.668,0.668,0,0,0-.489.207C10.021,45.965,10,45.811,10,46v6a1.528,1.528,0,0,0,.159.793,0.667,0.667,0,0,0,.489.207H17.3a0.667,0.667,0,0,0,.489-0.207A1.558,1.558,0,0,0,18,52V46.317A0.672,0.672,0,0,0,17.794,45.826ZM17,52H11V48h6v4Z"/>
    <path id="Forma_1_copy_2" data-name="Forma 1 copy 2" class="cls-1" d="M11.733,58.842l-0.754.242c-0.139,0-.084-0.115-0.119-0.242C10.754,58.326,9.672,57.981,9.113,58c-0.562-.009-1.642.323-1.747,0.842-0.036.123-.022,0.247-0.158,0.242l-0.715-.242v1.684h5.24V58.842Zm3.493,2.526a0.922,0.922,0,0,0-.873-0.842c-0.02,0-.008-0.55,0,0H12.606v0.842a0.8,0.8,0,0,1-.873.842H6.493a0.762,0.762,0,0,1-.873-0.842V60.526H3.873A0.924,0.924,0,0,0,3,61.368c0,0.019,0,.823,0,0.842V73.155A0.852,0.852,0,0,0,3.861,74h10.5a0.852,0.852,0,0,0,.861-0.845h0s0-2.283,0-4.207c0.011-.016-2.345,3.952-5.817,3.783a3.41,3.41,0,0,1-2.043-1.257,3.18,3.18,0,0,1,.34-2.277S14.69,61.673,15.226,61.368ZM4.746,63.895h6.113L9.113,65.579H4.746V63.895Zm1.747,5.053H4.746V67.263H8.24ZM4.746,72.316h0V70.632H6.493L5.62,72.316H4.746Zm9.063-7.805,1.835,1.5-3.981,4.42-1.834-1.5Zm2.965-.608-0.818-.669a0.783,0.783,0,0,0-1.065.077l-0.672.746,1.835,1.5,0.784-.87A0.537,0.537,0,0,0,16.774,63.9ZM9.122,71.276a0.192,0.192,0,0,0,.252.2l1.863-.576L9.4,69.4Z"/>
    <path id="_" data-name="$" class="cls-1" d="M14.444,86.238c0.087-2.453.022-2.06,0-2.056V79.74A0.759,0.759,0,0,0,13.667,79H2.777A0.759,0.759,0,0,0,2,79.74V94.545a0.759,0.759,0,0,0,.777.74H6.444A10.461,10.461,0,0,1,7.93,88.745C9.732,86,14.328,86.5,14.444,86.238ZM6.761,83.526H3.776V80.819h8.892v2.707H6.761Zm-2.984.9H5.555v1.81H3.778v-1.81Zm7.111,0h1.778v1.81H10.889v-1.81Zm-3.556,0H9.111v1.81H7.333v-1.81ZM3.778,88.048H5.555v1.81H3.778V88.048Zm0,3.619H5.555v1.81H3.778v-1.81Zm9.333-3.619a4.977,4.977,0,1,1-4.889,4.976A4.933,4.933,0,0,1,13.111,88.048Zm0.713,7.05a0.923,0.923,0,0,1-.654.205,1.087,1.087,0,0,1-.723-0.233,0.967,0.967,0,0,1-.278-0.78H10.906l-0.014.026a1.683,1.683,0,0,0,.532,1.387,2.4,2.4,0,0,0,1.4.545V97.09h0.707V96.248a2.194,2.194,0,0,0,1.319-.528,1.545,1.545,0,0,0,.483-1.191,1.576,1.576,0,0,0-.489-1.225,3.92,3.92,0,0,0-1.477-.755,2.432,2.432,0,0,1-.759-0.423,0.708,0.708,0,0,1-.2-0.526,0.817,0.817,0,0,1,.187-0.564,0.927,0.927,0,0,1,1.221.041,1.051,1.051,0,0,1,.22.716H15.31l0.009-.021a1.777,1.777,0,0,0-.44-1.285,2,2,0,0,0-1.255-.6V88.958H12.917v0.915a2.155,2.155,0,0,0-1.317.541,1.723,1.723,0,0,0,0,2.4,4.194,4.194,0,0,0,1.49.757,2.086,2.086,0,0,1,.743.408,0.765,0.765,0,0,1,.209.562A0.732,0.732,0,0,1,13.824,95.1Z"/>
    <path id="Rectangle_14_copy" data-name="Rectangle 14 copy" class="cls-1" d="M5,103h9a2,2,0,0,1,2,2v9a2,2,0,0,1-2,2H5a2,2,0,0,1-2-2v-9A2,2,0,0,1,5,103Zm3.111,7.314-1.974-2.12-0.971,1.038,2.945,3.157,5.722-5.463-0.971-1.037Z"/>
    <path id="Forma_1-2" data-name="Forma 1" class="cls-1" d="M3,122.625H17v2.437H3v-2.437Zm0,1.986,1.647-.361V134H3v-9.389Zm12.353,7.764L15.6,134H4.474l0.173-1.625H15.353Zm0-8.125L17,125.092V134H15.353v-9.75ZM6.294,121H7.941v1.625H6.294V121Zm5.765,0h1.647v1.625H12.059V121ZM10,130.227l1.777,1.335L11.1,129.386l1.778-1.286H10.72L10,125.875,9.279,128.1H7.117l1.777,1.286-0.673,2.176Z"/>
    <path id="Rectangle_1_copy" data-name="Rectangle 1 copy" class="cls-1" d="M9.1,153.933H2.549A0.553,0.553,0,0,1,2,153.376a6.488,6.488,0,0,1,6.428-6.531,6.319,6.319,0,0,1,3.565,1.1s-2.912-.391-3.763,2.065A3.408,3.408,0,0,0,9.1,153.933ZM8.428,139a3.544,3.544,0,1,0,3.489,3.544A3.521,3.521,0,0,0,8.428,139Zm4,9.405,2.842,2.863-2.842,2.862L13.292,155,17,151.267l-3.707-3.734ZM16,152H10v-1h6v1Z"/>
  </g>
  <g>
    <path class="cls-1" d="M100.646,15.352V14.418a5.957,5.957,0,0,0,2.269-.949l0.666,0.665a0.64,0.64,0,0,0,.9,0l0.691-.69a0.637,0.637,0,0,0,0-.9l-0.676-.675a5.965,5.965,0,0,0,.926-2.26h0.961a0.633,0.633,0,0,0,.632-0.631V8a0.633,0.633,0,0,0-.632-0.631h-0.966a5.969,5.969,0,0,0-.936-2.245l0.686-.685a0.637,0.637,0,0,0,0-.9l-0.7-.695a0.64,0.64,0,0,0-.9,0l-0.686.685a6.022,6.022,0,0,0-2.255-.934V1.64a0.633,0.633,0,0,0-.632-0.631h-0.98a0.633,0.633,0,0,0-.632.631V2.6a6.005,6.005,0,0,0-2.264.929l-0.671-.665a0.64,0.64,0,0,0-.9,0l-0.691.695a0.637,0.637,0,0,0,0,.9l0.667,0.665a5.925,5.925,0,0,0-.946,2.265H92.643a0.633,0.633,0,0,0-.632.631V8.993a0.633,0.633,0,0,0,.632.631h0.931a6,6,0,0,0,.941,2.275l-0.647.66a0.637,0.637,0,0,0,0,.9l0.691,0.69a0.64,0.64,0,0,0,.9,0l0.657-.655a6.082,6.082,0,0,0,2.284.939v0.93a0.633,0.633,0,0,0,.632.631h0.98A0.641,0.641,0,0,0,100.646,15.352Zm-3.44-4.545a3.261,3.261,0,1,1,4.616,0A3.256,3.256,0,0,1,97.206,10.808Z"/>
    <path id="Rectangle_8_copy_3" data-name="Rectangle 8 copy 3" class="cls-1" d="M95,26h11v8H95V26Zm-3,0h2v8H92V26Zm0-5h14v4H92V21Zm2,1a1,1,0,1,1-1,1A1,1,0,0,1,94,22Zm2,8h9v2H96V30Zm4-8h5v2h-5V22Zm-4,5h9v2H96V27Z"/>
    <path id="Forma_1-3" data-name="Forma 1" class="cls-1" d="M97.153,46.008a3.355,3.355,0,0,0,3.069-3.454V42a3.07,3.07,0,0,0-6.138,0v0.55A3.355,3.355,0,0,0,97.153,46.008Zm4.9,2.9c0-.009,0-0.018-0.005-0.027a2.181,2.181,0,0,0-.068-0.323v0a1.975,1.975,0,0,0-.336-0.652h0a3.9,3.9,0,0,0-1.321-1.054,1.506,1.506,0,0,0-.711-0.268,2,2,0,0,0-1.135.684h0l-0.454.4a1.779,1.779,0,0,1-.872.67,1.777,1.777,0,0,1-.872-0.67l-0.454-.4h0a2,2,0,0,0-1.134-.684,1.378,1.378,0,0,0-.711.268,4.567,4.567,0,0,0-1.32,1.053h0l0,0a1.954,1.954,0,0,0-.333.647l0,0.006a2.195,2.195,0,0,0-.066.319c0,0.01,0,.02,0,0.03a3.063,3.063,0,0,0-.021.356c0,0.014,0,2.555,0,2.567A1.013,1.013,0,0,0,93.461,53h7.384a1,1,0,0,0,1.231-1.167V49.267A3.2,3.2,0,0,0,102.055,48.91Zm1.257-2.334a2.053,2.053,0,0,0,1.844-1.867V43.776a1.844,1.844,0,1,0-3.688,0v0.933A2.074,2.074,0,0,0,103.312,46.576ZM91,48.917c0.014,0.011,0-.277,0,0h0Zm16,1.167a2.5,2.5,0,0,0-1.4-2.244,1.518,1.518,0,0,0-1.677.494l-0.615.583v3.5h2.461A1,1,0,0,0,107,51.25C107,51.241,107,50.093,107,50.083Zm-3.692-1.167c0-.277-0.014.011,0,0h0Z"/>
    <path id="Shape_1_copy" data-name="Shape 1 copy" class="cls-1" d="M106.9,62.856l-2.749-4.671A0.471,0.471,0,0,0,103.778,58H95.225a0.472,0.472,0,0,0-.373.185L92.1,62.856a0.474,0.474,0,0,0-.1.3v8.365a0.48,0.48,0,0,0,.476.482h14.047A0.48,0.48,0,0,0,107,71.518V63.153A0.445,0.445,0,0,0,106.9,62.856ZM106,64h-6V59h3ZM96,59h3v5H93Z"/>
    <path id="Shape_1_copy_2" data-name="Shape 1 copy 2" class="cls-1" d="M100.646,91.352V90.418a5.957,5.957,0,0,0,2.269-.949l0.667,0.665a0.639,0.639,0,0,0,.9,0l0.691-.69a0.635,0.635,0,0,0,0-.9l-0.676-.675a5.966,5.966,0,0,0,.926-2.26h0.961a0.633,0.633,0,0,0,.632-0.631V84a0.633,0.633,0,0,0-.632-0.631h-0.965a5.972,5.972,0,0,0-.937-2.246l0.687-.685a0.637,0.637,0,0,0,0-.9l-0.7-.695a0.64,0.64,0,0,0-.9,0l-0.686.685a6.022,6.022,0,0,0-2.255-.934V77.64a0.633,0.633,0,0,0-.632-0.631h-0.98a0.633,0.633,0,0,0-.632.631V78.6a6.007,6.007,0,0,0-2.264.929l-0.671-.665a0.64,0.64,0,0,0-.9,0l-0.691.695a0.637,0.637,0,0,0,0,.9l0.666,0.665a5.926,5.926,0,0,0-.946,2.265H92.643a0.633,0.633,0,0,0-.632.631v0.978a0.633,0.633,0,0,0,.632.631h0.931a6.006,6.006,0,0,0,.941,2.275l-0.647.66a0.637,0.637,0,0,0,0,.9l0.691,0.69a0.64,0.64,0,0,0,.9,0l0.657-.656a6.081,6.081,0,0,0,2.284.939v0.929a0.633,0.633,0,0,0,.632.631h0.98A0.641,0.641,0,0,0,100.646,91.352ZM100.285,86.8a1.049,1.049,0,0,1-.736.228,1.236,1.236,0,0,1-.814-0.259,1.064,1.064,0,0,1-.313-0.866H97l-0.015.028a1.854,1.854,0,0,0,.6,1.54,2.727,2.727,0,0,0,1.58.6v0.935h0.8V88.073a2.487,2.487,0,0,0,1.485-.586,1.7,1.7,0,0,0,.544-1.321,1.737,1.737,0,0,0-.551-1.359,4.444,4.444,0,0,0-1.663-.837,2.75,2.75,0,0,1-.854-0.47,0.779,0.779,0,0,1-.223-0.584,0.9,0.9,0,0,1,.21-0.626,1.055,1.055,0,0,1,1.374.045,1.151,1.151,0,0,1,.248.795h1.428l0.01-.024a1.958,1.958,0,0,0-.5-1.426,2.263,2.263,0,0,0-1.412-.667V79.984h-0.8V81a2.445,2.445,0,0,0-1.482.6,1.892,1.892,0,0,0,0,2.659,4.751,4.751,0,0,0,1.678.84,2.357,2.357,0,0,1,.837.453,0.842,0.842,0,0,1,.235.624A0.808,0.808,0,0,1,100.285,86.8Z"/>
    <path id="Forma_1_copy_4" data-name="Forma 1 copy 4" class="cls-1" d="M94,108h4v3h4v-2c-0.407-.281-5.063-0.22-5-5a4.9,4.9,0,0,1,5-5V97H91v14h3v-3Zm5.492-4.839a0.542,0.542,0,0,0-.486.534L99,104.244a0.54,0.54,0,0,0,.473.544l0.4,0.053a3.106,3.106,0,0,0,.287.7l-0.261.321a0.542,0.542,0,0,0,.033.721l0.384,0.393a0.541,0.541,0,0,0,.72.049l0.323-.249a3.219,3.219,0,0,0,.72.315l0.044,0.416a0.542,0.542,0,0,0,.533.486L103.208,108a0.542,0.542,0,0,0,.545-0.473l0.049-.395a3.3,3.3,0,0,0,.781-0.3l0.3,0.245a0.54,0.54,0,0,0,.72-0.032l0.393-.384a0.543,0.543,0,0,0,.05-0.721l-0.232-.3a3.123,3.123,0,0,0,.329-0.76l0.36-.037a0.541,0.541,0,0,0,.486-0.533l0.007-.549a0.542,0.542,0,0,0-.473-0.545l-0.351-.046a3.283,3.283,0,0,0-.3-0.759l0.22-.269a0.541,0.541,0,0,0-.033-0.72l-0.384-.393a0.542,0.542,0,0,0-.72-0.05l-0.263.2a3.178,3.178,0,0,0-.789-0.343l-0.035-.341a0.543,0.543,0,0,0-.534-0.486L102.792,100a0.541,0.541,0,0,0-.545.473l-0.043.338a3.3,3.3,0,0,0-.818.334l-0.271-.221a0.541,0.541,0,0,0-.72.033l-0.4.386a0.541,0.541,0,0,0-.05.72l0.232,0.3a3.135,3.135,0,0,0-.31.759Zm3.535-1.148A1.987,1.987,0,1,1,101,103.975,2,2,0,0,1,103.027,102.013Z"/>
    <path id="Forma_1_copy_6" data-name="Forma 1 copy 6" class="cls-1" d="M93,127h4v3h4v-2c-1.594-.25-4-1.126-4-4a2.984,2.984,0,0,1,2-3c-0.082-1.279.335-3,2-3v-2H90v14h3v-3Zm14.562-4.1a1.977,1.977,0,0,0-1.11-.669,1.221,1.221,0,0,0-.177-1.586,1.312,1.312,0,0,0-.942-0.373,1.3,1.3,0,0,0-.865.308,2.57,2.57,0,0,0-.976-1.143,2.449,2.449,0,0,0-2.378.308,2.4,2.4,0,0,0-.781,1.8c0,0.05,0,.121.011,0.214a2.267,2.267,0,0,0-.974.813,2.144,2.144,0,0,0,.315,2.775,2.3,2.3,0,0,0,1.648.654H106a1.975,1.975,0,0,0,1.414-.56A1.846,1.846,0,0,0,107.562,122.9Z"/>
    <path id="Rectangle_9_copy" data-name="Rectangle 9 copy" class="cls-1" d="M93,146h12v1H93v-1Zm12-5v4h-5v-4m0-3h2v2h-2v-2Zm-7,0h6v7H93v-7Zm0-3h12v2H93v-2Zm10,3h2v2h-2v-2Z"/>
    <path id="Forma_1-4" data-name="Forma 1" class="cls-1" d="M104.666,177.559h-1v-1.236a4.68,4.68,0,0,0-9.333,0v1.236h-1a0.321,0.321,0,0,0-.333.309v6.9A1.288,1.288,0,0,0,94.333,186h9.333A1.289,1.289,0,0,0,105,184.765v-6.9A0.322,0.322,0,0,0,104.666,177.559ZM100,183.186a0.3,0.3,0,0,1-.083.241,0.347,0.347,0,0,1-.248.1H98.333a0.346,0.346,0,0,1-.248-0.1A0.3,0.3,0,0,1,98,183.186l0.21-1.751a1.2,1.2,0,0,1-.546-0.994,1.337,1.337,0,0,1,2.667,0,1.2,1.2,0,0,1-.546.994Zm1.668-5.627H96.333v-1.236a2.674,2.674,0,0,1,5.333,0v1.236Z"/>
    <path id="Forma_1_copy_3" data-name="Forma 1 copy 3" class="cls-1" d="M97.431,166.4a1.306,1.306,0,0,0,1.067.6,1.273,1.273,0,0,0,1.057-.6,2.322,2.322,0,0,0,.44-1.407h-3A2.277,2.277,0,0,0,97.431,166.4Zm7.5-3.137a10.692,10.692,0,0,1-1.149-2.71,14.08,14.08,0,0,1-.7-3.136,5.353,5.353,0,0,0-.922-2.509,4.317,4.317,0,0,0-.723-0.769,4.255,4.255,0,0,0-1.49-.826,1.643,1.643,0,0,0-.518-0.938A1.356,1.356,0,0,0,98.5,152a1.34,1.34,0,0,0-.929.376,1.659,1.659,0,0,0-.511.938,4.252,4.252,0,0,0-1.5.826,4.312,4.312,0,0,0-.723.769,5.374,5.374,0,0,0-.915,2.509,14.027,14.027,0,0,1-.7,3.136,10.832,10.832,0,0,1-1.142,2.71,0.476,0.476,0,0,0-.078.248,0.437,0.437,0,0,0,.05.208,0.666,0.666,0,0,0,.673.283h11.556a0.668,0.668,0,0,0,.679-0.283A0.574,0.574,0,0,0,105,163.5,0.455,0.455,0,0,0,104.929,163.264Z"/>
  </g>
  <g>
    <path id="Forma_1-5" data-name="Forma 1" class="cls-1" d="M29,2H28a0.978,0.978,0,0,1,1-1H39a0.978,0.978,0,0,1,1,1V13a0.978,0.978,0,0,1-1,1H29a0.978,0.978,0,0,1-1-1h1V10H28V9h1V6H28V5h1V2ZM26,3h2V4H26V3Zm0,4h2V8H26V7Zm0,4h2v1H26V11Zm8.5-3.495a2.25,2.25,0,0,0,2.182-2.22V4.931a2.2,2.2,0,0,0-4.363,0V5.285A2.25,2.25,0,0,0,34.5,7.505Zm3.485,1.866c0-.006,0-0.011,0-0.017a1.273,1.273,0,0,0-.048-0.207,0,0,0,0,0,0,0,1.218,1.218,0,0,0-.239-0.419h0a2.741,2.741,0,0,0-.939-0.677,1.144,1.144,0,0,0-.505-0.172,1.46,1.46,0,0,0-.807.44h0l-0.322.254A1.25,1.25,0,0,1,34.5,9a1.25,1.25,0,0,1-.62-0.431l-0.323-.254h0a1.459,1.459,0,0,0-.806-0.44,1.047,1.047,0,0,0-.505.172,3.207,3.207,0,0,0-.938.677h0v0a1.218,1.218,0,0,0-.236.416l0,0a1.284,1.284,0,0,0-.047.205c0,0.007,0,.013,0,0.019A1.783,1.783,0,0,0,31,9.6c0,0.009,0,1.642,0,1.65,0,0.533.234,0.75,0.875,0.75h5.25C37.77,12,38,11.795,38,11.25c0-.008,0-1.641,0-1.65A1.848,1.848,0,0,0,37.984,9.371Z"/>
    <path id="Forma_1-6" data-name="Forma 1" class="cls-1" d="M29,21h4v4H29V21Zm0,5h4v4H29V26Zm2,6h5v3h4V19H27V35h4V32Zm7-2H34V26h4v4Zm0-5H34V21h4v4Z"/>
  </g>
  <g>
    <path class="cls-1" d="M48,1H60a1.158,1.158,0,0,1,1,1V3a1.158,1.158,0,0,1-1,1H48a1.158,1.158,0,0,1-1-1V2A1.158,1.158,0,0,1,48,1ZM60,5v8a1.158,1.158,0,0,1-1,1H49a1.158,1.158,0,0,1-1-1V5H60ZM51,7h6V9H51V7Z"/>
    <path id="Forma_1-7" data-name="Forma 1" class="cls-1" d="M61.962,25.662a0.489,0.489,0,0,0-.483-0.37,1.657,1.657,0,0,1-1.135-2.884,0.417,0.417,0,0,0,.046-0.566,7.431,7.431,0,0,0-1.19-1.2,0.418,0.418,0,0,0-.571.046,1.732,1.732,0,0,1-1.873.42,1.667,1.667,0,0,1-1.014-1.629,0.416,0.416,0,0,0-.369-0.439,7.5,7.5,0,0,0-1.69,0,0.418,0.418,0,0,0-.372.43,1.67,1.67,0,0,1-1.028,1.6,1.736,1.736,0,0,1-1.859-.423,0.419,0.419,0,0,0-.567-0.047,7.461,7.461,0,0,0-1.215,1.2,0.417,0.417,0,0,0,.045.57,1.663,1.663,0,0,1,.42,1.873,1.736,1.736,0,0,1-1.634,1.014,0.409,0.409,0,0,0-.434.369,7.52,7.52,0,0,0,0,1.706,0.5,0.5,0,0,0,.492.369,1.647,1.647,0,0,1,1.545,1.028,1.669,1.669,0,0,1-.42,1.856,0.416,0.416,0,0,0-.045.565,7.461,7.461,0,0,0,1.188,1.2,0.418,0.418,0,0,0,.572-0.045,1.729,1.729,0,0,1,1.872-.421,1.665,1.665,0,0,1,1.016,1.629,0.417,0.417,0,0,0,.368.438,7.486,7.486,0,0,0,1.69,0,0.418,0.418,0,0,0,.372-0.43,1.668,1.668,0,0,1,1.028-1.6,1.734,1.734,0,0,1,1.86.423,0.42,0.42,0,0,0,.567.047,7.475,7.475,0,0,0,1.215-1.2,0.417,0.417,0,0,0-.045-0.57,1.662,1.662,0,0,1-.421-1.872,1.681,1.681,0,0,1,1.536-1.017l0.093,0a0.418,0.418,0,0,0,.44-0.368A7.486,7.486,0,0,0,61.962,25.662ZM54.5,30.822a4.328,4.328,0,1,1,3.717-2.108l-1.9-1.895a2.655,2.655,0,0,0-3.145-3.595,0.3,0.3,0,0,0-.208.209,0.293,0.293,0,0,0,.083.287s0.936,0.943,1.249,1.256a0.194,0.194,0,0,1,.028.139l0,0.021a5.98,5.98,0,0,1-.143.916l-0.02.019-0.021.021a5.9,5.9,0,0,1-.93.145v0l-0.016,0H53.182a0.2,0.2,0,0,1-.144-0.061c-0.326-.326-1.225-1.218-1.225-1.218a0.306,0.306,0,0,0-.219-0.1,0.3,0.3,0,0,0-.28.226,2.656,2.656,0,0,0,3.6,3.137l1.916,1.915A4.31,4.31,0,0,1,54.5,30.822Z"/>
    <path id="Forma_1-8" data-name="Forma 1" class="cls-1" d="M55.178,47.452q-0.339.01-.677,0.011t-0.68-.011a15.5,15.5,0,0,1-4.525-.694,5.351,5.351,0,0,1-1.3-.6v2.4c0.74,0.759,3.222,1.46,6.5,1.46s5.76-.7,6.5-1.46v-2.4a5.368,5.368,0,0,1-1.306.605A15.531,15.531,0,0,1,55.178,47.452ZM48,42.8v2.4c0.686,0.7,2.869,1.357,5.794,1.449l0.091,0,0.255,0.006q0.178,0,.36,0l0.36,0,0.255-.006,0.091,0c2.926-.092,5.108-0.745,5.794-1.449V42.8c-1.265.855-3.941,1.306-6.5,1.306S49.266,43.659,48,42.8Zm12.965-1.622C60.673,40.083,58.43,39,54.5,39s-6.161,1.079-6.462,2.175A0.246,0.246,0,0,0,48,41.3v0.59c0.738,0.757,3.2,1.455,6.5,1.455s5.763-.7,6.5-1.455V41.3A0.232,0.232,0,0,0,60.965,41.182ZM48,49.479V50.7a0.237,0.237,0,0,0,.03.115C48.337,52.067,51.085,53,54.5,53s6.15-.93,6.467-2.177A0.25,0.25,0,0,0,61,50.7V49.48c-1.075.744-3.29,1.329-6.5,1.329S49.075,50.223,48,49.479Z"/>
    <path id="_2" data-name="$" class="cls-1" d="M52.967,61.33l-3.5-.384-0.15-1.4a0.952,0.952,0,0,0-.2-0.46,0.8,0.8,0,0,0-.4-0.276l-2.6-.81a0.938,0.938,0,0,0-.668.064,0.815,0.815,0,0,0-.442.506,0.9,0.9,0,0,0,.066.663,0.828,0.828,0,0,0,.518.423l2.033,0.626,0.715,6.033-0.471,2.5a0.9,0.9,0,0,0,.885,1.031h9.991a0.875,0.875,0,0,0,.621-0.249,0.854,0.854,0,0,0,0-1.234,0.875,0.875,0,0,0-.621-0.249H49.8l0.207-1.141h5.555S52.373,66.017,52.967,61.33Zm-2.884,9a1.321,1.321,0,0,1,.96.387,1.264,1.264,0,0,1,.4.939,1.355,1.355,0,0,1-2.71,0,1.264,1.264,0,0,1,.4-0.939A1.321,1.321,0,0,1,50.083,70.33Zm7.036,0a1.322,1.322,0,0,1,.96.387,1.264,1.264,0,0,1,.4.939,1.355,1.355,0,0,1-2.71,0,1.265,1.265,0,0,1,.4-0.939A1.322,1.322,0,0,1,57.119,70.33ZM59,57a5,5,0,1,1-5,5A5,5,0,0,1,59,57Zm0.629,7.048a0.784,0.784,0,0,1-.589.2,0.924,0.924,0,0,1-.651-0.23,1.007,1.007,0,0,1-.25-0.77H57l-0.012.025a1.747,1.747,0,0,0,.479,1.369,2.061,2.061,0,0,0,1.263.538v0.831h0.637V65.183a1.886,1.886,0,0,0,1.187-.521,1.6,1.6,0,0,0,.434-1.175,1.634,1.634,0,0,0-.44-1.209,3.433,3.433,0,0,0-1.329-.744,2.151,2.151,0,0,1-.683-0.418A0.737,0.737,0,0,1,58.36,60.6a0.856,0.856,0,0,1,.168-0.557,0.662,0.662,0,0,1,.545-0.207,0.671,0.671,0,0,1,.554.247,1.1,1.1,0,0,1,.2.706h1.141l0.008-.021a1.86,1.86,0,0,0-.4-1.267,1.741,1.741,0,0,0-1.129-.593V57.991H58.812v0.9a1.857,1.857,0,0,0-1.185.534,1.819,1.819,0,0,0,0,2.364,3.672,3.672,0,0,0,1.341.747,1.842,1.842,0,0,1,.669.4,0.8,0.8,0,0,1,.188.555A0.761,0.761,0,0,1,59.629,64.048Z"/>
  </g>
  <g>
    <path id="_3" data-name="$" class="cls-1" d="M79,1V5h4Zm0,5a0.937,0.937,0,0,1-1-1V1H72a0.937,0.937,0,0,0-1,1V14a0.936,0.936,0,0,0,1,1H82a0.936,0.936,0,0,0,1-1V6H79ZM78,9h4v2H78V9Zm-6,3H82v2H72V12ZM74.87,8.893a0.889,0.889,0,0,1-.646.211,1.047,1.047,0,0,1-.714-0.24,1.016,1.016,0,0,1-.275-0.8H71.988l-0.013.026A1.766,1.766,0,0,0,72.5,9.514a2.323,2.323,0,0,0,1.386.56V10.94h0.7V10.075a2.122,2.122,0,0,0,1.3-.543,1.621,1.621,0,0,0,.477-1.224,1.654,1.654,0,0,0-.483-1.259,3.821,3.821,0,0,0-1.459-.776,2.38,2.38,0,0,1-.749-0.435,0.744,0.744,0,0,1-.2-0.541,0.861,0.861,0,0,1,.184-0.58,0.89,0.89,0,0,1,1.206.042,1.109,1.109,0,0,1,.218.736h1.252l0.009-.022a1.873,1.873,0,0,0-.435-1.321,1.944,1.944,0,0,0-1.239-.617V2.582h-0.7v0.94a2.088,2.088,0,0,0-1.3.556,1.633,1.633,0,0,0-.479,1.215,1.617,1.617,0,0,0,.479,1.248,4.089,4.089,0,0,0,1.472.778,2.04,2.04,0,0,1,.734.42,0.805,0.805,0,0,1,.207.578A0.769,0.769,0,0,1,74.87,8.893Z"/>
    <path class="cls-1" d="M70,23v8a0.9,0.9,0,0,0,1,1H84a0.894,0.894,0,0,0,1-1V23H70Zm4.25,5.976h-2.5a1.035,1.035,0,0,1,0-1.99h2.5A1.035,1.035,0,0,1,74.25,28.976ZM84,20H71a0.9,0.9,0,0,0-1,1v1H85V21A0.9,0.9,0,0,0,84,20Zm-3.526,9.351a2,2,0,1,1,.044-2.653m-0.052.018a2,2,0,1,1,.058,2.634"/>
  </g>
</svg>
