<svg id="icons" xmlns="http://www.w3.org/2000/svg" width="178" height="122" viewBox="0 0 178 122">
  <defs>
    <style>
      .cls-1 {
        fill: #eef3fe;
      }

      .cls-1, .cls-2, .cls-3, .cls-5, .cls-6, .cls-7, .cls-8, .cls-9 {
        fill-rule: evenodd;
      }

      .cls-2, .cls-7 {
        fill: #fff;
      }

      .cls-2 {
        stroke: #e3e3e3;
        stroke-linejoin: round;
        stroke-width: 1px;
      }

      .cls-4 {
        fill: #e3e3e3;
      }

      .cls-5 {
        fill: #2669a9;
      }

      .cls-6 {
        fill: #c8e6f8;
      }

      .cls-8 {
        fill: #de617e;
      }

      .cls-9 {
        fill: #fe8300;
      }

      .cls-10 {
        fill: #ffc501;
      }
    </style>
  </defs>
  <path class="cls-1" d="M16,67.019c0.518-12.348,3.106-22.638,28.987-30.87S78.739,24.287,91.68,16.569c10.426-6.394,42.473-5.832,57.974,15.435,10.784,14.8,10.007,34.037-2.07,47.334-10.26,11.3-31.5,20.432-52.8,24.7-21.692,4.344-37.893,1.057-53.939-5.117S15.655,81.768,16,67.019Z"/>
  <g id="icons-2" data-name="icons">
    <g>
      <path class="cls-2" d="M42,103H93a14.1,14.1,0,0,0,14-14V25a0.908,0.908,0,0,0-1-1H43a0.908,0.908,0,0,0-1,1v78Z"/>
      <path id="Account" class="cls-3" d="M55.424,38.878h0.992l-3-7.884H52.989L50,38.878h0.936l0.785-2.151h2.894Zm-2.535-5.289,0.28-1.2H53.18l0.28,1.175,0.875,2.362H52.025Zm7.891,4.247a2.071,2.071,0,0,1-.524.277,2.036,2.036,0,0,1-.727.122,1.624,1.624,0,0,1-.795-0.178,1.467,1.467,0,0,1-.519-0.471,1.959,1.959,0,0,1-.282-0.676,3.713,3.713,0,0,1-.085-0.8q0-2.129,1.6-2.129a2.646,2.646,0,0,1,.676.083,2.484,2.484,0,0,1,.575.227l0.259-.765a2.844,2.844,0,0,0-.682-0.238,4.348,4.348,0,0,0-.919-0.083,2.242,2.242,0,0,0-1.815.749,3.259,3.259,0,0,0-.631,2.157,5.086,5.086,0,0,0,.13,1.192,2.475,2.475,0,0,0,.417.92,1.879,1.879,0,0,0,.738.588,2.662,2.662,0,0,0,1.1.205,3.635,3.635,0,0,0,.97-0.127,2.481,2.481,0,0,0,.8-0.371Zm4.825,0a2.071,2.071,0,0,1-.524.277,2.036,2.036,0,0,1-.727.122,1.625,1.625,0,0,1-.795-0.178,1.466,1.466,0,0,1-.519-0.471,1.956,1.956,0,0,1-.282-0.676,3.713,3.713,0,0,1-.085-0.8q0-2.129,1.6-2.129a2.645,2.645,0,0,1,.676.083,2.482,2.482,0,0,1,.575.227l0.259-.765a2.841,2.841,0,0,0-.682-0.238,4.346,4.346,0,0,0-.919-0.083,2.242,2.242,0,0,0-1.815.749,3.259,3.259,0,0,0-.631,2.157,5.085,5.085,0,0,0,.13,1.192,2.477,2.477,0,0,0,.417.92,1.88,1.88,0,0,0,.738.588,2.662,2.662,0,0,0,1.1.205,3.635,3.635,0,0,0,.97-0.127,2.481,2.481,0,0,0,.8-0.371Zm1.1-.538a2.52,2.52,0,0,0,.451.92,1.988,1.988,0,0,0,.772.588,2.72,2.72,0,0,0,1.1.205,2.273,2.273,0,0,0,1.832-.748,3.24,3.24,0,0,0,.637-2.157,4.534,4.534,0,0,0-.147-1.192,2.525,2.525,0,0,0-.451-0.92,1.992,1.992,0,0,0-.772-0.588,2.721,2.721,0,0,0-1.1-.205,2.272,2.272,0,0,0-1.832.749,3.239,3.239,0,0,0-.637,2.157A4.525,4.525,0,0,0,66.71,37.3Zm2.322-3.321a1.383,1.383,0,0,1,.71.172,1.368,1.368,0,0,1,.474.46,2.116,2.116,0,0,1,.265.676,3.853,3.853,0,0,1,.084.821q0,2.14-1.533,2.129a1.346,1.346,0,0,1-.71-0.178,1.41,1.41,0,0,1-.474-0.466,2.11,2.11,0,0,1-.265-0.676,3.8,3.8,0,0,1-.085-0.809q0-2.14,1.533-2.129h0Zm3.8-.643v3.349a4.557,4.557,0,0,0,.118,1.136,1.758,1.758,0,0,0,.35.715,1.217,1.217,0,0,0,.575.371,2.719,2.719,0,0,0,.795.105,2,2,0,0,0,1.116-.288,2.222,2.222,0,0,0,.7-0.721h0.056l0.225,0.876h0.62a5.386,5.386,0,0,1-.1-0.748Q77.262,37.7,77.262,37.3v-3.97h-0.9v3.7a2.308,2.308,0,0,1-.231.46,1.914,1.914,0,0,1-.327.383,1.409,1.409,0,0,1-.423.261,1.453,1.453,0,0,1-.541.094,1.17,1.17,0,0,1-.541-0.111,0.815,0.815,0,0,1-.338-0.327,1.572,1.572,0,0,1-.175-0.543,5.012,5.012,0,0,1-.051-0.759v-3.16h-0.9Zm10.688,5.544V35.529a4.559,4.559,0,0,0-.118-1.137,1.759,1.759,0,0,0-.349-0.715,1.219,1.219,0,0,0-.581-0.371,2.823,2.823,0,0,0-.812-0.105,2.418,2.418,0,0,0-1.088.227,2.036,2.036,0,0,0-.727.582H79.8l-0.169-.676H79v5.544h0.9V35.086a1.683,1.683,0,0,1,.547-0.793,1.514,1.514,0,0,1,.986-0.316,0.982,0.982,0,0,1,.93.438,2.656,2.656,0,0,1,.254,1.3v3.16h0.9Zm0.9-4.768H85.3v3.238a2.214,2.214,0,0,0,.282,1.281,1.126,1.126,0,0,0,.969.383,3.256,3.256,0,0,0,.778-0.089A3.5,3.5,0,0,0,88,38.69l-0.2-.676q-0.248.1-.451,0.161a1.742,1.742,0,0,1-.5.061,0.536,0.536,0,0,1-.5-0.238,1.648,1.648,0,0,1-.147-0.815V34.11h1.533V33.334H86.2V31.981l-0.9.255v1.1H84.421V34.11Z"/>
      <rect id="Rounded_Rectangle_598" data-name="Rounded Rectangle 598" class="cls-4" x="51" y="47" width="45" height="2" rx="1" ry="1"/>
      <rect id="Rounded_Rectangle_598_copy" data-name="Rounded Rectangle 598 copy" class="cls-4" x="51" y="52" width="27" height="2" rx="1" ry="1"/>
      <rect id="Rounded_Rectangle_598_copy_2" data-name="Rounded Rectangle 598 copy 2" class="cls-4" x="51" y="60" width="40" height="2" rx="1" ry="1"/>
      <rect id="Rounded_Rectangle_598_copy_2-2" data-name="Rounded Rectangle 598 copy 2" class="cls-4" x="51" y="65" width="21" height="2" rx="1" ry="1"/>
      <rect id="Rounded_Rectangle_598_copy_3" data-name="Rounded Rectangle 598 copy 3" class="cls-4" x="51" y="73" width="47" height="2" rx="1" ry="1"/>
      <rect id="Rounded_Rectangle_598_copy_3-2" data-name="Rounded Rectangle 598 copy 3" class="cls-4" x="51" y="78" width="17" height="2" rx="1" ry="1"/>
      <rect id="Rounded_Rectangle_598_copy_4" data-name="Rounded Rectangle 598 copy 4" class="cls-4" x="51" y="86" width="35" height="2" rx="1" ry="1"/>
      <rect id="Rounded_Rectangle_598_copy_4-2" data-name="Rounded Rectangle 598 copy 4" class="cls-4" x="51" y="91" width="24" height="2" rx="1" ry="1"/>
    </g>
    <g id="Calculator">
      <path id="Rounded_Rectangle_598-2" data-name="Rounded Rectangle 598" class="cls-5" d="M95,64h30a2.285,2.285,0,0,1,2,2v38a2.289,2.289,0,0,1-2,2H95a2.285,2.285,0,0,1-2-2V66A2.288,2.288,0,0,1,95,64Z"/>
      <path id="Rounded_Rectangle_599" data-name="Rounded Rectangle 599" class="cls-6" d="M97,67h26a1.106,1.106,0,0,1,1,1v8a1.135,1.135,0,0,1-1,1H97a0.907,0.907,0,0,1-1-1V68A1.069,1.069,0,0,1,97,67Z"/>
      <path id="Rounded_Rectangle_603_copy" data-name="Rounded Rectangle 603 copy" class="cls-7" d="M120.471,67.976a0.771,0.771,0,0,1,.1,1.087l-4.793,5.764a0.772,0.772,0,1,1-1.188-.986l4.793-5.764A0.774,0.774,0,0,1,120.471,67.976Z"/>
      <path id="Rounded_Rectangle_603_copy_2" data-name="Rounded Rectangle 603 copy 2" class="cls-7" d="M115.471,67.976a0.771,0.771,0,0,1,.1,1.087l-5.793,6.764a0.772,0.772,0,1,1-1.188-.986l5.793-6.764A0.774,0.774,0,0,1,115.471,67.976Z"/>
      <path id="Rounded_Rectangle_600" data-name="Rounded Rectangle 600" class="cls-8" d="M98,78h16c1.452,0,2.008.168,2.008,1.606,0,1.261-1.223,1.4-2.008,1.394H98c-0.786-.007-2.028-0.071-2.028-1.359C95.971,78.05,97.21,77.942,98,78Z"/>
      <path id="Rounded_Rectangle_600_copy" data-name="Rounded Rectangle 600 copy" class="cls-9" d="M120,78h2c0.786,0.007,2-.222,2,2,0,1.105-1.215,1.007-2,1h-2c-0.786-.007-2.01.269-2.01-1.446C117.99,77.8,119.214,77.962,120,78Z"/>
      <path id="Rounded_Rectangle_601" data-name="Rounded Rectangle 601" class="cls-7" d="M97,83h4a1.143,1.143,0,0,1,1,1v4a1.144,1.144,0,0,1-1,1H97a1.142,1.142,0,0,1-1-1V84A1.144,1.144,0,0,1,97,83Z"/>
      <path id="Rounded_Rectangle_601_copy" data-name="Rounded Rectangle 601 copy" class="cls-7" d="M104,83h4a1.143,1.143,0,0,1,1,1v4a1.144,1.144,0,0,1-1,1h-4a1.143,1.143,0,0,1-1-1V84A1.144,1.144,0,0,1,104,83Z"/>
      <path id="Rounded_Rectangle_601_copy_2" data-name="Rounded Rectangle 601 copy 2" class="cls-7" d="M111,83h4a1.143,1.143,0,0,1,1,1v4a1.144,1.144,0,0,1-1,1h-4a1.143,1.143,0,0,1-1-1V84A1.144,1.144,0,0,1,111,83Z"/>
      <path id="Rounded_Rectangle_601_copy_3" data-name="Rounded Rectangle 601 copy 3" class="cls-7" d="M97,90h4a1.142,1.142,0,0,1,1,1v4a1.144,1.144,0,0,1-1,1H97a1.142,1.142,0,0,1-1-1V91A1.144,1.144,0,0,1,97,90Z"/>
      <path id="Rounded_Rectangle_601_copy_4" data-name="Rounded Rectangle 601 copy 4" class="cls-7" d="M104,90h4a1.143,1.143,0,0,1,1,1v4a1.144,1.144,0,0,1-1,1h-4a1.143,1.143,0,0,1-1-1V91A1.144,1.144,0,0,1,104,90Z"/>
      <path id="Rounded_Rectangle_601_copy_5" data-name="Rounded Rectangle 601 copy 5" class="cls-7" d="M111,90h4a1.143,1.143,0,0,1,1,1v4a1.144,1.144,0,0,1-1,1h-4a1.142,1.142,0,0,1-1-1V91A1.144,1.144,0,0,1,111,90Z"/>
      <path id="Rounded_Rectangle_601_copy_6" data-name="Rounded Rectangle 601 copy 6" class="cls-7" d="M97,97h4a1.143,1.143,0,0,1,1,1v4a1.145,1.145,0,0,1-1,1H97a1.143,1.143,0,0,1-1-1V98A1.144,1.144,0,0,1,97,97Z"/>
      <path id="Rounded_Rectangle_601_copy_7" data-name="Rounded Rectangle 601 copy 7" class="cls-7" d="M104,97h4a1.143,1.143,0,0,1,1,1v4a1.145,1.145,0,0,1-1,1h-4a1.143,1.143,0,0,1-1-1V98A1.144,1.144,0,0,1,104,97Z"/>
      <path id="Rounded_Rectangle_601_copy_8" data-name="Rounded Rectangle 601 copy 8" class="cls-7" d="M111,97h4a1.143,1.143,0,0,1,1,1v4a1.145,1.145,0,0,1-1,1h-4a1.143,1.143,0,0,1-1-1V98A1.144,1.144,0,0,1,111,97Z"/>
      <path id="Rounded_Rectangle_602" data-name="Rounded Rectangle 602" class="cls-7" d="M118,83h5a0.864,0.864,0,0,1,1,1v4a0.865,0.865,0,0,1-1,1h-5a0.864,0.864,0,0,1-1-1V84A0.864,0.864,0,0,1,118,83Z"/>
      <path id="Rounded_Rectangle_602_copy" data-name="Rounded Rectangle 602 copy" class="cls-7" d="M118,90h5a0.864,0.864,0,0,1,1,1v11a0.865,0.865,0,0,1-1,1h-5a0.864,0.864,0,0,1-1-1V91A0.864,0.864,0,0,1,118,90Z"/>
    </g>
    <circle class="cls-10" cx="114.063" cy="46.281" r="10"/>
    <path id="_" data-name="$" class="cls-7" d="M115.8,49.733a1.845,1.845,0,0,1-1.272.4,1.912,1.912,0,0,1-1.287-.434,1.826,1.826,0,0,1-.509-1.458h-1.708l-0.014.037a3.021,3.021,0,0,0,.817,2.363,3.555,3.555,0,0,0,2.156.935V53h1.156V51.566a3.389,3.389,0,0,0,2.1-.9,3.115,3.115,0,0,0,.007-4.086,5.849,5.849,0,0,0-2.3-1.259,4.205,4.205,0,0,1-1.425-.773,1.367,1.367,0,0,1-.385-1.016,1.527,1.527,0,0,1,.37-1.079,1.484,1.484,0,0,1,1.142-.4,1.394,1.394,0,0,1,1.141.5A2.072,2.072,0,0,1,116.2,43.9h1.708l0.022-.037a3.336,3.336,0,0,0-.683-2.231,2.939,2.939,0,0,0-1.963-1.016V39h-1.156v1.6a3.141,3.141,0,0,0-2.013.931,2.826,2.826,0,0,0-.735,2.013,2.747,2.747,0,0,0,.771,2.058,5.862,5.862,0,0,0,2.312,1.255,3.71,3.71,0,0,1,1.377.755,1.412,1.412,0,0,1,.4,1.034A1.379,1.379,0,0,1,115.8,49.733Z"/>
  </g>
</svg>
