<svg id="icon" xmlns="http://www.w3.org/2000/svg" width="178" height="122" viewBox="0 0 178 122">
  <defs>
    <style>
      .cls-1 {
        fill: #eef3fe;
      }

      .cls-1, .cls-2, .cls-4, .cls-5, .cls-6, .cls-8, .cls-9 {
        fill-rule: evenodd;
      }

      .cls-2, .cls-8 {
        fill: #fff;
      }

      .cls-2 {
        stroke: #e3e3e3;
        stroke-linejoin: round;
        stroke-width: 1px;
      }

      .cls-3 {
        fill: #e3e3e3;
      }

      .cls-5 {
        fill: #e68310;
      }

      .cls-6 {
        fill: #f9e0a6;
      }

      .cls-7 {
        fill: #7879dc;
      }

      .cls-9 {
        fill: #36be8f;
      }
    </style>
  </defs>
  <path class="cls-1" d="M19,68.019c0.518-12.348,3.106-22.638,28.987-30.87S81.739,25.287,94.68,17.569c10.426-6.394,42.473-5.832,57.974,15.435,10.784,14.8,10.007,34.037-2.07,47.334-10.26,11.3-31.5,20.432-52.8,24.7-21.692,4.344-37.893,1.057-53.939-5.117S18.655,82.768,19,68.019Z"/>
  <g id="icon-2" data-name="icon">
    <g id="icon-3" data-name="icon">
      <g id="File">
        <path class="cls-2" d="M127,25v75H70c-0.912,0-1,.242-1,1v1c0,2.424-2.567,4-5,4a3.75,3.75,0,0,1-4-4V24c0-1.667-1.24-2.788-2-4h64C124.749,20,127,21.551,127,25Z"/>
        <path id="Shape_706_copy_2" data-name="Shape 706 copy 2" class="cls-2" d="M69,100h62v2c0,2.273-2.414,4-5,4H65c0.912-1.212,2.469-.58,3-3Z"/>
        <path id="Shape_706_copy" data-name="Shape 706 copy" class="cls-2" d="M56,20h0.27C58.7,20,60,21.576,60,24v6H52V24C51.848,21.576,53.567,20,56,20Z"/>
      </g>
      <rect id="Rounded_Rectangle_602" data-name="Rounded Rectangle 602" class="cls-3" x="70" y="43" width="45" height="2" rx="1" ry="1"/>
      <rect id="Rounded_Rectangle_602_copy" data-name="Rounded Rectangle 602 copy" class="cls-3" x="70" y="51" width="45" height="2" rx="1" ry="1"/>
      <rect id="Rounded_Rectangle_602_copy_2" data-name="Rounded Rectangle 602 copy 2" class="cls-3" x="70" y="59" width="45" height="2" rx="1" ry="1"/>
      <rect id="Rounded_Rectangle_602_copy_3" data-name="Rounded Rectangle 602 copy 3" class="cls-3" x="70" y="67" width="34" height="2" rx="1" ry="1"/>
      <path id="Invoice" class="cls-4" d="M70.013,35.878H70.93V28.084H70.013v7.794Zm7.348,0V32.515a4.681,4.681,0,0,0-.116-1.141,1.784,1.784,0,0,0-.343-0.718,1.193,1.193,0,0,0-.569-0.373,2.707,2.707,0,0,0-.8-0.106,2.323,2.323,0,0,0-1.066.228,2.007,2.007,0,0,0-.713.584H73.714l-0.166-.679H72.93v5.567h0.884V32.07a1.692,1.692,0,0,1,.536-0.8,1.461,1.461,0,0,1,.967-0.317,0.955,0.955,0,0,1,.912.44,2.723,2.723,0,0,1,.249,1.308v3.173h0.884Zm1.879-5.567H78.223L80.621,36H81l2.354-5.689H82.4l-1.238,3.24-0.276,1.08H80.875l-0.309-1.058Zm4.774,3.98a2.556,2.556,0,0,0,.442.924,1.955,1.955,0,0,0,.757.59,2.61,2.61,0,0,0,1.077.206,2.2,2.2,0,0,0,1.8-.751,3.308,3.308,0,0,0,.624-2.166,4.662,4.662,0,0,0-.144-1.2,2.563,2.563,0,0,0-.442-0.924,1.96,1.96,0,0,0-.757-0.59,2.613,2.613,0,0,0-1.078-.206,2.2,2.2,0,0,0-1.8.752,3.307,3.307,0,0,0-.624,2.165A4.65,4.65,0,0,0,84.014,34.291Zm2.276-3.335a1.33,1.33,0,0,1,.7.173,1.356,1.356,0,0,1,.464.462,2.154,2.154,0,0,1,.26.679,3.951,3.951,0,0,1,.083.824q0,2.149-1.5,2.138a1.3,1.3,0,0,1-.7-0.178,1.4,1.4,0,0,1-.464-0.468,2.152,2.152,0,0,1-.26-0.679,3.9,3.9,0,0,1-.083-0.813q0-2.149,1.5-2.138h0Zm4,4.921h0.884V30.311H90.29v5.567Zm-0.017-6.836a0.6,0.6,0,0,0,.436.167,0.658,0.658,0,0,0,.453-0.167,0.541,0.541,0,0,0,.188-0.423,0.594,0.594,0,0,0-.188-0.44,0.625,0.625,0,0,0-.453-0.184,0.571,0.571,0,0,0-.436.184,0.622,0.622,0,0,0-.171.44A0.565,0.565,0,0,0,90.274,29.041Zm6.271,5.79a2.01,2.01,0,0,1-.514.278,1.951,1.951,0,0,1-.713.123,1.562,1.562,0,0,1-.779-0.178,1.452,1.452,0,0,1-.508-0.473,1.992,1.992,0,0,1-.276-0.679,3.814,3.814,0,0,1-.083-0.807q0-2.138,1.569-2.138a2.539,2.539,0,0,1,.663.084,2.4,2.4,0,0,1,.564.228l0.254-.768a2.743,2.743,0,0,0-.669-0.239,4.158,4.158,0,0,0-.9-0.084,2.173,2.173,0,0,0-1.779.752,3.328,3.328,0,0,0-.619,2.165,5.224,5.224,0,0,0,.127,1.2,2.515,2.515,0,0,0,.409.924,1.849,1.849,0,0,0,.724.59,2.554,2.554,0,0,0,1.083.206,3.482,3.482,0,0,0,.95-0.128,2.406,2.406,0,0,0,.785-0.373Zm4.951-.045a1.607,1.607,0,0,1-.564.312,2.233,2.233,0,0,1-.752.134,2.155,2.155,0,0,1-.823-0.139,1.34,1.34,0,0,1-.547-0.4,1.7,1.7,0,0,1-.309-0.64,3.428,3.428,0,0,1-.1-0.868h3.548a5.582,5.582,0,0,0,.066-0.813,2.856,2.856,0,0,0-.188-1.13,1.59,1.59,0,0,0-1.16-.98,3.457,3.457,0,0,0-.752-0.084,2.227,2.227,0,0,0-1.8.746,3.284,3.284,0,0,0-.63,2.171,4.63,4.63,0,0,0,.144,1.2,2.559,2.559,0,0,0,.442.919,1.947,1.947,0,0,0,.763.59,2.68,2.68,0,0,0,1.094.206,3.588,3.588,0,0,0,1.067-.156,2.487,2.487,0,0,0,.834-0.423Zm-0.664-3.49a1.719,1.719,0,0,1,.321,1.186H98.412a1.733,1.733,0,0,1,.47-1.18,1.524,1.524,0,0,1,1.044-.345A1.184,1.184,0,0,1,100.832,31.3Z"/>
    </g>
    <g id="Hand">
      <path class="cls-5" d="M50,97H63v10l-13-5V97Z"/>
      <path class="cls-6" d="M52,97L50.973,72.138A3.5,3.5,0,0,1,52,69.877L60.115,59.3A2.194,2.194,0,0,1,62.126,58h0a2.587,2.587,0,0,1,2.549,2.623v0.443A2.676,2.676,0,0,1,64.2,62.59l-3.908,8.072A12.735,12.735,0,0,0,60,74v4c0,0.808-.046,1.576-0.116,2.533l1,3.108h0l5.539-3.7a2.644,2.644,0,0,1,1.9-.808h0A2.724,2.724,0,0,1,71,81.892h0a2.8,2.8,0,0,1-.785,1.953L60.88,91.451,61,97H52Z"/>
    </g>
    <g id="Dollar">
      <circle class="cls-7" cx="130" cy="54" r="12"/>
      <path id="_" data-name="$" class="cls-8" d="M131.466,57.5a2.194,2.194,0,0,1-1.452.426,2.273,2.273,0,0,1-1.469-.466,1.893,1.893,0,0,1-.581-1.563h-1.95L126,55.934a3.126,3.126,0,0,0,.934,2.534,4.186,4.186,0,0,0,2.46,1V61h1.32V59.463a3.991,3.991,0,0,0,2.4-.963,2.83,2.83,0,0,0,.876-2.179,2.859,2.859,0,0,0-.867-2.2,6.813,6.813,0,0,0-2.627-1.35,4.888,4.888,0,0,1-1.626-.829,1.417,1.417,0,0,1-.44-1.09,1.578,1.578,0,0,1,.423-1.157,1.756,1.756,0,0,1,1.3-.43,1.637,1.637,0,0,1,1.3.533,2.127,2.127,0,0,1,.465,1.449h1.95l0.025-.039a3.2,3.2,0,0,0-3.021-3.482V45.987h-1.32v1.721a3.688,3.688,0,0,0-2.3,1,2.928,2.928,0,0,0-.839,2.159,2.852,2.852,0,0,0,.88,2.207,6.823,6.823,0,0,0,2.639,1.346,4.321,4.321,0,0,1,1.573.809,1.465,1.465,0,0,1,.46,1.109A1.436,1.436,0,0,1,131.466,57.5Z"/>
    </g>
    <path id="Paid" class="cls-9" d="M74.515,86.331a2.344,2.344,0,0,0,1.632-.528,1.981,1.981,0,0,0,0-2.807,2.332,2.332,0,0,0-1.632-.532H72.008V88.92h0.887v-2.59h1.62Zm-1.62-3.179h1.62a1.193,1.193,0,0,1,1.323,1.255,1.253,1.253,0,0,1-.329.889,1.3,1.3,0,0,1-.995.353h-1.62v-2.5ZM81.6,88.92a2.51,2.51,0,0,1-.1-0.47,4.43,4.43,0,0,1-.027-0.5v-2.31a1.459,1.459,0,0,0-.5-1.195,2.032,2.032,0,0,0-1.332-.415,2.081,2.081,0,0,0-1.366.435,1.143,1.143,0,0,0-.5.958l0.009,0.027,0.842-.009a0.635,0.635,0,0,1,.266-0.51,1.082,1.082,0,0,1,.7-0.213,1.035,1.035,0,0,1,.738.246,0.873,0.873,0,0,1,.261.667v0.474H79.628A2.669,2.669,0,0,0,78.1,86.5a1.234,1.234,0,0,0-.565,1.075,1.4,1.4,0,0,0,.4,1.057,1.607,1.607,0,0,0,1.159.384,1.67,1.67,0,0,0,.857-0.233,2.056,2.056,0,0,0,.646-0.579,2.775,2.775,0,0,0,.029.335q0.025,0.166.07,0.383H81.6ZM78.62,88.1a0.653,0.653,0,0,1-.2-0.505,0.792,0.792,0,0,1,.322-0.625A1.3,1.3,0,0,1,79.6,86.7h0.995v0.78a1.164,1.164,0,0,1-.5.559,1.6,1.6,0,0,1-.869.244A0.856,0.856,0,0,1,78.62,88.1Zm5.1-3.973H82.837v4.8h0.887v-4.8Zm0-2.12H82.837v0.891h0.887V82Zm1.161,4.7a2.617,2.617,0,0,0,.5,1.674,1.681,1.681,0,0,0,1.4.636,1.784,1.784,0,0,0,.815-0.177,1.573,1.573,0,0,0,.59-0.523l0.135,0.607H89V82H88.117v2.638a1.552,1.552,0,0,0-.565-0.452,1.768,1.768,0,0,0-.758-0.155,1.625,1.625,0,0,0-1.407.709,3.166,3.166,0,0,0-.5,1.867V86.7Zm0.887-.093a2.645,2.645,0,0,1,.3-1.348,1.016,1.016,0,0,1,.943-0.519,1.185,1.185,0,0,1,.655.175,1.355,1.355,0,0,1,.443.472V87.63a1.331,1.331,0,0,1-.441.5,1.188,1.188,0,0,1-.666.177,1.059,1.059,0,0,1-.936-0.437,2.013,2.013,0,0,1-.3-1.164V86.61Z"/>
  </g>
</svg>
