<svg id="icon" xmlns="http://www.w3.org/2000/svg" width="178" height="122" viewBox="0 0 178 122">
  <defs>
    <style>
      .cls-1 {
        fill: #eef3fe;
      }

      .cls-1, .cls-2, .cls-4, .cls-6 {
        fill-rule: evenodd;
      }

      .cls-2, .cls-6 {
        fill: #fff;
      }

      .cls-2 {
        stroke: #e3e3e3;
        stroke-linejoin: round;
        stroke-width: 1px;
      }

      .cls-3 {
        fill: #e3e3e3;
      }

      .cls-5 {
        fill: #56d9a4;
      }

      .cls-7 {
        fill: #ffc501;
      }
    </style>
  </defs>
  <path class="cls-1" d="M19,68.019c0.518-12.348,3.106-22.638,28.987-30.87S81.739,25.287,94.68,17.569c10.426-6.394,42.473-5.832,57.974,15.435,10.784,14.8,10.007,34.037-2.07,47.334-10.26,11.3-31.5,20.432-52.8,24.7-21.692,4.344-37.893,1.057-53.939-5.117S18.655,82.768,19,68.019Z"/>
  <g>
    <g id="icon-2" data-name="icon">
      <g id="File">
        <path class="cls-2" d="M56,24.594C56,38.124,56,97,56,97c0,3.449,2.251,5,5,5h62c-0.761-1.212-2-2.333-2-4V22.968c0-2.637-2.6-3.968-4.747-3.968H61.858C56.23,19,56,20.952,56,24.594Z"/>
        <path id="Shape_706_copy" data-name="Shape 706 copy" class="cls-2" d="M125,102h-0.27c-2.433,0-3.73-1.576-3.73-4V92h8v6C129.152,100.424,127.433,102,125,102Z"/>
      </g>
      <rect id="Rounded_Rectangle_602" data-name="Rounded Rectangle 602" class="cls-3" x="66" y="46" width="45" height="2" rx="1" ry="1"/>
      <rect id="Rounded_Rectangle_602_copy" data-name="Rounded Rectangle 602 copy" class="cls-3" x="66" y="54" width="45" height="2" rx="1" ry="1"/>
      <rect id="Rounded_Rectangle_602_copy_2" data-name="Rounded Rectangle 602 copy 2" class="cls-3" x="66" y="62" width="45" height="2" rx="1" ry="1"/>
      <rect id="Rounded_Rectangle_602_copy_3" data-name="Rounded Rectangle 602 copy 3" class="cls-3" x="66" y="70" width="45" height="2" rx="1" ry="1"/>
      <rect id="Rounded_Rectangle_602_copy_4" data-name="Rounded Rectangle 602 copy 4" class="cls-3" x="66" y="89" width="23" height="2" rx="1" ry="1"/>
      <path id="Invoice" class="cls-4" d="M66.013,36.878H66.93V29.084H66.013v7.794Zm7.348,0V33.515a4.681,4.681,0,0,0-.116-1.141,1.784,1.784,0,0,0-.343-0.718,1.193,1.193,0,0,0-.569-0.373,2.707,2.707,0,0,0-.8-0.106,2.323,2.323,0,0,0-1.066.228,2.007,2.007,0,0,0-.713.584H69.714l-0.166-.679H68.93v5.567h0.884V33.07a1.692,1.692,0,0,1,.536-0.8,1.461,1.461,0,0,1,.967-0.317,0.955,0.955,0,0,1,.912.44,2.723,2.723,0,0,1,.249,1.308v3.173h0.884Zm1.879-5.567H74.223L76.621,37H77l2.354-5.689H78.4l-1.238,3.24-0.276,1.08H76.875l-0.309-1.058Zm4.774,3.98a2.556,2.556,0,0,0,.442.924,1.955,1.955,0,0,0,.757.59,2.61,2.61,0,0,0,1.077.206,2.2,2.2,0,0,0,1.8-.751,3.308,3.308,0,0,0,.624-2.166,4.662,4.662,0,0,0-.144-1.2,2.563,2.563,0,0,0-.442-0.924,1.96,1.96,0,0,0-.757-0.59,2.613,2.613,0,0,0-1.078-.206,2.2,2.2,0,0,0-1.8.752,3.307,3.307,0,0,0-.624,2.165A4.65,4.65,0,0,0,80.014,35.291Zm2.276-3.335a1.33,1.33,0,0,1,.7.173,1.356,1.356,0,0,1,.464.462,2.154,2.154,0,0,1,.26.679,3.951,3.951,0,0,1,.083.824q0,2.149-1.5,2.138a1.3,1.3,0,0,1-.7-0.178,1.4,1.4,0,0,1-.464-0.468,2.152,2.152,0,0,1-.26-0.679,3.9,3.9,0,0,1-.083-0.813q0-2.149,1.5-2.138h0Zm4,4.921h0.884V31.311H86.29v5.567Zm-0.017-6.836a0.6,0.6,0,0,0,.436.167,0.658,0.658,0,0,0,.453-0.167,0.541,0.541,0,0,0,.188-0.423,0.594,0.594,0,0,0-.188-0.44,0.625,0.625,0,0,0-.453-0.184,0.571,0.571,0,0,0-.436.184,0.622,0.622,0,0,0-.171.44A0.565,0.565,0,0,0,86.274,30.041Zm6.271,5.79a2.01,2.01,0,0,1-.514.278,1.951,1.951,0,0,1-.713.123,1.562,1.562,0,0,1-.779-0.178,1.452,1.452,0,0,1-.508-0.473,1.992,1.992,0,0,1-.276-0.679,3.814,3.814,0,0,1-.083-0.807q0-2.138,1.569-2.138a2.539,2.539,0,0,1,.663.084,2.4,2.4,0,0,1,.564.228l0.254-.768a2.743,2.743,0,0,0-.669-0.239,4.158,4.158,0,0,0-.9-0.084,2.173,2.173,0,0,0-1.779.752,3.328,3.328,0,0,0-.619,2.165,5.224,5.224,0,0,0,.127,1.2,2.515,2.515,0,0,0,.409.924,1.849,1.849,0,0,0,.724.59,2.554,2.554,0,0,0,1.083.206,3.482,3.482,0,0,0,.95-0.128,2.406,2.406,0,0,0,.785-0.373Zm4.951-.045a1.6,1.6,0,0,1-.564.312,2.23,2.23,0,0,1-.751.134,2.156,2.156,0,0,1-.823-0.139,1.34,1.34,0,0,1-.547-0.4,1.7,1.7,0,0,1-.309-0.64,3.428,3.428,0,0,1-.1-0.868h3.547a5.557,5.557,0,0,0,.066-0.813,2.852,2.852,0,0,0-.188-1.13,1.591,1.591,0,0,0-1.16-.98,3.453,3.453,0,0,0-.751-0.084,2.227,2.227,0,0,0-1.8.746,3.284,3.284,0,0,0-.63,2.171,4.63,4.63,0,0,0,.144,1.2,2.559,2.559,0,0,0,.442.919,1.947,1.947,0,0,0,.763.59,2.68,2.68,0,0,0,1.094.206,3.583,3.583,0,0,0,1.066-.156,2.488,2.488,0,0,0,.834-0.423ZM96.833,32.3a1.721,1.721,0,0,1,.32,1.186h-2.74a1.733,1.733,0,0,1,.47-1.18,1.524,1.524,0,0,1,1.044-.345A1.187,1.187,0,0,1,96.833,32.3Z"/>
    </g>
    <g id="Dollar-1">
      <circle class="cls-5" cx="128" cy="76" r="12"/>
      <path id="_" data-name="$" class="cls-6" d="M129.466,80.5a2.194,2.194,0,0,1-1.452.426,2.273,2.273,0,0,1-1.469-.466,1.893,1.893,0,0,1-.581-1.563h-1.95l-0.017.04a3.126,3.126,0,0,0,.934,2.534,4.186,4.186,0,0,0,2.46,1V84h1.32V82.463a3.991,3.991,0,0,0,2.4-.963,2.83,2.83,0,0,0,.876-2.179,2.859,2.859,0,0,0-.867-2.2,6.813,6.813,0,0,0-2.627-1.35,4.888,4.888,0,0,1-1.626-.829,1.417,1.417,0,0,1-.44-1.09,1.578,1.578,0,0,1,.423-1.157,1.756,1.756,0,0,1,1.3-.43,1.637,1.637,0,0,1,1.3.533,2.127,2.127,0,0,1,.465,1.449h1.95l0.025-.039a3.2,3.2,0,0,0-3.021-3.482V68.987h-1.32v1.721a3.688,3.688,0,0,0-2.3,1,2.928,2.928,0,0,0-.839,2.159,2.852,2.852,0,0,0,.88,2.207,6.823,6.823,0,0,0,2.639,1.346,4.321,4.321,0,0,1,1.573.809,1.465,1.465,0,0,1,.46,1.109A1.436,1.436,0,0,1,129.466,80.5Z"/>
    </g>
    <g id="Dollar2">
      <circle class="cls-7" cx="127" cy="46" r="8.406"/>
      <path id="_2" data-name="$" class="cls-6" d="M127.422,49.422a1.248,1.248,0,0,1-.912.312,1.3,1.3,0,0,1-.922-0.341,1.514,1.514,0,0,1-.364-1.145H124l-0.011.029a2.512,2.512,0,0,0,.586,1.856,2.448,2.448,0,0,0,1.545.734v1.122h0.828V50.862a2.328,2.328,0,0,0,1.507-.705,2.257,2.257,0,0,0,.55-1.6,2.29,2.29,0,0,0-.544-1.613,4.112,4.112,0,0,0-1.649-.988,2.956,2.956,0,0,1-1.021-.607,1.133,1.133,0,0,1-.276-0.8,1.272,1.272,0,0,1,.266-0.847,1.011,1.011,0,0,1,.818-0.315,0.961,0.961,0,0,1,.817.39,1.73,1.73,0,0,1,.292,1.061h1.224l0.016-.029a2.8,2.8,0,0,0-.49-1.752,2.052,2.052,0,0,0-1.406-.8V40.994h-0.828v1.26a2.178,2.178,0,0,0-1.443.731,2.347,2.347,0,0,0-.526,1.581,2.277,2.277,0,0,0,.552,1.616,4.111,4.111,0,0,0,1.656.986,2.593,2.593,0,0,1,.987.593,1.166,1.166,0,0,1,.289.812A1.139,1.139,0,0,1,127.422,49.422Z"/>
    </g>
  </g>
</svg>
