<svg id="icon" xmlns="http://www.w3.org/2000/svg" width="178" height="122" viewBox="0 0 178 122">
  <defs>
    <style>
      .cls-1 {
        fill: #eef3fe;
      }

      .cls-1, .cls-2, .cls-4, .cls-6 {
        fill-rule: evenodd;
      }

      .cls-2, .cls-6 {
        fill: #fff;
      }

      .cls-2 {
        stroke: #e3e3e3;
        stroke-linejoin: round;
        stroke-width: 1px;
      }

      .cls-3 {
        fill: #8388e4;
      }

      .cls-4 {
        fill: #f26989;
      }

      .cls-5 {
        fill: #fea84c;
      }
    </style>
  </defs>
  <path class="cls-1" d="M19,68.019c0.518-12.348,3.106-22.638,28.987-30.87S81.739,25.287,94.68,17.569c10.426-6.394,42.473-5.832,57.974,15.435,10.784,14.8,10.007,34.037-2.07,47.334-10.26,11.3-31.5,20.432-52.8,24.7-21.692,4.344-37.893,1.057-53.939-5.117S18.655,82.768,19,68.019Z"/>
  <g>
    <path class="cls-2" d="M47,36.564V93.417C47,96.057,48.673,98,52.141,98H124.1c4.761,0,5.905-1.721,5.905-5.718v-54.6C130,33.11,127.193,31,123.28,31H52.6C49.521,31,47,32.726,47,36.564Z"/>
    <rect id="Rounded_Rectangle_606" data-name="Rounded Rectangle 606" class="cls-3" x="60" y="58" width="4" height="34" rx="2" ry="2"/>
    <rect id="Rounded_Rectangle_606_copy" data-name="Rounded Rectangle 606 copy" class="cls-3" x="76" y="65" width="4" height="27" rx="2" ry="2"/>
    <rect id="Rounded_Rectangle_606_copy_2" data-name="Rounded Rectangle 606 copy 2" class="cls-3" x="92" y="69" width="4" height="23" rx="2" ry="2"/>
    <rect id="Rounded_Rectangle_606_copy_3" data-name="Rounded Rectangle 606 copy 3" class="cls-3" x="108" y="74" width="4" height="18" rx="2" ry="2"/>
    <path class="cls-4" d="M113.341,56.7a1.643,1.643,0,0,0-1.659,1.705v3.9a0.354,0.354,0,0,1-.592.244L95.33,47.685a1.473,1.473,0,0,0-2.133,0L83.125,56.576a0.53,0.53,0,0,1-.711,0L62.744,37.454a1.615,1.615,0,0,0-2.251,0,1.762,1.762,0,0,0,0,2.436L81.466,60.352a1.473,1.473,0,0,0,2.133,0l10.072-8.891a0.737,0.737,0,0,1,.711,0l14.456,13.52a0.342,0.342,0,0,1-.237.609H104.81a1.706,1.706,0,0,0,0,3.41h8.531A1.643,1.643,0,0,0,115,67.295v-8.77A1.678,1.678,0,0,0,113.341,56.7Z"/>
    <circle class="cls-5" cx="130" cy="48" r="9"/>
    <path id="_" data-name="$" class="cls-6" d="M131.108,51.187a1.587,1.587,0,0,1-1.093.34,1.651,1.651,0,0,1-1.107-.372,1.562,1.562,0,0,1-.437-1.248H127l-0.012.032a2.577,2.577,0,0,0,.7,2.023,3.06,3.06,0,0,0,1.853.8v1.223h0.994V52.756a2.922,2.922,0,0,0,1.809-.769,2.328,2.328,0,0,0,.659-1.739,2.353,2.353,0,0,0-.653-1.758,5.036,5.036,0,0,0-1.978-1.078,3.619,3.619,0,0,1-1.225-.662,1.168,1.168,0,0,1-.331-0.87,1.3,1.3,0,0,1,.319-0.923,1.276,1.276,0,0,1,.981-0.343,1.2,1.2,0,0,1,.981.425,1.768,1.768,0,0,1,.35,1.157h1.469l0.019-.032a2.851,2.851,0,0,0-.588-1.91,2.527,2.527,0,0,0-1.687-.87V42h-0.994v1.374a2.7,2.7,0,0,0-1.731.8,2.415,2.415,0,0,0-.632,1.724,2.346,2.346,0,0,0,.663,1.762,5.043,5.043,0,0,0,1.987,1.075,3.2,3.2,0,0,1,1.185.646,1.207,1.207,0,0,1,.347.886A1.18,1.18,0,0,1,131.108,51.187Z"/>
  </g>
</svg>
