<svg id="icon" xmlns="http://www.w3.org/2000/svg" width="178" height="122" viewBox="0 0 178 122">
  <defs>
    <style>
      .cls-1 {
        fill: #eef3fe;
      }

      .cls-1, .cls-10, .cls-13, .cls-15, .cls-16, .cls-17, .cls-3, .cls-4, .cls-5, .cls-6, .cls-7, .cls-8, .cls-9 {
        fill-rule: evenodd;
      }

      .cls-12, .cls-17, .cls-2 {
        fill: #fff;
      }

      .cls-2 {
        stroke: #e3e3e3;
        stroke-linejoin: round;
        stroke-width: 1px;
      }

      .cls-3 {
        fill: #343439;
      }

      .cls-4 {
        fill: #565657;
      }

      .cls-5 {
        fill: #de617e;
      }

      .cls-6 {
        fill: #ffc501;
      }

      .cls-7 {
        fill: #717070;
      }

      .cls-8 {
        opacity: 0.05;
      }

      .cls-9 {
        fill: #1b6abf;
      }

      .cls-10 {
        fill: #57b6f1;
      }

      .cls-11 {
        fill: #3d93f0;
      }

      .cls-13 {
        fill: #c8e6f8;
      }

      .cls-14, .cls-15 {
        fill: #fe8300;
      }

      .cls-16 {
        fill: #2669a9;
      }
    </style>
  </defs>
  <path class="cls-1" d="M8,68.019c0.518-12.348,3.106-22.638,28.987-30.87S70.739,25.287,83.68,17.569C94.106,11.175,126.153,11.737,141.654,33c10.784,14.8,10.007,34.037-2.07,47.334-10.26,11.3-31.5,20.432-52.8,24.7-21.692,4.344-37.893,1.057-53.939-5.117S7.655,82.768,8,68.019Z"/>
  <g id="Bar_copy" data-name="Bar copy">
    <rect id="Rounded_Rectangle_593" data-name="Rounded Rectangle 593" class="cls-2" x="7" y="15" width="135" height="86" rx="5" ry="5"/>
    <g id="Bar">
      <path id="Work_Orders" data-name="Work Orders" class="cls-3" d="M16.061,23.531h-1.05L16.741,30.9h0.868l1.455-5.111,0.1-.663H19.2l0.108,0.663L20.741,30.9h0.868l1.736-7.368H22.289l-1.026,4.813-0.133.987H21.1l-0.168-.987-1.282-4.813H18.7l-1.272,4.813-0.168.972-0.03-.005-0.123-.967Zm7.786,4.691a3.046,3.046,0,0,0,.643,2,2.345,2.345,0,0,0,3.494,0,3.051,3.051,0,0,0,.641-2V28.111a3.056,3.056,0,0,0-.643-2,2.335,2.335,0,0,0-3.494,0,3.066,3.066,0,0,0-.641,2v0.111Zm0.971-.111a2.655,2.655,0,0,1,.357-1.432,1.164,1.164,0,0,1,1.053-.572,1.18,1.18,0,0,1,1.063.572,2.627,2.627,0,0,1,.363,1.432v0.111a2.636,2.636,0,0,1-.36,1.437,1.273,1.273,0,0,1-2.118,0,2.649,2.649,0,0,1-.357-1.437V28.111Zm7.653-2.733a1.383,1.383,0,0,0-.163-0.038,1.171,1.171,0,0,0-.207-0.018,1.285,1.285,0,0,0-.767.238,1.888,1.888,0,0,0-.56.663l-0.094-.8H29.814V30.9h0.971V26.988a1.2,1.2,0,0,1,.407-0.526,1.092,1.092,0,0,1,.648-0.187l0.5,0.03ZM36.6,30.9h1.149l-2.106-2.95,1.938-2.525H36.416l-1.6,2.156H34.326V23H33.354V30.9h0.971V28.374h0.5Zm10.054-4.337a3.2,3.2,0,0,0-.816-2.244,2.737,2.737,0,0,0-2.118-.893,2.592,2.592,0,0,0-2.044.9,3.274,3.274,0,0,0-.786,2.242v1.311a3.262,3.262,0,0,0,.786,2.242,2.6,2.6,0,0,0,2.044.891,2.74,2.74,0,0,0,2.118-.891,3.192,3.192,0,0,0,.816-2.242V26.563Zm-0.971,1.311a2.55,2.55,0,0,1-.53,1.673,1.757,1.757,0,0,1-1.432.645,1.629,1.629,0,0,1-1.354-.648,2.635,2.635,0,0,1-.505-1.67V26.552a2.619,2.619,0,0,1,.505-1.66,1.629,1.629,0,0,1,1.354-.648,1.756,1.756,0,0,1,1.43.648,2.528,2.528,0,0,1,.532,1.66v1.321Zm4.9-2.5a1.383,1.383,0,0,0-.163-0.038,1.171,1.171,0,0,0-.207-0.018,1.285,1.285,0,0,0-.767.238,1.888,1.888,0,0,0-.56.663l-0.094-.8H47.92V30.9h0.971V26.988a1.2,1.2,0,0,1,.407-0.526,1.092,1.092,0,0,1,.648-0.187l0.5,0.03Zm0.562,2.991a3.074,3.074,0,0,0,.552,1.91,1.813,1.813,0,0,0,1.529.726,1.889,1.889,0,0,0,.892-0.2,1.748,1.748,0,0,0,.646-0.6L54.908,30.9h0.745V23H54.681v3.011a1.714,1.714,0,0,0-.619-0.516,1.869,1.869,0,0,0-.831-0.177,1.758,1.758,0,0,0-1.541.81,3.726,3.726,0,0,0-.55,2.131v0.106Zm0.971-.106a3.122,3.122,0,0,1,.333-1.539,1.1,1.1,0,0,1,1.033-.592,1.26,1.26,0,0,1,.718.2,1.523,1.523,0,0,1,.486.539v2.556a1.5,1.5,0,0,1-.483.567,1.262,1.262,0,0,1-.73.2,1.144,1.144,0,0,1-1.026-.5,2.371,2.371,0,0,1-.33-1.329V28.263Zm8.328,2.548a2.324,2.324,0,0,0,.755-0.478l-0.38-.648a1.922,1.922,0,0,1-.639.4,2.388,2.388,0,0,1-.865.144,1.229,1.229,0,0,1-1.085-.514,2.307,2.307,0,0,1-.355-1.339l0.015-.025H61.3V27.823a2.866,2.866,0,0,0-.535-1.817,1.913,1.913,0,0,0-1.605-.683,2.059,2.059,0,0,0-1.62.772,2.888,2.888,0,0,0-.663,1.951v0.223a2.95,2.95,0,0,0,.644,1.984,2.229,2.229,0,0,0,1.792.754A2.936,2.936,0,0,0,60.44,30.811Zm-0.4-4.314a1.624,1.624,0,0,1,.286.987v0.081H57.921l-0.01-.025a1.931,1.931,0,0,1,.407-1.03,1.045,1.045,0,0,1,.841-0.4A1.022,1.022,0,0,1,60.041,26.5Zm5.005-1.119a1.38,1.38,0,0,0-.163-0.038,1.172,1.172,0,0,0-.207-0.018,1.286,1.286,0,0,0-.767.238,1.887,1.887,0,0,0-.56.663l-0.094-.8H62.388V30.9H63.36V26.988a1.2,1.2,0,0,1,.407-0.526,1.093,1.093,0,0,1,.648-0.187l0.5,0.03ZM68.732,30a1.3,1.3,0,0,1-.811.225,1.459,1.459,0,0,1-.843-0.245,0.929,0.929,0,0,1-.385-0.777H65.766l-0.01.03a1.533,1.533,0,0,0,.557,1.24,2.688,2.688,0,0,0,3.109.071A1.455,1.455,0,0,0,70,29.356a1.223,1.223,0,0,0-.508-1.017,3.769,3.769,0,0,0-1.489-.6,2.389,2.389,0,0,1-.9-0.324,0.607,0.607,0,0,1-.219-0.5,0.751,0.751,0,0,1,.254-0.567,1.087,1.087,0,0,1,.767-0.238,1.068,1.068,0,0,1,.767.289,0.871,0.871,0,0,1,.3.643h0.927l0.01-.03a1.466,1.466,0,0,0-.538-1.179,2.4,2.4,0,0,0-2.907-.03,1.458,1.458,0,0,0-.555,1.144,1.185,1.185,0,0,0,.506,1,3.821,3.821,0,0,0,1.447.582,2.322,2.322,0,0,1,.925.364,0.672,0.672,0,0,1,.244.536A0.694,0.694,0,0,1,68.732,30Z"/>
      <g id="_1" data-name="1">
        <g id="_1_copy_5" data-name="1 copy 5">
          <path id="_1254" data-name="#1254" class="cls-4" d="M16.976,48.324h0.645l0.365-1.619H18.66l0.15-.62H18.127l0.29-1.27h0.711l0.15-.62h-0.72l0.355-1.531H18.267L17.912,44.2H16.93l0.355-1.531H16.64L16.284,44.2h-0.7l-0.131.62h0.692l-0.29,1.27H15.116l-0.131.62h0.729l-0.365,1.619h0.645l0.365-1.619h0.982Zm-0.187-3.509h0.982l-0.29,1.27H16.5Zm4.04,4.071h3.32V48.169H22.867V41.986H22.531l-2.057,1.648,0.355,0.494,1.029-.766,0.374-.456-0.093.572v4.691H20.829v0.717Zm8.145-5.907a1.494,1.494,0,0,0-.327-0.528,1.459,1.459,0,0,0-.524-0.344,1.937,1.937,0,0,0-.711-0.121,2.774,2.774,0,0,0-.963.165,2.4,2.4,0,0,0-.776.456l0.309,0.552a2.68,2.68,0,0,1,.58-0.344,1.682,1.682,0,0,1,.692-0.15,0.975,0.975,0,0,1,.795.315,1.2,1.2,0,0,1,.262.79,2.772,2.772,0,0,1-.15.863,5.842,5.842,0,0,1-.4.921,10.343,10.343,0,0,1-.552.916q-0.3.451-.617,0.853t-0.6.732q-0.29.33-.5,0.553v0.281h3.722V48.169H27.178l-0.6.107V48.237l0.458-.417q0.365-.465.729-0.984a10.77,10.77,0,0,0,.659-1.061,6.946,6.946,0,0,0,.477-1.081,3.267,3.267,0,0,0,.182-1.052A1.911,1.911,0,0,0,28.974,42.979Zm2.417,5.3a2.281,2.281,0,0,1-.463-0.131l-0.2.659a2.8,2.8,0,0,0,.542.145,4.4,4.4,0,0,0,.711.048,2.62,2.62,0,0,0,.879-0.145,2.041,2.041,0,0,0,.715-0.427,2,2,0,0,0,.481-0.7,2.465,2.465,0,0,0,.178-0.964,1.848,1.848,0,0,0-1.992-2.035l-0.4.019V42.819H34.06V42.1H31.143v3.354l0.785-.049a1.729,1.729,0,0,1,1.145.349,1.3,1.3,0,0,1,.416,1.056,1.452,1.452,0,0,1-.421,1.124A1.512,1.512,0,0,1,32,48.324,3.611,3.611,0,0,1,31.391,48.281Zm8.617-2.157H38.9V42H38.4l-3.1,4.488V46.8h2.88v2.084H38.9V46.8h1.1V46.124Zm-1.833,0H36.8l-0.654.078,0.449-.475,1.319-1.851,0.327-.659h0.028l-0.093.795v2.113Z"/>
          <path id="_1264" data-name="#1264" class="cls-4" d="M16.976,69.324h0.645l0.365-1.619H18.66l0.15-.62H18.127l0.29-1.27h0.711l0.15-.62h-0.72l0.355-1.531H18.267L17.912,65.2H16.93l0.355-1.531H16.64L16.284,65.2h-0.7l-0.131.62h0.692l-0.29,1.27H15.116l-0.131.62h0.729l-0.365,1.619h0.645l0.365-1.619h0.982Zm-0.187-3.509h0.982l-0.29,1.27H16.5Zm4.04,4.071h3.32V69.169H22.867V62.986H22.531l-2.057,1.648,0.355,0.494,1.029-.766,0.374-.456-0.093.572v4.691H20.829v0.717Zm8.145-5.907a1.494,1.494,0,0,0-.327-0.528,1.459,1.459,0,0,0-.524-0.344,1.937,1.937,0,0,0-.711-0.121,2.774,2.774,0,0,0-.963.165,2.4,2.4,0,0,0-.776.456l0.309,0.552a2.68,2.68,0,0,1,.58-0.344,1.682,1.682,0,0,1,.692-0.15,0.975,0.975,0,0,1,.795.315,1.2,1.2,0,0,1,.262.79,2.772,2.772,0,0,1-.15.863,5.842,5.842,0,0,1-.4.921,10.343,10.343,0,0,1-.552.916q-0.3.451-.617,0.853t-0.6.732q-0.29.33-.5,0.553v0.281h3.722V69.169H27.178l-0.6.107V69.237l0.458-.417q0.365-.465.729-0.984a10.77,10.77,0,0,0,.659-1.061,6.946,6.946,0,0,0,.477-1.081,3.267,3.267,0,0,0,.182-1.052A1.911,1.911,0,0,0,28.974,63.979Zm5.138,2.4a1.818,1.818,0,0,0-1.379-.523,1.632,1.632,0,0,0-.87.218,1.41,1.41,0,0,0-.5.48,4.177,4.177,0,0,1,.281-1.018,3.6,3.6,0,0,1,.528-0.892,3.085,3.085,0,0,1,.753-0.669,2.686,2.686,0,0,1,.954-0.368l-0.159-.62a3.074,3.074,0,0,0-1.248.47,3.62,3.62,0,0,0-1,.974,4.808,4.808,0,0,0-.659,1.41,6.241,6.241,0,0,0-.238,1.769,3.321,3.321,0,0,0,.145,1.027,2.082,2.082,0,0,0,.416.751,1.746,1.746,0,0,0,.645.46A2.18,2.18,0,0,0,32.62,70a2.041,2.041,0,0,0,.851-0.17,1.774,1.774,0,0,0,.627-0.465,2.041,2.041,0,0,0,.383-0.688,2.632,2.632,0,0,0,.131-0.838A2.033,2.033,0,0,0,34.112,66.378Zm-0.365,2.1a1.326,1.326,0,0,1-.248.446,1.169,1.169,0,0,1-.379.291,1.109,1.109,0,0,1-.491.107,1.165,1.165,0,0,1-.584-0.141,1.321,1.321,0,0,1-.416-0.368,1.55,1.55,0,0,1-.248-0.519,2.231,2.231,0,0,1-.079-0.591V67.512a1.693,1.693,0,0,1,.019-0.223,1.308,1.308,0,0,1,.463-0.523,1.341,1.341,0,0,1,.79-0.233,1.209,1.209,0,0,1,.954.349,1.523,1.523,0,0,1,.309,1.037A1.738,1.738,0,0,1,33.747,68.481Zm6.26-1.357H38.9V63H38.4l-3.1,4.488V67.8h2.88v2.084H38.9V67.8h1.1V67.124Zm-1.833,0H36.8l-0.654.078,0.449-.475,1.319-1.851,0.327-.659h0.028l-0.093.795v2.113Z"/>
          <path id="_1278" data-name="#1278" class="cls-4" d="M17.011,91.324h0.657l0.371-1.619h0.685l0.152-.62H18.181l0.295-1.27H19.2l0.152-.62H18.619l0.361-1.531H18.324L17.962,87.2h-1l0.362-1.531H16.668L16.307,87.2H15.593l-0.133.62h0.7l-0.295,1.27H15.118l-0.133.62h0.742l-0.371,1.619h0.657l0.371-1.619h1Zm-0.19-3.509h1l-0.295,1.27h-1Zm4.11,4.071h3.377V91.169H23V84.986H22.662l-2.093,1.648,0.361,0.494,1.047-.766,0.381-.456-0.1.572v4.691H20.931v0.717Zm8.287-5.907a1.459,1.459,0,0,0-.866-0.872,2,2,0,0,0-.723-0.121,2.866,2.866,0,0,0-.98.165,2.452,2.452,0,0,0-.79.456l0.314,0.552a2.734,2.734,0,0,1,.59-0.344,1.737,1.737,0,0,1,.7-0.15,1,1,0,0,1,.809.315,1.182,1.182,0,0,1,.266.79,2.727,2.727,0,0,1-.152.863,5.792,5.792,0,0,1-.4.921,10.321,10.321,0,0,1-.561.916q-0.309.451-.628,0.853t-0.614.732q-0.3.33-.5,0.553v0.281h3.787V91.169H27.39l-0.609.107V91.237l0.466-.417q0.371-.465.742-0.984a10.743,10.743,0,0,0,.671-1.061,6.868,6.868,0,0,0,.485-1.081,3.214,3.214,0,0,0,.186-1.052A1.882,1.882,0,0,0,29.217,85.979Zm2.864,5.907,2.75-6.523V85.1H30.853v0.717h2.711l0.561-.087-0.419.475-2.388,5.68h0.761Zm4.148-.935a1.518,1.518,0,0,0,.366.548,1.762,1.762,0,0,0,.595.368A2.239,2.239,0,0,0,38,92a2.383,2.383,0,0,0,.847-0.141,1.825,1.825,0,0,0,.628-0.388,1.623,1.623,0,0,0,.39-0.591A2.091,2.091,0,0,0,40,90.123a1.8,1.8,0,0,0-.1-0.606,1.71,1.71,0,0,0-.262-0.48,2.25,2.25,0,0,0-.39-0.388,4.334,4.334,0,0,0-.471-0.32A2.828,2.828,0,0,0,39.6,87.5a1.889,1.889,0,0,0,.247-0.974,1.525,1.525,0,0,0-.124-0.62,1.426,1.426,0,0,0-.347-0.485,1.611,1.611,0,0,0-.547-0.32,2.124,2.124,0,0,0-.723-0.116,2.182,2.182,0,0,0-.766.126,1.751,1.751,0,0,0-.58.349,1.487,1.487,0,0,0-.371.533,1.783,1.783,0,0,0-.128.688,1.715,1.715,0,0,0,.09.582,1.654,1.654,0,0,0,.247.456,2.049,2.049,0,0,0,.361.364,4.7,4.7,0,0,0,.442.305,2.838,2.838,0,0,0-.98.819,1.81,1.81,0,0,0-.314,1.061A1.852,1.852,0,0,0,36.229,90.951Zm2.925-.271a1.011,1.011,0,0,1-.266.359,1.153,1.153,0,0,1-.385.213,1.438,1.438,0,0,1-.457.073,1.353,1.353,0,0,1-.519-0.092,1.111,1.111,0,0,1-.376-0.247,1,1,0,0,1-.228-0.368,1.315,1.315,0,0,1-.076-0.446,1.5,1.5,0,0,1,.247-0.775,2.217,2.217,0,0,1,.828-0.737q0.257,0.136.495,0.281a2.433,2.433,0,0,1,.423.325,1.554,1.554,0,0,1,.3.4,1.082,1.082,0,0,1,.114.509A1.211,1.211,0,0,1,39.154,90.68Zm-2.084-4.391a0.879,0.879,0,0,1,.214-0.315,1.171,1.171,0,0,1,.343-0.223,1.13,1.13,0,0,1,.457-0.087,1.044,1.044,0,0,1,.718.267,0.965,0.965,0,0,1,.3.761,1.351,1.351,0,0,1-.2.727,2.72,2.72,0,0,1-.633.669q-0.248-.126-0.476-0.266a2.518,2.518,0,0,1-.4-0.305,1.314,1.314,0,0,1-.281-0.373,1.053,1.053,0,0,1-.1-0.48A1,1,0,0,1,37.071,86.289Z"/>
          <path id="Repair_" data-name="Repair " class="cls-4" d="M49,70.022h0.828V66.874L50.8,67.023l1.925,3H53.7l-1.736-2.751L51.483,66.9a2.171,2.171,0,0,0,1.137-.675,2.181,2.181,0,0,0,.259-2.215,1.67,1.67,0,0,0-.5-0.6,2.03,2.03,0,0,0-.728-0.328,3.737,3.737,0,0,0-.873-0.1q-0.409,0-.9.04T49,63.14v6.882Zm2.823-5.968a1.162,1.162,0,0,1,.369.884,1.231,1.231,0,0,1-.449,1.053,1.838,1.838,0,0,1-1.137.338H49.827V63.765a1.028,1.028,0,0,1,.184-0.03l0.244-.02q0.13-.01.269-0.01h0.269A1.44,1.44,0,0,1,51.822,64.053Zm5.895,5a1.445,1.445,0,0,1-.509.278,2.037,2.037,0,0,1-.678.119,1.968,1.968,0,0,1-.743-0.124,1.209,1.209,0,0,1-.494-0.358,1.5,1.5,0,0,1-.279-0.571,3.021,3.021,0,0,1-.09-0.775h3.2a4.912,4.912,0,0,0,.06-0.725,2.517,2.517,0,0,0-.17-1.008,1.5,1.5,0,0,0-.439-0.591,1.511,1.511,0,0,0-.608-0.283,3.158,3.158,0,0,0-.678-0.075,2.021,2.021,0,0,0-1.626.665,2.9,2.9,0,0,0-.569,1.937,4.086,4.086,0,0,0,.13,1.073,2.271,2.271,0,0,0,.4.819,1.756,1.756,0,0,0,.688.526,2.445,2.445,0,0,0,.988.184A3.272,3.272,0,0,0,57.263,70a2.258,2.258,0,0,0,.753-0.377Zm-0.6-3.113a1.522,1.522,0,0,1,.289,1.058H54.934a1.536,1.536,0,0,1,.424-1.053,1.386,1.386,0,0,1,.943-0.308A1.078,1.078,0,0,1,57.119,65.935Zm2.324,6.073h0.8V69.942a2.368,2.368,0,0,0,.464.154,2.993,2.993,0,0,0,.583.045,2.3,2.3,0,0,0,.943-0.189,2.03,2.03,0,0,0,.723-0.536,2.457,2.457,0,0,0,.464-0.849,3.6,3.6,0,0,0,.165-1.127,2.992,2.992,0,0,0-.489-1.917,2.107,2.107,0,0,0-2.319-.4,1.523,1.523,0,0,0-.593.531h-0.04l-0.15-.6H59.443v6.952Zm2.618-6.247a1.076,1.076,0,0,1,.4.362,1.619,1.619,0,0,1,.224.566,3.622,3.622,0,0,1,.07.74,2.391,2.391,0,0,1-.4,1.5,1.318,1.318,0,0,1-1.092.511,2.023,2.023,0,0,1-.608-0.075,1.33,1.33,0,0,1-.409-0.213V66.695a1.467,1.467,0,0,1,.414-0.8,1.161,1.161,0,0,1,.8-0.263A1.282,1.282,0,0,1,62.061,65.761Zm2.947,0.268a1.947,1.947,0,0,1,.324-0.148,3.277,3.277,0,0,1,.389-0.112q0.2-.046.4-0.072a2.809,2.809,0,0,1,.364-0.026,1.127,1.127,0,0,1,.8.219,1.064,1.064,0,0,1,.22.765q0,0.238-.03.536a1.953,1.953,0,0,0-.274-0.02H66.923a6.205,6.205,0,0,0-1,.075,2.5,2.5,0,0,0-.778.248,1.292,1.292,0,0,0-.5.467,1.375,1.375,0,0,0-.18.73,1.429,1.429,0,0,0,.115.586,1.319,1.319,0,0,0,.314.442,1.384,1.384,0,0,0,.474.283,1.733,1.733,0,0,0,.593.1,2.128,2.128,0,0,0,.569-0.07,2.054,2.054,0,0,0,.439-0.174,1.44,1.44,0,0,0,.324-0.238,1.646,1.646,0,0,0,.224-0.273h0.05l0.209,0.7H68.36a3.262,3.262,0,0,1-.11-0.606q-0.03-.328-0.03-0.7,0-.506.03-1.073t0.03-1.162a2.674,2.674,0,0,0-.055-0.536,1.239,1.239,0,0,0-.219-0.492,1.161,1.161,0,0,0-.479-0.363,2.088,2.088,0,0,0-.833-0.139,4.953,4.953,0,0,0-1.052.109,2.882,2.882,0,0,0-.883.338Zm0.529,3.153a0.732,0.732,0,0,1-.249-0.571,0.628,0.628,0,0,1,.135-0.412,0.911,0.911,0,0,1,.359-0.258,1.919,1.919,0,0,1,.519-0.129,5.134,5.134,0,0,1,.6-0.035q0.139,0,.284.005T67.472,67.8v0.824a1.124,1.124,0,0,1-.155.268,1.2,1.2,0,0,1-.264.253,1.443,1.443,0,0,1-.379.189,1.548,1.548,0,0,1-.5.075A0.92,0.92,0,0,1,65.537,69.183Zm4.419,0.839h0.8V65.056h-0.8v4.965Zm-0.015-6.1a0.544,0.544,0,0,0,.394.149,0.6,0.6,0,0,0,.409-0.149,0.48,0.48,0,0,0,.169-0.377,0.527,0.527,0,0,0-.169-0.392,0.568,0.568,0,0,0-.409-0.164,0.518,0.518,0,0,0-.394.164,0.551,0.551,0,0,0-.155.392A0.5,0.5,0,0,0,69.941,63.924Zm5.042,1.132a2.462,2.462,0,0,0-.648-0.1,1.154,1.154,0,0,0-.673.184,1.534,1.534,0,0,0-.454.521h-0.04l-0.15-.606H72.459v4.965h0.8V66.546a1.014,1.014,0,0,1,.309-0.591,0.953,0.953,0,0,1,.678-0.233,1.809,1.809,0,0,1,.569.1Z"/>
          <path id="Installation" class="cls-4" d="M49.012,91.886h0.778V85.069H49.012v6.817Zm6.236,0V88.945a4.214,4.214,0,0,0-.1-1,1.58,1.58,0,0,0-.291-0.628,1.01,1.01,0,0,0-.483-0.326A2.233,2.233,0,0,0,53.7,86.9a1.922,1.922,0,0,0-.9.2,1.714,1.714,0,0,0-.6.511H52.154l-0.141-.594H51.488v4.87h0.75V88.555a1.483,1.483,0,0,1,.455-0.7,1.216,1.216,0,0,1,.821-0.278,0.8,0.8,0,0,1,.774.385A2.445,2.445,0,0,1,54.5,89.11v2.776h0.75Zm3.17-.73a1.227,1.227,0,0,1-.666.166,2.365,2.365,0,0,1-.7-0.107,2.688,2.688,0,0,1-.563-0.234l-0.225.662a2.8,2.8,0,0,0,.628.253A3.354,3.354,0,0,0,57.8,92a2.081,2.081,0,0,0,.717-0.112,1.472,1.472,0,0,0,.511-0.307,1.187,1.187,0,0,0,.3-0.468,1.7,1.7,0,0,0,.1-0.584,1.31,1.31,0,0,0-.169-0.706,1.544,1.544,0,0,0-.417-0.443A2.3,2.3,0,0,0,58.3,89.1q-0.3-.107-0.544-0.219a1.792,1.792,0,0,1-.417-0.253,0.486,0.486,0,0,1-.169-0.394,0.6,0.6,0,0,1,.192-0.507,1,1,0,0,1,.6-0.146,2.482,2.482,0,0,1,.652.083,2.89,2.89,0,0,1,.52.19l0.178-.643a3.223,3.223,0,0,0-.6-0.219,3.312,3.312,0,0,0-.849-0.092,1.6,1.6,0,0,0-1.069.326,1.275,1.275,0,0,0-.385,1.027,1.214,1.214,0,0,0,.169.682,1.431,1.431,0,0,0,.417.414,2.51,2.51,0,0,0,.544.263q0.3,0.1.544,0.214a1.429,1.429,0,0,1,.417.278,0.612,0.612,0,0,1,.169.458A0.647,0.647,0,0,1,58.418,91.156ZM59.947,87.7h0.731v2.844a2.032,2.032,0,0,0,.235,1.125,0.914,0.914,0,0,0,.806.336,2.571,2.571,0,0,0,.647-0.078,2.815,2.815,0,0,0,.553-0.2l-0.169-.594q-0.206.088-.375,0.141a1.375,1.375,0,0,1-.413.054,0.438,0.438,0,0,1-.413-0.209,1.517,1.517,0,0,1-.122-0.716V87.7H62.7V87.017H61.428V85.828l-0.75.224v0.964H59.947V87.7ZM63.9,87.971a1.792,1.792,0,0,1,.3-0.145,2.99,2.99,0,0,1,.366-0.11q0.192-.045.375-0.07a2.529,2.529,0,0,1,.342-0.025,1.029,1.029,0,0,1,.75.214,1.074,1.074,0,0,1,.206.75q0,0.234-.028.526a1.769,1.769,0,0,0-.258-0.019H65.7a5.6,5.6,0,0,0-.942.073,2.279,2.279,0,0,0-.731.243,1.238,1.238,0,0,0-.474.458,1.394,1.394,0,0,0-.169.716,1.452,1.452,0,0,0,.108.575,1.273,1.273,0,0,0,.741.711,1.569,1.569,0,0,0,.558.1,1.922,1.922,0,0,0,.535-0.068,1.882,1.882,0,0,0,.413-0.17,1.356,1.356,0,0,0,.3-0.234,1.6,1.6,0,0,0,.211-0.268H66.3l0.2,0.682h0.553a3.323,3.323,0,0,1-.1-0.594q-0.028-.321-0.028-0.682,0-.5.028-1.052t0.028-1.139a2.733,2.733,0,0,0-.052-0.526,1.24,1.24,0,0,0-.206-0.482,1.1,1.1,0,0,0-.45-0.356,1.891,1.891,0,0,0-.783-0.136,4.471,4.471,0,0,0-.989.107,2.645,2.645,0,0,0-.83.331Zm0.5,3.092a0.733,0.733,0,0,1-.234-0.56,0.633,0.633,0,0,1,.127-0.4,0.86,0.86,0,0,1,.338-0.253,1.746,1.746,0,0,1,.488-0.127,4.64,4.64,0,0,1,.567-0.034q0.131,0,.267,0T66.22,89.7v0.808a1.119,1.119,0,0,1-.145.263,1.152,1.152,0,0,1-.249.248,1.338,1.338,0,0,1-.356.185,1.4,1.4,0,0,1-.469.073A0.844,0.844,0,0,1,64.4,91.063Zm4.83-5.995H68.48v5.843a1.1,1.1,0,0,0,.272.843,0.99,0.99,0,0,0,.694.248,2.645,2.645,0,0,0,.464-0.049,1.525,1.525,0,0,0,.417-0.127l-0.084-.614a1.468,1.468,0,0,1-.319.088,1.9,1.9,0,0,1-.263.02,0.379,0.379,0,0,1-.319-0.146,0.812,0.812,0,0,1-.112-0.487v-5.62Zm2.738,0h-0.75v5.843a1.1,1.1,0,0,0,.272.843,0.99,0.99,0,0,0,.694.248,2.645,2.645,0,0,0,.464-0.049,1.523,1.523,0,0,0,.417-0.127l-0.084-.614a1.467,1.467,0,0,1-.319.088,1.9,1.9,0,0,1-.263.02,0.379,0.379,0,0,1-.319-0.146,0.812,0.812,0,0,1-.113-0.487v-5.62Zm2.063,2.9a1.791,1.791,0,0,1,.3-0.145,2.992,2.992,0,0,1,.366-0.11q0.192-.045.375-0.07a2.529,2.529,0,0,1,.342-0.025,1.029,1.029,0,0,1,.75.214,1.074,1.074,0,0,1,.206.75q0,0.234-.028.526a1.77,1.77,0,0,0-.258-0.019H75.832a5.6,5.6,0,0,0-.942.073,2.278,2.278,0,0,0-.731.243,1.237,1.237,0,0,0-.474.458,1.393,1.393,0,0,0-.169.716,1.454,1.454,0,0,0,.108.575,1.273,1.273,0,0,0,.741.711,1.568,1.568,0,0,0,.558.1,1.923,1.923,0,0,0,.535-0.068,1.882,1.882,0,0,0,.413-0.17,1.356,1.356,0,0,0,.3-0.234,1.606,1.606,0,0,0,.211-0.268h0.047l0.2,0.682h0.553a3.331,3.331,0,0,1-.1-0.594q-0.028-.321-0.028-0.682,0-.5.028-1.052t0.028-1.139a2.733,2.733,0,0,0-.052-0.526,1.242,1.242,0,0,0-.206-0.482,1.1,1.1,0,0,0-.45-0.356,1.89,1.89,0,0,0-.783-0.136,4.473,4.473,0,0,0-.989.107,2.644,2.644,0,0,0-.83.331Zm0.5,3.092a0.732,0.732,0,0,1-.234-0.56,0.633,0.633,0,0,1,.127-0.4,0.861,0.861,0,0,1,.338-0.253,1.748,1.748,0,0,1,.488-0.127,4.639,4.639,0,0,1,.567-0.034q0.131,0,.267,0T76.348,89.7v0.808a1.12,1.12,0,0,1-.145.263,1.151,1.151,0,0,1-.249.248,1.339,1.339,0,0,1-.356.185,1.4,1.4,0,0,1-.469.073A0.844,0.844,0,0,1,74.529,91.063ZM77.9,87.7h0.731v2.844a2.032,2.032,0,0,0,.235,1.125,0.914,0.914,0,0,0,.806.336,2.571,2.571,0,0,0,.647-0.078,2.815,2.815,0,0,0,.553-0.2l-0.169-.594q-0.206.088-.375,0.141a1.375,1.375,0,0,1-.413.054,0.438,0.438,0,0,1-.413-0.209,1.517,1.517,0,0,1-.122-0.716V87.7h1.275V87.017H79.386V85.828l-0.75.224v0.964H77.9V87.7Zm3.957,4.188h0.75v-4.87h-0.75v4.87Zm-0.014-5.98a0.5,0.5,0,0,0,.37.146,0.549,0.549,0,0,0,.385-0.146,0.48,0.48,0,0,0,.16-0.37,0.547,0.547,0,0,0-.544-0.545,0.477,0.477,0,0,0-.37.161,0.553,0.553,0,0,0-.145.385A0.5,0.5,0,0,0,81.848,85.906ZM84.075,90.5a2.265,2.265,0,0,0,.375.808,1.667,1.667,0,0,0,.642.516,2.157,2.157,0,0,0,.914.18,1.844,1.844,0,0,0,1.524-.657,2.956,2.956,0,0,0,.53-1.894,4.193,4.193,0,0,0-.122-1.047,2.271,2.271,0,0,0-.375-0.808,1.67,1.67,0,0,0-.642-0.516,2.159,2.159,0,0,0-.914-0.18,1.843,1.843,0,0,0-1.524.657,2.956,2.956,0,0,0-.53,1.894A4.181,4.181,0,0,0,84.075,90.5Zm1.932-2.917a1.1,1.1,0,0,1,.591.151,1.169,1.169,0,0,1,.394.4,1.92,1.92,0,0,1,.22.594,3.56,3.56,0,0,1,.07.721q0,1.88-1.275,1.87a1.073,1.073,0,0,1-.591-0.156,1.207,1.207,0,0,1-.394-0.409,1.915,1.915,0,0,1-.22-0.594,3.515,3.515,0,0,1-.07-0.711q0-1.88,1.275-1.87h0Zm7,4.3V88.945a4.214,4.214,0,0,0-.1-1,1.58,1.58,0,0,0-.291-0.628,1.01,1.01,0,0,0-.483-0.326,2.233,2.233,0,0,0-.675-0.092,1.922,1.922,0,0,0-.905.2,1.714,1.714,0,0,0-.6.511H89.908l-0.141-.594H89.242v4.87h0.75V88.555a1.483,1.483,0,0,1,.455-0.7,1.215,1.215,0,0,1,.821-0.278,0.8,0.8,0,0,1,.774.385,2.445,2.445,0,0,1,.211,1.144v2.776H93Z"/>
          <path id="Service" class="cls-4" d="M52.1,47.665a1.041,1.041,0,0,1-.3.354,1.244,1.244,0,0,1-.455.2,2.416,2.416,0,0,1-.564.063,3.31,3.31,0,0,1-.918-0.118,2.809,2.809,0,0,1-.618-0.241l-0.255.717a2.944,2.944,0,0,0,.691.247A4.759,4.759,0,0,0,50.807,49a2.826,2.826,0,0,0,.909-0.136A1.945,1.945,0,0,0,52.4,48.48a1.648,1.648,0,0,0,.427-0.6,2.024,2.024,0,0,0,.146-0.785,1.635,1.635,0,0,0-.227-0.892,2.319,2.319,0,0,0-.568-0.615,4.471,4.471,0,0,0-.741-0.451q-0.4-.194-0.741-0.393a2.34,2.34,0,0,1-.568-0.451,0.942,0.942,0,0,1,.073-1.3,1.261,1.261,0,0,1,.9-0.286,3.822,3.822,0,0,1,.914.1,2.847,2.847,0,0,1,.614.21l0.227-.717a2.581,2.581,0,0,0-.709-0.223,5.371,5.371,0,0,0-1.009-.087,2.131,2.131,0,0,0-1.473.465,1.608,1.608,0,0,0-.518,1.26,1.718,1.718,0,0,0,.227.926,2.158,2.158,0,0,0,.568.611,3.939,3.939,0,0,0,.741.422,7.161,7.161,0,0,1,.741.373,2.294,2.294,0,0,1,.568.456,0.966,0.966,0,0,1,.227.664A1.058,1.058,0,0,1,52.1,47.665Zm5.042,0.271a1.294,1.294,0,0,1-.464.271,1.745,1.745,0,0,1-.618.116,1.689,1.689,0,0,1-.677-0.121,1.109,1.109,0,0,1-.45-0.349,1.514,1.514,0,0,1-.255-0.557,3.147,3.147,0,0,1-.082-0.756h2.919a5.107,5.107,0,0,0,.055-0.707,2.612,2.612,0,0,0-.155-0.984,1.456,1.456,0,0,0-.4-0.577A1.34,1.34,0,0,0,56.463,44a2.7,2.7,0,0,0-.618-0.073,1.786,1.786,0,0,0-1.482.649,2.975,2.975,0,0,0-.518,1.89,4.254,4.254,0,0,0,.118,1.047,2.285,2.285,0,0,0,.364.8,1.618,1.618,0,0,0,.627.514,2.1,2.1,0,0,0,.9.179,2.8,2.8,0,0,0,.877-0.136,2.009,2.009,0,0,0,.687-0.368ZM56.6,44.9a1.56,1.56,0,0,1,.264,1.032H54.608a1.554,1.554,0,0,1,.386-1.027,1.211,1.211,0,0,1,.859-0.3A0.947,0.947,0,0,1,56.6,44.9Zm4.419-.858a2.108,2.108,0,0,0-.591-0.1,1,1,0,0,0-.614.179,1.472,1.472,0,0,0-.414.509H59.363l-0.136-.591H58.718v4.846h0.727V45.494a1.014,1.014,0,0,1,.282-0.577,0.834,0.834,0,0,1,.618-0.228,1.551,1.551,0,0,1,.518.1Zm1.009,0H61.191l1.973,4.953h0.309L65.41,44.04H64.628l-1.018,2.821-0.227.94H63.373l-0.255-.921Zm4.319,4.846h0.727V44.04H66.346v4.846Zm-0.014-5.951a0.479,0.479,0,0,0,.359.145,0.525,0.525,0,0,0,.373-0.145,0.484,0.484,0,0,0,.155-0.368,0.532,0.532,0,0,0-.155-0.383,0.5,0.5,0,0,0-.373-0.16,0.457,0.457,0,0,0-.359.16,0.559,0.559,0,0,0-.141.383A0.507,0.507,0,0,0,66.333,42.936Zm5.16,5.04a1.627,1.627,0,0,1-.423.242,1.527,1.527,0,0,1-.586.107,1.167,1.167,0,0,1-1.059-.567,1.79,1.79,0,0,1-.227-0.591,3.514,3.514,0,0,1-.068-0.7q0-1.861,1.291-1.861a1.979,1.979,0,0,1,.546.073,1.915,1.915,0,0,1,.464.2l0.209-.669A2.179,2.179,0,0,0,71.088,44a3.245,3.245,0,0,0-.741-0.073,1.745,1.745,0,0,0-1.464.654,3.017,3.017,0,0,0-.509,1.885,4.806,4.806,0,0,0,.1,1.042,2.253,2.253,0,0,0,.337.8,1.544,1.544,0,0,0,.6.514A2,2,0,0,0,70.3,49a2.72,2.72,0,0,0,.782-0.111,1.934,1.934,0,0,0,.645-0.325Zm4.073-.039a1.294,1.294,0,0,1-.464.271,1.745,1.745,0,0,1-.618.116,1.689,1.689,0,0,1-.677-0.121,1.109,1.109,0,0,1-.45-0.349A1.512,1.512,0,0,1,73.1,47.3a3.146,3.146,0,0,1-.082-0.756h2.919a5.106,5.106,0,0,0,.055-0.707,2.612,2.612,0,0,0-.154-0.984,1.456,1.456,0,0,0-.4-0.577A1.34,1.34,0,0,0,74.884,44a2.7,2.7,0,0,0-.618-0.073,1.786,1.786,0,0,0-1.482.649,2.975,2.975,0,0,0-.518,1.89,4.254,4.254,0,0,0,.118,1.047,2.285,2.285,0,0,0,.364.8,1.618,1.618,0,0,0,.627.514,2.1,2.1,0,0,0,.9.179,2.8,2.8,0,0,0,.877-0.136,2.01,2.01,0,0,0,.687-0.368ZM75.02,44.9a1.56,1.56,0,0,1,.264,1.032H73.029a1.554,1.554,0,0,1,.386-1.027,1.211,1.211,0,0,1,.859-0.3A0.947,0.947,0,0,1,75.02,44.9Z"/>
          <path id="Urgent" class="cls-5" d="M104.617,46.357a1.849,1.849,0,0,1-.265,1.114,1.019,1.019,0,0,1-.862.345,1.709,1.709,0,0,1-.529-0.074,0.837,0.837,0,0,1-.379-0.246,1.069,1.069,0,0,1-.222-0.453,2.8,2.8,0,0,1-.071-0.685V42h-1.3v4.622q0,2.395,2.517,2.395a2.955,2.955,0,0,0,.956-0.148,1.814,1.814,0,0,0,.738-0.463,2.17,2.17,0,0,0,.473-0.8,3.463,3.463,0,0,0,.171-1.153V42h-1.23v4.356Zm5.081-2.385a1.726,1.726,0,0,0-.558-0.108,1.076,1.076,0,0,0-.644.2,1.333,1.333,0,0,0-.435.562h-0.038l-0.142-.651h-0.955V48.9h1.23V45.717a0.881,0.881,0,0,1,.3-0.468,0.844,0.844,0,0,1,.553-0.182,1.545,1.545,0,0,1,.53.108Zm4.552,0.177a4.4,4.4,0,0,0-.781-0.207,5.963,5.963,0,0,0-1.083-.089,2.232,2.232,0,0,0-1.76.68,2.92,2.92,0,0,0-.606,2,3.075,3.075,0,0,0,.449,1.853,1.61,1.61,0,0,0,1.368.591,1.347,1.347,0,0,0,1.173-.463h0.038v0.315a1.271,1.271,0,0,1-.232.813,1.073,1.073,0,0,1-.875.291,2.46,2.46,0,0,1-.714-0.089q-0.29-.089-0.507-0.177l-0.255,1.015a2.616,2.616,0,0,0,.591.207,4.617,4.617,0,0,0,1.074.1,2.24,2.24,0,0,0,1.562-.508,2.039,2.039,0,0,0,.558-1.582V44.15Zm-2.735,3.43a2.139,2.139,0,0,1-.227-1.094,2.05,2.05,0,0,1,.265-1.178,0.858,0.858,0,0,1,.738-0.369,1.829,1.829,0,0,1,.729.128v2.218a1.069,1.069,0,0,1-.3.5,0.823,0.823,0,0,1-.554.168A0.722,0.722,0,0,1,111.515,47.579Zm7.183,0.059a1.919,1.919,0,0,1-.469.251,1.855,1.855,0,0,1-.695.123,1.15,1.15,0,0,1-.9-0.315,1.482,1.482,0,0,1-.308-0.936h2.839c0.032-.171.055-0.335,0.071-0.493a4.409,4.409,0,0,0,.024-0.444,2.489,2.489,0,0,0-.161-0.956,1.593,1.593,0,0,0-.426-0.611,1.611,1.611,0,0,0-.605-0.325,2.519,2.519,0,0,0-.7-0.1,2.159,2.159,0,0,0-1.675.65,2.8,2.8,0,0,0-.6,1.951,3.077,3.077,0,0,0,.53,1.907,1.972,1.972,0,0,0,1.675.695,3.249,3.249,0,0,0,1.036-.163,2.367,2.367,0,0,0,.771-0.4Zm-0.743-2.493a1.287,1.287,0,0,1,.156.818h-1.76a1.516,1.516,0,0,1,.279-0.8,0.845,0.845,0,0,1,.714-0.3A0.687,0.687,0,0,1,117.955,45.145Zm6.3,3.755V45.835a4.151,4.151,0,0,0-.094-0.961,1.506,1.506,0,0,0-.284-0.616,1.063,1.063,0,0,0-.464-0.325,1.842,1.842,0,0,0-.624-0.1,1.66,1.66,0,0,0-.928.236,2.069,2.069,0,0,0-.577.552h-0.038l-0.142-.651h-0.975V48.9h1.231V45.707a1.176,1.176,0,0,1,.345-0.527,0.865,0.865,0,0,1,.591-0.212,0.613,0.613,0,0,1,.564.266,1.715,1.715,0,0,1,.165.867v2.8h1.23Zm0.54-3.844h0.653V47.54a1.727,1.727,0,0,0,.307,1.148,1.215,1.215,0,0,0,.961.35,2.741,2.741,0,0,0,.691-0.089,3.057,3.057,0,0,0,.6-0.217l-0.218-.986a2.147,2.147,0,0,1-.308.118,1.185,1.185,0,0,1-.326.039,0.372,0.372,0,0,1-.374-0.222,1.953,1.953,0,0,1-.1-0.734V45.056h1.154V43.972h-1.154V42.681l-1.23.365v0.926h-0.653v1.084Z"/>
          <path id="Medium" class="cls-6" d="M106.018,69.854h1.269V63.1h-1.149L104.5,66.169l-0.278.791h-0.037l-0.306-.772L102.146,63.1h-1.158v6.752h1.2V66.343l-0.185-1.331h0.046l0.407,1.071,1.455,2.527h0.408l1.38-2.518,0.4-1.08h0.056l-0.139,1.341v3.5Zm5.66-1.235a1.856,1.856,0,0,1-.459.246,1.811,1.811,0,0,1-.681.121,1.125,1.125,0,0,1-.884-0.309,1.447,1.447,0,0,1-.3-0.916h2.779q0.046-.251.069-0.482a4.211,4.211,0,0,0,.023-0.434,2.432,2.432,0,0,0-.157-0.936,1.508,1.508,0,0,0-1.01-.916,2.457,2.457,0,0,0-.685-0.1,2.113,2.113,0,0,0-1.64.637,2.743,2.743,0,0,0-.584,1.91,3.009,3.009,0,0,0,.519,1.866,1.932,1.932,0,0,0,1.64.68,3.183,3.183,0,0,0,1.014-.159,2.321,2.321,0,0,0,.755-0.391Zm-0.727-2.44a1.264,1.264,0,0,1,.153.8H109.38a1.487,1.487,0,0,1,.274-0.786,0.827,0.827,0,0,1,.7-0.294A0.672,0.672,0,0,1,110.951,66.179Zm6.063-3.077h-1.2V65.06a1.835,1.835,0,0,0-.371-0.111,2.717,2.717,0,0,0-.472-0.034,1.881,1.881,0,0,0-1.575.685,3.037,3.037,0,0,0-.538,1.919,2.968,2.968,0,0,0,.482,1.871,1.638,1.638,0,0,0,1.353.6,1.565,1.565,0,0,0,.819-0.207,1.422,1.422,0,0,0,.533-0.545h0.037l0.167,0.627h0.861a7.206,7.206,0,0,1-.083-0.9q-0.009-.405-0.009-0.81V63.1Zm-2.71,5.45a2.046,2.046,0,0,1-.208-0.993,2.2,2.2,0,0,1,.254-1.225,0.879,0.879,0,0,1,.765-0.357,1.307,1.307,0,0,1,.407.053,0.919,0.919,0,0,1,.288.159v2.045a0.976,0.976,0,0,1-.288.516,0.814,0.814,0,0,1-.555.178A0.7,0.7,0,0,1,114.3,68.551Zm3.868,1.3h1.2V65.031h-1.2v4.823Zm0.023-5.715a0.77,0.77,0,0,0,.551.188,0.84,0.84,0,0,0,.57-0.188,0.593,0.593,0,0,0,.217-0.468,0.622,0.622,0,0,0-.217-0.477,0.815,0.815,0,0,0-.57-0.2,0.748,0.748,0,0,0-.551.2,0.648,0.648,0,0,0-.2.477A0.616,0.616,0,0,0,118.2,64.138Zm2.32,0.892v3a3.843,3.843,0,0,0,.1.945,1.522,1.522,0,0,0,.282.6,1.035,1.035,0,0,0,.463.318,1.924,1.924,0,0,0,.63.1,1.642,1.642,0,0,0,.9-0.241,1.766,1.766,0,0,0,.593-0.608h0.037l0.213,0.714h0.908a4.87,4.87,0,0,1-.111-0.69q-0.038-.381-0.037-0.776V65.031h-1.2v3.116a1.308,1.308,0,0,1-.338.521,0.8,0.8,0,0,1-.57.212,0.533,0.533,0,0,1-.523-0.26,1.964,1.964,0,0,1-.134-0.849V65.031h-1.2Zm8.866,4.823V66.69a1.12,1.12,0,0,1,.282-0.5A0.711,0.711,0,0,1,130.178,66a0.494,0.494,0,0,1,.514.285,2.391,2.391,0,0,1,.116.854v2.71h1.2V66.96a4.958,4.958,0,0,0-.084-1,1.646,1.646,0,0,0-.254-0.632,0.918,0.918,0,0,0-.445-0.333,2,2,0,0,0-.662-0.1,1.421,1.421,0,0,0-.806.222,1.719,1.719,0,0,0-.547.6,1.216,1.216,0,0,0-.44-0.632,1.288,1.288,0,0,0-.727-0.188,1.44,1.44,0,0,0-.848.231,2.169,2.169,0,0,0-.542.54H126.62l-0.139-.637h-0.935v4.823h1.2V66.642a1.144,1.144,0,0,1,.3-0.458,0.726,0.726,0,0,1,.51-0.178,0.487,0.487,0,0,1,.5.28,2.625,2.625,0,0,1,.121.945v2.624h1.2Z"/>
          <path id="Low" class="cls-7" d="M105.223,90.658H102.3V85h-1.31v6.85h4.236V90.658Zm0.225-.2a2.225,2.225,0,0,0,.421.817,1.9,1.9,0,0,0,.7.524,2.446,2.446,0,0,0,.994.186,2.089,2.089,0,0,0,1.659-.67,2.807,2.807,0,0,0,.589-1.913,3.812,3.812,0,0,0-.139-1.057,2.266,2.266,0,0,0-.416-0.817,1.866,1.866,0,0,0-.7-0.524,2.451,2.451,0,0,0-1-.186,2.106,2.106,0,0,0-1.664.67,2.8,2.8,0,0,0-.592,1.913A3.812,3.812,0,0,0,105.448,90.462Zm1.4-2.212a0.839,0.839,0,0,1,.717-0.352,0.775,0.775,0,0,1,.746.416,2.33,2.33,0,0,1,.22,1.091,2.131,2.131,0,0,1-.239,1.145,0.811,0.811,0,0,1-.727.362,0.807,0.807,0,0,1-.746-0.431A1.727,1.727,0,0,1,106.648,90a2.932,2.932,0,0,1-.057-0.6A1.994,1.994,0,0,1,106.849,88.25Zm6.283-1.292L112.338,89.4l-0.162.881h-0.048l-0.115-.871-0.7-2.456h-1.348l1.539,4.942h0.947l0.918-2.73,0.115-.626h0.047l0.125,0.617,0.966,2.74h0.918l1.472-4.942h-1.138l-0.612,2.5-0.134.822h-0.038l-0.172-.812-0.87-2.505h-0.918Z"/>
        </g>
        <path class="cls-8" d="M17,54H132v1H17V54Zm0,22H132v1H17V76Z"/>
      </g>
    </g>
  </g>
  <g id="clock">
    <path class="cls-9" d="M150.757,18.155v1.91l3.053,0.819v-3Z"/>
    <path id="Rounded_Rectangle_5" data-name="Rounded Rectangle 5" class="cls-10" d="M149.114,19.352a1.753,1.753,0,0,1,1.986-1.7l1.308,0.095a2.317,2.317,0,0,1,2.126,1.959l0.12,1.155-5.54-.341V19.352Z"/>
    <circle id="Ellipse_1_copy_3" data-name="Ellipse 1 copy 3" class="cls-11" cx="151.391" cy="33.563" r="14.016"/>
    <circle id="Rounded_Rectangle_4" data-name="Rounded Rectangle 4" class="cls-12" cx="151.172" cy="33.578" r="12.641"/>
    <circle id="Rounded_Rectangle_4_copy" data-name="Rounded Rectangle 4 copy" class="cls-12" cx="151.172" cy="33.578" r="12.641"/>
    <path id="Ellipse_1_copy" data-name="Ellipse 1 copy" class="cls-10" d="M150.618,19.792A13.783,13.783,0,1,1,136.6,33.573,13.9,13.9,0,0,1,150.618,19.792ZM151,21.247A12.387,12.387,0,0,1,163.6,33.4a12.616,12.616,0,0,1-25.216,0A12.387,12.387,0,0,1,151,21.247Z"/>
    <path class="cls-13" d="M150.479,30.981a3,3,0,1,1-3.053,3A3.028,3.028,0,0,1,150.479,30.981Z"/>
    <path class="cls-13" d="M144.058,27.737l0.944-1,1.628,1.485-0.944,1Z"/>
    <circle class="cls-14" cx="150.625" cy="34.125" r="1.531"/>
    <path id="Rounded_Rectangle_3" data-name="Rounded Rectangle 3" class="cls-15" d="M147.911,33.258l8.856,0.907a0.682,0.682,0,1,1-.1,1.361l-8.856-.907A0.682,0.682,0,1,1,147.911,33.258Z"/>
    <path id="Rectangle_3_copy" data-name="Rectangle 3 copy" class="cls-13" d="M142.033,34.149L142,32.785l2.219-.061,0.039,1.364Z"/>
    <path id="Rectangle_3_copy_6" data-name="Rectangle 3 copy 6" class="cls-13" d="M142.033,34.149L142,32.785l2.219-.061,0.039,1.364Zm15.3,0-0.038-1.364,2.219-.061,0.039,1.364Z"/>
    <path id="Rectangle_3_copy_2" data-name="Rectangle 3 copy 2" class="cls-13" d="M149.373,40.568l1.321-.038,0.059,2.149-1.321.038Z"/>
    <path id="Rectangle_3_copy_5" data-name="Rectangle 3 copy 5" class="cls-13" d="M150.273,24.368l1.321-.037,0.059,2.149-1.321.038Z"/>
    <path id="Rectangle_3_copy_3" data-name="Rectangle 3 copy 3" class="cls-13" d="M155.877,26.872l0.949,0.9L155.3,29.317l-0.95-.9Z"/>
    <path id="Rectangle_3_copy_4" data-name="Rectangle 3 copy 4" class="cls-13" d="M154.671,39.345l0.985-.867,1.455,1.6-0.984.867Z"/>
  </g>
  <g id="Calculator">
    <path id="Rounded_Rectangle_598" data-name="Rounded Rectangle 598" class="cls-16" d="M145.664,56.6L170.8,67.173a1.5,1.5,0,0,1,.8,1.969l-13.29,31.452a1.508,1.508,0,0,1-1.973.8L131.2,90.827a1.5,1.5,0,0,1-.8-1.969L143.69,57.406A1.508,1.508,0,0,1,145.664,56.6Z"/>
    <path id="Rounded_Rectangle_599" data-name="Rounded Rectangle 599" class="cls-13" d="M147.139,60.08l20.341,8.554a1.5,1.5,0,0,1,.8,1.969l-2.137,5.057a1.508,1.508,0,0,1-1.974.8l-20.341-8.554a1.5,1.5,0,0,1-.8-1.969l2.137-5.057A1.508,1.508,0,0,1,147.139,60.08Z"/>
    <path id="Rounded_Rectangle_603_copy" data-name="Rounded Rectangle 603 copy" class="cls-17" d="M164.045,68.071a0.7,0.7,0,0,1-.288.94L157.8,72.175a0.695,0.695,0,1,1-.653-1.226l5.959-3.165A0.7,0.7,0,0,1,164.045,68.071Z"/>
    <path id="Rounded_Rectangle_603_copy_2" data-name="Rounded Rectangle 603 copy 2" class="cls-17" d="M159.045,66.071a0.7,0.7,0,0,1-.288.94L152.8,70.175a0.695,0.695,0,1,1-.653-1.226l5.959-3.165A0.7,0.7,0,0,1,159.045,66.071Z"/>
    <path id="Rounded_Rectangle_600" data-name="Rounded Rectangle 600" class="cls-5" d="M142.869,69.217L157.24,75.26a1.279,1.279,0,1,1-1,2.355l-14.371-6.043A1.278,1.278,0,1,1,142.869,69.217Z"/>
    <path id="Rounded_Rectangle_600_copy" data-name="Rounded Rectangle 600 copy" class="cls-15" d="M160.711,76.72L163.766,78a1.279,1.279,0,1,1-1,2.356l-3.055-1.285A1.279,1.279,0,1,1,160.711,76.72Z"/>
    <path id="Rounded_Rectangle_601" data-name="Rounded Rectangle 601" class="cls-17" d="M140.872,72.783l3.749,1.576a0.752,0.752,0,0,1,.4.985l-1.464,3.464a0.754,0.754,0,0,1-.987.4l-3.749-1.576a0.751,0.751,0,0,1-.4-0.985l1.463-3.464A0.754,0.754,0,0,1,140.872,72.783Z"/>
    <path id="Rounded_Rectangle_601_copy" data-name="Rounded Rectangle 601 copy" class="cls-17" d="M146.634,75.206l3.749,1.576a0.751,0.751,0,0,1,.4.985l-1.464,3.464a0.754,0.754,0,0,1-.987.4l-3.749-1.576a0.751,0.751,0,0,1-.4-0.985l1.463-3.464A0.754,0.754,0,0,1,146.634,75.206Z"/>
    <path id="Rounded_Rectangle_601_copy_2" data-name="Rounded Rectangle 601 copy 2" class="cls-17" d="M152.535,77.688l3.749,1.576a0.75,0.75,0,0,1,.4.985l-1.464,3.464a0.754,0.754,0,0,1-.987.4l-3.749-1.577a0.751,0.751,0,0,1-.4-0.985l1.463-3.464A0.754,0.754,0,0,1,152.535,77.688Z"/>
    <path id="Rounded_Rectangle_601_copy_3" data-name="Rounded Rectangle 601 copy 3" class="cls-17" d="M138.472,78.464l3.749,1.576a0.751,0.751,0,0,1,.4.985l-1.463,3.464a0.754,0.754,0,0,1-.987.4l-3.749-1.576a0.751,0.751,0,0,1-.4-0.985l1.464-3.464A0.754,0.754,0,0,1,138.472,78.464Z"/>
    <path id="Rounded_Rectangle_601_copy_4" data-name="Rounded Rectangle 601 copy 4" class="cls-17" d="M144.234,80.887l3.749,1.576a0.752,0.752,0,0,1,.4.985l-1.464,3.464a0.755,0.755,0,0,1-.987.4l-3.749-1.577a0.751,0.751,0,0,1-.4-0.985l1.463-3.464A0.754,0.754,0,0,1,144.234,80.887Z"/>
    <path id="Rounded_Rectangle_601_copy_5" data-name="Rounded Rectangle 601 copy 5" class="cls-17" d="M150.135,83.368l3.749,1.576a0.752,0.752,0,0,1,.4.985l-1.464,3.464a0.754,0.754,0,0,1-.987.4l-3.749-1.577a0.751,0.751,0,0,1-.4-0.985l1.463-3.464A0.754,0.754,0,0,1,150.135,83.368Z"/>
    <path id="Rounded_Rectangle_601_copy_6" data-name="Rounded Rectangle 601 copy 6" class="cls-17" d="M136.072,84.144l3.748,1.576a0.751,0.751,0,0,1,.4.985l-1.464,3.464a0.754,0.754,0,0,1-.987.4l-3.748-1.576a0.75,0.75,0,0,1-.4-0.985l1.464-3.464A0.754,0.754,0,0,1,136.072,84.144Z"/>
    <path id="Rounded_Rectangle_601_copy_7" data-name="Rounded Rectangle 601 copy 7" class="cls-17" d="M141.834,86.568l3.749,1.577a0.751,0.751,0,0,1,.4.985l-1.463,3.464a0.754,0.754,0,0,1-.987.4l-3.749-1.576a0.751,0.751,0,0,1-.4-0.985l1.464-3.464A0.754,0.754,0,0,1,141.834,86.568Z"/>
    <path id="Rounded_Rectangle_601_copy_8" data-name="Rounded Rectangle 601 copy 8" class="cls-17" d="M147.735,89.049l3.749,1.576a0.751,0.751,0,0,1,.4.985l-1.463,3.464a0.754,0.754,0,0,1-.987.4L145.686,93.9a0.751,0.751,0,0,1-.4-0.985l1.464-3.464A0.754,0.754,0,0,1,147.735,89.049Z"/>
    <path id="Rounded_Rectangle_602" data-name="Rounded Rectangle 602" class="cls-17" d="M158.813,80.246l3.471,1.46a1.126,1.126,0,0,1,.6,1.477l-1.141,2.7a1.132,1.132,0,0,1-1.481.6l-3.471-1.46a1.126,1.126,0,0,1-.6-1.477l1.141-2.7A1.132,1.132,0,0,1,158.813,80.246Z"/>
    <path id="Rounded_Rectangle_602_copy" data-name="Rounded Rectangle 602 copy" class="cls-17" d="M156.383,86l3.472,1.46a1.127,1.127,0,0,1,.6,1.477l-3.571,8.452a1.132,1.132,0,0,1-1.481.6l-3.471-1.46a1.126,1.126,0,0,1-.6-1.477L154.9,86.6A1.131,1.131,0,0,1,156.383,86Z"/>
  </g>
</svg>
