<svg id="icon" xmlns="http://www.w3.org/2000/svg" width="178" height="122" viewBox="0 0 178 122">
  <defs>
    <style>
      .cls-1 {
        fill: #eef3fe;
      }

      .cls-1, .cls-2, .cls-3, .cls-4, .cls-5, .cls-7, .cls-9 {
        fill-rule: evenodd;
      }

      .cls-2 {
        fill: #747aea;
      }

      .cls-3 {
        fill: #3cb8f1;
      }

      .cls-4 {
        fill: #5387ff;
      }

      .cls-5, .cls-8, .cls-9 {
        fill: #fff;
      }

      .cls-5 {
        opacity: 0.55;
      }

      .cls-6, .cls-7 {
        fill: #f1f2fd;
      }

      .cls-6 {
        opacity: 0.4;
      }

      .cls-8 {
        opacity: 0.9;
      }
    </style>
  </defs>
  <path class="cls-1" d="M19,68.019c0.518-12.348,3.106-22.638,28.987-30.87S81.739,25.287,94.68,17.569c10.426-6.394,42.473-5.832,57.974,15.435,10.784,14.8,10.007,34.037-2.07,47.334-10.26,11.3-31.5,20.432-52.8,24.7-21.692,4.344-37.893,1.057-53.939-5.117S18.655,82.768,19,68.019Z"/>
  <g id="Comapny_copy" data-name="Comapny copy">
    <path id="Forma_1" data-name="Forma 1" class="cls-2" d="M75,98H90V86h9V98h15V28H75V98Z"/>
    <path id="Forma_1_copy_5" data-name="Forma 1 copy 5" class="cls-3" d="M114,34V98h21V34H114Z"/>
    <path id="Forma_1_copy_4" data-name="Forma 1 copy 4" class="cls-4" d="M75,84V34H54V98H75V84Z"/>
    <path id="Forma_1_copy_20" data-name="Forma 1 copy 20" class="cls-5" d="M79,53h5v4H79V53Zm31,0v4h-5V53m-8,0v4H92V53M79,61h5v4H79V61Zm31,0v4h-5V61m-8,0v4H92V61M79,69h5v4H79V69Zm31,0v4h-5V69m-8,0v4H92V69M79,77h5v4H79V77Zm31,0v4h-5V77m-8,0v4H92V77"/>
    <path id="Forma_1_copy_21" data-name="Forma 1 copy 21" class="cls-5" d="M57,57h5v4H57V57Zm0,8h5v4H57V65Zm0,8h5v4H57V73Zm0,8h5v4H57V81Z"/>
    <path id="Forma_1_copy_22" data-name="Forma 1 copy 22" class="cls-5" d="M67,57h5v4H67V57Zm0,8h5v4H67V65Zm0,8h5v4H67V73Zm0,8h5v4H67V81Z"/>
    <path id="Forma_1_copy_23" data-name="Forma 1 copy 23" class="cls-5" d="M117,57h5v4h-5V57Zm0,8h5v4h-5V65Zm0,8h5v4h-5V73Zm0,8h5v4h-5V81Z"/>
    <path id="Forma_1_copy_23-2" data-name="Forma 1 copy 23" class="cls-5" d="M127,57h5v4h-5V57Zm0,8h5v4h-5V65Zm0,8h5v4h-5V73Zm0,8h5v4h-5V81Z"/>
    <g id="plus">
      <circle class="cls-6" cx="94" cy="40" r="8"/>
      <path id="Forma_1_copy_12" data-name="Forma 1 copy 12" class="cls-7" d="M95,35V45H93V35"/>
      <rect id="Forma_1_copy_11" data-name="Forma 1 copy 11" class="cls-8" x="89" y="39" width="10" height="2"/>
    </g>
    <g id="education">
      <circle class="cls-6" cx="65.5" cy="46.5" r="7.5"/>
      <path class="cls-9" d="M63,51V49h5c1.242-.047,1-0.889.906-1.03l-1.974-1.464L69,45a0.887,0.887,0,0,0-1-1H63c0-.532.124-1-0.447-1C61.967,43,62,43.335,62,44v7h1Z"/>
    </g>
    <g id="education_copy" data-name="education copy">
      <circle class="cls-6" cx="124.5" cy="46.5" r="7.5"/>
      <path id="Forma_1-2" data-name="Forma 1" class="cls-9" d="M130,47a0.892,0.892,0,0,0-1-.83,0.867,0.867,0,0,0-1,.83h0c-0.343-1.205-2-1-2-1s0.019,0.7,0,1v3a0.927,0.927,0,0,1-1,1c-0.385,0-1.405,0-2,0a0.978,0.978,0,0,1-.828-0.306c-0.235-.3-0.695-0.714-0.246-1.041a0.948,0.948,0,0,1,.895.231A2.648,2.648,0,0,0,124,50a0.861,0.861,0,0,0,1-1V47a1.083,1.083,0,0,0-1-1c-0.216-.019-1.848-0.035-2,1h0a0.927,0.927,0,0,0-.976-0.735A1.083,1.083,0,0,0,120,47a5.142,5.142,0,0,1,4.7-4.468V42.3a0.3,0.3,0,1,1,.6,0v0.228A5.137,5.137,0,0,1,130,47Z"/>
    </g>
  </g>
</svg>
