<svg id="icon" xmlns="http://www.w3.org/2000/svg" width="178" height="122" viewBox="0 0 178 122">
  <defs>
    <style>
      .cls-1 {
        fill: #eef3fe;
      }

      .cls-1, .cls-10, .cls-12, .cls-2, .cls-3, .cls-4, .cls-5, .cls-7, .cls-8, .cls-9 {
        fill-rule: evenodd;
      }

      .cls-2 {
        fill: #747aea;
      }

      .cls-3 {
        fill: #3cb8f1;
      }

      .cls-4 {
        fill: #5387ff;
      }

      .cls-5, .cls-6 {
        fill: #fff;
      }

      .cls-5 {
        opacity: 0.4;
      }

      .cls-6 {
        stroke: #e3e3e3;
        stroke-linejoin: round;
        stroke-width: 1px;
      }

      .cls-7, .cls-8 {
        fill: #36be8f;
      }

      .cls-7, .cls-9 {
        opacity: 0.6;
      }

      .cls-10, .cls-9 {
        fill: #de617e;
      }

      .cls-11 {
        fill: #9d9369;
      }

      .cls-12 {
        fill: #33e2a6;
      }
    </style>
  </defs>
  <path class="cls-1" d="M11,68.019c0.518-12.348,3.106-22.638,28.987-30.87S73.739,25.287,86.68,17.569C97.106,11.175,129.153,11.737,144.654,33c10.784,14.8,10.007,34.037-2.07,47.334-10.26,11.3-31.5,20.432-52.8,24.7-21.692,4.344-37.893,1.057-53.939-5.117S10.655,82.768,11,68.019Z"/>
  <g id="icon-2" data-name="icon">
    <g id="Comapny">
      <path id="Forma_1" data-name="Forma 1" class="cls-2" d="M57,102H72V86h9v16H96V32H57v70Z"/>
      <path id="Forma_1_copy_5" data-name="Forma 1 copy 5" class="cls-3" d="M96,38v64h20V38H96Z"/>
      <path id="Forma_1_copy_4" data-name="Forma 1 copy 4" class="cls-4" d="M57,88V38H37v64H57V88Z"/>
      <path id="Forma_1_copy_2" data-name="Forma 1 copy 2" class="cls-5" d="M80,40h8v9H80V40Zm0,15h8v9H80V55Zm0,15h8v9H80V70ZM65,40h8v9H65V40Zm0,15h8v9H65V55Zm0,15h8v9H65V70Z"/>
      <path id="Forma_1_copy" data-name="Forma 1 copy" class="cls-5" d="M43,46h8v8H43V46Zm0,14h8v8H43V60Zm0,14h8v8H43V74Z"/>
      <path id="Forma_1_copy_14" data-name="Forma 1 copy 14" class="cls-5" d="M102,46h8v8h-8V46Zm0,14h8v8h-8V60Zm0,14h8v8h-8V74Z"/>
    </g>
  </g>
  <g id="_1" data-name="1">
    <rect id="Rounded_Rectangle_593_copy" data-name="Rounded Rectangle 593 copy" class="cls-6" x="75" y="14" width="66" height="20" rx="5" ry="5"/>
    <path id="Rounded_Rectangle_599" data-name="Rounded Rectangle 599" class="cls-7" d="M114.2,20h19.6a1.2,1.2,0,0,1,1.2,1.2v0.006a1.2,1.2,0,0,1-1.2,1.2H114.2a1.2,1.2,0,0,1-1.2-1.2V21.2A1.2,1.2,0,0,1,114.2,20Zm0,5.594h9.319a1.2,1.2,0,0,1,1.2,1.2V26.8a1.2,1.2,0,0,1-1.2,1.2H114.2a1.2,1.2,0,0,1-1.2-1.2V26.794A1.2,1.2,0,0,1,114.2,25.594Z"/>
    <path id="Active" class="cls-8" d="M85.076,27.885h1.016l-2.6-7.368H82.639l-2.655,7.368H81l0.657-1.9h2.771Zm-2.033-5.9h0.03l1.072,3.163h-2.2Zm5.1,4.656a2.716,2.716,0,0,1-.331-1.392V25.041a2.666,2.666,0,0,1,.336-1.379,1.15,1.15,0,0,1,1.07-.569,1.073,1.073,0,0,1,.822.352,1.209,1.209,0,0,1,.326.853h0.905l0.01-.03a1.8,1.8,0,0,0-.564-1.392,2.064,2.064,0,0,0-1.5-.567,2.147,2.147,0,0,0-1.778.787,3.016,3.016,0,0,0-.63,1.946v0.212a3.028,3.028,0,0,0,.627,1.953,2.318,2.318,0,0,0,3.237.235,1.573,1.573,0,0,0,.607-1.258l-0.015-.03h-0.9a0.968,0.968,0,0,1-.344.752,1.171,1.171,0,0,1-.8.306A1.149,1.149,0,0,1,88.138,26.645Zm4.711-5.556v1.321h-0.87v0.739h0.87v3.325a1.594,1.594,0,0,0,.359,1.151,1.289,1.289,0,0,0,.966.367,1.658,1.658,0,0,0,.43-0.058,0.88,0.88,0,0,0,.329-0.149L94.8,27.1a1.427,1.427,0,0,1-.177.048,0.93,0.93,0,0,1-.192.023A0.576,0.576,0,0,1,94,27.014a0.745,0.745,0,0,1-.159-0.541V23.148h1.037V22.409H93.845V21.088h-1Zm4.177,1.321h-1v5.476h1V22.409Zm0-2.419h-1v1.017h1V19.99Zm2.063,2.419H98.068l2.038,5.476h0.753l2.013-5.475h-1.016L100.6,26.27l-0.1.385h-0.03l-0.086-.385Zm8.035,5.387a2.39,2.39,0,0,0,.774-0.478l-0.389-.648a1.985,1.985,0,0,1-.655.4,2.511,2.511,0,0,1-.888.144,1.27,1.27,0,0,1-1.112-.514,2.262,2.262,0,0,1-.364-1.338l0.015-.025h3.5V24.808a2.82,2.82,0,0,0-.548-1.817,1.986,1.986,0,0,0-1.647-.683,2.133,2.133,0,0,0-1.661.772,2.844,2.844,0,0,0-.68,1.951v0.223a2.9,2.9,0,0,0,.66,1.984,2.314,2.314,0,0,0,1.838.754A3.08,3.08,0,0,0,107.125,27.8Zm-0.409-4.314a1.6,1.6,0,0,1,.293.987V24.55h-2.468l-0.01-.025a1.912,1.912,0,0,1,.417-1.03,1.083,1.083,0,0,1,.862-0.4A1.062,1.062,0,0,1,106.716,23.482Z"/>
  </g>
  <g id="_2" data-name="2">
    <rect id="Rounded_Rectangle_593_copy-2" data-name="Rounded Rectangle 593 copy" class="cls-6" x="97" y="40" width="72" height="20" rx="5" ry="5"/>
    <path id="Rounded_Rectangle_599-2" data-name="Rounded Rectangle 599" class="cls-9" d="M142.2,46h19.6a1.2,1.2,0,0,1,1.2,1.2v0.006a1.2,1.2,0,0,1-1.2,1.2H142.2a1.2,1.2,0,0,1-1.2-1.2V47.2A1.2,1.2,0,0,1,142.2,46Zm0,5.594h9.319a1.2,1.2,0,0,1,1.2,1.2V52.8a1.2,1.2,0,0,1-1.2,1.2H142.2a1.2,1.2,0,0,1-1.2-1.2V52.794A1.2,1.2,0,0,1,142.2,51.594Z"/>
    <path id="Inactive" class="cls-10" d="M102.953,46.517h-0.966v7.368h0.966V46.517Zm1.63,1.893v5.475h0.961V49.821a1.324,1.324,0,0,1,.491-0.519,1.447,1.447,0,0,1,.754-0.185,1.083,1.083,0,0,1,.842.3,1.524,1.524,0,0,1,.275,1.027v3.436h0.962V50.428a2.335,2.335,0,0,0-.469-1.6,1.69,1.69,0,0,0-1.322-.519,1.713,1.713,0,0,0-.905.24,1.951,1.951,0,0,0-.662.676l-0.068-.815h-0.859Zm9.916,5.475a2.967,2.967,0,0,1-.107-0.536,5.191,5.191,0,0,1-.03-0.567V50.145a1.707,1.707,0,0,0-.546-1.364,2.131,2.131,0,0,0-1.445-.473,2.184,2.184,0,0,0-1.481.5,1.328,1.328,0,0,0-.539,1.093l0.01,0.03,0.912-.01a0.738,0.738,0,0,1,.288-0.582,1.134,1.134,0,0,1,.757-0.243,1.088,1.088,0,0,1,.8.281,1.024,1.024,0,0,1,.283.762v0.541h-1.044a2.783,2.783,0,0,0-1.662.443,1.431,1.431,0,0,0-.612,1.227,1.643,1.643,0,0,0,.432,1.207,1.685,1.685,0,0,0,1.256.438,1.743,1.743,0,0,0,.93-0.266,2.272,2.272,0,0,0,.7-0.66,3.249,3.249,0,0,0,.032.382q0.027,0.19.075,0.438H114.5Zm-3.235-.941a0.764,0.764,0,0,1-.22-0.577,0.919,0.919,0,0,1,.349-0.713,1.365,1.365,0,0,1,.93-0.3H113.4V52.24a1.311,1.311,0,0,1-.547.638,1.662,1.662,0,0,1-.941.278A0.9,0.9,0,0,1,111.264,52.943Zm5.555-.3a2.8,2.8,0,0,1-.319-1.392V51.041a2.747,2.747,0,0,1,.324-1.379,1.1,1.1,0,0,1,1.032-.569,1.019,1.019,0,0,1,.793.352,1.233,1.233,0,0,1,.315.853h0.873l0.01-.03a1.831,1.831,0,0,0-.544-1.392,1.954,1.954,0,0,0-1.447-.567,2.041,2.041,0,0,0-1.715.787,3.089,3.089,0,0,0-.608,1.946v0.213a3.1,3.1,0,0,0,.606,1.953,2.181,2.181,0,0,0,3.123.235,1.6,1.6,0,0,0,.585-1.258l-0.014-.03h-0.869a0.984,0.984,0,0,1-.332.752A1.192,1.192,0,0,1,116.819,52.645Zm4.546-5.556v1.321h-0.84v0.739h0.84v3.325a1.632,1.632,0,0,0,.346,1.151,1.221,1.221,0,0,0,.932.367,1.547,1.547,0,0,0,.415-0.058,0.829,0.829,0,0,0,.317-0.149l-0.131-.683a1.376,1.376,0,0,1-.171.048,0.872,0.872,0,0,1-.186.023,0.543,0.543,0,0,1-.407-0.157,0.761,0.761,0,0,1-.154-0.541V49.148h1V48.409h-1V47.088h-0.961Zm4.031,1.321h-0.962v5.475H125.4V48.409Zm0-2.419h-0.962v1.017H125.4V45.99Zm1.99,2.419H126.4l1.966,5.475h0.727l1.943-5.475h-0.981l-1.215,3.861-0.093.385h-0.029l-0.083-.385ZM135.14,53.8a2.3,2.3,0,0,0,.747-0.478l-0.376-.648a1.889,1.889,0,0,1-.632.4,2.338,2.338,0,0,1-.856.144,1.213,1.213,0,0,1-1.074-.514,2.327,2.327,0,0,1-.351-1.338l0.015-.025h3.377V50.808a2.887,2.887,0,0,0-.53-1.817,1.884,1.884,0,0,0-1.588-.683,2.028,2.028,0,0,0-1.6.772,2.9,2.9,0,0,0-.657,1.951v0.223a2.973,2.973,0,0,0,.637,1.984,2.2,2.2,0,0,0,1.774.754A2.878,2.878,0,0,0,135.14,53.8Zm-0.395-4.314a1.635,1.635,0,0,1,.283.987V50.55h-2.381l-0.01-.025a1.94,1.94,0,0,1,.4-1.03,1.03,1.03,0,0,1,.832-0.4A1.008,1.008,0,0,1,134.745,49.482Z"/>
  </g>
  <g id="flower">
    <rect class="cls-11" x="37" y="93" width="2" height="9"/>
    <path class="cls-12" d="M37.813,94c3.164,0,4.352-1.992,4.3-1.949C42.768,91.513,44.122,75.329,38,74c-3.822.557-7.725,8.166-4.174,18.333C34.368,92.889,34.885,94,37.813,94Z"/>
    <rect id="Rectangle_13_copy" data-name="Rectangle 13 copy" class="cls-11" x="94" y="93" width="2" height="9"/>
    <path id="Shape_703_copy" data-name="Shape 703 copy" class="cls-12" d="M94.812,94c3.164,0,4.352-1.992,4.3-1.949C99.768,91.513,101.122,75.329,95,74c-3.822.557-7.725,8.166-4.174,18.333C91.368,92.889,91.885,94,94.812,94Z"/>
  </g>
</svg>
