<svg id="icon" xmlns="http://www.w3.org/2000/svg" width="178" height="122" viewBox="0 0 178 122">
  <defs>
    <style>
      .cls-1 {
        fill: #eef3fe;
      }

      .cls-1, .cls-10, .cls-11, .cls-12, .cls-3, .cls-4, .cls-5, .cls-6, .cls-7, .cls-8, .cls-9 {
        fill-rule: evenodd;
      }

      .cls-2 {
        fill: #fff;
        stroke: #e3e3e3;
        stroke-linejoin: round;
        stroke-width: 1px;
      }

      .cls-3 {
        fill: #343439;
      }

      .cls-4 {
        fill: #565657;
      }

      .cls-5 {
        fill: #717070;
      }

      .cls-6 {
        fill: #de617e;
      }

      .cls-7 {
        fill: #ffc501;
      }

      .cls-8 {
        opacity: 0.05;
      }

      .cls-10, .cls-9 {
        fill: #36be8f;
      }

      .cls-11, .cls-9 {
        opacity: 0.6;
      }

      .cls-11, .cls-12 {
        fill: #5387ff;
      }
    </style>
  </defs>
  <path class="cls-1" d="M6,76.019c0.518-12.348,3.106-22.638,28.987-30.87S68.739,33.287,81.68,25.569C92.106,19.175,124.153,19.737,139.654,41c10.784,14.8,10.007,34.037-2.07,47.334-10.26,11.3-31.5,20.432-52.8,24.7-21.692,4.344-37.893,1.057-53.939-5.117S5.655,90.768,6,76.019Z"/>
  <g id="graph">
    <rect id="Rounded_Rectangle_593" data-name="Rounded Rectangle 593" class="cls-2" x="6" y="23" width="131" height="86" rx="5" ry="5"/>
    <g id="Bar">
      <path id="Work_Orders" data-name="Work Orders" class="cls-3" d="M14.08,31.531H13.011L14.773,38.9h0.884l1.481-5.111,0.105-.663h0.03l0.111,0.663L18.845,38.9h0.884L21.5,31.531H20.421l-1.044,4.813-0.136.987h-0.03l-0.171-.987-1.305-4.813H16.766l-1.3,4.813-0.171.972-0.03-.005-0.125-.967Zm7.928,4.691a3.01,3.01,0,0,0,.655,2,2.416,2.416,0,0,0,3.557,0,3.015,3.015,0,0,0,.653-2V36.111a3.02,3.02,0,0,0-.655-2,2.406,2.406,0,0,0-3.557,0,3.03,3.03,0,0,0-.653,2v0.111ZM23,36.111a2.618,2.618,0,0,1,.364-1.432,1.19,1.19,0,0,1,1.072-.572,1.207,1.207,0,0,1,1.082.572,2.591,2.591,0,0,1,.369,1.432v0.111a2.6,2.6,0,0,1-.367,1.437,1.309,1.309,0,0,1-2.156,0A2.613,2.613,0,0,1,23,36.223V36.111Zm7.792-2.733a1.424,1.424,0,0,0-.166-0.038,1.213,1.213,0,0,0-.211-0.018,1.325,1.325,0,0,0-.781.238,1.9,1.9,0,0,0-.57.663l-0.1-.8H28.083V38.9h0.989V34.988a1.2,1.2,0,0,1,.414-0.526,1.127,1.127,0,0,1,.66-0.187l0.507,0.03Zm4.2,5.521h1.17l-2.144-2.95,1.973-2.525H34.806L33.174,35.58h-0.5V31H31.688V38.9h0.989V36.374h0.507Zm10.237-4.337a3.167,3.167,0,0,0-.831-2.245,2.811,2.811,0,0,0-2.156-.893,2.661,2.661,0,0,0-2.081.9,3.238,3.238,0,0,0-.8,2.242v1.311a3.227,3.227,0,0,0,.8,2.242,2.668,2.668,0,0,0,2.081.891,2.814,2.814,0,0,0,2.156-.891,3.158,3.158,0,0,0,.831-2.242V34.563ZM44.24,35.873a2.52,2.52,0,0,1-.54,1.673,1.8,1.8,0,0,1-1.459.645,1.67,1.67,0,0,1-1.378-.648,2.6,2.6,0,0,1-.515-1.67V34.552a2.586,2.586,0,0,1,.515-1.66,1.67,1.67,0,0,1,1.378-.648,1.8,1.8,0,0,1,1.456.648,2.5,2.5,0,0,1,.542,1.66v1.321Zm4.985-2.495a1.427,1.427,0,0,0-.166-0.038,1.215,1.215,0,0,0-.211-0.018,1.325,1.325,0,0,0-.781.238,1.9,1.9,0,0,0-.57.663l-0.1-.8H46.519V38.9h0.989V34.988a1.2,1.2,0,0,1,.414-0.526,1.127,1.127,0,0,1,.66-0.187L49.09,34.3ZM49.8,36.369a3.035,3.035,0,0,0,.562,1.91,1.859,1.859,0,0,0,1.556.726,1.953,1.953,0,0,0,.909-0.2,1.768,1.768,0,0,0,.658-0.6L53.633,38.9h0.758V31H53.4v3.011a1.738,1.738,0,0,0-.63-0.516,1.932,1.932,0,0,0-.846-0.177,1.8,1.8,0,0,0-1.569.81,3.676,3.676,0,0,0-.56,2.131v0.106Zm0.989-.106a3.076,3.076,0,0,1,.339-1.538,1.129,1.129,0,0,1,1.052-.592,1.3,1.3,0,0,1,.73.2,1.532,1.532,0,0,1,.495.539v2.556a1.508,1.508,0,0,1-.492.567,1.3,1.3,0,0,1-.743.2,1.171,1.171,0,0,1-1.044-.5,2.338,2.338,0,0,1-.336-1.328V36.263Zm8.48,2.548a2.371,2.371,0,0,0,.768-0.478l-0.387-.648a1.963,1.963,0,0,1-.65.4,2.471,2.471,0,0,1-.881.144,1.259,1.259,0,0,1-1.1-.514,2.277,2.277,0,0,1-.361-1.339l0.015-.025H60.14V35.823a2.83,2.83,0,0,0-.545-1.817,1.964,1.964,0,0,0-1.634-.683,2.111,2.111,0,0,0-1.649.772,2.855,2.855,0,0,0-.675,1.951v0.223a2.916,2.916,0,0,0,.655,1.984,2.289,2.289,0,0,0,1.825.754A3.038,3.038,0,0,0,59.267,38.811ZM58.86,34.5a1.6,1.6,0,0,1,.291.987v0.081H56.7l-0.01-.025a1.912,1.912,0,0,1,.414-1.03,1.072,1.072,0,0,1,.856-0.4A1.049,1.049,0,0,1,58.86,34.5Zm5.1-1.118a1.434,1.434,0,0,0-.166-0.038,1.215,1.215,0,0,0-.211-0.018,1.325,1.325,0,0,0-.781.238,1.9,1.9,0,0,0-.57.663l-0.1-.8H61.25V38.9h0.989V34.988a1.2,1.2,0,0,1,.414-0.526,1.127,1.127,0,0,1,.66-0.187L63.82,34.3ZM67.709,38a1.344,1.344,0,0,1-.826.225,1.506,1.506,0,0,1-.859-0.245,0.924,0.924,0,0,1-.392-0.777H64.689l-0.01.03a1.521,1.521,0,0,0,.567,1.24,2.777,2.777,0,0,0,3.165.071A1.446,1.446,0,0,0,69,37.356a1.216,1.216,0,0,0-.517-1.017,3.876,3.876,0,0,0-1.516-.6,2.459,2.459,0,0,1-.921-0.324,0.6,0.6,0,0,1-.224-0.5,0.745,0.745,0,0,1,.259-0.567,1.12,1.12,0,0,1,.781-0.238,1.1,1.1,0,0,1,.781.288,0.865,0.865,0,0,1,.309.643h0.944l0.01-.03a1.455,1.455,0,0,0-.547-1.179,2.477,2.477,0,0,0-2.96-.03,1.448,1.448,0,0,0-.565,1.144,1.178,1.178,0,0,0,.515,1,3.93,3.93,0,0,0,1.474.582,2.387,2.387,0,0,1,.941.364,0.667,0.667,0,0,1,.249.536A0.691,0.691,0,0,1,67.709,38Z"/>
      <g id="_1" data-name="1">
        <g id="_1_copy_5" data-name="1 copy 5">
          <path id="_1234" data-name="#1234" class="cls-4" d="M14.976,56.324h0.645l0.365-1.619H16.66l0.15-.62H16.127l0.29-1.27h0.711l0.15-.62h-0.72l0.355-1.531H16.267L15.912,52.2H14.93l0.355-1.531H14.64L14.284,52.2h-0.7l-0.131.62h0.692l-0.29,1.27H13.116l-0.131.62h0.729l-0.365,1.619h0.645l0.365-1.619h0.982Zm-0.187-3.509h0.982l-0.29,1.27H14.5Zm4.04,4.071h3.32V56.169H20.867V49.986H20.531l-2.057,1.648,0.355,0.494,1.029-.766,0.374-.456-0.093.572v4.691H18.829v0.717Zm8.145-5.907a1.494,1.494,0,0,0-.327-0.528,1.459,1.459,0,0,0-.524-0.344,1.937,1.937,0,0,0-.711-0.121,2.774,2.774,0,0,0-.963.165,2.4,2.4,0,0,0-.776.456l0.309,0.552a2.68,2.68,0,0,1,.58-0.344,1.682,1.682,0,0,1,.692-0.15,0.975,0.975,0,0,1,.795.315,1.2,1.2,0,0,1,.262.79,2.772,2.772,0,0,1-.15.863,5.842,5.842,0,0,1-.4.921,10.343,10.343,0,0,1-.552.916q-0.3.451-.617,0.853t-0.6.732q-0.29.33-.5,0.553v0.281h3.722V56.169H25.178l-0.6.107V56.237l0.458-.417q0.365-.465.729-0.984a10.77,10.77,0,0,0,.659-1.061,6.946,6.946,0,0,0,.477-1.081,3.267,3.267,0,0,0,.182-1.052A1.911,1.911,0,0,0,26.974,50.979Zm2.567,5.273a2.485,2.485,0,0,1-.51-0.179l-0.2.688a3.077,3.077,0,0,0,.589.174,3.852,3.852,0,0,0,.757.068,2.593,2.593,0,0,0,.87-0.145,2.082,2.082,0,0,0,.715-0.422,1.981,1.981,0,0,0,.482-0.683,2.308,2.308,0,0,0,.178-0.931,2.184,2.184,0,0,0-.131-0.78,1.762,1.762,0,0,0-.365-0.591,1.576,1.576,0,0,0-.552-0.378,1.934,1.934,0,0,0-.692-0.141L30.368,53V52.981L30.7,52.7l1.487-2.316V50.1H28.844v0.717H30.7l0.608-.1-0.43.426L29.526,53.3v0.281h0.692a1.6,1.6,0,0,1,1.071.33,1.25,1.25,0,0,1,.388,1.008,1.434,1.434,0,0,1-.112.572,1.363,1.363,0,0,1-.308.451,1.29,1.29,0,0,1-.468.286,1.736,1.736,0,0,1-.589.1A2.753,2.753,0,0,1,29.54,56.252Zm8.467-2.127H36.9V50H36.4l-3.1,4.488V54.8h2.88v2.084H36.9V54.8h1.1V54.124Zm-1.833,0H34.8l-0.654.078,0.449-.475,1.319-1.851,0.327-.659h0.028l-0.093.795v2.113Z"/>
          <path id="_1244" data-name="#1244" class="cls-4" d="M14.976,77.417h0.645l0.365-1.642H16.66l0.15-.629H16.127l0.29-1.288h0.711l0.15-.629h-0.72l0.355-1.554H16.267l-0.355,1.554H14.93l0.355-1.554H14.64l-0.355,1.554h-0.7l-0.131.629h0.692l-0.29,1.288H13.116l-0.131.629h0.729l-0.365,1.642h0.645l0.365-1.642h0.982Zm-0.187-3.56h0.982l-0.29,1.288H14.5Zm4.04,4.13h3.32V77.26H20.867V70.986H20.531l-2.057,1.672,0.355,0.5,1.029-.777,0.374-.462-0.093.58v4.76H18.829v0.728Zm8.145-5.994a1.519,1.519,0,0,0-.327-0.536,1.457,1.457,0,0,0-.524-0.349,1.912,1.912,0,0,0-.711-0.123,2.738,2.738,0,0,0-.963.167,2.4,2.4,0,0,0-.776.462l0.309,0.561a2.67,2.67,0,0,1,.58-0.349,1.661,1.661,0,0,1,.692-0.153,0.968,0.968,0,0,1,.795.32,1.224,1.224,0,0,1,.262.8,2.849,2.849,0,0,1-.15.875,5.978,5.978,0,0,1-.4.934,10.517,10.517,0,0,1-.552.929q-0.3.457-.617,0.865t-0.6.742q-0.29.335-.5,0.561v0.285h3.722V77.26H25.178l-0.6.108V77.329l0.458-.423q0.365-.472.729-1a10.947,10.947,0,0,0,.659-1.077,7.1,7.1,0,0,0,.477-1.1,3.358,3.358,0,0,0,.182-1.067A1.964,1.964,0,0,0,26.974,71.994Zm5.938,3.191h-1.1V71H31.3l-3.1,4.553v0.325h2.88v2.114h0.729V75.873h1.1V75.185Zm-1.833,0H29.7l-0.655.079,0.449-.482L30.817,72.9l0.327-.669h0.028l-0.094.806v2.144Zm6.929,0H36.9V71H36.4l-3.1,4.553v0.325h2.88v2.114H36.9V75.873h1.1V75.185Zm-1.833,0H34.8l-0.654.079,0.449-.482L35.913,72.9l0.327-.669h0.028l-0.093.806v2.144Z"/>
          <path id="_1238" data-name="#1238" class="cls-4" d="M14.93,99.324h0.63l0.356-1.619h0.658l0.146-.62H16.054l0.283-1.27h0.694l0.146-.62h-0.7l0.347-1.531h-0.63L15.844,95.2H14.885l0.347-1.531H14.6L14.255,95.2H13.57l-0.128.62h0.676l-0.283,1.27H13.113l-0.128.62H13.7l-0.356,1.619h0.63l0.356-1.619h0.959Zm-0.183-3.509h0.959l-0.283,1.27H14.465Zm3.946,4.071h3.242V99.169H20.684V92.986H20.356l-2.009,1.648,0.347,0.494,1-.766,0.365-.456-0.091.572v4.691H18.693v0.717Zm7.955-5.907a1.5,1.5,0,0,0-.32-0.528,1.423,1.423,0,0,0-.512-0.344,1.852,1.852,0,0,0-.694-0.121,2.653,2.653,0,0,0-.941.165,2.333,2.333,0,0,0-.758.456l0.3,0.552a2.6,2.6,0,0,1,.566-0.344,1.611,1.611,0,0,1,.676-0.15,0.941,0.941,0,0,1,.776.315,1.213,1.213,0,0,1,.256.79,2.828,2.828,0,0,1-.146.863,5.914,5.914,0,0,1-.388.921,10.38,10.38,0,0,1-.539.916q-0.3.451-.6,0.853t-0.589.732q-0.283.33-.484,0.553v0.281h3.635V99.169H24.895l-0.585.107V99.237l0.448-.417q0.356-.465.712-0.984a10.816,10.816,0,0,0,.644-1.061,7.018,7.018,0,0,0,.466-1.081,3.336,3.336,0,0,0,.178-1.052A1.951,1.951,0,0,0,26.648,93.979Zm2.507,5.273a2.392,2.392,0,0,1-.5-0.179l-0.192.688a2.953,2.953,0,0,0,.575.174,3.677,3.677,0,0,0,.74.068,2.479,2.479,0,0,0,.849-0.145,2.023,2.023,0,0,0,.7-0.422,1.982,1.982,0,0,0,.47-0.683,2.356,2.356,0,0,0,.174-0.93,2.23,2.23,0,0,0-.128-0.78,1.768,1.768,0,0,0-.356-0.591,1.539,1.539,0,0,0-.539-0.378,1.852,1.852,0,0,0-.676-0.141L29.964,96V95.981l0.32-.281,1.452-2.317V93.1h-3.26v0.717h1.808l0.594-.1-0.42.426L29.142,96.3v0.281h0.676a1.542,1.542,0,0,1,1.046.329,1.266,1.266,0,0,1,.379,1.008,1.465,1.465,0,0,1-.11.572,1.363,1.363,0,0,1-.3.451,1.255,1.255,0,0,1-.457.286,1.661,1.661,0,0,1-.575.1A2.629,2.629,0,0,1,29.155,99.252Zm4.224-.3a1.524,1.524,0,0,0,.352.548,1.682,1.682,0,0,0,.571.368,2.072,2.072,0,0,0,.776.136,2.206,2.206,0,0,0,.813-0.141,1.742,1.742,0,0,0,.6-0.388,1.628,1.628,0,0,0,.375-0.591A2.17,2.17,0,0,0,37,98.123a1.867,1.867,0,0,0-.091-0.606,1.735,1.735,0,0,0-.251-0.48,2.207,2.207,0,0,0-.374-0.388,4.144,4.144,0,0,0-.452-0.32,2.779,2.779,0,0,0,.785-0.829,1.952,1.952,0,0,0,.237-0.974,1.58,1.58,0,0,0-.119-0.62,1.425,1.425,0,0,0-.333-0.485,1.534,1.534,0,0,0-.525-0.32,1.966,1.966,0,0,0-.694-0.116,2.02,2.02,0,0,0-.735.126,1.67,1.67,0,0,0-.557.349,1.49,1.49,0,0,0-.356.533,1.847,1.847,0,0,0-.123.688,1.78,1.78,0,0,0,.087.582,1.677,1.677,0,0,0,.237.456,2.009,2.009,0,0,0,.347.364,4.5,4.5,0,0,0,.425.305,2.756,2.756,0,0,0-.941.819,1.863,1.863,0,0,0-.3,1.061A1.92,1.92,0,0,0,33.38,98.951Zm2.809-.271a1.01,1.01,0,0,1-.256.359,1.1,1.1,0,0,1-.37.213,1.331,1.331,0,0,1-.438.073,1.253,1.253,0,0,1-.5-0.092,1.064,1.064,0,0,1-.361-0.247,1,1,0,0,1-.219-0.368,1.363,1.363,0,0,1-.073-0.446,1.544,1.544,0,0,1,.237-0.775,2.162,2.162,0,0,1,.795-0.737q0.247,0.136.475,0.281a2.346,2.346,0,0,1,.407.325,1.552,1.552,0,0,1,.288.4,1.12,1.12,0,0,1,.11.509A1.256,1.256,0,0,1,36.188,98.68Zm-2-4.391a0.883,0.883,0,0,1,.206-0.315,1.121,1.121,0,0,1,.329-0.223,1.048,1.048,0,0,1,.438-0.087,0.952,0.952,0,0,1,.977,1.027,1.394,1.394,0,0,1-.2.727,2.678,2.678,0,0,1-.607.669q-0.238-.126-0.457-0.266a2.426,2.426,0,0,1-.388-0.305,1.31,1.31,0,0,1-.269-0.373,1.09,1.09,0,0,1-.1-0.48A1.037,1.037,0,0,1,34.188,94.289Z"/>
          <path id="Repair_" data-name="Repair " class="cls-4" d="M47,78.022h0.8V74.874l0.94,0.149,1.851,3h0.93l-1.669-2.751-0.46-.367a2.074,2.074,0,0,0,1.093-.675,1.966,1.966,0,0,0,.432-1.321,2,2,0,0,0-.182-0.894,1.656,1.656,0,0,0-.484-0.6,1.917,1.917,0,0,0-.7-0.328,3.462,3.462,0,0,0-.839-0.1q-0.393,0-.868.04A8.2,8.2,0,0,0,47,71.14v6.882Zm2.714-5.968a1.185,1.185,0,0,1,.355.884,1.254,1.254,0,0,1-.432,1.053,1.721,1.721,0,0,1-1.093.338H47.8V71.765a0.954,0.954,0,0,1,.177-0.03l0.235-.02q0.124-.01.259-0.01h0.259A1.352,1.352,0,0,1,49.714,72.053Zm5.668,5a1.375,1.375,0,0,1-.489.278,1.891,1.891,0,0,1-.652.119,1.827,1.827,0,0,1-.715-0.124,1.166,1.166,0,0,1-.475-0.358,1.53,1.53,0,0,1-.268-0.571,3.136,3.136,0,0,1-.086-0.775h3.079a5.1,5.1,0,0,0,.058-0.725,2.608,2.608,0,0,0-.163-1.008,1.493,1.493,0,0,0-.422-0.591,1.429,1.429,0,0,0-.585-0.283,2.925,2.925,0,0,0-.652-0.075,1.908,1.908,0,0,0-1.563.665,2.985,2.985,0,0,0-.547,1.937,4.24,4.24,0,0,0,.125,1.073,2.311,2.311,0,0,0,.384.819,1.7,1.7,0,0,0,.662.526,2.272,2.272,0,0,0,.949.184A3.034,3.034,0,0,0,54.945,78a2.142,2.142,0,0,0,.724-0.377Zm-0.575-3.113a1.566,1.566,0,0,1,.278,1.058H52.706a1.568,1.568,0,0,1,.408-1.053,1.3,1.3,0,0,1,.906-0.308A1.015,1.015,0,0,1,54.806,73.935Zm2.235,6.073h0.767V77.942a2.212,2.212,0,0,0,.446.154,2.77,2.77,0,0,0,.561.045,2.134,2.134,0,0,0,.906-0.189,1.959,1.959,0,0,0,.7-0.536,2.488,2.488,0,0,0,.446-0.849,3.737,3.737,0,0,0,.158-1.127,3.082,3.082,0,0,0-.47-1.917,1.722,1.722,0,0,0-1.429-.586,1.7,1.7,0,0,0-.8.184,1.485,1.485,0,0,0-.571.531H57.712l-0.144-.6H57.041v6.952Zm2.518-6.247a1.05,1.05,0,0,1,.384.362,1.658,1.658,0,0,1,.216.566,3.764,3.764,0,0,1,.067.74,2.461,2.461,0,0,1-.388,1.5,1.25,1.25,0,0,1-1.05.511,1.875,1.875,0,0,1-.585-0.075,1.262,1.262,0,0,1-.393-0.213V74.695a1.487,1.487,0,0,1,.4-0.8,1.089,1.089,0,0,1,.772-0.263A1.192,1.192,0,0,1,59.559,73.761Zm2.834,0.268a1.836,1.836,0,0,1,.312-0.148,3.064,3.064,0,0,1,.374-0.112q0.2-.046.384-0.072a2.6,2.6,0,0,1,.35-0.026,1.056,1.056,0,0,1,.767.219,1.093,1.093,0,0,1,.211.765q0,0.238-.029.536a1.809,1.809,0,0,0-.264-0.02H64.234a5.743,5.743,0,0,0-.964.075,2.337,2.337,0,0,0-.748.248,1.264,1.264,0,0,0-.484.467,1.419,1.419,0,0,0-.173.73,1.477,1.477,0,0,0,.11.586,1.3,1.3,0,0,0,.758.725,1.608,1.608,0,0,0,.571.1,1.971,1.971,0,0,0,.547-0.07,1.93,1.93,0,0,0,.422-0.174,1.391,1.391,0,0,0,.312-0.238,1.632,1.632,0,0,0,.216-0.273h0.048l0.2,0.7h0.566a3.381,3.381,0,0,1-.105-0.606q-0.029-.328-0.029-0.7,0-.506.029-1.073t0.029-1.162a2.777,2.777,0,0,0-.053-0.536,1.263,1.263,0,0,0-.211-0.492,1.123,1.123,0,0,0-.46-0.363,1.938,1.938,0,0,0-.8-0.139A4.588,4.588,0,0,0,63,73.086a2.708,2.708,0,0,0-.849.338ZM62.9,77.183a0.746,0.746,0,0,1-.24-0.571,0.644,0.644,0,0,1,.129-0.412,0.88,0.88,0,0,1,.345-0.258,1.787,1.787,0,0,1,.5-0.129,4.747,4.747,0,0,1,.58-0.035q0.134,0,.273.005T64.762,75.8v0.824a1.14,1.14,0,0,1-.149.268,1.176,1.176,0,0,1-.254.253,1.369,1.369,0,0,1-.364.189,1.435,1.435,0,0,1-.48.075A0.865,0.865,0,0,1,62.9,77.183Zm4.249,0.839h0.767V73.056H67.15v4.965Zm-0.014-6.1a0.513,0.513,0,0,0,.379.149,0.563,0.563,0,0,0,.393-0.149,0.489,0.489,0,0,0,.163-0.377,0.558,0.558,0,0,0-.556-0.556,0.489,0.489,0,0,0-.379.164,0.564,0.564,0,0,0-.149.392A0.511,0.511,0,0,0,67.135,71.924Zm4.848,1.132a2.282,2.282,0,0,0-.623-0.1,1.078,1.078,0,0,0-.647.184,1.516,1.516,0,0,0-.436.521H70.238l-0.144-.606H69.557v4.965h0.767V74.546a1.028,1.028,0,0,1,.3-0.591,0.9,0.9,0,0,1,.652-0.233,1.679,1.679,0,0,1,.547.1Z"/>
          <path id="Installation" class="cls-4" d="M47.012,99.886h0.761V93.069H47.012v6.817Zm6.094,0V96.945a4.314,4.314,0,0,0-.1-1,1.6,1.6,0,0,0-.284-0.628,0.986,0.986,0,0,0-.472-0.326,2.136,2.136,0,0,0-.66-0.092,1.843,1.843,0,0,0-.884.2,1.685,1.685,0,0,0-.591.511H50.082l-0.137-.594H49.431v4.87h0.733V96.555a1.486,1.486,0,0,1,.445-0.7,1.171,1.171,0,0,1,.8-0.278,0.78,0.78,0,0,1,.756.385,2.493,2.493,0,0,1,.206,1.144v2.776h0.733Zm3.1-.73a1.178,1.178,0,0,1-.651.166,2.262,2.262,0,0,1-.687-0.107,2.594,2.594,0,0,1-.55-0.234l-0.22.662a2.7,2.7,0,0,0,.614.253A3.207,3.207,0,0,0,55.6,100a1.992,1.992,0,0,0,.7-0.112,1.433,1.433,0,0,0,.5-0.307,1.191,1.191,0,0,0,.3-0.468,1.743,1.743,0,0,0,.1-0.584,1.334,1.334,0,0,0-.165-0.706,1.529,1.529,0,0,0-.408-0.443A2.233,2.233,0,0,0,56.09,97.1q-0.289-.107-0.532-0.219a1.745,1.745,0,0,1-.408-0.253,0.491,0.491,0,0,1-.165-0.394,0.605,0.605,0,0,1,.188-0.507,0.963,0.963,0,0,1,.591-0.146,2.374,2.374,0,0,1,.637.083,2.785,2.785,0,0,1,.509.19l0.174-.643a3.1,3.1,0,0,0-.582-0.219,3.166,3.166,0,0,0-.829-0.092,1.542,1.542,0,0,0-1.045.326,1.291,1.291,0,0,0-.376,1.027,1.235,1.235,0,0,0,.165.682,1.416,1.416,0,0,0,.408.414,2.43,2.43,0,0,0,.532.263q0.289,0.1.532,0.214a1.393,1.393,0,0,1,.408.278,0.62,0.62,0,0,1,.165.458A0.652,0.652,0,0,1,56.2,99.156ZM57.7,95.7h0.715v2.844a2.071,2.071,0,0,0,.229,1.125,0.885,0.885,0,0,0,.788.336,2.459,2.459,0,0,0,.632-0.078,2.713,2.713,0,0,0,.541-0.2l-0.165-.594q-0.2.088-.367,0.141a1.315,1.315,0,0,1-.4.054,0.426,0.426,0,0,1-.4-0.209,1.55,1.55,0,0,1-.119-0.716V95.7h1.246V95.017H59.146V93.828l-0.733.224v0.964H57.7V95.7Zm3.867,0.273a1.736,1.736,0,0,1,.3-0.145,2.875,2.875,0,0,1,.358-0.11q0.188-.045.367-0.07a2.418,2.418,0,0,1,.334-0.025,0.99,0.99,0,0,1,.733.214,1.092,1.092,0,0,1,.2.75q0,0.234-.027.526a1.689,1.689,0,0,0-.252-0.019H63.325a5.355,5.355,0,0,0-.921.073,2.193,2.193,0,0,0-.715.243,1.222,1.222,0,0,0-.463.458,1.42,1.42,0,0,0-.165.716,1.483,1.483,0,0,0,.105.575,1.3,1.3,0,0,0,.289.433,1.258,1.258,0,0,0,.435.278,1.5,1.5,0,0,0,.545.1,1.839,1.839,0,0,0,.522-0.068,1.817,1.817,0,0,0,.4-0.17,1.33,1.33,0,0,0,.3-0.234,1.6,1.6,0,0,0,.206-0.268h0.046L64.1,99.906h0.541a3.391,3.391,0,0,1-.1-0.594q-0.027-.321-0.028-0.682,0-.5.028-1.052t0.028-1.139a2.8,2.8,0,0,0-.05-0.526,1.258,1.258,0,0,0-.2-0.482,1.079,1.079,0,0,0-.44-0.356,1.811,1.811,0,0,0-.765-0.136,4.276,4.276,0,0,0-.967.107,2.551,2.551,0,0,0-.811.331Zm0.486,3.092a0.741,0.741,0,0,1-.229-0.56,0.643,0.643,0,0,1,.124-0.4,0.843,0.843,0,0,1,.33-0.253,1.677,1.677,0,0,1,.477-0.127,4.432,4.432,0,0,1,.554-0.034q0.128,0,.261,0T63.829,97.7v0.808a1.161,1.161,0,0,1-.385.511,1.3,1.3,0,0,1-.348.185,1.341,1.341,0,0,1-.458.073A0.814,0.814,0,0,1,62.051,99.063Zm4.72-5.995H66.037v5.843a1.116,1.116,0,0,0,.266.843,0.954,0.954,0,0,0,.678.248,2.529,2.529,0,0,0,.454-0.049,1.464,1.464,0,0,0,.408-0.127l-0.082-.614a1.41,1.41,0,0,1-.312.088,1.82,1.82,0,0,1-.257.02,0.367,0.367,0,0,1-.312-0.146,0.826,0.826,0,0,1-.11-0.487v-5.62Zm2.676,0H68.713v5.843a1.116,1.116,0,0,0,.266.843,0.954,0.954,0,0,0,.678.248,2.529,2.529,0,0,0,.454-0.049,1.464,1.464,0,0,0,.408-0.127l-0.082-.614a1.41,1.41,0,0,1-.312.088,1.82,1.82,0,0,1-.257.02,0.367,0.367,0,0,1-.312-0.146,0.827,0.827,0,0,1-.11-0.487v-5.62Zm2.016,2.9a1.732,1.732,0,0,1,.3-0.145,2.874,2.874,0,0,1,.357-0.11q0.188-.045.367-0.07a2.417,2.417,0,0,1,.335-0.025,0.991,0.991,0,0,1,.733.214,1.092,1.092,0,0,1,.2.75q0,0.234-.028.526a1.689,1.689,0,0,0-.252-0.019H73.222a5.355,5.355,0,0,0-.921.073,2.191,2.191,0,0,0-.715.243,1.222,1.222,0,0,0-.463.458,1.421,1.421,0,0,0-.165.716,1.483,1.483,0,0,0,.105.575,1.3,1.3,0,0,0,.289.433,1.258,1.258,0,0,0,.435.278,1.5,1.5,0,0,0,.545.1,1.839,1.839,0,0,0,.522-0.068,1.817,1.817,0,0,0,.4-0.17,1.33,1.33,0,0,0,.3-0.234,1.6,1.6,0,0,0,.206-0.268h0.046L74,99.906h0.541a3.391,3.391,0,0,1-.1-0.594q-0.028-.321-0.028-0.682,0-.5.028-1.052t0.028-1.139a2.8,2.8,0,0,0-.05-0.526,1.258,1.258,0,0,0-.2-0.482,1.077,1.077,0,0,0-.44-0.356,1.81,1.81,0,0,0-.765-0.136,4.275,4.275,0,0,0-.967.107,2.55,2.55,0,0,0-.811.331Zm0.486,3.092a0.741,0.741,0,0,1-.229-0.56,0.643,0.643,0,0,1,.124-0.4,0.843,0.843,0,0,1,.33-0.253,1.677,1.677,0,0,1,.477-0.127,4.431,4.431,0,0,1,.554-0.034q0.128,0,.261,0T73.726,97.7v0.808a1.161,1.161,0,0,1-.385.511,1.3,1.3,0,0,1-.348.185,1.34,1.34,0,0,1-.458.073A0.814,0.814,0,0,1,71.949,99.063Zm3.3-3.365h0.715v2.844a2.071,2.071,0,0,0,.229,1.125,0.884,0.884,0,0,0,.788.336,2.459,2.459,0,0,0,.632-0.078,2.709,2.709,0,0,0,.541-0.2l-0.165-.594q-0.2.088-.367,0.141a1.315,1.315,0,0,1-.4.054,0.426,0.426,0,0,1-.4-0.209A1.549,1.549,0,0,1,76.7,98.4V95.7h1.246V95.017H76.7V93.828l-0.733.224v0.964H75.248V95.7Zm3.867,4.188h0.733v-4.87H79.115v4.87ZM79.1,93.906a0.483,0.483,0,0,0,.362.146,0.53,0.53,0,0,0,.376-0.146,0.485,0.485,0,0,0,.156-0.37,0.533,0.533,0,0,0-.156-0.385,0.5,0.5,0,0,0-.376-0.161,0.462,0.462,0,0,0-.362.161,0.561,0.561,0,0,0-.142.385A0.509,0.509,0,0,0,79.1,93.906ZM81.278,98.5a2.289,2.289,0,0,0,.367.808,1.637,1.637,0,0,0,.628.516,2.067,2.067,0,0,0,.894.18,1.784,1.784,0,0,0,1.489-.657,3.006,3.006,0,0,0,.518-1.894,4.288,4.288,0,0,0-.119-1.047,2.3,2.3,0,0,0-.367-0.808,1.64,1.64,0,0,0-.628-0.516,2.068,2.068,0,0,0-.894-0.18,1.783,1.783,0,0,0-1.489.657,3.005,3.005,0,0,0-.518,1.894A4.277,4.277,0,0,0,81.278,98.5Zm1.888-2.917a1.058,1.058,0,0,1,.577.151,1.156,1.156,0,0,1,.385.4,1.948,1.948,0,0,1,.215.594,3.642,3.642,0,0,1,.069.721q0,1.88-1.246,1.87a1.031,1.031,0,0,1-.577-0.156,1.2,1.2,0,0,1-.385-0.409,1.942,1.942,0,0,1-.215-0.594,3.582,3.582,0,0,1-.069-0.711q0-1.88,1.246-1.87h0ZM90,99.886V96.945a4.308,4.308,0,0,0-.1-1,1.6,1.6,0,0,0-.284-0.628,0.986,0.986,0,0,0-.472-0.326,2.136,2.136,0,0,0-.66-0.092,1.842,1.842,0,0,0-.884.2,1.684,1.684,0,0,0-.591.511H86.978l-0.138-.594H86.328v4.87h0.733V96.555a1.486,1.486,0,0,1,.445-0.7,1.171,1.171,0,0,1,.8-0.278,0.78,0.78,0,0,1,.756.385,2.5,2.5,0,0,1,.206,1.144v2.776H90Z"/>
          <path id="Installation-2" data-name="Installation" class="cls-4" d="M47,56.886h0.761V50.069H47v6.817Zm6.094,0V53.945a4.314,4.314,0,0,0-.1-1,1.6,1.6,0,0,0-.284-0.628,0.986,0.986,0,0,0-.472-0.326,2.136,2.136,0,0,0-.66-0.093,1.842,1.842,0,0,0-.884.2,1.685,1.685,0,0,0-.591.511H50.074l-0.137-.594H49.423v4.87h0.733V53.555a1.486,1.486,0,0,1,.444-0.7,1.171,1.171,0,0,1,.8-0.278,0.78,0.78,0,0,1,.756.385,2.493,2.493,0,0,1,.206,1.144v2.776H53.1Zm3.1-.73a1.178,1.178,0,0,1-.651.166,2.263,2.263,0,0,1-.687-0.107,2.594,2.594,0,0,1-.55-0.234l-0.22.662a2.7,2.7,0,0,0,.614.253,3.207,3.207,0,0,0,.889.107,1.992,1.992,0,0,0,.7-0.112,1.433,1.433,0,0,0,.5-0.307,1.191,1.191,0,0,0,.3-0.468,1.741,1.741,0,0,0,.1-0.584,1.333,1.333,0,0,0-.165-0.706,1.528,1.528,0,0,0-.408-0.443,2.232,2.232,0,0,0-.531-0.282q-0.289-.107-0.532-0.219a1.745,1.745,0,0,1-.408-0.253,0.491,0.491,0,0,1-.165-0.394,0.605,0.605,0,0,1,.188-0.506,0.963,0.963,0,0,1,.591-0.146,2.374,2.374,0,0,1,.637.083,2.782,2.782,0,0,1,.509.19l0.174-.643a3.1,3.1,0,0,0-.582-0.219,3.166,3.166,0,0,0-.829-0.093,1.542,1.542,0,0,0-1.045.326,1.291,1.291,0,0,0-.376,1.027,1.236,1.236,0,0,0,.165.682,1.415,1.415,0,0,0,.408.414,2.429,2.429,0,0,0,.532.263q0.289,0.1.532,0.214a1.394,1.394,0,0,1,.408.278,0.62,0.62,0,0,1,.165.458A0.653,0.653,0,0,1,56.2,56.156ZM57.689,52.7H58.4v2.844a2.071,2.071,0,0,0,.229,1.125,0.884,0.884,0,0,0,.788.336,2.459,2.459,0,0,0,.632-0.078,2.713,2.713,0,0,0,.541-0.2l-0.165-.594q-0.2.088-.367,0.141a1.315,1.315,0,0,1-.4.054,0.425,0.425,0,0,1-.4-0.209,1.548,1.548,0,0,1-.119-0.716V52.7h1.246V52.017H59.137V50.828l-0.733.224v0.964H57.689V52.7Zm3.867,0.273a1.733,1.733,0,0,1,.3-0.145,2.868,2.868,0,0,1,.357-0.11q0.188-.045.367-0.07a2.416,2.416,0,0,1,.334-0.025,0.99,0.99,0,0,1,.733.214,1.091,1.091,0,0,1,.2.75q0,0.234-.028.526a1.692,1.692,0,0,0-.252-0.02H63.316a5.353,5.353,0,0,0-.921.073,2.193,2.193,0,0,0-.715.243,1.223,1.223,0,0,0-.463.458,1.42,1.42,0,0,0-.165.716,1.483,1.483,0,0,0,.105.575,1.3,1.3,0,0,0,.289.433,1.259,1.259,0,0,0,.435.278,1.5,1.5,0,0,0,.545.1A1.839,1.839,0,0,0,62.95,56.9a1.818,1.818,0,0,0,.4-0.171,1.329,1.329,0,0,0,.3-0.234,1.6,1.6,0,0,0,.206-0.268H63.9L64.1,56.906h0.541a3.4,3.4,0,0,1-.1-0.594q-0.027-.321-0.028-0.682,0-.5.028-1.052t0.028-1.139a2.8,2.8,0,0,0-.05-0.526,1.256,1.256,0,0,0-.2-0.482,1.078,1.078,0,0,0-.44-0.355,1.811,1.811,0,0,0-.765-0.136,4.276,4.276,0,0,0-.967.107,2.551,2.551,0,0,0-.811.331Zm0.486,3.092a0.741,0.741,0,0,1-.229-0.56,0.644,0.644,0,0,1,.124-0.4,0.843,0.843,0,0,1,.33-0.253,1.675,1.675,0,0,1,.476-0.127,4.433,4.433,0,0,1,.555-0.034q0.128,0,.261,0T63.82,54.7v0.808a1.163,1.163,0,0,1-.385.511,1.3,1.3,0,0,1-.348.185,1.341,1.341,0,0,1-.458.073A0.814,0.814,0,0,1,62.042,56.063Zm4.72-5.994H66.029v5.843a1.116,1.116,0,0,0,.266.843,0.954,0.954,0,0,0,.678.248,2.529,2.529,0,0,0,.454-0.049,1.464,1.464,0,0,0,.408-0.127l-0.082-.614a1.408,1.408,0,0,1-.312.088,1.819,1.819,0,0,1-.257.02,0.367,0.367,0,0,1-.312-0.146,0.827,0.827,0,0,1-.11-0.487V50.069Zm2.676,0H68.7v5.843a1.116,1.116,0,0,0,.266.843,0.954,0.954,0,0,0,.678.248,2.529,2.529,0,0,0,.454-0.049,1.464,1.464,0,0,0,.408-0.127l-0.083-.614a1.407,1.407,0,0,1-.312.088,1.819,1.819,0,0,1-.257.02,0.367,0.367,0,0,1-.312-0.146,0.827,0.827,0,0,1-.11-0.487V50.069Zm2.016,2.9a1.736,1.736,0,0,1,.3-0.145,2.875,2.875,0,0,1,.358-0.11q0.188-.045.367-0.07a2.418,2.418,0,0,1,.334-0.025,0.99,0.99,0,0,1,.733.214,1.092,1.092,0,0,1,.2.75q0,0.234-.028.526a1.689,1.689,0,0,0-.252-0.02H73.214a5.355,5.355,0,0,0-.921.073,2.193,2.193,0,0,0-.715.243,1.222,1.222,0,0,0-.463.458,1.42,1.42,0,0,0-.165.716,1.483,1.483,0,0,0,.105.575,1.3,1.3,0,0,0,.289.433,1.258,1.258,0,0,0,.435.278,1.5,1.5,0,0,0,.545.1,1.839,1.839,0,0,0,.522-0.068,1.817,1.817,0,0,0,.4-0.171,1.33,1.33,0,0,0,.3-0.234,1.6,1.6,0,0,0,.206-0.268H73.8l0.193,0.682h0.541a3.391,3.391,0,0,1-.1-0.594q-0.027-.321-0.028-0.682,0-.5.028-1.052t0.028-1.139a2.8,2.8,0,0,0-.05-0.526,1.258,1.258,0,0,0-.2-0.482,1.079,1.079,0,0,0-.44-0.355A1.811,1.811,0,0,0,73,51.939a4.276,4.276,0,0,0-.967.107,2.551,2.551,0,0,0-.811.331Zm0.486,3.092a0.741,0.741,0,0,1-.229-0.56,0.643,0.643,0,0,1,.124-0.4,0.843,0.843,0,0,1,.33-0.253,1.677,1.677,0,0,1,.477-0.127,4.432,4.432,0,0,1,.555-0.034q0.128,0,.261,0T73.718,54.7v0.808a1.161,1.161,0,0,1-.385.511,1.3,1.3,0,0,1-.348.185,1.341,1.341,0,0,1-.458.073A0.814,0.814,0,0,1,71.94,56.063Zm3.3-3.365h0.715v2.844a2.071,2.071,0,0,0,.229,1.125,0.884,0.884,0,0,0,.788.336,2.459,2.459,0,0,0,.632-0.078,2.713,2.713,0,0,0,.541-0.2l-0.165-.594q-0.2.088-.367,0.141a1.315,1.315,0,0,1-.4.054,0.426,0.426,0,0,1-.4-0.209,1.549,1.549,0,0,1-.119-0.716V52.7h1.246V52.017H76.687V50.828l-0.733.224v0.964H75.239V52.7Zm3.867,4.188H79.84v-4.87H79.107v4.87Zm-0.014-5.98a0.483,0.483,0,0,0,.362.146,0.53,0.53,0,0,0,.376-0.146,0.485,0.485,0,0,0,.156-0.37,0.534,0.534,0,0,0-.156-0.385,0.5,0.5,0,0,0-.376-0.161,0.462,0.462,0,0,0-.362.161,0.561,0.561,0,0,0-.142.385A0.508,0.508,0,0,0,79.093,50.906ZM81.269,55.5a2.293,2.293,0,0,0,.367.808,1.637,1.637,0,0,0,.628.516,2.067,2.067,0,0,0,.894.18,1.784,1.784,0,0,0,1.489-.657,3.006,3.006,0,0,0,.518-1.894,4.288,4.288,0,0,0-.119-1.047,2.3,2.3,0,0,0-.367-0.808,1.64,1.64,0,0,0-.628-0.516,2.068,2.068,0,0,0-.894-0.18,1.783,1.783,0,0,0-1.489.657,3.005,3.005,0,0,0-.518,1.894A4.281,4.281,0,0,0,81.269,55.5Zm1.888-2.917a1.058,1.058,0,0,1,.577.151,1.158,1.158,0,0,1,.385.4,1.95,1.95,0,0,1,.215.594,3.642,3.642,0,0,1,.069.721q0,1.88-1.246,1.87a1.03,1.03,0,0,1-.577-0.156,1.193,1.193,0,0,1-.385-0.409,1.94,1.94,0,0,1-.215-0.594,3.59,3.59,0,0,1-.069-0.711q0-1.88,1.246-1.87h0Zm6.837,4.3V53.945a4.308,4.308,0,0,0-.1-1,1.6,1.6,0,0,0-.284-0.628,0.986,0.986,0,0,0-.472-0.326,2.136,2.136,0,0,0-.66-0.093,1.843,1.843,0,0,0-.884.2,1.685,1.685,0,0,0-.591.511H86.97l-0.137-.594H86.319v4.87h0.733V53.555a1.486,1.486,0,0,1,.445-0.7,1.171,1.171,0,0,1,.8-0.278,0.78,0.78,0,0,1,.756.385,2.493,2.493,0,0,1,.206,1.144v2.776h0.733Z"/>
          <path id="Low" class="cls-5" d="M103.223,98.658H100.3V93h-1.31v6.85h4.236V98.658Zm0.225-.2a2.225,2.225,0,0,0,.421.817,1.9,1.9,0,0,0,.7.524,2.446,2.446,0,0,0,.994.186,2.089,2.089,0,0,0,1.659-.67,2.807,2.807,0,0,0,.589-1.913,3.812,3.812,0,0,0-.139-1.057,2.266,2.266,0,0,0-.416-0.817,1.866,1.866,0,0,0-.7-0.524,2.451,2.451,0,0,0-1-.186,2.106,2.106,0,0,0-1.664.67,2.8,2.8,0,0,0-.592,1.913A3.812,3.812,0,0,0,103.448,98.462Zm1.4-2.212a0.839,0.839,0,0,1,.717-0.352,0.775,0.775,0,0,1,.746.416,2.33,2.33,0,0,1,.22,1.091,2.131,2.131,0,0,1-.239,1.145,0.811,0.811,0,0,1-.727.362,0.807,0.807,0,0,1-.746-0.431A1.727,1.727,0,0,1,104.648,98a2.932,2.932,0,0,1-.057-0.6A1.994,1.994,0,0,1,104.849,96.25Zm6.283-1.292L110.338,97.4l-0.162.881h-0.048l-0.115-.871-0.7-2.456h-1.348l1.539,4.942h0.947l0.918-2.73,0.115-.626h0.047l0.125,0.617,0.966,2.74h0.918l1.472-4.942h-1.138l-0.612,2.5-0.134.822h-0.038l-0.172-.812-0.87-2.505h-0.918Z"/>
          <path id="Urgent" class="cls-6" d="M102.483,54.357a1.9,1.9,0,0,1-.256,1.114,0.962,0.962,0,0,1-.829.345,1.6,1.6,0,0,1-.51-0.074,0.81,0.81,0,0,1-.365-0.246,1.1,1.1,0,0,1-.214-0.453,2.974,2.974,0,0,1-.068-0.685V50H98.993v4.622a2.13,2.13,0,0,0,2.423,2.395,2.756,2.756,0,0,0,.921-0.148,1.745,1.745,0,0,0,.711-0.463,2.2,2.2,0,0,0,.455-0.8,3.581,3.581,0,0,0,.164-1.153V50h-1.184v4.356Zm4.893-2.385a1.609,1.609,0,0,0-.538-0.108,1.008,1.008,0,0,0-.619.2,1.328,1.328,0,0,0-.419.562h-0.037l-0.137-.651h-0.92V56.9h1.185V53.717a0.881,0.881,0,0,1,.287-0.468,0.792,0.792,0,0,1,.533-0.182,1.44,1.44,0,0,1,.51.108Zm4.383,0.177a4.109,4.109,0,0,0-.752-0.207,5.528,5.528,0,0,0-1.043-.089,2.11,2.11,0,0,0-1.695.68,3,3,0,0,0-.583,2,3.158,3.158,0,0,0,.433,1.853,1.524,1.524,0,0,0,1.317.591,1.273,1.273,0,0,0,1.129-.463H110.6v0.315a1.314,1.314,0,0,1-.223.813,1.013,1.013,0,0,1-.843.291,2.288,2.288,0,0,1-.688-0.089c-0.186-.059-0.348-0.118-0.488-0.177l-0.246,1.015a2.49,2.49,0,0,0,.57.207,4.284,4.284,0,0,0,1.034.1,2.106,2.106,0,0,0,1.5-.508,2.085,2.085,0,0,0,.537-1.582V52.15Zm-2.633,3.43a2.2,2.2,0,0,1-.219-1.094,2.117,2.117,0,0,1,.255-1.178,0.816,0.816,0,0,1,.711-0.369,1.705,1.705,0,0,1,.7.128v2.218a1.076,1.076,0,0,1-.287.5,0.775,0.775,0,0,1-.534.168A0.689,0.689,0,0,1,109.126,55.579Zm6.916,0.059a1.811,1.811,0,0,1-.451.251,1.728,1.728,0,0,1-.67.123,1.083,1.083,0,0,1-.87-0.315,1.518,1.518,0,0,1-.3-0.936h2.734c0.03-.171.053-0.335,0.068-0.493s0.023-.306.023-0.444a2.576,2.576,0,0,0-.155-0.956,1.61,1.61,0,0,0-.41-0.611,1.537,1.537,0,0,0-.583-0.325,2.34,2.34,0,0,0-.675-0.1,2.04,2.04,0,0,0-1.613.65,2.879,2.879,0,0,0-.574,1.951,3.163,3.163,0,0,0,.51,1.907,1.869,1.869,0,0,0,1.613.695,3.023,3.023,0,0,0,1-.163,2.254,2.254,0,0,0,.743-0.4Zm-0.715-2.493a1.33,1.33,0,0,1,.15.818h-1.7a1.557,1.557,0,0,1,.269-0.8,0.8,0.8,0,0,1,.688-0.3A0.653,0.653,0,0,1,115.327,53.145Zm6.064,3.755V53.835a4.282,4.282,0,0,0-.091-0.961,1.541,1.541,0,0,0-.273-0.616,1.031,1.031,0,0,0-.447-0.325,1.715,1.715,0,0,0-.6-0.1,1.548,1.548,0,0,0-.893.236,2.022,2.022,0,0,0-.556.552h-0.037l-0.136-.651h-0.939V56.9H118.6V53.707a1.177,1.177,0,0,1,.332-0.527,0.816,0.816,0,0,1,.57-0.212,0.58,0.58,0,0,1,.542.266,1.77,1.77,0,0,1,.159.867v2.8h1.185Zm0.52-3.844h0.628V55.54a1.777,1.777,0,0,0,.3,1.148,1.147,1.147,0,0,0,.925.35,2.545,2.545,0,0,0,.666-0.089A2.874,2.874,0,0,0,125,56.732l-0.21-.986a2.008,2.008,0,0,1-.3.118,1.106,1.106,0,0,1-.314.039,0.355,0.355,0,0,1-.36-0.222,2.009,2.009,0,0,1-.1-0.734V53.056h1.112V51.972h-1.112V50.681l-1.185.365v0.926h-0.628v1.084Z"/>
          <path id="Medium" class="cls-7" d="M104.018,77.854h1.269V71.1h-1.149L102.5,74.169l-0.278.791h-0.037l-0.306-.772L100.146,71.1H98.988v6.752h1.2V74.343l-0.185-1.331h0.046l0.407,1.071,1.455,2.527h0.408l1.38-2.518,0.4-1.08h0.056l-0.139,1.341v3.5Zm5.66-1.235a1.856,1.856,0,0,1-.459.246,1.811,1.811,0,0,1-.681.121,1.125,1.125,0,0,1-.884-0.309,1.447,1.447,0,0,1-.3-0.916h2.779q0.046-.251.069-0.482a4.211,4.211,0,0,0,.023-0.434,2.432,2.432,0,0,0-.157-0.936,1.508,1.508,0,0,0-1.01-.916,2.457,2.457,0,0,0-.685-0.1,2.113,2.113,0,0,0-1.64.637,2.743,2.743,0,0,0-.584,1.91,3.009,3.009,0,0,0,.519,1.866,1.932,1.932,0,0,0,1.64.68,3.183,3.183,0,0,0,1.014-.159,2.321,2.321,0,0,0,.755-0.391Zm-0.727-2.44a1.264,1.264,0,0,1,.153.8H107.38a1.487,1.487,0,0,1,.274-0.786,0.827,0.827,0,0,1,.7-0.294A0.672,0.672,0,0,1,108.951,74.179Zm6.063-3.077h-1.2V73.06a1.835,1.835,0,0,0-.371-0.111,2.717,2.717,0,0,0-.472-0.034,1.881,1.881,0,0,0-1.575.685,3.037,3.037,0,0,0-.538,1.919,2.968,2.968,0,0,0,.482,1.871,1.638,1.638,0,0,0,1.353.6,1.565,1.565,0,0,0,.819-0.207,1.422,1.422,0,0,0,.533-0.545h0.037l0.167,0.627h0.861a7.206,7.206,0,0,1-.083-0.9q-0.009-.405-0.009-0.81V71.1Zm-2.71,5.45a2.046,2.046,0,0,1-.208-0.993,2.2,2.2,0,0,1,.254-1.225,0.879,0.879,0,0,1,.765-0.357,1.307,1.307,0,0,1,.407.053,0.919,0.919,0,0,1,.288.159v2.045a0.976,0.976,0,0,1-.288.516,0.814,0.814,0,0,1-.555.178A0.7,0.7,0,0,1,112.3,76.551Zm3.868,1.3h1.2V73.031h-1.2v4.823Zm0.023-5.715a0.77,0.77,0,0,0,.551.188,0.84,0.84,0,0,0,.57-0.188,0.593,0.593,0,0,0,.217-0.468,0.622,0.622,0,0,0-.217-0.477,0.815,0.815,0,0,0-.57-0.2,0.748,0.748,0,0,0-.551.2,0.648,0.648,0,0,0-.2.477A0.616,0.616,0,0,0,116.2,72.138Zm2.32,0.892v3a3.843,3.843,0,0,0,.1.945,1.522,1.522,0,0,0,.282.6,1.035,1.035,0,0,0,.463.318,1.924,1.924,0,0,0,.63.1,1.642,1.642,0,0,0,.9-0.241,1.766,1.766,0,0,0,.593-0.608h0.037l0.213,0.714h0.908a4.87,4.87,0,0,1-.111-0.69q-0.038-.381-0.037-0.776V73.031h-1.2v3.116a1.308,1.308,0,0,1-.338.521,0.8,0.8,0,0,1-.57.212,0.533,0.533,0,0,1-.523-0.26,1.964,1.964,0,0,1-.134-0.849V73.031h-1.2Zm8.866,4.823V74.69a1.12,1.12,0,0,1,.282-0.5A0.711,0.711,0,0,1,128.178,74a0.494,0.494,0,0,1,.514.285,2.391,2.391,0,0,1,.116.854v2.71h1.2V74.96a4.958,4.958,0,0,0-.084-1,1.646,1.646,0,0,0-.254-0.632,0.918,0.918,0,0,0-.445-0.333,2,2,0,0,0-.662-0.1,1.421,1.421,0,0,0-.806.222,1.719,1.719,0,0,0-.547.6,1.216,1.216,0,0,0-.44-0.632,1.288,1.288,0,0,0-.727-0.188,1.44,1.44,0,0,0-.848.231,2.169,2.169,0,0,0-.542.54H124.62l-0.139-.637h-0.935v4.823h1.2V74.642a1.144,1.144,0,0,1,.3-0.458,0.726,0.726,0,0,1,.51-0.178,0.487,0.487,0,0,1,.5.28,2.625,2.625,0,0,1,.121.945v2.624h1.2Z"/>
        </g>
        <path class="cls-8" d="M16,62H130v1H16V62Zm0,22H130v1H16V84Z"/>
      </g>
    </g>
  </g>
  <g id="_1-2" data-name="1">
    <rect id="Rounded_Rectangle_593_copy" data-name="Rounded Rectangle 593 copy" class="cls-2" x="75" y="5" width="70" height="20" rx="5" ry="5"/>
    <path id="Rounded_Rectangle_599" data-name="Rounded Rectangle 599" class="cls-9" d="M113,11h26a1,1,0,0,1,0,2H113A1,1,0,0,1,113,11Zm0,6h15a1,1,0,0,1,0,2H113A1,1,0,0,1,113,17Z"/>
    <path id="Active" class="cls-10" d="M85.714,18.885h0.944l-2.414-7.368H83.45l-2.465,7.368h0.944l0.61-1.9h2.573Zm-1.888-5.9h0.028l1,3.163H82.807Zm4.731,4.656a2.885,2.885,0,0,1-.308-1.392V16.041a2.829,2.829,0,0,1,.312-1.379,1.052,1.052,0,0,1,.993-0.569,0.964,0.964,0,0,1,.763.352,1.262,1.262,0,0,1,.3.853h0.841l0.009-.03a1.871,1.871,0,0,0-.524-1.392,1.843,1.843,0,0,0-1.392-.567,1.936,1.936,0,0,0-1.651.787,3.172,3.172,0,0,0-.585,1.946v0.212a3.186,3.186,0,0,0,.582,1.953,1.936,1.936,0,0,0,1.653.784,1.911,1.911,0,0,0,1.353-.549,1.622,1.622,0,0,0,.563-1.258l-0.014-.03H90.621a1,1,0,0,1-.319.752A1.121,1.121,0,0,1,88.557,17.645Zm4.374-5.556v1.321H92.124v0.739h0.808v3.325a1.675,1.675,0,0,0,.333,1.151,1.152,1.152,0,0,0,.9.367,1.437,1.437,0,0,0,.4-0.058,0.792,0.792,0,0,0,.305-0.149L94.739,18.1a1.251,1.251,0,0,1-.164.048,0.806,0.806,0,0,1-.178.023A0.513,0.513,0,0,1,94,18.014a0.784,0.784,0,0,1-.148-0.541V14.148h0.963V13.409H93.856V12.088H92.931Zm3.879,1.321H95.885v5.475H96.81V13.409Zm0-2.419H95.885v1.017H96.81V10.99Zm1.916,2.419H97.777l1.892,5.475h0.7l1.868-5.475H101.3l-1.17,3.861-0.089.385h-0.028l-0.08-.385Zm7.462,5.387a2.2,2.2,0,0,0,.718-0.478l-0.361-.648a1.823,1.823,0,0,1-.608.4,2.184,2.184,0,0,1-.825.144,1.152,1.152,0,0,1-1.033-.514,2.4,2.4,0,0,1-.338-1.338l0.014-.025h3.25V15.808a2.965,2.965,0,0,0-.51-1.817,1.783,1.783,0,0,0-1.528-.683,1.925,1.925,0,0,0-1.543.772,2.979,2.979,0,0,0-.631,1.951v0.223a3.05,3.05,0,0,0,.612,1.984,2.079,2.079,0,0,0,1.707.754A2.683,2.683,0,0,0,106.188,18.8Zm-0.381-4.314a1.68,1.68,0,0,1,.273.987V15.55h-2.292l-0.009-.025a1.988,1.988,0,0,1,.387-1.03,0.978,0.978,0,0,1,.8-0.4A0.953,0.953,0,0,1,105.807,14.482Z"/>
  </g>
  <g id="_2" data-name="2">
    <rect id="Rounded_Rectangle_593_copy-2" data-name="Rounded Rectangle 593 copy" class="cls-2" x="110" y="29" width="64" height="20" rx="5" ry="5"/>
    <path id="Rounded_Rectangle_599-2" data-name="Rounded Rectangle 599" class="cls-11" d="M143,35h25a1,1,0,0,1,0,2H143A1,1,0,0,1,143,35Zm0,6h13a1,1,0,0,1,0,2H143A1,1,0,0,1,143,41Z"/>
    <path id="Draft" class="cls-12" d="M117.19,42.886a2.919,2.919,0,0,0,2.206-.869,3.126,3.126,0,0,0,.835-2.258V38.769a3.137,3.137,0,0,0-.835-2.258,2.911,2.911,0,0,0-2.206-.874h-2.2v7.25h2.2Zm0-6.478a1.9,1.9,0,0,1,1.532.662,2.521,2.521,0,0,1,.561,1.688v1a2.536,2.536,0,0,1-.561,1.7,1.9,1.9,0,0,1-1.532.662h-1.255V36.409h1.255Zm6.932,1.046a1.293,1.293,0,0,0-.159-0.037,1.129,1.129,0,0,0-.2-0.017,1.248,1.248,0,0,0-.748.234,1.862,1.862,0,0,0-.546.652l-0.091-.787h-0.847v5.388h0.948V39.038a1.173,1.173,0,0,1,.4-0.518,1.056,1.056,0,0,1,.632-0.184l0.486,0.03Zm5.032,5.432a2.961,2.961,0,0,1-.106-0.528,5.287,5.287,0,0,1-.029-0.558V39.207a1.675,1.675,0,0,0-.539-1.342,2.1,2.1,0,0,0-1.423-.465,2.152,2.152,0,0,0-1.46.488,1.307,1.307,0,0,0-.532,1.075l0.01,0.03,0.9-.01a0.727,0.727,0,0,1,.284-0.573A1.119,1.119,0,0,1,127,38.171a1.073,1.073,0,0,1,.789.276,1.011,1.011,0,0,1,.279.749V39.73h-1.03a2.75,2.75,0,0,0-1.638.436,1.408,1.408,0,0,0-.6,1.207,1.615,1.615,0,0,0,.426,1.188,1.667,1.667,0,0,0,1.239.431,1.72,1.72,0,0,0,.916-0.261,2.247,2.247,0,0,0,.691-0.65,3.146,3.146,0,0,0,.031.376c0.017,0.124.042,0.268,0.074,0.431h0.977Zm-3.189-.926a0.75,0.75,0,0,1-.217-0.568,0.906,0.906,0,0,1,.344-0.7,1.348,1.348,0,0,1,.916-0.3h1.064v0.876a1.292,1.292,0,0,1-.539.627,1.648,1.648,0,0,1-.929.274A0.884,0.884,0,0,1,125.965,41.96Zm5.772,0.926v-4.66h0.943V37.5h-0.943V36.817a1.18,1.18,0,0,1,.2-0.744,0.737,0.737,0,0,1,.616-0.256,2.136,2.136,0,0,1,.257.015,2.088,2.088,0,0,1,.21.035l0.115-.747c-0.135-.033-0.257-0.059-0.368-0.077a2.037,2.037,0,0,0-.33-0.027,1.572,1.572,0,0,0-1.214.471,1.89,1.89,0,0,0-.436,1.332V37.5h-0.813v0.727h0.813v4.66h0.948Zm2.271-6.687v1.3H133.18v0.727h0.828V41.5a1.6,1.6,0,0,0,.341,1.133,1.205,1.205,0,0,0,.919.361,1.53,1.53,0,0,0,.409-0.057,0.829,0.829,0,0,0,.313-0.147l-0.13-.672a1.285,1.285,0,0,1-.169.047,0.843,0.843,0,0,1-.183.022,0.537,0.537,0,0,1-.4-0.154,0.75,0.75,0,0,1-.152-0.533V38.226h0.986V37.5h-0.986V36.2h-0.947Z"/>
  </g>
</svg>
