<svg id="icon" xmlns="http://www.w3.org/2000/svg" width="178" height="122" viewBox="0 0 178 122">
  <defs>
    <style>
      .cls-1 {
        fill: #eef3fe;
      }

      .cls-1, .cls-2, .cls-3 {
        fill-rule: evenodd;
      }

      .cls-2 {
        fill: #5387ff;
      }

      .cls-3 {
        fill: #fff;
      }
    </style>
  </defs>
  <path class="cls-1" d="M19,68.019c0.518-12.348,3.106-22.638,28.987-30.87S81.739,25.287,94.68,17.569c10.426-6.394,42.473-5.832,57.974,15.435,10.784,14.8,10.007,34.037-2.07,47.334-10.26,11.3-31.5,20.432-52.8,24.7-21.692,4.344-37.893,1.057-53.939-5.117S18.655,82.768,19,68.019Z"/>
  <g id="icon-2" data-name="icon">
    <path id="Forma_1" data-name="Forma 1" class="cls-2" d="M70.993,64A3.294,3.294,0,0,1,68,67H63a2.927,2.927,0,0,1-3-3,3.3,3.3,0,0,1,3-3h5a3.293,3.293,0,0,1,2.993,3h0ZM71,47a2.777,2.777,0,0,0-2.757-3.007h-5.5C59.835,43.994,60,47,60,47a2.769,2.769,0,0,0,2.743,2.99h5.5C70.987,49.99,71,47,71,47Zm0,34a3.3,3.3,0,0,0-3-3H63a2.783,2.783,0,0,0-3,3s-0.474,2.967,3,3h5A2.978,2.978,0,0,0,71,81Zm47-44V91c0,4.637-3.321,7-8,7H71c-4.68,0-7-2.363-7-7V86h4a5,5,0,0,0,0-10H64V69h4a5,5,0,0,0,0-10H64V52h4a5,5,0,0,0,0-10H64V37c0-4.636,2.32-7,7-7h39C114.679,30,118,32.364,118,37Z"/>
    <path id="Forma_1_copy_2" data-name="Forma 1 copy 2" class="cls-3" d="M84.007,54.78a8.172,8.172,0,1,0,8.172-8.094A8.134,8.134,0,0,0,84.007,54.78Zm20.882,19.787a9.037,9.037,0,0,0-9.078-8.994H88.546a9.037,9.037,0,0,0-9.08,8.994v3.6h25.421v-3.6Z"/>
  </g>
</svg>
