<svg id="icon" xmlns="http://www.w3.org/2000/svg" width="178" height="122" viewBox="0 0 178 122">
  <defs>
    <style>
      .cls-1 {
        fill: #eef3fe;
      }

      .cls-1, .cls-3, .cls-5, .cls-6, .cls-7 {
        fill-rule: evenodd;
      }

      .cls-2 {
        fill: #fff;
        stroke: #dfe4e5;
        stroke-linejoin: round;
        stroke-width: 1px;
      }

      .cls-3 {
        fill: #dedede;
      }

      .cls-4 {
        fill: #ffc501;
      }

      .cls-10, .cls-5 {
        fill: #33e2a6;
      }

      .cls-6, .cls-9 {
        fill: #5387ff;
      }

      .cls-7 {
        fill: #3c3c3c;
      }

      .cls-8 {
        fill: #de617e;
      }

      .cls-11 {
        fill: #d5d6db;
      }
    </style>
  </defs>
  <path class="cls-1" d="M19,68.019c0.518-12.348,3.106-22.638,28.987-30.87S81.739,25.287,94.68,17.569c10.426-6.394,42.473-5.832,57.974,15.435,10.784,14.8,10.007,34.037-2.07,47.334-10.26,11.3-31.5,20.432-52.8,24.7-21.692,4.344-37.893,1.057-53.939-5.117S18.655,82.768,19,68.019Z"/>
  <g id="Graphic">
    <rect class="cls-2" x="41" y="33" width="98" height="71"/>
    <path class="cls-3" d="M41,33V23s0.022-5,6-5h85s7-.247,7,5V33H41Z"/>
    <g>
      <circle class="cls-4" cx="52.531" cy="26.5" r="3.531"/>
      <path id="Ellipse_1_copy" data-name="Ellipse 1 copy" class="cls-5" d="M64.5,23a3.5,3.5,0,1,1-3.523,3.5A3.511,3.511,0,0,1,64.5,23Z"/>
      <path id="Ellipse_1_copy_2" data-name="Ellipse 1 copy 2" class="cls-6" d="M76.462,23a3.5,3.5,0,1,1-3.538,3.5A3.519,3.519,0,0,1,76.462,23Z"/>
    </g>
    <path id="CRM" class="cls-7" d="M101.643,27.408a1.789,1.789,0,0,1-.462,1.306,1.738,1.738,0,0,1-1.3.473,1.572,1.572,0,0,1-1.349-.71,2.994,2.994,0,0,1-.5-1.774V25.308a2.975,2.975,0,0,1,.5-1.763,1.572,1.572,0,0,1,1.349-.71,1.732,1.732,0,0,1,1.3.476,1.776,1.776,0,0,1,.462,1.293h0.969l0.01-.032a2.37,2.37,0,0,0-.728-1.862,2.827,2.827,0,0,0-2.016-.7,2.585,2.585,0,0,0-2.065.938,3.536,3.536,0,0,0-.8,2.374V26.7a3.525,3.525,0,0,0,.8,2.372,2.588,2.588,0,0,0,2.065.935,2.757,2.757,0,0,0,2.006-.737,2.383,2.383,0,0,0,.738-1.832l-0.01-.032h-0.969Zm5.032-.881a1.227,1.227,0,0,1,.949.385,1.44,1.44,0,0,1,.354,1.015v0.71a4.665,4.665,0,0,0,.056.727,0.882,0.882,0,0,0,.257.534h1.041V29.769a1,1,0,0,1-.267-0.47,2.545,2.545,0,0,1-.077-0.652V27.915a2.281,2.281,0,0,0-.269-1.157,1.535,1.535,0,0,0-.885-0.676,2.048,2.048,0,0,0,.875-0.705,1.814,1.814,0,0,0,.3-1.042,2.073,2.073,0,0,0-.646-1.645,2.76,2.76,0,0,0-1.873-.566h-2.554V29.9h1.01V26.526h1.729Zm-1.729-3.579h1.544a1.575,1.575,0,0,1,1.142.361A1.364,1.364,0,0,1,108,24.326a1.319,1.319,0,0,1-.377,1.034,1.82,1.82,0,0,1-1.233.339h-1.442V22.947Zm7-.828H110.62V29.9h1.01v-6.02l0.031-.005L113.99,29.9h0.7l2.262-5.833,0.031,0.005V29.9H118V22.119h-1.257l-2.385,6.32h-0.031Z"/>
    <rect class="cls-8" x="49" y="44" width="21" height="13"/>
    <rect id="Rectangle_1_copy" data-name="Rectangle 1 copy" class="cls-9" x="49" y="62" width="21" height="13"/>
    <rect id="Rectangle_1_copy_2" data-name="Rectangle 1 copy 2" class="cls-10" x="49" y="80" width="21" height="13"/>
    <rect class="cls-11" x="77" y="44" width="55" height="4"/>
    <rect id="Rectangle_2_copy" data-name="Rectangle 2 copy" class="cls-11" x="77" y="53" width="55" height="4"/>
    <rect id="Rectangle_2_copy_2" data-name="Rectangle 2 copy 2" class="cls-11" x="77" y="62" width="55" height="4"/>
    <rect id="Rectangle_2_copy_3" data-name="Rectangle 2 copy 3" class="cls-11" x="77" y="71" width="55" height="4"/>
    <rect id="Rectangle_2_copy_4" data-name="Rectangle 2 copy 4" class="cls-11" x="77" y="80" width="55" height="4"/>
    <rect id="Rectangle_2_copy_5" data-name="Rectangle 2 copy 5" class="cls-11" x="77" y="89" width="55" height="4"/>
  </g>
</svg>
