<svg id="icon" xmlns="http://www.w3.org/2000/svg" width="178" height="122" viewBox="0 0 178 122">
  <defs>
    <style>
      .cls-1 {
        fill: #eef3fe;
      }

      .cls-1, .cls-3, .cls-4, .cls-5, .cls-6, .cls-7, .cls-8 {
        fill-rule: evenodd;
      }

      .cls-2 {
        fill: #fff;
        stroke: #e3e3e3;
        stroke-linejoin: round;
        stroke-width: 1px;
      }

      .cls-3 {
        fill: #343439;
      }

      .cls-4 {
        fill: #565657;
      }

      .cls-5 {
        fill: #ffc501;
      }

      .cls-6 {
        fill: #de617e;
      }

      .cls-7 {
        fill: #51aafc;
      }

      .cls-8 {
        opacity: 0.05;
      }
    </style>
  </defs>
  <path class="cls-1" d="M19,68.019c0.518-12.348,3.106-22.638,28.987-30.87S81.739,25.287,94.68,17.569c10.426-6.394,42.473-5.832,57.974,15.435,10.784,14.8,10.007,34.037-2.07,47.334-10.26,11.3-31.5,20.432-52.8,24.7-21.692,4.344-37.893,1.057-53.939-5.117S18.655,82.768,19,68.019Z"/>
  <g id="Bar">
    <rect id="Rounded_Rectangle_593" data-name="Rounded Rectangle 593" class="cls-2" x="27" y="17" width="127" height="86" rx="5" ry="5"/>
    <g id="Bar-2" data-name="Bar">
      <path id="Priority" class="cls-3" d="M36.852,29.893a2.676,2.676,0,0,0,1.854-.6,2.228,2.228,0,0,0,0-3.17,2.661,2.661,0,0,0-1.854-.6H34v7.292h1.008V29.893h1.841ZM35.011,26.3h1.841a1.465,1.465,0,0,1,1.128.406,1.431,1.431,0,0,1,.376,1.012,1.41,1.41,0,0,1-.373,1,1.479,1.479,0,0,1-1.13.4H35.011V26.3Zm8.271,1.052a1.471,1.471,0,0,0-.169-0.038A1.282,1.282,0,0,0,42.9,27.3a1.378,1.378,0,0,0-.8.235,1.893,1.893,0,0,0-.581.656l-0.1-.791h-0.9v5.419h1.008V28.946a1.193,1.193,0,0,1,.422-0.521,1.172,1.172,0,0,1,.673-0.185l0.517,0.03Zm2,0.045H44.274v5.419h1.008V27.4Zm0-2.394H44.274v1.007h1.008V25ZM46.6,30.168a2.924,2.924,0,0,0,.668,1.981,2.511,2.511,0,0,0,3.624,0,2.928,2.928,0,0,0,.665-1.983v-0.11a2.934,2.934,0,0,0-.667-1.983,2.274,2.274,0,0,0-1.819-.776,2.251,2.251,0,0,0-1.806.779,2.943,2.943,0,0,0-.665,1.981v0.11Zm1.008-.11a2.534,2.534,0,0,1,.371-1.417,1.223,1.223,0,0,1,1.092-.566,1.24,1.24,0,0,1,1.1.566,2.508,2.508,0,0,1,.376,1.417v0.11a2.515,2.515,0,0,1-.373,1.422,1.356,1.356,0,0,1-2.2,0,2.528,2.528,0,0,1-.371-1.422v-0.11Zm7.939-2.7a1.462,1.462,0,0,0-.169-0.038A1.281,1.281,0,0,0,55.16,27.3a1.378,1.378,0,0,0-.8.235,1.893,1.893,0,0,0-.581.656l-0.1-.791h-0.9v5.419h1.008V28.946a1.194,1.194,0,0,1,.422-0.521,1.172,1.172,0,0,1,.673-0.185l0.517,0.03Zm2,0.045H56.535v5.419h1.008V27.4Zm0-2.394H56.535v1.007h1.008V25Zm1.944,1.087V27.4h-0.88V28.13h0.88v3.29a1.555,1.555,0,0,0,.363,1.139,1.32,1.32,0,0,0,.977.363,1.716,1.716,0,0,0,.435-0.058,0.9,0.9,0,0,0,.332-0.148l-0.138-.676a1.465,1.465,0,0,1-.179.047,0.95,0.95,0,0,1-.194.023,0.589,0.589,0,0,1-.427-0.155,0.726,0.726,0,0,1-.161-0.536V28.13h1.049V27.4H60.495V26.092H59.487ZM63.149,27.4H62.024l2.056,5.308-0.24.566a2.9,2.9,0,0,1-.343.621,0.626,0.626,0,0,1-.527.281q-0.056,0-.269-0.015a1.389,1.389,0,0,0-.182-0.01l-0.1.776q0.1,0.025.291,0.053a2.257,2.257,0,0,0,.312.028,1.4,1.4,0,0,0,1.056-.406,2.8,2.8,0,0,0,.6-0.952l2.327-6.25h-1.12L64.525,31.49H64.495l-0.179-.681Z"/>
      <g id="_1" data-name="1">
        <g id="_1_copy_5" data-name="1 copy 5">
          <path id="_1234" data-name="#1234" class="cls-4" d="M35.976,50.324h0.645l0.365-1.619H37.66l0.15-.62H37.127l0.29-1.27h0.711l0.15-.62h-0.72l0.355-1.531H37.267L36.912,46.2H35.93l0.355-1.531H35.64L35.284,46.2h-0.7l-0.131.62h0.692l-0.29,1.27H34.116l-0.131.62h0.729l-0.365,1.619h0.645l0.365-1.619h0.982Zm-0.187-3.509h0.982l-0.29,1.27H35.5Zm4.039,4.071h3.32V50.169H41.867V43.986H41.531l-2.057,1.648,0.355,0.494,1.029-.766,0.374-.456-0.093.572v4.691H39.829v0.717Zm8.145-5.907a1.494,1.494,0,0,0-.327-0.528,1.459,1.459,0,0,0-.524-0.344,1.937,1.937,0,0,0-.711-0.121,2.774,2.774,0,0,0-.963.165,2.4,2.4,0,0,0-.776.456l0.309,0.552a2.68,2.68,0,0,1,.58-0.344,1.682,1.682,0,0,1,.692-0.15,0.975,0.975,0,0,1,.795.315,1.2,1.2,0,0,1,.262.79,2.772,2.772,0,0,1-.15.863,5.842,5.842,0,0,1-.4.921,10.343,10.343,0,0,1-.552.916q-0.3.451-.617,0.853t-0.6.732q-0.29.33-.5,0.553v0.281h3.722V50.169H46.178l-0.6.107V50.237l0.458-.417q0.365-.465.729-0.984a10.77,10.77,0,0,0,.659-1.061,6.946,6.946,0,0,0,.477-1.081,3.267,3.267,0,0,0,.182-1.052A1.911,1.911,0,0,0,47.974,44.979Zm2.567,5.273a2.485,2.485,0,0,1-.51-0.179l-0.2.688a3.077,3.077,0,0,0,.589.174,3.852,3.852,0,0,0,.757.068,2.593,2.593,0,0,0,.87-0.145,2.082,2.082,0,0,0,.715-0.422,1.981,1.981,0,0,0,.482-0.683,2.308,2.308,0,0,0,.178-0.931,2.184,2.184,0,0,0-.131-0.78,1.762,1.762,0,0,0-.365-0.591,1.576,1.576,0,0,0-.552-0.378,1.934,1.934,0,0,0-.692-0.141L51.368,47V46.981L51.7,46.7l1.487-2.316V44.1H49.844v0.717H51.7l0.608-.1-0.43.426L50.526,47.3v0.281h0.692a1.6,1.6,0,0,1,1.071.33,1.25,1.25,0,0,1,.388,1.008,1.434,1.434,0,0,1-.112.572,1.363,1.363,0,0,1-.309.451,1.29,1.29,0,0,1-.468.286,1.736,1.736,0,0,1-.589.1A2.753,2.753,0,0,1,50.54,50.252Zm8.467-2.127H57.9V44H57.4l-3.1,4.488V48.8h2.88v2.084H57.9V48.8h1.1V48.124Zm-1.833,0H55.8l-0.654.078,0.449-.475,1.319-1.851,0.327-.659h0.028l-0.093.795v2.113Z"/>
          <path id="_1244" data-name="#1244" class="cls-4" d="M35.976,71.417h0.645l0.365-1.642H37.66l0.15-.629H37.127l0.29-1.288h0.711l0.15-.629h-0.72l0.355-1.554H37.267l-0.355,1.554H35.93l0.355-1.554H35.64l-0.355,1.554h-0.7l-0.131.629h0.692l-0.29,1.288H34.116l-0.131.629h0.729l-0.365,1.642h0.645l0.365-1.642h0.982Zm-0.187-3.56h0.982l-0.29,1.288H35.5Zm4.039,4.13h3.32V71.26H41.867V64.986H41.531l-2.057,1.672,0.355,0.5,1.029-.777,0.374-.462-0.093.58v4.76H39.829v0.728Zm8.145-5.994a1.519,1.519,0,0,0-.327-0.536,1.457,1.457,0,0,0-.524-0.349,1.912,1.912,0,0,0-.711-0.123,2.738,2.738,0,0,0-.963.167,2.4,2.4,0,0,0-.776.462l0.309,0.561a2.67,2.67,0,0,1,.58-0.349,1.661,1.661,0,0,1,.692-0.153,0.968,0.968,0,0,1,.795.32,1.224,1.224,0,0,1,.262.8,2.849,2.849,0,0,1-.15.875,5.978,5.978,0,0,1-.4.934,10.517,10.517,0,0,1-.552.929q-0.3.457-.617,0.865t-0.6.742q-0.29.335-.5,0.561v0.285h3.722V71.26H46.178l-0.6.108V71.329l0.458-.423q0.365-.472.729-1a10.947,10.947,0,0,0,.659-1.077,7.1,7.1,0,0,0,.477-1.1,3.358,3.358,0,0,0,.182-1.067A1.964,1.964,0,0,0,47.974,65.994Zm5.938,3.191h-1.1V65H52.3l-3.1,4.553v0.325h2.88v2.114h0.729V69.873h1.1V69.185Zm-1.833,0H50.7l-0.654.079,0.449-.482L51.817,66.9l0.327-.669h0.028l-0.093.806v2.144Zm6.929,0H57.9V65H57.4l-3.1,4.553v0.325h2.88v2.114H57.9V69.873h1.1V69.185Zm-1.833,0H55.8l-0.654.079,0.449-.482L56.913,66.9l0.327-.669h0.028l-0.093.806v2.144Z"/>
          <path id="_1238" data-name="#1238" class="cls-4" d="M35.93,93.324h0.63l0.356-1.619h0.658l0.146-.62H37.054l0.283-1.27h0.694l0.146-.62h-0.7l0.347-1.531h-0.63L36.844,89.2H35.885l0.347-1.531H35.6L35.255,89.2H34.57l-0.128.62h0.676l-0.283,1.27H34.113l-0.128.62H34.7l-0.356,1.619h0.63l0.356-1.619h0.959Zm-0.183-3.509h0.959l-0.283,1.27H35.465Zm3.946,4.071h3.242V93.169H41.684V86.986H41.356l-2.009,1.648,0.347,0.494,1-.766,0.365-.456-0.091.572v4.691H39.693v0.717Zm7.955-5.907a1.5,1.5,0,0,0-.32-0.528,1.423,1.423,0,0,0-.511-0.344,1.852,1.852,0,0,0-.694-0.121,2.653,2.653,0,0,0-.941.165,2.333,2.333,0,0,0-.758.456l0.3,0.552a2.6,2.6,0,0,1,.566-0.344,1.611,1.611,0,0,1,.676-0.15,0.941,0.941,0,0,1,.776.315,1.213,1.213,0,0,1,.256.79,2.828,2.828,0,0,1-.146.863,5.914,5.914,0,0,1-.388.921,10.38,10.38,0,0,1-.539.916q-0.3.451-.6,0.853t-0.589.732q-0.283.33-.484,0.553v0.281h3.635V93.169H45.895l-0.584.107V93.237l0.447-.417q0.356-.465.712-0.984a10.816,10.816,0,0,0,.644-1.061,7.018,7.018,0,0,0,.466-1.081,3.336,3.336,0,0,0,.178-1.052A1.951,1.951,0,0,0,47.648,87.979Zm2.507,5.273a2.392,2.392,0,0,1-.5-0.179l-0.192.688a2.953,2.953,0,0,0,.575.174,3.678,3.678,0,0,0,.74.068,2.479,2.479,0,0,0,.849-0.145,2.023,2.023,0,0,0,.7-0.422,1.982,1.982,0,0,0,.47-0.683,2.356,2.356,0,0,0,.173-0.93,2.23,2.23,0,0,0-.128-0.78,1.768,1.768,0,0,0-.356-0.591,1.539,1.539,0,0,0-.539-0.378,1.852,1.852,0,0,0-.676-0.141L50.964,90V89.981l0.32-.281,1.452-2.317V87.1H49.475v0.717h1.808l0.594-.1-0.42.426L50.142,90.3v0.281h0.676a1.542,1.542,0,0,1,1.046.329,1.266,1.266,0,0,1,.379,1.008,1.465,1.465,0,0,1-.11.572,1.363,1.363,0,0,1-.3.451,1.255,1.255,0,0,1-.457.286,1.661,1.661,0,0,1-.575.1A2.629,2.629,0,0,1,50.155,93.252Zm4.224-.3a1.524,1.524,0,0,0,.352.548,1.682,1.682,0,0,0,.571.368,2.072,2.072,0,0,0,.776.136,2.206,2.206,0,0,0,.813-0.141,1.742,1.742,0,0,0,.6-0.388,1.628,1.628,0,0,0,.375-0.591A2.17,2.17,0,0,0,58,92.123a1.867,1.867,0,0,0-.091-0.606,1.735,1.735,0,0,0-.251-0.48,2.207,2.207,0,0,0-.374-0.388,4.144,4.144,0,0,0-.452-0.32,2.779,2.779,0,0,0,.785-0.829,1.952,1.952,0,0,0,.237-0.974,1.58,1.58,0,0,0-.119-0.62,1.425,1.425,0,0,0-.333-0.485,1.534,1.534,0,0,0-.525-0.32,1.966,1.966,0,0,0-.694-0.116,2.02,2.02,0,0,0-.735.126,1.67,1.67,0,0,0-.557.349,1.49,1.49,0,0,0-.356.533,1.847,1.847,0,0,0-.123.688,1.78,1.78,0,0,0,.087.582,1.677,1.677,0,0,0,.237.456,2.009,2.009,0,0,0,.347.364,4.5,4.5,0,0,0,.425.305,2.756,2.756,0,0,0-.941.819,1.863,1.863,0,0,0-.3,1.061A1.92,1.92,0,0,0,54.38,92.951Zm2.809-.271a1.01,1.01,0,0,1-.256.359,1.1,1.1,0,0,1-.37.213,1.331,1.331,0,0,1-.438.073,1.253,1.253,0,0,1-.5-0.092,1.064,1.064,0,0,1-.361-0.247,1,1,0,0,1-.219-0.368,1.363,1.363,0,0,1-.073-0.446,1.544,1.544,0,0,1,.237-0.775,2.162,2.162,0,0,1,.795-0.737q0.247,0.136.475,0.281a2.346,2.346,0,0,1,.407.325,1.552,1.552,0,0,1,.288.4,1.12,1.12,0,0,1,.11.509A1.256,1.256,0,0,1,57.188,92.68Zm-2-4.391a0.883,0.883,0,0,1,.206-0.315,1.121,1.121,0,0,1,.329-0.223,1.048,1.048,0,0,1,.438-0.087,0.952,0.952,0,0,1,.977,1.027,1.394,1.394,0,0,1-.2.727,2.678,2.678,0,0,1-.607.669q-0.238-.126-0.457-0.266a2.426,2.426,0,0,1-.388-0.305,1.31,1.31,0,0,1-.269-0.373,1.09,1.09,0,0,1-.1-0.48A1.037,1.037,0,0,1,55.188,88.289Z"/>
          <path id="Repair_" data-name="Repair " class="cls-4" d="M67,71.022h0.8V67.874l0.94,0.149,1.851,3h0.93l-1.669-2.751-0.46-.367a2.074,2.074,0,0,0,1.093-.675,1.966,1.966,0,0,0,.432-1.321,2,2,0,0,0-.182-0.894,1.656,1.656,0,0,0-.484-0.6,1.917,1.917,0,0,0-.7-0.328,3.462,3.462,0,0,0-.839-0.1q-0.393,0-.868.04A8.2,8.2,0,0,0,67,64.14v6.882Zm2.714-5.968a1.185,1.185,0,0,1,.355.884,1.254,1.254,0,0,1-.432,1.053,1.721,1.721,0,0,1-1.093.338H67.8V64.765a0.954,0.954,0,0,1,.177-0.03l0.235-.02q0.124-.01.259-0.01h0.259A1.352,1.352,0,0,1,69.714,65.053Zm5.668,5a1.375,1.375,0,0,1-.489.278,1.891,1.891,0,0,1-.652.119,1.827,1.827,0,0,1-.715-0.124,1.166,1.166,0,0,1-.475-0.358,1.53,1.53,0,0,1-.269-0.571,3.136,3.136,0,0,1-.086-0.775h3.079a5.1,5.1,0,0,0,.057-0.725,2.608,2.608,0,0,0-.163-1.008,1.493,1.493,0,0,0-.422-0.591,1.429,1.429,0,0,0-.585-0.283,2.925,2.925,0,0,0-.652-0.075,1.908,1.908,0,0,0-1.563.665,2.985,2.985,0,0,0-.547,1.937,4.24,4.24,0,0,0,.125,1.073,2.311,2.311,0,0,0,.384.819,1.7,1.7,0,0,0,.662.526,2.272,2.272,0,0,0,.95.184A3.034,3.034,0,0,0,74.945,71a2.142,2.142,0,0,0,.724-0.377Zm-0.575-3.113a1.566,1.566,0,0,1,.278,1.058H72.706a1.568,1.568,0,0,1,.408-1.053,1.3,1.3,0,0,1,.906-0.308A1.015,1.015,0,0,1,74.806,66.935Zm2.235,6.073h0.767V70.942a2.212,2.212,0,0,0,.446.154,2.77,2.77,0,0,0,.561.045,2.134,2.134,0,0,0,.906-0.189,1.959,1.959,0,0,0,.7-0.536,2.488,2.488,0,0,0,.446-0.849,3.737,3.737,0,0,0,.158-1.127,3.082,3.082,0,0,0-.47-1.917,1.722,1.722,0,0,0-1.429-.586,1.7,1.7,0,0,0-.8.184,1.485,1.485,0,0,0-.571.531H77.712l-0.144-.6H77.041v6.952Zm2.518-6.247a1.05,1.05,0,0,1,.384.362,1.658,1.658,0,0,1,.216.566,3.764,3.764,0,0,1,.067.74,2.461,2.461,0,0,1-.388,1.5,1.25,1.25,0,0,1-1.05.511,1.875,1.875,0,0,1-.585-0.075,1.262,1.262,0,0,1-.393-0.213V67.695a1.487,1.487,0,0,1,.4-0.8,1.089,1.089,0,0,1,.772-0.263A1.192,1.192,0,0,1,79.559,66.761Zm2.834,0.268a1.836,1.836,0,0,1,.312-0.148,3.064,3.064,0,0,1,.374-0.112q0.2-.046.384-0.072a2.6,2.6,0,0,1,.35-0.026,1.056,1.056,0,0,1,.767.219,1.093,1.093,0,0,1,.211.765q0,0.238-.029.536a1.809,1.809,0,0,0-.264-0.02H84.234a5.743,5.743,0,0,0-.964.075,2.337,2.337,0,0,0-.748.248,1.264,1.264,0,0,0-.484.467,1.419,1.419,0,0,0-.173.73,1.477,1.477,0,0,0,.11.586,1.3,1.3,0,0,0,.758.725,1.608,1.608,0,0,0,.571.1,1.971,1.971,0,0,0,.547-0.07,1.93,1.93,0,0,0,.422-0.174,1.391,1.391,0,0,0,.312-0.238,1.632,1.632,0,0,0,.216-0.273h0.048l0.2,0.7h0.566a3.381,3.381,0,0,1-.105-0.606q-0.029-.328-0.029-0.7,0-.506.029-1.073t0.029-1.162a2.777,2.777,0,0,0-.053-0.536,1.263,1.263,0,0,0-.211-0.492,1.123,1.123,0,0,0-.46-0.363,1.938,1.938,0,0,0-.8-0.139A4.588,4.588,0,0,0,83,66.086a2.708,2.708,0,0,0-.849.338ZM82.9,70.183a0.746,0.746,0,0,1-.24-0.571,0.644,0.644,0,0,1,.129-0.412,0.88,0.88,0,0,1,.345-0.258,1.787,1.787,0,0,1,.5-0.129,4.747,4.747,0,0,1,.58-0.035q0.134,0,.273.005T84.762,68.8v0.824a1.14,1.14,0,0,1-.149.268,1.176,1.176,0,0,1-.254.253,1.369,1.369,0,0,1-.364.189,1.435,1.435,0,0,1-.48.075A0.865,0.865,0,0,1,82.9,70.183Zm4.249,0.839h0.767V66.056H87.15v4.965Zm-0.014-6.1a0.513,0.513,0,0,0,.379.149,0.563,0.563,0,0,0,.393-0.149,0.489,0.489,0,0,0,.163-0.377,0.558,0.558,0,0,0-.556-0.556,0.489,0.489,0,0,0-.379.164,0.564,0.564,0,0,0-.149.392A0.511,0.511,0,0,0,87.135,64.924Zm4.848,1.132a2.282,2.282,0,0,0-.623-0.1,1.078,1.078,0,0,0-.647.184,1.516,1.516,0,0,0-.436.521H90.238l-0.144-.606H89.557v4.965h0.767V67.546a1.028,1.028,0,0,1,.3-0.591,0.9,0.9,0,0,1,.652-0.233,1.679,1.679,0,0,1,.547.1Z"/>
          <path id="Installation" class="cls-4" d="M67.012,93.886h0.761V87.069H67.012v6.817Zm6.094,0V90.945a4.314,4.314,0,0,0-.1-1,1.6,1.6,0,0,0-.284-0.628,0.986,0.986,0,0,0-.472-0.326,2.136,2.136,0,0,0-.66-0.092,1.843,1.843,0,0,0-.884.2,1.685,1.685,0,0,0-.591.511H70.082l-0.137-.594H69.431v4.87h0.733V90.555a1.486,1.486,0,0,1,.444-0.7,1.171,1.171,0,0,1,.8-0.278,0.78,0.78,0,0,1,.756.385,2.493,2.493,0,0,1,.206,1.144v2.776h0.733Zm3.1-.73a1.178,1.178,0,0,1-.651.166,2.262,2.262,0,0,1-.687-0.107,2.594,2.594,0,0,1-.55-0.234l-0.22.662a2.7,2.7,0,0,0,.614.253A3.207,3.207,0,0,0,75.6,94a1.992,1.992,0,0,0,.7-0.112,1.433,1.433,0,0,0,.5-0.307,1.191,1.191,0,0,0,.3-0.468,1.743,1.743,0,0,0,.1-0.584,1.334,1.334,0,0,0-.165-0.706,1.529,1.529,0,0,0-.408-0.443A2.233,2.233,0,0,0,76.09,91.1q-0.289-.107-0.532-0.219a1.745,1.745,0,0,1-.408-0.253,0.491,0.491,0,0,1-.165-0.394,0.605,0.605,0,0,1,.188-0.507,0.963,0.963,0,0,1,.591-0.146,2.374,2.374,0,0,1,.637.083,2.785,2.785,0,0,1,.509.19l0.174-.643a3.1,3.1,0,0,0-.582-0.219,3.166,3.166,0,0,0-.829-0.092,1.542,1.542,0,0,0-1.045.326,1.291,1.291,0,0,0-.376,1.027,1.235,1.235,0,0,0,.165.682,1.416,1.416,0,0,0,.408.414,2.43,2.43,0,0,0,.532.263q0.289,0.1.531,0.214a1.393,1.393,0,0,1,.408.278,0.62,0.62,0,0,1,.165.458A0.652,0.652,0,0,1,76.2,93.156ZM77.7,89.7h0.715v2.844a2.071,2.071,0,0,0,.229,1.125A0.884,0.884,0,0,0,79.43,94a2.459,2.459,0,0,0,.632-0.078,2.713,2.713,0,0,0,.541-0.2l-0.165-.594q-0.2.088-.367,0.141a1.315,1.315,0,0,1-.4.054,0.426,0.426,0,0,1-.4-0.209,1.55,1.55,0,0,1-.119-0.716V89.7h1.246V89.017H79.146V87.828l-0.733.224v0.964H77.7V89.7Zm3.867,0.273a1.736,1.736,0,0,1,.3-0.145,2.875,2.875,0,0,1,.358-0.11q0.188-.045.367-0.07a2.418,2.418,0,0,1,.334-0.025,0.99,0.99,0,0,1,.733.214,1.092,1.092,0,0,1,.2.75q0,0.234-.028.526a1.689,1.689,0,0,0-.252-0.019H83.325a5.355,5.355,0,0,0-.921.073,2.193,2.193,0,0,0-.715.243,1.222,1.222,0,0,0-.463.458,1.42,1.42,0,0,0-.165.716,1.483,1.483,0,0,0,.105.575,1.3,1.3,0,0,0,.289.433,1.258,1.258,0,0,0,.435.278,1.5,1.5,0,0,0,.545.1,1.839,1.839,0,0,0,.522-0.068,1.817,1.817,0,0,0,.4-0.17,1.33,1.33,0,0,0,.3-0.234,1.6,1.6,0,0,0,.206-0.268h0.046L84.1,93.906h0.541a3.391,3.391,0,0,1-.1-0.594q-0.027-.321-0.028-0.682,0-.5.028-1.052t0.028-1.139a2.8,2.8,0,0,0-.05-0.526,1.258,1.258,0,0,0-.2-0.482,1.079,1.079,0,0,0-.44-0.356,1.811,1.811,0,0,0-.765-0.136,4.276,4.276,0,0,0-.967.107,2.551,2.551,0,0,0-.811.331Zm0.486,3.092a0.741,0.741,0,0,1-.229-0.56,0.643,0.643,0,0,1,.124-0.4,0.843,0.843,0,0,1,.33-0.253,1.677,1.677,0,0,1,.477-0.127,4.432,4.432,0,0,1,.555-0.034q0.128,0,.261,0T83.829,91.7v0.808a1.161,1.161,0,0,1-.385.511,1.3,1.3,0,0,1-.348.185,1.341,1.341,0,0,1-.458.073A0.814,0.814,0,0,1,82.051,93.063Zm4.72-5.995H86.037v5.843a1.116,1.116,0,0,0,.266.843,0.954,0.954,0,0,0,.678.248,2.528,2.528,0,0,0,.454-0.049,1.464,1.464,0,0,0,.408-0.127l-0.082-.614a1.41,1.41,0,0,1-.312.088,1.82,1.82,0,0,1-.257.02,0.367,0.367,0,0,1-.312-0.146,0.826,0.826,0,0,1-.11-0.487v-5.62Zm2.676,0H88.713v5.843a1.116,1.116,0,0,0,.266.843,0.954,0.954,0,0,0,.678.248,2.528,2.528,0,0,0,.454-0.049,1.464,1.464,0,0,0,.408-0.127l-0.082-.614a1.41,1.41,0,0,1-.312.088,1.82,1.82,0,0,1-.257.02,0.367,0.367,0,0,1-.312-0.146,0.827,0.827,0,0,1-.11-0.487v-5.62Zm2.016,2.9a1.732,1.732,0,0,1,.3-0.145,2.874,2.874,0,0,1,.357-0.11q0.188-.045.367-0.07a2.417,2.417,0,0,1,.335-0.025,0.991,0.991,0,0,1,.733.214,1.092,1.092,0,0,1,.2.75q0,0.234-.028.526a1.689,1.689,0,0,0-.252-0.019H93.222a5.355,5.355,0,0,0-.921.073,2.191,2.191,0,0,0-.715.243,1.222,1.222,0,0,0-.463.458,1.421,1.421,0,0,0-.165.716,1.483,1.483,0,0,0,.105.575,1.3,1.3,0,0,0,.289.433,1.258,1.258,0,0,0,.435.278,1.5,1.5,0,0,0,.545.1,1.839,1.839,0,0,0,.522-0.068,1.817,1.817,0,0,0,.4-0.17,1.33,1.33,0,0,0,.3-0.234,1.6,1.6,0,0,0,.206-0.268h0.046L94,93.906h0.541a3.391,3.391,0,0,1-.1-0.594q-0.028-.321-0.028-0.682,0-.5.028-1.052t0.028-1.139a2.8,2.8,0,0,0-.05-0.526,1.258,1.258,0,0,0-.2-0.482,1.077,1.077,0,0,0-.44-0.356,1.81,1.81,0,0,0-.765-0.136,4.275,4.275,0,0,0-.967.107,2.55,2.55,0,0,0-.811.331Zm0.486,3.092a0.741,0.741,0,0,1-.229-0.56,0.643,0.643,0,0,1,.124-0.4,0.843,0.843,0,0,1,.33-0.253,1.677,1.677,0,0,1,.477-0.127,4.431,4.431,0,0,1,.554-0.034q0.128,0,.261,0T93.726,91.7v0.808a1.161,1.161,0,0,1-.385.511,1.3,1.3,0,0,1-.348.185,1.34,1.34,0,0,1-.458.073A0.814,0.814,0,0,1,91.949,93.063Zm3.3-3.365h0.715v2.844a2.071,2.071,0,0,0,.229,1.125A0.884,0.884,0,0,0,96.98,94a2.459,2.459,0,0,0,.632-0.078,2.709,2.709,0,0,0,.541-0.2l-0.165-.594q-0.2.088-.367,0.141a1.315,1.315,0,0,1-.4.054,0.426,0.426,0,0,1-.4-0.209A1.549,1.549,0,0,1,96.7,92.4V89.7h1.246V89.017H96.7V87.828l-0.733.224v0.964H95.248V89.7Zm3.867,4.188h0.733v-4.87H99.115v4.87ZM99.1,87.906a0.483,0.483,0,0,0,.362.146,0.53,0.53,0,0,0,.376-0.146,0.485,0.485,0,0,0,.156-0.37,0.533,0.533,0,0,0-.156-0.385,0.5,0.5,0,0,0-.376-0.161,0.462,0.462,0,0,0-.362.161,0.561,0.561,0,0,0-.142.385A0.509,0.509,0,0,0,99.1,87.906Zm2.177,4.592a2.283,2.283,0,0,0,.366.808,1.642,1.642,0,0,0,.628.516,2.069,2.069,0,0,0,.894.18,1.784,1.784,0,0,0,1.489-.657,3.006,3.006,0,0,0,.518-1.894,4.3,4.3,0,0,0-.119-1.047,2.3,2.3,0,0,0-.367-0.808,1.637,1.637,0,0,0-.628-0.516,2.064,2.064,0,0,0-.893-0.18,1.786,1.786,0,0,0-1.49.657,3.007,3.007,0,0,0-.517,1.894A4.253,4.253,0,0,0,101.278,92.5Zm1.888-2.917a1.057,1.057,0,0,1,.577.151,1.157,1.157,0,0,1,.385.4,1.919,1.919,0,0,1,.215.594,3.627,3.627,0,0,1,.069.721q0,1.88-1.246,1.87a1.034,1.034,0,0,1-.578-0.156,1.2,1.2,0,0,1-.385-0.409,1.969,1.969,0,0,1-.215-0.594,3.575,3.575,0,0,1-.069-0.711q0-1.88,1.247-1.87h0Zm6.837,4.3V90.945a4.315,4.315,0,0,0-.1-1,1.6,1.6,0,0,0-.284-0.628,0.982,0.982,0,0,0-.472-0.326,2.133,2.133,0,0,0-.66-0.092,1.841,1.841,0,0,0-.884.2,1.683,1.683,0,0,0-.591.511h-0.037l-0.137-.594h-0.513v4.87h0.733V90.555a1.48,1.48,0,0,1,.444-0.7,1.172,1.172,0,0,1,.8-0.278,0.779,0.779,0,0,1,.756.385,2.487,2.487,0,0,1,.206,1.144v2.776H110Z"/>
          <path id="Installation-2" data-name="Installation" class="cls-4" d="M67,50.886h0.761V44.069H67v6.817Zm6.094,0V47.945a4.314,4.314,0,0,0-.1-1,1.6,1.6,0,0,0-.284-0.628,0.986,0.986,0,0,0-.472-0.326,2.136,2.136,0,0,0-.66-0.093,1.842,1.842,0,0,0-.884.2,1.685,1.685,0,0,0-.591.511H70.074l-0.138-.594H69.423v4.87h0.733V47.555a1.486,1.486,0,0,1,.444-0.7,1.171,1.171,0,0,1,.8-0.278,0.78,0.78,0,0,1,.756.385,2.493,2.493,0,0,1,.206,1.144v2.776H73.1Zm3.1-.73a1.178,1.178,0,0,1-.651.166,2.263,2.263,0,0,1-.687-0.107,2.594,2.594,0,0,1-.55-0.234l-0.22.662a2.7,2.7,0,0,0,.614.253,3.207,3.207,0,0,0,.889.107,1.992,1.992,0,0,0,.7-0.112,1.433,1.433,0,0,0,.5-0.307,1.191,1.191,0,0,0,.3-0.468,1.741,1.741,0,0,0,.1-0.584,1.333,1.333,0,0,0-.165-0.706,1.528,1.528,0,0,0-.408-0.443,2.232,2.232,0,0,0-.531-0.282q-0.289-.107-0.532-0.219a1.745,1.745,0,0,1-.408-0.253,0.491,0.491,0,0,1-.165-0.394,0.605,0.605,0,0,1,.188-0.506,0.963,0.963,0,0,1,.591-0.146,2.374,2.374,0,0,1,.637.083,2.782,2.782,0,0,1,.509.19l0.174-.643a3.1,3.1,0,0,0-.582-0.219,3.166,3.166,0,0,0-.829-0.093,1.542,1.542,0,0,0-1.045.326,1.291,1.291,0,0,0-.376,1.027,1.236,1.236,0,0,0,.165.682,1.415,1.415,0,0,0,.408.414,2.429,2.429,0,0,0,.532.263q0.289,0.1.532,0.214a1.394,1.394,0,0,1,.408.278,0.62,0.62,0,0,1,.165.458A0.653,0.653,0,0,1,76.2,50.156ZM77.689,46.7H78.4v2.844a2.071,2.071,0,0,0,.229,1.125,0.884,0.884,0,0,0,.788.336,2.459,2.459,0,0,0,.632-0.078,2.713,2.713,0,0,0,.541-0.2l-0.165-.594q-0.2.088-.367,0.141a1.315,1.315,0,0,1-.4.054,0.425,0.425,0,0,1-.4-0.209,1.548,1.548,0,0,1-.119-0.716V46.7h1.246V46.017H79.137V44.828l-0.733.224v0.964H77.689V46.7Zm3.867,0.273a1.733,1.733,0,0,1,.3-0.145,2.868,2.868,0,0,1,.357-0.11q0.188-.045.367-0.07a2.416,2.416,0,0,1,.335-0.025,0.99,0.99,0,0,1,.733.214,1.091,1.091,0,0,1,.2.75q0,0.234-.027.526a1.692,1.692,0,0,0-.252-0.02H83.316a5.353,5.353,0,0,0-.921.073,2.193,2.193,0,0,0-.715.243,1.223,1.223,0,0,0-.463.458,1.42,1.42,0,0,0-.165.716,1.483,1.483,0,0,0,.105.575,1.3,1.3,0,0,0,.289.433,1.259,1.259,0,0,0,.435.278,1.5,1.5,0,0,0,.545.1A1.839,1.839,0,0,0,82.95,50.9a1.818,1.818,0,0,0,.4-0.171,1.329,1.329,0,0,0,.3-0.234,1.6,1.6,0,0,0,.206-0.268H83.9L84.1,50.906h0.541a3.4,3.4,0,0,1-.1-0.594q-0.027-.321-0.028-0.682,0-.5.028-1.052t0.028-1.139a2.8,2.8,0,0,0-.05-0.526,1.256,1.256,0,0,0-.2-0.482,1.078,1.078,0,0,0-.44-0.355,1.811,1.811,0,0,0-.765-0.136,4.276,4.276,0,0,0-.967.107,2.551,2.551,0,0,0-.811.331Zm0.486,3.092a0.741,0.741,0,0,1-.229-0.56,0.644,0.644,0,0,1,.124-0.4,0.843,0.843,0,0,1,.33-0.253,1.675,1.675,0,0,1,.477-0.127,4.433,4.433,0,0,1,.555-0.034q0.128,0,.261,0T83.82,48.7v0.808a1.163,1.163,0,0,1-.385.511,1.3,1.3,0,0,1-.348.185,1.341,1.341,0,0,1-.458.073A0.814,0.814,0,0,1,82.042,50.063Zm4.72-5.994H86.029v5.843a1.116,1.116,0,0,0,.266.843,0.954,0.954,0,0,0,.678.248,2.529,2.529,0,0,0,.454-0.049,1.464,1.464,0,0,0,.408-0.127l-0.082-.614a1.408,1.408,0,0,1-.312.088,1.819,1.819,0,0,1-.257.02,0.367,0.367,0,0,1-.312-0.146,0.827,0.827,0,0,1-.11-0.487V44.069Zm2.676,0H88.7v5.843a1.116,1.116,0,0,0,.266.843,0.954,0.954,0,0,0,.678.248,2.529,2.529,0,0,0,.454-0.049,1.464,1.464,0,0,0,.408-0.127l-0.083-.614a1.407,1.407,0,0,1-.312.088,1.819,1.819,0,0,1-.257.02,0.367,0.367,0,0,1-.312-0.146,0.827,0.827,0,0,1-.11-0.487V44.069Zm2.016,2.9a1.736,1.736,0,0,1,.3-0.145,2.875,2.875,0,0,1,.358-0.11q0.188-.045.367-0.07a2.418,2.418,0,0,1,.334-0.025,0.99,0.99,0,0,1,.733.214,1.092,1.092,0,0,1,.2.75q0,0.234-.028.526a1.689,1.689,0,0,0-.252-0.02H93.214a5.355,5.355,0,0,0-.921.073,2.193,2.193,0,0,0-.715.243,1.222,1.222,0,0,0-.463.458,1.42,1.42,0,0,0-.165.716,1.483,1.483,0,0,0,.105.575,1.3,1.3,0,0,0,.289.433,1.258,1.258,0,0,0,.435.278,1.5,1.5,0,0,0,.545.1,1.839,1.839,0,0,0,.522-0.068,1.817,1.817,0,0,0,.4-0.171,1.33,1.33,0,0,0,.3-0.234,1.6,1.6,0,0,0,.206-0.268H93.8l0.193,0.682h0.541a3.391,3.391,0,0,1-.1-0.594q-0.027-.321-0.028-0.682,0-.5.028-1.052t0.028-1.139a2.8,2.8,0,0,0-.05-0.526,1.258,1.258,0,0,0-.2-0.482,1.079,1.079,0,0,0-.44-0.355A1.811,1.811,0,0,0,93,45.939a4.276,4.276,0,0,0-.967.107,2.551,2.551,0,0,0-.811.331Zm0.486,3.092a0.741,0.741,0,0,1-.229-0.56,0.643,0.643,0,0,1,.124-0.4,0.843,0.843,0,0,1,.33-0.253,1.677,1.677,0,0,1,.477-0.127,4.432,4.432,0,0,1,.555-0.034q0.128,0,.261,0T93.718,48.7v0.808a1.161,1.161,0,0,1-.385.511,1.3,1.3,0,0,1-.348.185,1.341,1.341,0,0,1-.458.073A0.814,0.814,0,0,1,91.94,50.063Zm3.3-3.365h0.715v2.844a2.071,2.071,0,0,0,.229,1.125,0.884,0.884,0,0,0,.788.336,2.459,2.459,0,0,0,.632-0.078,2.713,2.713,0,0,0,.541-0.2l-0.165-.594q-0.2.088-.367,0.141a1.315,1.315,0,0,1-.4.054,0.426,0.426,0,0,1-.4-0.209,1.549,1.549,0,0,1-.119-0.716V46.7h1.246V46.017H96.687V44.828l-0.733.224v0.964H95.239V46.7Zm3.867,4.188H99.84v-4.87H99.107v4.87Zm-0.014-5.98a0.483,0.483,0,0,0,.362.146,0.53,0.53,0,0,0,.376-0.146,0.485,0.485,0,0,0,.156-0.37,0.534,0.534,0,0,0-.156-0.385,0.5,0.5,0,0,0-.376-0.161,0.462,0.462,0,0,0-.362.161,0.561,0.561,0,0,0-.142.385A0.508,0.508,0,0,0,99.093,44.906Zm2.176,4.592a2.3,2.3,0,0,0,.367.808,1.635,1.635,0,0,0,.628.516,2.064,2.064,0,0,0,.893.18,1.786,1.786,0,0,0,1.49-.657,3.006,3.006,0,0,0,.517-1.894,4.255,4.255,0,0,0-.119-1.047,2.286,2.286,0,0,0-.366-0.808,1.644,1.644,0,0,0-.628-0.516,2.072,2.072,0,0,0-.894-0.18,1.784,1.784,0,0,0-1.489.657,3.007,3.007,0,0,0-.518,1.894A4.3,4.3,0,0,0,101.269,49.5Zm1.888-2.917a1.06,1.06,0,0,1,.578.151,1.166,1.166,0,0,1,.385.4,1.972,1.972,0,0,1,.215.594,3.627,3.627,0,0,1,.069.721q0,1.88-1.247,1.87a1.03,1.03,0,0,1-.577-0.156,1.2,1.2,0,0,1-.385-0.409,1.916,1.916,0,0,1-.215-0.594,3.575,3.575,0,0,1-.069-0.711q0-1.88,1.246-1.87h0Zm6.837,4.3V47.945a4.321,4.321,0,0,0-.1-1,1.6,1.6,0,0,0-.284-0.628,0.991,0.991,0,0,0-.472-0.326,2.142,2.142,0,0,0-.66-0.093,1.841,1.841,0,0,0-.884.2,1.686,1.686,0,0,0-.592.511H106.97l-0.138-.594h-0.513v4.87h0.733V47.555a1.489,1.489,0,0,1,.445-0.7,1.17,1.17,0,0,1,.8-0.278,0.781,0.781,0,0,1,.756.385,2.5,2.5,0,0,1,.206,1.144v2.776h0.733Z"/>
          <path id="Medium" class="cls-5" d="M122.018,93.854h1.269V87.1h-1.149L120.5,90.169l-0.278.791h-0.037l-0.306-.772L118.146,87.1h-1.158v6.752h1.2V90.343l-0.185-1.331h0.046l0.407,1.071,1.455,2.527h0.408l1.38-2.518,0.4-1.08h0.056l-0.139,1.341v3.5Zm5.66-1.235a1.856,1.856,0,0,1-.459.246,1.811,1.811,0,0,1-.681.121,1.125,1.125,0,0,1-.884-0.309,1.447,1.447,0,0,1-.3-0.916h2.779q0.047-.251.069-0.482a4.211,4.211,0,0,0,.023-0.434,2.432,2.432,0,0,0-.157-0.936,1.508,1.508,0,0,0-1.01-.916,2.457,2.457,0,0,0-.685-0.1,2.113,2.113,0,0,0-1.64.637,2.743,2.743,0,0,0-.584,1.91,3.009,3.009,0,0,0,.519,1.866,1.932,1.932,0,0,0,1.64.68,3.183,3.183,0,0,0,1.014-.159,2.321,2.321,0,0,0,.755-0.391Zm-0.727-2.44a1.264,1.264,0,0,1,.153.8H125.38a1.487,1.487,0,0,1,.274-0.786,0.827,0.827,0,0,1,.7-0.294A0.672,0.672,0,0,1,126.951,90.179Zm6.063-3.077h-1.2V89.06a1.835,1.835,0,0,0-.371-0.111,2.717,2.717,0,0,0-.472-0.034,1.881,1.881,0,0,0-1.575.685,3.037,3.037,0,0,0-.538,1.919,2.968,2.968,0,0,0,.482,1.871,1.638,1.638,0,0,0,1.353.6,1.565,1.565,0,0,0,.819-0.207,1.422,1.422,0,0,0,.533-0.545h0.037l0.167,0.627h0.861a7.206,7.206,0,0,1-.083-0.9q-0.009-.405-0.009-0.81V87.1Zm-2.71,5.45a2.046,2.046,0,0,1-.208-0.993,2.2,2.2,0,0,1,.254-1.225,0.879,0.879,0,0,1,.765-0.357,1.307,1.307,0,0,1,.407.053,0.919,0.919,0,0,1,.288.159v2.045a0.976,0.976,0,0,1-.288.516,0.814,0.814,0,0,1-.555.178A0.7,0.7,0,0,1,130.3,92.551Zm3.868,1.3h1.2V89.031h-1.2v4.823Zm0.023-5.715a0.77,0.77,0,0,0,.551.188,0.84,0.84,0,0,0,.57-0.188,0.593,0.593,0,0,0,.217-0.468,0.622,0.622,0,0,0-.217-0.477,0.815,0.815,0,0,0-.57-0.2,0.748,0.748,0,0,0-.551.2,0.648,0.648,0,0,0-.2.477A0.616,0.616,0,0,0,134.2,88.138Zm2.32,0.892v3a3.843,3.843,0,0,0,.1.945,1.522,1.522,0,0,0,.282.6,1.035,1.035,0,0,0,.463.318,1.924,1.924,0,0,0,.63.1,1.642,1.642,0,0,0,.9-0.241,1.766,1.766,0,0,0,.593-0.608h0.037l0.213,0.714h0.908a4.87,4.87,0,0,1-.111-0.69q-0.037-.381-0.037-0.776V89.031h-1.205v3.116a1.308,1.308,0,0,1-.338.521,0.8,0.8,0,0,1-.57.212,0.533,0.533,0,0,1-.523-0.26,1.964,1.964,0,0,1-.134-0.849V89.031h-1.205Zm8.866,4.823V90.69a1.12,1.12,0,0,1,.282-0.5A0.711,0.711,0,0,1,146.178,90a0.494,0.494,0,0,1,.514.285,2.391,2.391,0,0,1,.116.854v2.71h1.2V90.96a4.958,4.958,0,0,0-.084-1,1.646,1.646,0,0,0-.254-0.632,0.918,0.918,0,0,0-.445-0.333,2,2,0,0,0-.662-0.1,1.421,1.421,0,0,0-.806.222,1.719,1.719,0,0,0-.547.6,1.216,1.216,0,0,0-.44-0.632,1.288,1.288,0,0,0-.727-0.188,1.44,1.44,0,0,0-.848.231,2.169,2.169,0,0,0-.542.54H142.62l-0.139-.637h-0.935v4.823h1.2V90.642a1.144,1.144,0,0,1,.3-0.458,0.726,0.726,0,0,1,.51-0.178,0.487,0.487,0,0,1,.5.28,2.625,2.625,0,0,1,.121.945v2.624h1.2Z"/>
          <path id="Urgent" class="cls-6" d="M120.483,47.873a1.544,1.544,0,0,1-.256.99,1.019,1.019,0,0,1-.829.307,1.781,1.781,0,0,1-.51-0.066,0.821,0.821,0,0,1-.365-0.219,0.934,0.934,0,0,1-.214-0.4,2.362,2.362,0,0,1-.068-0.609V44h-1.249V48.11q0,2.129,2.424,2.129a3.069,3.069,0,0,0,.921-0.131,1.78,1.78,0,0,0,.711-0.412,1.913,1.913,0,0,0,.455-0.71,2.858,2.858,0,0,0,.164-1.025V44h-1.184v3.872Zm4.893-2.12a1.786,1.786,0,0,0-.538-0.1,1.1,1.1,0,0,0-.619.175,1.205,1.205,0,0,0-.419.5h-0.037l-0.137-.578h-0.92v4.38h1.185V47.3a0.775,0.775,0,0,1,.287-0.416,0.856,0.856,0,0,1,.533-0.162,1.6,1.6,0,0,1,.51.1Zm4.383,0.158a4.516,4.516,0,0,0-.752-0.184,6.214,6.214,0,0,0-1.043-.079,2.249,2.249,0,0,0-1.695.6,2.464,2.464,0,0,0-.583,1.778,2.567,2.567,0,0,0,.433,1.647,1.606,1.606,0,0,0,1.317.526,1.348,1.348,0,0,0,1.129-.412H128.6v0.28a1.075,1.075,0,0,1-.223.723,1.087,1.087,0,0,1-.843.258,2.553,2.553,0,0,1-.688-0.079c-0.186-.053-0.348-0.105-0.488-0.158l-0.246.9a2.693,2.693,0,0,0,.57.184,4.8,4.8,0,0,0,1.034.088,2.275,2.275,0,0,0,1.5-.451,1.735,1.735,0,0,0,.537-1.406V45.911Zm-2.633,3.049a1.776,1.776,0,0,1-.219-0.972,1.715,1.715,0,0,1,.255-1.047,0.849,0.849,0,0,1,.711-0.328,1.894,1.894,0,0,1,.7.114V48.7a0.939,0.939,0,0,1-.287.447,0.84,0.84,0,0,1-.534.149A0.705,0.705,0,0,1,127.126,48.959Zm6.916,0.053a1.881,1.881,0,0,1-.451.223,1.919,1.919,0,0,1-.67.109,1.162,1.162,0,0,1-.87-0.28,1.253,1.253,0,0,1-.3-0.832h2.734c0.03-.152.053-0.3,0.068-0.438a3.724,3.724,0,0,0,.023-0.394,2.062,2.062,0,0,0-.155-0.85,1.435,1.435,0,0,0-.41-0.543,1.6,1.6,0,0,0-.583-0.289,2.608,2.608,0,0,0-.675-0.088,2.173,2.173,0,0,0-1.613.578,2.369,2.369,0,0,0-.574,1.735,2.585,2.585,0,0,0,.51,1.7,1.976,1.976,0,0,0,1.613.618,3.369,3.369,0,0,0,1-.145,2.351,2.351,0,0,0,.743-0.355ZM133.327,46.8a1.073,1.073,0,0,1,.15.727h-1.695a1.287,1.287,0,0,1,.269-0.714,0.846,0.846,0,0,1,.688-0.267A0.683,0.683,0,0,1,133.327,46.8Zm6.064,3.338V47.409a3.4,3.4,0,0,0-.091-0.854,1.3,1.3,0,0,0-.273-0.547,1.033,1.033,0,0,0-.447-0.289,1.908,1.908,0,0,0-.6-0.088,1.7,1.7,0,0,0-.893.21,1.927,1.927,0,0,0-.556.491h-0.037l-0.136-.578h-0.939v4.38H136.6V47.295a1.038,1.038,0,0,1,.332-0.469,0.876,0.876,0,0,1,.57-0.188,0.605,0.605,0,0,1,.542.236,1.425,1.425,0,0,1,.159.771v2.488h1.185Zm0.52-3.416h0.628v2.208a1.453,1.453,0,0,0,.3,1.021,1.226,1.226,0,0,0,.925.311,2.842,2.842,0,0,0,.666-0.079A3.1,3.1,0,0,0,143,49.984l-0.21-.876a2.169,2.169,0,0,1-.3.105,1.235,1.235,0,0,1-.314.035,0.361,0.361,0,0,1-.36-0.2,1.6,1.6,0,0,1-.1-0.653V46.717h1.112V45.753h-1.112V44.605l-1.185.324v0.824h-0.628v0.964Z"/>
          <path id="High" class="cls-7" d="M120.526,71.924h1.234V65.1h-1.234V67.88h-2.3V65.1h-1.233v6.821h1.233V69.069h2.3v2.855Zm2.4,0h1.171V67.051h-1.171v4.872Zm0.023-5.774a0.731,0.731,0,0,0,.536.19,0.8,0.8,0,0,0,.553-0.19,0.61,0.61,0,0,0,.212-0.473,0.64,0.64,0,0,0-.212-0.482,0.772,0.772,0,0,0-.553-0.2,0.711,0.711,0,0,0-.536.2,0.669,0.669,0,0,0-.194.482A0.636,0.636,0,0,0,122.944,66.15Zm6.109,1.077a4.062,4.062,0,0,0-.743-0.2,5.473,5.473,0,0,0-1.031-.088,2.083,2.083,0,0,0-1.674.672,2.961,2.961,0,0,0-.577,1.978,3.129,3.129,0,0,0,.428,1.832,1.506,1.506,0,0,0,1.3.585,1.261,1.261,0,0,0,1.117-.458h0.036v0.312a1.3,1.3,0,0,1-.221.8,1,1,0,0,1-.833.287,2.262,2.262,0,0,1-.68-0.088q-0.275-.088-0.481-0.175l-0.243,1a2.439,2.439,0,0,0,.562.2,4.23,4.23,0,0,0,1.022.1,1.818,1.818,0,0,0,2.017-2.066v-4.7Zm-2.6,3.391a2.181,2.181,0,0,1-.216-1.082,2.093,2.093,0,0,1,.252-1.164,0.805,0.805,0,0,1,.7-0.365,1.686,1.686,0,0,1,.694.127v2.193a1.067,1.067,0,0,1-.284.5,0.763,0.763,0,0,1-.527.166A0.681,0.681,0,0,1,126.451,70.618ZM134,71.924v-3.03a4.472,4.472,0,0,0-.085-0.95,1.511,1.511,0,0,0-.261-0.609,0.983,0.983,0,0,0-.437-0.322,1.722,1.722,0,0,0-.6-0.1,1.568,1.568,0,0,0-.8.185,1.672,1.672,0,0,0-.531.5h-0.036V65.1h-1.17v6.821h1.17V68.815a1.054,1.054,0,0,1,.329-0.56,0.8,0.8,0,0,1,.544-0.219,0.591,0.591,0,0,1,.559.263,1.791,1.791,0,0,1,.153.858v2.767H134Z"/>
        </g>
        <path class="cls-8" d="M34,56H148v1H34V56Zm0,22H148v1H34V78Z"/>
      </g>
    </g>
  </g>
</svg>
