<svg id="icon" xmlns="http://www.w3.org/2000/svg" width="178" height="122" viewBox="0 0 178 122">
  <defs>
    <style>
      .cls-1 {
        fill: #eef3fe;
      }

      .cls-1, .cls-2, .cls-3, .cls-4, .cls-5, .cls-6, .cls-7 {
        fill-rule: evenodd;
      }

      .cls-2 {
        fill: #fff;
        stroke: #e3e3e3;
        stroke-linejoin: round;
        stroke-width: 1px;
      }

      .cls-4 {
        fill: #36be8f;
      }

      .cls-5 {
        fill: #de617e;
      }

      .cls-6 {
        fill: #5387ff;
      }

      .cls-7 {
        fill: #343439;
      }
    </style>
  </defs>
  <path class="cls-1" d="M19,68.019c0.518-12.348,3.106-22.638,28.987-30.87S81.739,25.287,94.68,17.569c10.426-6.394,42.473-5.832,57.974,15.435,10.784,14.8,10.007,34.037-2.07,47.334-10.26,11.3-31.5,20.432-52.8,24.7-21.692,4.344-37.893,1.057-53.939-5.117S18.655,82.768,19,68.019Z"/>
  <g id="Task">
    <path class="cls-2" d="M44.227,20h89.732s5.353,0.346,6.067,7.915V90.678s1.488,12.277-12.067,12.277l-78.532.879s-9.533-.044-9.533-10.553L39.027,26.156S38.408,21.005,44.227,20Z"/>
    <path id="Task-2" data-name="Task" class="cls-3" d="M53.269,28H46.987v0.938h2.639v7.933h1V28.933h2.639V28Zm0.085,3.776a2.3,2.3,0,0,1,.393-0.189,3.82,3.82,0,0,1,.472-0.143q0.248-.059.484-0.091a3.227,3.227,0,0,1,.442-0.033,1.322,1.322,0,0,1,.968.279,1.406,1.406,0,0,1,.266.976q0,0.3-.036.684a2.25,2.25,0,0,0-.333-0.025H55.678a7.172,7.172,0,0,0-1.216.1,2.927,2.927,0,0,0-.944.317,1.6,1.6,0,0,0-.611.6,1.825,1.825,0,0,0-.218.931,1.905,1.905,0,0,0,.139.748,1.685,1.685,0,0,0,.381.564,1.663,1.663,0,0,0,.575.361,2.009,2.009,0,0,0,.72.127,2.461,2.461,0,0,0,.69-0.089,2.419,2.419,0,0,0,.533-0.222,1.756,1.756,0,0,0,.393-0.3A2.086,2.086,0,0,0,56.392,36h0.06l0.254,0.887h0.714a4.357,4.357,0,0,1-.133-0.773q-0.036-.418-0.036-0.887,0-.646.036-1.369t0.036-1.483a3.582,3.582,0,0,0-.067-0.684,1.621,1.621,0,0,0-.266-0.627,1.42,1.42,0,0,0-.581-0.463,2.422,2.422,0,0,0-1.011-.177,5.727,5.727,0,0,0-1.277.139A3.4,3.4,0,0,0,53.051,31ZM54,35.795a0.957,0.957,0,0,1-.3-0.729,0.828,0.828,0,0,1,.163-0.526,1.11,1.11,0,0,1,.436-0.33,2.241,2.241,0,0,1,.629-0.165A5.948,5.948,0,0,1,55.653,34q0.169,0,.345.006t0.345,0.019v1.052a1.459,1.459,0,0,1-.188.342,1.493,1.493,0,0,1-.321.323,1.725,1.725,0,0,1-.46.241,1.8,1.8,0,0,1-.605.095A1.084,1.084,0,0,1,54,35.795Zm7.48,0.12a1.575,1.575,0,0,1-.859.215,3.031,3.031,0,0,1-.908-0.139,3.457,3.457,0,0,1-.726-0.3l-0.291.862a3.6,3.6,0,0,0,.811.33,4.294,4.294,0,0,0,1.174.139,2.668,2.668,0,0,0,.926-0.146,1.9,1.9,0,0,0,.66-0.4,1.548,1.548,0,0,0,.393-0.608,2.235,2.235,0,0,0,.127-0.76,1.714,1.714,0,0,0-.218-0.919,2,2,0,0,0-.539-0.577,2.962,2.962,0,0,0-.7-0.367q-0.381-.139-0.7-0.285a2.308,2.308,0,0,1-.539-0.329,0.634,0.634,0,0,1-.218-0.513,0.782,0.782,0,0,1,.248-0.659,1.288,1.288,0,0,1,.781-0.19,3.179,3.179,0,0,1,.841.108,3.691,3.691,0,0,1,.672.247l0.23-.836a4.14,4.14,0,0,0-.769-0.285,4.24,4.24,0,0,0-1.1-.12,2.057,2.057,0,0,0-1.38.424,1.666,1.666,0,0,0-.5,1.337,1.588,1.588,0,0,0,.218.887,1.854,1.854,0,0,0,.539.538,3.224,3.224,0,0,0,.7.342q0.381,0.133.7,0.279a1.842,1.842,0,0,1,.539.361,0.8,0.8,0,0,1,.218.6A0.844,0.844,0,0,1,61.475,35.915Zm6.318,0.95h1.2L66.97,34l-0.605-.507,0.5-.418,1.852-2.547H67.588l-1.876,2.686-0.5.177V28H64.247v8.87h0.968V34.014h0.557Z"/>
    <g>
      <path id="Completed" class="cls-4" d="M93.114,50.994a1.49,1.49,0,0,1-.41,1.113,1.581,1.581,0,0,1-1.157.4,1.413,1.413,0,0,1-1.2-.605,2.477,2.477,0,0,1-.446-1.511V49.2a2.462,2.462,0,0,1,.446-1.5,1.414,1.414,0,0,1,1.2-.605A1.576,1.576,0,0,1,92.7,47.5a1.479,1.479,0,0,1,.41,1.1h0.861l0.009-.027a1.979,1.979,0,0,0-.647-1.587,2.577,2.577,0,0,0-1.79-.6,2.337,2.337,0,0,0-1.834.8A2.937,2.937,0,0,0,89,49.214v1.179a2.929,2.929,0,0,0,.708,2.021,2.34,2.34,0,0,0,1.834.8,2.508,2.508,0,0,0,1.781-.628,1.991,1.991,0,0,0,.656-1.562l-0.009-.027H93.114Zm1.7-.287a2.693,2.693,0,0,0,.595,1.8,2.205,2.205,0,0,0,3.227,0,2.7,2.7,0,0,0,.592-1.8v-0.1a2.7,2.7,0,0,0-.594-1.8,2.2,2.2,0,0,0-3.228,0,2.711,2.711,0,0,0-.592,1.8v0.1Zm0.9-.1a2.34,2.34,0,0,1,.33-1.288,1.083,1.083,0,0,1,.973-0.515,1.1,1.1,0,0,1,.982.515,2.316,2.316,0,0,1,.335,1.288v0.1A2.324,2.324,0,0,1,98,52a1.193,1.193,0,0,1-1.957,0,2.335,2.335,0,0,1-.33-1.293v-0.1Zm4.615-2.417v4.926h0.9V49.469A1.088,1.088,0,0,1,101.632,49a1.237,1.237,0,0,1,.675-0.168,0.893,0.893,0,0,1,.74.321,1.618,1.618,0,0,1,.257,1.013v2.955h0.9V49.951a1.39,1.39,0,0,1,.335-0.806,0.952,0.952,0,0,1,.745-0.319,0.913,0.913,0,0,1,.747.3,1.636,1.636,0,0,1,.251,1.031v2.955h0.9V50.17a2.363,2.363,0,0,0-.437-1.555,1.477,1.477,0,0,0-1.189-.517,1.618,1.618,0,0,0-.891.244,1.849,1.849,0,0,0-.617.667,1.383,1.383,0,0,0-.531-0.683,1.525,1.525,0,0,0-.845-0.228,1.839,1.839,0,0,0-.863.194,1.671,1.671,0,0,0-.613.544l-0.064-.646h-0.8Zm12.354,2.554a3.281,3.281,0,0,0-.508-1.919,1.639,1.639,0,0,0-1.424-.726,1.8,1.8,0,0,0-.838.187,1.627,1.627,0,0,0-.6.542l-0.141-.637h-0.688v6.82h0.9V52.6a1.526,1.526,0,0,0,.586.458,1.954,1.954,0,0,0,.8.153,1.688,1.688,0,0,0,1.408-.653,2.715,2.715,0,0,0,.51-1.719v-0.1Zm-0.9.1a2.053,2.053,0,0,1-.328,1.2,1.106,1.106,0,0,1-.966.467,1.241,1.241,0,0,1-.67-0.171,1.28,1.28,0,0,1-.442-0.476V49.483a1.32,1.32,0,0,1,.442-0.48,1.2,1.2,0,0,1,.661-0.175,1.069,1.069,0,0,1,.972.539,2.6,2.6,0,0,1,.331,1.377v0.1Zm2.97-4.826h-0.9v7.1h0.9v-7.1Zm4.464,7.022a2.149,2.149,0,0,0,.7-0.43l-0.351-.583a1.777,1.777,0,0,1-.59.357,2.254,2.254,0,0,1-.8.13,1.144,1.144,0,0,1-1-.462,2.033,2.033,0,0,1-.328-1.2l0.013-.023h3.153V50.348a2.528,2.528,0,0,0-.495-1.634,1.787,1.787,0,0,0-1.482-.615,1.923,1.923,0,0,0-1.5.694,2.557,2.557,0,0,0-.613,1.755v0.2a2.611,2.611,0,0,0,.595,1.785,2.085,2.085,0,0,0,1.656.678A2.776,2.776,0,0,0,119.221,53.036Zm-0.369-3.881a1.435,1.435,0,0,1,.264.888v0.073h-2.223l-0.009-.023a1.715,1.715,0,0,1,.376-0.926,0.976,0.976,0,0,1,.777-0.362A0.955,0.955,0,0,1,118.852,49.155ZM121.371,47V48.19h-0.783v0.665h0.783v2.991a1.431,1.431,0,0,0,.324,1.036,1.16,1.16,0,0,0,.87.33,1.5,1.5,0,0,0,.387-0.052,0.791,0.791,0,0,0,.3-0.134l-0.123-.615a1.29,1.29,0,0,1-.159.043,0.844,0.844,0,0,1-.173.02,0.521,0.521,0,0,1-.381-0.141,0.672,0.672,0,0,1-.143-0.487V48.854H123.2V48.19h-0.934V47h-0.9Zm5.877,6.035a2.16,2.16,0,0,0,.7-0.43l-0.351-.583a1.787,1.787,0,0,1-.59.357,2.258,2.258,0,0,1-.8.13,1.147,1.147,0,0,1-1-.462,2.04,2.04,0,0,1-.328-1.2l0.014-.023h3.152V50.348a2.528,2.528,0,0,0-.494-1.634,1.789,1.789,0,0,0-1.483-.615,1.921,1.921,0,0,0-1.5.694,2.552,2.552,0,0,0-.613,1.755v0.2a2.606,2.606,0,0,0,.6,1.785,2.085,2.085,0,0,0,1.656.678A2.78,2.78,0,0,0,127.248,53.036Zm-0.369-3.881a1.435,1.435,0,0,1,.264.888v0.073H124.92l-0.009-.023a1.708,1.708,0,0,1,.376-0.926,0.976,0.976,0,0,1,.776-0.362A0.955,0.955,0,0,1,126.879,49.155Zm1.963,1.685a2.715,2.715,0,0,0,.51,1.719,1.694,1.694,0,0,0,1.413.653,1.785,1.785,0,0,0,.824-0.182,1.6,1.6,0,0,0,.6-0.537l0.137,0.624h0.687v-7.1h-0.9v2.709a1.57,1.57,0,0,0-.572-0.464,1.765,1.765,0,0,0-.767-0.159,1.637,1.637,0,0,0-1.424.728,3.283,3.283,0,0,0-.508,1.917v0.1Zm0.9-.1a2.748,2.748,0,0,1,.307-1.384A1.026,1.026,0,0,1,131,48.827a1.184,1.184,0,0,1,.663.18,1.377,1.377,0,0,1,.449.485v2.3a1.358,1.358,0,0,1-.446.51,1.192,1.192,0,0,1-.675.182,1.065,1.065,0,0,1-.947-0.449,2.086,2.086,0,0,1-.3-1.2v-0.1Z"/>
      <path id="Cancelled" class="cls-5" d="M93.135,69.842a1.416,1.416,0,0,1-.412,1.079,1.624,1.624,0,0,1-1.163.391,1.438,1.438,0,0,1-1.2-.587,2.342,2.342,0,0,1-.449-1.465V68.107a2.328,2.328,0,0,1,.449-1.457,1.438,1.438,0,0,1,1.2-.587,1.619,1.619,0,0,1,1.163.393,1.406,1.406,0,0,1,.412,1.068H94L94.01,67.5a1.886,1.886,0,0,0-.65-1.538,2.65,2.65,0,0,0-1.8-.58,2.389,2.389,0,0,0-1.843.775A2.787,2.787,0,0,0,89,68.116V69.26a2.779,2.779,0,0,0,.712,1.96,2.392,2.392,0,0,0,1.843.773,2.577,2.577,0,0,0,1.791-.609,1.9,1.9,0,0,0,.659-1.514L94,69.842H93.135Zm5.9,2.057a2.457,2.457,0,0,1-.1-0.468,4.321,4.321,0,0,1-.028-0.494v-2.3a1.438,1.438,0,0,0-.513-1.19,2.1,2.1,0,0,0-1.356-.413,2.149,2.149,0,0,0-1.39.433,1.13,1.13,0,0,0-.506.954l0.009,0.026,0.856-.009a0.628,0.628,0,0,1,.27-0.508,1.117,1.117,0,0,1,.71-0.212,1.067,1.067,0,0,1,.751.245,0.86,0.86,0,0,1,.266.664V69.1h-0.98a2.761,2.761,0,0,0-1.559.386,1.221,1.221,0,0,0-.575,1.07,1.376,1.376,0,0,0,.405,1.053,1.658,1.658,0,0,0,1.179.382,1.728,1.728,0,0,0,.872-0.232A2.078,2.078,0,0,0,98,71.184a2.673,2.673,0,0,0,.03.333q0.025,0.165.071,0.382h0.93ZM96,71.078a0.643,0.643,0,0,1-.206-0.5,0.783,0.783,0,0,1,.327-0.622,1.346,1.346,0,0,1,.872-0.265H98v0.777a1.168,1.168,0,0,1-.513.556,1.651,1.651,0,0,1-.884.243A0.884,0.884,0,0,1,96,71.078Zm4.217-3.955V71.9h0.9V68.355a1.194,1.194,0,0,1,.461-0.453,1.436,1.436,0,0,1,.707-0.161,1.059,1.059,0,0,1,.79.265,1.257,1.257,0,0,1,.259.9v3h0.9V68.884a1.94,1.94,0,0,0-.44-1.4,1.649,1.649,0,0,0-1.241-.453,1.7,1.7,0,0,0-.849.21,1.771,1.771,0,0,0-.621.589l-0.064-.711h-0.806Zm6.327,3.695a2.3,2.3,0,0,1-.3-1.214V69.418a2.259,2.259,0,0,1,.3-1.2,1.052,1.052,0,0,1,.969-0.5,0.99,0.99,0,0,1,.744.307,1.033,1.033,0,0,1,.3.744h0.82l0.009-.026a1.542,1.542,0,0,0-.51-1.214,1.912,1.912,0,0,0-1.358-.494,1.977,1.977,0,0,0-1.61.686,2.568,2.568,0,0,0-.57,1.7V69.6a2.576,2.576,0,0,0,.568,1.7,2.156,2.156,0,0,0,2.931.205,1.355,1.355,0,0,0,.549-1.1l-0.013-.026h-0.816a0.83,0.83,0,0,1-.311.656,1.084,1.084,0,0,1-.728.267A1.051,1.051,0,0,1,106.542,70.818Zm7.013,1a2.182,2.182,0,0,0,.7-0.417L113.9,70.84a1.8,1.8,0,0,1-.593.347,2.343,2.343,0,0,1-.8.126,1.169,1.169,0,0,1-1.007-.448,1.921,1.921,0,0,1-.33-1.168l0.014-.022h3.169V69.215a2.4,2.4,0,0,0-.5-1.585,1.829,1.829,0,0,0-1.49-.6,1.963,1.963,0,0,0-1.5.673,2.427,2.427,0,0,0-.616,1.7V69.6a2.471,2.471,0,0,0,.6,1.73,2.134,2.134,0,0,0,1.664.658A2.885,2.885,0,0,0,113.555,71.822Zm-0.371-3.763a1.357,1.357,0,0,1,.266.861V68.99h-2.235l-0.009-.022a1.631,1.631,0,0,1,.378-0.9,1,1,0,0,1,.781-0.351A0.975,0.975,0,0,1,113.184,68.059Zm3.155-3.046h-0.9V71.9h0.9V65.013Zm2.363,0h-0.9V71.9h0.9V65.013Zm4.488,6.809a2.182,2.182,0,0,0,.7-0.417l-0.353-.565a1.793,1.793,0,0,1-.593.347,2.341,2.341,0,0,1-.8.126,1.17,1.17,0,0,1-1.008-.448,1.921,1.921,0,0,1-.33-1.168l0.014-.022h3.169V69.215a2.391,2.391,0,0,0-.5-1.585,1.829,1.829,0,0,0-1.49-.6,1.963,1.963,0,0,0-1.5.673,2.427,2.427,0,0,0-.616,1.7V69.6a2.476,2.476,0,0,0,.6,1.73,2.134,2.134,0,0,0,1.665.658A2.883,2.883,0,0,0,123.19,71.822Zm-0.371-3.763a1.357,1.357,0,0,1,.266.861V68.99H120.85l-0.009-.022a1.631,1.631,0,0,1,.378-0.9A1,1,0,0,1,122,67.719,0.975,0.975,0,0,1,122.819,68.059Zm1.974,1.633a2.566,2.566,0,0,0,.513,1.666,1.726,1.726,0,0,0,1.42.633,1.853,1.853,0,0,0,.829-0.177,1.581,1.581,0,0,0,.6-0.521l0.138,0.6h0.691V65.013h-0.9V67.64a1.571,1.571,0,0,0-.575-0.45,1.827,1.827,0,0,0-.771-0.154,1.663,1.663,0,0,0-1.431.706,3.1,3.1,0,0,0-.511,1.858v0.093Zm0.9-.093A2.588,2.588,0,0,1,126,68.258a1.04,1.04,0,0,1,.96-0.516,1.226,1.226,0,0,1,.666.174,1.356,1.356,0,0,1,.451.47v2.229a1.329,1.329,0,0,1-.449.494,1.227,1.227,0,0,1-.677.177A1.087,1.087,0,0,1,126,70.851a1.975,1.975,0,0,1-.307-1.159V69.6Z"/>
      <path id="Draft" class="cls-6" d="M91,90.9a2.6,2.6,0,0,0,2.747-2.735V87.3A2.606,2.606,0,0,0,91,84.559H89.007V90.9H91Zm0-5.667a1.744,1.744,0,0,1,1.384.579,2.162,2.162,0,0,1,.506,1.477v0.876a2.175,2.175,0,0,1-.506,1.485A1.744,1.744,0,0,1,91,90.23H89.864v-5H91Zm6.264,0.915a1.239,1.239,0,0,0-.143-0.033,1.053,1.053,0,0,0-.183-0.015,1.152,1.152,0,0,0-.676.2,1.636,1.636,0,0,0-.493.571l-0.083-.688H94.919V90.9h0.856V87.534a1.034,1.034,0,0,1,.359-0.453,0.979,0.979,0,0,1,.572-0.161l0.439,0.026Zm4.547,4.752a2.51,2.51,0,0,1-.1-0.462,4.522,4.522,0,0,1-.026-0.488V87.682a1.443,1.443,0,0,0-.487-1.174,1.937,1.937,0,0,0-1.286-.407,1.988,1.988,0,0,0-1.319.427,1.129,1.129,0,0,0-.48.941l0.009,0.026,0.813-.009a0.628,0.628,0,0,1,.256-0.5,1.033,1.033,0,0,1,.674-0.209,0.989,0.989,0,0,1,.713.242,0.866,0.866,0,0,1,.252.656v0.466H99.9a2.543,2.543,0,0,0-1.48.381,1.218,1.218,0,0,0-.546,1.056,1.387,1.387,0,0,0,.385,1.039,1.536,1.536,0,0,0,1.119.377,1.592,1.592,0,0,0,.828-0.229,2.01,2.01,0,0,0,.624-0.568,2.779,2.779,0,0,0,.028.329c0.016,0.109.038,0.235,0.067,0.377h0.883Zm-2.882-.81a0.647,0.647,0,0,1-.2-0.5,0.782,0.782,0,0,1,.311-0.614,1.244,1.244,0,0,1,.828-0.261h0.961v0.767a1.143,1.143,0,0,1-.487.549,1.521,1.521,0,0,1-.839.24A0.818,0.818,0,0,1,98.927,90.09Zm5.216,0.81V86.824H105V86.188h-0.852v-0.6a1.009,1.009,0,0,1,.183-0.651,0.674,0.674,0,0,1,.556-0.224,2,2,0,0,1,.233.013c0.073,0.009.137,0.019,0.189,0.031l0.1-.653q-0.183-.043-0.333-0.067a1.889,1.889,0,0,0-.3-0.024,1.446,1.446,0,0,0-1.1.412,1.62,1.62,0,0,0-.393,1.165v0.6h-0.735v0.636h0.735V90.9h0.856Zm2.052-5.85v1.137h-0.748v0.636H106.2v2.862a1.377,1.377,0,0,0,.308.991,1.109,1.109,0,0,0,.831.316,1.425,1.425,0,0,0,.369-0.05,0.757,0.757,0,0,0,.283-0.129l-0.118-.588a1.178,1.178,0,0,1-.152.041,0.793,0.793,0,0,1-.165.02,0.494,0.494,0,0,1-.363-0.135,0.643,0.643,0,0,1-.137-0.466V86.824h0.891V86.188h-0.891V85.051H106.2Z"/>
    </g>
    <g id="Group_18_copy" data-name="Group 18 copy">
      <path id="Call" class="cls-7" d="M50.981,70.854a1.456,1.456,0,0,1-.4,1.084,1.524,1.524,0,0,1-1.12.392,1.365,1.365,0,0,1-1.159-.59,2.424,2.424,0,0,1-.432-1.472V69.111a2.409,2.409,0,0,1,.432-1.463,1.366,1.366,0,0,1,1.159-.59,1.519,1.519,0,0,1,1.12.395,1.446,1.446,0,0,1,.4,1.073h0.833l0.009-.027a1.933,1.933,0,0,0-.626-1.545,2.484,2.484,0,0,0-1.733-.583,2.255,2.255,0,0,0-1.774.778A2.872,2.872,0,0,0,47,69.12v1.148a2.864,2.864,0,0,0,.685,1.969,2.258,2.258,0,0,0,1.774.776,2.418,2.418,0,0,0,1.724-.612,1.945,1.945,0,0,0,.635-1.521l-0.009-.027H50.981ZM56.66,72.92a2.571,2.571,0,0,1-.1-0.47,4.53,4.53,0,0,1-.026-0.5v-2.31a1.473,1.473,0,0,0-.494-1.195,1.963,1.963,0,0,0-1.3-.415,2.012,2.012,0,0,0-1.338.435,1.15,1.15,0,0,0-.487.958l0.009,0.027,0.824-.009a0.64,0.64,0,0,1,.26-0.51,1.045,1.045,0,0,1,.683-0.213,1,1,0,0,1,.723.246,0.883,0.883,0,0,1,.256.667v0.474H54.724a2.573,2.573,0,0,0-1.5.388,1.241,1.241,0,0,0-.553,1.075,1.415,1.415,0,0,0,.39,1.057,1.554,1.554,0,0,0,1.135.384,1.611,1.611,0,0,0,.84-0.233,2.03,2.03,0,0,0,.633-0.579,2.816,2.816,0,0,0,.029.335q0.024,0.166.068,0.383H56.66ZM53.737,72.1a0.66,0.66,0,0,1-.2-0.505,0.8,0.8,0,0,1,.315-0.625,1.259,1.259,0,0,1,.84-0.266h0.974v0.78a1.157,1.157,0,0,1-.494.559,1.539,1.539,0,0,1-.851.244A0.827,0.827,0,0,1,53.737,72.1Zm5-6.093H57.868V72.92h0.868V66Zm2.275,0H60.142V72.92h0.869V66Z"/>
      <path id="Email" class="cls-7" d="M50.521,88.231H47.878V86.142h3.045V85.455H47.008v6.456h3.964V91.228H47.878v-2.31h2.642V88.231Zm1.361-1.117v4.8h0.87V88.359a1.059,1.059,0,0,1,.393-0.461,1.193,1.193,0,0,1,.654-0.164,0.865,0.865,0,0,1,.718.313,1.578,1.578,0,0,1,.25.987v2.878h0.875V88.829a1.352,1.352,0,0,1,.325-0.785,0.921,0.921,0,0,1,.722-0.31,0.885,0.885,0,0,1,.725.295,1.6,1.6,0,0,1,.243,1v2.878h0.871V89.042a2.3,2.3,0,0,0-.424-1.514,1.429,1.429,0,0,0-1.153-.5,1.562,1.562,0,0,0-.864.237,1.791,1.791,0,0,0-.6.65,1.341,1.341,0,0,0-.515-0.665,1.476,1.476,0,0,0-.82-0.222,1.782,1.782,0,0,0-.837.189,1.626,1.626,0,0,0-.594.53l-0.062-.63H51.882Zm11.745,4.8a2.565,2.565,0,0,1-.1-0.47,4.5,4.5,0,0,1-.026-0.5v-2.31a1.471,1.471,0,0,0-.495-1.195,1.97,1.97,0,0,0-1.308-.415,2.019,2.019,0,0,0-1.341.435,1.15,1.15,0,0,0-.488.958l0.009,0.027,0.826-.009a0.639,0.639,0,0,1,.261-0.51,1.049,1.049,0,0,1,.685-0.213,1,1,0,0,1,.725.246,0.882,0.882,0,0,1,.256.667V89.1H61.687a2.584,2.584,0,0,0-1.5.388,1.24,1.24,0,0,0-.554,1.075,1.413,1.413,0,0,0,.391,1.058A1.56,1.56,0,0,0,61.157,92,1.617,1.617,0,0,0,62,91.772a2.032,2.032,0,0,0,.634-0.579,2.816,2.816,0,0,0,.029.335q0.024,0.166.069,0.383h0.9Zm-2.93-.825a0.659,0.659,0,0,1-.2-0.505,0.8,0.8,0,0,1,.316-0.625,1.264,1.264,0,0,1,.842-0.266h0.977v0.78a1.157,1.157,0,0,1-.495.559,1.545,1.545,0,0,1-.853.244A0.831,0.831,0,0,1,60.7,91.086Zm5.011-3.973H64.838v4.8h0.871v-4.8Zm0-2.12H64.838v0.891h0.871V84.994Zm2.28,0H67.118v6.917h0.871V84.994Z"/>
      <path id="Meeting" class="cls-7" d="M48.2,46.482h-1.2V53.04h0.909V47.964l0.028,0,2.1,5.08h0.632l2.035-4.918,0.028,0V53.04h0.909V46.482H52.514L50.368,51.81H50.34Zm10.015,6.479a2.195,2.195,0,0,0,.706-0.426l-0.355-.577a1.815,1.815,0,0,1-.6.354,2.338,2.338,0,0,1-.81.128,1.172,1.172,0,0,1-1.015-.457,1.978,1.978,0,0,1-.332-1.191l0.014-.023h3.194V50.3a2.464,2.464,0,0,0-.5-1.617,1.833,1.833,0,0,0-1.5-.608,1.967,1.967,0,0,0-1.516.687,2.492,2.492,0,0,0-.621,1.736v0.2a2.544,2.544,0,0,0,.6,1.766,2.138,2.138,0,0,0,1.677.671A2.878,2.878,0,0,0,58.218,52.961Zm-0.374-3.84a1.4,1.4,0,0,1,.268.878v0.072H55.86l-0.009-.023a1.672,1.672,0,0,1,.381-0.916,1,1,0,0,1,.787-0.358A0.978,0.978,0,0,1,57.844,49.121Zm5.321,3.84a2.194,2.194,0,0,0,.706-0.426l-0.355-.577a1.815,1.815,0,0,1-.6.354,2.338,2.338,0,0,1-.81.128,1.172,1.172,0,0,1-1.015-.457,1.978,1.978,0,0,1-.332-1.191l0.014-.023h3.194V50.3a2.464,2.464,0,0,0-.5-1.617,1.833,1.833,0,0,0-1.5-.608,1.967,1.967,0,0,0-1.516.687,2.492,2.492,0,0,0-.621,1.736v0.2a2.544,2.544,0,0,0,.6,1.766,2.138,2.138,0,0,0,1.678.671A2.877,2.877,0,0,0,63.165,52.961Zm-0.374-3.84a1.4,1.4,0,0,1,.268.878v0.072H60.807L60.8,50.049a1.672,1.672,0,0,1,.381-0.916,1,1,0,0,1,.787-0.358A0.978,0.978,0,0,1,62.791,49.121Zm2.552-2.13v1.176H64.55v0.658h0.794v2.959a1.4,1.4,0,0,0,.328,1.025,1.193,1.193,0,0,0,.881.327,1.55,1.55,0,0,0,.392-0.052,0.814,0.814,0,0,0,.3-0.133l-0.125-.608a1.33,1.33,0,0,1-.162.043,0.864,0.864,0,0,1-.175.02,0.533,0.533,0,0,1-.385-0.14,0.652,0.652,0,0,1-.145-0.482V48.824H67.2V48.166H66.253V46.991H65.343Zm3.812,1.176H68.246V53.04h0.909V48.166Zm0-2.153H68.246v0.905h0.909V46.013Zm1.4,2.153V53.04h0.909V49.423a1.209,1.209,0,0,1,.464-0.462A1.438,1.438,0,0,1,72.64,48.8a1.06,1.06,0,0,1,.8.27,1.3,1.3,0,0,1,.261.914V53.04h0.909V49.963a2,2,0,0,0-.443-1.426,1.652,1.652,0,0,0-1.251-.462,1.7,1.7,0,0,0-.856.214,1.793,1.793,0,0,0-.625.6l-0.065-.725H70.554Zm5.21,2.621a2.649,2.649,0,0,0,.515,1.7,1.724,1.724,0,0,0,1.428.646,1.865,1.865,0,0,0,.789-0.158,1.6,1.6,0,0,0,.586-0.464v0.554a1.2,1.2,0,0,1-.3.9,1.346,1.346,0,0,1-.967.3,3.338,3.338,0,0,1-.731-0.083,2.673,2.673,0,0,1-.635-0.218l-0.138.689a3.089,3.089,0,0,0,.736.264,3.453,3.453,0,0,0,.778.1,2.332,2.332,0,0,0,1.611-.5,1.836,1.836,0,0,0,.558-1.439v-4.9H79.267l-0.111.635a1.668,1.668,0,0,0-.6-0.538,1.788,1.788,0,0,0-.835-0.187,1.666,1.666,0,0,0-1.438.721,3.194,3.194,0,0,0-.515,1.9v0.095Zm0.909-.095a2.667,2.667,0,0,1,.312-1.369,1.041,1.041,0,0,1,.962-0.527,1.221,1.221,0,0,1,.678.182,1.39,1.39,0,0,1,.457.493v2.243a1.394,1.394,0,0,1-.457.516,1.224,1.224,0,0,1-.688.182,1.082,1.082,0,0,1-.955-0.446,2.032,2.032,0,0,1-.309-1.18V50.693Z"/>
    </g>
  </g>
</svg>
