<svg id="icon" xmlns="http://www.w3.org/2000/svg" width="178" height="122" viewBox="0 0 178 122">
  <defs>
    <style>
      .cls-1, .cls-10 {
        fill: #eef3fe;
      }

      .cls-1, .cls-11, .cls-13, .cls-2, .cls-3, .cls-4, .cls-5, .cls-6, .cls-7, .cls-8, .cls-9 {
        fill-rule: evenodd;
      }

      .cls-2 {
        fill: #193151;
      }

      .cls-3 {
        fill: #fbe3c5;
      }

      .cls-5 {
        fill: #0a1c35;
      }

      .cls-6 {
        fill: #b5ccfa;
      }

      .cls-7 {
        fill: #38e7ab;
      }

      .cls-8 {
        fill: #51f4bc;
      }

      .cls-12, .cls-9 {
        fill: #fff;
        stroke: #e3e3e3;
        stroke-linejoin: round;
        stroke-width: 1px;
      }

      .cls-11 {
        fill: #343439;
      }

      .cls-13 {
        fill: #3be2a9;
      }
    </style>
  </defs>
  <path class="cls-1" d="M19,75.019c0.518-12.348,3.106-22.638,28.987-30.87S81.739,32.287,94.68,24.569c10.426-6.394,42.473-5.832,57.974,15.435,10.784,14.8,10.007,34.037-2.07,47.334-10.26,11.3-31.5,20.432-52.8,24.7-21.692,4.344-37.893,1.057-53.939-5.117S18.655,89.768,19,75.019Z"/>
  <g id="illustrator">
    <path class="cls-2" d="M131.467,98.631a18.39,18.39,0,0,1,1.039,2.7,8.27,8.27,0,0,0,2,2.792c0.449,0.682,2.612,4.723-1.87,4.385s-0.243-.01-0.243-0.01-1.837,1.109-4.4-2.986a15.128,15.128,0,0,1-.606-2.935c-0.079-1.4-.166-3.478-0.14-3.564A38.019,38.019,0,0,1,131.467,98.631Z"/>
    <path class="cls-3" d="M113.658,31.052s-7.733,4.168-11.324,4.993a8.8,8.8,0,0,1-6.171-1.407s-6.6-3.316-7.957-4.3a2.578,2.578,0,0,1-2.372.2c-3.3-1.806-1.1-3.3-1.1-3.3s4.714-1.726,5.8-.357c1.4,1.769,6.576,2.905,9.321,3.668,0,0,6.735-1.768,9.079-4.411C108.934,26.145,113.957,29.667,113.658,31.052Z"/>
    <path class="cls-2" d="M120.424,101.963s0.383,3.41-.587,3.715a3.327,3.327,0,0,1-2.5,1.437c-0.407.577-6.08,2.387-8.068,1.3,0.068-.258-1.6-1.533-0.337-3.072,0,0,5.823-2.591,6.183-4.334Z"/>
    <g id="Group_10_copy" data-name="Group 10 copy">
      <path class="cls-3" d="M121.318,16.722a1.036,1.036,0,0,1-1,1.079s0.036,1.831-.93,2.314a18.075,18.075,0,0,1-4.875,1.37,10.143,10.143,0,0,0,.586,2.152c-1.5,3.857,4.479,2.76,8.084-.343A3.677,3.677,0,0,1,122,20.559C121.807,18.972,121.241,18.247,121.318,16.722Z"/>
      <g>
        <path class="cls-4" d="M121.9,20.183a6.325,6.325,0,0,0,.58-2.353,10.725,10.725,0,0,0-1.29-3.9,2.386,2.386,0,0,0-1.35-.905,16.571,16.571,0,0,1-4.367-1.192s-4.2-.989-4.725,2.288c0,0,2.478-2.844,4.812-1.377,0,0,1.259.545,2.008,3.55,0.09,0.292.56,1.029,1.175-.293,0,0,1.218-2.789,2.127-1.811C121.27,14.82,121,19.02,121.9,20.183Z"/>
        <path class="cls-3" d="M120.781,18.087a4.163,4.163,0,0,1-.93,2.292,10.177,10.177,0,0,1-3.629,1.724l-2.007.651c-0.292.11-1.739,0.618-1.807-.862a5.935,5.935,0,0,0-.8-2.336,4,4,0,0,1-.406-3.063,2.976,2.976,0,0,0-.5-1.675,1.357,1.357,0,0,1,.781-1.453c0.7-.553,4.483-3.524,6.207,2.969,0.67,2,2.224-5.075,3.6-1.376C121.53,17.185,121.468,17.84,120.781,18.087Z"/>
        <path class="cls-2" d="M111.3,12.693s0.09-7.565,7.341-6.213a5.7,5.7,0,0,1,4.8,4.6c0.8,3.082-1.05,6.636-1.05,6.636a12.835,12.835,0,0,0-1.706-4.191c-0.131-.172-0.1-0.029-0.239-0.092a12.171,12.171,0,0,1-2.945-.753C115.613,12.221,113.493,11.009,111.3,12.693Z"/>
        <path class="cls-5" d="M107.364,10.7c5.07-3.682,8.429.047,9.083,2.2-0.469-.495-4.126-1.733-5.62,1.339a29.5,29.5,0,0,0-3.573-1.892,0.809,0.809,0,0,1-.489-0.938A1.268,1.268,0,0,1,107.364,10.7Z"/>
      </g>
    </g>
    <path class="cls-6" d="M111,46c0,9.931,2,55,2,55,1.281,1.1,7,1,7,1,1.368,0,1.269-18.53,1.269-18.53,0.063-1.829-.046-16.193-0.046-16.193a2.513,2.513,0,0,1,.529-1.072,1.645,1.645,0,0,0,1.082.287c-0.056,1.124,2.661,17.636,2.661,17.636C125.54,86.755,127,101,127,101h6l-0.268-59.454Z"/>
    <path class="cls-7" d="M104.534,28.345A20.237,20.237,0,0,1,110.1,24.9s3.141-.194,4.677-1.511a3.13,3.13,0,0,0,2.484,1.681s3.883,0.96,5.182-1.976l2.713,0.808c3.049,0.908,8.246,2.1,7.846,5.1V60H111V34a24.969,24.969,0,0,1-3.166,2.045C107.077,34.957,106.126,28.445,104.534,28.345Z"/>
    <path class="cls-3" d="M126.534,37.145s2.455,3.754,2.2,11a20.725,20.725,0,0,1-2.2,11S125.881,59.413,126,61c0,0,.04,2.992,3.834,2.545,0.576-.939.533-2.286,1.1-3.3s0.673-.511.88-1.242c2.678-9.44,4.213-12.208.526-23.09Z"/>
    <path class="cls-8" d="M133.294,37.9s-5.823.882-6.544,0.648c0.01-.034-0.953-4.936-1.316-6.907-1.541-6.63,7.391-7.2,8.065-1.9C133.5,29.75,133.566,37.459,133.294,37.9Z"/>
  </g>
  <g id="_3" data-name="3">
    <path class="cls-9" d="M99.005,92.852h12.9s6.907,4.6,1.936,15.282c0,0-1,1.915-10.967,1.8H95.135s-3.362-6.392-3.226-7.116S99.005,92.852,99.005,92.852Z"/>
    <path class="cls-9" d="M45,30H98s6,0.047,6,8l0.037,65.89s1.286,5.722,5.963,6.11H50s-9,.519-9-10L40,36S39.229,30,45,30Z"/>
    <path id="Task" class="cls-4" d="M52.433,38H47.008v0.83h2.279v7.024h0.868V38.832h2.279V38Zm0.073,3.344a1.973,1.973,0,0,1,.34-0.167,3.257,3.257,0,0,1,.408-0.127q0.214-.052.418-0.081a2.722,2.722,0,0,1,.382-0.029,1.123,1.123,0,0,1,.836.247,1.267,1.267,0,0,1,.23.864q0,0.269-.031.606a1.9,1.9,0,0,0-.288-0.023H54.514a6.049,6.049,0,0,0-1.051.084,2.485,2.485,0,0,0-.815.281,1.4,1.4,0,0,0-.528.527,1.649,1.649,0,0,0-.188.825,1.724,1.724,0,0,0,.12.662,1.494,1.494,0,0,0,.329.5,1.433,1.433,0,0,0,.5.32,1.7,1.7,0,0,0,.622.112,2.029,2.029,0,0,0,1.056-.275A1.524,1.524,0,0,0,54.9,45.4a1.843,1.843,0,0,0,.235-0.309h0.052l0.22,0.785h0.617a3.946,3.946,0,0,1-.115-0.684q-0.031-.37-0.031-0.785,0-.572.031-1.212t0.031-1.313a3.254,3.254,0,0,0-.057-0.606,1.457,1.457,0,0,0-.23-0.556,1.232,1.232,0,0,0-.5-0.41,2.046,2.046,0,0,0-.873-0.157,4.832,4.832,0,0,0-1.1.123,2.893,2.893,0,0,0-.925.381Zm0.554,3.563a0.858,0.858,0,0,1-.261-0.645A0.746,0.746,0,0,1,52.94,43.8a0.962,0.962,0,0,1,.376-0.292,1.9,1.9,0,0,1,.544-0.146,5,5,0,0,1,.632-0.039q0.146,0,.3.006t0.3,0.017v0.931a1.339,1.339,0,0,1-.439.589,1.476,1.476,0,0,1-.4.213,1.515,1.515,0,0,1-.523.084A0.923,0.923,0,0,1,53.061,44.909Zm6.46,0.107a1.334,1.334,0,0,1-.742.191,2.559,2.559,0,0,1-.784-0.123,2.947,2.947,0,0,1-.627-0.269l-0.251.763a3.065,3.065,0,0,0,.7.292,3.617,3.617,0,0,0,1.014.123,2.252,2.252,0,0,0,.8-0.129,1.632,1.632,0,0,0,.57-0.353,1.375,1.375,0,0,0,.34-0.539,2.026,2.026,0,0,0,.11-0.673,1.549,1.549,0,0,0-.188-0.813A1.754,1.754,0,0,0,60,42.973a2.538,2.538,0,0,0-.606-0.325q-0.329-.123-0.606-0.252a1.991,1.991,0,0,1-.465-0.292,0.568,0.568,0,0,1-.188-0.454,0.7,0.7,0,0,1,.214-0.584,1.09,1.09,0,0,1,.674-0.168,2.686,2.686,0,0,1,.727.1,3.145,3.145,0,0,1,.58.219l0.2-.741a3.51,3.51,0,0,0-.664-0.252,3.575,3.575,0,0,0-.946-0.107,1.747,1.747,0,0,0-1.192.376,1.5,1.5,0,0,0-.429,1.184,1.435,1.435,0,0,0,.188.785,1.623,1.623,0,0,0,.465.477,2.756,2.756,0,0,0,.606.3q0.329,0.118.606,0.247a1.59,1.59,0,0,1,.465.32,0.719,0.719,0,0,1,.188.527A0.755,0.755,0,0,1,59.52,45.015Zm5.456,0.842h1.035l-1.746-2.536-0.523-.449,0.429-.37,1.6-2.256H64.8l-1.62,2.379-0.429.157V38H61.914v7.855H62.75V43.332h0.481Z"/>
    <g>
      <rect id="Rounded_Rectangle_601" data-name="Rounded Rectangle 601" class="cls-10" x="48" y="53" width="12" height="11" rx="1" ry="1"/>
      <path id="Meeting" class="cls-11" d="M64.217,55.519H62.985V62.81h0.937V57.167l0.029-.005,2.16,5.649h0.652l2.1-5.468,0.029,0V62.81h0.937V55.519H68.662l-2.213,5.924H66.42Zm10.326,7.2a2.238,2.238,0,0,0,.728-0.473L74.9,61.609a1.848,1.848,0,0,1-.616.393,2.251,2.251,0,0,1-.835.143,1.176,1.176,0,0,1-1.047-.508,2.327,2.327,0,0,1-.343-1.325l0.014-.025h3.293V59.766a2.886,2.886,0,0,0-.516-1.8,1.826,1.826,0,0,0-1.549-.676,1.968,1.968,0,0,0-1.563.764,2.9,2.9,0,0,0-.64,1.93v0.22a2.968,2.968,0,0,0,.621,1.963,2.127,2.127,0,0,0,1.73.746A2.772,2.772,0,0,0,74.543,62.723Zm-0.385-4.269a1.637,1.637,0,0,1,.276.977v0.08H72.112l-0.01-.025a1.937,1.937,0,0,1,.393-1.019,1,1,0,0,1,.811-0.4A0.977,0.977,0,0,1,74.158,58.454Zm5.487,4.269a2.238,2.238,0,0,0,.728-0.473l-0.366-.641A1.848,1.848,0,0,1,79.39,62a2.252,2.252,0,0,1-.835.143,1.176,1.176,0,0,1-1.047-.508,2.327,2.327,0,0,1-.343-1.325l0.014-.025h3.293V59.766a2.886,2.886,0,0,0-.516-1.8,1.826,1.826,0,0,0-1.549-.676,1.967,1.967,0,0,0-1.563.764,2.9,2.9,0,0,0-.64,1.93v0.22a2.968,2.968,0,0,0,.621,1.963,2.127,2.127,0,0,0,1.73.746A2.773,2.773,0,0,0,79.644,62.723Zm-0.386-4.269a1.637,1.637,0,0,1,.276.977v0.08H77.213l-0.01-.025a1.938,1.938,0,0,1,.393-1.019,1,1,0,0,1,.811-0.4A0.977,0.977,0,0,1,79.259,58.454Zm2.632-2.369v1.307H81.072v0.731H81.89v3.29a1.631,1.631,0,0,0,.338,1.139,1.181,1.181,0,0,0,.909.363,1.489,1.489,0,0,0,.4-0.058,0.811,0.811,0,0,0,.309-0.148l-0.129-.676a1.289,1.289,0,0,1-.166.047,0.827,0.827,0,0,1-.181.023,0.527,0.527,0,0,1-.4-0.155,0.763,0.763,0,0,1-.15-0.536v-3.29H83.8V57.392H82.828V56.085H81.89Zm3.93,1.307H84.884V62.81h0.937V57.392Zm0-2.394H84.884V56h0.937V55Zm1.442,2.394V62.81H88.2V58.789a1.3,1.3,0,0,1,.478-0.513,1.4,1.4,0,0,1,.735-0.183,1.046,1.046,0,0,1,.821.3A1.52,1.52,0,0,1,90.5,59.41v3.4h0.937V59.39a2.333,2.333,0,0,0-.457-1.585,1.636,1.636,0,0,0-1.29-.513,1.654,1.654,0,0,0-.883.238,1.919,1.919,0,0,0-.645.669L88.1,57.392H87.263Zm5.372,2.914a3.106,3.106,0,0,0,.531,1.89,1.728,1.728,0,0,0,1.473.719,1.8,1.8,0,0,0,.814-0.175,1.679,1.679,0,0,0,.6-0.516V62.84a1.4,1.4,0,0,1-.312,1,1.323,1.323,0,0,1-1,.328,3.2,3.2,0,0,1-.754-0.093,2.625,2.625,0,0,1-.654-0.243L93.2,64.6a3.042,3.042,0,0,0,.759.293,3.322,3.322,0,0,0,.8.108,2.291,2.291,0,0,0,1.661-.558,2.127,2.127,0,0,0,.576-1.6V57.392H96.247l-0.114.706a1.769,1.769,0,0,0-.623-0.6,1.734,1.734,0,0,0-.861-0.208,1.681,1.681,0,0,0-1.482.8,3.759,3.759,0,0,0-.531,2.108v0.105Zm0.937-.105a3.155,3.155,0,0,1,.321-1.522,1.058,1.058,0,0,1,.992-0.586,1.191,1.191,0,0,1,.7.2,1.507,1.507,0,0,1,.471.548v2.494a1.519,1.519,0,0,1-.471.573,1.194,1.194,0,0,1-.709.2,1.089,1.089,0,0,1-.985-0.5,2.4,2.4,0,0,1-.319-1.312V60.2Z"/>
    </g>
    <g id="Group_18_copy" data-name="Group 18 copy">
      <rect id="Rounded_Rectangle_601-2" data-name="Rounded Rectangle 601" class="cls-10" x="48" y="72" width="12" height="11" rx="1" ry="1"/>
      <path id="Call" class="cls-11" d="M67.258,79.538a1.735,1.735,0,0,1-.425,1.241,1.569,1.569,0,0,1-1.2.449,1.433,1.433,0,0,1-1.24-.675,2.915,2.915,0,0,1-.462-1.686V77.543a2.9,2.9,0,0,1,.462-1.675,1.433,1.433,0,0,1,1.24-.675,1.564,1.564,0,0,1,1.2.452,1.722,1.722,0,0,1,.425,1.229H68.15l0.009-.031a2.294,2.294,0,0,0-.67-1.769,2.55,2.55,0,0,0-1.854-.668,2.345,2.345,0,0,0-1.9.891A3.433,3.433,0,0,0,63,77.553v1.315a3.423,3.423,0,0,0,.733,2.254,2.347,2.347,0,0,0,1.9.888,2.488,2.488,0,0,0,1.844-.7,2.306,2.306,0,0,0,.679-1.741l-0.009-.031H67.258ZM73.333,81.9a3.123,3.123,0,0,1-.1-0.538A5.557,5.557,0,0,1,73.2,80.8V78.152a1.745,1.745,0,0,0-.528-1.368,2.01,2.01,0,0,0-1.4-.475,2.061,2.061,0,0,0-1.431.5,1.351,1.351,0,0,0-.521,1.1l0.009,0.03,0.882-.01a0.751,0.751,0,0,1,.278-0.584,1.07,1.07,0,0,1,.731-0.244,1.029,1.029,0,0,1,.774.282,1.051,1.051,0,0,1,.274.764v0.543H71.263a2.617,2.617,0,0,0-1.606.444,1.453,1.453,0,0,0-.592,1.231,1.686,1.686,0,0,0,.417,1.211,1.6,1.6,0,0,0,1.215.439,1.639,1.639,0,0,0,.9-0.266,2.235,2.235,0,0,0,.677-0.663,3.453,3.453,0,0,0,.031.383q0.026,0.19.073,0.439h0.957Zm-3.127-.944a0.784,0.784,0,0,1-.212-0.579,0.936,0.936,0,0,1,.337-0.716,1.29,1.29,0,0,1,.9-0.3h1.042v0.894a1.3,1.3,0,0,1-.528.64,1.568,1.568,0,0,1-.91.279A0.848,0.848,0,0,1,70.206,80.96Zm5.349-6.975H74.626V81.9h0.929v-7.92Zm2.434,0H77.059V81.9h0.929v-7.92Z"/>
      <rect id="Rounded_Rectangle_601_copy_2" data-name="Rounded Rectangle 601 copy 2" class="cls-12" x="48" y="90" width="12" height="11" rx="1" ry="1"/>
      <path id="Forma_1" data-name="Forma 1" class="cls-13" d="M56.906,74.182L52.023,79.4,50.049,77.29a0.593,0.593,0,0,0-.878,0,0.7,0.7,0,0,0,0,.938l2.413,2.577a0.593,0.593,0,0,0,.878,0v0l5.32-5.684a0.7,0.7,0,0,0,0-.938A0.593,0.593,0,0,0,56.906,74.182Z"/>
      <path id="Forma_1_copy_2" data-name="Forma 1 copy 2" class="cls-13" d="M56.906,55.182L52.023,60.4,50.049,58.29a0.593,0.593,0,0,0-.878,0,0.7,0.7,0,0,0,0,.938l2.413,2.577a0.593,0.593,0,0,0,.878,0v0l5.32-5.684a0.7,0.7,0,0,0,0-.938A0.593,0.593,0,0,0,56.906,55.182Z"/>
      <path id="Email" class="cls-11" d="M66.673,95.686H63.9V93.3h3.2V92.521h-4.11v7.36h4.161V99.1H63.9V96.469h2.774V95.686ZM68.1,94.412v5.47h0.914V95.832a1.1,1.1,0,0,1,1.1-.713,0.879,0.879,0,0,1,.754.356,1.916,1.916,0,0,1,.262,1.125v3.281H72.05V96.368a1.614,1.614,0,0,1,.341-0.895,0.933,0.933,0,0,1,.758-0.354,0.9,0.9,0,0,1,.761.336,1.944,1.944,0,0,1,.255,1.145v3.281h0.914V96.611a2.79,2.79,0,0,0-.445-1.726,1.451,1.451,0,0,0-1.211-.574,1.544,1.544,0,0,0-.907.27,1.988,1.988,0,0,0-.629.74,1.518,1.518,0,0,0-.541-0.758,1.458,1.458,0,0,0-.86-0.253,1.694,1.694,0,0,0-1.5.819l-0.065-.718H68.1Zm12.331,5.47a3.143,3.143,0,0,1-.1-0.536A5.568,5.568,0,0,1,80.3,98.78V96.146a1.748,1.748,0,0,0-.52-1.362,1.962,1.962,0,0,0-1.373-.473,2.013,2.013,0,0,0-1.408.5,1.352,1.352,0,0,0-.513,1.092l0.009,0.03,0.868-.01a0.751,0.751,0,0,1,.274-0.581,1.043,1.043,0,0,1,.719-0.243,1,1,0,0,1,.761.281,1.054,1.054,0,0,1,.269.761v0.541H78.4a2.551,2.551,0,0,0-1.58.442,1.453,1.453,0,0,0-.582,1.226,1.692,1.692,0,0,0,.411,1.206,1.56,1.56,0,0,0,1.194.437,1.6,1.6,0,0,0,.884-0.265,2.21,2.21,0,0,0,.666-0.66,3.469,3.469,0,0,0,.03.382q0.026,0.19.072,0.437h0.942Zm-3.076-.94a0.786,0.786,0,0,1-.209-0.576,0.937,0.937,0,0,1,.332-0.713,1.259,1.259,0,0,1,.884-0.3h1.025v0.89a1.294,1.294,0,0,1-.52.637,1.529,1.529,0,0,1-.9.278A0.828,0.828,0,0,1,77.357,98.941Zm5.261-4.529H81.7v5.47h0.914v-5.47Zm0-2.416H81.7v1.016h0.914V92Zm2.394,0H84.1v7.886h0.914V92Z"/>
    </g>
  </g>
</svg>
