<svg xmlns="http://www.w3.org/2000/svg" width="25" height="26" viewBox="0 0 25 26">
  <metadata><?xpacket begin="﻿" id="W5M0MpCehiHzreSzNTczkc9d"?>
<x:xmpmeta xmlns:x="adobe:ns:meta/" x:xmptk="Adobe XMP Core 5.6-c142 79.160924, 2017/07/13-01:06:39        ">
   <rdf:RDF xmlns:rdf="http://www.w3.org/1999/02/22-rdf-syntax-ns#">
      <rdf:Description rdf:about=""/>
   </rdf:RDF>
</x:xmpmeta>
                                                                                                    
                                                                                                    
                                                                                                    
                                                                                                    
                                                                                                    
                                                                                                    
                                                                                                    
                                                                                                    
                                                                                                    
                                                                                                    
                                                                                                    
                                                                                                    
                                                                                                    
                                                                                                    
                                                                                                    
                                                                                                    
                                                                                                    
                                                                                                    
                                                                                                    
                                                                                                    
                           
<?xpacket end="w"?></metadata>
<defs>
    <style>
      .cls-1 {
        fill: #273352;
        fill-rule: evenodd;
      }
    </style>
  </defs>
  <path class="cls-1" d="M22.958,11.448a9.377,9.377,0,0,1-.178,1.139c0,0.045-.023.089-0.023,0.134-1.159,5.016-9.274,12.7-9.615,13.034A0.985,0.985,0,0,1,12.5,26a0.88,0.88,0,0,1-.636-0.246c-0.341-.314-8.5-8.017-9.661-13.146,0-.067-0.023-0.112-0.023-0.157-0.067-.329-0.117-0.663-0.151-1l2.9-.01a7.639,7.639,0,0,0,6.094,6.636,2.948,2.948,0,0,1-.476-2.026,5.9,5.9,0,1,1,3.586.1c-0.609.158-.7-0.785-0.7-0.785v-5.4H16V8.1H8.989V9.962h2.564v5.994a2.124,2.124,0,0,0,2.137,2.11,4.243,4.243,0,0,0,.586-0.017,7.637,7.637,0,0,0,5.952-6.6h2.729ZM20.221,9.762a7.705,7.705,0,0,0-15.284,0L2,9.768A10.523,10.523,0,0,1,22.99,9.761H20.221Z"/>
</svg>
