<svg id="_1-Header" data-name="1-Header" xmlns="http://www.w3.org/2000/svg" width="30" height="21" viewBox="0 0 30 21">
  <metadata><?xpacket begin="﻿" id="W5M0MpCehiHzreSzNTczkc9d"?>
<x:xmpmeta xmlns:x="adobe:ns:meta/" x:xmptk="Adobe XMP Core 5.6-c142 79.160924, 2017/07/13-01:06:39        ">
   <rdf:RDF xmlns:rdf="http://www.w3.org/1999/02/22-rdf-syntax-ns#">
      <rdf:Description rdf:about=""/>
   </rdf:RDF>
</x:xmpmeta>
                                                                                                    
                                                                                                    
                                                                                                    
                                                                                                    
                                                                                                    
                                                                                                    
                                                                                                    
                                                                                                    
                                                                                                    
                                                                                                    
                                                                                                    
                                                                                                    
                                                                                                    
                                                                                                    
                                                                                                    
                                                                                                    
                                                                                                    
                                                                                                    
                                                                                                    
                                                                                                    
                           
<?xpacket end="w"?></metadata>
<defs>
    <style>
      .cls-1 {
        fill-opacity: 0;
        stroke: #212121;
        stroke-linejoin: round;
        stroke-width: 2px;
      }

      .cls-2 {
        fill: #212121;
      }

      .cls-2, .cls-3 {
        fill-rule: evenodd;
      }

      .cls-3 {
        fill: #11518e;
      }
    </style>
  </defs>
  <circle class="cls-1" cx="1109.5" cy="10.5" r="18.5"/>
  <path class="cls-2" d="M1114.76,12.744a1.083,1.083,0,0,0-1.64,0c-0.38.381-.76,0.762-1.14,1.15a0.231,0.231,0,0,1-.32.059c-0.24-.136-0.51-0.246-0.75-0.394a11.826,11.826,0,0,1-2.86-2.617,6.973,6.973,0,0,1-1.03-1.65,0.24,0.24,0,0,1,.06-0.3c0.38-.371.76-0.753,1.13-1.134a1.09,1.09,0,0,0,0-1.683c-0.3-.3-0.6-0.6-0.9-0.9s-0.61-.624-0.92-0.93a1.091,1.091,0,0,0-1.64,0c-0.39.381-.76,0.772-1.15,1.147a1.857,1.857,0,0,0-.59,1.263,5.491,5.491,0,0,0,.41,2.3,14.019,14.019,0,0,0,2.48,4.138,15.31,15.31,0,0,0,5.07,3.982,7.334,7.334,0,0,0,2.81.821,2.062,2.062,0,0,0,1.77-.675c0.33-.368.7-0.7,1.05-1.056a1.106,1.106,0,0,0,0-1.673C1115.99,13.972,1115.38,13.357,1114.76,12.744Z"/>
  <g id="Button">
    <g id="Free_Trial" data-name="Free Trial">
      <rect id="Rounded_Rectangle_1" data-name="Rounded Rectangle 1" class="cls-1" x="1158" y="-8" width="129" height="37"/>
    </g>
  </g>
  <path id="F_copy_23" data-name="F copy 23" class="cls-3" d="M2,20.988H12.933s0.315-.963.39-1.188Zm0.571-2.012H13.419l0.294-1.155Zm0.571-2.013,10.572,0.065L14.1,15.84ZM14.1,15.048l0.391-1.98h8.59l0.781-3.96h-8.59l0.781-4.356h9.371L26.6,0H10.279L7.857,15.048H14.1Z"/>
</svg>
