<svg id="icon" xmlns="http://www.w3.org/2000/svg" width="181" height="122" viewBox="0 0 181 122">
  <defs>
    <style>
      .cls-1 {
        fill: #eef3fe;
      }

      .cls-1, .cls-13, .cls-14, .cls-3, .cls-4, .cls-5, .cls-7, .cls-8, .cls-9 {
        fill-rule: evenodd;
      }

      .cls-2, .cls-8 {
        fill: #fff;
        stroke: #e3e3e3;
        stroke-linejoin: round;
        stroke-width: 1px;
      }

      .cls-3 {
        fill: #565657;
      }

      .cls-4 {
        opacity: 0.05;
      }

      .cls-5 {
        fill: #343439;
      }

      .cls-6 {
        fill: #e3e3e3;
      }

      .cls-7 {
        fill: #6493ff;
      }

      .cls-10, .cls-9 {
        fill: #dee8ea;
      }

      .cls-11 {
        fill: #ffd64d;
      }

      .cls-12 {
        fill: #86abff;
      }

      .cls-13 {
        fill: #e9ca4c;
      }

      .cls-14 {
        fill: #e2bf2f;
      }
    </style>
  </defs>
  <path class="cls-1" d="M19,66.019c0.518-12.348,3.106-22.638,28.987-30.87S81.739,23.287,94.68,15.569C105.106,9.175,137.153,9.737,152.654,31c10.784,14.8,10.007,34.037-2.07,47.334-10.26,11.3-31.5,20.432-52.8,24.7-21.692,4.344-37.893,1.057-53.939-5.117S18.655,80.768,19,66.019Z"/>
  <g id="icon-2" data-name="icon">
    <rect id="Rounded_Rectangle_593" data-name="Rounded Rectangle 593" class="cls-2" x="47" y="13" width="74" height="92" rx="5" ry="5"/>
    <g id="bra">
      <g id="_1_copy_5" data-name="1 copy 5">
        <path id="_1234" data-name="#1234" class="cls-3" d="M56.976,48.324h0.645l0.365-1.619H58.66l0.15-.62H58.127l0.29-1.27h0.711l0.15-.62h-0.72l0.355-1.531H58.267L57.912,44.2H56.93l0.355-1.531H56.64L56.284,44.2h-0.7l-0.131.62h0.692l-0.29,1.27H55.116l-0.131.62h0.729l-0.365,1.619h0.645l0.365-1.619h0.982Zm-0.187-3.509h0.982l-0.29,1.27H56.5Zm4.039,4.071h3.32V48.169H62.867V41.986H62.531l-2.057,1.648,0.355,0.494,1.029-.766,0.374-.456-0.093.572v4.691H60.829v0.717Zm8.145-5.907a1.494,1.494,0,0,0-.327-0.528,1.459,1.459,0,0,0-.524-0.344,1.937,1.937,0,0,0-.711-0.121,2.774,2.774,0,0,0-.963.165,2.4,2.4,0,0,0-.776.456l0.309,0.552a2.68,2.68,0,0,1,.58-0.344,1.682,1.682,0,0,1,.692-0.15,0.975,0.975,0,0,1,.795.315,1.2,1.2,0,0,1,.262.79,2.772,2.772,0,0,1-.15.863,5.842,5.842,0,0,1-.4.921,10.343,10.343,0,0,1-.552.916q-0.3.451-.617,0.853t-0.6.732q-0.29.33-.5,0.553v0.281h3.722V48.169H67.178l-0.6.107V48.237l0.458-.417q0.365-.465.729-0.984a10.77,10.77,0,0,0,.659-1.061,6.946,6.946,0,0,0,.477-1.081,3.267,3.267,0,0,0,.182-1.052A1.911,1.911,0,0,0,68.974,42.979Zm2.567,5.273a2.485,2.485,0,0,1-.51-0.179l-0.2.688a3.077,3.077,0,0,0,.589.174,3.852,3.852,0,0,0,.757.068,2.593,2.593,0,0,0,.87-0.145,2.082,2.082,0,0,0,.715-0.422,1.981,1.981,0,0,0,.482-0.683,2.308,2.308,0,0,0,.178-0.931,2.184,2.184,0,0,0-.131-0.78,1.762,1.762,0,0,0-.365-0.591,1.576,1.576,0,0,0-.552-0.378,1.934,1.934,0,0,0-.692-0.141L72.368,45V44.981L72.7,44.7l1.487-2.316V42.1H70.844v0.717H72.7l0.608-.1-0.43.426L71.526,45.3v0.281h0.692a1.6,1.6,0,0,1,1.071.33,1.25,1.25,0,0,1,.388,1.008,1.434,1.434,0,0,1-.112.572,1.363,1.363,0,0,1-.308.451,1.29,1.29,0,0,1-.468.286,1.736,1.736,0,0,1-.589.1A2.753,2.753,0,0,1,71.54,48.252Zm8.467-2.127H78.9V42H78.4l-3.1,4.488V46.8h2.88v2.084H78.9V46.8h1.1V46.124Zm-1.833,0H76.8l-0.654.078,0.449-.475,1.319-1.851,0.327-.659h0.028l-0.093.795v2.113Z"/>
        <path id="_1235" data-name="#1235" class="cls-3" d="M56.949,69.324h0.636l0.36-1.619h0.664l0.148-.62H58.083l0.286-1.27h0.7l0.148-.62h-0.71l0.35-1.531H58.221L57.871,65.2H56.9l0.35-1.531H56.617L56.266,65.2H55.575l-0.129.62h0.682l-0.286,1.27H55.114l-0.129.62H55.7l-0.36,1.619h0.636l0.36-1.619h0.968Zm-0.184-3.509h0.968l-0.286,1.27H56.479Zm3.983,4.071H64.02V69.169H62.757V62.986H62.425L60.4,64.633l0.35,0.494,1.014-.766,0.369-.456-0.092.572v4.691H60.747v0.717Zm8.03-5.907a1.5,1.5,0,0,0-.323-0.528,1.437,1.437,0,0,0-.516-0.344,1.886,1.886,0,0,0-.7-0.121,2.7,2.7,0,0,0-.95.165,2.36,2.36,0,0,0-.765.456l0.3,0.552a2.63,2.63,0,0,1,.572-0.344,1.639,1.639,0,0,1,.682-0.15,0.954,0.954,0,0,1,.784.315,1.206,1.206,0,0,1,.258.79,2.807,2.807,0,0,1-.148.863,5.885,5.885,0,0,1-.392.921,10.368,10.368,0,0,1-.544.916q-0.3.451-.608,0.853t-0.595.732q-0.286.33-.489,0.553v0.281h3.669V69.169h-2.01l-0.59.107V69.237l0.452-.417q0.36-.465.719-0.984a10.8,10.8,0,0,0,.65-1.061,6.984,6.984,0,0,0,.47-1.081,3.308,3.308,0,0,0,.18-1.052A1.935,1.935,0,0,0,68.778,63.979Zm2.531,5.273a2.431,2.431,0,0,1-.5-0.179l-0.194.688a3,3,0,0,0,.581.174A3.746,3.746,0,0,0,71.94,70a2.524,2.524,0,0,0,.857-0.145,2.047,2.047,0,0,0,.705-0.422,1.98,1.98,0,0,0,.475-0.683,2.336,2.336,0,0,0,.175-0.93,2.211,2.211,0,0,0-.129-0.78,1.767,1.767,0,0,0-.359-0.591,1.555,1.555,0,0,0-.544-0.378,1.884,1.884,0,0,0-.682-0.141L72.124,66V65.981l0.323-.281,1.466-2.316V63.1H70.622v0.717h1.826l0.6-.1-0.424.426L71.295,66.3v0.281h0.682a1.567,1.567,0,0,1,1.056.329,1.259,1.259,0,0,1,.383,1.008,1.453,1.453,0,0,1-.111.572,1.364,1.364,0,0,1-.3.451,1.268,1.268,0,0,1-.461.286,1.69,1.69,0,0,1-.581.1A2.678,2.678,0,0,1,71.308,69.252Zm4.877,0.029a2.226,2.226,0,0,1-.456-0.131l-0.194.659a2.724,2.724,0,0,0,.535.145,4.28,4.28,0,0,0,.7.048,2.551,2.551,0,0,0,.867-0.145,1.948,1.948,0,0,0,1.18-1.129,2.5,2.5,0,0,0,.175-0.964,2.028,2.028,0,0,0-.525-1.5,1.98,1.98,0,0,0-1.438-.533l-0.4.019V63.819h2.185V63.1H75.941v3.354l0.775-.049a1.689,1.689,0,0,1,1.129.349,1.31,1.31,0,0,1,.41,1.056,1.385,1.385,0,0,1-1.466,1.512A3.512,3.512,0,0,1,76.186,69.281Z"/>
        <path id="_1236" data-name="#1236" class="cls-3" d="M56.92,91.324h0.627L57.9,89.706h0.654l0.145-.62H58.038l0.282-1.27h0.69l0.145-.62h-0.7L58.8,85.664H58.174L57.829,87.2H56.875l0.345-1.531H56.593L56.248,87.2H55.567l-0.127.62h0.672l-0.282,1.27H55.112l-0.127.62h0.709l-0.354,1.619h0.627l0.354-1.619h0.954Zm-0.182-3.509h0.954l-0.282,1.27H56.457Zm3.925,4.071h3.225V91.169H62.643V84.986H62.316l-2,1.648,0.345,0.494,1-.766,0.363-.456-0.091.572v4.691H60.663v0.717Zm7.913-5.907a1.5,1.5,0,0,0-.318-0.528,1.414,1.414,0,0,0-.509-0.344,1.834,1.834,0,0,0-.69-0.121,2.626,2.626,0,0,0-.936.165,2.318,2.318,0,0,0-.754.456l0.3,0.552a2.587,2.587,0,0,1,.563-0.344,1.6,1.6,0,0,1,.672-0.15,0.934,0.934,0,0,1,.772.315,1.218,1.218,0,0,1,.254.79,2.844,2.844,0,0,1-.145.863,5.937,5.937,0,0,1-.386.921,10.419,10.419,0,0,1-.536.916q-0.3.451-.6,0.853t-0.586.732q-0.282.33-.481,0.553v0.281h3.616V91.169h-1.98l-0.581.107V91.237l0.445-.417q0.354-.465.709-0.984a10.839,10.839,0,0,0,.641-1.061,7.039,7.039,0,0,0,.463-1.081,3.352,3.352,0,0,0,.177-1.052A1.961,1.961,0,0,0,68.576,85.979Zm2.494,5.273a2.371,2.371,0,0,1-.5-0.179l-0.191.688a2.927,2.927,0,0,0,.572.174,3.639,3.639,0,0,0,.736.068,2.454,2.454,0,0,0,.845-0.145,2.01,2.01,0,0,0,.695-0.422,1.98,1.98,0,0,0,.468-0.683,2.366,2.366,0,0,0,.173-0.93,2.24,2.24,0,0,0-.127-0.78,1.772,1.772,0,0,0-.354-0.591,1.53,1.53,0,0,0-.536-0.378,1.833,1.833,0,0,0-.672-0.141L71.873,88V87.981l0.318-.281,1.444-2.317V85.1H70.392v0.717h1.8l0.591-.1-0.418.426L71.056,88.3v0.281h0.672a1.529,1.529,0,0,1,1.04.329,1.269,1.269,0,0,1,.377,1.008,1.472,1.472,0,0,1-.109.572,1.365,1.365,0,0,1-.3.451,1.247,1.247,0,0,1-.454.286,1.644,1.644,0,0,1-.572.1A2.6,2.6,0,0,1,71.069,91.252Zm7.449-2.874a1.738,1.738,0,0,0-1.34-.523,1.551,1.551,0,0,0-.845.218,1.388,1.388,0,0,0-.491.48,4.269,4.269,0,0,1,.273-1.018,3.625,3.625,0,0,1,.513-0.892,3.027,3.027,0,0,1,.731-0.669,2.565,2.565,0,0,1,.927-0.368l-0.154-.62a2.935,2.935,0,0,0-1.213.47,3.568,3.568,0,0,0-.968.974,4.874,4.874,0,0,0-.64,1.41,6.412,6.412,0,0,0-.232,1.769,3.413,3.413,0,0,0,.141,1.027,2.1,2.1,0,0,0,.4.751,1.7,1.7,0,0,0,.627.46A2.065,2.065,0,0,0,77.07,92a1.934,1.934,0,0,0,.827-0.17,1.727,1.727,0,0,0,.609-0.465,2.06,2.06,0,0,0,.372-0.688A2.706,2.706,0,0,0,79,89.842,2.069,2.069,0,0,0,78.519,88.378Zm-0.354,2.1a1.337,1.337,0,0,1-.241.446,1.141,1.141,0,0,1-.368.291,1.052,1.052,0,0,1-.477.107,1.106,1.106,0,0,1-.568-0.141,1.3,1.3,0,0,1-.4-0.368,1.57,1.57,0,0,1-.241-0.519,2.292,2.292,0,0,1-.077-0.591V89.512a1.732,1.732,0,0,1,.018-0.223,1.3,1.3,0,0,1,.45-0.523,1.277,1.277,0,0,1,.768-0.233,1.156,1.156,0,0,1,.927.349,1.554,1.554,0,0,1,.3,1.037A1.785,1.785,0,0,1,78.164,90.481Z"/>
      </g>
      <path class="cls-4" d="M54,55h64v1H54V55Zm0,22h64v1H54V77Z"/>
      <path id="Work_Orders" data-name="Work Orders" class="cls-5" d="M55.08,24.531H54.011L55.773,31.9h0.884l1.481-5.111,0.105-.663h0.03l0.11,0.663L59.845,31.9h0.884L62.5,24.531H61.421l-1.044,4.813-0.136.987h-0.03l-0.171-.987-1.305-4.813H57.766l-1.3,4.813-0.171.972-0.03-.005-0.126-.967Zm7.928,4.691a3.01,3.01,0,0,0,.655,2,2.416,2.416,0,0,0,3.557,0,3.015,3.015,0,0,0,.653-2V29.111a3.02,3.02,0,0,0-.655-2,2.406,2.406,0,0,0-3.557,0,3.03,3.03,0,0,0-.653,2v0.111ZM64,29.111a2.618,2.618,0,0,1,.364-1.432,1.19,1.19,0,0,1,1.072-.572,1.207,1.207,0,0,1,1.082.572,2.591,2.591,0,0,1,.369,1.432v0.111a2.6,2.6,0,0,1-.367,1.437,1.309,1.309,0,0,1-2.156,0A2.613,2.613,0,0,1,64,29.223V29.111Zm7.792-2.733a1.424,1.424,0,0,0-.166-0.038,1.213,1.213,0,0,0-.211-0.018,1.325,1.325,0,0,0-.781.238,1.9,1.9,0,0,0-.57.663l-0.1-.8H69.083V31.9h0.989V27.988a1.2,1.2,0,0,1,.414-0.526,1.127,1.127,0,0,1,.66-0.187l0.507,0.03Zm4.2,5.521h1.17l-2.144-2.95,1.973-2.525H75.806L74.174,28.58h-0.5V24H72.688V31.9h0.989V29.374h0.507Zm10.237-4.337a3.167,3.167,0,0,0-.831-2.244,2.811,2.811,0,0,0-2.156-.893,2.661,2.661,0,0,0-2.081.9,3.238,3.238,0,0,0-.8,2.242v1.311a3.227,3.227,0,0,0,.8,2.242,2.668,2.668,0,0,0,2.081.891,2.814,2.814,0,0,0,2.156-.891,3.158,3.158,0,0,0,.831-2.242V27.563ZM85.24,28.873a2.52,2.52,0,0,1-.54,1.673,1.8,1.8,0,0,1-1.459.645,1.67,1.67,0,0,1-1.378-.648,2.6,2.6,0,0,1-.515-1.67V27.552a2.586,2.586,0,0,1,.515-1.66,1.67,1.67,0,0,1,1.378-.648,1.8,1.8,0,0,1,1.456.648,2.5,2.5,0,0,1,.542,1.66v1.321Zm4.986-2.5a1.427,1.427,0,0,0-.166-0.038,1.215,1.215,0,0,0-.211-0.018,1.325,1.325,0,0,0-.781.238,1.9,1.9,0,0,0-.57.663l-0.1-.8H87.519V31.9h0.989V27.988a1.2,1.2,0,0,1,.414-0.526,1.127,1.127,0,0,1,.66-0.187L90.09,27.3ZM90.8,29.369a3.035,3.035,0,0,0,.562,1.91,1.859,1.859,0,0,0,1.556.726,1.953,1.953,0,0,0,.909-0.2,1.768,1.768,0,0,0,.658-0.6L94.633,31.9h0.758V24H94.4v3.011a1.738,1.738,0,0,0-.63-0.516,1.932,1.932,0,0,0-.846-0.177,1.8,1.8,0,0,0-1.569.81,3.676,3.676,0,0,0-.56,2.131v0.106Zm0.989-.106a3.076,3.076,0,0,1,.339-1.539,1.129,1.129,0,0,1,1.052-.592,1.3,1.3,0,0,1,.73.2,1.532,1.532,0,0,1,.495.539v2.556a1.508,1.508,0,0,1-.492.567,1.3,1.3,0,0,1-.743.2,1.171,1.171,0,0,1-1.044-.5,2.338,2.338,0,0,1-.336-1.329V29.263Zm8.48,2.548a2.38,2.38,0,0,0,.768-0.478l-0.387-.648a1.961,1.961,0,0,1-.65.4,2.471,2.471,0,0,1-.881.144,1.259,1.259,0,0,1-1.1-.514,2.277,2.277,0,0,1-.361-1.339l0.015-.025h3.474V28.823a2.825,2.825,0,0,0-.545-1.817,1.963,1.963,0,0,0-1.634-.683,2.111,2.111,0,0,0-1.649.772,2.855,2.855,0,0,0-.675,1.951v0.223a2.916,2.916,0,0,0,.655,1.984,2.289,2.289,0,0,0,1.825.754A3.043,3.043,0,0,0,100.267,31.811ZM99.86,27.5a1.6,1.6,0,0,1,.291.987v0.081H97.7l-0.01-.025a1.912,1.912,0,0,1,.414-1.03,1.072,1.072,0,0,1,.856-0.4A1.049,1.049,0,0,1,99.86,27.5Zm5.1-1.119a1.456,1.456,0,0,0-.166-0.038,1.212,1.212,0,0,0-.211-0.018,1.325,1.325,0,0,0-.78.238,1.9,1.9,0,0,0-.57.663l-0.1-.8H102.25V31.9h0.989V27.988a1.2,1.2,0,0,1,.414-0.526,1.126,1.126,0,0,1,.66-0.187l0.507,0.03ZM108.709,31a1.345,1.345,0,0,1-.826.225,1.509,1.509,0,0,1-.859-0.245,0.923,0.923,0,0,1-.391-0.777h-0.944l-0.01.03a1.522,1.522,0,0,0,.567,1.24,2.375,2.375,0,0,0,1.637.531,2.4,2.4,0,0,0,1.529-.461A1.445,1.445,0,0,0,110,30.356a1.218,1.218,0,0,0-.517-1.017,3.882,3.882,0,0,0-1.517-.6,2.46,2.46,0,0,1-.921-0.324,0.6,0.6,0,0,1-.223-0.5,0.746,0.746,0,0,1,.258-0.567,1.12,1.12,0,0,1,.781-0.238,1.1,1.1,0,0,1,.781.289,0.867,0.867,0,0,1,.308.643h0.944l0.01-.03a1.453,1.453,0,0,0-.547-1.179,2.477,2.477,0,0,0-2.96-.03,1.45,1.45,0,0,0-.565,1.144,1.179,1.179,0,0,0,.515,1,3.928,3.928,0,0,0,1.474.582,2.388,2.388,0,0,1,.941.364,0.666,0.666,0,0,1,.249.536A0.691,0.691,0,0,1,108.709,31Z"/>
      <rect id="Rounded_Rectangle_598_copy_2" data-name="Rounded Rectangle 598 copy 2" class="cls-6" x="85" y="46" width="22" height="2" rx="1" ry="1"/>
      <rect id="Rounded_Rectangle_598_copy_3" data-name="Rounded Rectangle 598 copy 3" class="cls-6" x="85" y="42" width="29" height="2" rx="1" ry="1"/>
      <rect id="Rounded_Rectangle_598_copy_4" data-name="Rounded Rectangle 598 copy 4" class="cls-6" x="85" y="68" width="22" height="2" rx="1" ry="1"/>
      <rect id="Rounded_Rectangle_598_copy_4-2" data-name="Rounded Rectangle 598 copy 4" class="cls-6" x="85" y="64" width="29" height="2" rx="1" ry="1"/>
      <rect id="Rounded_Rectangle_598_copy_5" data-name="Rounded Rectangle 598 copy 5" class="cls-6" x="85" y="89" width="22" height="2" rx="1" ry="1"/>
      <rect id="Rounded_Rectangle_598_copy_5-2" data-name="Rounded Rectangle 598 copy 5" class="cls-6" x="85" y="85" width="29" height="2" rx="1" ry="1"/>
    </g>
  </g>
  <g id="Calener">
    <rect id="Rounded_Rectangle_601" data-name="Rounded Rectangle 601" class="cls-2" x="112" y="70" width="44" height="40" rx="6" ry="6"/>
    <path class="cls-7" d="M112,78V74a3.627,3.627,0,0,1,4-4h36s4,0,4,4v4H112Z"/>
    <path id="Rounded_Rectangle_600" data-name="Rounded Rectangle 600" class="cls-8" d="M120.541,67c1.344,0,1.5,1.27,1.459,2v3c0.039,0.734.055,2-1.5,2-1.362,0-1.537-1.263-1.5-2V69C118.991,68.266,119.326,67,120.541,67Zm12.956-.053c1.542,0,1.606,1.317,1.5,2.056v3c-0.037.734-.245,2.045-1.46,2.045A1.6,1.6,0,0,1,132,72V69C132.037,68.266,131.971,66.944,133.5,66.944Zm13.046,0.025c1.559,0,1.494,1.3,1.457,2.032v3c-0.037.734,0.1,2.04-1.438,2.04-1.685,0-1.563-1.3-1.562-2.04V69C144.961,68.261,144.921,66.968,146.543,66.968Z"/>
    <path id="Rounded_Rectangle_601_copy" data-name="Rounded Rectangle 601 copy" class="cls-9" d="M119,82h3a0.926,0.926,0,0,1,1,1v3a0.888,0.888,0,0,1-1,1h-3a0.913,0.913,0,0,1-1-1V83A0.93,0.93,0,0,1,119,82Zm9.935,15.9"/>
    <rect id="Rounded_Rectangle_601_copy_2" data-name="Rounded Rectangle 601 copy 2" class="cls-10" x="145" y="82" width="5" height="5" rx="1" ry="1"/>
    <rect id="Rounded_Rectangle_601_copy_3" data-name="Rounded Rectangle 601 copy 3" class="cls-10" x="127" y="82" width="5" height="5" rx="1" ry="1"/>
    <rect id="Rounded_Rectangle_601_copy_5" data-name="Rounded Rectangle 601 copy 5" class="cls-11" x="136" y="82" width="5" height="5" rx="1" ry="1"/>
    <path id="Rounded_Rectangle_601_copy_4" data-name="Rounded Rectangle 601 copy 4" class="cls-9" d="M119,91h3a0.926,0.926,0,0,1,1,1v3a0.888,0.888,0,0,1-1,1h-3a0.913,0.913,0,0,1-1-1V92A0.93,0.93,0,0,1,119,91Zm9.935,15.9"/>
    <rect id="Rounded_Rectangle_601_copy_4-2" data-name="Rounded Rectangle 601 copy 4" class="cls-10" x="145" y="91" width="5" height="5" rx="1" ry="1"/>
    <rect id="Rounded_Rectangle_601_copy_4-3" data-name="Rounded Rectangle 601 copy 4" class="cls-10" x="127" y="91" width="5" height="5" rx="1" ry="1"/>
    <rect id="Rounded_Rectangle_601_copy_6" data-name="Rounded Rectangle 601 copy 6" class="cls-10" x="136" y="91" width="5" height="5" rx="1" ry="1"/>
    <path id="Rounded_Rectangle_601_copy_7" data-name="Rounded Rectangle 601 copy 7" class="cls-9" d="M119,100h3a0.926,0.926,0,0,1,1,1v3a0.888,0.888,0,0,1-1,1h-3a0.913,0.913,0,0,1-1-1v-3A0.929,0.929,0,0,1,119,100Zm9.935,15.9"/>
    <rect id="Rounded_Rectangle_601_copy_7-2" data-name="Rounded Rectangle 601 copy 7" class="cls-12" x="127" y="100" width="5" height="5" rx="1" ry="1"/>
    <rect id="Rounded_Rectangle_601_copy_7-3" data-name="Rounded Rectangle 601 copy 7" class="cls-10" x="136" y="100" width="5" height="5" rx="1" ry="1"/>
  </g>
  <g id="bell">
    <path id="Forma_1_copy_8" data-name="Forma 1 copy 8" class="cls-13" d="M147.53,52.484a18.827,18.827,0,0,1,.289-5.184,24.932,24.932,0,0,1,1.342-5.5,9.41,9.41,0,0,0,.493-4.689,7.9,7.9,0,0,0-2.268-4.254,2.879,2.879,0,0,0-.09-1.888,2.4,2.4,0,0,0-1.192-1.328,2.373,2.373,0,0,0-1.768-.131,2.912,2.912,0,0,0-1.541,1.084,7.875,7.875,0,0,0-4.767.786,9.458,9.458,0,0,0-3.408,3.252,24.679,24.679,0,0,1-3.559,4.411,19.052,19.052,0,0,1-3.924,3.392,0.844,0.844,0,0,0-.318.332,0.771,0.771,0,0,0-.083.369,1.179,1.179,0,0,0,.847.973l18.338,9.039a1.185,1.185,0,0,0,1.3.085,1.034,1.034,0,0,0,.236-0.309A0.8,0.8,0,0,0,147.53,52.484Z"/>
    <path id="Forma_1_copy_9" data-name="Forma 1 copy 9" class="cls-14" d="M133.185,51.58a2.31,2.31,0,0,0,1.226,1.782,2.252,2.252,0,0,0,2.144-.12,4.076,4.076,0,0,0,1.795-1.88l-4.767-2.35A4,4,0,0,0,133.185,51.58Z"/>
  </g>
</svg>
