<svg id="icon" xmlns="http://www.w3.org/2000/svg" xmlns:xlink="http://www.w3.org/1999/xlink" width="181" height="122" viewBox="0 0 181 122">
  <defs>
    <style>
      .cls-1 {
        fill: #eef3fe;
      }

      .cls-1, .cls-10, .cls-11, .cls-12, .cls-13, .cls-14, .cls-15, .cls-16, .cls-17, .cls-18, .cls-19, .cls-2, .cls-3, .cls-4, .cls-5, .cls-7, .cls-8, .cls-9 {
        fill-rule: evenodd;
      }

      .cls-2 {
        fill: #fbdcb5;
      }

      .cls-3 {
        fill: #fbe3c5;
      }

      .cls-4 {
        fill: #193151;
      }

      .cls-5, .cls-6 {
        fill: #5387ff;
      }

      .cls-7 {
        fill: #faad27;
      }

      .cls-8 {
        fill: #4a80fe;
      }

      .cls-9 {
        fill: #f08207;
      }

      .cls-10 {
        fill: #e6a33a;
      }

      .cls-11 {
        fill: #dea639;
      }

      .cls-12 {
        fill: #b5ccfa;
      }

      .cls-13, .cls-17 {
        fill: #777cdb;
      }

      .cls-14 {
        fill: #8388e4;
      }

      .cls-15 {
        fill: #a1a5eb;
        stroke: #8388e4;
        stroke-linejoin: round;
        stroke-width: 3px;
      }

      .cls-16 {
        fill: #fc9236;
      }

      .cls-17 {
        filter: url(#filter);
      }

      .cls-18 {
        fill: #51aafc;
      }

      .cls-19 {
        fill: #ddf0f2;
      }
    </style>
    <filter id="filter" x="95" y="100" width="38" height="10" filterUnits="userSpaceOnUse">
      <feOffset result="offset" dx="0.707" dy="0.707" in="SourceAlpha"/>
      <feGaussianBlur result="blur" stdDeviation="2"/>
      <feFlood result="flood" flood-color="#424ad3" flood-opacity="0.34"/>
      <feComposite result="composite" operator="in" in2="blur"/>
      <feBlend result="blend" in="SourceGraphic"/>
    </filter>
  </defs>
  <path class="cls-1" d="M19,68.019c0.518-12.348,3.106-22.638,28.987-30.87S81.739,25.287,94.68,17.569c10.426-6.394,42.473-5.832,57.974,15.435,10.784,14.8,10.007,34.037-2.07,47.334-10.26,11.3-31.5,20.432-52.8,24.7-21.692,4.344-37.893,1.057-53.939-5.117S18.655,82.768,19,68.019Z"/>
  <g id="_1" data-name="1">
    <g id="_1-2" data-name="1">
      <path class="cls-2" d="M83.613,25.7c0.415,1.121,2.683,3.611,3.944,3.555,3.506-.155,4.281.3,4.433,3.529,0.006,0.138.014,0.54,0.023,1.094a17.154,17.154,0,0,1-6.029,4.216H72.411a17.129,17.129,0,0,1-5.6-3.769c0-.7,0-1.213,0-1.364,0.12-3.076.732-3.7,3.5-3.686,0.286,0,.6-0.035.937-0.02,1.1,0.049,2.856-2.717,3.156-3.555A9.513,9.513,0,0,0,75,22h8A9.349,9.349,0,0,0,83.613,25.7Z"/>
      <path class="cls-3" d="M79.11,26.3l-0.066,0a3.935,3.935,0,0,1-1.64-.19A5.473,5.473,0,0,1,76.2,24.976a7.146,7.146,0,0,1-1.6-1.46,13.4,13.4,0,0,1-.364-2.561,23.068,23.068,0,0,1-.608-2.5c-0.05-.938.1,0.042,0.069-1.018a13.506,13.506,0,0,1,.068-2.62c0.485-2.745,3.963-3.589,6.353-3.24a6.038,6.038,0,0,1,3.117,1.354,3.068,3.068,0,0,1,1.022,1.87,13.5,13.5,0,0,1,.073,2.61c-0.031,1.057.124,0.073,0.074,1.008a23.554,23.554,0,0,1-.6,2.5,13.433,13.433,0,0,1-.357,2.555,7.233,7.233,0,0,1-1.586,1.473,5.615,5.615,0,0,1-1.2,1.153A3.686,3.686,0,0,1,79.11,26.3Z"/>
      <path class="cls-4" d="M74.99,14.647c-0.387.46-1.161,3.231-1.03,6.253-1.31-4.723-2.014-8.1.83-10.219,3.733-2.788,8.375-.576,8.605.074,2.742,1.506,1.789,5.742.965,9.484A12.8,12.8,0,0,0,82.99,14.4a0.7,0.7,0,0,0-.689-0.261C73.721,17.713,75.331,14.241,74.99,14.647Z"/>
      <path class="cls-5" d="M62.653,37.506C63.543,34.05,63.251,26.1,74,26a5.126,5.126,0,0,0,5,4c5.011,0,5-4,5-4s9.1-.212,10.923,4.9a41.849,41.849,0,0,1,1.49,6.276C97.283,42.06,91,36,91,36c-0.226.8,0,26,0,26H68V36S61.974,40.139,62.653,37.506Z"/>
      <rect id="Rounded_Rectangle_601" data-name="Rounded Rectangle 601" class="cls-6" x="76" y="34" width="2" height="1" rx="0.5" ry="0.5"/>
      <path class="cls-3" d="M94.611,76.625a4.687,4.687,0,0,1-.249-3.658A15.876,15.876,0,0,1,96,69h4s0.927,0.689,1.568,3.843c0.487,2.845-.953,3.806-1.568,4.157C99.033,77.668,95.826,78,94.611,76.625Z"/>
      <path class="cls-7" d="M83.668,41.295a0.184,0.184,0,0,0-.295.148v1.331a1.147,1.147,0,0,1-1.145,1.145H81.409a1.147,1.147,0,0,1-1.145-1.145V41.442a0.184,0.184,0,0,0-.295-0.148,3.11,3.11,0,0,0-.041,4.968,1.315,1.315,0,0,1,.518,1.046v9.949a1.372,1.372,0,0,0,2.744,0l0-9.951a1.315,1.315,0,0,1,.518-1.047A3.106,3.106,0,0,0,83.668,41.295Z"/>
      <path class="cls-3" d="M84.412,49.5c1.358,0.886,2.3,6.591-.4,7.2s-7.6-.8-7.6-0.8L76,51s3-.377,4.013-1.5C80.013,49.5,81.37,52.232,84.412,49.5Z"/>
      <path class="cls-8" d="M91.174,29.4c1.741-.879,3.652.121,5.15,3.883,1.9,4.77,3.775,14.481,4.927,21.8,1.369,8.7.062,10.818-.251,14.919H96a60.9,60.9,0,0,0-1-13,46.641,46.641,0,0,0-4-11C90.782,46.069,85.415,33.707,91.174,29.4Z"/>
      <path class="cls-8" d="M77,56H63s-4.442.413-3.188-4.9c1.077-5.406,3.6-20,3.6-20,0.075-.032,1.788-3.792,4.079-1.978,1.861,1.732,1.962,9.719.721,15.578,0,0-2.409,6.171,0,6.4C70.724,51.124,77,51,77,51v5h0Z"/>
      <path class="cls-9" d="M79,8c3.863,0,7,4.191,7,8H72C72,12.191,75.137,8,79,8Z"/>
      <path class="cls-10" d="M79,8c1.248,0.012,2,.212,2,1l-1,4H78L77,9C77,8.228,78.256,8,79,8Z"/>
      <path class="cls-11" d="M73,13H85a1.346,1.346,0,0,1,1,1.467A1.331,1.331,0,0,1,85,16H73s-1-.07-1-1.526C72,12.959,73,13,73,13Z"/>
    </g>
  </g>
  <g id="_2" data-name="2">
    <path class="cls-12" d="M68,62l1.4,44.716h4.8l5.042-36.292L83.8,105.916h4.8L91,62H68Z"/>
    <path class="cls-4" d="M88.6,105.116a4.083,4.083,0,0,0,0,2.4,5.249,5.249,0,0,0,1.025,1.812s2.028,3.826-1.526,3.6c-3.534-.225-0.192-0.008-0.192-0.008s-1.45.878-3.474-2.364a12.021,12.021,0,0,1-.478-2.323c-0.062-1.106-.151-3.114-0.155-3.117C83.746,105.071,88.6,105.116,88.6,105.116Z"/>
    <path class="cls-4" d="M74.2,105.116s0.913,2.609.22,3.014a2.624,2.624,0,0,1-1.67,1.547c-0.212.516-4.26,2.906-5.981,2.416,0.007-.21-1.5-0.9-0.8-2.311,0,0,4.026-3.019,4-4.428Z"/>
  </g>
  <g id="bag">
    <path class="cls-13" d="M120,113c0.957,0.055,4.216.564,6-1,2.984-3.253,2.951-6.247,0-10l-4,1Z"/>
    <path class="cls-14" d="M98,103l1.006,8.468S99.406,113.25,103,113h17s3.706,0.263,2.7-6.539A30.192,30.192,0,0,1,123,103H98Z"/>
    <path class="cls-15" d="M100,102l7-6h22l-3,6H100Z"/>
    <path id="Rounded_Rectangle_9" data-name="Rounded Rectangle 9" class="cls-16" d="M120.575,101.431l5.1-6.146a1.013,1.013,0,1,1,1.589,1.156l-5.1,6.146A1.013,1.013,0,1,1,120.575,101.431Z"/>
    <path class="cls-16" d="M101.955,99.772l5.307,2.319,3.063-.122-7.78-3.935Z"/>
    <path id="Rounded_Rectangle_7" data-name="Rounded Rectangle 7" class="cls-17" d="M97.648,102.013h29.692a0.923,0.923,0,0,1,.676,1.086,0.766,0.766,0,0,1-.676.917H97.648A0.831,0.831,0,0,1,97,103.107,1.1,1.1,0,0,1,97.648,102.013Z"/>
    <path class="cls-18" d="M98.5,100.351l4.129-6.375s1.489-.411,1.769,3.477a11.9,11.9,0,0,1-1.18,2.318,5.4,5.4,0,0,1-4.718,1.159"/>
    <path class="cls-19" d="M112.315,101.774l1.77-1.739s-1.46-3.96,1.769-3.477c0,0-1.239,2.632.59,2.9,0,0,2.447-.049,2.359-1.159a1.779,1.779,0,0,1-.59,2.318,19.532,19.532,0,0,1-2.359.579,5.647,5.647,0,0,0-1.729.774Z"/>
    <path id="Rounded_Rectangle_8" data-name="Rounded Rectangle 8" class="cls-19" d="M123.939,94.173l4.046,2.384a2.008,2.008,0,0,1,.709,2.782,2.084,2.084,0,0,1-2.831.7l-4.047-2.384a2.009,2.009,0,0,1-.709-2.783A2.085,2.085,0,0,1,123.939,94.173Z"/>
  </g>
</svg>
