<svg id="icon" xmlns="http://www.w3.org/2000/svg" width="181" height="122" viewBox="0 0 181 122">
  <defs>
    <style>
      .cls-1 {
        fill: #eef3fe;
      }

      .cls-1, .cls-3, .cls-4, .cls-5, .cls-8 {
        fill-rule: evenodd;
      }

      .cls-2, .cls-8 {
        fill: #fff;
      }

      .cls-2 {
        stroke: #e3e3e3;
        stroke-linejoin: round;
        stroke-width: 1px;
      }

      .cls-3 {
        fill: #565657;
      }

      .cls-4 {
        opacity: 0.05;
      }

      .cls-5 {
        fill: #343439;
      }

      .cls-6 {
        fill: #e3e3e3;
      }

      .cls-7 {
        fill: #32ba7c;
      }
    </style>
  </defs>
  <path class="cls-1" d="M19,68.019c0.518-12.348,3.106-22.638,28.987-30.87S81.739,25.287,94.68,17.569c10.426-6.394,42.473-5.832,57.974,15.435,10.784,14.8,10.007,34.037-2.07,47.334-10.26,11.3-31.5,20.432-52.8,24.7-21.692,4.344-37.893,1.057-53.939-5.117S18.655,82.768,19,68.019Z"/>
  <g id="icon-2" data-name="icon">
    <g id="bar">
      <rect id="Rounded_Rectangle_593" data-name="Rounded Rectangle 593" class="cls-2" x="50" y="16" width="74" height="92" rx="5" ry="5"/>
      <g id="bra">
        <g id="_1_copy_5" data-name="1 copy 5">
          <path id="_1234" data-name="#1234" class="cls-3" d="M59.976,51.324h0.645l0.365-1.619H61.66l0.15-.62H61.127l0.29-1.27h0.711l0.15-.62h-0.72l0.355-1.531H61.267L60.912,47.2H59.93l0.355-1.531H59.64L59.284,47.2h-0.7l-0.131.62h0.692l-0.29,1.27H58.116l-0.131.62h0.729l-0.365,1.619h0.645l0.365-1.619h0.982Zm-0.187-3.509h0.982l-0.29,1.27H59.5Zm4.039,4.071h3.32V51.169H65.867V44.986H65.531l-2.057,1.648,0.355,0.494,1.029-.766,0.374-.456-0.093.572v4.691H63.829v0.717Zm8.145-5.907a1.494,1.494,0,0,0-.327-0.528,1.459,1.459,0,0,0-.524-0.344,1.937,1.937,0,0,0-.711-0.121,2.774,2.774,0,0,0-.963.165,2.4,2.4,0,0,0-.776.456l0.309,0.552a2.68,2.68,0,0,1,.58-0.344,1.682,1.682,0,0,1,.692-0.15,0.975,0.975,0,0,1,.795.315,1.2,1.2,0,0,1,.262.79,2.772,2.772,0,0,1-.15.863,5.842,5.842,0,0,1-.4.921,10.343,10.343,0,0,1-.552.916q-0.3.451-.617,0.853t-0.6.732q-0.29.33-.5,0.553v0.281h3.722V51.169H70.178l-0.6.107V51.237l0.458-.417q0.365-.465.729-0.984a10.77,10.77,0,0,0,.659-1.061,6.946,6.946,0,0,0,.477-1.081,3.267,3.267,0,0,0,.182-1.052A1.911,1.911,0,0,0,71.974,45.979Zm2.567,5.273a2.485,2.485,0,0,1-.51-0.179l-0.2.688a3.077,3.077,0,0,0,.589.174,3.852,3.852,0,0,0,.757.068,2.593,2.593,0,0,0,.87-0.145,2.082,2.082,0,0,0,.715-0.422,1.981,1.981,0,0,0,.482-0.683,2.308,2.308,0,0,0,.178-0.931,2.184,2.184,0,0,0-.131-0.78,1.762,1.762,0,0,0-.365-0.591,1.576,1.576,0,0,0-.552-0.378,1.934,1.934,0,0,0-.692-0.141L75.368,48V47.981L75.7,47.7l1.487-2.316V45.1H73.844v0.717H75.7l0.608-.1-0.43.426L74.526,48.3v0.281h0.692a1.6,1.6,0,0,1,1.071.33,1.25,1.25,0,0,1,.388,1.008,1.434,1.434,0,0,1-.112.572,1.363,1.363,0,0,1-.308.451,1.29,1.29,0,0,1-.468.286,1.736,1.736,0,0,1-.589.1A2.753,2.753,0,0,1,74.54,51.252Zm8.467-2.127H81.9V45H81.4l-3.1,4.488V49.8h2.88v2.084H81.9V49.8h1.1V49.124Zm-1.833,0H79.8l-0.654.078,0.449-.475,1.319-1.851,0.327-.659h0.028l-0.093.795v2.113Z"/>
          <path id="_1235" data-name="#1235" class="cls-3" d="M59.949,72.324h0.636l0.36-1.619h0.664l0.148-.62H61.083l0.286-1.27h0.7l0.148-.62h-0.71l0.35-1.531H61.221L60.871,68.2H59.9l0.35-1.531H59.617L59.266,68.2H58.575l-0.129.62h0.682l-0.286,1.27H58.114l-0.129.62H58.7l-0.36,1.619h0.636l0.36-1.619h0.968Zm-0.184-3.509h0.968l-0.286,1.27H59.479Zm3.983,4.071H67.02V72.169H65.757V65.986H65.425L63.4,67.633l0.35,0.494,1.014-.766,0.369-.456-0.092.572v4.691H63.747v0.717Zm8.03-5.907a1.5,1.5,0,0,0-.323-0.528,1.437,1.437,0,0,0-.516-0.344,1.886,1.886,0,0,0-.7-0.121,2.7,2.7,0,0,0-.95.165,2.36,2.36,0,0,0-.765.456l0.3,0.552a2.63,2.63,0,0,1,.572-0.344,1.639,1.639,0,0,1,.682-0.15,0.954,0.954,0,0,1,.784.315,1.206,1.206,0,0,1,.258.79,2.807,2.807,0,0,1-.148.863,5.885,5.885,0,0,1-.392.921,10.368,10.368,0,0,1-.544.916q-0.3.451-.608,0.853t-0.595.732q-0.286.33-.489,0.553v0.281h3.669V72.169h-2.01l-0.59.107V72.237l0.452-.417q0.36-.465.719-0.984a10.8,10.8,0,0,0,.65-1.061,6.984,6.984,0,0,0,.47-1.081,3.308,3.308,0,0,0,.18-1.052A1.935,1.935,0,0,0,71.778,66.979Zm2.531,5.273a2.431,2.431,0,0,1-.5-0.179l-0.194.688a3,3,0,0,0,.581.174A3.746,3.746,0,0,0,74.94,73a2.524,2.524,0,0,0,.857-0.145,2.047,2.047,0,0,0,.705-0.422,1.98,1.98,0,0,0,.475-0.683,2.336,2.336,0,0,0,.175-0.93,2.211,2.211,0,0,0-.129-0.78,1.767,1.767,0,0,0-.359-0.591,1.555,1.555,0,0,0-.544-0.378,1.884,1.884,0,0,0-.682-0.141L75.124,69V68.981l0.323-.281,1.466-2.317V66.1H73.622v0.717h1.826l0.6-.1-0.424.426L74.295,69.3v0.281h0.682a1.567,1.567,0,0,1,1.056.329,1.259,1.259,0,0,1,.383,1.008,1.453,1.453,0,0,1-.111.572,1.364,1.364,0,0,1-.3.451,1.268,1.268,0,0,1-.461.286,1.69,1.69,0,0,1-.581.1A2.678,2.678,0,0,1,74.308,72.252Zm4.877,0.029a2.226,2.226,0,0,1-.456-0.131l-0.194.659a2.724,2.724,0,0,0,.535.145,4.28,4.28,0,0,0,.7.048,2.551,2.551,0,0,0,.867-0.145,1.948,1.948,0,0,0,1.18-1.129,2.5,2.5,0,0,0,.175-0.964,2.028,2.028,0,0,0-.525-1.5,1.98,1.98,0,0,0-1.438-.533l-0.4.019V66.819h2.185V66.1H78.941v3.353l0.775-.049a1.689,1.689,0,0,1,1.129.349,1.31,1.31,0,0,1,.41,1.056,1.385,1.385,0,0,1-1.466,1.512A3.512,3.512,0,0,1,79.186,72.281Z"/>
          <path id="_1236" data-name="#1236" class="cls-3" d="M59.92,94.324h0.627L60.9,92.706h0.654l0.145-.62H61.038l0.282-1.27h0.69l0.145-.62h-0.7L61.8,88.664H61.174L60.829,90.2H59.875l0.345-1.531H59.593L59.248,90.2H58.567l-0.127.62h0.672l-0.282,1.27H58.112l-0.127.62h0.709l-0.354,1.619h0.627l0.354-1.619h0.954Zm-0.182-3.509h0.954l-0.282,1.27H59.457Zm3.925,4.071h3.225V94.169H65.643V87.986H65.316l-2,1.648,0.345,0.494,1-.766,0.363-.456-0.091.572v4.691H63.663v0.717Zm7.913-5.907a1.5,1.5,0,0,0-.318-0.528,1.414,1.414,0,0,0-.509-0.344,1.834,1.834,0,0,0-.69-0.121,2.626,2.626,0,0,0-.936.165,2.318,2.318,0,0,0-.754.456l0.3,0.552a2.587,2.587,0,0,1,.563-0.344,1.6,1.6,0,0,1,.672-0.15,0.934,0.934,0,0,1,.772.315,1.218,1.218,0,0,1,.254.79,2.844,2.844,0,0,1-.145.863,5.937,5.937,0,0,1-.386.921,10.419,10.419,0,0,1-.536.916q-0.3.451-.6,0.853t-0.586.732q-0.282.33-.481,0.553v0.281h3.616V94.169h-1.98l-0.581.107V94.237l0.445-.417q0.354-.465.709-0.984a10.839,10.839,0,0,0,.641-1.061,7.039,7.039,0,0,0,.463-1.081,3.352,3.352,0,0,0,.177-1.052A1.961,1.961,0,0,0,71.576,88.979Zm2.494,5.273a2.371,2.371,0,0,1-.5-0.179l-0.191.688a2.927,2.927,0,0,0,.572.174,3.639,3.639,0,0,0,.736.068,2.454,2.454,0,0,0,.845-0.145,2.01,2.01,0,0,0,.695-0.422,1.98,1.98,0,0,0,.468-0.683,2.366,2.366,0,0,0,.173-0.93,2.24,2.24,0,0,0-.127-0.78,1.772,1.772,0,0,0-.354-0.591,1.53,1.53,0,0,0-.536-0.378,1.833,1.833,0,0,0-.672-0.141L74.873,91V90.981l0.318-.281,1.444-2.317V88.1H73.392v0.717h1.8l0.591-.1-0.418.426L74.056,91.3v0.281h0.672a1.529,1.529,0,0,1,1.04.329,1.269,1.269,0,0,1,.377,1.008,1.472,1.472,0,0,1-.109.572,1.365,1.365,0,0,1-.3.451,1.247,1.247,0,0,1-.454.286,1.644,1.644,0,0,1-.572.1A2.6,2.6,0,0,1,74.069,94.252Zm7.449-2.874a1.738,1.738,0,0,0-1.34-.523,1.551,1.551,0,0,0-.845.218,1.388,1.388,0,0,0-.491.48,4.269,4.269,0,0,1,.273-1.018,3.625,3.625,0,0,1,.513-0.892,3.027,3.027,0,0,1,.731-0.669,2.565,2.565,0,0,1,.927-0.368l-0.154-.62a2.935,2.935,0,0,0-1.213.47,3.568,3.568,0,0,0-.968.974,4.874,4.874,0,0,0-.64,1.41,6.412,6.412,0,0,0-.232,1.769,3.413,3.413,0,0,0,.141,1.027,2.1,2.1,0,0,0,.4.751,1.7,1.7,0,0,0,.627.46A2.065,2.065,0,0,0,80.07,95a1.934,1.934,0,0,0,.827-0.17,1.727,1.727,0,0,0,.609-0.465,2.06,2.06,0,0,0,.372-0.688A2.706,2.706,0,0,0,82,92.842,2.069,2.069,0,0,0,81.519,91.378Zm-0.354,2.1a1.337,1.337,0,0,1-.241.446,1.141,1.141,0,0,1-.368.291,1.052,1.052,0,0,1-.477.107,1.106,1.106,0,0,1-.568-0.141,1.3,1.3,0,0,1-.4-0.368,1.57,1.57,0,0,1-.241-0.519,2.292,2.292,0,0,1-.077-0.591V92.512a1.732,1.732,0,0,1,.018-0.223,1.3,1.3,0,0,1,.45-0.523,1.277,1.277,0,0,1,.768-0.233,1.156,1.156,0,0,1,.927.349,1.554,1.554,0,0,1,.3,1.037A1.785,1.785,0,0,1,81.164,93.481Z"/>
        </g>
        <path class="cls-4" d="M57,58h64v1H57V58Zm0,22h64v1H57V80Z"/>
        <path id="Work_Orders" data-name="Work Orders" class="cls-5" d="M59.061,27.531h-1.05L59.741,34.9h0.868l1.455-5.111,0.1-.663H62.2l0.108,0.663L63.741,34.9h0.868l1.736-7.368H65.289l-1.026,4.813-0.133.987H64.1l-0.168-.987-1.282-4.813H61.7l-1.272,4.813-0.168.972-0.03-.005-0.123-.967Zm7.786,4.691a3.046,3.046,0,0,0,.644,2,2.345,2.345,0,0,0,3.494,0,3.051,3.051,0,0,0,.641-2V32.111a3.056,3.056,0,0,0-.643-2,2.335,2.335,0,0,0-3.494,0,3.066,3.066,0,0,0-.641,2v0.111Zm0.971-.111a2.655,2.655,0,0,1,.358-1.432,1.164,1.164,0,0,1,1.053-.572,1.18,1.18,0,0,1,1.063.572,2.627,2.627,0,0,1,.362,1.432v0.111a2.636,2.636,0,0,1-.36,1.437,1.273,1.273,0,0,1-2.118,0,2.649,2.649,0,0,1-.358-1.437V32.111Zm7.653-2.733a1.383,1.383,0,0,0-.163-0.038,1.171,1.171,0,0,0-.207-0.018,1.285,1.285,0,0,0-.767.238,1.888,1.888,0,0,0-.56.663l-0.094-.8H72.814V34.9h0.972V30.988a1.2,1.2,0,0,1,.407-0.526,1.092,1.092,0,0,1,.648-0.187l0.5,0.03ZM79.6,34.9h1.149l-2.106-2.95,1.938-2.525H79.416l-1.6,2.156H77.326V27H76.354V34.9h0.971V32.374h0.5Zm10.054-4.337a3.2,3.2,0,0,0-.816-2.244,2.737,2.737,0,0,0-2.118-.893,2.592,2.592,0,0,0-2.044.9,3.274,3.274,0,0,0-.786,2.242v1.311a3.262,3.262,0,0,0,.786,2.242,2.6,2.6,0,0,0,2.044.891,2.74,2.74,0,0,0,2.118-.891,3.192,3.192,0,0,0,.816-2.242V30.563Zm-0.971,1.311a2.55,2.55,0,0,1-.53,1.673,1.757,1.757,0,0,1-1.433.645,1.629,1.629,0,0,1-1.354-.648,2.635,2.635,0,0,1-.505-1.67V30.552a2.619,2.619,0,0,1,.505-1.66,1.629,1.629,0,0,1,1.354-.648,1.756,1.756,0,0,1,1.43.648,2.528,2.528,0,0,1,.533,1.66v1.321Zm4.9-2.5a1.383,1.383,0,0,0-.163-0.038,1.171,1.171,0,0,0-.207-0.018,1.285,1.285,0,0,0-.767.238,1.888,1.888,0,0,0-.56.663l-0.094-.8H90.92V34.9h0.972V30.988a1.2,1.2,0,0,1,.407-0.526,1.092,1.092,0,0,1,.648-0.187l0.5,0.03Zm0.562,2.991a3.074,3.074,0,0,0,.552,1.91,1.813,1.813,0,0,0,1.529.726,1.889,1.889,0,0,0,.892-0.2,1.748,1.748,0,0,0,.646-0.6L97.908,34.9h0.745V27H97.681v3.011a1.714,1.714,0,0,0-.619-0.516,1.869,1.869,0,0,0-.831-0.177,1.758,1.758,0,0,0-1.541.81,3.726,3.726,0,0,0-.55,2.131v0.106Zm0.971-.106a3.122,3.122,0,0,1,.333-1.538,1.1,1.1,0,0,1,1.033-.592,1.26,1.26,0,0,1,.718.2,1.523,1.523,0,0,1,.486.539v2.556a1.5,1.5,0,0,1-.483.567,1.262,1.262,0,0,1-.73.2,1.144,1.144,0,0,1-1.026-.5,2.371,2.371,0,0,1-.33-1.328V32.263Zm8.328,2.548a2.323,2.323,0,0,0,.755-0.478l-0.38-.648a1.917,1.917,0,0,1-.638.4,2.394,2.394,0,0,1-.866.144,1.23,1.23,0,0,1-1.085-.514,2.313,2.313,0,0,1-.355-1.339l0.015-.025H104.3V31.823a2.864,2.864,0,0,0-.535-1.817,1.911,1.911,0,0,0-1.605-.683,2.06,2.06,0,0,0-1.62.772,2.888,2.888,0,0,0-.663,1.951v0.223a2.951,2.951,0,0,0,.644,1.984,2.228,2.228,0,0,0,1.792.754A2.932,2.932,0,0,0,103.44,34.811Zm-0.4-4.314a1.622,1.622,0,0,1,.286.987v0.081h-2.406l-0.01-.025a1.928,1.928,0,0,1,.407-1.03,1.044,1.044,0,0,1,.84-0.4A1.023,1.023,0,0,1,103.041,30.5Zm5.005-1.119a1.387,1.387,0,0,0-.163-0.038,1.175,1.175,0,0,0-.207-0.018,1.287,1.287,0,0,0-.767.238,1.883,1.883,0,0,0-.559.663l-0.094-.8h-0.868V34.9h0.972V30.988a1.192,1.192,0,0,1,.406-0.526,1.093,1.093,0,0,1,.649-0.187l0.5,0.03ZM111.732,34a1.3,1.3,0,0,1-.811.225,1.457,1.457,0,0,1-.843-0.245,0.929,0.929,0,0,1-.385-0.777h-0.927l-0.01.03a1.533,1.533,0,0,0,.557,1.24,2.688,2.688,0,0,0,3.109.071A1.455,1.455,0,0,0,113,33.356a1.225,1.225,0,0,0-.508-1.017,3.772,3.772,0,0,0-1.489-.6,2.388,2.388,0,0,1-.905-0.324,0.606,0.606,0,0,1-.22-0.5,0.752,0.752,0,0,1,.254-0.567,1.088,1.088,0,0,1,.767-0.238,1.068,1.068,0,0,1,.767.289,0.871,0.871,0,0,1,.3.643h0.927l0.01-.03a1.469,1.469,0,0,0-.537-1.179,2.4,2.4,0,0,0-2.907-.03,1.457,1.457,0,0,0-.555,1.144,1.184,1.184,0,0,0,.505,1,3.826,3.826,0,0,0,1.448.582,2.325,2.325,0,0,1,.924.364,0.671,0.671,0,0,1,.244.536A0.7,0.7,0,0,1,111.732,34Z"/>
        <rect id="Rounded_Rectangle_598_copy_2" data-name="Rounded Rectangle 598 copy 2" class="cls-6" x="88" y="49" width="22" height="2" rx="1" ry="1"/>
        <rect id="Rounded_Rectangle_598_copy_3" data-name="Rounded Rectangle 598 copy 3" class="cls-6" x="88" y="45" width="29" height="2" rx="1" ry="1"/>
        <rect id="Rounded_Rectangle_598_copy_4" data-name="Rounded Rectangle 598 copy 4" class="cls-6" x="88" y="71" width="22" height="2" rx="1" ry="1"/>
        <rect id="Rounded_Rectangle_598_copy_4-2" data-name="Rounded Rectangle 598 copy 4" class="cls-6" x="88" y="67" width="29" height="2" rx="1" ry="1"/>
        <rect id="Rounded_Rectangle_598_copy_5" data-name="Rounded Rectangle 598 copy 5" class="cls-6" x="88" y="92" width="22" height="2" rx="1" ry="1"/>
        <rect id="Rounded_Rectangle_598_copy_5-2" data-name="Rounded Rectangle 598 copy 5" class="cls-6" x="88" y="88" width="29" height="2" rx="1" ry="1"/>
      </g>
    </g>
    <g id="tick">
      <circle id="Forma_1" data-name="Forma 1" class="cls-7" cx="127.5" cy="62.5" r="17.5"/>
      <path id="Forma_1_copy_7" data-name="Forma 1 copy 7" class="cls-8" d="M137.666,58.134L127,69.585a1.358,1.358,0,0,1-1,.427,1.374,1.374,0,0,1-.833-0.279L118.5,64.644a1.232,1.232,0,0,1-.208-1.788,1.377,1.377,0,0,1,1.874-.2l5.679,4.334,9.829-10.548a1.377,1.377,0,0,1,1.882-.106A1.233,1.233,0,0,1,137.666,58.134Z"/>
    </g>
  </g>
</svg>
