<svg xmlns="http://www.w3.org/2000/svg" width="142" height="111" viewBox="0 0 142 111">
  <metadata><?xpacket begin="﻿" id="W5M0MpCehiHzreSzNTczkc9d"?>
<x:xmpmeta xmlns:x="adobe:ns:meta/" x:xmptk="Adobe XMP Core 5.6-c142 79.160924, 2017/07/13-01:06:39        ">
   <rdf:RDF xmlns:rdf="http://www.w3.org/1999/02/22-rdf-syntax-ns#">
      <rdf:Description rdf:about=""/>
   </rdf:RDF>
</x:xmpmeta>
                                                                                                    
                                                                                                    
                                                                                                    
                                                                                                    
                                                                                                    
                                                                                                    
                                                                                                    
                                                                                                    
                                                                                                    
                                                                                                    
                                                                                                    
                                                                                                    
                                                                                                    
                                                                                                    
                                                                                                    
                                                                                                    
                                                                                                    
                                                                                                    
                                                                                                    
                                                                                                    
                           
<?xpacket end="w"?></metadata>
<defs>
    <style>
      .cls-1 {
        fill: #eef3fe;
      }

      .cls-1, .cls-10, .cls-11, .cls-12, .cls-5, .cls-6, .cls-9 {
        fill-rule: evenodd;
      }

      .cls-2, .cls-5 {
        fill: #fff;
      }

      .cls-2 {
        stroke: #e3e3e3;
        stroke-linejoin: round;
        stroke-width: 1px;
      }

      .cls-3 {
        font-size: 9.99px;
        fill: #343439;
        font-family: Roboto;
      }

      .cls-4 {
        fill: #32ba7c;
      }

      .cls-6 {
        fill: #e3e3e3;
      }

      .cls-7 {
        fill: #d75a4a;
      }

      .cls-8 {
        fill: #efefef;
      }

      .cls-9 {
        fill: #b5ccfa;
      }

      .cls-10 {
        fill: #fbe3c5;
      }

      .cls-11 {
        fill: #5387ff;
      }

      .cls-12 {
        fill: #193151;
      }
    </style>
  </defs>
  <path class="cls-1" d="M0,67.019c0.518-12.348,3.106-22.638,28.987-30.87S62.739,24.287,75.68,16.569C86.106,10.175,118.153,10.737,133.654,32c10.784,14.8,10.007,34.037-2.07,47.334-10.26,11.3-31.5,20.432-52.8,24.7-21.692,4.344-37.893,1.057-53.939-5.117S-0.345,81.768,0,67.019Z"/>
  <rect id="Rounded_Rectangle_1327" data-name="Rounded Rectangle 1327" class="cls-2" x="21" width="79" height="91" rx="4" ry="4"/>
  <text id="Actions" class="cls-3" transform="translate(-133.721 17.997)">Actions</text>
  <circle class="cls-4" cx="35.5" cy="32.5" r="6.5"/>
  <path class="cls-5" d="M38.846,30.139a0.517,0.517,0,0,0-.707,0l-3.986,3.7-1.3-1.193a0.517,0.517,0,0,0-.707,0,0.46,0.46,0,0,0,0,.673L33.8,34.854a0.518,0.518,0,0,0,.707,0l4.339-4.041A0.461,0.461,0,0,0,38.846,30.139Z"/>
  <path id="Rounded_Rectangle_1270_copy" data-name="Rounded Rectangle 1270 copy" class="cls-6" d="M47,28H91a1,1,0,0,1,0,2H47A1,1,0,0,1,47,28Z"/>
  <path id="Rounded_Rectangle_1270_copy_2" data-name="Rounded Rectangle 1270 copy 2" class="cls-6" d="M47,35H74a1,1,0,0,1,0,2H47A1,1,0,0,1,47,35Z"/>
  <circle class="cls-7" cx="35.5" cy="53.5" r="6.5"/>
  <path class="cls-5" d="M36.154,53.5l1.71-1.71a0.463,0.463,0,1,0-.655-0.655l-1.71,1.71-1.71-1.71a0.463,0.463,0,0,0-.655.655l1.71,1.71-1.71,1.71a0.463,0.463,0,0,0,.655.655l1.71-1.71,1.71,1.71a0.463,0.463,0,1,0,.655-0.655Z"/>
  <path id="Rounded_Rectangle_1270_copy-2" data-name="Rounded Rectangle 1270 copy" class="cls-6" d="M47,49H85a1,1,0,1,1,0,2H47A1,1,0,1,1,47,49Z"/>
  <path id="Rounded_Rectangle_1270_copy_2-2" data-name="Rounded Rectangle 1270 copy 2" class="cls-6" d="M47,56H74a1,1,0,1,1,0,2H47A1,1,0,1,1,47,56Z"/>
  <rect id="Rounded_Rectangle_1328" data-name="Rounded Rectangle 1328" class="cls-8" x="29" y="69" width="63" height="10" rx="2" ry="2"/>
  <path class="cls-9" d="M100.02,106.694v-42.5l19.125-.425,0.85,42.5h-6.8s-1.833-27.662-3.4-31.025c0,0-1.956,9.134-2.55,14.45s-1.7,17-1.7,17H100.02Z"/>
  <path class="cls-10" d="M126.8,73.544c1.363,0.509,2.107-.543,2.55-1.7A5.113,5.113,0,0,0,128,67l-3-19h0a2.988,2.988,0,0,0-3.305,1.319c-1.275,1.947-.474,1.5-0.425,1.7,0,0,2.71,13.869,3.73,15.981a3.933,3.933,0,0,0-.746,5.52c0.286-.326.239-1.581,0.746-1.52A18.444,18.444,0,0,1,126.8,73.544Z"/>
  <path class="cls-10" d="M90.67,48.894c-1.5-2.317-4.25-10.2-4.25-10.2l-2.125-3.4s-0.866-2.179,0-3.4c0.377-.669,2.382.5,1.628-1.04-0.849-1.728-.931-4.22.5-1.935,0.794,1.27,1.921,2.667,1.7,4.25-0.013,0,.414-0.158,1.035-2.985,0,0,.934-1.626,1.273.513a15.626,15.626,0,0,1-1.458,5.872s1.883,5.768,3.825,7.225a12.444,12.444,0,0,1,2.771,3.132c0.029,0.013,1.325,2.181-.847,2.491C93.465,49.6,91.4,50.006,90.67,48.894Z"/>
  <path class="cls-11" d="M100,48V64h19V51s4.9,0.642,6.52-2.956c0.012,0-1.968-10.6-10.943-12.752-5.2-.822-8.6-0.253-10.732.427s-8.76,4.658-10.625,8.925a14.541,14.541,0,0,1,1.7,2.125c0.8,1.24,1.169,2.886,3.825,1.275C100.052,47.44,100.023,47.952,100,48Z"/>
  <path class="cls-10" d="M103.42,23.819s-1.64.466-.425,2.125A6.763,6.763,0,0,1,104,31s0.545,1.621,3.245,1.319L107,35s4.67,0.1,6,0a10.393,10.393,0,0,0-.23-1.831c-0.186-1.519-.425-7.225-0.425-7.225l-2.55-2.55h-4.25l-1.275.425h-0.85Z"/>
  <path class="cls-12" d="M104.27,23.394s-2.246-1.586-.425-2.975c0,0-1.6-1.052-1.7-2.125s0.477-1.55,2.125-1.275c0,0,5.329-1.4,9.35-.425a7.253,7.253,0,0,1,3.825,3.4,15.157,15.157,0,0,1,.425,5.525,12.9,12.9,0,0,1-2.975,6.8s-3.74,2.4-6.375,0c0,0-4.606-5.37-4.25-8.925"/>
  <path class="cls-12" d="M113.62,106.694v2.975s-0.082,1.324.85,1.275H125.1s2.891-.035.85-1.275-6.375-3.4-6.375-3.4h-5.95v0.425Z"/>
  <path id="Shape_8_copy" data-name="Shape 8 copy" class="cls-12" d="M105.545,106.694v2.975s0.083,1.324-.858,1.275H93.965s-2.917-.035-0.858-1.275,6.433-3.4,6.433-3.4h6v0.425Z"/>
</svg>
