<svg xmlns="http://www.w3.org/2000/svg" width="142" height="93" viewBox="0 0 142 93">
  <metadata><?xpacket begin="﻿" id="W5M0MpCehiHzreSzNTczkc9d"?>
<x:xmpmeta xmlns:x="adobe:ns:meta/" x:xmptk="Adobe XMP Core 5.6-c142 79.160924, 2017/07/13-01:06:39        ">
   <rdf:RDF xmlns:rdf="http://www.w3.org/1999/02/22-rdf-syntax-ns#">
      <rdf:Description rdf:about=""/>
   </rdf:RDF>
</x:xmpmeta>
                                                                                                    
                                                                                                    
                                                                                                    
                                                                                                    
                                                                                                    
                                                                                                    
                                                                                                    
                                                                                                    
                                                                                                    
                                                                                                    
                                                                                                    
                                                                                                    
                                                                                                    
                                                                                                    
                                                                                                    
                                                                                                    
                                                                                                    
                                                                                                    
                                                                                                    
                                                                                                    
                           
<?xpacket end="w"?></metadata>
<defs>
    <style>
      .cls-1 {
        fill: #eef3fe;
      }

      .cls-1, .cls-2, .cls-3 {
        fill-rule: evenodd;
      }

      .cls-2 {
        fill: #e3e3e3;
      }

      .cls-3 {
        fill: #fff;
      }

      .cls-4 {
        fill: #47dca0;
        stroke: #eef3fe;
        stroke-linejoin: round;
        stroke-width: 4px;
      }
    </style>
  </defs>
  <path class="cls-1" d="M0,55c0.517-12.344,3.1-22.63,28.942-30.86s33.7-11.859,46.62-19.573C85.973-1.824,117.97-1.262,133.447,20c10.768,14.791,9.992,34.026-2.067,47.318C121.136,78.608,99.931,87.741,78.664,92c-21.658,4.342-37.834,1.057-53.856-5.115S-0.345,69.745,0,55Z"/>
  <path id="Shape_703_copy" data-name="Shape 703 copy" class="cls-2" d="M37.941,81.973V4a2.7,2.7,0,0,1,3-3L82.791,1a1.821,1.821,0,0,1,1.376.62L104.34,22.846a1.706,1.706,0,0,1,.5,1.146V81.973a2.828,2.828,0,0,1-3,3H40.936A2.653,2.653,0,0,1,37.941,81.973Z"/>
  <path id="Shape_703_copy_2" data-name="Shape 703 copy 2" class="cls-3" d="M38.94,81.973V4a1.889,1.889,0,0,1,2-2H80.874V22.993a1.8,1.8,0,0,0,2,2h20.968V81.973a1.923,1.923,0,0,1-2,2H40.936A1.867,1.867,0,0,1,38.94,81.973Z"/>
  <path id="Rounded_Rectangle_602_copy_6" data-name="Rounded Rectangle 602 copy 6" class="cls-2" d="M49.423,30.99H84.369a1.5,1.5,0,0,1,0,3H49.423A1.5,1.5,0,0,1,49.423,30.99ZM49.454,19.9H69.3a1.5,1.5,0,0,1,1.5,1.5v0.188a1.5,1.5,0,0,1-1.5,1.5H49.454a1.5,1.5,0,0,1-1.5-1.5V21.4A1.5,1.5,0,0,1,49.454,19.9ZM49.423,41.986h44.93a1.5,1.5,0,0,1,0,3H49.423A1.5,1.5,0,0,1,49.423,41.986Zm0,10h44.93a1.5,1.5,0,0,1,0,3H49.423A1.5,1.5,0,0,1,49.423,51.983Zm0,10h44.93a1.5,1.5,0,0,1,0,3H49.423A1.5,1.5,0,0,1,49.423,61.979Zm-1,10H94.354a1.5,1.5,0,0,1,0,3H48.425A1.5,1.5,0,0,1,48.425,71.976Z"/>
  <circle class="cls-4" cx="105.328" cy="73.469" r="14.485"/>
  <path id="Forma_1" data-name="Forma 1" class="cls-3" d="M110.808,73.323a0.263,0.263,0,0,1-.242.154H107.7v6.246a0.257,0.257,0,0,1-.262.25h-4.188a0.256,0.256,0,0,1-.262-0.25V73.478h-2.879a0.263,0.263,0,0,1-.242-0.154,0.242,0.242,0,0,1,.056-0.272l5.222-5a0.272,0.272,0,0,1,.371,0l5.237,5A0.241,0.241,0,0,1,110.808,73.323Z"/>
</svg>
