<svg xmlns="http://www.w3.org/2000/svg" width="142" height="93" viewBox="0 0 142 93">
  <metadata><?xpacket begin="﻿" id="W5M0MpCehiHzreSzNTczkc9d"?>
<x:xmpmeta xmlns:x="adobe:ns:meta/" x:xmptk="Adobe XMP Core 5.6-c142 79.160924, 2017/07/13-01:06:39        ">
   <rdf:RDF xmlns:rdf="http://www.w3.org/1999/02/22-rdf-syntax-ns#">
      <rdf:Description rdf:about=""/>
   </rdf:RDF>
</x:xmpmeta>
                                                                                                    
                                                                                                    
                                                                                                    
                                                                                                    
                                                                                                    
                                                                                                    
                                                                                                    
                                                                                                    
                                                                                                    
                                                                                                    
                                                                                                    
                                                                                                    
                                                                                                    
                                                                                                    
                                                                                                    
                                                                                                    
                                                                                                    
                                                                                                    
                                                                                                    
                                                                                                    
                           
<?xpacket end="w"?></metadata>
<defs>
    <style>
      .cls-1 {
        fill: #eef3fe;
      }

      .cls-1, .cls-4, .cls-5, .cls-6, .cls-7, .cls-8 {
        fill-rule: evenodd;
      }

      .cls-2 {
        fill: #7484a6;
      }

      .cls-3, .cls-8 {
        fill: #fff;
      }

      .cls-4 {
        fill: #e3e3e3;
      }

      .cls-5 {
        fill: #91a2c4;
      }

      .cls-6 {
        fill: #5c6b8a;
      }

      .cls-7 {
        fill: #8388e4;
        stroke: #eef3fe;
        stroke-linejoin: round;
        stroke-width: 3px;
      }
    </style>
  </defs>
  <path class="cls-1" d="M0,54.019c0.518-12.348,3.106-22.638,28.987-30.87S62.739,11.287,75.68,3.569C86.106-2.825,118.153-2.263,133.654,19c10.784,14.8,10.007,34.037-2.07,47.334-10.26,11.3-31.5,20.432-52.8,24.7-21.692,4.344-37.893,1.057-53.939-5.117S-0.345,68.768,0,54.019Z"/>
  <rect class="cls-2" x="39" y="9" width="60" height="72"/>
  <rect class="cls-3" x="44" y="14" width="50" height="61"/>
  <path id="Rounded_Rectangle_1" data-name="Rounded Rectangle 1" class="cls-4" d="M52.276,25.983H86.724a1.527,1.527,0,0,1,0,3.013H52.276A1.527,1.527,0,0,1,52.276,25.983Z"/>
  <path id="Rounded_Rectangle_1_copy" data-name="Rounded Rectangle 1 copy" class="cls-4" d="M52.292,48.985H80.708a1.524,1.524,0,0,1,0,3.013H52.292A1.524,1.524,0,0,1,52.292,48.985Z"/>
  <path id="Rounded_Rectangle_2_copy" data-name="Rounded Rectangle 2 copy" class="cls-4" d="M52.333,59.985h7.333a1.518,1.518,0,0,1,0,3.013H52.333A1.518,1.518,0,0,1,52.333,59.985Z"/>
  <path id="Rounded_Rectangle_5" data-name="Rounded Rectangle 5" class="cls-4" d="M52.333,37.984H85.667a1.518,1.518,0,0,1,0,3.013H52.333A1.518,1.518,0,0,1,52.333,37.984Z"/>
  <path class="cls-5" d="M54,9.01H84v7H54v-7Z"/>
  <path class="cls-6" d="M63,6H75v6.01H63V6Z"/>
  <path id="Forma_1" data-name="Forma 1" class="cls-7" d="M97,50c10.49,0,19,7.441,19,16.622a15.912,15.912,0,0,1-7.123,12.964V88l-8.322-5.049a21.817,21.817,0,0,1-3.552.3c-10.492,0-19-7.442-19-16.622S86.508,50,97,50Z"/>
  <path id="Forma_1-2" data-name="Forma 1" class="cls-8" d="M91.107,70.012h12.668a1.522,1.522,0,0,1,0,3H91.107A1.522,1.522,0,0,1,91.107,70.012Zm-2.93-8H104.8a1.542,1.542,0,0,1,0,3H88.177A1.542,1.542,0,0,1,88.177,62.008Z"/>
</svg>
