<svg id="icon" xmlns="http://www.w3.org/2000/svg" width="201" height="142" viewBox="0 0 201 142">
  <defs>
    <style>
      .cls-1 {
        fill: #eef3fe;
      }

      .cls-1, .cls-2, .cls-4, .cls-6 {
        fill-rule: evenodd;
      }

      .cls-2 {
        fill: #faddb8;
      }

      .cls-3 {
        fill: #5387ff;
      }

      .cls-4, .cls-6 {
        fill: #fff;
      }

      .cls-4 {
        opacity: 0.5;
      }

      .cls-5 {
        fill: #30d28e;
        opacity: 0.8;
      }

      .cls-7 {
        fill: #ffc501;
      }
    </style>
  </defs>
  <path class="cls-1" d="M30,78.019c0.518-12.348,3.106-22.638,28.987-30.87s33.752-11.862,46.693-19.58c10.426-6.394,42.473-5.832,57.974,15.435,10.784,14.8,10.007,34.037-2.07,47.334-10.26,11.3-31.5,20.432-52.8,24.7-21.692,4.344-37.893,1.057-53.94-5.117S29.655,92.768,30,78.019Z"/>
  <g id="icon-2" data-name="icon">
    <g id="hand">
      <path class="cls-2" d="M65.936,72.053S80.2,66.459,96.067,80.3c1.721,1.408,10.9.883,12.029,1.008,1,0.25,4.119,4.851-1.867,7.293,0,0-4.195,1.879-20.479.87,0,0,2.071,6.406,10.317,6.957,0,0,10.108,1.922,23.009-5.04,6.482-3.173,4.3-1.993,6.658-2.943,0.821-.331,7.019-1.62,6.037,3.887a7.856,7.856,0,0,1-1.268,2.1c-6.74,7.136-12.267,9.866-12.267,9.866S86.81,119.553,67.1,100.135Z"/>
      <rect id="Rounded_Rectangle_1" data-name="Rounded Rectangle 1" class="cls-3" x="53" y="66" width="15" height="40" rx="7.5" ry="7.5"/>
      <path class="cls-4" d="M102.318,82.953l1.092,3.363s3.911-.028,4.371-2.242C107.781,84.074,106.825,80.08,102.318,82.953Z"/>
    </g>
    <g id="_2" data-name="2">
      <g id="_1" data-name="1">
        <circle class="cls-5" cx="91.844" cy="53" r="14"/>
        <path id="_" data-name="$" class="cls-6" d="M93.845,57.569a2.733,2.733,0,0,1-1.82.54,2.829,2.829,0,0,1-1.841-.59,2.408,2.408,0,0,1-.728-1.979H87.012l-0.021.05a3.981,3.981,0,0,0,1.17,3.209,5.217,5.217,0,0,0,3.084,1.269v1.939H92.9V60.058a4.978,4.978,0,0,0,3.011-1.22,4.069,4.069,0,0,0,.01-5.548,8.508,8.508,0,0,0-3.292-1.709,6.107,6.107,0,0,1-2.038-1.05,1.806,1.806,0,0,1-.551-1.379,2.01,2.01,0,0,1,.53-1.464,2.188,2.188,0,0,1,1.633-.545,2.042,2.042,0,0,1,1.633.675,2.713,2.713,0,0,1,.582,1.834h2.444l0.031-.05a4.377,4.377,0,0,0-.978-3.029,4.275,4.275,0,0,0-2.808-1.379V43H91.453v2.179a4.6,4.6,0,0,0-2.881,1.264,3.727,3.727,0,0,0-1.05,2.734,3.627,3.627,0,0,0,1.1,2.794,8.524,8.524,0,0,0,3.307,1.7A5.389,5.389,0,0,1,93.9,54.7a1.865,1.865,0,0,1,.577,1.4A1.829,1.829,0,0,1,93.845,57.569Z"/>
      </g>
      <g id="_2-2" data-name="2">
        <circle class="cls-7" cx="118.063" cy="72.281" r="10"/>
        <path id="_2-3" data-name="$" class="cls-6" d="M119.8,76.733a1.845,1.845,0,0,1-1.272.4,1.912,1.912,0,0,1-1.287-.434,1.826,1.826,0,0,1-.509-1.458h-1.708l-0.014.037a3.021,3.021,0,0,0,.817,2.363,3.555,3.555,0,0,0,2.156.935V80h1.156V78.566a3.389,3.389,0,0,0,2.1-.9,3.115,3.115,0,0,0,.007-4.086,5.849,5.849,0,0,0-2.3-1.259,4.205,4.205,0,0,1-1.425-.773,1.367,1.367,0,0,1-.385-1.016,1.527,1.527,0,0,1,.37-1.079,1.484,1.484,0,0,1,1.142-.4,1.394,1.394,0,0,1,1.141.5A2.072,2.072,0,0,1,120.2,70.9h1.708l0.022-.037a3.336,3.336,0,0,0-.683-2.231,2.939,2.939,0,0,0-1.963-1.016V66h-1.156v1.6a3.141,3.141,0,0,0-2.013.931,2.826,2.826,0,0,0-.735,2.013,2.747,2.747,0,0,0,.771,2.058,5.862,5.862,0,0,0,2.312,1.255,3.71,3.71,0,0,1,1.377.755,1.412,1.412,0,0,1,.4,1.034A1.379,1.379,0,0,1,119.8,76.733Z"/>
      </g>
    </g>
  </g>
</svg>
