<svg id="icon" xmlns="http://www.w3.org/2000/svg" width="171" height="127" viewBox="0 0 171 127">
  <defs>
    <style>
      .cls-1, .cls-4, .cls-5 {
        fill: #eef3fe;
      }

      .cls-1, .cls-2, .cls-4, .cls-7 {
        fill-rule: evenodd;
      }

      .cls-2 {
        fill: #fff;
        stroke: #dfe4e5;
      }

      .cls-2, .cls-4, .cls-5 {
        stroke-linejoin: round;
        stroke-width: 1px;
      }

      .cls-3 {
        fill: #51aafc;
      }

      .cls-4, .cls-5 {
        stroke: #e3e3e3;
      }

      .cls-6 {
        fill: #e3e3e3;
      }

      .cls-7 {
        fill: #3be2a9;
      }
    </style>
  </defs>
  <path class="cls-1" d="M15,72.019c0.518-12.348,3.106-22.638,28.987-30.87S77.739,29.287,90.68,21.569c10.426-6.394,42.473-5.832,57.974,15.435,10.784,14.8,10.007,34.037-2.07,47.334-10.26,11.3-31.5,20.432-52.8,24.7-21.692,4.344-37.893,1.057-53.939-5.117S14.655,86.768,15,72.019Z"/>
  <g id="icon-2" data-name="icon">
    <path id="Forma_1" data-name="Forma 1" class="cls-2" d="M59.963,24.011H55.977c-3.726,0-5.834,1.909-5.978,4.959V98.945c0,4.054,1.992,4.995,4.981,4.995h56.806c3.949,0,5.977-2.012,5.977-4.995V29.006c-0.143-3.05-1.939-5-5.977-5H59.963Z"/>
    <g>
      <path id="Forma_1_copy_6" data-name="Forma 1 copy 6" class="cls-2" d="M79.9,19.016c0.4-1.748,1.39-3,3.985-3,2.143,0,2.615,1.259,2.989,3,0.122,0.668.7,1,1.992,1h3.985s3,1.8,3,3.569c0,1.724-3,3.425-3,3.425H73.918s-3-1.54-3-3.175c0-1.849,3-3.819,3-3.819H77.9c0.979,0,1.878-.353,1.993-1"/>
      <rect id="Rounded_Rectangle_602" data-name="Rounded Rectangle 602" class="cls-3" x="77" y="22" width="13" height="3" rx="1.5" ry="1.5"/>
    </g>
    <g id="_3" data-name="3">
      <g>
        <path id="Rounded_Rectangle_601" data-name="Rounded Rectangle 601" class="cls-4" d="M62,39H73a1,1,0,0,1,1,1L73.766,51.219A0.657,0.657,0,0,1,73,52H62a1,1,0,0,1-1-1V40A1,1,0,0,1,62,39Z"/>
        <rect id="Rounded_Rectangle_601_copy" data-name="Rounded Rectangle 601 copy" class="cls-5" x="61" y="60" width="13" height="13" rx="1" ry="1"/>
        <rect id="Rounded_Rectangle_601_copy_2" data-name="Rounded Rectangle 601 copy 2" class="cls-5" x="61" y="80" width="13" height="13" rx="1" ry="1"/>
        <rect id="Rounded_Rectangle_602-2" data-name="Rounded Rectangle 602" class="cls-6" x="77" y="41" width="29" height="3" rx="1.5" ry="1.5"/>
        <rect id="Rounded_Rectangle_602_copy" data-name="Rounded Rectangle 602 copy" class="cls-6" x="77" y="47" width="18" height="3" rx="1.5" ry="1.5"/>
        <rect id="Rounded_Rectangle_602_copy_2" data-name="Rounded Rectangle 602 copy 2" class="cls-6" x="77" y="62" width="30" height="3" rx="1.5" ry="1.5"/>
        <rect id="Rounded_Rectangle_602_copy_2-2" data-name="Rounded Rectangle 602 copy 2" class="cls-6" x="77" y="68" width="19" height="3" rx="1.5" ry="1.5"/>
        <rect id="Rounded_Rectangle_602_copy_3" data-name="Rounded Rectangle 602 copy 3" class="cls-6" x="77" y="82" width="29" height="3" rx="1.5" ry="1.5"/>
        <rect id="Rounded_Rectangle_602_copy_3-2" data-name="Rounded Rectangle 602 copy 3" class="cls-6" x="77" y="88" width="18" height="3" rx="1.5" ry="1.5"/>
      </g>
    </g>
  </g>
  <path id="Forma_1_copy_2" data-name="Forma 1 copy 2" class="cls-7" d="M70.906,42.182L66.023,47.4,64.049,45.29a0.593,0.593,0,0,0-.878,0,0.7,0.7,0,0,0,0,.938l2.413,2.577a0.593,0.593,0,0,0,.878,0v0l5.32-5.684a0.7,0.7,0,0,0,0-.938A0.593,0.593,0,0,0,70.906,42.182Z"/>
  <path id="Forma_1_copy_3" data-name="Forma 1 copy 3" class="cls-7" d="M70.906,63.182L66.023,68.4,64.049,66.29a0.593,0.593,0,0,0-.878,0,0.7,0.7,0,0,0,0,.938l2.413,2.577a0.593,0.593,0,0,0,.878,0v0l5.32-5.684a0.7,0.7,0,0,0,0-.938A0.593,0.593,0,0,0,70.906,63.182Z"/>
  <path id="Forma_1_copy_4" data-name="Forma 1 copy 4" class="cls-7" d="M70.906,83.182L66.023,88.4,64.049,86.29a0.593,0.593,0,0,0-.878,0,0.7,0.7,0,0,0,0,.938l2.413,2.577a0.593,0.593,0,0,0,.878,0v0l5.32-5.684a0.7,0.7,0,0,0,0-.938A0.593,0.593,0,0,0,70.906,83.182Z"/>
</svg>
