<svg id="icon" xmlns="http://www.w3.org/2000/svg" width="201" height="142" viewBox="0 0 201 142">
  <defs>
    <style>
      .cls-1 {
        fill: #eef3fe;
      }

      .cls-1, .cls-3, .cls-4, .cls-5, .cls-6, .cls-7, .cls-9 {
        fill-rule: evenodd;
      }

      .cls-2, .cls-9 {
        fill: #fff;
      }

      .cls-2 {
        stroke: #e3e3e3;
        stroke-linejoin: round;
        stroke-width: 1px;
      }

      .cls-3 {
        fill: #383838;
      }

      .cls-4 {
        fill: #565657;
      }

      .cls-5 {
        fill: #33e2a6;
      }

      .cls-6 {
        fill: #9e7dd8;
      }

      .cls-7 {
        opacity: 0.05;
      }

      .cls-8 {
        fill: #b194e5;
      }

      .cls-10 {
        fill: #ffc501;
      }
    </style>
  </defs>
  <path class="cls-1" d="M23,78.019c0.518-12.348,3.106-22.638,28.987-30.87S85.739,35.287,98.68,27.569c10.426-6.394,42.473-5.832,57.974,15.435,10.784,14.8,10.007,34.037-2.07,47.334-10.26,11.3-31.5,20.432-52.8,24.7-21.692,4.344-37.893,1.057-53.94-5.117S22.655,92.768,23,78.019Z"/>
  <g id="graphic">
    <g id="icon-2" data-name="icon">
      <g id="graphic-2" data-name="graphic">
        <rect id="Rounded_Rectangle_593" data-name="Rounded Rectangle 593" class="cls-2" x="24" y="28" width="131" height="86" rx="5" ry="5"/>
        <g id="Bar">
          <path id="Sales_Order" data-name="Sales Order" class="cls-3" d="M34.546,43.975a3.382,3.382,0,0,0,1.327-.239,1.945,1.945,0,0,0,.864-0.672,1.7,1.7,0,0,0,.3-1,1.492,1.492,0,0,0-.307-0.959,2.182,2.182,0,0,0-.734-0.6,11.565,11.565,0,0,0-1.141-.477q-0.674-.234-1-0.385a1.44,1.44,0,0,1-.482-0.336,0.7,0.7,0,0,1-.161-0.477,0.738,0.738,0,0,1,.306-0.633,1.435,1.435,0,0,1,.859-0.224,1.645,1.645,0,0,1,1.07.317,0.966,0.966,0,0,1,.387.774v0.107a0.1,0.1,0,0,0,.045.083A0.186,0.186,0,0,0,36,39.29h0.824a0.14,0.14,0,0,0,.161-0.156V39.008a1.762,1.762,0,0,0-.322-1.047,2.112,2.112,0,0,0-.9-0.706A3.291,3.291,0,0,0,34.435,37a2.739,2.739,0,0,0-1.719.5,1.619,1.619,0,0,0-.643,1.354,1.524,1.524,0,0,0,.3.959,2.138,2.138,0,0,0,.739.609,10.089,10.089,0,0,0,1.156.477q0.633,0.234.95,0.39a1.6,1.6,0,0,1,.487.346,0.668,0.668,0,0,1,.171.463,0.8,0.8,0,0,1-.312.652,1.441,1.441,0,0,1-.925.253,1.792,1.792,0,0,1-1.08-.3,0.891,0.891,0,0,1-.407-0.745V41.8a0.136,0.136,0,0,0-.161-0.146H32.164a0.14,0.14,0,0,0-.161.156v0.2a1.741,1.741,0,0,0,.312,1.027,2,2,0,0,0,.889.687,3.432,3.432,0,0,0,1.342.244h0Zm5.467-5.133a2.6,2.6,0,0,0-1.432.37,1.363,1.363,0,0,0-.668.955,0.08,0.08,0,0,0,.03.083,0.224,0.224,0,0,0,.121.044l0.9,0.107a0.16,0.16,0,0,0,.181-0.127,0.626,0.626,0,0,1,.312-0.336,1.244,1.244,0,0,1,.583-0.122,1.025,1.025,0,0,1,.7.209,0.747,0.747,0,0,1,.236.589v0.224a0.052,0.052,0,0,1-.06.058H39.853a2.471,2.471,0,0,0-1.543.424,1.41,1.41,0,0,0-.548,1.183,1.306,1.306,0,0,0,.477,1.1,1.934,1.934,0,0,0,1.221.37,2.036,2.036,0,0,0,1.447-.507,0.068,0.068,0,0,1,.05-0.015,0.039,0.039,0,0,1,.02.044v0.243a0.14,0.14,0,0,0,.161.156h0.844a0.14,0.14,0,0,0,.161-0.156V40.5a1.456,1.456,0,0,0-.261-0.852,1.739,1.739,0,0,0-.749-0.589,2.763,2.763,0,0,0-1.121-.214h0Zm-0.231,4.237a1.037,1.037,0,0,1-.613-0.171,0.555,0.555,0,0,1-.241-0.482,0.619,0.619,0,0,1,.312-0.555,1.583,1.583,0,0,1,.844-0.195h0.834a0.053,0.053,0,0,1,.06.059v0.448a0.764,0.764,0,0,1-.352.643,1.406,1.406,0,0,1-.844.253h0ZM43.471,43.9h0.844a0.14,0.14,0,0,0,.161-0.156V37.235a0.14,0.14,0,0,0-.161-0.156H43.471a0.14,0.14,0,0,0-.161.156v6.506a0.14,0.14,0,0,0,.161.156h0Zm4.573-.877a1.432,1.432,0,0,1-.774-0.195,0.967,0.967,0,0,1-.422-0.545,1.274,1.274,0,0,1-.06-0.429,0.052,0.052,0,0,1,.06-0.058h3.116a0.14,0.14,0,0,0,.161-0.156,7.343,7.343,0,0,0-.07-0.8,2.063,2.063,0,0,0-2.2-2,2.262,2.262,0,0,0-1.367.409,1.965,1.965,0,0,0-.754,1.1,3.7,3.7,0,0,0-.11,1.032,3.415,3.415,0,0,0,.2,1.208,2.052,2.052,0,0,0,.779,1.018,2.315,2.315,0,0,0,1.332.365,2.532,2.532,0,0,0,1.156-.253,2,2,0,0,0,.794-0.7,0.171,0.171,0,0,0,.03-0.088,0.189,0.189,0,0,0-.07-0.127l-0.482-.37a0.151,0.151,0,0,0-.221.049,1.208,1.208,0,0,1-.447.385,1.493,1.493,0,0,1-.648.151h0Zm-0.2-3.2a1.084,1.084,0,0,1,.668.2,0.962,0.962,0,0,1,.357.541,2.858,2.858,0,0,1,.06.351,0.053,0.053,0,0,1-.06.059h-2.02a0.044,0.044,0,0,1-.05-0.059,1.384,1.384,0,0,1,.08-0.409,0.9,0.9,0,0,1,.337-0.5,1.037,1.037,0,0,1,.628-0.18h0Zm5.266,4.139a2.561,2.561,0,0,0,1.5-.394,1.255,1.255,0,0,0,.563-1.086,1.11,1.11,0,0,0-.251-0.75,1.668,1.668,0,0,0-.613-0.448,7.73,7.73,0,0,0-.9-0.312l-0.231-.059a4.1,4.1,0,0,1-.774-0.268,0.384,0.384,0,0,1-.231-0.355,0.436,0.436,0,0,1,.246-0.394,1.275,1.275,0,0,1,.638-0.141,1.249,1.249,0,0,1,.7.17,0.5,0.5,0,0,1,.256.424V40.4q0,0.059.161,0.058h0.774a0.187,0.187,0,0,0,.116-0.034,0.1,0.1,0,0,0,.045-0.083,1.227,1.227,0,0,0-.256-0.765,1.682,1.682,0,0,0-.719-0.526,2.815,2.815,0,0,0-1.075-.19,2.39,2.39,0,0,0-1.452.4,1.281,1.281,0,0,0-.548,1.086,1.1,1.1,0,0,0,.241.735,1.716,1.716,0,0,0,.593.453,5.753,5.753,0,0,0,.864.312l0.382,0.117a3.4,3.4,0,0,1,.668.239,0.361,0.361,0,0,1,.206.336,0.471,0.471,0,0,1-.251.4,1.2,1.2,0,0,1-.653.161,1.254,1.254,0,0,1-.7-0.18,0.51,0.51,0,0,1-.276-0.424V42.436q0-.068-0.161-0.068h-0.8a0.14,0.14,0,0,0-.161.156v0.049a1.081,1.081,0,0,0,.261.706,1.718,1.718,0,0,0,.739.5,3.135,3.135,0,0,0,1.111.18h0Zm7.547,0.039A2.9,2.9,0,0,0,62,43.7a2.174,2.174,0,0,0,.9-0.842,2.427,2.427,0,0,0,.322-1.256V39.378a2.381,2.381,0,0,0-.322-1.242A2.185,2.185,0,0,0,62,37.3a3.155,3.155,0,0,0-2.673,0,2.183,2.183,0,0,0-.9.838,2.38,2.38,0,0,0-.322,1.242V41.6a2.456,2.456,0,0,0,.317,1.256,2.134,2.134,0,0,0,.9.842,2.9,2.9,0,0,0,1.337.3h0Zm0-.974a1.308,1.308,0,0,1-1.387-1.383V39.368a1.393,1.393,0,1,1,2.784,0v2.269a1.352,1.352,0,0,1-.382,1,1.376,1.376,0,0,1-1.015.38h0ZM66.8,38.862a1.339,1.339,0,0,0-1.166.614q-0.02.039-.04,0.029a0.049,0.049,0,0,1-.02-0.049v-0.38a0.14,0.14,0,0,0-.161-0.156H64.566a0.14,0.14,0,0,0-.161.156v4.665a0.14,0.14,0,0,0,.161.156H65.41a0.14,0.14,0,0,0,.161-0.156V41.024a0.918,0.918,0,0,1,.281-0.7,1.055,1.055,0,0,1,.7-0.287,1.479,1.479,0,0,1,.191-0.01,1.08,1.08,0,0,1,.322.039,0.233,0.233,0,0,0,.136,0,0.111,0.111,0,0,0,.055-0.1l0.161-.808a0.157,0.157,0,0,0-.09-0.195,1.3,1.3,0,0,0-.533-0.107h0Zm4.311-1.626V39.3a0.037,0.037,0,0,1-.025.044,0.044,0.044,0,0,1-.045-0.024,1.491,1.491,0,0,0-1.146-.477,1.917,1.917,0,0,0-1.94,1.364,3.665,3.665,0,0,0-.171,1.188,3.853,3.853,0,0,0,.181,1.217,2.019,2.019,0,0,0,.724,1,2,2,0,0,0,1.206.365,1.432,1.432,0,0,0,1.146-.507c0.013-.026.028-0.036,0.045-0.029a0.046,0.046,0,0,1,.025.049v0.253a0.14,0.14,0,0,0,.161.156h0.844a0.14,0.14,0,0,0,.161-0.156V37.235a0.14,0.14,0,0,0-.161-0.156H71.269a0.14,0.14,0,0,0-.161.156h0Zm-0.251,5.3a0.876,0.876,0,0,1-.784.458,0.894,0.894,0,0,1-.844-0.468,2.183,2.183,0,0,1-.241-1.11,2.091,2.091,0,0,1,.291-1.188,0.917,0.917,0,0,1,.8-0.409,0.848,0.848,0,0,1,.754.428,2.837,2.837,0,0,1,.02,2.289h0Zm4.975,0.487a1.432,1.432,0,0,1-.774-0.195,0.967,0.967,0,0,1-.422-0.545,1.274,1.274,0,0,1-.06-0.429,0.052,0.052,0,0,1,.06-0.058h3.116a0.14,0.14,0,0,0,.161-0.156,7.314,7.314,0,0,0-.07-0.8,2.063,2.063,0,0,0-2.2-2,2.261,2.261,0,0,0-1.367.409,1.965,1.965,0,0,0-.754,1.1,3.7,3.7,0,0,0-.111,1.032,3.415,3.415,0,0,0,.2,1.208,2.052,2.052,0,0,0,.779,1.018,2.315,2.315,0,0,0,1.332.365,2.533,2.533,0,0,0,1.156-.253,2,2,0,0,0,.794-0.7,0.17,0.17,0,0,0,.03-0.088,0.188,0.188,0,0,0-.07-0.127l-0.482-.37a0.151,0.151,0,0,0-.221.049,1.208,1.208,0,0,1-.447.385,1.493,1.493,0,0,1-.648.151h0Zm-0.2-3.2a1.084,1.084,0,0,1,.668.2,0.962,0.962,0,0,1,.357.541,2.858,2.858,0,0,1,.06.351,0.053,0.053,0,0,1-.06.059h-2.02a0.044,0.044,0,0,1-.05-0.059,1.384,1.384,0,0,1,.081-0.409A0.9,0.9,0,0,1,75,40a1.037,1.037,0,0,1,.628-0.18h0Zm5.739-.955a1.339,1.339,0,0,0-1.166.614q-0.02.039-.04,0.029a0.049,0.049,0,0,1-.02-0.049v-0.38a0.14,0.14,0,0,0-.161-0.156H79.138a0.14,0.14,0,0,0-.161.156v4.665a0.14,0.14,0,0,0,.161.156h0.844a0.14,0.14,0,0,0,.161-0.156V41.024a0.918,0.918,0,0,1,.281-0.7,1.055,1.055,0,0,1,.7-0.287,1.477,1.477,0,0,1,.191-0.01,1.079,1.079,0,0,1,.322.039,0.233,0.233,0,0,0,.136,0,0.111,0.111,0,0,0,.055-0.1l0.161-.808a0.157,0.157,0,0,0-.09-0.195,1.3,1.3,0,0,0-.533-0.107h0Z"/>
          <g id="_1" data-name="1">
            <g id="_1_copy_5" data-name="1 copy 5">
              <path id="_1234" data-name="#1234" class="cls-4" d="M33.976,61.324h0.645l0.365-1.619H35.66l0.15-.62H35.127l0.29-1.27h0.711l0.15-.62h-0.72l0.355-1.531H35.267L34.911,57.2H33.93l0.355-1.531H33.64L33.284,57.2h-0.7l-0.131.62h0.692l-0.29,1.27H32.115l-0.131.62h0.729l-0.365,1.619h0.645l0.365-1.619h0.982Zm-0.187-3.509h0.982l-0.29,1.27H33.5Zm4.04,4.071h3.32V61.169H39.867V54.986H39.531l-2.057,1.648,0.355,0.494,1.029-.766,0.374-.456-0.093.572v4.691H37.829v0.717Zm8.145-5.907a1.492,1.492,0,0,0-.327-0.528,1.459,1.459,0,0,0-.524-0.344,1.937,1.937,0,0,0-.711-0.121,2.773,2.773,0,0,0-.963.165,2.4,2.4,0,0,0-.776.456l0.309,0.553a2.675,2.675,0,0,1,.58-0.344,1.68,1.68,0,0,1,.692-0.15,0.975,0.975,0,0,1,.795.315,1.2,1.2,0,0,1,.262.79,2.77,2.77,0,0,1-.15.863,5.853,5.853,0,0,1-.4.921,10.3,10.3,0,0,1-.552.916q-0.3.451-.617,0.853t-0.6.732q-0.29.33-.5,0.553v0.281h3.722V61.169H44.178l-0.6.107V61.237l0.458-.417q0.365-.465.729-0.984a10.757,10.757,0,0,0,.659-1.061,6.923,6.923,0,0,0,.477-1.081,3.263,3.263,0,0,0,.182-1.052A1.911,1.911,0,0,0,45.973,55.979Zm2.567,5.273a2.485,2.485,0,0,1-.51-0.179l-0.2.688a3.086,3.086,0,0,0,.589.174,3.853,3.853,0,0,0,.758.068,2.592,2.592,0,0,0,.87-0.145,2.081,2.081,0,0,0,.715-0.422,1.978,1.978,0,0,0,.482-0.683,2.306,2.306,0,0,0,.178-0.93,2.183,2.183,0,0,0-.131-0.78,1.764,1.764,0,0,0-.365-0.591,1.579,1.579,0,0,0-.552-0.378,1.936,1.936,0,0,0-.692-0.141L49.368,58V57.981L49.7,57.7l1.487-2.316V55.1H47.844v0.717H49.7l0.608-.1-0.43.426L48.526,58.3v0.281h0.692a1.6,1.6,0,0,1,1.071.33,1.25,1.25,0,0,1,.388,1.008,1.436,1.436,0,0,1-.112.572,1.364,1.364,0,0,1-.309.451,1.29,1.29,0,0,1-.468.286,1.737,1.737,0,0,1-.589.1A2.753,2.753,0,0,1,48.54,61.252Zm8.467-2.127H55.9V55H55.4l-3.1,4.488V59.8h2.88v2.084H55.9V59.8h1.1V59.124Zm-1.833,0H53.8l-0.655.078,0.449-.475,1.319-1.851,0.327-.659h0.028l-0.093.795v2.113Z"/>
              <path id="_1244" data-name="#1244" class="cls-4" d="M33.976,82.417h0.645l0.365-1.642H35.66l0.15-.629H35.127l0.29-1.288h0.711l0.15-.629h-0.72l0.355-1.554H35.267l-0.355,1.554H33.93l0.355-1.554H33.64l-0.355,1.554h-0.7l-0.131.629h0.692l-0.29,1.288H32.115l-0.131.629h0.729l-0.365,1.642h0.645l0.365-1.642h0.982Zm-0.187-3.56h0.982l-0.29,1.288H33.5Zm4.04,4.13h3.32V82.26H39.867V75.985H39.531l-2.057,1.672,0.355,0.5,1.029-.777,0.374-.462-0.093.58v4.76H37.829v0.728Zm8.145-5.994a1.518,1.518,0,0,0-.327-0.536,1.456,1.456,0,0,0-.524-0.349,1.911,1.911,0,0,0-.711-0.123,2.738,2.738,0,0,0-.963.167,2.392,2.392,0,0,0-.776.462l0.309,0.56a2.672,2.672,0,0,1,.58-0.349,1.661,1.661,0,0,1,.692-0.153,0.968,0.968,0,0,1,.795.32,1.224,1.224,0,0,1,.262.8,2.848,2.848,0,0,1-.15.875,5.985,5.985,0,0,1-.4.934,10.493,10.493,0,0,1-.552.929q-0.3.457-.617,0.865t-0.6.742q-0.29.334-.5,0.561v0.285h3.722V82.26H44.178l-0.6.108V82.328l0.458-.423q0.365-.472.729-1a10.946,10.946,0,0,0,.659-1.077,7.084,7.084,0,0,0,.477-1.1,3.355,3.355,0,0,0,.182-1.067A1.965,1.965,0,0,0,45.973,76.993Zm5.938,3.191h-1.1V76H50.3l-3.1,4.553v0.325h2.88v2.114h0.729V80.873h1.1V80.185Zm-1.833,0H48.7l-0.655.079,0.449-.482L49.817,77.9l0.327-.669h0.028l-0.093.806v2.144Zm6.929,0H55.9V76H55.4l-3.1,4.553v0.325h2.88v2.114H55.9V80.873h1.1V80.185Zm-1.833,0H53.8l-0.655.079,0.449-.482L54.913,77.9l0.327-.669h0.028l-0.093.806v2.144Z"/>
              <path id="_1238" data-name="#1238" class="cls-4" d="M33.93,104.324h0.63l0.356-1.618h0.657l0.146-.621H35.054l0.283-1.269h0.694l0.146-.621h-0.7l0.347-1.531h-0.63L34.844,100.2H33.885l0.347-1.531H33.6L33.255,100.2H32.569l-0.128.621h0.676l-0.283,1.269H32.113l-0.128.621H32.7l-0.356,1.618h0.63l0.356-1.618h0.959Zm-0.183-3.508h0.959l-0.283,1.269H33.465Zm3.946,4.071h3.242v-0.718H39.684V97.986H39.355l-2.009,1.648,0.347,0.495,1-.766,0.365-.456-0.091.572v4.691H37.693v0.718Zm7.955-5.908a1.5,1.5,0,0,0-.32-0.528,1.423,1.423,0,0,0-.511-0.344,1.853,1.853,0,0,0-.694-0.121,2.653,2.653,0,0,0-.941.165,2.334,2.334,0,0,0-.758.456l0.3,0.552a2.6,2.6,0,0,1,.566-0.344,1.61,1.61,0,0,1,.676-0.15,0.941,0.941,0,0,1,.776.315,1.213,1.213,0,0,1,.256.79,2.836,2.836,0,0,1-.146.863,5.946,5.946,0,0,1-.388.92,10.194,10.194,0,0,1-.539.916q-0.3.451-.6,0.853t-0.589.732q-0.283.33-.484,0.552v0.282h3.635v-0.718H43.895l-0.584.107v-0.039l0.447-.417q0.356-.465.712-0.983a10.862,10.862,0,0,0,.644-1.062,7.013,7.013,0,0,0,.466-1.08,3.339,3.339,0,0,0,.178-1.052A1.953,1.953,0,0,0,45.648,98.979Zm2.507,5.273a2.381,2.381,0,0,1-.5-0.18l-0.192.689a2.954,2.954,0,0,0,.575.174,3.691,3.691,0,0,0,.74.068,2.477,2.477,0,0,0,.849-0.146,2.011,2.011,0,0,0,.7-0.421,1.982,1.982,0,0,0,.47-0.683,2.36,2.36,0,0,0,.174-0.931,2.226,2.226,0,0,0-.128-0.78,1.765,1.765,0,0,0-.356-0.591,1.535,1.535,0,0,0-.539-0.378,1.848,1.848,0,0,0-.676-0.141l-0.31.068v-0.019l0.32-.282,1.452-2.316V98.1H47.475v0.717h1.808l0.594-.1-0.42.427L48.142,101.3v0.281h0.676a1.54,1.54,0,0,1,1.046.33,1.266,1.266,0,0,1,.379,1.008,1.467,1.467,0,0,1-.11.572,1.371,1.371,0,0,1-.3.451,1.263,1.263,0,0,1-.457.286,1.678,1.678,0,0,1-.575.1A2.656,2.656,0,0,1,48.155,104.252Zm4.224-.3a1.522,1.522,0,0,0,.352.548,1.677,1.677,0,0,0,.571.368,2.06,2.06,0,0,0,.776.136,2.2,2.2,0,0,0,.813-0.141,1.741,1.741,0,0,0,.6-0.387,1.629,1.629,0,0,0,.375-0.592,2.167,2.167,0,0,0,.128-0.76,1.865,1.865,0,0,0-.091-0.606,1.726,1.726,0,0,0-.251-0.48,2.237,2.237,0,0,0-.374-0.388,4.225,4.225,0,0,0-.452-0.32,2.773,2.773,0,0,0,.785-0.828,1.952,1.952,0,0,0,.237-0.974,1.582,1.582,0,0,0-.119-0.62,1.426,1.426,0,0,0-.333-0.485,1.534,1.534,0,0,0-.525-0.32,1.966,1.966,0,0,0-.694-0.116,2.017,2.017,0,0,0-.735.126,1.669,1.669,0,0,0-.557.349,1.489,1.489,0,0,0-.356.533,1.846,1.846,0,0,0-.123.688,1.781,1.781,0,0,0,.087.581,1.683,1.683,0,0,0,.237.456,1.973,1.973,0,0,0,.347.363,4.444,4.444,0,0,0,.425.306,2.744,2.744,0,0,0-.941.819,1.862,1.862,0,0,0-.3,1.061A1.915,1.915,0,0,0,52.38,103.951Zm2.809-.271a1.008,1.008,0,0,1-.256.358,1.1,1.1,0,0,1-.37.214,1.343,1.343,0,0,1-.438.072,1.242,1.242,0,0,1-.5-0.092,1.049,1.049,0,0,1-.361-0.247,1,1,0,0,1-.219-0.368,1.364,1.364,0,0,1-.073-0.446,1.543,1.543,0,0,1,.237-0.775,2.158,2.158,0,0,1,.795-0.737c0.164,0.091.323,0.184,0.475,0.281a2.328,2.328,0,0,1,.406.325,1.541,1.541,0,0,1,.288.4,1.121,1.121,0,0,1,.11.509A1.258,1.258,0,0,1,55.188,103.68Zm-2-4.391a0.883,0.883,0,0,1,.206-0.315,1.123,1.123,0,0,1,.329-0.223,1.049,1.049,0,0,1,.438-0.087,0.952,0.952,0,0,1,.977,1.027,1.39,1.39,0,0,1-.2.727,2.671,2.671,0,0,1-.607.669q-0.237-.126-0.457-0.266a2.45,2.45,0,0,1-.388-0.306,1.3,1.3,0,0,1-.269-0.373,1.09,1.09,0,0,1-.1-0.48A1.036,1.036,0,0,1,53.188,99.289Z"/>
              <path id="Repair_" data-name="Repair " class="cls-4" d="M66,83.022h0.764V79.874l0.9,0.149,1.777,3h0.893l-1.6-2.751L68.292,79.9a1.981,1.981,0,0,0,1.05-.675,2.02,2.02,0,0,0,.414-1.321,2.07,2.07,0,0,0-.175-0.894,1.643,1.643,0,0,0-.465-0.6,1.808,1.808,0,0,0-.672-0.328,3.2,3.2,0,0,0-.806-0.1q-0.378,0-.833.04A7.545,7.545,0,0,0,66,76.14v6.882ZM68.6,77.053a1.211,1.211,0,0,1,.341.884,1.278,1.278,0,0,1-.414,1.053,1.607,1.607,0,0,1-1.05.338H66.763V76.765a0.876,0.876,0,0,1,.17-0.03l0.226-.02c0.08-.007.162-0.01,0.249-0.01h0.248A1.268,1.268,0,0,1,68.6,77.053Zm5.442,5a1.307,1.307,0,0,1-.47.278,1.748,1.748,0,0,1-.626.119,1.692,1.692,0,0,1-.686-0.124,1.126,1.126,0,0,1-.456-0.358,1.56,1.56,0,0,1-.258-0.571,3.261,3.261,0,0,1-.083-0.775h2.956a5.3,5.3,0,0,0,.055-0.725,2.705,2.705,0,0,0-.157-1.008,1.489,1.489,0,0,0-.405-0.591,1.349,1.349,0,0,0-.562-0.283,2.7,2.7,0,0,0-.626-0.075,1.8,1.8,0,0,0-1.5.665,3.074,3.074,0,0,0-.525,1.936,4.412,4.412,0,0,0,.12,1.073,2.357,2.357,0,0,0,.368.819,1.645,1.645,0,0,0,.635.526,2.106,2.106,0,0,0,.912.184A2.8,2.8,0,0,0,73.628,83a2.028,2.028,0,0,0,.7-0.377Zm-0.552-3.113a1.613,1.613,0,0,1,.267,1.058H71.478a1.6,1.6,0,0,1,.391-1.053,1.217,1.217,0,0,1,.87-0.308A0.954,0.954,0,0,1,73.494,78.935Zm2.145,6.073h0.736V82.942a2.064,2.064,0,0,0,.428.154,2.555,2.555,0,0,0,.539.045,1.979,1.979,0,0,0,.87-0.189,1.893,1.893,0,0,0,.668-0.536,2.524,2.524,0,0,0,.428-0.849,3.882,3.882,0,0,0,.152-1.127,3.18,3.18,0,0,0-.451-1.917,1.623,1.623,0,0,0-1.372-.586,1.577,1.577,0,0,0-.769.184,1.451,1.451,0,0,0-.548.531H76.284l-0.138-.6H75.639v6.952Zm2.417-6.247a1.027,1.027,0,0,1,.368.362,1.7,1.7,0,0,1,.207.566,3.911,3.911,0,0,1,.064.74,2.538,2.538,0,0,1-.373,1.5,1.183,1.183,0,0,1-1.008.511,1.733,1.733,0,0,1-.562-0.075,1.2,1.2,0,0,1-.377-0.213V79.695a1.511,1.511,0,0,1,.382-0.8,1.02,1.02,0,0,1,.741-0.263A1.107,1.107,0,0,1,78.056,78.761Zm2.721,0.268a1.73,1.73,0,0,1,.3-0.148,2.864,2.864,0,0,1,.359-0.112q0.189-.046.368-0.072a2.382,2.382,0,0,1,.336-0.026,0.985,0.985,0,0,1,.737.219,1.125,1.125,0,0,1,.2.765q0,0.238-.028.536a1.68,1.68,0,0,0-.253-0.02H82.545a5.3,5.3,0,0,0-.925.075,2.181,2.181,0,0,0-.718.248,1.238,1.238,0,0,0-.465.467,1.465,1.465,0,0,0-.166.73,1.531,1.531,0,0,0,.106.586,1.322,1.322,0,0,0,.29.442A1.26,1.26,0,0,0,81.1,83a1.487,1.487,0,0,0,.548.1,1.781,1.781,0,0,0,.93-0.243,1.344,1.344,0,0,0,.3-0.238,1.631,1.631,0,0,0,.207-0.273h0.046l0.193,0.7H83.87a3.509,3.509,0,0,1-.1-0.606q-0.028-.328-0.028-0.7,0-.507.028-1.073T83.8,79.506a2.9,2.9,0,0,0-.051-0.536,1.293,1.293,0,0,0-.2-0.492,1.086,1.086,0,0,0-.442-0.363,1.794,1.794,0,0,0-.769-0.139,4.234,4.234,0,0,0-.971.109,2.542,2.542,0,0,0-.815.338Zm0.488,3.153a0.761,0.761,0,0,1-.23-0.571,0.663,0.663,0,0,1,.124-0.412,0.85,0.85,0,0,1,.331-0.258,1.667,1.667,0,0,1,.479-0.129,4.4,4.4,0,0,1,.557-0.035q0.129,0,.262,0T83.051,80.8v0.824a1.183,1.183,0,0,1-.387.521,1.3,1.3,0,0,1-.35.189,1.328,1.328,0,0,1-.46.075A0.811,0.811,0,0,1,81.265,82.183Zm4.079,0.839H86.08V78.056H85.344v4.965Zm-0.014-6.1a0.481,0.481,0,0,0,.364.149,0.528,0.528,0,0,0,.378-0.149,0.5,0.5,0,0,0,.157-0.377,0.548,0.548,0,0,0-.157-0.392,0.5,0.5,0,0,0-.378-0.164,0.461,0.461,0,0,0-.364.164,0.576,0.576,0,0,0-.143.392A0.523,0.523,0,0,0,85.33,76.924Zm4.654,1.132a2.11,2.11,0,0,0-.6-0.1,1,1,0,0,0-.621.184,1.5,1.5,0,0,0-.419.521H88.308l-0.138-.606H87.654v4.965h0.737V79.546a1.044,1.044,0,0,1,.285-0.591,0.84,0.84,0,0,1,.626-0.233,1.554,1.554,0,0,1,.525.1Z"/>
              <path id="Installation" class="cls-4" d="M66.012,104.886h0.761V98.069H66.012v6.817Zm6.094,0v-2.941a4.3,4.3,0,0,0-.1-1,1.6,1.6,0,0,0-.284-0.629,0.992,0.992,0,0,0-.472-0.326,2.137,2.137,0,0,0-.66-0.092,1.845,1.845,0,0,0-.884.2,1.683,1.683,0,0,0-.591.512H69.082l-0.137-.595H68.431v4.87h0.733v-3.331a1.485,1.485,0,0,1,.444-0.7,1.171,1.171,0,0,1,.8-0.278,0.781,0.781,0,0,1,.756.385,2.494,2.494,0,0,1,.206,1.144v2.776h0.733Zm3.1-.73a1.182,1.182,0,0,1-.651.165,2.251,2.251,0,0,1-.687-0.107,2.555,2.555,0,0,1-.55-0.234l-0.22.663a2.749,2.749,0,0,0,.614.253A3.218,3.218,0,0,0,74.6,105a2.005,2.005,0,0,0,.7-0.112,1.439,1.439,0,0,0,.5-0.307,1.2,1.2,0,0,0,.3-0.467,1.746,1.746,0,0,0,.1-0.585,1.334,1.334,0,0,0-.165-0.706,1.534,1.534,0,0,0-.408-0.443,2.205,2.205,0,0,0-.532-0.282q-0.289-.108-0.532-0.22a1.734,1.734,0,0,1-.408-0.253,0.49,0.49,0,0,1-.165-0.394,0.607,0.607,0,0,1,.188-0.507,0.966,0.966,0,0,1,.591-0.146,2.378,2.378,0,0,1,.637.083,2.783,2.783,0,0,1,.509.19l0.174-.643a3.131,3.131,0,0,0-.582-0.219,3.166,3.166,0,0,0-.829-0.092,1.54,1.54,0,0,0-1.045.326,1.29,1.29,0,0,0-.376,1.027,1.237,1.237,0,0,0,.165.682,1.413,1.413,0,0,0,.408.414,2.423,2.423,0,0,0,.532.263c0.192,0.068.37,0.14,0.531,0.214a1.386,1.386,0,0,1,.408.278,0.62,0.62,0,0,1,.165.458A0.654,0.654,0,0,1,75.2,104.156ZM76.7,100.7h0.715v2.844a2.071,2.071,0,0,0,.229,1.125,0.884,0.884,0,0,0,.788.336,2.454,2.454,0,0,0,.632-0.078,2.682,2.682,0,0,0,.541-0.2l-0.165-.594c-0.135.059-.257,0.106-0.367,0.142a1.342,1.342,0,0,1-.4.053,0.427,0.427,0,0,1-.4-0.209,1.55,1.55,0,0,1-.119-0.716v-2.7h1.246v-0.682H78.146V98.828l-0.733.224v0.964H76.7V100.7Zm3.868,0.273a1.658,1.658,0,0,1,.3-0.145,2.74,2.74,0,0,1,.357-0.11,3.7,3.7,0,0,1,.367-0.071,2.53,2.53,0,0,1,.334-0.025,0.99,0.99,0,0,1,.733.215,1.087,1.087,0,0,1,.2.749c0,0.156-.009.332-0.028,0.526a1.674,1.674,0,0,0-.252-0.019H82.325a5.324,5.324,0,0,0-.921.073,2.213,2.213,0,0,0-.715.243,1.228,1.228,0,0,0-.463.458,1.42,1.42,0,0,0-.165.716,1.486,1.486,0,0,0,.105.575,1.3,1.3,0,0,0,.289.433,1.264,1.264,0,0,0,.435.278,1.519,1.519,0,0,0,.545.1,1.781,1.781,0,0,0,.926-0.239,1.345,1.345,0,0,0,.3-0.233,1.61,1.61,0,0,0,.206-0.268h0.046l0.193,0.681h0.541a3.368,3.368,0,0,1-.1-0.594q-0.027-.321-0.028-0.681,0-.5.028-1.052t0.027-1.14a2.8,2.8,0,0,0-.05-0.526,1.257,1.257,0,0,0-.2-0.482,1.077,1.077,0,0,0-.44-0.355,1.808,1.808,0,0,0-.765-0.136,4.257,4.257,0,0,0-.967.108,2.546,2.546,0,0,0-.811.331Zm0.486,3.092a0.741,0.741,0,0,1-.229-0.56,0.643,0.643,0,0,1,.124-0.4,0.837,0.837,0,0,1,.33-0.253,1.669,1.669,0,0,1,.477-0.127,4.375,4.375,0,0,1,.554-0.034c0.086,0,.172,0,0.261,0s0.176,0.008.261,0.014v0.809a1.137,1.137,0,0,1-.142.263,1.124,1.124,0,0,1-.243.248,1.3,1.3,0,0,1-.348.185,1.333,1.333,0,0,1-.458.073A0.814,0.814,0,0,1,81.051,104.063Zm4.72-5.994H85.037v5.843a1.118,1.118,0,0,0,.266.843,0.956,0.956,0,0,0,.678.248,2.479,2.479,0,0,0,.454-0.049,1.446,1.446,0,0,0,.408-0.126l-0.082-.614a1.388,1.388,0,0,1-.312.088,1.829,1.829,0,0,1-.257.019,0.368,0.368,0,0,1-.312-0.146,0.827,0.827,0,0,1-.11-0.487V98.069Zm2.676,0H87.713v5.843a1.118,1.118,0,0,0,.266.843,0.956,0.956,0,0,0,.678.248,2.477,2.477,0,0,0,.454-0.049,1.444,1.444,0,0,0,.408-0.126l-0.082-.614a1.391,1.391,0,0,1-.312.088,1.832,1.832,0,0,1-.257.019,0.368,0.368,0,0,1-.312-0.146,0.827,0.827,0,0,1-.11-0.487V98.069Zm2.016,2.9a1.663,1.663,0,0,1,.3-0.145,2.74,2.74,0,0,1,.357-0.11,3.689,3.689,0,0,1,.367-0.071,2.528,2.528,0,0,1,.335-0.025,0.989,0.989,0,0,1,.733.215,1.087,1.087,0,0,1,.2.749c0,0.156-.009.332-0.028,0.526a1.675,1.675,0,0,0-.252-0.019H92.222a5.324,5.324,0,0,0-.921.073,2.214,2.214,0,0,0-.715.243,1.228,1.228,0,0,0-.463.458,1.42,1.42,0,0,0-.165.716,1.488,1.488,0,0,0,.105.575,1.3,1.3,0,0,0,.289.433,1.265,1.265,0,0,0,.435.278,1.519,1.519,0,0,0,.545.1,1.781,1.781,0,0,0,.926-0.239,1.345,1.345,0,0,0,.3-0.233,1.615,1.615,0,0,0,.206-0.268h0.046L93,104.905h0.541a3.377,3.377,0,0,1-.1-0.594q-0.027-.321-0.027-0.681,0-.5.027-1.052t0.028-1.14a2.805,2.805,0,0,0-.05-0.526,1.257,1.257,0,0,0-.2-0.482,1.077,1.077,0,0,0-.44-0.355,1.808,1.808,0,0,0-.765-0.136,4.258,4.258,0,0,0-.967.108,2.547,2.547,0,0,0-.811.331Zm0.486,3.092a0.741,0.741,0,0,1-.229-0.56,0.643,0.643,0,0,1,.124-0.4,0.835,0.835,0,0,1,.33-0.253,1.67,1.67,0,0,1,.477-0.127,4.377,4.377,0,0,1,.554-0.034c0.086,0,.172,0,0.261,0s0.175,0.008.261,0.014v0.809a1.159,1.159,0,0,1-.385.511,1.3,1.3,0,0,1-.348.185,1.333,1.333,0,0,1-.458.073A0.814,0.814,0,0,1,90.948,104.063Zm3.3-3.365h0.715v2.844a2.072,2.072,0,0,0,.229,1.125,0.884,0.884,0,0,0,.788.336,2.454,2.454,0,0,0,.632-0.078,2.681,2.681,0,0,0,.541-0.2l-0.165-.594c-0.134.059-.256,0.106-0.366,0.142a1.342,1.342,0,0,1-.4.053,0.427,0.427,0,0,1-.4-0.209A1.551,1.551,0,0,1,95.7,103.4v-2.7h1.246v-0.682H95.7V98.828l-0.733.224v0.964H94.248V100.7Zm3.867,4.188h0.733v-4.87H98.115v4.87ZM98.1,98.906a0.483,0.483,0,0,0,.362.146,0.53,0.53,0,0,0,.376-0.146,0.485,0.485,0,0,0,.156-0.37,0.533,0.533,0,0,0-.156-0.385,0.5,0.5,0,0,0-.376-0.161,0.462,0.462,0,0,0-.362.161,0.561,0.561,0,0,0-.142.385A0.509,0.509,0,0,0,98.1,98.906Zm2.177,4.592a2.286,2.286,0,0,0,.366.809,1.642,1.642,0,0,0,.628.516,2.07,2.07,0,0,0,.894.18,1.784,1.784,0,0,0,1.489-.657,3.009,3.009,0,0,0,.518-1.9,4.3,4.3,0,0,0-.119-1.047,2.3,2.3,0,0,0-.367-0.808,1.635,1.635,0,0,0-.628-0.516,2.061,2.061,0,0,0-.893-0.18,1.786,1.786,0,0,0-1.49.657,3.006,3.006,0,0,0-.517,1.894A4.255,4.255,0,0,0,100.278,103.5Zm1.888-2.917a1.062,1.062,0,0,1,.577.151,1.165,1.165,0,0,1,.385.4,1.918,1.918,0,0,1,.215.595,3.62,3.62,0,0,1,.069.72q0,1.88-1.246,1.87a1.034,1.034,0,0,1-.578-0.156,1.19,1.19,0,0,1-.385-0.409,1.954,1.954,0,0,1-.215-0.594,3.573,3.573,0,0,1-.069-0.711q0-1.88,1.247-1.87h0Zm6.836,4.3v-2.941a4.317,4.317,0,0,0-.1-1,1.6,1.6,0,0,0-.284-0.629,0.992,0.992,0,0,0-.472-0.326,2.133,2.133,0,0,0-.66-0.092,1.843,1.843,0,0,0-.884.2,1.681,1.681,0,0,0-.591.512h-0.037l-0.137-.595h-0.513v4.87h0.733v-3.331a1.478,1.478,0,0,1,.444-0.7,1.172,1.172,0,0,1,.8-0.278,0.78,0.78,0,0,1,.756.385,2.487,2.487,0,0,1,.206,1.144v2.776H109Z"/>
              <path id="Installation-2" data-name="Installation" class="cls-4" d="M66,61.886h0.761V55.069H66v6.817Zm6.094,0V58.945a4.314,4.314,0,0,0-.1-1,1.6,1.6,0,0,0-.284-0.628,0.987,0.987,0,0,0-.472-0.326,2.137,2.137,0,0,0-.66-0.093,1.843,1.843,0,0,0-.884.2,1.687,1.687,0,0,0-.591.511H69.074l-0.138-.594H68.423v4.87h0.733V58.555a1.485,1.485,0,0,1,.444-0.7,1.171,1.171,0,0,1,.8-0.278,0.78,0.78,0,0,1,.756.385,2.494,2.494,0,0,1,.206,1.144v2.776H72.1Zm3.1-.73a1.178,1.178,0,0,1-.651.166,2.265,2.265,0,0,1-.687-0.107,2.594,2.594,0,0,1-.55-0.234l-0.22.662a2.7,2.7,0,0,0,.614.253,3.208,3.208,0,0,0,.889.107,2,2,0,0,0,.7-0.112,1.433,1.433,0,0,0,.5-0.307,1.19,1.19,0,0,0,.3-0.468,1.741,1.741,0,0,0,.1-0.584,1.333,1.333,0,0,0-.165-0.706,1.526,1.526,0,0,0-.408-0.443,2.232,2.232,0,0,0-.531-0.282q-0.289-.107-0.532-0.219a1.747,1.747,0,0,1-.408-0.253,0.491,0.491,0,0,1-.165-0.395,0.605,0.605,0,0,1,.188-0.506,0.963,0.963,0,0,1,.591-0.146,2.375,2.375,0,0,1,.637.083,2.777,2.777,0,0,1,.509.19l0.174-.643a3.108,3.108,0,0,0-.582-0.219,3.167,3.167,0,0,0-.829-0.093,1.542,1.542,0,0,0-1.045.326,1.291,1.291,0,0,0-.376,1.028,1.234,1.234,0,0,0,.165.682,1.414,1.414,0,0,0,.408.414,2.425,2.425,0,0,0,.532.263q0.289,0.1.531,0.214a1.39,1.39,0,0,1,.408.278,0.62,0.62,0,0,1,.165.458A0.652,0.652,0,0,1,75.2,61.156ZM76.689,57.7H77.4v2.844a2.071,2.071,0,0,0,.229,1.125,0.884,0.884,0,0,0,.788.336,2.46,2.46,0,0,0,.632-0.078,2.713,2.713,0,0,0,.541-0.2l-0.165-.594q-0.2.088-.367,0.141a1.319,1.319,0,0,1-.4.053,0.426,0.426,0,0,1-.4-0.209,1.55,1.55,0,0,1-.119-0.716V57.7h1.246V57.017H78.137V55.828l-0.733.224v0.964H76.689V57.7Zm3.867,0.273a1.737,1.737,0,0,1,.3-0.145,2.879,2.879,0,0,1,.357-0.11q0.188-.045.367-0.07a2.4,2.4,0,0,1,.334-0.025,0.991,0.991,0,0,1,.733.214,1.092,1.092,0,0,1,.2.75q0,0.234-.028.526a1.69,1.69,0,0,0-.252-0.019H82.316a5.354,5.354,0,0,0-.921.073,2.195,2.195,0,0,0-.715.244,1.223,1.223,0,0,0-.463.458,1.421,1.421,0,0,0-.165.716,1.481,1.481,0,0,0,.105.575,1.3,1.3,0,0,0,.289.433,1.258,1.258,0,0,0,.435.278,1.5,1.5,0,0,0,.545.1A1.839,1.839,0,0,0,81.95,61.9a1.817,1.817,0,0,0,.4-0.171,1.332,1.332,0,0,0,.3-0.234,1.6,1.6,0,0,0,.206-0.268H82.9L83.1,61.906h0.541a3.391,3.391,0,0,1-.1-0.594q-0.027-.321-0.028-0.682,0-.5.028-1.052t0.027-1.139a2.79,2.79,0,0,0-.05-0.526,1.256,1.256,0,0,0-.2-0.482,1.078,1.078,0,0,0-.44-0.355,1.809,1.809,0,0,0-.765-0.136,4.275,4.275,0,0,0-.967.107,2.55,2.55,0,0,0-.811.331Zm0.486,3.092a0.741,0.741,0,0,1-.229-0.56,0.643,0.643,0,0,1,.124-0.4,0.842,0.842,0,0,1,.33-0.253,1.68,1.68,0,0,1,.477-0.127,4.451,4.451,0,0,1,.555-0.034q0.128,0,.261,0T82.82,59.7v0.808a1.162,1.162,0,0,1-.385.511,1.3,1.3,0,0,1-.348.185,1.341,1.341,0,0,1-.458.073A0.814,0.814,0,0,1,81.042,61.063Zm4.72-5.994H85.029v5.843a1.115,1.115,0,0,0,.266.842,0.953,0.953,0,0,0,.678.248,2.528,2.528,0,0,0,.454-0.049,1.462,1.462,0,0,0,.408-0.127l-0.082-.614a1.415,1.415,0,0,1-.312.088,1.821,1.821,0,0,1-.257.019,0.367,0.367,0,0,1-.312-0.146,0.828,0.828,0,0,1-.11-0.487V55.069Zm2.676,0H87.7v5.843a1.116,1.116,0,0,0,.266.842,0.954,0.954,0,0,0,.678.248,2.528,2.528,0,0,0,.454-0.049,1.466,1.466,0,0,0,.408-0.127l-0.083-.614a1.415,1.415,0,0,1-.312.088,1.82,1.82,0,0,1-.257.019,0.367,0.367,0,0,1-.312-0.146,0.826,0.826,0,0,1-.11-0.487V55.069Zm2.016,2.9a1.733,1.733,0,0,1,.3-0.145,2.869,2.869,0,0,1,.357-0.11q0.188-.045.367-0.07a2.4,2.4,0,0,1,.334-0.025,0.991,0.991,0,0,1,.733.214,1.092,1.092,0,0,1,.2.75q0,0.234-.028.526a1.69,1.69,0,0,0-.252-0.019H92.214a5.353,5.353,0,0,0-.921.073,2.195,2.195,0,0,0-.715.244,1.222,1.222,0,0,0-.463.458,1.42,1.42,0,0,0-.165.716,1.481,1.481,0,0,0,.105.575,1.3,1.3,0,0,0,.289.433,1.259,1.259,0,0,0,.435.278,1.5,1.5,0,0,0,.545.1,1.839,1.839,0,0,0,.522-0.068,1.817,1.817,0,0,0,.4-0.171,1.332,1.332,0,0,0,.3-0.234,1.6,1.6,0,0,0,.206-0.268H92.8l0.193,0.682h0.541a3.391,3.391,0,0,1-.1-0.594q-0.027-.321-0.028-0.682,0-.5.028-1.052t0.027-1.139a2.79,2.79,0,0,0-.05-0.526,1.256,1.256,0,0,0-.2-0.482,1.077,1.077,0,0,0-.44-0.355A1.809,1.809,0,0,0,92,56.939a4.274,4.274,0,0,0-.967.107,2.55,2.55,0,0,0-.811.331Zm0.486,3.092a0.741,0.741,0,0,1-.229-0.56,0.643,0.643,0,0,1,.124-0.4,0.842,0.842,0,0,1,.33-0.253,1.679,1.679,0,0,1,.477-0.127,4.451,4.451,0,0,1,.554-0.034q0.128,0,.261,0T92.718,59.7v0.808a1.164,1.164,0,0,1-.385.511,1.3,1.3,0,0,1-.348.185,1.34,1.34,0,0,1-.458.073A0.814,0.814,0,0,1,90.94,61.063Zm3.3-3.365h0.715v2.844a2.071,2.071,0,0,0,.229,1.125,0.884,0.884,0,0,0,.788.336,2.459,2.459,0,0,0,.632-0.078,2.709,2.709,0,0,0,.541-0.2l-0.165-.594q-0.2.088-.367,0.141a1.319,1.319,0,0,1-.4.053,0.426,0.426,0,0,1-.4-0.209,1.548,1.548,0,0,1-.119-0.716V57.7h1.246V57.017H95.687V55.828l-0.733.224v0.964H94.239V57.7Zm3.867,4.188H98.84v-4.87H98.107v4.87Zm-0.014-5.98a0.483,0.483,0,0,0,.362.146,0.53,0.53,0,0,0,.376-0.146,0.486,0.486,0,0,0,.156-0.37,0.534,0.534,0,0,0-.156-0.385,0.5,0.5,0,0,0-.376-0.161,0.462,0.462,0,0,0-.362.161,0.561,0.561,0,0,0-.142.385A0.509,0.509,0,0,0,98.093,55.906Zm2.176,4.592a2.3,2.3,0,0,0,.367.808,1.635,1.635,0,0,0,.628.516,2.064,2.064,0,0,0,.893.18,1.786,1.786,0,0,0,1.49-.657,3.007,3.007,0,0,0,.517-1.894,4.3,4.3,0,0,0-.119-1.047,2.284,2.284,0,0,0-.366-0.808,1.644,1.644,0,0,0-.628-0.516,2.072,2.072,0,0,0-.894-0.18,1.784,1.784,0,0,0-1.489.657,3.007,3.007,0,0,0-.518,1.894A4.3,4.3,0,0,0,100.269,60.5Zm1.888-2.917a1.06,1.06,0,0,1,.578.151,1.154,1.154,0,0,1,.384.4,1.945,1.945,0,0,1,.216.594,3.627,3.627,0,0,1,.069.721q0,1.88-1.247,1.87a1.031,1.031,0,0,1-.577-0.156,1.2,1.2,0,0,1-.385-0.409,1.917,1.917,0,0,1-.215-0.594,3.575,3.575,0,0,1-.069-0.711q0-1.88,1.246-1.87h0Zm6.837,4.3V58.945a4.321,4.321,0,0,0-.1-1,1.6,1.6,0,0,0-.284-0.628,0.992,0.992,0,0,0-.472-0.326,2.142,2.142,0,0,0-.66-0.093,1.847,1.847,0,0,0-.885.2,1.694,1.694,0,0,0-.591.511H105.97l-0.138-.594h-0.513v4.87h0.733V58.555a1.489,1.489,0,0,1,.445-0.7,1.17,1.17,0,0,1,.8-0.278,0.781,0.781,0,0,1,.756.385,2.5,2.5,0,0,1,.206,1.144v2.776h0.733Z"/>
              <path id="Active" class="cls-5" d="M120.277,104.854h1.341l-2.346-6.8h-0.94l-2.346,6.8h1.276l0.493-1.5h2Zm-1.722-4.052,0.2-1.07H118.8l0.2,1.061,0.484,1.5h-1.4Zm6.432,2.8a1.782,1.782,0,0,1-.382.2,1.45,1.45,0,0,1-.521.082,1.025,1.025,0,0,1-.488-0.111,0.92,0.92,0,0,1-.34-0.3,1.431,1.431,0,0,1-.2-0.454,2.358,2.358,0,0,1-.065-0.569,1.823,1.823,0,0,1,.261-1.095,0.9,0.9,0,0,1,.763-0.342,1.781,1.781,0,0,1,.479.058,2.324,2.324,0,0,1,.424.164l0.288-1.023a2.707,2.707,0,0,0-.563-0.222,3.163,3.163,0,0,0-.823-0.087,1.867,1.867,0,0,0-1.546.66,2.953,2.953,0,0,0-.53,1.886,4.74,4.74,0,0,0,.107,1.042,2.165,2.165,0,0,0,.349.805,1.619,1.619,0,0,0,.628.516,2.2,2.2,0,0,0,.945.184,3.007,3.007,0,0,0,.815-0.111,2,2,0,0,0,.674-0.323Zm0.531-2.508h0.642v2.43a1.687,1.687,0,0,0,.3,1.124,1.2,1.2,0,0,0,.945.343,2.7,2.7,0,0,0,.68-0.087,3.066,3.066,0,0,0,.586-0.212l-0.214-.965a2.13,2.13,0,0,1-.3.116,1.168,1.168,0,0,1-.321.038,0.364,0.364,0,0,1-.367-0.217,1.874,1.874,0,0,1-.1-0.718v-1.852h1.135v-1.061H127.37V98.767l-1.21.357v0.907h-0.642v1.061Zm3.834,3.762h1.211v-4.823h-1.211v4.823Zm0.024-5.716a0.776,0.776,0,0,0,.554.188,0.848,0.848,0,0,0,.572-0.188,0.592,0.592,0,0,0,.219-0.468,0.621,0.621,0,0,0-.219-0.477,0.822,0.822,0,0,0-.572-0.2,0.754,0.754,0,0,0-.554.2,0.645,0.645,0,0,0-.2.477A0.613,0.613,0,0,0,129.376,99.138Zm3.123,0.893h-1.406l2.02,4.871h0.735l1.946-4.871h-1.3l-0.791,2.508-0.13.762h-0.047l-0.158-.743Zm6.953,3.588a1.869,1.869,0,0,1-.461.246,1.845,1.845,0,0,1-.684.12,1.134,1.134,0,0,1-.889-0.308,1.449,1.449,0,0,1-.3-0.917h2.793c0.031-.167.054-0.328,0.069-0.482a4.217,4.217,0,0,0,.024-0.434,2.433,2.433,0,0,0-.158-0.936,1.511,1.511,0,0,0-1.015-.916,2.484,2.484,0,0,0-.689-0.1,2.129,2.129,0,0,0-1.647.636,2.735,2.735,0,0,0-.587,1.91,3,3,0,0,0,.522,1.867,1.943,1.943,0,0,0,1.647.68,3.185,3.185,0,0,0,1.019-.16,2.338,2.338,0,0,0,.759-0.39Zm-0.731-2.44a1.249,1.249,0,0,1,.153.8h-1.731a1.486,1.486,0,0,1,.275-0.786,0.833,0.833,0,0,1,.7-0.294A0.673,0.673,0,0,1,138.721,101.179Z"/>
              <path id="Active-2" data-name="Active" class="cls-5" d="M120.277,61.854h1.341l-2.346-6.8h-0.94l-2.346,6.8h1.276l0.493-1.5h2ZM118.555,57.8l0.2-1.071H118.8l0.2,1.061,0.484,1.5h-1.4Zm6.432,2.8a1.806,1.806,0,0,1-.382.2,1.456,1.456,0,0,1-.521.082,1.023,1.023,0,0,1-.488-0.111,0.923,0.923,0,0,1-.34-0.3,1.427,1.427,0,0,1-.2-0.453A2.363,2.363,0,0,1,123,59.442a1.82,1.82,0,0,1,.261-1.095A0.9,0.9,0,0,1,124.019,58a1.8,1.8,0,0,1,.479.058,2.391,2.391,0,0,1,.424.164L125.21,57.2a2.724,2.724,0,0,0-.563-0.222,3.168,3.168,0,0,0-.823-0.087,1.866,1.866,0,0,0-1.546.661,2.951,2.951,0,0,0-.53,1.886,4.741,4.741,0,0,0,.107,1.042,2.165,2.165,0,0,0,.349.805,1.621,1.621,0,0,0,.628.516,2.2,2.2,0,0,0,.945.183,3.011,3.011,0,0,0,.815-0.111,1.989,1.989,0,0,0,.674-0.323Zm0.531-2.508h0.642v2.431a1.687,1.687,0,0,0,.3,1.124,1.2,1.2,0,0,0,.945.342,2.7,2.7,0,0,0,.68-0.087,3.012,3.012,0,0,0,.586-0.212l-0.214-.965a2.127,2.127,0,0,1-.3.116,1.174,1.174,0,0,1-.321.039,0.365,0.365,0,0,1-.367-0.217,1.879,1.879,0,0,1-.1-0.719V58.092h1.135V57.031H127.37V55.767l-1.21.357v0.907h-0.642v1.061Zm3.834,3.762h1.211V57.031h-1.211v4.823Zm0.024-5.715a0.776,0.776,0,0,0,.554.188,0.848,0.848,0,0,0,.572-0.188,0.592,0.592,0,0,0,.219-0.468,0.621,0.621,0,0,0-.219-0.477,0.822,0.822,0,0,0-.572-0.2,0.754,0.754,0,0,0-.554.2,0.645,0.645,0,0,0-.2.477A0.613,0.613,0,0,0,129.376,56.138Zm3.123,0.892h-1.406l2.02,4.871h0.735l1.946-4.871h-1.3L133.7,59.539l-0.13.762h-0.047l-0.158-.743Zm6.953,3.588a1.89,1.89,0,0,1-.461.246,1.835,1.835,0,0,1-.684.121,1.134,1.134,0,0,1-.889-0.309,1.448,1.448,0,0,1-.3-0.916h2.793q0.047-.251.069-0.482A4.222,4.222,0,0,0,140,58.844a2.431,2.431,0,0,0-.158-0.936,1.512,1.512,0,0,0-1.015-.916,2.48,2.48,0,0,0-.689-0.1,2.128,2.128,0,0,0-1.647.637,2.734,2.734,0,0,0-.587,1.91,3,3,0,0,0,.522,1.866,1.942,1.942,0,0,0,1.647.68,3.21,3.21,0,0,0,1.019-.159,2.332,2.332,0,0,0,.759-0.391Zm-0.731-2.44a1.251,1.251,0,0,1,.153.8h-1.731a1.487,1.487,0,0,1,.275-0.786,0.833,0.833,0,0,1,.7-0.294A0.675,0.675,0,0,1,138.721,58.179Z"/>
              <path id="Fulfilled" class="cls-6" d="M116,81.873h1.282V79.528h2.4V78.517h-2.4V77.084h2.6V76.074H116v5.8Zm4.68-4.142v2.576a2.855,2.855,0,0,0,.1.812,1.242,1.242,0,0,0,.285.514,1.065,1.065,0,0,0,.468.273,2.259,2.259,0,0,0,.637.083,1.887,1.887,0,0,0,.908-0.207,1.677,1.677,0,0,0,.6-0.522h0.037l0.215,0.613h0.918a3.747,3.747,0,0,1-.113-0.592,5.853,5.853,0,0,1-.037-0.667V77.73h-1.217v2.676a1.13,1.13,0,0,1-.341.447,0.9,0.9,0,0,1-.576.182,0.57,0.57,0,0,1-.529-0.224,1.473,1.473,0,0,1-.136-0.729V77.73h-1.216Zm6.336-1.657H125.8v4.971a0.865,0.865,0,0,0,.281.725,1.3,1.3,0,0,0,.814.22,3.032,3.032,0,0,0,.637-0.066,2.52,2.52,0,0,0,.458-0.133l-0.131-.845a1.446,1.446,0,0,1-.267.075,1.426,1.426,0,0,1-.219.017A0.3,0.3,0,0,1,127.1,80.9a0.814,0.814,0,0,1-.084-0.422V76.074Zm2.939,1.657a2.015,2.015,0,0,1,.028-0.356,0.512,0.512,0,0,1,.121-0.261,0.59,0.59,0,0,1,.262-0.157,1.483,1.483,0,0,1,.44-0.054,3.869,3.869,0,0,1,.768.07,2.573,2.573,0,0,1,.589.186l0.318-.837a2.885,2.885,0,0,0-.809-0.244,6.756,6.756,0,0,0-1.147-.087,2.115,2.115,0,0,0-1.329.36,1.372,1.372,0,0,0-.458,1.147V77.73H128.09v0.911h0.646v3.231h1.217V78.642h1.413v3.231h1.216V77.73h-2.629Zm4.988-1.657h-1.217v4.971a0.865,0.865,0,0,0,.281.725,1.3,1.3,0,0,0,.814.22,3.032,3.032,0,0,0,.637-0.066,2.52,2.52,0,0,0,.458-0.133l-0.131-.845a1.446,1.446,0,0,1-.267.075,1.426,1.426,0,0,1-.219.017,0.3,0.3,0,0,1-.272-0.133,0.814,0.814,0,0,1-.084-0.422V76.074Zm2.751,0h-1.216v4.971a0.865,0.865,0,0,0,.28.725,1.3,1.3,0,0,0,.815.22,3.03,3.03,0,0,0,.636-0.066,2.536,2.536,0,0,0,.459-0.133l-0.131-.845a1.267,1.267,0,0,1-.487.091,0.3,0.3,0,0,1-.271-0.133,0.8,0.8,0,0,1-.085-0.422V76.074Zm4.839,4.739a2.011,2.011,0,0,1-.463.211,2.127,2.127,0,0,1-.688.1,1.26,1.26,0,0,1-.894-0.265,1.133,1.133,0,0,1-.3-0.787h2.808c0.031-.144.054-0.282,0.07-0.414a3.332,3.332,0,0,0,.023-0.373,1.813,1.813,0,0,0-.159-0.8,1.373,1.373,0,0,0-.421-0.514,1.7,1.7,0,0,0-.6-0.273,2.9,2.9,0,0,0-.693-0.083,2.344,2.344,0,0,0-1.656.547,2.131,2.131,0,0,0-.59,1.64,2.315,2.315,0,0,0,.524,1.6,2.123,2.123,0,0,0,1.657.584,3.745,3.745,0,0,0,1.025-.137,2.509,2.509,0,0,0,.762-0.335Zm-0.735-2.1a0.946,0.946,0,0,1,.155.688H140.21a1.164,1.164,0,0,1,.276-0.675,0.909,0.909,0,0,1,.707-0.253A0.726,0.726,0,0,1,141.8,78.716Zm6.126-2.643h-1.217v1.682a2.109,2.109,0,0,0-.374-0.1,3.244,3.244,0,0,0-.478-0.029,2.06,2.06,0,0,0-1.591.588,2.34,2.34,0,0,0-.542,1.649,2.274,2.274,0,0,0,.486,1.607,2.053,2.053,0,0,0,2.2.335,1.348,1.348,0,0,0,.538-0.468h0.038l0.168,0.538h0.87a5.214,5.214,0,0,1-.084-0.77q-0.009-.348-0.009-0.7V76.074Zm-2.738,4.681a1.545,1.545,0,0,1-.21-0.853,1.653,1.653,0,0,1,.257-1.052A0.952,0.952,0,0,1,146,78.542a1.535,1.535,0,0,1,.412.046,0.971,0.971,0,0,1,.29.137v1.756a0.815,0.815,0,0,1-.29.443,0.921,0.921,0,0,1-.562.153A0.741,0.741,0,0,1,145.184,80.754Z"/>
            </g>
            <path class="cls-7" d="M34,67H154v1H34V67Zm0,22H154v1H34V89Z"/>
          </g>
        </g>
      </g>
      <circle id="Ellipse_3_copy" data-name="Ellipse 3 copy" class="cls-8" cx="158.063" cy="44.281" r="10"/>
      <path id="_copy" data-name="$ copy" class="cls-9" d="M159.8,47.966a1.94,1.94,0,0,1-1.272.369,2.007,2.007,0,0,1-1.287-.4,1.629,1.629,0,0,1-.509-1.353h-1.708l-0.014.034a2.69,2.69,0,0,0,.817,2.194,3.691,3.691,0,0,0,2.156.868V51h1.156V49.668a3.52,3.52,0,0,0,2.1-.834,2.738,2.738,0,0,0,.007-3.794,5.986,5.986,0,0,0-2.3-1.169,4.308,4.308,0,0,1-1.425-.718,1.221,1.221,0,0,1-.385-0.943,1.357,1.357,0,0,1,.37-1,1.55,1.55,0,0,1,1.141-.373,1.444,1.444,0,0,1,1.142.461,1.831,1.831,0,0,1,.407,1.254h1.708l0.022-.034a2.951,2.951,0,0,0-.683-2.071,3.016,3.016,0,0,0-1.963-.943V38h-1.156v1.49a3.247,3.247,0,0,0-2.013.865,2.518,2.518,0,0,0-.735,1.87,2.453,2.453,0,0,0,.771,1.911,6.005,6.005,0,0,0,2.312,1.166,3.794,3.794,0,0,1,1.377.7,1.262,1.262,0,0,1,.4.96A1.237,1.237,0,0,1,159.8,47.966Z"/>
      <circle class="cls-10" cx="167.063" cy="87.281" r="10"/>
      <path id="_" data-name="$" class="cls-9" d="M168.8,90.966a1.94,1.94,0,0,1-1.272.369,2.007,2.007,0,0,1-1.287-.4,1.629,1.629,0,0,1-.509-1.354h-1.708l-0.014.034a2.69,2.69,0,0,0,.817,2.194,3.691,3.691,0,0,0,2.156.868V94h1.156V92.668a3.52,3.52,0,0,0,2.1-.834,2.738,2.738,0,0,0,.007-3.794,5.986,5.986,0,0,0-2.3-1.169,4.308,4.308,0,0,1-1.425-.718,1.221,1.221,0,0,1-.385-0.943,1.357,1.357,0,0,1,.37-1,1.55,1.55,0,0,1,1.141-.373,1.444,1.444,0,0,1,1.142.461,1.831,1.831,0,0,1,.407,1.254h1.708l0.022-.034a2.951,2.951,0,0,0-.683-2.071,3.016,3.016,0,0,0-1.963-.943V81h-1.156v1.49a3.247,3.247,0,0,0-2.013.865,2.518,2.518,0,0,0-.735,1.87,2.453,2.453,0,0,0,.771,1.911,6.005,6.005,0,0,0,2.312,1.166,3.794,3.794,0,0,1,1.377.7,1.262,1.262,0,0,1,.4.96A1.237,1.237,0,0,1,168.8,90.966Z"/>
    </g>
  </g>
</svg>
