<svg id="icon" xmlns="http://www.w3.org/2000/svg" width="181" height="122" viewBox="0 0 181 122">
  <defs>
    <style>
      .cls-1, .cls-9 {
        fill: #eef3fe;
      }

      .cls-1, .cls-10, .cls-11, .cls-2, .cls-3, .cls-4, .cls-5, .cls-6, .cls-7, .cls-8 {
        fill-rule: evenodd;
      }

      .cls-2 {
        fill: #8388e4;
      }

      .cls-12, .cls-3 {
        fill: #fff;
        stroke: #e3e3e3;
        stroke-linejoin: round;
        stroke-width: 1px;
      }

      .cls-4 {
        fill: #6493ff;
      }

      .cls-5 {
        fill: #dee8ea;
      }

      .cls-6 {
        fill: #5387ff;
      }

      .cls-6, .cls-7 {
        opacity: 0.7;
      }

      .cls-7 {
        fill: #ffc501;
      }

      .cls-10 {
        fill: #3be2a9;
      }

      .cls-11 {
        fill: #343439;
      }
    </style>
  </defs>
  <path class="cls-1" d="M19,68.019c0.518-12.348,3.106-22.638,28.987-30.87S81.739,25.287,94.68,17.569c10.426-6.394,42.473-5.832,57.974,15.435,10.784,14.8,10.007,34.037-2.07,47.334-10.26,11.3-31.5,20.432-52.8,24.7-21.692,4.344-37.893,1.057-53.939-5.117S18.655,82.768,19,68.019Z"/>
  <path id="_2" data-name="2" class="cls-2" d="M97.27,38.7s-1.387,3.563,2.079,1.856c0.233-.261,5.672-6.2,5.672-6.2s0.393-1.172,1.479-.085l5.171,4.148s1.669,0.669,2.438-.635l3.7-4.66s0.989-1.576,1.945-.606l1.915,1.526a1.64,1.64,0,0,0,2.109-.276l4.631-5.7s0.872-.335,1.013.435l0.135,2.463a1.505,1.505,0,0,0,2.437-.635l-0.324-5.91A1.176,1.176,0,0,0,130.6,23l-6.407.37s-1.925.507-.358,2.491l2.957-.171a1.938,1.938,0,0,1,.054.985l-4.219,4.2s-0.067.584-.986,0.057l-2.052-1.364a3.624,3.624,0,0,0-1.06-.124c-0.808.132-1.6,1.109-1.351,1.251-0.319-.185-4.219,4.2-4.219,4.2s-0.851.938-1.479,0.085l-5.2-4.64a1.914,1.914,0,0,0-1.945.606Z"/>
  <g id="calendar">
    <path id="Rounded_Rectangle_598" data-name="Rounded Rectangle 598" class="cls-3" d="M115.687,45.268l36.9,6.679a4.68,4.68,0,0,1,3.591,5.569l-4.05,26.24a4.7,4.7,0,0,1-5.563,3.618L110.9,82.621a4.68,4.68,0,0,1-3.591-5.569l2.814-28.167A4.7,4.7,0,0,1,115.687,45.268Z"/>
    <path class="cls-4" d="M110,52s-0.156-7.84,6-7c5.777,1.261,36,6,36,6s5.168,1.89,4,9Z"/>
    <path id="Rounded_Rectangle_600" data-name="Rounded Rectangle 600" class="cls-3" d="M120.709,43.942a1.283,1.283,0,0,1,.963,1.56l-0.419,3.856a1.331,1.331,0,0,1-1.546,1.037,1.283,1.283,0,0,1-.963-1.56l0.419-3.856A1.331,1.331,0,0,1,120.709,43.942ZM133.852,45.5a1.283,1.283,0,0,1,.963,1.56L134.4,50.917a1.331,1.331,0,0,1-1.546,1.037,1.283,1.283,0,0,1-.963-1.56l0.419-3.856A1.331,1.331,0,0,1,133.852,45.5Zm12.934,2.048a1.283,1.283,0,0,1,.963,1.56l-0.419,3.856A1.331,1.331,0,0,1,145.785,54a1.283,1.283,0,0,1-.963-1.56l0.419-3.856A1.331,1.331,0,0,1,146.786,47.549Z"/>
    <path id="Rounded_Rectangle_601_copy" data-name="Rounded Rectangle 601 copy" class="cls-5" d="M116.194,57.621l4.774,0.9a0.322,0.322,0,0,1,.261.373l-0.812,4.384a0.32,0.32,0,0,1-.376.254l-4.774-.895a0.322,0.322,0,0,1-.261-0.373l0.812-4.384A0.32,0.32,0,0,1,116.194,57.621Zm9.835,1.942,4.775,0.895a0.322,0.322,0,0,1,.26.373l-0.811,4.384a0.321,0.321,0,0,1-.377.254l-4.774-.895a0.322,0.322,0,0,1-.26-0.373l0.811-4.384A0.32,0.32,0,0,1,126.029,59.563Zm-11.217,5.542L119.586,66a0.322,0.322,0,0,1,.26.373l-0.811,4.384a0.321,0.321,0,0,1-.377.253l-4.774-.895a0.322,0.322,0,0,1-.26-0.373l0.811-4.384A0.321,0.321,0,0,1,114.812,65.105Zm9.835,1.942,4.774,0.895a0.322,0.322,0,0,1,.261.373L128.87,72.7a0.32,0.32,0,0,1-.376.254l-4.774-.9a0.322,0.322,0,0,1-.261-0.373l0.812-4.384A0.32,0.32,0,0,1,124.647,67.048Zm9.985,1.58,4.774,0.895a0.322,0.322,0,0,1,.261.373l-0.812,4.384a0.32,0.32,0,0,1-.376.254l-4.775-.895a0.322,0.322,0,0,1-.26-0.373l0.812-4.384A0.32,0.32,0,0,1,134.632,68.628Zm10.166-6.64,4.774,0.9a0.322,0.322,0,0,1,.26.373l-0.811,4.384a0.321,0.321,0,0,1-.377.254L143.87,67a0.322,0.322,0,0,1-.26-0.373l0.811-4.384A0.321,0.321,0,0,1,144.8,61.987Zm-1.383,7.484,4.775,0.895a0.322,0.322,0,0,1,.26.373l-0.812,4.384a0.32,0.32,0,0,1-.376.254l-4.774-.895a0.322,0.322,0,0,1-.261-0.373l0.812-4.384A0.32,0.32,0,0,1,143.415,69.472Zm-29,3.843,4.775,0.895a0.322,0.322,0,0,1,.26.373l-0.812,4.384a0.32,0.32,0,0,1-.376.254l-4.774-.895a0.322,0.322,0,0,1-.26-0.373l0.811-4.384A0.32,0.32,0,0,1,114.419,73.315Zm9.46,2.2,10.361,1.327,4.774,0.9a0.322,0.322,0,0,1,.26.373l-0.811,4.384a0.321,0.321,0,0,1-.377.254l-4.774-.895a0.322,0.322,0,0,1-.26-0.373l0.811-4.384A0.321,0.321,0,0,1,134.24,76.837Z"/>
    <path id="Rounded_Rectangle_601_copy_3" data-name="Rounded Rectangle 601 copy 3" class="cls-6" d="M124.255,75.257l4.774,0.895a0.322,0.322,0,0,1,.26.373l-0.811,4.384a0.321,0.321,0,0,1-.376.254l-4.775-.895a0.322,0.322,0,0,1-.26-0.373l0.812-4.384A0.32,0.32,0,0,1,124.255,75.257Z"/>
    <path id="Rounded_Rectangle_601_copy_4" data-name="Rounded Rectangle 601 copy 4" class="cls-7" d="M135.648,61.213l4.775,0.895a0.322,0.322,0,0,1,.26.373l-0.812,4.384a0.32,0.32,0,0,1-.376.254l-4.774-.895a0.322,0.322,0,0,1-.26-0.373l0.811-4.384A0.32,0.32,0,0,1,135.648,61.213Z"/>
  </g>
  <g id="graph">
    <path class="cls-3" d="M97.467,86.007h13.581s7.27,4.841,2.037,16.085c0,0-1.048,2.016-11.544,1.9H93.393S89.854,97.259,90,96.5,97.467,86.007,97.467,86.007Z"/>
    <path class="cls-3" d="M40.227,20H95.96c3.651,0,6.04,2.206,6.04,8l0.026,69.678s2.05,5.914,6.974,6.322H45s-9-.077-9-11L35,26S34.408,21.005,40.227,20Z"/>
    <path id="Task" class="cls-8" d="M47.72,27.985H42.013V28.82h2.4v7.056h0.913V28.82h2.4V27.985ZM47.8,31.345a2.114,2.114,0,0,1,.357-0.168,3.53,3.53,0,0,1,.429-0.128q0.225-.052.44-0.081a2.992,2.992,0,0,1,.4-0.029,1.218,1.218,0,0,1,.88.248,1.232,1.232,0,0,1,.242.868q0,0.27-.033.609a2.09,2.09,0,0,0-.3-0.023h-0.3a6.65,6.65,0,0,0-1.105.085,2.7,2.7,0,0,0-.858.282,1.443,1.443,0,0,0-.555.53,1.6,1.6,0,0,0-.2.828,1.664,1.664,0,0,0,.126.665,1.5,1.5,0,0,0,.346.5,1.514,1.514,0,0,0,.522.321,1.861,1.861,0,0,0,.654.113,2.278,2.278,0,0,0,.627-0.079,2.22,2.22,0,0,0,.484-0.2,1.593,1.593,0,0,0,.357-0.27,1.86,1.86,0,0,0,.247-0.31h0.055L50.843,35.9h0.649a3.8,3.8,0,0,1-.121-0.688q-0.033-.372-0.033-0.789,0-.575.033-1.217T51.4,31.886a3.125,3.125,0,0,0-.061-0.609,1.429,1.429,0,0,0-.242-0.558,1.285,1.285,0,0,0-.528-0.411,2.241,2.241,0,0,0-.918-0.158,5.307,5.307,0,0,0-1.16.124,3.121,3.121,0,0,0-.973.383Zm0.583,3.579a0.842,0.842,0,0,1-.275-0.648,0.727,0.727,0,0,1,.148-0.468,1.007,1.007,0,0,1,.4-0.293,2.067,2.067,0,0,1,.572-0.147,5.527,5.527,0,0,1,.665-0.039q0.154,0,.313.006t0.313,0.017v0.936a1.288,1.288,0,0,1-.17.3,1.34,1.34,0,0,1-.291.287,1.577,1.577,0,0,1-.418.214,1.661,1.661,0,0,1-.55.085A1,1,0,0,1,48.38,34.924Zm6.8,0.107a1.454,1.454,0,0,1-.781.192A2.809,2.809,0,0,1,53.57,35.1a3.181,3.181,0,0,1-.66-0.27l-0.264.767a3.309,3.309,0,0,0,.737.293,3.978,3.978,0,0,0,1.067.124,2.47,2.47,0,0,0,.841-0.13,1.73,1.73,0,0,0,.6-0.355,1.375,1.375,0,0,0,.357-0.541,1.954,1.954,0,0,0,.116-0.676,1.5,1.5,0,0,0-.2-0.817,1.8,1.8,0,0,0-.489-0.513,2.716,2.716,0,0,0-.638-0.327Q54.692,32.528,54.4,32.4a2.105,2.105,0,0,1-.489-0.293,0.559,0.559,0,0,1-.2-0.457,0.688,0.688,0,0,1,.225-0.586,1.189,1.189,0,0,1,.709-0.169,2.95,2.95,0,0,1,.764.1,3.421,3.421,0,0,1,.61.22l0.209-.744a3.814,3.814,0,0,0-.7-0.254,3.932,3.932,0,0,0-1-.107,1.9,1.9,0,0,0-1.254.378,1.465,1.465,0,0,0-.451,1.189,1.39,1.39,0,0,0,.2.789,1.668,1.668,0,0,0,.489.479,2.956,2.956,0,0,0,.638.3q0.347,0.118.638,0.248a1.677,1.677,0,0,1,.489.321,0.7,0.7,0,0,1,.2.53A0.745,0.745,0,0,1,55.176,35.031Zm5.74,0.845H62l-1.836-2.547-0.55-.451,0.451-.372,1.682-2.266H60.729l-1.7,2.39-0.451.158v-4.8h-0.88v7.891h0.88V33.34h0.506Z"/>
    <g>
      <rect id="Rounded_Rectangle_601" data-name="Rounded Rectangle 601" class="cls-9" x="43" y="44" width="12" height="12" rx="1" ry="1"/>
      <path id="Forma_1" data-name="Forma 1" class="cls-10" d="M52.906,47.182L48.023,52.4,46.049,50.29a0.593,0.593,0,0,0-.878,0,0.7,0.7,0,0,0,0,.938l2.413,2.578a0.593,0.593,0,0,0,.878,0v0l5.32-5.684a0.7,0.7,0,0,0,0-.938A0.593,0.593,0,0,0,52.906,47.182Z"/>
      <path id="Meeting" class="cls-11" d="M60.291,46.521h-1.3V53.8h0.992V48.165l0.03,0L62.3,53.8h0.69l2.221-5.459,0.03,0V53.8H66.23V46.521H65l-2.342,5.914h-0.03Zm10.93,7.191a2.385,2.385,0,0,0,.771-0.472L71.6,52.6a1.975,1.975,0,0,1-.652.392,2.513,2.513,0,0,1-.884.143,1.271,1.271,0,0,1-1.108-.507,2.222,2.222,0,0,1-.363-1.322l0.015-.025H72.1V50.76a2.767,2.767,0,0,0-.547-1.795,1.985,1.985,0,0,0-1.64-.675,2.131,2.131,0,0,0-1.655.762,2.794,2.794,0,0,0-.678,1.927V51.2a2.853,2.853,0,0,0,.657,1.96,2.314,2.314,0,0,0,1.831.745A3.092,3.092,0,0,0,71.221,53.712ZM70.813,49.45a1.568,1.568,0,0,1,.292.975v0.08H68.647l-0.01-.025a1.873,1.873,0,0,1,.416-1.017,1.082,1.082,0,0,1,.859-0.4A1.059,1.059,0,0,1,70.813,49.45Zm5.808,4.262a2.385,2.385,0,0,0,.771-0.472L77,52.6a1.975,1.975,0,0,1-.652.392,2.513,2.513,0,0,1-.884.143,1.271,1.271,0,0,1-1.108-.507A2.222,2.222,0,0,1,74,51.305l0.015-.025H77.5V50.76a2.767,2.767,0,0,0-.546-1.795,1.985,1.985,0,0,0-1.64-.675,2.131,2.131,0,0,0-1.655.762,2.794,2.794,0,0,0-.677,1.927V51.2a2.853,2.853,0,0,0,.657,1.96,2.314,2.314,0,0,0,1.831.745A3.092,3.092,0,0,0,76.621,53.712ZM76.213,49.45a1.568,1.568,0,0,1,.292.975v0.08H74.047l-0.01-.025a1.873,1.873,0,0,1,.415-1.017,1.082,1.082,0,0,1,.859-0.4A1.059,1.059,0,0,1,76.213,49.45ZM79,47.086v1.3H78.132v0.73H79V52.4a1.566,1.566,0,0,0,.358,1.137,1.29,1.29,0,0,0,.962.362,1.665,1.665,0,0,0,.428-0.058,0.881,0.881,0,0,0,.328-0.148l-0.136-.675a1.427,1.427,0,0,1-.176.047,0.928,0.928,0,0,1-.191.023,0.575,0.575,0,0,1-.421-0.155,0.731,0.731,0,0,1-.159-0.535V49.12h1.033V48.39H79.991v-1.3H79Zm4.161,1.3H82.167V53.8h0.992V48.39Zm0-2.39H82.167v1h0.992V46Zm1.526,2.39V53.8h0.992V49.785a1.33,1.33,0,0,1,.506-0.512,1.548,1.548,0,0,1,.778-0.182,1.145,1.145,0,0,1,.869.3,1.456,1.456,0,0,1,.285,1.015V53.8h0.992V50.385a2.239,2.239,0,0,0-.483-1.582,1.787,1.787,0,0,0-1.365-.512,1.831,1.831,0,0,0-.934.238,1.972,1.972,0,0,0-.683.667l-0.07-.8H84.685Zm5.687,2.91a2.974,2.974,0,0,0,.562,1.887,1.869,1.869,0,0,0,1.559.717,2.005,2.005,0,0,0,.861-0.175,1.754,1.754,0,0,0,.64-0.515V53.83a1.351,1.351,0,0,1-.33,1,1.453,1.453,0,0,1-1.055.327,3.579,3.579,0,0,1-.8-0.093,2.884,2.884,0,0,1-.693-0.242l-0.151.765a3.339,3.339,0,0,0,.8.292,3.714,3.714,0,0,0,.849.107,2.516,2.516,0,0,0,1.758-.557,2.056,2.056,0,0,0,.609-1.6V48.39H94.195l-0.121.7a1.83,1.83,0,0,0-.66-0.6A1.925,1.925,0,0,0,92.5,48.29a1.809,1.809,0,0,0-1.569.8,3.589,3.589,0,0,0-.562,2.1v0.1Zm0.992-.1a3,3,0,0,1,.34-1.52,1.132,1.132,0,0,1,1.05-.585,1.316,1.316,0,0,1,.74.2,1.534,1.534,0,0,1,.5.547v2.49a1.54,1.54,0,0,1-.5.572,1.32,1.32,0,0,1-.751.2A1.174,1.174,0,0,1,91.7,52.61a2.284,2.284,0,0,1-.337-1.31V51.2Z"/>
    </g>
    <g id="Group_18_copy" data-name="Group 18 copy">
      <rect id="Rounded_Rectangle_601-2" data-name="Rounded Rectangle 601" class="cls-9" x="43" y="64" width="12" height="12" rx="1" ry="1"/>
      <path id="Forma_1_copy_16" data-name="Forma 1 copy 16" class="cls-10" d="M52.906,67.182L48.023,72.4,46.049,70.29a0.593,0.593,0,0,0-.878,0,0.7,0.7,0,0,0,0,.938l2.413,2.577a0.593,0.593,0,0,0,.878,0v0l5.32-5.684a0.7,0.7,0,0,0,0-.938A0.593,0.593,0,0,0,52.906,67.182Z"/>
      <path id="Call" class="cls-11" d="M63.823,72.217a1.931,1.931,0,0,1-.482,1.392,1.793,1.793,0,0,1-1.36.5,1.632,1.632,0,0,1-1.408-.757,3.238,3.238,0,0,1-.525-1.89V69.98a3.218,3.218,0,0,1,.525-1.879,1.632,1.632,0,0,1,1.408-.757,1.788,1.788,0,0,1,1.36.507,1.916,1.916,0,0,1,.482,1.378h1.012l0.011-.034a2.555,2.555,0,0,0-.76-1.984,2.917,2.917,0,0,0-2.1-.749,2.676,2.676,0,0,0-2.156,1,3.818,3.818,0,0,0-.833,2.531v1.474a3.807,3.807,0,0,0,.833,2.528,2.679,2.679,0,0,0,2.156,1,2.844,2.844,0,0,0,2.094-.786,2.568,2.568,0,0,0,.771-1.953l-0.011-.034H63.823Zm6.9,2.653a3.458,3.458,0,0,1-.118-0.6,6.11,6.11,0,0,1-.032-0.638V70.663a1.944,1.944,0,0,0-.6-1.534,2.3,2.3,0,0,0-1.585-.532,2.359,2.359,0,0,0-1.625.558,1.507,1.507,0,0,0-.592,1.23l0.011,0.034,1-.011a0.838,0.838,0,0,1,.316-0.655,1.224,1.224,0,0,1,.83-0.273,1.085,1.085,0,0,1,1.189,1.173v0.609H68.37a3,3,0,0,0-1.824.5,1.622,1.622,0,0,0-.672,1.381,1.876,1.876,0,0,0,.474,1.358,1.826,1.826,0,0,0,1.379.492,1.879,1.879,0,0,0,1.02-.3,2.522,2.522,0,0,0,.769-0.743,3.8,3.8,0,0,0,.035.43q0.029,0.214.083,0.492h1.087ZM67.17,73.811a0.873,0.873,0,0,1-.241-0.649,1.045,1.045,0,0,1,.383-0.8,1.475,1.475,0,0,1,1.02-.342h1.184v1a1.465,1.465,0,0,1-.6.717,1.8,1.8,0,0,1-1.034.313A0.971,0.971,0,0,1,67.17,73.811Zm6.073-7.822H72.188V74.87h1.055V65.989Zm2.763,0H74.952V74.87h1.055V65.989Z"/>
      <rect id="Rounded_Rectangle_601_copy_2" data-name="Rounded Rectangle 601 copy 2" class="cls-12" x="43" y="83" width="12" height="12" rx="1" ry="1"/>
      <path id="Email" class="cls-11" d="M63.008,88.708H59.983V86.324h3.485V85.54H58.986v7.368h4.537V92.129H59.983V89.492h3.025V88.708Zm1.558-1.275v5.475h1V88.855a1.21,1.21,0,0,1,.45-0.526,1.369,1.369,0,0,1,.749-0.187,0.992,0.992,0,0,1,.822.357,1.8,1.8,0,0,1,.286,1.126v3.284h1V89.391a1.543,1.543,0,0,1,.372-0.9,1.056,1.056,0,0,1,.827-0.354,1.014,1.014,0,0,1,.83.337,1.821,1.821,0,0,1,.278,1.146v3.284h1V89.634a2.625,2.625,0,0,0-.486-1.728,1.638,1.638,0,0,0-1.32-.574,1.793,1.793,0,0,0-.989.271,2.049,2.049,0,0,0-.685.741,1.532,1.532,0,0,0-.589-0.759,1.693,1.693,0,0,0-.938-0.253,2.044,2.044,0,0,0-.959.215,1.86,1.86,0,0,0-.68.6l-0.071-.719h-0.89ZM78.01,92.908a2.926,2.926,0,0,1-.111-0.537,5.14,5.14,0,0,1-.03-0.567V89.168A1.676,1.676,0,0,0,77.3,87.8a2.259,2.259,0,0,0-1.5-.473,2.316,2.316,0,0,0-1.535.5,1.31,1.31,0,0,0-.559,1.093l0.01,0.03,0.946-.01a0.729,0.729,0,0,1,.3-0.582,1.2,1.2,0,0,1,.784-0.243,1.152,1.152,0,0,1,.83.281,1,1,0,0,1,.293.762V89.7H75.79a2.964,2.964,0,0,0-1.722.443,1.414,1.414,0,0,0-.635,1.227,1.611,1.611,0,0,0,.448,1.207,1.789,1.789,0,0,0,1.3.438,1.856,1.856,0,0,0,.964-0.266,2.323,2.323,0,0,0,.726-0.66,3.229,3.229,0,0,0,.033.382q0.028,0.19.078,0.438H78.01Zm-3.353-.941a0.751,0.751,0,0,1-.228-0.577,0.908,0.908,0,0,1,.362-0.713,1.449,1.449,0,0,1,.963-0.3h1.118v0.891a1.322,1.322,0,0,1-.567.638,1.772,1.772,0,0,1-.976.278A0.952,0.952,0,0,1,74.657,91.967Zm5.736-4.534h-1v5.475h1V87.433Zm0-2.419h-1v1.017h1V85.014Zm2.61,0h-1v7.894h1V85.014Z"/>
    </g>
  </g>
</svg>
