<svg xmlns="http://www.w3.org/2000/svg" width="142" height="93" viewBox="0 0 142 93">
  <metadata><?xpacket begin="﻿" id="W5M0MpCehiHzreSzNTczkc9d"?>
<x:xmpmeta xmlns:x="adobe:ns:meta/" x:xmptk="Adobe XMP Core 5.6-c142 79.160924, 2017/07/13-01:06:39        ">
   <rdf:RDF xmlns:rdf="http://www.w3.org/1999/02/22-rdf-syntax-ns#">
      <rdf:Description rdf:about=""/>
   </rdf:RDF>
</x:xmpmeta>
                                                                                                    
                                                                                                    
                                                                                                    
                                                                                                    
                                                                                                    
                                                                                                    
                                                                                                    
                                                                                                    
                                                                                                    
                                                                                                    
                                                                                                    
                                                                                                    
                                                                                                    
                                                                                                    
                                                                                                    
                                                                                                    
                                                                                                    
                                                                                                    
                                                                                                    
                                                                                                    
                           
<?xpacket end="w"?></metadata>
<defs>
    <style>
      .cls-1 {
        fill: #eef3fe;
      }

      .cls-1, .cls-2, .cls-3, .cls-4, .cls-5, .cls-6, .cls-7, .cls-8 {
        fill-rule: evenodd;
      }

      .cls-2 {
        fill: #f3d5af;
      }

      .cls-3 {
        fill: #5387ff;
      }

      .cls-4, .cls-7 {
        fill: #fff;
      }

      .cls-4 {
        opacity: 0.5;
      }

      .cls-5 {
        fill: #fbe3c5;
      }

      .cls-6 {
        fill: #343439;
      }

      .cls-7 {
        stroke: #fff;
        stroke-linejoin: round;
        stroke-width: 3px;
      }

      .cls-8 {
        fill: #8388e4;
      }
    </style>
  </defs>
  <path class="cls-1" d="M0,54c0.517-12.344,3.1-22.63,28.942-30.86s33.7-11.859,46.62-19.573C85.973-2.824,117.97-2.262,133.447,19c10.768,14.791,9.992,34.026-2.067,47.318C121.136,77.608,99.931,86.741,78.664,91c-21.658,4.342-37.834,1.057-53.856-5.115S-0.345,68.745,0,54Z"/>
  <path class="cls-2" d="M62.513,42.629s-2.536,5.428-5.055,6.305l11.375,8.827L80.208,56.5l-1.264-7.566s-1.412-1.057-3.792-6.305C72.589,36.974,62.513,42.629,62.513,42.629Z"/>
  <path class="cls-3" d="M60.066,46.522s-25.9,3.606-25.03,33.082c0,0,31.444,21.152,65.23,1.261,0,0,4.083-29.308-22.586-35.308C77.68,45.557,70.02,58.541,60.066,46.522Z"/>
  <path class="cls-4" d="M66.3,51.862a4.82,4.82,0,0,0,1.264,5.044L65.513,87.621s-0.119,2.161,3.083,2.24c2.323,0.057,3.383-1.094,3.514-2.24L70.1,56.906s2.293-2.646,1.264-5.044C71.309,51.132,66.808,51.524,66.3,51.862Z"/>
  <path class="cls-5" d="M53.666,24.974S50.159,29.7,56.194,32.54c0,0,.22,6.837,6.32,10.088,0.553,0.158,15.412,4.765,17.695-10.088,0,0,4.96-2.778,2.528-7.566,0,0-1.834-8.926-2.528-8.827s-12.639-3.783-12.639-3.783l-13.9,6.305v6.305"/>
  <path class="cls-6" d="M54.632,26.218s0.827-1.192-1.208-2.176c0-12.134,4.809-18.018,14.218-18.018,10.383-.137,14.764,6.006,14.764,17.618,0,0-1.562-.12-1.2,2.576,0,1.2-2.416,1.2-2.416,0-0.021-1.348,0-3.629,0-3.629l-6.041-6.048S61.428,23.782,57.048,23.8v2.419C57.048,27.509,54.632,27.458,54.632,26.218Z"/>
  <path id="Forma_1_copy_2" data-name="Forma 1 copy 2" class="cls-7" d="M108.362,83.827a0.759,0.759,0,0,0-.153-0.437q-1.222-1.466-1.966-2.515a10.741,10.741,0,0,0,.7-1.662l3.386-.525a0.507,0.507,0,0,0,.349-0.229,0.714,0.714,0,0,0,.153-0.427V73.986a0.651,0.651,0,0,0-.153-0.426,0.629,0.629,0,0,0-.371-0.229l-3.32-.5a15.042,15.042,0,0,0-.743-1.793q0.327-.481.983-1.312t0.918-1.181a0.739,0.739,0,0,0,.152-0.415q0-.591-3.145-3.5a0.722,0.722,0,0,0-.458-0.175,0.641,0.641,0,0,0-.438.153l-2.577,1.946a9.623,9.623,0,0,0-1.638-.678l-0.5-3.346a0.563,0.563,0,0,0-.218-0.383,0.666,0.666,0,0,0-.437-0.164H94.82a0.639,0.639,0,0,0-.655.525,25.164,25.164,0,0,0-.5,3.368,10.62,10.62,0,0,0-1.682.7l-2.512-1.968a0.786,0.786,0,0,0-.459-0.153,4.186,4.186,0,0,0-1.726,1.29,18.518,18.518,0,0,0-1.791,1.946,0.64,0.64,0,0,0-.153.438,0.833,0.833,0,0,0,.153.437q1.223,1.466,1.966,2.515a10.8,10.8,0,0,0-.7,1.662l-3.386.524a0.507,0.507,0,0,0-.35.229,0.713,0.713,0,0,0-.153.427v4.046a0.651,0.651,0,0,0,.153.427,0.537,0.537,0,0,0,.372.208l3.32,0.525a11.208,11.208,0,0,0,.765,1.793q-0.349.481-1.027,1.334t-0.9,1.159a0.735,0.735,0,0,0-.153.415q0,0.591,3.145,3.5a0.724,0.724,0,0,0,.459.174,0.589,0.589,0,0,0,.437-0.152L92.024,85.4a9.545,9.545,0,0,0,1.638.678l0.5,3.346a0.564,0.564,0,0,0,.218.383,0.666,0.666,0,0,0,.437.164h4.062a0.639,0.639,0,0,0,.655-0.525,26.1,26.1,0,0,0,.5-3.39,9.915,9.915,0,0,0,1.682-.677l2.512,1.968a0.783,0.783,0,0,0,.459.152,4.143,4.143,0,0,0,1.714-1.3,22.694,22.694,0,0,0,1.8-1.957A0.559,0.559,0,0,0,108.362,83.827Z"/>
  <path id="Forma_1" data-name="Forma 1" class="cls-8" d="M108.362,83.827a0.759,0.759,0,0,0-.153-0.437q-1.222-1.466-1.966-2.515a10.741,10.741,0,0,0,.7-1.662l3.386-.525a0.507,0.507,0,0,0,.349-0.229,0.714,0.714,0,0,0,.153-0.427V73.986a0.651,0.651,0,0,0-.153-0.426,0.629,0.629,0,0,0-.371-0.229l-3.32-.5a15.042,15.042,0,0,0-.743-1.793q0.327-.481.983-1.312t0.918-1.181a0.739,0.739,0,0,0,.152-0.415q0-.591-3.145-3.5a0.722,0.722,0,0,0-.458-0.175,0.641,0.641,0,0,0-.438.153l-2.577,1.946a9.623,9.623,0,0,0-1.638-.678l-0.5-3.346a0.563,0.563,0,0,0-.218-0.383,0.666,0.666,0,0,0-.437-0.164H94.82a0.639,0.639,0,0,0-.655.525,25.164,25.164,0,0,0-.5,3.368,10.62,10.62,0,0,0-1.682.7l-2.512-1.968a0.786,0.786,0,0,0-.459-0.153,4.186,4.186,0,0,0-1.726,1.29,18.518,18.518,0,0,0-1.791,1.946,0.64,0.64,0,0,0-.153.438,0.833,0.833,0,0,0,.153.437q1.223,1.466,1.966,2.515a10.8,10.8,0,0,0-.7,1.662l-3.386.524a0.507,0.507,0,0,0-.35.229,0.713,0.713,0,0,0-.153.427v4.046a0.651,0.651,0,0,0,.153.427,0.537,0.537,0,0,0,.372.208l3.32,0.525a11.208,11.208,0,0,0,.765,1.793q-0.349.481-1.027,1.334t-0.9,1.159a0.735,0.735,0,0,0-.153.415q0,0.591,3.145,3.5a0.724,0.724,0,0,0,.459.174,0.589,0.589,0,0,0,.437-0.152L92.024,85.4a9.545,9.545,0,0,0,1.638.678l0.5,3.346a0.564,0.564,0,0,0,.218.383,0.666,0.666,0,0,0,.437.164h4.062a0.639,0.639,0,0,0,.655-0.525,26.1,26.1,0,0,0,.5-3.39,9.915,9.915,0,0,0,1.682-.677l2.512,1.968a0.783,0.783,0,0,0,.459.152,4.143,4.143,0,0,0,1.714-1.3,22.694,22.694,0,0,0,1.8-1.957A0.559,0.559,0,0,0,108.362,83.827Zm-7.557-3.892a5.6,5.6,0,1,1,1.638-3.958A5.385,5.385,0,0,1,100.805,79.935Z"/>
</svg>
