<svg id="icon" xmlns="http://www.w3.org/2000/svg" width="171" height="127" viewBox="0 0 171 127">
  <defs>
    <style>
      .cls-1 {
        fill: #eef3fe;
      }

      .cls-1, .cls-10, .cls-2, .cls-3, .cls-4, .cls-5, .cls-6, .cls-7, .cls-8, .cls-9 {
        fill-rule: evenodd;
      }

      .cls-2 {
        fill: #f3d5af;
      }

      .cls-3 {
        fill: #56d9a4;
      }

      .cls-4 {
        fill: #343439;
      }

      .cls-5 {
        fill: #fbe3c5;
      }

      .cls-6 {
        fill: #fff;
      }

      .cls-7 {
        fill: #51aafc;
      }

      .cls-8 {
        fill: #b9dcfc;
      }

      .cls-9 {
        fill: #8388e4;
      }

      .cls-10 {
        fill: #bcbfff;
      }

      .cls-11 {
        fill: #878a8f;
        opacity: 0.5;
      }

      .cls-12 {
        fill: #babec6;
      }
    </style>
  </defs>
  <path class="cls-1" d="M15,74.019c0.518-12.348,3.106-22.638,28.987-30.87S77.739,31.287,90.68,23.569c10.426-6.394,42.473-5.832,57.974,15.435,10.784,14.8,10.007,34.037-2.07,47.334-10.26,11.3-31.5,20.432-52.8,24.7-21.692,4.344-37.893,1.057-53.939-5.117S14.655,88.768,15,74.019Z"/>
  <g id="icon-2" data-name="icon">
    <g>
      <g id="Group_1_copy_2" data-name="Group 1 copy 2">
        <path class="cls-2" d="M86.133,37.365a7.282,7.282,0,0,1-4-1.143v3.949l3.98,4.971,3.979-4.971V36.116A6.9,6.9,0,0,1,86.133,37.365Z"/>
        <path class="cls-3" d="M90.213,38.716L86.191,43.67,82.17,38.716S67,38.5,67,51V62c0,3.073,1.678,5,5,5h28a3.659,3.659,0,0,0,4-4V52C104,38.787,90.213,38.716,90.213,38.716Z"/>
        <path class="cls-4" d="M86.273,14.848a9.613,9.613,0,0,0-9.638,9.588v3.877a3.082,3.082,0,0,1,2.455-.8V27.037a0.655,0.655,0,0,1,.7-0.651A17.325,17.325,0,0,0,90.18,23.611a0.659,0.659,0,0,1,.84.1c2.452,2.621,2.437,2.52,2.437,2.862v0.938a2.926,2.926,0,0,1,2.455.714V24.436A9.613,9.613,0,0,0,86.273,14.848Z"/>
        <path class="cls-5" d="M91.012,21.856a0.659,0.659,0,0,0-.84-0.1,17.324,17.324,0,0,1-10.386,2.775,0.655,0.655,0,0,0-.7.651v5.728a7.185,7.185,0,0,0,14.366,0v-6.19C93.449,24.376,93.464,24.477,91.012,21.856Z"/>
        <path class="cls-5" d="M79.381,31.376V26.082a2.951,2.951,0,0,0-3.36,2.732,2.822,2.822,0,0,0,3.364,2.733C79.384,31.49,79.381,31.433,79.381,31.376Z"/>
        <path id="Shape_5_copy" data-name="Shape 5 copy" class="cls-5" d="M93.161,26.228V31.5a2.95,2.95,0,0,0,3.365-2.72,2.822,2.822,0,0,0-3.369-2.721C93.158,26.114,93.161,26.171,93.161,26.228Z"/>
        <path class="cls-6" d="M82.169,62.1a0.664,0.664,0,0,0,.154.533h0L85.9,66.563a0.5,0.5,0,0,0,.743,0l3.577-3.934h0a0.665,0.665,0,0,0,.154-0.533s-2.422-13.453-2.583-14.4l-0.008-.017,1.353-2.032-2.863-2.029v0l0,0,0,0v0l-2.863,2.029,1.353,2.032-0.009.021c-0.167.986-2.582,14.4-2.582,14.4a0.664,0.664,0,0,0,.154.533L85.9,66.563a0.5,0.5,0,0,0,.743,0l1.133-1.246"/>
      </g>
      <g>
        <path class="cls-2" d="M53.884,81.493a7.283,7.283,0,0,1-4-1.142V84.3l3.98,4.971L57.846,84.3V80.244A6.9,6.9,0,0,1,53.884,81.493Z"/>
        <path id="Shape_1_copy_3" data-name="Shape 1 copy 3" class="cls-7" d="M58.213,83.716L54.191,88.67,50.17,83.716S35,83.5,35,96v11c0,3.073,1.678,5,5,5H68a3.659,3.659,0,0,0,4-4V97C72,83.787,58.213,83.716,58.213,83.716Z"/>
        <path class="cls-4" d="M54.024,58.976a9.613,9.613,0,0,0-9.638,9.588v3.877a3.083,3.083,0,0,1,2.455-.8V71.165a0.655,0.655,0,0,1,.7-0.651,17.324,17.324,0,0,0,10.387-2.775,0.659,0.659,0,0,1,.84.1c2.451,2.621,2.437,2.52,2.437,2.862v0.938a2.926,2.926,0,0,1,2.455.714V68.564A9.613,9.613,0,0,0,54.024,58.976Z"/>
        <path class="cls-5" d="M58.763,65.984a0.659,0.659,0,0,0-.84-0.1,17.323,17.323,0,0,1-10.386,2.775,0.655,0.655,0,0,0-.7.651v5.728a7.185,7.185,0,0,0,14.366,0v-6.19C61.2,68.5,61.215,68.6,58.763,65.984Z"/>
        <path class="cls-5" d="M47.132,75.5V70.21a2.951,2.951,0,0,0-3.36,2.732,2.822,2.822,0,0,0,3.364,2.733C47.135,75.618,47.132,75.561,47.132,75.5Z"/>
        <path id="Shape_5_copy-2" data-name="Shape 5 copy" class="cls-5" d="M60.912,70.356v5.271a2.951,2.951,0,0,0,3.365-2.72,2.822,2.822,0,0,0-3.369-2.721C60.909,70.242,60.912,70.3,60.912,70.356Z"/>
        <path class="cls-8" d="M49.92,106.378a0.664,0.664,0,0,0,.154.533h0l3.577,3.933a0.5,0.5,0,0,0,.743,0l3.577-3.933h0a0.665,0.665,0,0,0,.154-0.533s-2.422-13.453-2.582-14.4l-0.009-.017,1.353-2.032L54.025,87.9v0l0,0,0,0v0l-2.863,2.029,1.353,2.032L52.5,91.98c-0.167.986-2.582,14.4-2.582,14.4a0.665,0.665,0,0,0,.154.533l3.577,3.933a0.5,0.5,0,0,0,.743,0l1.133-1.245"/>
      </g>
      <g id="Group_1_copy" data-name="Group 1 copy">
        <path class="cls-2" d="M117.838,81.646a7.283,7.283,0,0,1-4-1.143v3.949l3.98,4.971,3.979-4.971V80.4A6.9,6.9,0,0,1,117.838,81.646Z"/>
        <path id="Shape_1_copy_4" data-name="Shape 1 copy 4" class="cls-9" d="M122.213,83.716l-4.022,4.953-4.021-4.953S99,83.5,99,96v11c0,3.073,1.678,5,5,5h28a3.659,3.659,0,0,0,4-4V97C136,83.787,122.213,83.716,122.213,83.716Z"/>
        <path class="cls-4" d="M117.978,59.129a9.614,9.614,0,0,0-9.639,9.588v3.877a3.085,3.085,0,0,1,2.456-.8V71.318a0.655,0.655,0,0,1,.7-0.651,17.322,17.322,0,0,0,10.386-2.775,0.66,0.66,0,0,1,.84.1c2.452,2.621,2.437,2.52,2.437,2.862v0.938a2.928,2.928,0,0,1,2.455.714V68.717A9.614,9.614,0,0,0,117.978,59.129Z"/>
        <path class="cls-5" d="M122.717,66.137a0.658,0.658,0,0,0-.839-0.1,17.328,17.328,0,0,1-10.387,2.775,0.656,0.656,0,0,0-.7.651v5.728a7.185,7.185,0,0,0,14.367,0V69C125.154,68.657,125.169,68.758,122.717,66.137Z"/>
        <path class="cls-5" d="M111.086,75.657V70.363a2.951,2.951,0,0,0-3.36,2.732,2.823,2.823,0,0,0,3.364,2.733C111.089,75.771,111.086,75.714,111.086,75.657Z"/>
        <path id="Shape_5_copy-3" data-name="Shape 5 copy" class="cls-5" d="M124.866,70.509V75.78a2.951,2.951,0,0,0,3.365-2.72,2.822,2.822,0,0,0-3.369-2.721C124.863,70.4,124.866,70.452,124.866,70.509Z"/>
        <path class="cls-10" d="M113.874,106.378a0.667,0.667,0,0,0,.154.533h0l3.577,3.933a0.5,0.5,0,0,0,.744,0l3.577-3.933h0a0.667,0.667,0,0,0,.154-0.533s-2.422-13.453-2.583-14.4l-0.008-.017,1.353-2.032L117.979,87.9v0l0,0,0,0v0l-2.862,2.029,1.353,2.032-0.009.021c-0.167.986-2.582,14.4-2.582,14.4a0.667,0.667,0,0,0,.154.533l3.577,3.933a0.5,0.5,0,0,0,.744,0l1.132-1.245"/>
      </g>
    </g>
    <rect class="cls-11" x="85" y="69" width="2" height="13"/>
    <rect id="Rectangle_11_copy" data-name="Rectangle 11 copy" class="cls-12" x="69" y="82" width="17" height="2"/>
    <rect id="Rectangle_11_copy_2" data-name="Rectangle 11 copy 2" class="cls-12" x="86" y="82" width="17" height="2"/>
  </g>
</svg>
