<svg id="icon" xmlns="http://www.w3.org/2000/svg" width="227" height="162" viewBox="0 0 227 162">
  <defs>
    <style>
      .cls-1 {
        fill: #eef3fe;
      }

      .cls-1, .cls-11, .cls-12, .cls-3, .cls-4, .cls-5, .cls-6, .cls-7, .cls-8, .cls-9 {
        fill-rule: evenodd;
      }

      .cls-11, .cls-2 {
        fill: #fff;
      }

      .cls-2 {
        stroke: #e3e3e3;
        stroke-linejoin: round;
        stroke-width: 1px;
      }

      .cls-3 {
        fill: #343439;
      }

      .cls-4 {
        fill: #de617e;
      }

      .cls-5 {
        fill: #ffc501;
      }

      .cls-6 {
        fill: #565657;
      }

      .cls-7 {
        fill: #717070;
      }

      .cls-8 {
        opacity: 0.05;
      }

      .cls-10, .cls-9 {
        fill: #5387ff;
      }

      .cls-12, .cls-9 {
        opacity: 0.6;
      }

      .cls-12, .cls-13 {
        fill: #33e2a6;
      }
    </style>
  </defs>
  <g id="graphic">
    <path class="cls-1" d="M51,88.019c0.518-12.348,3.106-22.638,28.987-30.87s33.752-11.862,46.693-19.58c10.426-6.394,42.473-5.832,57.974,15.435,10.784,14.8,10.007,34.037-2.07,47.334-10.26,11.3-31.5,20.432-52.8,24.7-21.692,4.344-37.893,1.057-53.94-5.117S50.655,102.768,51,88.019Z"/>
    <rect id="Rounded_Rectangle_593" data-name="Rounded Rectangle 593" class="cls-2" x="20" y="54" width="148" height="86" rx="5" ry="5"/>
    <g id="Bar">
      <path id="Work_Orders" data-name="Work Orders" class="cls-3" d="M31.08,62.531H30.011L31.773,69.9h0.884l1.481-5.111,0.105-.663h0.03l0.11,0.663L35.845,69.9h0.884L38.5,62.531H37.421l-1.044,4.813-0.136.987h-0.03l-0.171-.987-1.305-4.813H33.766l-1.3,4.813-0.171.972-0.03-.005-0.126-.967Zm7.928,4.691a3.01,3.01,0,0,0,.655,2,2.416,2.416,0,0,0,3.557,0,3.015,3.015,0,0,0,.653-2V67.111a3.02,3.02,0,0,0-.655-2,2.406,2.406,0,0,0-3.557,0,3.03,3.03,0,0,0-.653,2v0.111ZM40,67.111a2.618,2.618,0,0,1,.364-1.432,1.19,1.19,0,0,1,1.072-.572,1.207,1.207,0,0,1,1.082.572,2.591,2.591,0,0,1,.369,1.432v0.111a2.6,2.6,0,0,1-.366,1.437,1.309,1.309,0,0,1-2.156,0A2.613,2.613,0,0,1,40,67.223V67.111Zm7.792-2.733a1.424,1.424,0,0,0-.166-0.038,1.213,1.213,0,0,0-.211-0.018,1.325,1.325,0,0,0-.781.238,1.9,1.9,0,0,0-.57.663l-0.1-.8H45.083V69.9h0.989V65.988a1.2,1.2,0,0,1,.414-0.526,1.127,1.127,0,0,1,.66-0.187l0.507,0.03Zm4.2,5.521h1.17l-2.144-2.95,1.973-2.525H51.806L50.174,66.58h-0.5V62H48.688V69.9h0.989V67.374h0.507Zm10.237-4.337a3.167,3.167,0,0,0-.831-2.245,2.811,2.811,0,0,0-2.156-.893,2.661,2.661,0,0,0-2.081.9,3.238,3.238,0,0,0-.8,2.242v1.311a3.227,3.227,0,0,0,.8,2.242,2.668,2.668,0,0,0,2.081.891,2.814,2.814,0,0,0,2.156-.891,3.158,3.158,0,0,0,.831-2.242V65.563ZM61.24,66.873a2.52,2.52,0,0,1-.54,1.673,1.8,1.8,0,0,1-1.459.645,1.67,1.67,0,0,1-1.378-.648,2.6,2.6,0,0,1-.515-1.67V65.552a2.586,2.586,0,0,1,.515-1.66,1.67,1.67,0,0,1,1.378-.648,1.8,1.8,0,0,1,1.456.648,2.5,2.5,0,0,1,.542,1.66v1.321Zm4.985-2.5a1.427,1.427,0,0,0-.166-0.038,1.215,1.215,0,0,0-.211-0.018,1.325,1.325,0,0,0-.781.238,1.9,1.9,0,0,0-.57.663l-0.1-.8H63.519V69.9h0.989V65.988a1.2,1.2,0,0,1,.414-0.526,1.127,1.127,0,0,1,.66-0.187L66.09,65.3ZM66.8,67.369a3.035,3.035,0,0,0,.562,1.91,1.859,1.859,0,0,0,1.556.726,1.953,1.953,0,0,0,.909-0.2,1.768,1.768,0,0,0,.658-0.6L70.633,69.9h0.758V62H70.4v3.011a1.738,1.738,0,0,0-.63-0.516,1.932,1.932,0,0,0-.846-0.177,1.8,1.8,0,0,0-1.569.81,3.676,3.676,0,0,0-.56,2.131v0.106Zm0.989-.106a3.076,3.076,0,0,1,.339-1.538,1.129,1.129,0,0,1,1.052-.592,1.3,1.3,0,0,1,.73.2,1.532,1.532,0,0,1,.495.539v2.556a1.508,1.508,0,0,1-.492.567,1.3,1.3,0,0,1-.743.2,1.171,1.171,0,0,1-1.044-.5,2.338,2.338,0,0,1-.336-1.328V67.263Zm8.48,2.548a2.371,2.371,0,0,0,.768-0.478l-0.387-.648a1.963,1.963,0,0,1-.65.4,2.471,2.471,0,0,1-.881.144,1.259,1.259,0,0,1-1.1-.514,2.277,2.277,0,0,1-.361-1.339l0.015-.025H77.14V66.823a2.83,2.83,0,0,0-.545-1.817,1.964,1.964,0,0,0-1.634-.683,2.111,2.111,0,0,0-1.649.772,2.855,2.855,0,0,0-.675,1.951v0.223a2.916,2.916,0,0,0,.655,1.984,2.289,2.289,0,0,0,1.825.754A3.038,3.038,0,0,0,76.267,69.811ZM75.86,65.5a1.6,1.6,0,0,1,.291.987v0.081H73.7l-0.01-.025a1.912,1.912,0,0,1,.414-1.03,1.072,1.072,0,0,1,.856-0.4A1.049,1.049,0,0,1,75.86,65.5Zm5.1-1.118a1.434,1.434,0,0,0-.166-0.038,1.215,1.215,0,0,0-.211-0.018,1.325,1.325,0,0,0-.781.238,1.9,1.9,0,0,0-.57.663l-0.1-.8H78.25V69.9h0.989V65.988a1.2,1.2,0,0,1,.414-0.526,1.127,1.127,0,0,1,.66-0.187L80.82,65.3ZM84.709,69a1.344,1.344,0,0,1-.826.225,1.506,1.506,0,0,1-.859-0.245,0.924,0.924,0,0,1-.392-0.777H81.689l-0.01.03a1.521,1.521,0,0,0,.567,1.24,2.777,2.777,0,0,0,3.165.071A1.446,1.446,0,0,0,86,68.356a1.216,1.216,0,0,0-.517-1.017,3.876,3.876,0,0,0-1.516-.6,2.459,2.459,0,0,1-.921-0.324,0.6,0.6,0,0,1-.224-0.5,0.745,0.745,0,0,1,.259-0.567,1.12,1.12,0,0,1,.781-0.238,1.1,1.1,0,0,1,.781.288,0.865,0.865,0,0,1,.309.643h0.944l0.01-.03a1.455,1.455,0,0,0-.547-1.179,2.477,2.477,0,0,0-2.96-.03,1.448,1.448,0,0,0-.565,1.144,1.178,1.178,0,0,0,.515,1,3.93,3.93,0,0,0,1.474.582,2.387,2.387,0,0,1,.941.364,0.667,0.667,0,0,1,.249.536A0.691,0.691,0,0,1,84.709,69Z"/>
      <g id="_1" data-name="1">
        <g id="_1-2" data-name="1">
          <path id="Urgent" class="cls-4" d="M129.617,85.357a1.849,1.849,0,0,1-.265,1.114,1.019,1.019,0,0,1-.862.345,1.709,1.709,0,0,1-.529-0.074,0.837,0.837,0,0,1-.379-0.246,1.069,1.069,0,0,1-.222-0.453,2.8,2.8,0,0,1-.071-0.685V81h-1.3v4.622q0,2.395,2.517,2.395a2.955,2.955,0,0,0,.956-0.148,1.814,1.814,0,0,0,.738-0.463,2.17,2.17,0,0,0,.473-0.8,3.463,3.463,0,0,0,.171-1.153V81h-1.23v4.356Zm5.081-2.385a1.726,1.726,0,0,0-.558-0.108,1.076,1.076,0,0,0-.644.2,1.333,1.333,0,0,0-.435.562h-0.038l-0.142-.651h-0.955V87.9h1.23V84.717a0.881,0.881,0,0,1,.3-0.468,0.844,0.844,0,0,1,.553-0.182,1.545,1.545,0,0,1,.53.108Zm4.552,0.177a4.4,4.4,0,0,0-.781-0.207,5.963,5.963,0,0,0-1.083-.089,2.232,2.232,0,0,0-1.76.68,2.92,2.92,0,0,0-.606,2,3.075,3.075,0,0,0,.449,1.853,1.61,1.61,0,0,0,1.368.591,1.347,1.347,0,0,0,1.173-.463h0.038v0.315a1.271,1.271,0,0,1-.232.813,1.073,1.073,0,0,1-.875.291,2.46,2.46,0,0,1-.714-0.089q-0.29-.089-0.507-0.177l-0.255,1.015a2.616,2.616,0,0,0,.591.207,4.617,4.617,0,0,0,1.074.1,2.24,2.24,0,0,0,1.562-.508,2.039,2.039,0,0,0,.558-1.582V83.15Zm-2.735,3.43a2.139,2.139,0,0,1-.227-1.094,2.05,2.05,0,0,1,.265-1.178,0.858,0.858,0,0,1,.738-0.37,1.829,1.829,0,0,1,.729.128v2.218a1.069,1.069,0,0,1-.3.5,0.823,0.823,0,0,1-.554.168A0.722,0.722,0,0,1,136.515,86.579Zm7.183,0.059a1.919,1.919,0,0,1-.469.251,1.855,1.855,0,0,1-.7.123,1.15,1.15,0,0,1-.9-0.315,1.482,1.482,0,0,1-.308-0.936h2.839c0.032-.171.055-0.335,0.071-0.493a4.409,4.409,0,0,0,.024-0.444,2.489,2.489,0,0,0-.161-0.956,1.593,1.593,0,0,0-.426-0.611,1.611,1.611,0,0,0-.605-0.325,2.519,2.519,0,0,0-.7-0.1,2.159,2.159,0,0,0-1.675.65,2.8,2.8,0,0,0-.6,1.951,3.077,3.077,0,0,0,.53,1.907,1.972,1.972,0,0,0,1.675.695,3.249,3.249,0,0,0,1.036-.163,2.367,2.367,0,0,0,.771-0.4Zm-0.743-2.493a1.287,1.287,0,0,1,.156.818h-1.76a1.516,1.516,0,0,1,.279-0.8,0.845,0.845,0,0,1,.714-0.3A0.687,0.687,0,0,1,142.955,84.145Zm6.3,3.755V84.835a4.151,4.151,0,0,0-.094-0.961,1.506,1.506,0,0,0-.284-0.616,1.063,1.063,0,0,0-.464-0.325,1.842,1.842,0,0,0-.624-0.1,1.66,1.66,0,0,0-.928.237,2.069,2.069,0,0,0-.577.552h-0.038l-0.142-.651h-0.975V87.9h1.231V84.707a1.176,1.176,0,0,1,.345-0.527,0.865,0.865,0,0,1,.591-0.212,0.613,0.613,0,0,1,.564.266,1.715,1.715,0,0,1,.165.867v2.8h1.23Zm0.54-3.844h0.653V86.54a1.727,1.727,0,0,0,.307,1.148,1.215,1.215,0,0,0,.961.35,2.741,2.741,0,0,0,.691-0.089,3.057,3.057,0,0,0,.6-0.217l-0.218-.986a2.147,2.147,0,0,1-.308.118,1.185,1.185,0,0,1-.326.039,0.372,0.372,0,0,1-.374-0.222,1.953,1.953,0,0,1-.1-0.734V84.056h1.154V82.972h-1.154V81.681l-1.23.365v0.926h-0.653v1.084Z"/>
        </g>
        <path id="Medium" class="cls-5" d="M131.018,108.854h1.269V102.1h-1.149l-1.639,3.068-0.278.791h-0.037l-0.306-.772-1.732-3.087h-1.158v6.753h1.2v-3.511l-0.185-1.332h0.046l0.407,1.071,1.455,2.527h0.408l1.38-2.517,0.4-1.081h0.056l-0.139,1.341v3.5Zm5.66-1.235a1.926,1.926,0,0,1-1.14.367,1.125,1.125,0,0,1-.884-0.309,1.448,1.448,0,0,1-.3-0.917h2.779c0.031-.167.054-0.327,0.069-0.482a4.2,4.2,0,0,0,.023-0.434,2.434,2.434,0,0,0-.157-0.936,1.506,1.506,0,0,0-1.01-.916,2.464,2.464,0,0,0-.685-0.1,2.114,2.114,0,0,0-1.64.636,2.744,2.744,0,0,0-.584,1.91,3.012,3.012,0,0,0,.519,1.867,1.933,1.933,0,0,0,1.64.68,3.186,3.186,0,0,0,1.014-.159,2.344,2.344,0,0,0,.755-0.391Zm-0.727-2.44a1.262,1.262,0,0,1,.153.8H134.38a1.486,1.486,0,0,1,.274-0.786,0.827,0.827,0,0,1,.7-0.294A0.671,0.671,0,0,1,135.951,105.179Zm6.063-3.078h-1.2v1.959a1.761,1.761,0,0,0-.371-0.111,2.666,2.666,0,0,0-.472-0.034,1.879,1.879,0,0,0-1.575.685,3.034,3.034,0,0,0-.538,1.919,2.97,2.97,0,0,0,.482,1.872,1.641,1.641,0,0,0,1.353.6,1.568,1.568,0,0,0,.819-0.208,1.422,1.422,0,0,0,.533-0.545h0.037l0.167,0.627h0.861a7.206,7.206,0,0,1-.083-0.9q-0.009-.4-0.009-0.81V102.1Zm-2.71,5.45a2.041,2.041,0,0,1-.208-0.993,2.2,2.2,0,0,1,.254-1.225,0.878,0.878,0,0,1,.765-0.357,1.313,1.313,0,0,1,.407.053,0.9,0.9,0,0,1,.288.159v2.045a0.976,0.976,0,0,1-.288.516,0.814,0.814,0,0,1-.555.179A0.7,0.7,0,0,1,139.3,107.551Zm3.868,1.3h1.2v-4.823h-1.2v4.823Zm0.023-5.716a0.768,0.768,0,0,0,.551.189,0.838,0.838,0,0,0,.57-0.189,0.592,0.592,0,0,0,.217-0.467,0.622,0.622,0,0,0-.217-0.478,0.814,0.814,0,0,0-.57-0.2,0.747,0.747,0,0,0-.551.2,0.648,0.648,0,0,0-.2.478A0.615,0.615,0,0,0,143.2,103.138Zm2.32,0.893v3a3.844,3.844,0,0,0,.1.945,1.521,1.521,0,0,0,.282.6,1.033,1.033,0,0,0,.463.318,1.929,1.929,0,0,0,.63.1,1.648,1.648,0,0,0,.9-0.241,1.775,1.775,0,0,0,.593-0.608h0.037l0.213,0.714h0.908a4.886,4.886,0,0,1-.111-0.69q-0.037-.381-0.037-0.777v-3.356h-1.205v3.115a1.3,1.3,0,0,1-.338.521,0.8,0.8,0,0,1-.57.212,0.532,0.532,0,0,1-.523-0.26,1.967,1.967,0,0,1-.134-0.849v-2.739h-1.205Zm8.866,4.823V105.69a1.121,1.121,0,0,1,.282-0.5,0.711,0.711,0,0,1,.515-0.183,0.494,0.494,0,0,1,.514.284,2.4,2.4,0,0,1,.116.854v2.711h1.2V105.96a4.952,4.952,0,0,0-.084-1,1.647,1.647,0,0,0-.254-0.632,0.914,0.914,0,0,0-.445-0.333,2.008,2.008,0,0,0-.662-0.1,1.428,1.428,0,0,0-.806.221,1.72,1.72,0,0,0-.547.6,1.214,1.214,0,0,0-.44-0.632,1.283,1.283,0,0,0-.727-0.188,1.443,1.443,0,0,0-.848.231,2.173,2.173,0,0,0-.542.54H151.62l-0.139-.636h-0.935v4.823h1.2v-3.212a1.144,1.144,0,0,1,.3-0.459,0.726,0.726,0,0,1,.51-0.178,0.486,0.486,0,0,1,.5.28,2.62,2.62,0,0,1,.121.945v2.624h1.2Z"/>
        <g id="_1_copy_5" data-name="1 copy 5">
          <path id="Installation" class="cls-6" d="M69,87.886h0.778V81.069H69v6.817Zm6.236,0V84.945a4.22,4.22,0,0,0-.1-1,1.581,1.581,0,0,0-.291-0.628,1.01,1.01,0,0,0-.483-0.326,2.233,2.233,0,0,0-.675-0.092,1.922,1.922,0,0,0-.905.2,1.712,1.712,0,0,0-.6.511H72.145L72,83.017H71.479v4.87h0.75V84.555a1.482,1.482,0,0,1,.455-0.7,1.216,1.216,0,0,1,.821-0.278,0.8,0.8,0,0,1,.774.385,2.444,2.444,0,0,1,.211,1.144v2.776h0.75Zm3.17-.73a1.227,1.227,0,0,1-.666.166,2.365,2.365,0,0,1-.7-0.107,2.687,2.687,0,0,1-.563-0.234l-0.225.662a2.8,2.8,0,0,0,.628.253,3.354,3.354,0,0,0,.91.107,2.081,2.081,0,0,0,.717-0.112,1.472,1.472,0,0,0,.511-0.307,1.188,1.188,0,0,0,.3-0.468,1.7,1.7,0,0,0,.1-0.584,1.31,1.31,0,0,0-.169-0.706,1.542,1.542,0,0,0-.417-0.443,2.3,2.3,0,0,0-.544-0.282q-0.3-.107-0.544-0.219a1.791,1.791,0,0,1-.417-0.253,0.486,0.486,0,0,1-.169-0.394,0.6,0.6,0,0,1,.192-0.507,1,1,0,0,1,.6-0.146,2.482,2.482,0,0,1,.652.083,2.89,2.89,0,0,1,.52.19l0.178-.643a3.224,3.224,0,0,0-.6-0.219,3.312,3.312,0,0,0-.849-0.092,1.6,1.6,0,0,0-1.069.326,1.275,1.275,0,0,0-.385,1.027,1.214,1.214,0,0,0,.169.682,1.431,1.431,0,0,0,.417.414,2.51,2.51,0,0,0,.544.263q0.3,0.1.544,0.214a1.43,1.43,0,0,1,.417.278,0.612,0.612,0,0,1,.169.458A0.646,0.646,0,0,1,78.409,87.156ZM79.938,83.7h0.731v2.844a2.033,2.033,0,0,0,.234,1.125A0.914,0.914,0,0,0,81.71,88a2.572,2.572,0,0,0,.647-0.078,2.815,2.815,0,0,0,.553-0.2l-0.169-.594q-0.206.088-.375,0.141a1.375,1.375,0,0,1-.413.054,0.438,0.438,0,0,1-.413-0.209A1.518,1.518,0,0,1,81.42,86.4V83.7H82.7V83.017H81.42V81.828l-0.75.224v0.964H79.938V83.7ZM83.9,83.971a1.792,1.792,0,0,1,.3-0.145,2.99,2.99,0,0,1,.366-0.11q0.192-.045.375-0.07a2.532,2.532,0,0,1,.342-0.025,1.029,1.029,0,0,1,.75.214,1.074,1.074,0,0,1,.206.75q0,0.234-.028.526a1.768,1.768,0,0,0-.258-0.019H85.7a5.6,5.6,0,0,0-.943.073,2.279,2.279,0,0,0-.731.243,1.238,1.238,0,0,0-.474.458,1.394,1.394,0,0,0-.169.716,1.452,1.452,0,0,0,.108.575,1.273,1.273,0,0,0,.741.711,1.569,1.569,0,0,0,.558.1,1.922,1.922,0,0,0,.534-0.068,1.885,1.885,0,0,0,.413-0.17,1.353,1.353,0,0,0,.3-0.234,1.6,1.6,0,0,0,.211-0.268H86.3l0.2,0.682h0.553a3.331,3.331,0,0,1-.1-0.594q-0.028-.321-0.028-0.682,0-.5.028-1.052t0.028-1.139a2.733,2.733,0,0,0-.052-0.526,1.243,1.243,0,0,0-.206-0.482,1.1,1.1,0,0,0-.45-0.356,1.89,1.89,0,0,0-.783-0.136,4.472,4.472,0,0,0-.989.107,2.643,2.643,0,0,0-.83.331Zm0.5,3.092a0.732,0.732,0,0,1-.235-0.56,0.633,0.633,0,0,1,.127-0.4,0.86,0.86,0,0,1,.338-0.253,1.748,1.748,0,0,1,.488-0.127,4.637,4.637,0,0,1,.567-0.034q0.131,0,.267,0T86.212,85.7v0.808a1.119,1.119,0,0,1-.145.263,1.153,1.153,0,0,1-.248.248,1.339,1.339,0,0,1-.356.185,1.4,1.4,0,0,1-.469.073A0.843,0.843,0,0,1,84.392,87.063Zm4.829-5.995h-0.75v5.843a1.1,1.1,0,0,0,.272.843,0.99,0.99,0,0,0,.694.248,2.645,2.645,0,0,0,.464-0.049,1.523,1.523,0,0,0,.417-0.127l-0.084-.614a1.467,1.467,0,0,1-.319.088,1.906,1.906,0,0,1-.263.02,0.379,0.379,0,0,1-.319-0.146,0.812,0.812,0,0,1-.112-0.487v-5.62Zm2.738,0H91.21v5.843a1.1,1.1,0,0,0,.272.843,0.989,0.989,0,0,0,.694.248,2.644,2.644,0,0,0,.464-0.049,1.522,1.522,0,0,0,.417-0.127l-0.084-.614a1.466,1.466,0,0,1-.319.088,1.9,1.9,0,0,1-.263.02,0.379,0.379,0,0,1-.319-0.146,0.811,0.811,0,0,1-.113-0.487v-5.62Zm2.063,2.9a1.789,1.789,0,0,1,.3-0.145,2.99,2.99,0,0,1,.366-0.11q0.192-.045.375-0.07a2.529,2.529,0,0,1,.342-0.025,1.029,1.029,0,0,1,.75.214,1.074,1.074,0,0,1,.206.75q0,0.234-.028.526a1.769,1.769,0,0,0-.258-0.019H95.824a5.6,5.6,0,0,0-.942.073,2.279,2.279,0,0,0-.731.243,1.237,1.237,0,0,0-.474.458,1.394,1.394,0,0,0-.169.716,1.454,1.454,0,0,0,.108.575,1.273,1.273,0,0,0,.741.711,1.569,1.569,0,0,0,.558.1,1.922,1.922,0,0,0,.535-0.068,1.882,1.882,0,0,0,.413-0.17,1.356,1.356,0,0,0,.3-0.234,1.606,1.606,0,0,0,.211-0.268h0.047l0.2,0.682h0.553a3.323,3.323,0,0,1-.1-0.594q-0.028-.321-0.028-0.682,0-.5.028-1.052T97.1,84.438a2.733,2.733,0,0,0-.052-0.526,1.24,1.24,0,0,0-.206-0.482,1.1,1.1,0,0,0-.45-0.356,1.891,1.891,0,0,0-.783-0.136,4.471,4.471,0,0,0-.989.107,2.644,2.644,0,0,0-.83.331Zm0.5,3.092a0.732,0.732,0,0,1-.234-0.56,0.634,0.634,0,0,1,.127-0.4,0.861,0.861,0,0,1,.338-0.253,1.746,1.746,0,0,1,.488-0.127,4.639,4.639,0,0,1,.567-0.034q0.131,0,.267,0T96.339,85.7v0.808a1.12,1.12,0,0,1-.145.263,1.149,1.149,0,0,1-.248.248,1.34,1.34,0,0,1-.356.185,1.4,1.4,0,0,1-.469.073A0.844,0.844,0,0,1,94.52,87.063ZM97.9,83.7h0.731v2.844a2.033,2.033,0,0,0,.234,1.125,0.914,0.914,0,0,0,.806.336,2.568,2.568,0,0,0,.647-0.078,2.826,2.826,0,0,0,.554-0.2l-0.169-.594q-0.207.088-.375,0.141a1.377,1.377,0,0,1-.413.054,0.438,0.438,0,0,1-.413-0.209,1.518,1.518,0,0,1-.122-0.716V83.7h1.275V83.017H99.378V81.828l-0.75.224v0.964H97.9V83.7Zm3.957,4.188h0.75v-4.87h-0.75v4.87Zm-0.014-5.98a0.5,0.5,0,0,0,.371.146,0.547,0.547,0,0,0,.384-0.146,0.481,0.481,0,0,0,.159-0.37,0.528,0.528,0,0,0-.159-0.385,0.521,0.521,0,0,0-.384-0.161,0.479,0.479,0,0,0-.371.161,0.553,0.553,0,0,0-.145.385A0.5,0.5,0,0,0,101.839,81.906Zm2.227,4.592a2.277,2.277,0,0,0,.375.808,1.667,1.667,0,0,0,.643.516A2.156,2.156,0,0,0,106,88a1.843,1.843,0,0,0,1.524-.657,2.957,2.957,0,0,0,.53-1.894,4.2,4.2,0,0,0-.122-1.047,2.262,2.262,0,0,0-.375-0.808,1.669,1.669,0,0,0-.643-0.516A2.156,2.156,0,0,0,106,82.9a1.843,1.843,0,0,0-1.524.657,2.958,2.958,0,0,0-.53,1.894A4.2,4.2,0,0,0,104.066,86.5ZM106,83.581a1.1,1.1,0,0,1,.591.151,1.172,1.172,0,0,1,.394.4,1.922,1.922,0,0,1,.22.594,3.553,3.553,0,0,1,.07.721q0,1.88-1.275,1.87a1.076,1.076,0,0,1-.591-0.156,1.213,1.213,0,0,1-.394-0.409,1.919,1.919,0,0,1-.22-0.594,3.5,3.5,0,0,1-.07-0.711q0-1.88,1.275-1.87h0Zm7,4.3V84.945a4.2,4.2,0,0,0-.1-1,1.573,1.573,0,0,0-.29-0.628,1.008,1.008,0,0,0-.483-0.326,2.233,2.233,0,0,0-.675-0.092,1.919,1.919,0,0,0-.905.2,1.706,1.706,0,0,0-.605.511H109.9l-0.14-.594h-0.526v4.87h0.751V84.555a1.482,1.482,0,0,1,.454-0.7,1.218,1.218,0,0,1,.821-0.278,0.8,0.8,0,0,1,.774.385,2.453,2.453,0,0,1,.211,1.144v2.776h0.75Z"/>
          <path id="_1234" data-name="#1234" class="cls-6" d="M32.976,87.324h0.645l0.365-1.619H34.66l0.15-.62H34.127l0.29-1.27h0.711l0.15-.62h-0.72l0.355-1.531H34.267L33.912,83.2H32.93l0.355-1.531H32.64L32.284,83.2h-0.7l-0.131.62h0.692l-0.29,1.27H31.116l-0.131.62h0.729l-0.365,1.619h0.645l0.365-1.619h0.982Zm-0.187-3.509h0.982l-0.29,1.27H32.5Zm4.039,4.071h3.32V87.169H38.867V80.986H38.531l-2.057,1.648,0.355,0.494,1.029-.766,0.374-.456-0.093.572v4.691H36.829v0.717Zm8.145-5.907a1.494,1.494,0,0,0-.327-0.528,1.459,1.459,0,0,0-.524-0.344,1.937,1.937,0,0,0-.711-0.121,2.774,2.774,0,0,0-.963.165,2.4,2.4,0,0,0-.776.456l0.309,0.552a2.68,2.68,0,0,1,.58-0.344,1.682,1.682,0,0,1,.692-0.15,0.975,0.975,0,0,1,.795.315,1.2,1.2,0,0,1,.262.79,2.772,2.772,0,0,1-.15.863,5.842,5.842,0,0,1-.4.921,10.343,10.343,0,0,1-.552.916q-0.3.451-.617,0.853t-0.6.732q-0.29.33-.5,0.553v0.281h3.722V87.169H43.178l-0.6.107V87.237l0.458-.417q0.365-.465.729-0.984a10.77,10.77,0,0,0,.659-1.061,6.946,6.946,0,0,0,.477-1.081,3.267,3.267,0,0,0,.182-1.052A1.911,1.911,0,0,0,44.974,81.979Zm2.567,5.273a2.485,2.485,0,0,1-.51-0.179l-0.2.688a3.077,3.077,0,0,0,.589.174,3.852,3.852,0,0,0,.757.068,2.593,2.593,0,0,0,.87-0.145,2.082,2.082,0,0,0,.715-0.422,1.981,1.981,0,0,0,.482-0.683,2.308,2.308,0,0,0,.178-0.93,2.184,2.184,0,0,0-.131-0.78,1.762,1.762,0,0,0-.365-0.591,1.576,1.576,0,0,0-.552-0.378,1.934,1.934,0,0,0-.692-0.141L48.368,84V83.981L48.7,83.7l1.487-2.317V81.1H46.844v0.717H48.7l0.608-.1-0.43.426L47.526,84.3v0.281h0.692a1.6,1.6,0,0,1,1.071.329,1.25,1.25,0,0,1,.388,1.008,1.434,1.434,0,0,1-.112.572,1.363,1.363,0,0,1-.309.451,1.29,1.29,0,0,1-.468.286,1.736,1.736,0,0,1-.589.1A2.753,2.753,0,0,1,47.54,87.252Zm8.467-2.127H54.9V81H54.4l-3.1,4.487V85.8h2.88v2.084H54.9V85.8h1.1V85.124Zm-1.833,0H52.8l-0.654.078,0.449-.475,1.319-1.851,0.327-.659h0.028l-0.093.795v2.113Z"/>
          <path id="_1244" data-name="#1244" class="cls-6" d="M32.976,108.417h0.645l0.365-1.642H34.66l0.15-.63H34.127l0.29-1.288h0.711l0.15-.629h-0.72l0.355-1.554H34.267l-0.355,1.554H32.93l0.355-1.554H32.64l-0.355,1.554h-0.7l-0.131.629h0.692l-0.29,1.288H31.116l-0.131.63h0.729l-0.365,1.642h0.645l0.365-1.642h0.982Zm-0.187-3.56h0.982l-0.29,1.288H32.5Zm4.039,4.13h3.32V108.26H38.867v-6.275H38.531l-2.057,1.672,0.355,0.5,1.029-.777,0.374-.462-0.093.58v4.76H36.829v0.727Zm8.145-5.994a1.525,1.525,0,0,0-.327-0.536,1.466,1.466,0,0,0-.524-0.349,1.91,1.91,0,0,0-.711-0.123,2.725,2.725,0,0,0-.963.168,2.378,2.378,0,0,0-.776.462l0.309,0.56a2.685,2.685,0,0,1,.58-0.349,1.67,1.67,0,0,1,.692-0.152,0.967,0.967,0,0,1,.795.319,1.228,1.228,0,0,1,.262.8,2.849,2.849,0,0,1-.15.875,5.956,5.956,0,0,1-.4.934,10.513,10.513,0,0,1-.552.93q-0.3.457-.617,0.865t-0.6.743c-0.193.223-.359,0.409-0.5,0.56v0.285h3.722V108.26H43.178l-0.6.108v-0.04l0.458-.422q0.365-.473.729-1a10.889,10.889,0,0,0,.659-1.076,7.1,7.1,0,0,0,.477-1.1,3.356,3.356,0,0,0,.182-1.067A1.97,1.97,0,0,0,44.974,102.993Zm5.938,3.192h-1.1V102H49.3l-3.1,4.553v0.325h2.88v2.114h0.729v-2.114h1.1v-0.688Zm-1.833,0H47.7l-0.654.078,0.449-.482,1.319-1.878,0.327-.669h0.028l-0.093.807v2.144Zm6.929,0H54.9V102H54.4l-3.1,4.553v0.325h2.88v2.114H54.9v-2.114h1.1v-0.688Zm-1.833,0H52.8l-0.654.078,0.449-.482,1.319-1.878,0.327-.669h0.028l-0.093.807v2.144Z"/>
          <path id="_1238" data-name="#1238" class="cls-6" d="M32.93,130.324h0.63l0.356-1.618h0.658l0.146-.62H34.054l0.283-1.27h0.694l0.146-.62h-0.7l0.347-1.532h-0.63L33.844,126.2H32.885l0.347-1.532H32.6L32.255,126.2H31.57l-0.128.62h0.676l-0.283,1.27H31.113l-0.128.62H31.7l-0.356,1.618h0.63l0.356-1.618h0.959Zm-0.183-3.508h0.959l-0.283,1.27H32.465Zm3.946,4.071h3.242v-0.718H38.684v-6.183H38.356l-2.009,1.647,0.347,0.5,1-.766,0.365-.456-0.091.572v4.691H36.693v0.718Zm7.955-5.908a1.508,1.508,0,0,0-.32-0.528,1.419,1.419,0,0,0-.511-0.344,1.846,1.846,0,0,0-.694-0.121,2.671,2.671,0,0,0-.941.164,2.332,2.332,0,0,0-.758.456l0.3,0.552a2.637,2.637,0,0,1,.566-0.344,1.612,1.612,0,0,1,.676-0.15,0.941,0.941,0,0,1,.776.315,1.215,1.215,0,0,1,.256.79,2.833,2.833,0,0,1-.146.863,5.935,5.935,0,0,1-.388.92,10.2,10.2,0,0,1-.539.916q-0.3.452-.6,0.853t-0.589.732q-0.283.33-.484,0.553v0.281h3.635v-0.718H42.895l-0.584.107v-0.039l0.447-.417q0.356-.465.712-0.983a10.862,10.862,0,0,0,.644-1.062,7,7,0,0,0,.466-1.08,3.338,3.338,0,0,0,.178-1.052A1.953,1.953,0,0,0,44.648,124.979Zm2.507,5.273a2.379,2.379,0,0,1-.5-0.18l-0.192.689a2.954,2.954,0,0,0,.575.174,3.692,3.692,0,0,0,.74.068,2.5,2.5,0,0,0,.849-0.145,2.027,2.027,0,0,0,.7-0.422,1.982,1.982,0,0,0,.47-0.683,2.36,2.36,0,0,0,.173-0.931,2.226,2.226,0,0,0-.128-0.78,1.763,1.763,0,0,0-.356-0.591,1.534,1.534,0,0,0-.539-0.378,1.848,1.848,0,0,0-.676-0.141l-0.31.068v-0.019l0.32-.281,1.452-2.317V124.1H46.475v0.717h1.808l0.594-.1-0.42.427L47.142,127.3v0.282h0.676a1.54,1.54,0,0,1,1.046.329,1.266,1.266,0,0,1,.379,1.008,1.467,1.467,0,0,1-.11.572,1.37,1.37,0,0,1-.3.451,1.262,1.262,0,0,1-.457.286,1.678,1.678,0,0,1-.575.1A2.655,2.655,0,0,1,47.155,130.252Zm4.224-.3a1.525,1.525,0,0,0,.352.548,1.677,1.677,0,0,0,.571.368,2.06,2.06,0,0,0,.776.136,2.2,2.2,0,0,0,.813-0.141,1.742,1.742,0,0,0,.6-0.387,1.629,1.629,0,0,0,.375-0.592,2.167,2.167,0,0,0,.128-0.76,1.865,1.865,0,0,0-.091-0.606,1.726,1.726,0,0,0-.251-0.48,2.234,2.234,0,0,0-.374-0.388,4.07,4.07,0,0,0-.452-0.319,2.788,2.788,0,0,0,.785-0.829,1.952,1.952,0,0,0,.237-0.974,1.586,1.586,0,0,0-.119-0.621,1.428,1.428,0,0,0-.333-0.484,1.538,1.538,0,0,0-.525-0.32,1.957,1.957,0,0,0-.694-0.116,2.018,2.018,0,0,0-.735.126,1.664,1.664,0,0,0-.557.349,1.482,1.482,0,0,0-.356.533,1.848,1.848,0,0,0-.123.688,1.775,1.775,0,0,0,.087.581,1.686,1.686,0,0,0,.237.456,1.974,1.974,0,0,0,.347.363,4.431,4.431,0,0,0,.425.306,2.744,2.744,0,0,0-.941.819,1.862,1.862,0,0,0-.3,1.061A1.917,1.917,0,0,0,51.38,129.951Zm2.809-.271a1.019,1.019,0,0,1-.256.359,1.119,1.119,0,0,1-.37.213,1.344,1.344,0,0,1-.438.072,1.242,1.242,0,0,1-.5-0.092,1.05,1.05,0,0,1-.361-0.247,1,1,0,0,1-.219-0.368,1.364,1.364,0,0,1-.073-0.446,1.543,1.543,0,0,1,.237-0.775,2.159,2.159,0,0,1,.795-0.737c0.164,0.091.323,0.184,0.475,0.281a2.329,2.329,0,0,1,.407.325,1.545,1.545,0,0,1,.288.4,1.122,1.122,0,0,1,.11.509A1.254,1.254,0,0,1,54.188,129.68Zm-2-4.391a0.892,0.892,0,0,1,.206-0.315,1.147,1.147,0,0,1,.329-0.223,1.051,1.051,0,0,1,.438-0.087,0.952,0.952,0,0,1,.977,1.028,1.389,1.389,0,0,1-.2.726,2.673,2.673,0,0,1-.607.669q-0.238-.126-0.457-0.266a2.446,2.446,0,0,1-.388-0.306,1.3,1.3,0,0,1-.269-0.373,1.091,1.091,0,0,1-.1-0.48A1.038,1.038,0,0,1,52.188,125.289Z"/>
          <path id="Repair_" data-name="Repair " class="cls-6" d="M69,109.022h0.764v-3.148l0.9,0.149,1.777,3h0.893l-1.6-2.751-0.442-.368a1.975,1.975,0,0,0,1.05-.675,2.02,2.02,0,0,0,.414-1.321,2.068,2.068,0,0,0-.175-0.894,1.644,1.644,0,0,0-.465-0.595,1.794,1.794,0,0,0-.672-0.328,3.2,3.2,0,0,0-.806-0.1q-0.378,0-.833.039a7.48,7.48,0,0,0-.806.11v6.882Zm2.606-5.969a1.212,1.212,0,0,1,.341.884,1.279,1.279,0,0,1-.414,1.053,1.608,1.608,0,0,1-1.05.337H69.764v-2.562a0.92,0.92,0,0,1,.17-0.03l0.226-.019c0.08-.007.163-0.01,0.249-0.01h0.249A1.266,1.266,0,0,1,71.605,103.053Zm5.441,5a1.317,1.317,0,0,1-.47.279,1.759,1.759,0,0,1-.626.119,1.706,1.706,0,0,1-.686-0.124,1.126,1.126,0,0,1-.456-0.358,1.555,1.555,0,0,1-.258-0.571,3.261,3.261,0,0,1-.083-0.775h2.956a5.289,5.289,0,0,0,.055-0.725,2.706,2.706,0,0,0-.157-1.008,1.494,1.494,0,0,0-.405-0.59,1.342,1.342,0,0,0-.562-0.283,2.68,2.68,0,0,0-.626-0.075,1.8,1.8,0,0,0-1.5.665,3.077,3.077,0,0,0-.525,1.937,4.418,4.418,0,0,0,.12,1.073,2.365,2.365,0,0,0,.368.819,1.642,1.642,0,0,0,.635.526,2.1,2.1,0,0,0,.912.184A2.822,2.822,0,0,0,76.628,109a2.033,2.033,0,0,0,.7-0.378Zm-0.552-3.113a1.614,1.614,0,0,1,.267,1.058H74.478a1.6,1.6,0,0,1,.391-1.053,1.218,1.218,0,0,1,.87-0.308A0.953,0.953,0,0,1,76.494,104.935Zm2.145,6.073h0.737v-2.066a2.072,2.072,0,0,0,.428.154,2.539,2.539,0,0,0,.539.045,1.975,1.975,0,0,0,.87-0.189,1.884,1.884,0,0,0,.668-0.536,2.532,2.532,0,0,0,.428-0.849,3.88,3.88,0,0,0,.152-1.127,3.183,3.183,0,0,0-.451-1.917,1.622,1.622,0,0,0-1.372-.586,1.571,1.571,0,0,0-.769.184,1.444,1.444,0,0,0-.548.531H79.284l-0.138-.6H78.639v6.952Zm2.417-6.247a1.024,1.024,0,0,1,.368.363,1.693,1.693,0,0,1,.207.566,3.916,3.916,0,0,1,.064.74,2.537,2.537,0,0,1-.373,1.5,1.184,1.184,0,0,1-1.008.512,1.722,1.722,0,0,1-.562-0.075,1.18,1.18,0,0,1-.377-0.213V105.7a1.511,1.511,0,0,1,.382-0.8,1.021,1.021,0,0,1,.741-0.263A1.108,1.108,0,0,1,81.056,104.761Zm2.721,0.268a1.822,1.822,0,0,1,.3-0.148,2.935,2.935,0,0,1,.359-0.112A3.725,3.725,0,0,1,84.8,104.7a2.259,2.259,0,0,1,.336-0.026,0.988,0.988,0,0,1,.737.218,1.127,1.127,0,0,1,.2.765c0,0.159-.009.338-0.028,0.536a1.69,1.69,0,0,0-.253-0.019H85.545a5.271,5.271,0,0,0-.925.074,2.208,2.208,0,0,0-.718.248,1.241,1.241,0,0,0-.465.467,1.466,1.466,0,0,0-.166.73,1.534,1.534,0,0,0,.106.586,1.332,1.332,0,0,0,.29.442A1.268,1.268,0,0,0,84.1,109a1.49,1.49,0,0,0,.548.1,1.829,1.829,0,0,0,.525-0.069,1.868,1.868,0,0,0,.405-0.174,1.365,1.365,0,0,0,.3-0.238,1.654,1.654,0,0,0,.207-0.274h0.046l0.193,0.7h0.543a3.532,3.532,0,0,1-.1-0.606c-0.018-.219-0.028-0.45-0.028-0.7q0-.507.028-1.073c0.018-.377.028-0.765,0.028-1.162a2.9,2.9,0,0,0-.051-0.536,1.292,1.292,0,0,0-.2-0.492,1.087,1.087,0,0,0-.442-0.362,1.79,1.79,0,0,0-.769-0.139,4.223,4.223,0,0,0-.971.109,2.527,2.527,0,0,0-.815.338Zm0.488,3.154a0.762,0.762,0,0,1-.23-0.571,0.666,0.666,0,0,1,.124-0.413,0.85,0.85,0,0,1,.331-0.258,1.65,1.65,0,0,1,.479-0.129,4.414,4.414,0,0,1,.557-0.035c0.086,0,.173,0,0.262,0s0.176,0.009.262,0.015v0.824a1.148,1.148,0,0,1-.143.269,1.17,1.17,0,0,1-.244.253,1.312,1.312,0,0,1-.35.189,1.344,1.344,0,0,1-.46.074A0.81,0.81,0,0,1,84.265,108.183Zm4.079,0.839H89.08v-4.966H88.344v4.966Zm-0.014-6.1a0.483,0.483,0,0,0,.364.149,0.529,0.529,0,0,0,.377-0.149,0.5,0.5,0,0,0,.157-0.377,0.55,0.55,0,0,0-.157-0.393,0.5,0.5,0,0,0-.377-0.163,0.461,0.461,0,0,0-.364.163,0.579,0.579,0,0,0-.143.393A0.522,0.522,0,0,0,88.33,102.924Zm4.654,1.132a2.113,2.113,0,0,0-.6-0.1,1,1,0,0,0-.621.184,1.5,1.5,0,0,0-.419.521H91.308l-0.138-.606H90.655v4.966h0.737v-3.476a1.047,1.047,0,0,1,.285-0.591,0.837,0.837,0,0,1,.626-0.233,1.556,1.556,0,0,1,.525.1Z"/>
          <path id="Installation-2" data-name="Installation" class="cls-6" d="M69.012,130.886h0.761v-6.817H69.012v6.817Zm6.094,0v-2.941a4.31,4.31,0,0,0-.1-1,1.6,1.6,0,0,0-.284-0.629,0.993,0.993,0,0,0-.472-0.326,2.125,2.125,0,0,0-.66-0.092,1.843,1.843,0,0,0-.884.2,1.683,1.683,0,0,0-.591.512H72.082l-0.137-.595H71.431v4.87h0.733v-3.331a1.485,1.485,0,0,1,.444-0.7,1.171,1.171,0,0,1,.8-0.278,0.781,0.781,0,0,1,.756.385,2.494,2.494,0,0,1,.206,1.144v2.776h0.733Zm3.1-.73a1.182,1.182,0,0,1-.651.165,2.25,2.25,0,0,1-.687-0.107,2.553,2.553,0,0,1-.55-0.234l-0.22.663a2.749,2.749,0,0,0,.614.253A3.219,3.219,0,0,0,77.6,131a2.006,2.006,0,0,0,.7-0.112,1.439,1.439,0,0,0,.5-0.307,1.2,1.2,0,0,0,.3-0.467,1.749,1.749,0,0,0,.1-0.585,1.335,1.335,0,0,0-.165-0.706,1.537,1.537,0,0,0-.408-0.443,2.207,2.207,0,0,0-.531-0.282q-0.289-.108-0.532-0.219a1.769,1.769,0,0,1-.408-0.254,0.49,0.49,0,0,1-.165-0.394,0.607,0.607,0,0,1,.188-0.507,0.966,0.966,0,0,1,.591-0.146,2.378,2.378,0,0,1,.637.083,2.784,2.784,0,0,1,.509.19l0.174-.643a2.927,2.927,0,0,0-1.411-.311,1.539,1.539,0,0,0-1.045.326,1.289,1.289,0,0,0-.376,1.027,1.236,1.236,0,0,0,.165.682,1.414,1.414,0,0,0,.408.414,2.425,2.425,0,0,0,.532.263c0.192,0.068.37,0.14,0.531,0.214a1.387,1.387,0,0,1,.408.278,0.619,0.619,0,0,1,.165.458A0.654,0.654,0,0,1,78.2,130.156ZM79.7,126.7h0.715v2.844a2.071,2.071,0,0,0,.229,1.125,0.884,0.884,0,0,0,.788.336,2.455,2.455,0,0,0,.632-0.078,2.684,2.684,0,0,0,.541-0.205l-0.165-.594c-0.135.059-.257,0.106-0.367,0.142a1.342,1.342,0,0,1-.4.053,0.427,0.427,0,0,1-.4-0.209,1.551,1.551,0,0,1-.119-0.716v-2.7h1.246v-0.682H81.146v-1.188l-0.733.224v0.964H79.7V126.7Zm3.867,0.273a1.665,1.665,0,0,1,.3-0.145,2.746,2.746,0,0,1,.358-0.11,3.687,3.687,0,0,1,.367-0.071,2.531,2.531,0,0,1,.334-0.025,0.989,0.989,0,0,1,.733.215,1.087,1.087,0,0,1,.2.749c0,0.156-.009.332-0.028,0.526a1.674,1.674,0,0,0-.252-0.019H85.325a5.325,5.325,0,0,0-.921.073,2.214,2.214,0,0,0-.715.243,1.228,1.228,0,0,0-.463.458,1.42,1.42,0,0,0-.165.716,1.486,1.486,0,0,0,.105.575,1.293,1.293,0,0,0,.289.433,1.264,1.264,0,0,0,.435.278,1.519,1.519,0,0,0,.545.1,1.85,1.85,0,0,0,.522-0.068,1.808,1.808,0,0,0,.4-0.171,1.345,1.345,0,0,0,.3-0.233,1.616,1.616,0,0,0,.206-0.268h0.046l0.193,0.682h0.541a3.4,3.4,0,0,1-.1-0.595q-0.027-.321-0.028-0.681,0-.5.028-1.052t0.028-1.14a2.805,2.805,0,0,0-.05-0.526,1.259,1.259,0,0,0-.2-0.482,1.079,1.079,0,0,0-.44-0.355,1.808,1.808,0,0,0-.765-0.136,4.242,4.242,0,0,0-.967.107,2.547,2.547,0,0,0-.811.331Zm0.486,3.092a0.741,0.741,0,0,1-.229-0.56,0.643,0.643,0,0,1,.124-0.4,0.837,0.837,0,0,1,.33-0.253,1.67,1.67,0,0,1,.477-0.127,4.376,4.376,0,0,1,.555-0.034c0.085,0,.172,0,0.261,0s0.175,0.008.261,0.014v0.809a1.14,1.14,0,0,1-.142.263,1.127,1.127,0,0,1-.243.248,1.3,1.3,0,0,1-.348.185,1.334,1.334,0,0,1-.458.073A0.814,0.814,0,0,1,84.051,130.063Zm4.72-5.994H88.037v5.843a1.118,1.118,0,0,0,.266.843,0.956,0.956,0,0,0,.678.248,2.477,2.477,0,0,0,.454-0.049,1.446,1.446,0,0,0,.408-0.126l-0.082-.614a1.391,1.391,0,0,1-.312.088,1.831,1.831,0,0,1-.257.019,0.368,0.368,0,0,1-.312-0.146,0.826,0.826,0,0,1-.11-0.487v-5.619Zm2.676,0H90.713v5.843a1.118,1.118,0,0,0,.266.843,0.956,0.956,0,0,0,.678.248,2.477,2.477,0,0,0,.454-0.049,1.446,1.446,0,0,0,.408-0.126l-0.082-.614a1.391,1.391,0,0,1-.312.088,1.831,1.831,0,0,1-.257.019,0.368,0.368,0,0,1-.312-0.146,0.827,0.827,0,0,1-.11-0.487v-5.619Zm2.016,2.9a1.662,1.662,0,0,1,.3-0.145,2.745,2.745,0,0,1,.357-0.11,3.7,3.7,0,0,1,.367-0.071,2.53,2.53,0,0,1,.335-0.025,0.99,0.99,0,0,1,.733.215,1.087,1.087,0,0,1,.2.749c0,0.156-.009.332-0.028,0.526a1.674,1.674,0,0,0-.252-0.019H95.222a5.325,5.325,0,0,0-.921.073,2.213,2.213,0,0,0-.715.243,1.229,1.229,0,0,0-.463.458,1.421,1.421,0,0,0-.165.716,1.486,1.486,0,0,0,.105.575,1.293,1.293,0,0,0,.289.433,1.264,1.264,0,0,0,.435.278,1.519,1.519,0,0,0,.545.1,1.85,1.85,0,0,0,.522-0.068,1.808,1.808,0,0,0,.4-0.171,1.345,1.345,0,0,0,.3-0.233,1.616,1.616,0,0,0,.206-0.268h0.046L96,130.906h0.541a3.4,3.4,0,0,1-.1-0.595q-0.028-.321-0.028-0.681,0-.5.028-1.052t0.028-1.14a2.805,2.805,0,0,0-.05-0.526,1.259,1.259,0,0,0-.2-0.482,1.077,1.077,0,0,0-.44-0.355,1.808,1.808,0,0,0-.765-0.136,4.241,4.241,0,0,0-.967.107,2.546,2.546,0,0,0-.811.331Zm0.486,3.092a0.741,0.741,0,0,1-.229-0.56,0.643,0.643,0,0,1,.124-0.4,0.836,0.836,0,0,1,.33-0.253,1.67,1.67,0,0,1,.477-0.127,4.375,4.375,0,0,1,.554-0.034c0.086,0,.173,0,0.261,0s0.176,0.008.261,0.014v0.809a1.14,1.14,0,0,1-.142.263,1.127,1.127,0,0,1-.243.248,1.3,1.3,0,0,1-.348.185,1.333,1.333,0,0,1-.458.073A0.814,0.814,0,0,1,93.949,130.063Zm3.3-3.365h0.715v2.844a2.071,2.071,0,0,0,.229,1.125,0.884,0.884,0,0,0,.788.336,2.454,2.454,0,0,0,.632-0.078,2.686,2.686,0,0,0,.541-0.205l-0.165-.594c-0.135.059-.257,0.106-0.367,0.142a1.342,1.342,0,0,1-.4.053,0.427,0.427,0,0,1-.4-0.209A1.55,1.55,0,0,1,98.7,129.4v-2.7h1.246v-0.682H98.7v-1.188l-0.733.224v0.964H97.248V126.7Zm3.867,4.188h0.733v-4.87h-0.733v4.87Zm-0.014-5.98a0.482,0.482,0,0,0,.362.146,0.527,0.527,0,0,0,.376-0.146,0.483,0.483,0,0,0,.156-0.37,0.536,0.536,0,0,0-.156-0.385,0.5,0.5,0,0,0-.376-0.16,0.463,0.463,0,0,0-.362.16,0.563,0.563,0,0,0-.142.385A0.506,0.506,0,0,0,101.1,124.906Zm2.177,4.592a2.286,2.286,0,0,0,.366.809,1.642,1.642,0,0,0,.628.516,2.07,2.07,0,0,0,.894.18,1.784,1.784,0,0,0,1.489-.657,3.009,3.009,0,0,0,.518-1.9,4.3,4.3,0,0,0-.119-1.047,2.3,2.3,0,0,0-.367-0.808,1.635,1.635,0,0,0-.628-0.516,2.066,2.066,0,0,0-.893-0.18,1.786,1.786,0,0,0-1.49.657,3.006,3.006,0,0,0-.517,1.894A4.255,4.255,0,0,0,103.278,129.5Zm1.888-2.917a1.062,1.062,0,0,1,.577.151,1.165,1.165,0,0,1,.385.4,1.918,1.918,0,0,1,.215.595,3.62,3.62,0,0,1,.069.72q0,1.88-1.246,1.87a1.034,1.034,0,0,1-.578-0.156,1.19,1.19,0,0,1-.385-0.409,1.954,1.954,0,0,1-.215-0.594,3.573,3.573,0,0,1-.069-0.711q0-1.88,1.247-1.87h0Zm6.837,4.3v-2.941a4.31,4.31,0,0,0-.1-1,1.6,1.6,0,0,0-.284-0.629,0.988,0.988,0,0,0-.472-0.326,2.121,2.121,0,0,0-.66-0.092,1.84,1.84,0,0,0-.884.2,1.681,1.681,0,0,0-.591.512h-0.037l-0.137-.595h-0.513v4.87h0.733v-3.331a1.478,1.478,0,0,1,.444-0.7,1.172,1.172,0,0,1,.8-0.278,0.78,0.78,0,0,1,.756.385,2.487,2.487,0,0,1,.206,1.144v2.776H112Z"/>
          <path id="Low" class="cls-7" d="M130.223,129.658H127.3V124h-1.31v6.851h4.236v-1.194Zm0.225-.2a2.222,2.222,0,0,0,.421.817,1.9,1.9,0,0,0,.7.524,2.459,2.459,0,0,0,.994.186,2.09,2.09,0,0,0,1.659-.671,2.806,2.806,0,0,0,.589-1.913,3.814,3.814,0,0,0-.139-1.057,2.261,2.261,0,0,0-.416-0.817,1.868,1.868,0,0,0-.7-0.524,2.447,2.447,0,0,0-1-.186,2.106,2.106,0,0,0-1.664.671,2.8,2.8,0,0,0-.592,1.913A3.815,3.815,0,0,0,130.448,129.462Zm1.4-2.212a0.838,0.838,0,0,1,.717-0.352,0.774,0.774,0,0,1,.746.416,2.329,2.329,0,0,1,.22,1.091,2.131,2.131,0,0,1-.239,1.145,0.812,0.812,0,0,1-.727.362,0.808,0.808,0,0,1-.746-0.431,1.72,1.72,0,0,1-.172-0.479,2.937,2.937,0,0,1-.057-0.6A2,2,0,0,1,131.849,127.25Zm6.283-1.292-0.794,2.447-0.162.881h-0.048l-0.115-.871-0.7-2.457h-1.348l1.539,4.942h0.947l0.918-2.73,0.115-.626h0.047l0.125,0.616,0.966,2.74h0.918l1.472-4.942h-1.138l-0.612,2.5-0.134.822h-0.038l-0.172-.812-0.87-2.506h-0.918Z"/>
        </g>
        <path class="cls-8" d="M30,93H160v1H30V93Zm0,22H160v1H30v-1Z"/>
      </g>
    </g>
  </g>
  <g id="_1-3" data-name="1">
    <rect id="Rounded_Rectangle_593_copy" data-name="Rounded Rectangle 593 copy" class="cls-2" x="76" y="22" width="76" height="20" rx="5" ry="5"/>
    <path id="Rounded_Rectangle_599" data-name="Rounded Rectangle 599" class="cls-9" d="M99,28h46a1,1,0,0,1,0,2H99A1,1,0,0,1,99,28Zm0,6h35a1,1,0,0,1,0,2H99A1,1,0,0,1,99,34Z"/>
    <g>
      <rect id="Rounded_Rectangle_598" data-name="Rounded Rectangle 598" class="cls-10" x="82" y="26" width="11" height="11" rx="2" ry="2"/>
      <path class="cls-11" d="M86.7,34.385a0.812,0.812,0,0,1-1.164,0l-1.725-1.761a0.836,0.836,0,0,1-.242-0.593,0.845,0.845,0,0,1,.242-0.6,0.812,0.812,0,0,1,1.164,0L86.121,32.6l3.9-4a0.812,0.812,0,0,1,1.164,0,0.85,0.85,0,0,1,0,1.188Z"/>
    </g>
  </g>
  <g id="_2" data-name="2">
    <rect id="Rounded_Rectangle_593_copy-2" data-name="Rounded Rectangle 593 copy" class="cls-2" x="154" y="44" width="53" height="17" rx="5" ry="5"/>
    <path id="Rounded_Rectangle_599-2" data-name="Rounded Rectangle 599" class="cls-12" d="M177.047,49h22.906a1.047,1.047,0,1,1,0,2.094H177.047A1.047,1.047,0,1,1,177.047,49Zm0,4.906h13.437a1.047,1.047,0,1,1,0,2.094H177.047A1.047,1.047,0,1,1,177.047,53.906Z"/>
    <g>
      <rect id="Rounded_Rectangle_598-2" data-name="Rounded Rectangle 598" class="cls-13" x="160" y="47" width="10" height="10" rx="2" ry="2"/>
      <path class="cls-11" d="M164.274,54.622a0.737,0.737,0,0,1-1.058,0l-1.569-1.6a0.76,0.76,0,0,1-.22-0.539,0.768,0.768,0,0,1,.22-0.541,0.739,0.739,0,0,1,1.059,0L163.746,53l3.547-3.637a0.737,0.737,0,0,1,1.058,0,0.773,0.773,0,0,1,0,1.08Z"/>
    </g>
  </g>
</svg>
