<svg xmlns="http://www.w3.org/2000/svg" width="359" height="58" viewBox="0 0 359 58">
  <metadata><?xpacket begin="﻿" id="W5M0MpCehiHzreSzNTczkc9d"?>
<x:xmpmeta xmlns:x="adobe:ns:meta/" x:xmptk="Adobe XMP Core 5.6-c142 79.160924, 2017/07/13-01:06:39        ">
   <rdf:RDF xmlns:rdf="http://www.w3.org/1999/02/22-rdf-syntax-ns#">
      <rdf:Description rdf:about=""/>
   </rdf:RDF>
</x:xmpmeta>
                                                                                                    
                                                                                                    
                                                                                                    
                                                                                                    
                                                                                                    
                                                                                                    
                                                                                                    
                                                                                                    
                                                                                                    
                                                                                                    
                                                                                                    
                                                                                                    
                                                                                                    
                                                                                                    
                                                                                                    
                                                                                                    
                                                                                                    
                                                                                                    
                                                                                                    
                                                                                                    
                           
<?xpacket end="w"?></metadata>
<defs>
    <style>
      .cls-1 {
        fill: #11518e;
        fill-rule: evenodd;
      }
    </style>
  </defs>
  <path id="F_copy_16" data-name="F copy 16" class="cls-1" d="M0,55H28s0.808-2.432,1-3Zm1.462-5.082H29.246L30,47Zm1.462-5.082L30,45l1-3ZM31,40l1-5H54l2-10H34l2-11H60L63,2H21.2L15,40H31ZM72.361,15.005a8.032,8.032,0,0,0,7.554-6.544,5.306,5.306,0,0,0-5.357-6.47,7.872,7.872,0,0,0-7.469,6.47C66.481,12.064,68.811,15.005,72.361,15.005ZM71,55l7-37H66L59,55H71Zm25.389-.036c5.44,0,11.585-1.533,15.655-4.672l-3.653-7.373a17.246,17.246,0,0,1-9.19,2.993c-5.146,0-7.934-2.774-8.2-5.913h25l0.983-2.425c2.066-11.971-4.21-19.62-14.722-19.62A22.481,22.481,0,0,0,80.256,36.423C78.278,47.883,85.436,54.964,96.389,54.964ZM108,33H92a9.612,9.612,0,0,1,9-6C106.219,27,108.134,30.518,108,33Zm22.789,21.964c4.116,0,7.237-.828,8.86-2.142l-0.731-8.712a5.672,5.672,0,0,1-3.182.927c-1.911,0-2.823-1.533-2.47-3.577L140,5H128l-6.6,39.6C120.233,51.387,123.585,54.964,130.789,54.964ZM178,55l9-50H175l-2.449,15.151c-3.591-2.566-6.268-2.2-10.164-2.2-8.9,0-16.855,6.935-18.845,18.468C141.477,48.394,147.253,54.964,156,54.964c3.969,0,7.662.668,11-1.964v2h11Zm-16.611-9.964c-4.484,0-7.213-3.358-6.306-8.613s4.782-8.54,9.266-8.54c2.426,0,5.152,1.241,6.3,3.139l-1.864,10.8A11.244,11.244,0,0,1,161.389,45.037ZM208,55l7-41h14l2-12H191l-2,12h14l-8,41h13Zm30.778-39.995a8.478,8.478,0,0,0,8.136-6.544c0.655-3.6-1.945-6.47-5.769-6.47a8.308,8.308,0,0,0-8.044,6.47C232.446,12.064,234.955,15.005,238.778,15.005ZM238,55l6-37H232l-6,37h12Zm21.51-.036c4.19,0,7.2-.828,8.821-2.142L267.6,44.11a5.258,5.258,0,0,1-3.069.927c-1.911,0-2.822-1.533-2.47-3.577L264,29h7l3-11h-8l1-9H256l-1,9h-6l-2,11h6l-2.8,15.6C249.028,51.387,252.307,54.964,259.51,54.964ZM308,55l6-37H303l-1,3c-2.417-2.551-5.82-3.045-9.716-3.045-8.895,0-16.854,6.935-18.844,18.468-2.066,11.971,3.71,18.541,12.458,18.541,3.969,0,7.811.577,11.1-1.964v2h11Zm-16.714-9.964c-4.484,0-7.212-3.358-6.305-8.613s4.769-8.467,9.253-8.467c2.426,0,5.125,1.188,6.267,3.085l-1.462,10.89A12.025,12.025,0,0,1,291.286,45.037ZM352,55l3.777-25.876C356.9,22.627,354.013,18,346,18c-6.028,0-9.358.688-12,2V18H322l-6,37h12l3.941-22.507c1.6-1.606,3.541-4.61,6.923-4.61,3.528,0,5.542,1.533,4.8,5.84L340,55h12Z"/>
</svg>
