<svg id="icon" xmlns="http://www.w3.org/2000/svg" width="178" height="122" viewBox="0 0 178 122">
  <defs>
    <style>
      .cls-1 {
        fill: #eef3fe;
      }

      .cls-1, .cls-2, .cls-3, .cls-4, .cls-5, .cls-6, .cls-7, .cls-9 {
        fill-rule: evenodd;
      }

      .cls-2 {
        fill: #f3d5af;
      }

      .cls-3 {
        fill: #57b6f1;
      }

      .cls-4, .cls-8 {
        fill: #fff;
      }

      .cls-4 {
        opacity: 0.5;
      }

      .cls-5 {
        fill: #fbe3c5;
      }

      .cls-6 {
        fill: #343439;
      }

      .cls-7 {
        fill: #7879dc;
      }

      .cls-8 {
        stroke: #e3e3e3;
        stroke-linejoin: round;
        stroke-width: 1px;
      }

      .cls-9 {
        fill: #3c3c3c;
      }
    </style>
  </defs>
  <path class="cls-1" d="M16,68.019c0.518-12.348,3.106-22.638,28.987-30.87S78.739,25.287,91.68,17.569c10.426-6.394,42.473-5.832,57.974,15.435,10.784,14.8,10.007,34.037-2.07,47.334-10.26,11.3-31.5,20.432-52.8,24.7-21.692,4.344-37.893,1.057-53.939-5.117S15.655,82.768,16,68.019Z"/>
  <g id="user-2">
    <path class="cls-2" d="M62.794,61.244s-1.679,3.59-3.348,4.17l7.532,5.838,7.532-.834-0.837-5s-0.935-.7-2.511-4.17C69.466,57.5,62.794,61.244,62.794,61.244Z"/>
    <path class="cls-3" d="M61.174,63.82S44.023,66.2,44.6,85.7c0,0,20.822,13.99,43.194.834,0,0,2.7-19.384-14.956-23.352C72.837,63.181,67.765,71.769,61.174,63.82Z"/>
    <path class="cls-4" d="M65.3,67.351a3.186,3.186,0,0,0,.837,3.336L64.781,91s-0.079,1.43,2.042,1.481c1.538,0.038,2.24-.723,2.327-1.481L67.816,70.687s1.518-1.75.837-3.336C68.619,66.869,65.638,67.128,65.3,67.351Z"/>
    <path class="cls-5" d="M56.936,49.568s-2.322,3.128,1.674,5a8.338,8.338,0,0,0,4.185,6.672C63.16,61.349,73,64.4,74.511,54.572c0,0,3.284-1.837,1.674-5,0,0-1.214-5.9-1.674-5.838s-8.369-2.5-8.369-2.5L56.936,45.4v4.17"/>
    <path class="cls-6" d="M56,51a24.48,24.48,0,0,0,4.283-3.1s8.371,1.262,11.05-1.9c0,0,1.911-.3,4.015,2.738,0,0,.349,3.178,1.674,0,0,0,1.985-8.935-5.859-12.51C71.163,36.224,55.2,31.407,56,51Z"/>
  </g>
  <g id="user-1">
    <path class="cls-2" d="M92.524,60.567s-2.1,4.487-4.185,5.213l9.416,7.3,9.415-1.043-1.046-6.255s-1.169-.874-3.139-5.213C100.864,55.893,92.524,60.567,92.524,60.567Z"/>
    <path class="cls-7" d="M90.5,63.786S69.06,66.768,69.78,91.136c0,0,26.027,17.487,53.993,1.043,0,0,3.38-24.23-18.695-29.19C105.078,62.988,98.737,73.723,90.5,63.786Z"/>
    <path class="cls-4" d="M95.662,68.2a3.982,3.982,0,0,0,1.046,4.17l-1.7,25.393s-0.1,1.787,2.552,1.852c1.923,0.047,2.8-.9,2.909-1.852L98.8,72.371s1.9-2.188,1.046-4.17C99.8,67.6,96.079,67.921,95.662,68.2Z"/>
    <path class="cls-5" d="M85.2,45.972s-2.9,3.91,2.092,6.255a10.422,10.422,0,0,0,5.231,8.34c0.458,0.13,12.757,3.939,14.646-8.34,0,0,4.105-2.3,2.093-6.255,0,0-1.518-7.379-2.093-7.3s-10.461-3.128-10.461-3.128L85.2,40.76v5.213"/>
    <path class="cls-6" d="M84,47a16.9,16.9,0,0,0,5.385-3.113S99.85,45.465,103.2,41.506c0,0,2.389-.372,5.018,3.423,0,0,.436,3.973,2.093,0,0,0,2.481-11.169-7.324-15.638C102.985,29.292,83.221,23.165,84,47Z"/>
  </g>
  <g id="note">
    <rect id="Rounded_Rectangle_598" data-name="Rounded Rectangle 598" class="cls-8" x="108" y="64" width="37" height="42" rx="2" ry="2"/>
    <path id="Admin" class="cls-9" d="M117.5,82.87h0.823l-2.487-6.858h-0.356L113,82.87h0.776L114.431,81h2.4Zm-2.1-4.6,0.233-1.042h0.009l0.233,1.022L116.6,80.3h-1.917Zm7.312-2.151h-0.748v2.006A2.758,2.758,0,0,0,121.528,78a3.051,3.051,0,0,0-.547-0.039,1.968,1.968,0,0,0-1.557.641,2.756,2.756,0,0,0-.566,1.876,3.188,3.188,0,0,0,.454,1.9,1.62,1.62,0,0,0,1.389.608,1.536,1.536,0,0,0,1.374-.781h0.038L122.3,82.89h0.505a4.659,4.659,0,0,1-.084-0.786q-0.011-.4-0.01-0.892V76.118Zm-2.445,6.053a1.068,1.068,0,0,1-.37-0.381,1.789,1.789,0,0,1-.2-0.579,4.19,4.19,0,0,1-.061-0.733,2.187,2.187,0,0,1,.365-1.4,1.242,1.242,0,0,1,1.01-.439,2.276,2.276,0,0,1,.571.058,1.037,1.037,0,0,1,.383.193v2.392a1.381,1.381,0,0,1-.383.776,1.083,1.083,0,0,1-.758.256A1.045,1.045,0,0,1,120.266,82.171Zm7.374,0.7V79.649a1.578,1.578,0,0,1,.374-0.772,0.968,0.968,0,0,1,.729-0.27,1.065,1.065,0,0,1,.454.082,0.61,0.61,0,0,1,.271.251,1.119,1.119,0,0,1,.131.424,4.782,4.782,0,0,1,.033.6v2.9h0.748V79.976a5.318,5.318,0,0,0-.079-1,1.5,1.5,0,0,0-.258-0.627,0.93,0.93,0,0,0-.448-0.323,2.1,2.1,0,0,0-.664-0.092,1.721,1.721,0,0,0-.856.212,1.532,1.532,0,0,0-.594.588,1.162,1.162,0,0,0-.444-0.622,1.367,1.367,0,0,0-.734-0.178,1.68,1.68,0,0,0-.866.2,2.218,2.218,0,0,0-.584.506h-0.037l-0.141-.588h-0.523V82.87H124.9V79.552a1.439,1.439,0,0,1,.4-0.675,1,1,0,0,1,.716-0.27,0.926,0.926,0,0,1,.453.1,0.647,0.647,0,0,1,.267.289,1.5,1.5,0,0,1,.126.477,5.912,5.912,0,0,1,.033.67v2.73h0.748Zm4.264,0h0.749V78.047H131.9V82.87Zm-0.014-5.923a0.5,0.5,0,0,0,.37.145,0.549,0.549,0,0,0,.383-0.145,0.474,0.474,0,0,0,.159-0.366,0.543,0.543,0,0,0-.542-0.54,0.479,0.479,0,0,0-.37.159,0.55,0.55,0,0,0-.145.381A0.5,0.5,0,0,0,131.89,76.948ZM138,82.87V79.957a4.176,4.176,0,0,0-.1-0.989,1.565,1.565,0,0,0-.29-0.622,1.009,1.009,0,0,0-.482-0.323,2.24,2.24,0,0,0-.673-0.092,1.932,1.932,0,0,0-.9.2,1.714,1.714,0,0,0-.6.506h-0.037l-0.14-.588h-0.524V82.87H135v-3.3a1.46,1.46,0,0,1,.454-0.69,1.215,1.215,0,0,1,.818-0.275,0.8,0.8,0,0,1,.771.381,2.4,2.4,0,0,1,.211,1.133V82.87H138Z"/>
    <path id="HR" class="cls-9" d="M117.032,97h0.8V90.087h-0.8V93.1H113.8V90.087H113V97h0.8V93.832h3.231V97Zm2.434,0h0.8V93.872l0.943,0.148L123.063,97H124l-1.674-2.737-0.461-.366a2.08,2.08,0,0,0,1.1-.672,1.944,1.944,0,0,0,.433-1.314,1.971,1.971,0,0,0-.183-0.889,1.649,1.649,0,0,0-.485-0.593,1.933,1.933,0,0,0-.7-0.326,3.489,3.489,0,0,0-.841-0.1q-0.394,0-.871.04a8.26,8.26,0,0,0-.841.109V97Zm2.722-5.939a1.175,1.175,0,0,1,.356.88,1.245,1.245,0,0,1-.433,1.047,1.736,1.736,0,0,1-1.1.336h-0.75v-2.55a0.961,0.961,0,0,1,.178-0.03l0.236-.02c0.083-.007.17-0.01,0.259-0.01h0.26A1.364,1.364,0,0,1,122.188,91.065Z"/>
  </g>
  <path class="cls-5" d="M117.254,59.134S108.19,62.89,117,63c0,0-.957,5.368.96,5.967,0,0,5.747,1.213,8.04-2.967,0,0,.642-5.114-0.266-6.11C124.435,58.464,118.446,58.627,117.254,59.134Z"/>
</svg>
