<svg id="icon" xmlns="http://www.w3.org/2000/svg" width="188" height="122" viewBox="0 0 188 122">
  <defs>
    <style>
      .cls-1 {
        fill: #eef3fe;
      }

      .cls-1, .cls-11, .cls-12, .cls-13, .cls-14, .cls-2, .cls-3, .cls-4, .cls-5, .cls-6, .cls-7, .cls-8, .cls-9 {
        fill-rule: evenodd;
      }

      .cls-2 {
        fill: #fbe3c5;
      }

      .cls-3 {
        fill: #b5ccfa;
      }

      .cls-4 {
        fill: #f3d5af;
      }

      .cls-5 {
        fill: #7879dc;
      }

      .cls-10, .cls-6 {
        fill: #fff;
      }

      .cls-6 {
        opacity: 0.5;
      }

      .cls-7 {
        fill: #343439;
      }

      .cls-8 {
        fill: #193151;
      }

      .cls-9 {
        fill: #5387ff;
      }

      .cls-10 {
        stroke: #e3e3e3;
        stroke-linejoin: round;
        stroke-width: 1px;
      }

      .cls-11, .cls-12 {
        fill: #36be8f;
      }

      .cls-11, .cls-13 {
        opacity: 0.6;
      }

      .cls-13, .cls-14 {
        fill: #de617e;
      }
    </style>
  </defs>
  <path class="cls-1" d="M7,73.019c0.518-12.348,3.106-22.638,28.987-30.87S69.739,30.287,82.68,22.569C93.106,16.175,125.153,16.737,140.654,38c10.784,14.8,10.007,34.037-2.07,47.334-10.26,11.3-31.5,20.432-52.8,24.7-21.692,4.344-37.893,1.057-53.939-5.117S6.655,87.768,7,73.019Z"/>
  <g id="user2">
    <path class="cls-2" d="M40,69h4a3.017,3.017,0,0,1,.873,2.977s-0.379,1.159-1.011.112a6.574,6.574,0,0,1-.561-1.684s-1.493.375,0.112,3.48c0,0,.242.8-0.9,0.674C42.515,74.559,39.242,74.669,40,69Z"/>
    <path id="Shape_718_copy" data-name="Shape 718 copy" class="cls-2" d="M72,69H68a4.786,4.786,0,0,0-.46,3.272s0.372,1.124.993,0.109a6.326,6.326,0,0,0,.551-1.633s1.467,0.364-.11,3.375c0,0-.238.771,0.882,0.653C69.856,74.775,72.745,74.5,72,69Z"/>
    <path class="cls-3" d="M46,67l1.35,40.343h4.158l4.367-31.437,3.949,30.744h4.158L66,67H46Z"/>
    <g id="user">
      <path class="cls-4" d="M52.769,35.828s-1.286,2.77-2.564,3.218l5.769,4.505,5.769-.644L61.1,39.046s-0.716-.54-1.923-3.218C57.879,32.942,52.769,35.828,52.769,35.828Z"/>
      <path class="cls-5" d="M66,67H46l0.445-18.262S43.5,65.257,45,69H40l0.045-11.393s0.872-7.935,1.459-10.216c0.771-2.994.231-9.567,9.543-9.655,0.032,0.137,2.106,3.687,5.071,3.5a6.008,6.008,0,0,0,4.809-3.5s6.956-.5,8.532,3.929c1.316,3.579,2.6,13.793,2.582,16.279S72,69,72,69H67s0.084-16.585-1.015-20.187C65.4,46.925,66,67,66,67Z"/>
      <path class="cls-6" d="M54.58,41.453a2.957,2.957,0,0,0,.778,3.1L54.093,63.417s-0.073,1.328,1.9,1.376c1.43,0.035,2.083-.672,2.163-1.376l-1.24-18.866s1.412-1.625.778-3.1C57.661,41,54.89,41.245,54.58,41.453Z"/>
      <path class="cls-2" d="M48.56,27.657s-1.779,2.414,1.282,3.862a6.446,6.446,0,0,0,3.2,5.149c0.28,0.081,7.816,2.432,8.974-5.149,0,0,2.515-1.418,1.282-3.862,0,0-.93-4.555-1.282-4.505s-6.41-1.931-6.41-1.931L48.56,24.439v3.218"/>
      <path class="cls-7" d="M48,28a7.475,7.475,0,0,0,3.123-1.631s6.411,0.974,8.463-1.47c0,0,1.464-.23,3.075,2.113,0,0,.324,2.439,1.339-0.013,0,0,1.463-6.882-4.544-9.641C59.456,17.359,48,12.954,48,28Z"/>
    </g>
    <path class="cls-8" d="M63.982,105.957a3.538,3.538,0,0,0,0,2.079,4.551,4.551,0,0,0,.888,1.571s1.757,3.314-1.322,3.118c-3.061-.195-0.166-0.007-0.166-0.007s-1.256.76-3.01-2.048a10.416,10.416,0,0,1-.414-2.012c-0.054-.958-0.131-2.7-0.134-2.7C59.777,105.919,63.982,105.957,63.982,105.957Z"/>
    <path class="cls-8" d="M51.508,105.957s0.791,2.261.191,2.612a2.27,2.27,0,0,1-1.447,1.339c-0.184.448-3.69,2.518-5.181,2.094,0.006-.183-1.3-0.782-0.692-2,0,0,3.488-2.615,3.463-3.835Z"/>
  </g>
  <g id="user-2" data-name="user">
    <path class="cls-2" d="M66,65h5a5.163,5.163,0,0,1,.436,3.577s-0.421,1.288-1.123.125a7.3,7.3,0,0,1-.624-1.871s-1.659.417,0.125,3.867c0,0,.269.883-1,0.748C68.817,71.446,65.157,71.3,66,65Z"/>
    <path id="Shape_718_copy-2" data-name="Shape 718 copy" class="cls-2" d="M102,66H97s-0.8.731-.378,2.9c0,0,.413,1.249,1.1.121a7.026,7.026,0,0,0,.613-1.814s1.63,0.4-.123,3.75c0,0-.264.857,0.98,0.726C99.2,71.686,102.828,72.108,102,66Z"/>
    <path class="cls-3" d="M73,63l1.188,44.873h4.62l4.852-34.93,4.388,34.16h4.62L95,63H73Z"/>
    <g id="user-3" data-name="user">
      <path class="cls-4" d="M80.21,28.411s-1.429,3.078-2.849,3.575l6.41,5.006,6.41-.715-0.712-4.291s-0.8-.6-2.137-3.575C85.887,25.2,80.21,28.411,80.21,28.411Z"/>
      <path class="cls-9" d="M95,63H73l0.183-20.245s-3.538,18.17-1.871,22.329H65.7L66.073,52.61s0.969-8.817,1.622-11.351c0.857-3.326.257-10.63,10.6-10.728,0.035,0.152,2.341,4.1,5.634,3.888a6.676,6.676,0,0,0,5.343-3.888S97,29.98,98.755,34.9c1.463,3.976,2.892,15.326,2.869,18.087S102,66,102,66H97s-0.884-19.158-2.106-23.161C94.248,40.742,95,63,95,63Z"/>
      <path class="cls-6" d="M82.222,34.661a3.286,3.286,0,0,0,.865,3.443L81.681,59.066S81.6,60.542,83.79,60.595c1.589,0.039,2.314-.746,2.4-1.529L84.816,38.1s1.568-1.806.864-3.443C85.645,34.163,82.566,34.431,82.222,34.661Z"/>
      <path class="cls-2" d="M75.533,19.332s-1.976,2.682,1.424,4.291a7.162,7.162,0,0,0,3.561,5.721c0.312,0.089,8.685,2.7,9.971-5.721,0,0,2.795-1.576,1.424-4.291,0,0-1.033-5.062-1.424-5.006s-7.122-2.145-7.122-2.145l-7.834,3.576v3.576"/>
      <path class="cls-7" d="M75,20a11.055,11.055,0,0,0,3.381-2.1s7.124,1.082,9.4-1.633c0,0,1.626-.255,3.416,2.348,0,0,.671,3.108,1.8.383,0,0,1.215-8.6-5.36-11.11C87.64,7.89,73.712,3.271,75,20Z"/>
    </g>
    <path class="cls-8" d="M92.668,106.333a3.932,3.932,0,0,0,0,2.31,5.059,5.059,0,0,0,.987,1.745s1.952,3.682-1.469,3.464c-3.4-.217-0.184-0.007-0.184-0.007s-1.4.844-3.344-2.276a11.563,11.563,0,0,1-.46-2.236c-0.06-1.064-.145-3-0.149-3C88,106.29,92.668,106.333,92.668,106.333Z"/>
    <path class="cls-8" d="M78.808,106.333s0.879,2.512.212,2.9a2.524,2.524,0,0,1-1.608,1.488c-0.2.5-4.1,2.8-5.757,2.326,0.007-.2-1.447-0.869-0.769-2.225,0,0,3.876-2.906,3.848-4.262Z"/>
  </g>
  <g id="_1" data-name="1">
    <rect id="Rounded_Rectangle_593_copy" data-name="Rounded Rectangle 593 copy" class="cls-10" x="96" y="8" width="70" height="20" rx="5" ry="5"/>
    <path id="Rounded_Rectangle_599" data-name="Rounded Rectangle 599" class="cls-11" d="M136,14h22a1,1,0,0,1,0,2H136A1,1,0,0,1,136,14Zm0,6h11a1,1,0,0,1,0,2H136A1,1,0,0,1,136,20Z"/>
    <path id="Active" class="cls-12" d="M107.9,21.885h0.98l-2.506-7.368h-0.825l-2.56,7.368h0.98l0.634-1.9h2.673Zm-1.96-5.9h0.029L107,19.152h-2.122Zm4.913,4.656a2.8,2.8,0,0,1-.32-1.392V19.041a2.747,2.747,0,0,1,.324-1.379,1.1,1.1,0,0,1,1.032-.569,1.017,1.017,0,0,1,.792.352,1.233,1.233,0,0,1,.315.853h0.873l0.01-.03a1.838,1.838,0,0,0-.544-1.392,1.953,1.953,0,0,0-1.446-.567,2.04,2.04,0,0,0-1.714.787,3.089,3.089,0,0,0-.607,1.946v0.212a3.1,3.1,0,0,0,.6,1.953,2.179,2.179,0,0,0,3.121.235,1.6,1.6,0,0,0,.586-1.258l-0.015-.03h-0.868a0.984,0.984,0,0,1-.332.752A1.19,1.19,0,0,1,110.848,20.645Zm4.542-5.556v1.321h-0.839v0.739h0.839v3.325a1.632,1.632,0,0,0,.346,1.151,1.221,1.221,0,0,0,.932.367,1.545,1.545,0,0,0,.414-0.058,0.829,0.829,0,0,0,.317-0.149l-0.131-.683a1.376,1.376,0,0,1-.171.048,0.863,0.863,0,0,1-.185.023,0.545,0.545,0,0,1-.408-0.157,0.766,0.766,0,0,1-.153-0.541V17.148h1V16.409h-1V15.088H115.39Zm4.028,1.321h-0.961v5.476h0.961V16.409Zm0-2.419h-0.961v1.017h0.961V13.99Zm1.99,2.419h-0.985l1.965,5.476h0.726l1.941-5.475h-0.98l-1.214,3.861-0.093.385h-0.029l-0.083-.385Zm7.749,5.387a2.309,2.309,0,0,0,.746-0.478l-0.376-.648a1.9,1.9,0,0,1-.631.4,2.342,2.342,0,0,1-.856.144,1.211,1.211,0,0,1-1.073-.514,2.327,2.327,0,0,1-.351-1.338l0.014-.025h3.375V18.808a2.886,2.886,0,0,0-.529-1.817,1.883,1.883,0,0,0-1.587-.683,2.027,2.027,0,0,0-1.6.772,2.9,2.9,0,0,0-.656,1.951v0.223a2.973,2.973,0,0,0,.636,1.984,2.193,2.193,0,0,0,1.773.754A2.881,2.881,0,0,0,129.157,21.8Zm-0.4-4.314a1.641,1.641,0,0,1,.282.987V18.55h-2.379l-0.01-.025a1.948,1.948,0,0,1,.4-1.03,1.031,1.031,0,0,1,.832-0.4A1.008,1.008,0,0,1,128.762,17.482Z"/>
  </g>
  <g id="_2" data-name="2">
    <rect id="Rounded_Rectangle_593_copy-2" data-name="Rounded Rectangle 593 copy" class="cls-10" x="106" y="32" width="77" height="20" rx="5" ry="5"/>
    <path id="Rounded_Rectangle_599-2" data-name="Rounded Rectangle 599" class="cls-13" d="M153,38h22a1,1,0,0,1,0,2H153A1,1,0,0,1,153,38Zm0,6h11a1,1,0,0,1,0,2H153A1,1,0,0,1,153,44Z"/>
    <path id="Inactive" class="cls-14" d="M112.953,38.517h-0.966v7.368h0.966V38.517Zm1.63,1.893v5.475h0.961V41.821a1.324,1.324,0,0,1,.491-0.519,1.447,1.447,0,0,1,.754-0.185,1.083,1.083,0,0,1,.842.3,1.524,1.524,0,0,1,.275,1.027v3.436h0.962V42.428a2.335,2.335,0,0,0-.469-1.6,1.69,1.69,0,0,0-1.322-.519,1.713,1.713,0,0,0-.905.24,1.951,1.951,0,0,0-.662.676l-0.068-.815h-0.859Zm9.916,5.475a2.967,2.967,0,0,1-.107-0.536,5.191,5.191,0,0,1-.03-0.567V42.145a1.707,1.707,0,0,0-.546-1.364,2.131,2.131,0,0,0-1.445-.473,2.184,2.184,0,0,0-1.481.5,1.328,1.328,0,0,0-.539,1.093l0.01,0.03,0.912-.01a0.738,0.738,0,0,1,.288-0.582,1.134,1.134,0,0,1,.757-0.243,1.088,1.088,0,0,1,.8.281,1.024,1.024,0,0,1,.283.762v0.541h-1.044a2.783,2.783,0,0,0-1.662.443,1.431,1.431,0,0,0-.612,1.227,1.643,1.643,0,0,0,.432,1.207,1.685,1.685,0,0,0,1.256.438,1.743,1.743,0,0,0,.93-0.266,2.272,2.272,0,0,0,.7-0.66,3.249,3.249,0,0,0,.032.382q0.027,0.19.075,0.438H124.5Zm-3.235-.941a0.764,0.764,0,0,1-.22-0.577,0.919,0.919,0,0,1,.349-0.713,1.365,1.365,0,0,1,.93-0.3H123.4V44.24a1.311,1.311,0,0,1-.547.638,1.662,1.662,0,0,1-.941.278A0.9,0.9,0,0,1,121.264,44.943Zm5.555-.3a2.8,2.8,0,0,1-.319-1.392V43.041a2.747,2.747,0,0,1,.324-1.379,1.1,1.1,0,0,1,1.032-.569,1.019,1.019,0,0,1,.793.352,1.233,1.233,0,0,1,.315.853h0.873l0.01-.03a1.831,1.831,0,0,0-.544-1.392,1.954,1.954,0,0,0-1.447-.567,2.041,2.041,0,0,0-1.715.787,3.089,3.089,0,0,0-.608,1.946v0.213a3.1,3.1,0,0,0,.606,1.953,2.181,2.181,0,0,0,3.123.235,1.6,1.6,0,0,0,.585-1.258l-0.014-.03h-0.869a0.984,0.984,0,0,1-.332.752A1.192,1.192,0,0,1,126.819,44.645Zm4.546-5.556v1.321h-0.84v0.739h0.84v3.325a1.632,1.632,0,0,0,.346,1.151,1.221,1.221,0,0,0,.932.367,1.547,1.547,0,0,0,.415-0.058,0.829,0.829,0,0,0,.317-0.149l-0.131-.683a1.376,1.376,0,0,1-.171.048,0.872,0.872,0,0,1-.186.023,0.543,0.543,0,0,1-.407-0.157,0.761,0.761,0,0,1-.154-0.541V41.148h1V40.409h-1V39.088h-0.961Zm4.031,1.321h-0.962v5.475H135.4V40.409Zm0-2.419h-0.962v1.017H135.4V37.99Zm1.99,2.419H136.4l1.966,5.475h0.727l1.943-5.475h-0.981l-1.215,3.861-0.093.385h-0.029l-0.083-.385ZM145.14,45.8a2.3,2.3,0,0,0,.747-0.478l-0.376-.648a1.889,1.889,0,0,1-.632.4,2.338,2.338,0,0,1-.856.144,1.213,1.213,0,0,1-1.074-.514,2.327,2.327,0,0,1-.351-1.338l0.015-.025h3.377V42.808a2.887,2.887,0,0,0-.53-1.817,1.884,1.884,0,0,0-1.588-.683,2.028,2.028,0,0,0-1.6.772,2.9,2.9,0,0,0-.657,1.951v0.223a2.973,2.973,0,0,0,.637,1.984,2.2,2.2,0,0,0,1.774.754A2.878,2.878,0,0,0,145.14,45.8Zm-0.395-4.314a1.635,1.635,0,0,1,.283.987V42.55h-2.381l-0.01-.025a1.94,1.94,0,0,1,.4-1.03,1.03,1.03,0,0,1,.832-0.4A1.008,1.008,0,0,1,144.745,41.482Z"/>
  </g>
</svg>
