<svg xmlns="http://www.w3.org/2000/svg" width="197" height="128" viewBox="0 0 197 128">
  <defs>
    <style>
      .cls-1 {
        fill: #eef3fe;
      }

      .cls-1, .cls-10, .cls-11, .cls-12, .cls-13, .cls-2, .cls-3, .cls-4, .cls-5, .cls-6, .cls-7, .cls-8 {
        fill-rule: evenodd;
      }

      .cls-2 {
        fill: #f3d5af;
      }

      .cls-3 {
        fill: #57b6f1;
      }

      .cls-4, .cls-9 {
        fill: #fff;
      }

      .cls-4 {
        opacity: 0.5;
      }

      .cls-5 {
        fill: #fbe3c5;
      }

      .cls-6 {
        fill: #343439;
      }

      .cls-7 {
        fill: #569bfc;
      }

      .cls-8 {
        fill: #7879dc;
      }

      .cls-9 {
        stroke: #e3e3e3;
        stroke-linejoin: round;
        stroke-width: 1px;
      }

      .cls-10, .cls-11 {
        fill: #36be8f;
      }

      .cls-10, .cls-12 {
        opacity: 0.6;
      }

      .cls-12, .cls-13 {
        fill: #de617e;
      }
    </style>
  </defs>
  <path class="cls-1" d="M8,73.019c0.518-12.348,3.106-22.638,28.987-30.87S70.739,30.287,83.68,22.569C94.106,16.175,126.153,16.737,141.654,38c10.784,14.8,10.007,34.037-2.07,47.334-10.26,11.3-31.5,20.432-52.8,24.7-21.692,4.344-37.893,1.057-53.939-5.117S7.655,87.768,8,73.019Z"/>
  <g id="user-2">
    <path class="cls-2" d="M41.794,72.244s-1.679,3.59-3.348,4.17l7.532,5.838,7.532-.834-0.837-5s-0.935-.7-2.511-4.17C48.466,68.5,41.794,72.244,41.794,72.244Z"/>
    <path class="cls-3" d="M40.174,74.82S23.023,77.2,23.6,96.7c0,0,20.822,13.99,43.194.834,0,0,2.7-19.384-14.956-23.352C51.837,74.181,46.765,82.769,40.174,74.82Z"/>
    <path class="cls-4" d="M44.3,78.351a3.186,3.186,0,0,0,.837,3.336L43.781,102s-0.079,1.43,2.042,1.482c1.538,0.037,2.24-.724,2.327-1.482L46.816,81.687s1.518-1.75.837-3.336C47.619,77.869,44.638,78.128,44.3,78.351Z"/>
    <path class="cls-5" d="M35.936,60.568s-2.322,3.128,1.674,5a8.338,8.338,0,0,0,4.185,6.672C42.16,72.349,52,75.4,53.511,65.572c0,0,3.284-1.837,1.674-5,0,0-1.214-5.9-1.674-5.838s-8.369-2.5-8.369-2.5L35.936,56.4v4.17"/>
    <path class="cls-6" d="M35,61a9.995,9.995,0,0,0,4.283-2.1s8.371,1.262,11.05-1.9c0,0,1.911-.3,4.015,2.738,0,0,.349,3.178,1.674,0,0,0,1.985-8.935-5.858-12.51C50.163,47.224,33.553,42.605,35,61Z"/>
  </g>
  <g id="user-3">
    <path class="cls-2" d="M102.994,72.244s-1.679,3.59-3.348,4.17l7.533,5.838,7.532-.834-0.837-5s-0.935-.7-2.511-4.17C109.666,68.5,102.994,72.244,102.994,72.244Z"/>
    <path class="cls-7" d="M101.374,74.82S84.223,77.2,84.8,96.7c0,0,20.822,13.99,43.194.834,0,0,2.7-19.384-14.956-23.352C113.037,74.181,107.965,82.769,101.374,74.82Z"/>
    <path class="cls-4" d="M105.505,78.351a3.186,3.186,0,0,0,.837,3.336L104.981,102s-0.079,1.43,2.041,1.482c1.539,0.037,2.24-.724,2.327-1.482l-1.333-20.314s1.518-1.75.837-3.336C108.819,77.869,105.838,78.128,105.505,78.351Z"/>
    <path class="cls-5" d="M97.136,60.568s-2.322,3.128,1.674,5a8.338,8.338,0,0,0,4.185,6.672c0.366,0.1,10.206,3.151,11.717-6.672,0,0,3.284-1.837,1.674-5,0,0-1.214-5.9-1.674-5.838s-8.369-2.5-8.369-2.5L97.136,56.4v4.17"/>
    <path class="cls-6" d="M96,61s3.007-.6,4.483-2.1c0,0,8.372,1.262,11.05-1.9,0,0,1.911-.3,4.015,2.738,0,0,.349,3.178,1.674,0,0,0,1.985-8.935-5.859-12.51C111.363,47.224,96,41.524,96,61Z"/>
  </g>
  <g id="user-1">
    <path class="cls-2" d="M71.524,71.567s-2.1,4.487-4.185,5.213l9.416,7.3,9.415-1.042L85.124,76.78s-1.169-.874-3.138-5.213C79.864,66.893,71.524,71.567,71.524,71.567Z"/>
    <path class="cls-8" d="M69.5,74.786s-21.439,2.981-20.718,27.35c0,0,26.027,17.487,53.992,1.042,0,0,3.38-24.23-18.7-29.19C84.078,73.988,77.737,84.723,69.5,74.786Z"/>
    <path class="cls-4" d="M74.662,79.2a3.982,3.982,0,0,0,1.046,4.17l-1.7,25.392s-0.1,1.787,2.552,1.852c1.923,0.047,2.8-.9,2.909-1.852L77.8,83.371s1.9-2.188,1.046-4.17C78.8,78.6,75.079,78.921,74.662,79.2Z"/>
    <path class="cls-5" d="M64.2,56.972s-2.9,3.91,2.092,6.255c0,0,.658,6.085,5.707,8.773,0.458,0.13,12.281,3.506,14.17-8.773,0,0,4.105-2.3,2.092-6.255,0,0-1.518-7.379-2.092-7.3s-10.462-3.128-10.462-3.128L64.2,51.76v5.213"/>
    <path class="cls-6" d="M63,58a16.9,16.9,0,0,0,5.385-3.113S78.85,56.465,82.2,52.507c0,0,2.389-.372,5.018,3.423,0,0,.436,3.973,2.092,0,0,0,2.481-11.169-7.323-15.638C81.986,40.292,61.754,33.348,63,58Z"/>
  </g>
  <g id="_1" data-name="1">
    <rect id="Rounded_Rectangle_593_copy" data-name="Rounded Rectangle 593 copy" class="cls-9" x="68" y="14" width="72" height="20" rx="5" ry="5"/>
    <path id="Rounded_Rectangle_599" data-name="Rounded Rectangle 599" class="cls-10" d="M107,20h24a1,1,0,0,1,0,2H107A1,1,0,0,1,107,20Zm0,6h14a1,1,0,0,1,0,2H107A1,1,0,0,1,107,26Z"/>
    <path id="Active" class="cls-11" d="M78.895,27.885h0.98l-2.507-7.368H76.544l-2.56,7.368h0.98l0.634-1.9h2.672Zm-1.96-5.9h0.029L78,25.152H75.876Zm4.913,4.656a2.8,2.8,0,0,1-.319-1.392V25.041a2.744,2.744,0,0,1,.324-1.379,1.1,1.1,0,0,1,1.031-.569,1.018,1.018,0,0,1,.792.352,1.234,1.234,0,0,1,.314.853h0.873l0.01-.03a1.833,1.833,0,0,0-.544-1.392,1.951,1.951,0,0,0-1.446-.567,2.039,2.039,0,0,0-1.714.787,3.09,3.09,0,0,0-.607,1.946v0.212a3.1,3.1,0,0,0,.6,1.953,2.179,2.179,0,0,0,3.121.235,1.6,1.6,0,0,0,.585-1.258l-0.015-.03H83.991a0.983,0.983,0,0,1-.332.752A1.191,1.191,0,0,1,81.848,26.645Zm4.543-5.556v1.321H85.551v0.739H86.39v3.325a1.632,1.632,0,0,0,.346,1.151,1.219,1.219,0,0,0,.931.367,1.544,1.544,0,0,0,.415-0.058,0.834,0.834,0,0,0,.317-0.149L88.268,27.1a1.334,1.334,0,0,1-.171.048,0.867,0.867,0,0,1-.185.023,0.544,0.544,0,0,1-.407-0.157,0.763,0.763,0,0,1-.154-0.541V23.148h1V22.409h-1V21.088H86.39Zm4.028,1.321H89.457v5.476h0.961V22.409Zm0-2.419H89.457v1.017h0.961V19.99Zm1.99,2.419H91.423l1.965,5.476h0.727l1.941-5.475h-0.98L93.861,26.27l-0.093.385H93.739l-0.083-.385Zm7.749,5.387a2.309,2.309,0,0,0,.746-0.478l-0.376-.648a1.893,1.893,0,0,1-.631.4,2.339,2.339,0,0,1-.856.144,1.211,1.211,0,0,1-1.073-.514,2.327,2.327,0,0,1-.351-1.338l0.015-.025h3.374V24.808a2.886,2.886,0,0,0-.529-1.817,1.883,1.883,0,0,0-1.587-.683,2.027,2.027,0,0,0-1.6.772,2.907,2.907,0,0,0-.656,1.951v0.223a2.972,2.972,0,0,0,.636,1.984,2.193,2.193,0,0,0,1.773.754A2.882,2.882,0,0,0,100.157,27.8Zm-0.4-4.314a1.638,1.638,0,0,1,.282.987V24.55H97.665l-0.01-.025a1.942,1.942,0,0,1,.4-1.03,1.029,1.029,0,0,1,.831-0.4A1.007,1.007,0,0,1,99.762,23.482Z"/>
  </g>
  <g id="_2" data-name="2">
    <rect id="Rounded_Rectangle_593_copy-2" data-name="Rounded Rectangle 593 copy" class="cls-9" x="110" y="38" width="80" height="20" rx="5" ry="5"/>
    <path id="Rounded_Rectangle_599-2" data-name="Rounded Rectangle 599" class="cls-12" d="M156,44h26a1,1,0,0,1,0,2H156A1,1,0,0,1,156,44Zm0,6h15a1,1,0,0,1,0,2H156A1,1,0,0,1,156,50Z"/>
    <path id="Inactive" class="cls-13" d="M116.925,44.517h-0.937v7.368h0.937V44.517Zm1.582,1.893v5.475h0.933V47.821a1.31,1.31,0,0,1,.476-0.519,1.376,1.376,0,0,1,.732-0.185,1.033,1.033,0,0,1,.817.3,1.555,1.555,0,0,1,.268,1.027v3.436h0.933V48.428a2.383,2.383,0,0,0-.455-1.6,1.8,1.8,0,0,0-2.162-.278,1.926,1.926,0,0,0-.642.676l-0.066-.815h-0.834Zm9.624,5.475a3.144,3.144,0,0,1-.1-0.536A5.464,5.464,0,0,1,128,50.781V48.145a1.731,1.731,0,0,0-.531-1.364,2.027,2.027,0,0,0-1.4-.473,2.079,2.079,0,0,0-1.437.5,1.344,1.344,0,0,0-.524,1.093l0.01,0.03,0.886-.01a0.747,0.747,0,0,1,.279-0.582,1.079,1.079,0,0,1,.734-0.243,0.963,0.963,0,0,1,1.052,1.042v0.541h-1.014a2.644,2.644,0,0,0-1.613.443,1.445,1.445,0,0,0-.594,1.227,1.675,1.675,0,0,0,.419,1.207,1.612,1.612,0,0,0,1.22.438,1.652,1.652,0,0,0,.9-0.266,2.246,2.246,0,0,0,.68-0.66,3.476,3.476,0,0,0,.03.382c0.018,0.127.042,0.272,0.074,0.438h0.961Zm-3.14-.941a0.779,0.779,0,0,1-.213-0.577,0.93,0.93,0,0,1,.339-0.713,1.3,1.3,0,0,1,.9-0.3h1.047V50.24a1.3,1.3,0,0,1-.531.638,1.581,1.581,0,0,1-.914.278A0.856,0.856,0,0,1,124.991,50.943Zm5.392-.3a2.874,2.874,0,0,1-.31-1.392V49.041a2.81,2.81,0,0,1,.315-1.379,1.063,1.063,0,0,1,1-.569,0.978,0.978,0,0,1,.77.352,1.259,1.259,0,0,1,.305.853h0.848l0.009-.03a1.874,1.874,0,0,0-1.932-1.958,1.959,1.959,0,0,0-1.665.787,3.154,3.154,0,0,0-.59,1.946v0.213a3.164,3.164,0,0,0,.588,1.953,1.958,1.958,0,0,0,1.667.784,1.936,1.936,0,0,0,1.364-.549,1.616,1.616,0,0,0,.568-1.258l-0.014-.03h-0.843a1,1,0,0,1-.322.752A1.137,1.137,0,0,1,130.383,50.645Zm4.412-5.556v1.321h-0.814v0.739h0.814v3.325a1.661,1.661,0,0,0,.337,1.151,1.165,1.165,0,0,0,.9.367,1.462,1.462,0,0,0,.4-0.058,0.811,0.811,0,0,0,.308-0.149l-0.128-.683a1.323,1.323,0,0,1-.166.048,0.814,0.814,0,0,1-.18.023,0.523,0.523,0,0,1-.4-0.157,0.781,0.781,0,0,1-.149-0.541V47.148H136.7V46.409h-0.971V45.088h-0.933Zm3.912,1.321h-0.933v5.475h0.933V46.409Zm0-2.419h-0.933v1.017h0.933V43.99Zm1.933,2.419h-0.957l1.909,5.475h0.7l1.886-5.475h-0.952l-1.18,3.861-0.09.385h-0.028l-0.081-.385Zm7.526,5.387a2.218,2.218,0,0,0,.724-0.478l-0.364-.648a1.839,1.839,0,0,1-.614.4,2.209,2.209,0,0,1-.831.144,1.166,1.166,0,0,1-1.042-.514,2.382,2.382,0,0,1-.341-1.338l0.014-.025h3.278V48.808a2.946,2.946,0,0,0-.514-1.817,1.808,1.808,0,0,0-1.542-.683,1.95,1.95,0,0,0-1.556.772,2.966,2.966,0,0,0-.637,1.951v0.223a3.025,3.025,0,0,0,.619,1.984,2.1,2.1,0,0,0,1.721.754A2.726,2.726,0,0,0,148.166,51.8Zm-0.384-4.314a1.674,1.674,0,0,1,.275.987V48.55h-2.311l-0.01-.025a1.973,1.973,0,0,1,.391-1.03,0.989,0.989,0,0,1,.807-0.4A0.967,0.967,0,0,1,147.782,47.482Z"/>
  </g>
</svg>
