<svg id="icon" xmlns="http://www.w3.org/2000/svg" width="178" height="122" viewBox="0 0 178 122">
  <defs>
    <style>
      .cls-1 {
        fill: #eef3fe;
      }

      .cls-1, .cls-3, .cls-6 {
        fill-rule: evenodd;
      }

      .cls-2, .cls-4 {
        fill: #fff;
      }

      .cls-2 {
        stroke: #e3e3e3;
        stroke-linejoin: round;
        stroke-width: 1px;
      }

      .cls-3 {
        fill: #5387ff;
      }

      .cls-5 {
        fill: #e3e3e3;
      }

      .cls-6 {
        fill: #8388e4;
      }
    </style>
  </defs>
  <path class="cls-1" d="M19,68.019c0.518-12.348,3.106-22.638,28.987-30.87S81.739,25.287,94.68,17.569c10.426-6.394,42.473-5.832,57.974,15.435,10.784,14.8,10.007,34.037-2.07,47.334-10.26,11.3-31.5,20.432-52.8,24.7-21.692,4.344-37.893,1.057-53.939-5.117S18.655,82.768,19,68.019Z"/>
  <g>
    <rect id="Rounded_Rectangle_599" data-name="Rounded Rectangle 599" class="cls-2" x="51" y="31" width="83" height="68" rx="4" ry="4"/>
    <path class="cls-3" d="M51,41V36s-0.787-5,6-5h72s5,0,5,5v5H51Z"/>
    <circle class="cls-4" cx="62" cy="37" r="2"/>
    <circle id="Ellipse_1_copy" data-name="Ellipse 1 copy" class="cls-4" cx="70" cy="37" r="2"/>
    <circle id="Ellipse_1_copy_2" data-name="Ellipse 1 copy 2" class="cls-4" cx="78" cy="37" r="2"/>
    <rect class="cls-5" x="58" y="48" width="13" height="13"/>
    <g>
      <rect id="Rounded_Rectangle_598" data-name="Rounded Rectangle 598" class="cls-5" x="76" y="51" width="42" height="2" rx="1" ry="1"/>
      <rect id="Rounded_Rectangle_598_copy" data-name="Rounded Rectangle 598 copy" class="cls-5" x="76" y="57" width="33" height="2" rx="1" ry="1"/>
      <rect id="Rounded_Rectangle_598_copy_2" data-name="Rounded Rectangle 598 copy 2" class="cls-5" x="57" y="68" width="62" height="2" rx="1" ry="1"/>
      <rect id="Rounded_Rectangle_598_copy_3" data-name="Rounded Rectangle 598 copy 3" class="cls-5" x="57" y="75" width="62" height="2" rx="1" ry="1"/>
      <rect id="Rounded_Rectangle_598_copy_4" data-name="Rounded Rectangle 598 copy 4" class="cls-5" x="57" y="82" width="62" height="2" rx="1" ry="1"/>
      <rect id="Rounded_Rectangle_598_copy_5" data-name="Rounded Rectangle 598 copy 5" class="cls-5" x="57" y="89" width="39" height="2" rx="1" ry="1"/>
    </g>
    <path id="Forma_1" data-name="Forma 1" class="cls-6" d="M117.871,65.585l6.3,6.225A7.765,7.765,0,0,0,129,74h19.333A2.529,2.529,0,0,0,151,71.29V55.71A2.53,2.53,0,0,0,148.333,53H129a8.028,8.028,0,0,0-4.99,2.056l-6.179,6.34A2.985,2.985,0,0,0,117.871,65.585Zm9.644-4.273a2.969,2.969,0,0,1,.04,4.18,2.922,2.922,0,0,1-4.152.038,2.971,2.971,0,0,1-.04-4.18A2.922,2.922,0,0,1,127.515,61.311Z"/>
  </g>
</svg>
