<svg xmlns="http://www.w3.org/2000/svg" width="142" height="93" viewBox="0 0 142 93">
  <metadata><?xpacket begin="﻿" id="W5M0MpCehiHzreSzNTczkc9d"?>
<x:xmpmeta xmlns:x="adobe:ns:meta/" x:xmptk="Adobe XMP Core 5.6-c142 79.160924, 2017/07/13-01:06:39        ">
   <rdf:RDF xmlns:rdf="http://www.w3.org/1999/02/22-rdf-syntax-ns#">
      <rdf:Description rdf:about=""/>
   </rdf:RDF>
</x:xmpmeta>
                                                                                                    
                                                                                                    
                                                                                                    
                                                                                                    
                                                                                                    
                                                                                                    
                                                                                                    
                                                                                                    
                                                                                                    
                                                                                                    
                                                                                                    
                                                                                                    
                                                                                                    
                                                                                                    
                                                                                                    
                                                                                                    
                                                                                                    
                                                                                                    
                                                                                                    
                                                                                                    
                           
<?xpacket end="w"?></metadata>
<defs>
    <style>
      .cls-1 {
        fill: #eef3fe;
      }

      .cls-1, .cls-10, .cls-11, .cls-2, .cls-3, .cls-4, .cls-5, .cls-6, .cls-7, .cls-8 {
        fill-rule: evenodd;
      }

      .cls-2 {
        fill: #3cb8f1;
      }

      .cls-3 {
        fill: #747aea;
      }

      .cls-4 {
        opacity: 0.08;
      }

      .cls-5, .cls-8 {
        fill: #fff;
      }

      .cls-5 {
        opacity: 0.4;
      }

      .cls-6 {
        fill: #4995f2;
      }

      .cls-7 {
        fill: #5387ff;
      }

      .cls-8 {
        opacity: 0.35;
      }

      .cls-11, .cls-9 {
        fill: #9d9369;
      }

      .cls-10 {
        fill: #33e2a6;
      }
    </style>
  </defs>
  <path class="cls-1" d="M0,54c0.517-12.344,3.1-22.63,28.942-30.86s33.7-11.859,46.62-19.573C85.973-2.824,117.97-2.262,133.447,19c10.768,14.791,9.992,34.026-2.067,47.318C121.136,77.608,99.931,86.741,78.664,91c-21.658,4.342-37.834,1.057-53.856-5.115S-0.345,68.745,0,54Z"/>
  <path id="Rectangle_11_copy_3" data-name="Rectangle 11 copy 3" class="cls-2" d="M88.862,41.986l28.955-6V83.764c-0.125.371,0.108,1.239-2.569,1.208H88.862V41.986Z"/>
  <path class="cls-3" d="M48.924,30.99H59.907V8l21.966,9,2,28.99H97.848V84.971H48.924V30.99Z"/>
  <path id="Shape_704_copy" data-name="Shape 704 copy" class="cls-4" d="M82.871,45.985,97.848,84.971H46.927V30.99h12.98V8"/>
  <path class="cls-5" d="M68.893,22.992h5.991V79.973H68.893V22.992Z"/>
  <path class="cls-5" d="M82.871,51.983h5.991v6H82.871v-6Zm0,11h5.991v6H82.871v-6Zm0,10h5.991v6H82.871v-6Z"/>
  <path id="Rectangle_15_copy_2" data-name="Rectangle 15 copy 2" class="cls-5" d="M104.837,51.983h5.991v6h-5.991v-6Zm0,11h5.991v6h-5.991v-6Zm0,10h5.991v6h-5.991v-6Z"/>
  <path id="Rectangle_15_copy" data-name="Rectangle 15 copy" class="cls-5" d="M54.915,51.983h5.991v6H54.915v-6Zm0,11h5.991v6H54.915v-6Zm0,10h5.991v6H54.915v-6Zm0-30.99h5.991v6H54.915v-6Z"/>
  <path id="Rectangle_11_copy_2" data-name="Rectangle 11 copy 2" class="cls-6" d="M17.972,33.989l30.952,4V84.971H20.656c-2.86.063-2.559-2-2.683-2.916V33.989Z"/>
  <path class="cls-7" d="M18.971,33.989l30.952,4V84.971H21.654c-2.86.063-2.559-1-2.683-1.916V33.989Z"/>
  <path class="cls-8" d="M25.96,45.985H31.95v6H25.96v-6Zm12.98,0H44.93v6H38.94v-6Zm-12.98,12H31.95v6H25.96v-6Zm12.98,0H44.93v6H38.94v-6Zm-12.98,12H31.95v6H25.96v-6Zm12.98,0H44.93v6H38.94v-6Z"/>
  <rect class="cls-9" x="19.969" y="75.969" width="2" height="9"/>
  <path class="cls-10" d="M20.78,76.974c3.159,0,4.345-1.992,4.292-1.948,0.656-.538,2.008-16.716-4.1-18.045-3.816.557-7.713,8.163-4.167,18.326C17.341,75.864,17.858,76.974,20.78,76.974Z"/>
  <path id="Rectangle_13_copy" data-name="Rectangle 13 copy" class="cls-11" d="M96.85,75.975h2v9h-2v-9Z"/>
  <path class="cls-10" d="M98.158,78.974c3.464-.281,4.074-2.015,4.058-1.948,0.867-3.63,1.954-15.654-4.017-17.045-3.875.12-7.548,7.163-4.078,17.327C94.257,77.394,95.119,79.22,98.158,78.974Z"/>
</svg>
