<svg xmlns="http://www.w3.org/2000/svg" width="142" height="93" viewBox="0 0 142 93">
  <metadata><?xpacket begin="﻿" id="W5M0MpCehiHzreSzNTczkc9d"?>
<x:xmpmeta xmlns:x="adobe:ns:meta/" x:xmptk="Adobe XMP Core 5.6-c142 79.160924, 2017/07/13-01:06:39        ">
   <rdf:RDF xmlns:rdf="http://www.w3.org/1999/02/22-rdf-syntax-ns#">
      <rdf:Description rdf:about=""/>
   </rdf:RDF>
</x:xmpmeta>
                                                                                                    
                                                                                                    
                                                                                                    
                                                                                                    
                                                                                                    
                                                                                                    
                                                                                                    
                                                                                                    
                                                                                                    
                                                                                                    
                                                                                                    
                                                                                                    
                                                                                                    
                                                                                                    
                                                                                                    
                                                                                                    
                                                                                                    
                                                                                                    
                                                                                                    
                                                                                                    
                           
<?xpacket end="w"?></metadata>
<defs>
    <style>
      .cls-1 {
        fill: #eef3fe;
      }

      .cls-1, .cls-2, .cls-3, .cls-4 {
        fill-rule: evenodd;
      }

      .cls-2 {
        fill: #faddb8;
      }

      .cls-3 {
        fill: #5387ff;
      }

      .cls-4, .cls-6, .cls-8 {
        fill: #fff;
      }

      .cls-4 {
        opacity: 0.5;
      }

      .cls-5 {
        fill: #30d28e;
        opacity: 0.8;
      }

      .cls-6 {
        font-size: 15.711px;
      }

      .cls-6, .cls-8 {
        font-family: Roboto;
        font-weight: 500;
      }

      .cls-7 {
        fill: #ffc501;
      }

      .cls-8 {
        font-size: 14.598px;
      }
    </style>
  </defs>
  <path class="cls-1" d="M0,54c0.517-12.344,3.1-22.63,28.942-30.86s33.7-11.859,46.62-19.573C85.973-2.824,117.97-2.262,133.447,19c10.768,14.791,9.992,34.026-2.067,47.318C121.136,77.608,99.931,86.741,78.664,91c-21.658,4.342-37.834,1.057-53.856-5.115S-0.345,68.745,0,54Z"/>
  <path class="cls-2" d="M35.88,48.037s14.243-5.592,30.085,8.239c1.718,1.407,10.886.883,12.01,1.008,1,0.25,4.113,4.849-1.863,7.291,0,0-4.189,1.879-20.448.87,0,0,2.068,6.4,10.3,6.954,0,0,10.093,1.922,22.973-5.038,6.472-3.172,4.3-1.992,6.648-2.942,0.819-.331,7.008-1.619,6.028,3.886a7.893,7.893,0,0,1-1.266,2.1C93.618,77.538,88.1,80.267,88.1,80.267S56.722,95.521,37.044,76.11Z"/>
  <path class="cls-3" d="M24.076,45.987q0,0.282,0,.6c-0.087,6.3-.26,23.173,0,29.358,0.121,2.834,1.164,3.509,1.164,3.509s8.544,5.477,12.8-2.339l-0.1-28.9c0.427,0.169-3.538-10.7-13.076-4.407A2.258,2.258,0,0,0,24.076,45.987Z"/>
  <path class="cls-4" d="M72.206,58.933L73.3,62.3s3.9-.028,4.364-2.241C77.661,60.054,76.706,56.061,72.206,58.933Z"/>
  <circle class="cls-5" cx="61.75" cy="29" r="13.969"/>
  <text id="_" data-name="$" class="cls-6" transform="translate(-150.144 35.841) scale(1.269 1.273)">$</text>
  <circle class="cls-7" cx="87.922" cy="48.266" r="9.984"/>
  <text id="_2" data-name="$" class="cls-8" transform="translate(-71.193 52.728) scale(0.955 0.959)">$</text>
</svg>
