<svg xmlns="http://www.w3.org/2000/svg" width="142" height="101" viewBox="0 0 142 101">
  <metadata><?xpacket begin="﻿" id="W5M0MpCehiHzreSzNTczkc9d"?>
<x:xmpmeta xmlns:x="adobe:ns:meta/" x:xmptk="Adobe XMP Core 5.6-c142 79.160924, 2017/07/13-01:06:39        ">
   <rdf:RDF xmlns:rdf="http://www.w3.org/1999/02/22-rdf-syntax-ns#">
      <rdf:Description rdf:about=""/>
   </rdf:RDF>
</x:xmpmeta>
                                                                                                    
                                                                                                    
                                                                                                    
                                                                                                    
                                                                                                    
                                                                                                    
                                                                                                    
                                                                                                    
                                                                                                    
                                                                                                    
                                                                                                    
                                                                                                    
                                                                                                    
                                                                                                    
                                                                                                    
                                                                                                    
                                                                                                    
                                                                                                    
                                                                                                    
                                                                                                    
                           
<?xpacket end="w"?></metadata>
<defs>
    <style>
      .cls-1, .cls-12, .cls-16 {
        fill: #eef3fe;
      }

      .cls-1, .cls-10, .cls-12, .cls-13, .cls-16, .cls-2, .cls-3, .cls-4, .cls-5, .cls-6, .cls-7, .cls-8, .cls-9 {
        fill-rule: evenodd;
      }

      .cls-2 {
        fill: #193151;
      }

      .cls-3 {
        fill: #fbe3c5;
      }

      .cls-5 {
        fill: #0a1c35;
      }

      .cls-6 {
        fill: #b5ccfa;
      }

      .cls-7 {
        fill: #5387ff;
      }

      .cls-8 {
        fill: #fc9236;
      }

      .cls-9 {
        fill: #4278f2;
      }

      .cls-10 {
        fill: #fff;
      }

      .cls-10, .cls-16 {
        stroke: #dfe4e5;
      }

      .cls-10, .cls-12, .cls-16 {
        stroke-linejoin: round;
        stroke-width: 1px;
      }

      .cls-11 {
        fill: #747aea;
      }

      .cls-12 {
        stroke: #e3e3e3;
      }

      .cls-13 {
        fill: #3be2a9;
      }

      .cls-14 {
        font-size: 7.539px;
      }

      .cls-14, .cls-15, .cls-17 {
        fill: #3c3c3c;
        font-family: PTSans;
      }

      .cls-15 {
        font-size: 8.473px;
      }

      .cls-17 {
        font-size: 9.414px;
      }
    </style>
  </defs>
  <path class="cls-1" d="M0,59.019c0.518-12.348,3.106-22.638,28.987-30.87S62.739,16.287,75.68,8.569C86.106,2.175,118.153,2.737,133.654,24c10.784,14.8,10.007,34.038-2.07,47.334-10.26,11.3-31.5,20.432-52.8,24.7-21.692,4.344-37.893,1.057-53.939-5.117S-0.345,73.768,0,59.019Z"/>
  <path class="cls-2" d="M112.484,83.9a16.7,16.7,0,0,1,.945,2.457,6.326,6.326,0,0,0,1.877,2.391s2.336,4.394-1.757,4.133c-4.071-.259-0.221-0.009-0.221-0.009s-1.67,1.008-4-2.715a13.8,13.8,0,0,1-.55-2.667c-0.071-1.271-.151-3.162-0.127-3.241A34.57,34.57,0,0,1,112.484,83.9Z"/>
  <path class="cls-3" d="M96.294,22.461S89.265,26.25,86,27a8,8,0,0,1-5.61-1.279s-6-3.015-7.233-3.9A2.344,2.344,0,0,1,71,22c-3-1.642-1-3-1-3s4.286-1.569,5.272-.325c1.275,1.608,5.978,2.641,8.474,3.335,0,0,6.123-1.607,8.254-4.01C92,18,96.566,21.2,96.294,22.461Z"/>
  <path class="cls-2" d="M102.445,86.925s0.348,3.1-.534,3.377a3.022,3.022,0,0,1-2.27,1.306c-0.37.524-5.527,2.17-7.334,1.183C92.368,92.558,90.849,91.4,92,90c0,0,5.293-2.355,5.621-3.94Z"/>
  <path class="cls-3" d="M103.258,9.434a0.943,0.943,0,0,1-.91.981s0.033,1.665-.845,2.1a16.449,16.449,0,0,1-4.432,1.245,9.22,9.22,0,0,0,.532,1.957c-1.362,3.506,4.073,2.509,7.35-.312a3.341,3.341,0,0,1-1.075-2.488C103.7,11.479,103.188,10.82,103.258,9.434Z"/>
  <path class="cls-4" d="M103.788,12.58a5.736,5.736,0,0,0,.528-2.139A9.748,9.748,0,0,0,103.143,6.9a2.165,2.165,0,0,0-1.227-.823,15.068,15.068,0,0,1-3.97-1.084s-3.821-.9-4.3,2.08c0,0,2.253-2.586,4.374-1.252,0,0,1.145.5,1.825,3.228,0.082,0.265.51,0.935,1.069-.266,0,0,1.107-2.535,1.933-1.646C103.214,7.7,102.97,11.522,103.788,12.58Z"/>
  <path class="cls-3" d="M102.77,10.674a3.782,3.782,0,0,1-.846,2.084,9.248,9.248,0,0,1-3.3,1.567l-1.825.592c-0.265.1-1.581,0.561-1.642-.784a5.412,5.412,0,0,0-.725-2.124,3.637,3.637,0,0,1-.369-2.784A2.7,2.7,0,0,0,93.606,7.7a1.234,1.234,0,0,1,.71-1.321c0.634-.5,4.075-3.2,5.642,2.7,0.61,1.815,2.023-4.614,3.274-1.251C103.451,9.854,103.394,10.449,102.77,10.674Z"/>
  <path class="cls-2" d="M94.154,5.77s0.082-6.877,6.673-5.648A5.183,5.183,0,0,1,105.2,4.3c0.729,2.8-.955,6.033-0.955,6.033a11.655,11.655,0,0,0-1.55-3.81c-0.119-.156-0.091-0.027-0.217-0.084A11.064,11.064,0,0,1,99.8,5.755C98.071,5.342,96.144,4.24,94.154,5.77Z"/>
  <path class="cls-5" d="M90.572,3.963c4.609-3.347,7.663.043,8.258,2-0.427-.45-3.751-1.575-5.109,1.218a26.8,26.8,0,0,0-3.249-1.72,0.736,0.736,0,0,1-.444-0.852A1.154,1.154,0,0,1,90.572,3.963Z"/>
  <path class="cls-6" d="M93.709,36C92.981,45.024,96,86,96,86c1.165,1,6,1,6,1,0.627-.932,1.214-16.887,1.214-16.887,0.057-1.662-.043-14.721-0.043-14.721a2.29,2.29,0,0,1,.481-0.975,1.5,1.5,0,0,0,.984.261c-0.051,1.022,2.419,16.033,2.419,16.033C107.1,73.1,108.3,85.994,108.3,86c0.481,0.185,2.091,1.079,2.743,1h0S113.892,86,114,86c0.092-4.331.276-43.345,0.276-43.345C114.541,42.482,113.634,32,113.634,32Z"/>
  <path class="cls-7" d="M88,20a18.384,18.384,0,0,1,5.058-3.131s2.855-.176,4.252-1.373a2.845,2.845,0,0,0,2.258,1.528s3.53,0.873,4.711-1.8l2.466,0.735c2.772,0.825,7.339,2.26,6.975,4.982-0.973,7.288-.086,28.04-0.086,28.04H93.709c-0.026.008,0.276-7.085,0.563-13.892,0.226-5.363.457-9.639,0.437-10.083A34.5,34.5,0,0,1,91,27C90.312,26.011,89.447,20.091,88,20Z"/>
  <path class="cls-8" d="M104.947,45.015s0.746-3.61-2.155-2.919c0,0,.8,1.822.589,2.168s-0.7,1.013-.7,1.013a1.23,1.23,0,0,1-1.03.2,2.571,2.571,0,0,0-.955-0.342s0.214,3.593,3.1,1.429l0.024,0.021a0.99,0.99,0,0,0,.208.187l10.05,7.023a1,1,0,0,0,1.374-.265,0.965,0.965,0,0,0-.256-1.355l-10.05-7.023a1,1,0,0,0-.177-0.094Z"/>
  <path class="cls-3" d="M108,28s2.231,3.413,2,10a18.849,18.849,0,0,1-2,10s-0.108-.443,0,1c0,0,.311,3.216,3,3,0.523-.853.484-2.078,1-3s0.611-.465.8-1.129c2.434-8.582,3.83-11.1.478-20.991Z"/>
  <path class="cls-9" d="M114.145,28.69s-5.293.8-5.949,0.589c0.009-.031-0.866-4.487-1.2-6.279-0.135-1.19.175-4.9,4-4,0,0,2.891-1.194,3.332,2.277C114.332,21.277,114.392,28.285,114.145,28.69Z"/>
  <path id="Forma_1" data-name="Forma 1" class="cls-10" d="M22.963,20.011H18.978c-3.726,0-5.834,1.909-5.978,4.959V94.945c0,4.054,1.992,5,4.981,5H76.787c3.949,0,5.978-2.013,5.978-5V25.006c-0.144-3.05-1.939-5-5.978-5H22.963Z"/>
  <path id="Forma_1_copy_6" data-name="Forma 1 copy 6" class="cls-10" d="M45.9,15.016c0.4-1.748,1.39-3,3.985-3,2.143,0,2.615,1.259,2.989,3,0.122,0.668.7,1,1.993,1h3.985s3,1.8,3,3.569c0,1.724-3,3.425-3,3.425H39.918s-3-1.54-3-3.175c0-1.849,3-3.818,3-3.818H43.9c0.979,0,1.878-.354,1.993-1"/>
  <rect id="Rounded_Rectangle_602" data-name="Rounded Rectangle 602" class="cls-11" x="43" y="18" width="12" height="3" rx="1.5" ry="1.5"/>
  <path id="Rounded_Rectangle_601" data-name="Rounded Rectangle 601" class="cls-12" d="M23.545,41.866H34.154a1,1,0,0,1,1,1V53.572a1,1,0,0,1-1,1H23.545a1,1,0,0,1-1-1V42.866A1,1,0,0,1,23.545,41.866Z"/>
  <path id="Forma_1_copy_6-2" data-name="Forma 1 copy 6" class="cls-13" d="M27.267,49.567l-0.86-1.177a1.162,1.162,0,0,0-1.613.337A1.116,1.116,0,0,0,25.047,50l2.013,1.748,0,0A1.235,1.235,0,0,0,28.5,51.6a43.181,43.181,0,0,0,3.852-4.949A1.1,1.1,0,0,0,30.5,45.475Z"/>
  <text id="Cleaning" class="cls-14" transform="translate(-131.622 49.898) scale(1.05 1.061)">Cleaning</text>
  <path id="Rounded_Rectangle_601-2" data-name="Rounded Rectangle 601" class="cls-12" d="M23.545,58.849H34.154a1,1,0,0,1,1,1V70.556a1,1,0,0,1-1,1H23.545a1,1,0,0,1-1-1V59.849A1,1,0,0,1,23.545,58.849Z"/>
  <path id="Forma_1_copy_6-3" data-name="Forma 1 copy 6" class="cls-13" d="M27.267,66.551l-0.86-1.177a2.7,2.7,0,0,0-1.613.337c-0.333.393,0.253,1.269,0.253,1.269l2.013,1.748,0,0A1.235,1.235,0,0,0,28.5,68.58c1.649-1.662,4.852-5.949,4.852-5.949a1.69,1.69,0,0,0-.273-1.366,2.335,2.335,0,0,0-1.576.195Z"/>
  <text id="Painters" class="cls-15" transform="translate(-131.622 66.881) scale(1.05 1.061)">Painters</text>
  <path id="Rounded_Rectangle_601-3" data-name="Rounded Rectangle 601" class="cls-16" d="M23.545,77.833H34.154a1,1,0,0,1,1,1V89.539a1,1,0,0,1-1,1H23.545a1,1,0,0,1-1-1V78.833A1,1,0,0,1,23.545,77.833Z"/>
  <text id="HVAC" class="cls-15" transform="translate(-131.622 86.865) scale(1.05 1.061)">HVAC</text>
  <text id="Services" class="cls-17" transform="translate(-148.559 34.91) scale(1.05 1.061)">Services</text>
</svg>
