<svg xmlns="http://www.w3.org/2000/svg" xmlns:xlink="http://www.w3.org/1999/xlink" width="100" height="228" viewBox="0 0 100 228">
  <defs>
    <clipPath id="clip-Canvas">
      <rect width="100" height="228"/>
    </clipPath>
  </defs>
  <g id="Canvas" clip-path="url(#clip-Canvas)">
    <g id="Single_Line" data-name="Single Line" transform="translate(2.814 -358.709)">
      <path id="Path_20" data-name="Path 20" d="M9.339,372.339h7.036v3.736H5.186v-3.736H6.764" fill="none" stroke="#2c3032" stroke-width="0.7"/>
      <path id="Path_21" data-name="Path 21" d="M8.106,369.709v3.772" fill="none" stroke="#2c3032" stroke-width="0.7"/>
      <path id="Path_22" data-name="Path 22" d="M7.236,369.709h1.78" fill="none" stroke="#2c3032" stroke-width="0.7"/>
      <path id="Path_23" data-name="Path 23" d="M7.236,369.709h1.78" transform="translate(0 4)" fill="none" stroke="#2c3032" stroke-width="0.7"/>
    </g>
    <g id="Single_Line-2" data-name="Single Line" transform="translate(25.814 -360.709)">
      <path id="Path_20-2" data-name="Path 20" d="M9.339,372.339h7.036v5.685H5.186v-5.685H6.764" fill="none" stroke="#2c3032" stroke-width="0.7"/>
      <path id="Path_21-2" data-name="Path 21" d="M8.106,369.709v3.772" fill="none" stroke="#2c3032" stroke-width="0.7"/>
      <path id="Path_22-2" data-name="Path 22" d="M7.236,369.709h1.78" fill="none" stroke="#2c3032" stroke-width="0.7"/>
      <path id="Path_23-2" data-name="Path 23" d="M7.236,369.709h1.78" transform="translate(0 4)" fill="none" stroke="#2c3032" stroke-width="0.7"/>
    </g>
    <g id="Drop_Down" data-name="Drop Down" transform="translate(-18.309 -382.016)">
      <path id="Path_9" data-name="Path 9" d="M86.237,393.137a.376.376,0,0,0-.552,0l-4.851,5.129-4.86-5.129a.376.376,0,0,0-.552,0,.428.428,0,0,0,0,.582l5.127,5.41a.371.371,0,0,0,.276.12.387.387,0,0,0,.276-.12l5.127-5.41A.419.419,0,0,0,86.237,393.137Z" transform="translate(-2 0)" fill="#2c3032"/>
    </g>
    <g id="Multi_Select" data-name="Multi Select" transform="translate(63.692 -11.732)">
      <g id="Group_8" data-name="Group 8" transform="translate(14.308 22.169)">
        <g id="tick-box_1_" data-name="tick-box (1)" transform="translate(0 -0.438)">
          <g id="Group_3" data-name="Group 3" transform="translate(0)">
            <path id="Path_6" data-name="Path 6" d="M91.82,15.221a.322.322,0,0,0-.425,0l-1.887,1.957-.9-.645a.322.322,0,0,0-.425,0,.256.256,0,0,0,0,.387l1.116.838a.322.322,0,0,0,.425,0h0l2.1-2.15A.256.256,0,0,0,91.82,15.221Z" transform="translate(-88.091 -15.141)" fill="#2c3032"/>
          </g>
          <g id="Group_7" data-name="Group 7" transform="translate(0 5.112)">
            <path id="Path_6-2" data-name="Path 6" d="M91.82,15.221a.322.322,0,0,0-.425,0l-1.887,1.957-.9-.645a.322.322,0,0,0-.425,0,.256.256,0,0,0,0,.387l1.116.838a.322.322,0,0,0,.425,0h0l2.1-2.15A.256.256,0,0,0,91.82,15.221Z" transform="translate(-88.091 -15.141)" fill="#2c3032"/>
          </g>
        </g>
        <path id="Path_23-3" data-name="Path 23" d="M0,1.078H7.371" transform="translate(5.072 -0.563)" fill="none" stroke="#2c3032" stroke-linecap="round" stroke-width="0.7"/>
        <path id="Path_26" data-name="Path 26" d="M0,1H7.371" transform="translate(5.072 2.632)" fill="none" stroke="#2c3032" stroke-linecap="round" stroke-width="0.7"/>
      </g>
      <path id="Path_25" data-name="Path 25" d="M0,.061H7.246" transform="translate(19.379 28.857)" fill="none" stroke="#2c3032" stroke-linecap="round" stroke-width="0.7"/>
    </g>
    <path id="number" d="M4.808.843H.778V.128h1.61V-5.409l-1.65.492v-.775L3.2-6.442V.128H4.808Zm4.945,0H5.46V.118L7.537-1.965A8.683,8.683,0,0,0,8.673-3.289a2.053,2.053,0,0,0,.34-1.131,1.259,1.259,0,0,0-.353-.954,1.394,1.394,0,0,0-1-.338A2.667,2.667,0,0,0,5.828-4.9v-.855A3.07,3.07,0,0,1,7.771-6.4a2.1,2.1,0,0,1,1.5.517A1.818,1.818,0,0,1,9.818-4.5,2.646,2.646,0,0,1,9.441-3.16,8.483,8.483,0,0,1,8.084-1.537L6.439.088v.02H9.754Zm.96-.263V-.3a2.594,2.594,0,0,0,1.65.576A1.793,1.793,0,0,0,13.554-.1,1.242,1.242,0,0,0,14-1.1q0-1.4-1.983-1.4h-.591v-.691h.562q1.764,0,1.764-1.312,0-1.213-1.347-1.213a2.285,2.285,0,0,0-1.416.512V-6a3.113,3.113,0,0,1,1.62-.408,2.092,2.092,0,0,1,1.439.477A1.559,1.559,0,0,1,14.585-4.7a1.742,1.742,0,0,1-1.431,1.809v.02a1.906,1.906,0,0,1,1.225.539,1.593,1.593,0,0,1,.455,1.16A1.938,1.938,0,0,1,14.145.374a2.7,2.7,0,0,1-1.816.589A2.98,2.98,0,0,1,10.713.58Z" transform="translate(5 32.442)" fill="#2c3032"/>
    <g id="check-box" transform="translate(29.996 10.528)">
      <g id="Group_3-2" data-name="Group 3" transform="translate(0 11.472)">
        <path id="Path_5" data-name="Path 5" d="M10.493,26.563a.329.329,0,0,0-.329.329v6a1.152,1.152,0,0,1-1.15,1.15H1.808a1.152,1.152,0,0,1-1.15-1.15V25.687a1.152,1.152,0,0,1,1.15-1.15H9.014a.329.329,0,1,0,0-.657H1.808A1.81,1.81,0,0,0,0,25.687v7.206A1.81,1.81,0,0,0,1.808,34.7H9.014a1.809,1.809,0,0,0,1.808-1.808v-6A.329.329,0,0,0,10.493,26.563Z" transform="translate(0 -23.534)" fill="#2c3032"/>
        <path id="Path_6-3" data-name="Path 6" d="M96.551,11.568a.328.328,0,0,0-.465,0l-6.6,6.6-1.651-1.65a.329.329,0,0,0-.465.465l1.883,1.883a.329.329,0,0,0,.465,0h0l6.835-6.835A.328.328,0,0,0,96.551,11.568Z" transform="translate(-84.842 -11.472)" fill="#2c3032"/>
      </g>
    </g>
    <g id="radiobox" transform="translate(35.938 8)">
      <path id="Subtraction_1" data-name="Subtraction 1" d="M5.625,11.25A5.625,5.625,0,1,1,11.25,5.625,5.632,5.632,0,0,1,5.625,11.25ZM5.625.8a4.821,4.821,0,1,0,4.821,4.821A4.827,4.827,0,0,0,5.625.8Z" transform="translate(19.063 14)" fill="#2c3032"/>
      <circle id="Ellipse_3" data-name="Ellipse 3" cx="1.915" cy="1.915" r="1.915" transform="translate(22.892 17.83)" fill="#2c3032"/>
    </g>
    <g id="currency" transform="translate(80 22)">
      <g id="Group_27" data-name="Group 27">
        <g id="Group_26" data-name="Group 26">
          <path id="Path_50" data-name="Path 50" d="M9.674,1.66A5.667,5.667,0,0,0,1.66,9.674,5.667,5.667,0,0,0,9.674,1.66Zm-4.007,9.01a5,5,0,1,1,5-5A5.008,5.008,0,0,1,5.667,10.669Z" fill="#2c3032"/>
        </g>
      </g>
      <g id="Group_29" data-name="Group 29" transform="translate(3.912 2.134)">
        <g id="Group_28" data-name="Group 28">
          <path id="Path_51" data-name="Path 51" d="M178.844,99.6h-.711a.735.735,0,1,1,0-1.47h1.423a.332.332,0,0,0,0-.664h-.735v-.735a.332.332,0,1,0-.664,0v.735h-.024a1.4,1.4,0,1,0,0,2.8h.711a.735.735,0,0,1,0,1.47h-1.423a.332.332,0,1,0,0,.664h.735v.735a.332.332,0,1,0,.664,0V102.4h.024a1.4,1.4,0,0,0,0-2.8Z" transform="translate(-176.734 -96.401)" fill="#2c3032"/>
        </g>
      </g>
    </g>
    <path id="decimal" d="M3.323-1a2.412,2.412,0,0,1-1.749-.629,2.227,2.227,0,0,1-.651-1.68V-6.92a2.208,2.208,0,0,1,.651-1.674,2.425,2.425,0,0,1,1.749-.623,2.468,2.468,0,0,1,1.771.629A2.192,2.192,0,0,1,5.757-6.92v3.611a2.206,2.206,0,0,1-.663,1.68A2.468,2.468,0,0,1,3.323-1Zm0-.709A1.64,1.64,0,0,0,4.5-2.131a1.486,1.486,0,0,0,.446-1.131V-6.954a1.482,1.482,0,0,0-.44-1.12A1.635,1.635,0,0,0,3.323-8.5a1.584,1.584,0,0,0-1.154.423,1.492,1.492,0,0,0-.434,1.12v3.691a1.507,1.507,0,0,0,.434,1.131A1.584,1.584,0,0,0,3.323-1.709Zm3.989.56A.7.7,0,0,1,6.8-1.343a.643.643,0,0,1-.2-.48A.631.631,0,0,1,6.814-2.3a.7.7,0,0,1,.5-.2.706.706,0,0,1,.491.2.624.624,0,0,1,.217.474.634.634,0,0,1-.206.48A.705.705,0,0,1,7.311-1.149ZM10.923-1a2.412,2.412,0,0,1-1.749-.629,2.227,2.227,0,0,1-.651-1.68V-6.92a2.208,2.208,0,0,1,.651-1.674,2.425,2.425,0,0,1,1.749-.623,2.468,2.468,0,0,1,1.771.629,2.192,2.192,0,0,1,.663,1.669v3.611a2.206,2.206,0,0,1-.663,1.68A2.468,2.468,0,0,1,10.923-1Zm0-.709A1.64,1.64,0,0,0,12.1-2.131a1.486,1.486,0,0,0,.446-1.131V-6.954a1.482,1.482,0,0,0-.44-1.12A1.635,1.635,0,0,0,10.923-8.5a1.584,1.584,0,0,0-1.154.423,1.492,1.492,0,0,0-.434,1.12v3.691a1.507,1.507,0,0,0,.434,1.131A1.584,1.584,0,0,0,10.923-1.709Z" transform="translate(5.813 49.217)" fill="#2c3032"/>
    <path id="Percent" d="M3.016-5.369a1.922,1.922,0,0,1-.981-.26,1.931,1.931,0,0,1-.709-.7,1.888,1.888,0,0,1-.26-.975,1.864,1.864,0,0,1,.26-.962,1.882,1.882,0,0,1,.709-.7,1.961,1.961,0,0,1,.981-.254,1.864,1.864,0,0,1,.962.26,1.963,1.963,0,0,1,.7.7,1.83,1.83,0,0,1,.26.955,1.888,1.888,0,0,1-.26.975,1.947,1.947,0,0,1-.7.7A1.864,1.864,0,0,1,3.016-5.369ZM2.717,0a.209.209,0,0,1-.123-.033.1.1,0,0,1-.046-.085.19.19,0,0,1,.039-.117L7.436-8.97A.238.238,0,0,1,7.67-9.1h.507a.209.209,0,0,1,.124.032.1.1,0,0,1,.045.085.233.233,0,0,1-.039.117L3.458-.13A.238.238,0,0,1,3.224,0Zm.3-6.071a1.156,1.156,0,0,0,.858-.358,1.2,1.2,0,0,0,.351-.878,1.178,1.178,0,0,0-.358-.865,1.163,1.163,0,0,0-.852-.357,1.193,1.193,0,0,0-.877.357,1.178,1.178,0,0,0-.358.865,1.193,1.193,0,0,0,.358.878A1.193,1.193,0,0,0,3.016-6.071ZM7.969.117a1.922,1.922,0,0,1-.982-.26,1.931,1.931,0,0,1-.708-.7,1.864,1.864,0,0,1-.26-.962,1.864,1.864,0,0,1,.26-.962,1.931,1.931,0,0,1,.708-.7,1.922,1.922,0,0,1,.982-.26,1.864,1.864,0,0,1,.962.26,1.947,1.947,0,0,1,.7.7,1.864,1.864,0,0,1,.26.962,1.864,1.864,0,0,1-.26.962,1.947,1.947,0,0,1-.7.7A1.864,1.864,0,0,1,7.969.117Zm0-.689a1.146,1.146,0,0,0,.858-.364,1.211,1.211,0,0,0,.351-.871,1.178,1.178,0,0,0-.358-.865,1.163,1.163,0,0,0-.852-.357,1.193,1.193,0,0,0-.878.357,1.178,1.178,0,0,0-.358.865,1.193,1.193,0,0,0,.358.878A1.193,1.193,0,0,0,7.969-.572Z" transform="translate(29.813 49.217)" fill="#2c3032"/>
    <path id="url" d="M112.419,138.2a6.181,6.181,0,0,0-7.933-.374c-.153.117-.3.24-.444.374a6.182,6.182,0,0,0,7.934,9.468c.153-.117.3-.24.444-.374a6.175,6.175,0,0,0,.368-8.725q-.176-.192-.368-.368Zm-.255,8.375a6.166,6.166,0,0,0-.971-.66,10.123,10.123,0,0,0,.465-2.824h2.053A5.491,5.491,0,0,1,112.163,146.572Zm-.56.508c-.053.042-.107.08-.162.119-.078.057-.157.112-.238.165-.058.037-.117.073-.176.108-.081.048-.162.095-.246.137q-.092.048-.186.093c-.084.041-.17.078-.256.114-.059.024-.117.048-.176.069a5.453,5.453,0,0,0,.786-1.327,5.441,5.441,0,0,1,.706.477c-.018.015-.034.031-.052.045Zm-5.738.623q-.093-.044-.184-.092c-.084-.044-.167-.091-.249-.14-.058-.034-.116-.069-.172-.106-.082-.053-.162-.11-.24-.167-.054-.039-.108-.077-.16-.117-.018-.014-.034-.03-.052-.044a5.428,5.428,0,0,1,.7-.478,5.452,5.452,0,0,0,.786,1.328l-.175-.069q-.13-.054-.258-.115Zm-1.567-8.786a6.166,6.166,0,0,0,.971.66,10.125,10.125,0,0,0-.465,2.824h-2.053a5.491,5.491,0,0,1,1.547-3.484Zm.56-.508c.053-.042.107-.08.162-.119.078-.057.157-.112.238-.165.058-.037.117-.073.176-.108.081-.048.163-.095.246-.137.061-.032.123-.063.186-.093.084-.041.17-.078.256-.115.059-.024.117-.048.176-.069a5.454,5.454,0,0,0-.786,1.327,5.434,5.434,0,0,1-.706-.477c.018-.015.034-.031.052-.045Zm5.738-.623q.093.044.184.092c.084.044.167.091.249.14.058.034.116.069.172.106.082.053.162.109.24.167.054.039.108.077.16.117.018.014.034.03.052.044a5.442,5.442,0,0,1-.7.478,5.453,5.453,0,0,0-.786-1.328l.175.069c.087.036.173.075.258.115Zm-2.709,1.852a5.471,5.471,0,0,1-1.752-.4,3.074,3.074,0,0,1,1.752-1.936Zm0,.687V142.4h-2.4a9.545,9.545,0,0,1,.412-2.52,6.152,6.152,0,0,0,1.984.442Zm0,2.763v2.078a6.152,6.152,0,0,0-1.986.442,9.549,9.549,0,0,1-.411-2.52Zm0,2.763v2.341a3.08,3.08,0,0,1-1.752-1.936A5.468,5.468,0,0,1,107.888,145.851Zm.687,0a5.468,5.468,0,0,1,1.752.4,3.078,3.078,0,0,1-1.752,1.936Zm0-.687v-2.076h2.4a9.549,9.549,0,0,1-.411,2.52,6.153,6.153,0,0,0-1.986-.442Zm0-2.763v-2.078a6.154,6.154,0,0,0,1.986-.442,9.549,9.549,0,0,1,.411,2.52h-2.4Zm0-2.763V137.3a3.079,3.079,0,0,1,1.752,1.936A5.476,5.476,0,0,1,108.575,139.638Zm-3.77,3.45a10.124,10.124,0,0,0,.465,2.824,6.151,6.151,0,0,0-.971.66,5.488,5.488,0,0,1-1.547-3.484Zm6.853-.687a10.125,10.125,0,0,0-.465-2.824,6.152,6.152,0,0,0,.971-.66,5.489,5.489,0,0,1,1.547,3.484h-2.053Zm0,0" transform="translate(-48 -98.561)" fill="#2c3032"/>
    <g id="hidden" transform="translate(80 -24.008)">
      <g id="Group_32" data-name="Group 32" transform="translate(4.571 67.06)">
        <g id="Group_31" data-name="Group 31" transform="translate(0 0)">
          <path id="Path_62" data-name="Path 62" d="M195.489,192.616a.253.253,0,0,0-.358.358,1.519,1.519,0,1,1-2.149,2.149.253.253,0,0,0-.358.358,2.026,2.026,0,1,0,2.865-2.865Z" transform="translate(-192.55 -192.542)" fill="#2c3032" stroke="#2c3032" stroke-width="0.2"/>
        </g>
      </g>
      <g id="Group_34" data-name="Group 34" transform="translate(4.052 66.54)">
        <g id="Group_33" data-name="Group 33" transform="translate(0 0)">
          <path id="Path_63" data-name="Path 63" d="M173.047,170.694a2.006,2.006,0,0,0-2.379,1.991,1.981,1.981,0,0,0,.035.353.254.254,0,0,0,.249.209.225.225,0,0,0,.045,0,.254.254,0,0,0,.205-.293,1.471,1.471,0,0,1-.027-.265,1.5,1.5,0,0,1,1.784-1.493.253.253,0,1,0,.088-.5Z" transform="translate(-170.668 -170.659)" fill="#2c3032" stroke="#2c3032" stroke-width="0.2"/>
        </g>
      </g>
      <g id="Group_36" data-name="Group 36" transform="translate(3.168 65.728)">
        <g id="Group_35" data-name="Group 35">
          <path id="Path_64" data-name="Path 64" d="M142.363,139.136a12.3,12.3,0,0,0-3.317-2.646.253.253,0,1,0-.232.45,11.9,11.9,0,0,1,3.016,2.359c-.6.654-2.98,3.039-5.484,3.039a5.84,5.84,0,0,1-2.547-.61.253.253,0,1,0-.22.456,6.333,6.333,0,0,0,2.767.661c3.121,0,5.9-3.244,6.018-3.382A.253.253,0,0,0,142.363,139.136Z" transform="translate(-133.435 -136.461)" fill="#2c3032" stroke="#2c3032" stroke-width="0.2"/>
        </g>
      </g>
      <g id="Group_38" data-name="Group 38" transform="translate(0 65.021)">
        <g id="Group_37" data-name="Group 37" transform="translate(0 0)">
          <path id="Path_65" data-name="Path 65" d="M7.74,106.951a5.229,5.229,0,0,0-1.662-.292c-3.121,0-5.9,3.244-6.018,3.382a.253.253,0,0,0-.014.308,9.4,9.4,0,0,0,2.323,2.2.251.251,0,0,0,.351-.071.253.253,0,0,0-.071-.351A9.262,9.262,0,0,1,.58,110.218c.583-.633,2.975-3.053,5.5-3.053a4.741,4.741,0,0,1,1.5.265.25.25,0,0,0,.321-.159A.253.253,0,0,0,7.74,106.951Z" transform="translate(0 -106.659)" fill="#2c3032" stroke="#2c3032" stroke-width="0.2"/>
        </g>
      </g>
      <g id="Group_40" data-name="Group 40" transform="translate(1.519 64.008)">
        <g id="Group_39" data-name="Group 39">
          <path id="Path_66" data-name="Path 66" d="M73.039,64.082a.253.253,0,0,0-.358,0L64.07,72.693a.253.253,0,0,0,.358.358l8.611-8.611A.253.253,0,0,0,73.039,64.082Z" transform="translate(-63.996 -64.008)" fill="#2c3032" stroke="#2c3032" stroke-width="0.2"/>
        </g>
      </g>
    </g>
    <path id="html" d="M5.408-.088a.166.166,0,0,1-.057.142.152.152,0,0,1-.156,0L.649-2.559a.238.238,0,0,1-.142-.227v-.6a.238.238,0,0,1,.142-.227L5.2-6.224a.218.218,0,0,1,.085-.028q.128,0,.128.17v.6a.227.227,0,0,1-.142.213L1.615-3.128q-.085.043,0,.085L5.266-.9a.227.227,0,0,1,.142.213ZM5.7,1.75a.166.166,0,0,1-.142-.057.172.172,0,0,1-.014-.156L7.576-6.944a.19.19,0,0,1,.2-.156H8.4a.166.166,0,0,1,.142.057.172.172,0,0,1,.014.156L6.524,1.594a.19.19,0,0,1-.2.156ZM9.9.054a.218.218,0,0,1-.085.028q-.128,0-.128-.17v-.6A.227.227,0,0,1,9.833-.9l3.651-2.145q.085-.043,0-.085L9.833-5.272a.227.227,0,0,1-.142-.213v-.6a.164.164,0,0,1,.057-.149.167.167,0,0,1,.156.007L14.45-3.611a.238.238,0,0,1,.142.227v.6a.238.238,0,0,1-.142.227Z" transform="translate(5 64.1)" fill="#2c3032"/>
    <g id="Group_30" data-name="Group 30" transform="translate(29 53)">
      <path id="Path_57" data-name="Path 57" d="M12.005,230.208a.387.387,0,0,0-.389.389v1.352a1.746,1.746,0,0,1-1.744,1.744H3.522a1.746,1.746,0,0,1-1.744-1.744v-1.41a.389.389,0,1,0-.778,0v1.41a2.525,2.525,0,0,0,2.522,2.522h6.35a2.525,2.525,0,0,0,2.522-2.522V230.6A.389.389,0,0,0,12.005,230.208Z" transform="translate(0 -222.071)" fill="#2c3032"/>
      <path id="Path_58" data-name="Path 58" d="M136.987,22.389l1.81-1.81v6.8a.389.389,0,1,0,.778,0v-6.8l1.81,1.81a.392.392,0,0,0,.274.115.375.375,0,0,0,.274-.115.388.388,0,0,0,0-.551l-2.473-2.473a.394.394,0,0,0-.274-.115.377.377,0,0,0-.274.115l-2.473,2.473a.388.388,0,0,0,.548.551Z" transform="translate(-132.489 -17.25)" fill="#2c3032"/>
    </g>
    <g id="e-signature" transform="translate(-1049 -202.107)">
      <path id="Path_59" data-name="Path 59" d="M116.852,2.779a1.769,1.769,0,0,0-2.5,0L109.228,7.9a.393.393,0,0,0-.1.173L108.2,11.4a.393.393,0,0,0,.484.484l3.33-.923a.393.393,0,0,0,.173-.1l5.122-5.122a1.771,1.771,0,0,0,0-2.5Zm-6.767,5.377,3.848-3.848,1.852,1.852-3.848,3.848Zm-.37.742,1.479,1.479-2.046.567Zm7.043-3.712-.417.417-1.852-1.852.417-.417a.983.983,0,0,1,1.39,0l.462.461A.984.984,0,0,1,116.757,5.187Zm0,0" transform="translate(997.249 280.411) rotate(-13)" fill="#2c3032"/>
      <path id="Path_60" data-name="Path 60" d="M1098.917,271.333c1.021-10.646,2.5-.083,2.5-.083H1104" transform="translate(2 -4)" fill="none" stroke="#2c3032" stroke-linecap="round" stroke-linejoin="round" stroke-width="0.8"/>
    </g>
    <g id="name" transform="translate(81 53)">
      <path id="Path_27" data-name="Path 27" d="M139.723,6.7h.082a2.375,2.375,0,0,0,1.814-.785,4.708,4.708,0,0,0,.808-3.215A2.626,2.626,0,0,0,141.179.363,2.862,2.862,0,0,0,139.795,0h-.044a2.866,2.866,0,0,0-1.385.353A2.627,2.627,0,0,0,137.1,2.7a4.708,4.708,0,0,0,.808,3.215A2.365,2.365,0,0,0,139.723,6.7ZM137.79,2.762c0-.008,0-.015,0-.021A1.872,1.872,0,0,1,139.748.7h.031a1.882,1.882,0,0,1,1.956,2.043.05.05,0,0,0,0,.021,4.075,4.075,0,0,1-.636,2.689A1.687,1.687,0,0,1,139.777,6h-.026a1.681,1.681,0,0,1-1.323-.551A4.1,4.1,0,0,1,137.79,2.762Z" transform="translate(-134.482)" fill="#2c3032"/>
      <path id="Path_28" data-name="Path 28" d="M46.644,262.445v-.008c0-.021,0-.041,0-.064a2.019,2.019,0,0,0-1.166-2.082l-.026-.008a7.427,7.427,0,0,1-2.136-.973.347.347,0,1,0-.4.569,8.016,8.016,0,0,0,2.35,1.073c.6.214.667.854.685,1.441a.516.516,0,0,0,0,.064,4.672,4.672,0,0,1-.054.8,10.278,10.278,0,0,1-9.077,0,4.422,4.422,0,0,1-.054-.8c0-.021,0-.041,0-.064.018-.587.085-1.228.685-1.441a8.09,8.09,0,0,0,2.35-1.073.347.347,0,1,0-.4-.569,7.344,7.344,0,0,1-2.136.973l-.026.008a2.022,2.022,0,0,0-1.166,2.082.517.517,0,0,1,0,.064v.008a3.947,3.947,0,0,0,.131,1.166.33.33,0,0,0,.134.162A9.734,9.734,0,0,0,41.362,265a9.764,9.764,0,0,0,5.024-1.23.344.344,0,0,0,.134-.162A4.141,4.141,0,0,0,46.644,262.445Z" transform="translate(-36.073 -252.572)" fill="#2c3032"/>
    </g>
    <path id="date" d="M9.141,9.377H7.786V9.039a.339.339,0,1,0-.677,0v.339H3.724V9.039A.32.32,0,0,0,3.385,8.7a.32.32,0,0,0-.339.339v.339H1.693A1.676,1.676,0,0,0,0,11.07v6.094a1.676,1.676,0,0,0,1.693,1.693H9.141a1.676,1.676,0,0,0,1.693-1.693V11.07A1.676,1.676,0,0,0,9.141,9.377ZM.677,11.07a1.041,1.041,0,0,1,1.016-1.016H3.047v.339a.32.32,0,0,0,.339.339.32.32,0,0,0,.339-.339v-.339H7.109v.339a.339.339,0,0,0,.677,0v-.339H9.141a1.041,1.041,0,0,1,1.016,1.016v1.016H.677V11.07Zm9.479,6.094a1.041,1.041,0,0,1-1.016,1.016H1.693A1.041,1.041,0,0,1,.677,17.164v-4.4h9.479Z" transform="translate(6 62.3)" fill="#2c3032"/>
    <g id="time" transform="translate(-1071 -227)">
      <g id="Ellipse_4" data-name="Ellipse 4" transform="translate(1101 297)" fill="none" stroke="#2c3032" stroke-width="0.8">
        <circle cx="6" cy="6" r="6" stroke="none"/>
        <circle cx="6" cy="6" r="5.6" fill="none"/>
      </g>
      <path id="Path_71" data-name="Path 71" d="M0,2V5" transform="translate(1107.5 298.5)" fill="none" stroke="#2c3032" stroke-linecap="round" stroke-width="0.8"/>
      <line id="Line_3" data-name="Line 3" x2="2" transform="translate(1105.5 303.5)" fill="none" stroke="#2c3032" stroke-linecap="round" stroke-width="0.8"/>
    </g>
    <path id="Phone" d="M2.943,6.748A10.769,10.769,0,0,0,6.525,9.554a5.575,5.575,0,0,0,2,.593c.048,0,.095,0,.143,0A1.66,1.66,0,0,0,9.96,9.6a.046.046,0,0,0,.008-.011,5.419,5.419,0,0,1,.406-.421c.1-.095.2-.194.3-.294a1.016,1.016,0,0,0,0-1.512L9.4,6.1a1.023,1.023,0,0,0-.74-.341,1.058,1.058,0,0,0-.749.339l-.753.753c-.069-.04-.141-.076-.208-.109a2.6,2.6,0,0,1-.231-.126,7.969,7.969,0,0,1-1.9-1.733,4.589,4.589,0,0,1-.644-1.026c.2-.179.383-.366.562-.549.063-.065.128-.13.194-.2a1.078,1.078,0,0,0,.349-.757,1.07,1.07,0,0,0-.349-.757L4.3.965C4.228.892,4.159.82,4.087.747,3.948.6,3.8.456,3.66.324A1.049,1.049,0,0,0,2.92,0a1.08,1.08,0,0,0-.749.326l-.787.787A1.616,1.616,0,0,0,.9,2.148,3.893,3.893,0,0,0,1.195,3.83,9.79,9.79,0,0,0,2.943,6.748ZM1.416,2.192a1.113,1.113,0,0,1,.334-.715L2.533.694A.566.566,0,0,1,2.92.515.537.537,0,0,1,3.3.7c.141.13.273.267.416.412l.219.223.627.627a.571.571,0,0,1,.2.393.571.571,0,0,1-.2.393l-.2.2c-.2.2-.379.385-.581.564l-.011.011a.411.411,0,0,0-.105.467L3.675,4a4.95,4.95,0,0,0,.738,1.2A8.411,8.411,0,0,0,6.441,7.051a3.011,3.011,0,0,0,.278.151,2.6,2.6,0,0,1,.231.126l.023.013a.44.44,0,0,0,.2.053A.446.446,0,0,0,7.49,7.25l.787-.787a.557.557,0,0,1,.385-.187.528.528,0,0,1,.372.187L10.3,7.73a.507.507,0,0,1-.006.793c-.088.095-.181.185-.28.28a6.057,6.057,0,0,0-.44.456,1.155,1.155,0,0,1-.9.383c-.036,0-.074,0-.109,0A5.065,5.065,0,0,1,6.752,9.1a10.231,10.231,0,0,1-3.41-2.671A9.37,9.37,0,0,1,1.681,3.658,3.393,3.393,0,0,1,1.416,2.192Z" transform="translate(54.418 70.391) rotate(7)" fill="#2c3032" stroke="#2c3032" stroke-width="0.2"/>
    <path id="Rating" d="M12.377,6.54a.907.907,0,0,0-.5-1.548L8.81,4.547a.4.4,0,0,1-.3-.219L7.139,1.553a.907.907,0,0,0-1.627,0L4.143,4.328a.4.4,0,0,1-.3.219L.778,4.993a.907.907,0,0,0-.5,1.547L2.491,8.7a.4.4,0,0,1,.116.355l-.523,3.051a.907.907,0,0,0,1.316.956l2.739-1.44a.4.4,0,0,1,.373,0l2.74,1.44a.907.907,0,0,0,1.316-.956l-.523-3.051A.4.4,0,0,1,10.16,8.7Zm-2.831,2.6.523,3.051a.4.4,0,0,1-.581.423l-2.74-1.441a.907.907,0,0,0-.845,0l-2.739,1.44a.4.4,0,0,1-.581-.423l.523-3.051a.907.907,0,0,0-.261-.8L.628,6.177A.4.4,0,0,1,.85,5.494l3.063-.445a.906.906,0,0,0,.683-.5l1.37-2.776a.4.4,0,0,1,.719,0l1.37,2.776a.906.906,0,0,0,.683.5l3.063.445a.4.4,0,0,1,.222.683L9.806,8.338A.907.907,0,0,0,9.546,9.141Z" transform="translate(79 68.453)" fill="#2c3032" stroke="#2c3032" stroke-width="0.2"/>
    <g id="date_and_time" data-name="date and time" transform="translate(-1229 -250)">
      <path id="Subtraction_2" data-name="Subtraction 2" d="M1235.416-112.844h-4.723a1.674,1.674,0,0,1-1.692-1.693v-6.094a1.674,1.674,0,0,1,1.692-1.692h1.354v-.339a.32.32,0,0,1,.339-.338.32.32,0,0,1,.338.338v.339h3.386v-.339a.32.32,0,0,1,.338-.338.32.32,0,0,1,.339.338v.339h1.354a1.674,1.674,0,0,1,1.692,1.692v2.893a3.484,3.484,0,0,0-.677-.2v-1h-9.479v4.4a1.042,1.042,0,0,0,1.015,1.016h4.446a3.493,3.493,0,0,0,.276.675Zm-4.723-8.8a1.042,1.042,0,0,0-1.015,1.015v1.016h9.479v-1.016a1.042,1.042,0,0,0-1.015-1.015h-1.354v.338a.32.32,0,0,1-.339.338.32.32,0,0,1-.338-.338v-.338h-3.386v.338a.32.32,0,0,1-.338.338.32.32,0,0,1-.339-.338v-.338Z" transform="translate(6 460)" fill="#2c3032"/>
      <g id="Group_42" data-name="Group 42" transform="translate(141 46)">
        <g id="Ellipse_4-2" data-name="Ellipse 4" transform="translate(1101 297)" fill="none" stroke="#2c3032" stroke-width="0.6">
          <circle cx="2.578" cy="2.578" r="2.578" stroke="none"/>
          <circle cx="2.578" cy="2.578" r="2.278" fill="none"/>
        </g>
        <path id="Path_71-2" data-name="Path 71" d="M0,2V3.289" transform="translate(1103.793 296.504)" fill="none" stroke="#2c3032" stroke-linecap="round" stroke-width="0.6"/>
        <line id="Line_3-2" data-name="Line 3" x2="0.859" transform="translate(1102.934 299.793)" fill="none" stroke="#2c3032" stroke-linecap="round" stroke-width="0.6"/>
      </g>
    </g>
    <g id="placeholder" transform="translate(-44.859 86)">
      <g id="Group_22" data-name="Group 22" transform="translate(76)">
        <g id="Group_21" data-name="Group 21">
          <path id="Path_47" data-name="Path 47" d="M80.79,0a4.791,4.791,0,0,0-4.075,7.309l3.8,6.127a.4.4,0,0,0,.339.189h0a.4.4,0,0,0,.339-.194L84.9,7.244A4.791,4.791,0,0,0,80.79,0Zm3.429,6.834L80.85,12.459,77.394,6.888a3.994,3.994,0,1,1,6.826-.054Z" transform="translate(-76)" fill="#2c3032"/>
        </g>
      </g>
      <g id="Address" transform="translate(78.395 2.395)">
        <g id="Group_23" data-name="Group 23">
          <path id="Path_48" data-name="Path 48" d="M168.4,90a2.4,2.4,0,1,0,2.4,2.4A2.4,2.4,0,0,0,168.4,90Zm0,4a1.6,1.6,0,1,1,1.6-1.6A1.6,1.6,0,0,1,168.4,94Z" transform="translate(-166 -90)" fill="#2c3032"/>
        </g>
      </g>
    </g>
    <g id="Website" transform="translate(-1181 -290)">
      <g id="Path_73" data-name="Path 73" transform="translate(1235 379)" fill="none">
        <path d="M1.831-1H9.156A1.831,1.831,0,0,1,10.987.831V7.325A1.831,1.831,0,0,1,9.156,9.156H1.831A1.831,1.831,0,0,1,0,7.325V.831A1.831,1.831,0,0,1,1.831-1Z" stroke="none"/>
        <path d="M 1.83122730255127 -0.2999963760375977 C 1.207467079162598 -0.2999963760375977 0.6999969482421875 0.2074637413024902 0.6999969482421875 0.8312239646911621 L 0.6999969482421875 7.324903964996338 C 0.6999969482421875 7.94866418838501 1.207467079162598 8.456124305725098 1.83122730255127 8.456124305725098 L 9.156126976013184 8.456124305725098 C 9.779887199401855 8.456124305725098 10.28735733032227 7.94866418838501 10.28735733032227 7.324903964996338 L 10.28735733032227 0.8312239646911621 C 10.28735733032227 0.2074637413024902 9.779887199401855 -0.2999963760375977 9.156126976013184 -0.2999963760375977 L 1.83122730255127 -0.2999963760375977 M 1.83122730255127 -0.9999961853027344 L 9.156126976013184 -0.9999961853027344 C 10.16748714447021 -0.9999961853027344 10.9873571395874 -0.1801357269287109 10.9873571395874 0.8312239646911621 L 10.9873571395874 7.324903964996338 C 10.9873571395874 8.336263656616211 10.16748714447021 9.156124114990234 9.156126976013184 9.156124114990234 L 1.83122730255127 9.156124114990234 C 0.8198671340942383 9.156124114990234 -2.86102294921875e-06 8.336263656616211 -2.86102294921875e-06 7.324903964996338 L -2.86102294921875e-06 0.8312239646911621 C -2.86102294921875e-06 -0.1801357269287109 0.8198671340942383 -0.9999961853027344 1.83122730255127 -0.9999961853027344 Z" stroke="none" fill="#2c3032"/>
      </g>
      <path id="Path_72" data-name="Path 72" d="M1.01-4.641a.051.051,0,0,1-.054-.042L.42-6.521a.043.043,0,0,1,0-.019.034.034,0,0,1,.013-.027.048.048,0,0,1,.033-.011h.18A.051.051,0,0,1,.7-6.536l.4,1.493q0,.011.011.011t.011-.011l.41-1.493a.051.051,0,0,1,.054-.042h.168a.051.051,0,0,1,.054.042l.417,1.493q0,.011.011.011t.011-.011l.41-1.493a.053.053,0,0,1,.057-.042l.176,0a.045.045,0,0,1,.038.015.046.046,0,0,1,0,.042L2.384-4.683a.051.051,0,0,1-.054.042H2.143a.051.051,0,0,1-.054-.042L1.676-6.1q0-.011-.011-.011T1.653-6.1l-.4,1.413a.051.051,0,0,1-.054.042Zm2.761,0a.051.051,0,0,1-.054-.042L3.181-6.521a.043.043,0,0,1,0-.019.034.034,0,0,1,.013-.027.048.048,0,0,1,.033-.011H3.4a.051.051,0,0,1,.054.042l.4,1.493q0,.011.011.011t.011-.011l.41-1.493a.051.051,0,0,1,.054-.042h.168a.051.051,0,0,1,.054.042L4.98-5.043q0,.011.011.011T5-5.043l.41-1.493a.053.053,0,0,1,.057-.042l.176,0a.045.045,0,0,1,.038.015.046.046,0,0,1,0,.042L5.145-4.683a.051.051,0,0,1-.054.042H4.9a.051.051,0,0,1-.054-.042L4.437-6.1q0-.011-.011-.011T4.414-6.1l-.4,1.413a.051.051,0,0,1-.054.042Zm2.761,0a.051.051,0,0,1-.054-.042L5.941-6.521a.043.043,0,0,1,0-.019.034.034,0,0,1,.013-.027.048.048,0,0,1,.033-.011h.18a.051.051,0,0,1,.054.042l.4,1.493q0,.011.011.011t.011-.011l.41-1.493A.051.051,0,0,1,7.1-6.578H7.27a.051.051,0,0,1,.054.042l.417,1.493q0,.011.011.011t.011-.011l.41-1.493a.053.053,0,0,1,.057-.042l.176,0a.045.045,0,0,1,.038.015.046.046,0,0,1,0,.042L7.906-4.683a.051.051,0,0,1-.054.042H7.664a.051.051,0,0,1-.054-.042L7.2-6.1q0-.011-.011-.011T7.174-6.1l-.4,1.413a.051.051,0,0,1-.054.042Z" transform="translate(1236.084 389.078)" fill="#2c3032" stroke="#2c3032" stroke-width="0.2"/>
    </g>
    <g id="Password" transform="translate(76 87)">
      <path id="Path_74" data-name="Path 74" d="M12.989,4.228V3.048A3.221,3.221,0,0,0,9.625,0,3.221,3.221,0,0,0,6.261,3.048v1.18A1.521,1.521,0,0,0,5,5.724V9.833a1.521,1.521,0,0,0,1.52,1.52H12.73a1.521,1.521,0,0,0,1.52-1.52V5.724A1.521,1.521,0,0,0,12.989,4.228ZM6.682,3.048A2.8,2.8,0,0,1,9.625.42a2.8,2.8,0,0,1,2.943,2.628V4.2H6.682ZM13.83,9.833a1.1,1.1,0,0,1-1.1,1.1H6.52a1.1,1.1,0,0,1-1.1-1.1V5.724a1.1,1.1,0,0,1,1.1-1.1H12.73a1.1,1.1,0,0,1,1.1,1.1Z" fill="#2c3032" stroke="#2c3032" stroke-width="0.3"/>
      <path id="Path_75" data-name="Path 75" d="M23.841,28a.842.842,0,0,0-.841.841V30.1a.841.841,0,0,0,1.682,0V28.841A.842.842,0,0,0,23.841,28Zm.42,2.1a.42.42,0,0,1-.841,0V28.841a.42.42,0,1,1,.841,0Z" transform="translate(-14.216 -22.114)" fill="#2c3032" stroke="#2c3032" stroke-width="0.3"/>
    </g>
    <g id="Email" transform="translate(-13.063 89)">
      <g id="Path_29" data-name="Path 29" transform="translate(18.063 14)" fill="none">
        <path d="M2,0h8a2,2,0,0,1,2,2V7a2,2,0,0,1-2,2H2A2,2,0,0,1,0,7V2A2,2,0,0,1,2,0Z" stroke="none"/>
        <path d="M 2 0.6999998092651367 C 1.283180236816406 0.6999998092651367 0.6999998092651367 1.283180236816406 0.6999998092651367 2 L 0.6999998092651367 7 C 0.6999998092651367 7.716819763183594 1.283180236816406 8.300000190734863 2 8.300000190734863 L 10 8.300000190734863 C 10.71681976318359 8.300000190734863 11.30000019073486 7.716819763183594 11.30000019073486 7 L 11.30000019073486 2 C 11.30000019073486 1.283180236816406 10.71681976318359 0.6999998092651367 10 0.6999998092651367 L 2 0.6999998092651367 M 2 0 L 10 0 C 11.10457038879395 0 12 0.8954296112060547 12 2 L 12 7 C 12 8.104570388793945 11.10457038879395 9 10 9 L 2 9 C 0.8954296112060547 9 0 8.104570388793945 0 7 L 0 2 C 0 0.8954296112060547 0.8954296112060547 0 2 0 Z" stroke="none" fill="#2c3032"/>
      </g>
      <path id="Path_30" data-name="Path 30" d="M18.953,14.969l4.984,3.7,5.2-3.875" fill="none" stroke="#2c3032" stroke-linecap="round" stroke-linejoin="round" stroke-width="0.8"/>
    </g>
    <g id="upload" transform="translate(28 83.75)">
      <g id="Group_30-2" data-name="Group 30" transform="translate(0 16.25)">
        <path id="Path_57-2" data-name="Path 57" d="M12.005,230.208a.387.387,0,0,0-.389.389v1.352a1.746,1.746,0,0,1-1.744,1.744H3.522a1.746,1.746,0,0,1-1.744-1.744v-1.41a.389.389,0,1,0-.778,0v1.41a2.525,2.525,0,0,0,2.522,2.522h6.35a2.525,2.525,0,0,0,2.522-2.522V230.6A.389.389,0,0,0,12.005,230.208Z" transform="translate(0 -222.071)" fill="#2c3032"/>
        <path id="Path_58-2" data-name="Path 58" d="M136.987,22.389l1.81-1.81v6.8a.389.389,0,1,0,.778,0v-6.8l1.81,1.81a.392.392,0,0,0,.274.115.375.375,0,0,0,.274-.115.388.388,0,0,0,0-.551l-2.473-2.473a.394.394,0,0,0-.274-.115.377.377,0,0,0-.274.115l-2.473,2.473a.388.388,0,0,0,.548.551Z" transform="translate(-132.489 -17.25)" fill="#2c3032"/>
      </g>
    </g>
    <g id="Capcha" transform="translate(-1047.375 -155)">
      <path id="Path_79" data-name="Path 79" d="M.685-2.851A.339.339,0,0,1,.44-2.942a.314.314,0,0,1-.095-.236A.3.3,0,0,1,.44-3.412.346.346,0,0,1,.685-3.5a.346.346,0,0,1,.246.088.3.3,0,0,1,.095.233.314.314,0,0,1-.095.236A.339.339,0,0,1,.685-2.851ZM.547.912A.072.072,0,0,1,.465.83V-2.2a.072.072,0,0,1,.082-.082H.83A.072.072,0,0,1,.912-2.2V.83A.072.072,0,0,1,.83.912Z" transform="translate(1102.419 264.059) rotate(-17)" fill="#2c3032" stroke="#2c3032" stroke-width="0.1"/>
      <path id="Path_78" data-name="Path 78" d="M1.96,1.567a1.617,1.617,0,0,1-.979-.3,1.489,1.489,0,0,1-.559-.8,3.639,3.639,0,0,1-.1-.983,3.9,3.9,0,0,1,.1-.967,1.441,1.441,0,0,1,.555-.788,1.635,1.635,0,0,1,.983-.3,1.718,1.718,0,0,1,1,.293,1.331,1.331,0,0,1,.551.729,1.747,1.747,0,0,1,.048.214v.016a.1.1,0,0,1-.1.1l-.349.04H3.094q-.071,0-.1-.087a.434.434,0,0,0-.016-.1.891.891,0,0,0-.349-.511,1.084,1.084,0,0,0-.674-.21,1.033,1.033,0,0,0-.662.21.96.96,0,0,0-.345.559,3.6,3.6,0,0,0-.071.8A3.521,3.521,0,0,0,.954.3.964.964,0,0,0,1.3.865a1.033,1.033,0,0,0,.662.21,1.117,1.117,0,0,0,.67-.2A.82.82,0,0,0,2.975.362a.088.088,0,0,0,.008-.04L2.991.315Q3,.212,3.109.227L3.45.283a.1.1,0,0,1,.1.119L3.514.536a1.255,1.255,0,0,1-.547.745A1.772,1.772,0,0,1,1.96,1.567Z" transform="translate(1103.774 262.462) rotate(11)" fill="#2c3032" stroke="#2c3032" stroke-width="0.1"/>
      <path id="Path_80" data-name="Path 80" d="M2.645-.979a1.38,1.38,0,0,1,.117.606A1.434,1.434,0,0,1,2.589.35a1.021,1.021,0,0,1-.423.4,1.374,1.374,0,0,1-.64.142A1.345,1.345,0,0,1,.883.739,1.023,1.023,0,0,1,.457.319a1.4,1.4,0,0,1-.167-.7A1.505,1.505,0,0,1,.414-1a1.037,1.037,0,0,1,.414-.464q.031-.019,0-.037a1.184,1.184,0,0,1-.346-.321A1.033,1.033,0,0,1,.3-2.425a1.066,1.066,0,0,1,.173-.606A1.035,1.035,0,0,1,.9-3.414a1.4,1.4,0,0,1,.627-.136,1.425,1.425,0,0,1,.668.145.987.987,0,0,1,.426.43,1.1,1.1,0,0,1,.136.55.973.973,0,0,1-.179.587,1.154,1.154,0,0,1-.352.34q-.037.025,0,.043A.971.971,0,0,1,2.645-.979ZM.729-2.388a.759.759,0,0,0,.136.451.687.687,0,0,0,.26.232.849.849,0,0,0,.371.09h.037a.807.807,0,0,0,.392-.093.809.809,0,0,0,.281-.253.772.772,0,0,0,.117-.433.8.8,0,0,0-.093-.4.71.71,0,0,0-.281-.281.866.866,0,0,0-.43-.1.823.823,0,0,0-.414.1.716.716,0,0,0-.278.281A.841.841,0,0,0,.729-2.388ZM2.175.2A1.158,1.158,0,0,0,2.323-.41a1.273,1.273,0,0,0-.074-.426.7.7,0,0,0-.272-.343A.81.81,0,0,0,1.526-1.3a.7.7,0,0,0-.7.445A1.053,1.053,0,0,0,.735-.4a1.182,1.182,0,0,0,.13.569.721.721,0,0,0,.661.34A.725.725,0,0,0,2.175.2Z" transform="translate(1107.393 263.305) rotate(17)" fill="#2c3032" stroke="#2c3032" stroke-width="0.1"/>
      <g id="Path_77" data-name="Path 77" transform="translate(1100.375 258)" fill="none">
        <path d="M1.935-1H9.677A1.885,1.885,0,0,1,11.612.831V7.325A1.885,1.885,0,0,1,9.677,9.156H1.935A1.885,1.885,0,0,1,0,7.325V.831A1.885,1.885,0,0,1,1.935-1Z" stroke="none"/>
        <path d="M 1.935397148132324 -0.2999963760375977 C 1.254197120666504 -0.2999963760375977 0.6999969482421875 0.2074637413024902 0.6999969482421875 0.8312239646911621 L 0.6999969482421875 7.324903964996338 C 0.6999969482421875 7.94866418838501 1.254197120666504 8.456124305725098 1.935397148132324 8.456124305725098 L 9.676957130432129 8.456124305725098 C 10.35815715789795 8.456124305725098 10.91235733032227 7.94866418838501 10.91235733032227 7.324903964996338 L 10.91235733032227 0.8312239646911621 C 10.91235733032227 0.2074637413024902 10.35815715789795 -0.2999963760375977 9.676957130432129 -0.2999963760375977 L 1.935397148132324 -0.2999963760375977 M 1.935397148132324 -0.9999961853027344 L 9.676957130432129 -0.9999961853027344 C 10.74584674835205 -0.9999961853027344 11.6123571395874 -0.1801357269287109 11.6123571395874 0.8312239646911621 L 11.6123571395874 7.324903964996338 C 11.6123571395874 8.336263656616211 10.74584674835205 9.156124114990234 9.676957130432129 9.156124114990234 L 1.935397148132324 9.156124114990234 C 0.8665075302124023 9.156124114990234 -2.86102294921875e-06 8.336263656616211 -2.86102294921875e-06 7.324903964996338 L -2.86102294921875e-06 0.8312239646911621 C -2.86102294921875e-06 -0.1801357269287109 0.8665075302124023 -0.9999961853027344 1.935397148132324 -0.9999961853027344 Z" stroke="none" fill="#2c3032"/>
      </g>
    </g>
    <g id="List" transform="translate(-2 -374.5)">
      <path id="Path_76" data-name="Path 76" d="M0,0H10" transform="translate(82.5 480.5)" fill="#2c3032" stroke="#2c3032" stroke-linecap="round" stroke-width="0.8"/>
      <path id="Path_76-2" data-name="Path 76" d="M0,0H10" transform="translate(82.5 483.5)" fill="#2c3032" stroke="#2c3032" stroke-linecap="round" stroke-width="0.8"/>
      <path id="Path_76-3" data-name="Path 76" d="M0,0H10" transform="translate(82.5 486.5)" fill="#2c3032" stroke="#2c3032" stroke-linecap="round" stroke-width="0.8"/>
    </g>
    <g id="Title" transform="translate(-1095 -140)">
      <g id="Path_97" data-name="Path 97" transform="translate(1100 261)" fill="none">
        <path d="M1.831-1h8.325A1.831,1.831,0,0,1,11.987.831V2.325a1.831,1.831,0,0,1-1.831,1.831H1.831A1.831,1.831,0,0,1,0,2.325V.831A1.831,1.831,0,0,1,1.831-1Z" stroke="none"/>
        <path d="M 1.83122730255127 -0.2999961376190186 C 1.207467079162598 -0.2999961376190186 0.6999969482421875 0.2074639797210693 0.6999969482421875 0.8312239646911621 L 0.6999969482421875 2.324903964996338 C 0.6999969482421875 2.948663949966431 1.207467079162598 3.456124067306519 1.83122730255127 3.456124067306519 L 10.15612697601318 3.456124067306519 C 10.77988719940186 3.456124067306519 11.28735733032227 2.948663949966431 11.28735733032227 2.324903964996338 L 11.28735733032227 0.8312239646911621 C 11.28735733032227 0.2074639797210693 10.77988719940186 -0.2999961376190186 10.15612697601318 -0.2999961376190186 L 1.83122730255127 -0.2999961376190186 M 1.83122730255127 -0.9999961853027344 L 10.15612697601318 -0.9999961853027344 C 11.16748714447021 -0.9999961853027344 11.9873571395874 -0.18013596534729 11.9873571395874 0.8312239646911621 L 11.9873571395874 2.324903964996338 C 11.9873571395874 3.33626389503479 11.16748714447021 4.156124114990234 10.15612697601318 4.156124114990234 L 1.83122730255127 4.156124114990234 C 0.8198671340942383 4.156124114990234 -2.86102294921875e-06 3.33626389503479 -2.86102294921875e-06 2.324903964996338 L -2.86102294921875e-06 0.8312239646911621 C -2.86102294921875e-06 -0.18013596534729 0.8198671340942383 -0.9999961853027344 1.83122730255127 -0.9999961853027344 Z" stroke="none" fill="#2c3032"/>
      </g>
      <path id="Path_98" data-name="Path 98" d="M.917,0H7.792" transform="translate(1101.583 262.5)" fill="none" stroke="#2c3032" stroke-linecap="round" stroke-width="0.8"/>
    </g>
    <g id="Body" transform="translate(-1205 -142)">
      <g id="Path_99" data-name="Path 99" transform="translate(1235 261)" fill="none">
        <path d="M1.831-1h8.325A1.831,1.831,0,0,1,11.987.831V6.325a1.831,1.831,0,0,1-1.831,1.831H1.831A1.831,1.831,0,0,1,0,6.325V.831A1.831,1.831,0,0,1,1.831-1Z" stroke="none"/>
        <path d="M 1.83122730255127 -0.2999958992004395 C 1.207467079162598 -0.2999958992004395 0.6999969482421875 0.2074637413024902 0.6999969482421875 0.8312239646911621 L 0.6999969482421875 6.324903964996338 C 0.6999969482421875 6.94866418838501 1.207467079162598 7.456123828887939 1.83122730255127 7.456123828887939 L 10.15612697601318 7.456123828887939 C 10.77988719940186 7.456123828887939 11.28735733032227 6.94866418838501 11.28735733032227 6.324903964996338 L 11.28735733032227 0.8312239646911621 C 11.28735733032227 0.2074637413024902 10.77988719940186 -0.2999958992004395 10.15612697601318 -0.2999958992004395 L 1.83122730255127 -0.2999958992004395 M 1.83122730255127 -0.9999961853027344 L 10.15612697601318 -0.9999961853027344 C 11.16748714447021 -0.9999961853027344 11.9873571395874 -0.1801362037658691 11.9873571395874 0.8312239646911621 L 11.9873571395874 6.324903964996338 C 11.9873571395874 7.336264133453369 11.16748714447021 8.156124114990234 10.15612697601318 8.156124114990234 L 1.83122730255127 8.156124114990234 C 0.8198671340942383 8.156124114990234 -2.86102294921875e-06 7.336264133453369 -2.86102294921875e-06 6.324903964996338 L -2.86102294921875e-06 0.8312239646911621 C -2.86102294921875e-06 -0.1801362037658691 0.8198671340942383 -0.9999961853027344 1.83122730255127 -0.9999961853027344 Z" stroke="none" fill="#2c3032"/>
      </g>
      <path id="Path_100" data-name="Path 100" d="M.917,0H7.792" transform="translate(1236.583 262.5)" fill="none" stroke="#2c3032" stroke-linecap="round" stroke-width="0.7"/>
      <path id="Path_101" data-name="Path 101" d="M.917,0H6.1" transform="translate(1236.583 264.5)" fill="none" stroke="#2c3032" stroke-linecap="round" stroke-width="0.7"/>
      <path id="Path_102" data-name="Path 102" d="M.917.063H7.792" transform="translate(1236.583 266.438)" fill="none" stroke="#2c3032" stroke-linecap="round" stroke-width="0.7"/>
    </g>
    <g id="Excerpt" transform="translate(-1049 -415.896)">
      <path id="Path_83" data-name="Path 83" d="M0,.5H5" transform="translate(1108.5 534.5)" fill="none" stroke="#2c3032" stroke-linecap="round" stroke-width="0.8"/>
      <path id="Path_108" data-name="Path 108" d="M0,.594H2.688" transform="translate(1108.5 536.406)" fill="none" stroke="#2c3032" stroke-linecap="round" stroke-width="0.8"/>
      <path id="Path_84" data-name="Path 84" d="M0,.5H5" transform="translate(1108.5 539.5)" fill="none" stroke="#2c3032" stroke-linecap="round" stroke-width="0.8"/>
      <path id="Path_109" data-name="Path 109" d="M0,.563H2.375" transform="translate(1108.5 541.438)" fill="none" stroke="#2c3032" stroke-linecap="round" stroke-width="0.8"/>
      <g id="Rectangle_7" data-name="Rectangle 7" transform="matrix(1, 0.017, -0.017, 1, 1103.123, 533.896)" fill="none" stroke="#2c3032" stroke-width="0.8">
        <rect width="4" height="4" rx="1" stroke="none"/>
        <rect x="0.4" y="0.4" width="3.2" height="3.2" rx="0.6" fill="none"/>
      </g>
      <g id="Rectangle_7-2" data-name="Rectangle 7" transform="matrix(1, 0.017, -0.017, 1, 1103.036, 538.896)" fill="none" stroke="#2c3032" stroke-width="0.8">
        <rect width="4" height="4" rx="1" stroke="none"/>
        <rect x="0.4" y="0.4" width="3.2" height="3.2" rx="0.6" fill="none"/>
      </g>
    </g>
    <g id="tag" transform="translate(81 116.894)">
      <path id="Path_82" data-name="Path 82" d="M10.9,5.95,7.1,2.143a1.34,1.34,0,0,0-.951-.4c-.029,0-.059,0-.088,0l-3.475.23a.758.758,0,0,0-.705.705L1.8,3.919a2.4,2.4,0,0,1-.5-.382,2.181,2.181,0,0,1-.649-1.3,1.354,1.354,0,0,1,.361-1.122A1.756,1.756,0,0,1,3.441,1.4.321.321,0,0,0,3.9.946,2.4,2.4,0,0,0,.557.66,1.984,1.984,0,0,0,.012,2.3,2.816,2.816,0,0,0,.845,3.993a2.982,2.982,0,0,0,.905.622l-.1,1.546A1.343,1.343,0,0,0,2.042,7.2l3.807,3.807a1.6,1.6,0,0,0,1.138.47h0a1.607,1.607,0,0,0,1.138-.47L10.91,8.226A1.606,1.606,0,0,0,10.9,5.95Zm-.451,1.819L7.665,10.557a.962.962,0,0,1-.684.283h0a.962.962,0,0,1-.684-.283L2.49,6.75A.7.7,0,0,1,2.285,6.2l.093-1.4c.053.008.107.016.16.021.08.008.16.013.238.013a1.939,1.939,0,0,0,1.4-.556.321.321,0,1,0-.454-.454A1.354,1.354,0,0,1,2.6,4.191c-.061-.005-.12-.016-.179-.027l.1-1.432a.118.118,0,0,1,.11-.11L6.1,2.394l.048,0a.71.71,0,0,1,.5.206l3.8,3.8a.967.967,0,0,1,0,1.367Z" transform="translate(0)" fill="#2c3032"/>
    </g>
    <g id="Category" transform="translate(0 -381.896)">
      <g id="Rectangle_7-3" data-name="Rectangle 7" transform="matrix(1, 0.017, -0.017, 1, 5.123, 513.896)" fill="none" stroke="#2c3032" stroke-width="0.8">
        <rect width="5" height="5" rx="1" stroke="none"/>
        <rect x="0.4" y="0.4" width="4.2" height="4.2" rx="0.6" fill="none"/>
      </g>
      <g id="Rectangle_7-4" data-name="Rectangle 7" transform="matrix(1, 0.017, -0.017, 1, 11.122, 514.001)" fill="none" stroke="#2c3032" stroke-width="0.8">
        <rect width="5" height="5" rx="1" stroke="none"/>
        <rect x="0.4" y="0.4" width="4.2" height="4.2" rx="0.6" fill="none"/>
      </g>
      <g id="Rectangle_7-5" data-name="Rectangle 7" transform="matrix(1, 0.017, -0.017, 1, 5.018, 519.895)" fill="none" stroke="#2c3032" stroke-width="0.8">
        <rect width="5" height="5" rx="1" stroke="none"/>
        <rect x="0.4" y="0.4" width="4.2" height="4.2" rx="0.6" fill="none"/>
      </g>
      <g id="Rectangle_7-6" data-name="Rectangle 7" transform="matrix(1, 0.017, -0.017, 1, 11.017, 520)" fill="none" stroke="#2c3032" stroke-width="0.8">
        <rect width="5" height="5" rx="1" stroke="none"/>
        <rect x="0.4" y="0.4" width="4.2" height="4.2" rx="0.6" fill="none"/>
      </g>
    </g>
    <g id="Post_Image" data-name="Post Image" transform="translate(29 132)">
      <g id="Group_13" data-name="Group 13">
        <path id="Path_31" data-name="Path 31" d="M0,9.138a1.2,1.2,0,0,0,1.195,1.195h8.944a1.2,1.2,0,0,0,1.195-1.195V1.195A1.2,1.2,0,0,0,10.138,0H1.195A1.2,1.2,0,0,0,0,1.195Zm10.138.628H1.195a.63.63,0,0,1-.628-.628V8.645L2.716,6.5,4.553,8.332a.282.282,0,0,0,.4,0L8.27,5.016l2.5,2.5V9.138A.63.63,0,0,1,10.138,9.766ZM1.195.567h8.944a.63.63,0,0,1,.628.628V6.709l-2.3-2.295a.282.282,0,0,0-.4,0L4.752,7.73,2.916,5.894a.282.282,0,0,0-.4,0L.567,7.841V1.195A.63.63,0,0,1,1.195.567Z" fill="#2c3032" stroke="#2c3032" stroke-width="0.1"/>
        <path id="Path_32" data-name="Path 32" d="M90.843,74.385A1.443,1.443,0,1,0,89.4,72.943,1.444,1.444,0,0,0,90.843,74.385Zm0-2.318a.875.875,0,1,1-.875.875A.876.876,0,0,1,90.843,72.067Z" transform="translate(-87.33 -69.844)" fill="#2c3032" stroke="#2c3032" stroke-width="0.1"/>
      </g>
    </g>
    <g id="Custom_Field" data-name="Custom Field" transform="translate(-1 -382)">
      <g id="Path_96" data-name="Path 96" transform="matrix(1, 0.017, -0.017, 1, 54.123, 514.122)" fill="none">
        <path d="M.053,3.017l10-.122a1,1,0,0,1,1,1v3a1,1,0,0,1-1,1l-10,.122a1,1,0,0,1-1-1v-3A1,1,0,0,1,.053,3.017Z" stroke="none"/>
        <path d="M 10.0544319152832 3.6948561668396 L 0.06227588653564453 3.816933155059814 L 0.05739593505859375 3.816993236541748 L 0.05250644683837891 3.816993236541748 C -0.05777359008789063 3.816993236541748 -0.1474933624267578 3.906713008880615 -0.1474933624267578 4.016993045806885 L -0.1474933624267578 7.017003059387207 C -0.1474933624267578 7.126276969909668 -0.05939006805419922 7.21536922454834 0.04952049255371094 7.216970443725586 L 10.04167652130127 7.094892978668213 L 10.04655647277832 7.094833374023438 L 10.05144596099854 7.094833374023438 C 10.1617259979248 7.094833374023438 10.25144577026367 7.005113124847412 10.25144577026367 6.894833087921143 L 10.25144577026367 3.894833087921143 C 10.25144577026367 3.785549163818359 10.16334247589111 3.696456432342529 10.0544319152832 3.6948561668396 M 10.05144596099854 2.894832611083984 C 10.60372638702393 2.894832611083984 11.05144596099854 3.342543125152588 11.05144596099854 3.894833087921143 L 11.05144596099854 6.894833087921143 C 11.05144596099854 7.447113037109375 10.60372638702393 7.894833087921143 10.05144596099854 7.894833087921143 L 0.05250644683837891 8.016992568969727 C -0.4997739791870117 8.016992568969727 -0.9474935531616211 7.569283008575439 -0.9474935531616211 7.017003059387207 L -0.9474935531616211 4.016993045806885 C -0.9474935531616211 3.464713096618652 -0.4997739791870117 3.016993045806885 0.05250644683837891 3.016993045806885 L 10.05144596099854 2.894832611083984 Z" stroke="none" fill="#2c3032"/>
      </g>
    </g>
    <g id="Product" transform="translate(-1095 -108)">
      <g id="Rectangle_8" data-name="Rectangle 8" transform="translate(1101 258)" fill="none" stroke="#2c3032" stroke-width="0.7">
        <rect width="10" height="9" rx="1" stroke="none"/>
        <rect x="0.35" y="0.35" width="9.3" height="8.3" rx="0.65" fill="none"/>
      </g>
      <line id="Line_4" data-name="Line 4" x2="9" transform="translate(1101.5 260.5)" fill="none" stroke="#2c3032" stroke-width="0.7"/>
    </g>
    <g id="Quantity" transform="translate(-1205 -108.936)">
      <g id="Group_49" data-name="Group 49" transform="translate(1235 258.936)">
        <g id="Group_47" data-name="Group 47">
          <g id="quantity-2" data-name="quantity">
            <path id="Path_85" data-name="Path 85" d="M15.828,0H4.844A.829.829,0,0,0,4,.844V7.595a.829.829,0,0,0,.844.844H15.828a.829.829,0,0,0,.844-.844V.844A.829.829,0,0,0,15.828,0ZM10.484,7.876H4.844a.266.266,0,0,1-.281-.281V.844A.266.266,0,0,1,4.844.563h5.64Zm5.626-.281a.266.266,0,0,1-.281.281H11.047V4.5H16.11Zm0-3.657H11.047V.563h4.782a.266.266,0,0,1,.281.281Zm0,0" transform="translate(-4 0)" fill="#2c3032" stroke="#2c3032" stroke-width="0.1"/>
            <path id="Path_86" data-name="Path 86" d="M361.406,32h-.563v.844H360v.563h.844v.844h.563v-.844h.844v-.563h-.844Zm0,0" transform="translate(-351.547 -30.875)" fill="#2c3032" stroke="#2c3032" stroke-width="0.1"/>
            <path id="Path_87" data-name="Path 87" d="M360,168h2.25v.563H360Zm0,0" transform="translate(-351.547 -162.093)" fill="#2c3032" stroke="#2c3032" stroke-width="0.1"/>
          </g>
        </g>
        <path id="Path_88" data-name="Path 88" d="M.357.5A.085.085,0,0,1,.294.474.085.085,0,0,1,.271.412v-.3A.159.159,0,0,1,.311.007Q.625-.347.967-.757t.439-.525.177-.211a1.829,1.829,0,0,0,.53-.981.553.553,0,0,0-.18-.431.683.683,0,0,0-.476-.163A.665.665,0,0,0,.984-2.9a.549.549,0,0,0-.171.433v.143a.085.085,0,0,1-.023.063.085.085,0,0,1-.063.023H.346a.085.085,0,0,1-.063-.023A.085.085,0,0,1,.26-2.325v-.217a.972.972,0,0,1,.168-.525,1.016,1.016,0,0,1,.425-.351,1.437,1.437,0,0,1,.6-.123A1.411,1.411,0,0,1,2.1-3.4a1.018,1.018,0,0,1,.422.376,1.008,1.008,0,0,1,.148.542,1.923,1.923,0,0,1-.513,1.118Q1.828-.951,1.013-.01a.019.019,0,0,0-.006.023A.023.023,0,0,0,1.03.024H2.689a.085.085,0,0,1,.063.023A.085.085,0,0,1,2.775.11v.3A.079.079,0,0,1,2.689.5Z" transform="translate(2.034 6.102)" fill="#2c3032" stroke="#2c3032" stroke-width="0.1"/>
      </g>
    </g>
    <g id="Option" transform="translate(0 -382.896)">
      <g id="Rectangle_7-7" data-name="Rectangle 7" transform="matrix(1, 0.017, -0.017, 1, 54.123, 531.896)" fill="none" stroke="#2c3032" stroke-width="0.8">
        <rect width="4" height="4" rx="2" stroke="none"/>
        <rect x="0.4" y="0.4" width="3.2" height="3.2" rx="1.6" fill="none"/>
      </g>
      <g id="Rectangle_7-8" data-name="Rectangle 7" transform="matrix(1, 0.017, -0.017, 1, 59.122, 531.984)" fill="none" stroke="#2c3032" stroke-width="0.8">
        <rect width="4" height="4" rx="2" stroke="none"/>
        <rect x="0.4" y="0.4" width="3.2" height="3.2" rx="1.6" fill="none"/>
      </g>
      <g id="Rectangle_7-9" data-name="Rectangle 7" transform="matrix(1, 0.017, -0.017, 1, 54.036, 536.896)" fill="none" stroke="#2c3032" stroke-width="0.8">
        <rect width="4" height="4" rx="2" stroke="none"/>
        <rect x="0.4" y="0.4" width="3.2" height="3.2" rx="1.6" fill="none"/>
      </g>
      <g id="Rectangle_7-10" data-name="Rectangle 7" transform="matrix(1, 0.017, -0.017, 1, 59.035, 536.983)" fill="none" stroke="#2c3032" stroke-width="0.8">
        <rect width="4" height="4" rx="2" stroke="none"/>
        <rect x="0.4" y="0.4" width="3.2" height="3.2" rx="1.6" fill="none"/>
      </g>
    </g>
    <g id="shipped" transform="translate(79 54.938)">
      <g id="Group_62" data-name="Group 62" transform="translate(0 94.062)">
        <g id="Group_61" data-name="Group 61" transform="translate(0 0)">
          <path id="Path_103" data-name="Path 103" d="M13.967,98.089l-.389-1.556a.235.235,0,0,0,.186-.23v-.251a.989.989,0,0,0-.988-.988H11.005v-.517a.487.487,0,0,0-.486-.486H2.489A.487.487,0,0,0,2,94.548v4.264a.235.235,0,0,0,.47,0V94.548a.016.016,0,0,1,.016-.016h8.03a.016.016,0,0,1,.016.016v4.264a.235.235,0,0,0,.47,0v-.267H13.78a.769.769,0,0,1,.731.533l.037,1.474v1.035h-.615a1.489,1.489,0,0,0-2.815,0H11V99.815a.235.235,0,0,0-.47,0v1.771H6.656a1.489,1.489,0,0,0-2.815,0H2.489a.016.016,0,0,1-.016-.016v-.517H3.493a.235.235,0,1,0,0-.47H1.235a.235.235,0,1,0,0,.47H2v.517a.487.487,0,0,0,.486.486H3.76c0,.005,0,.01,0,.016a1.489,1.489,0,1,0,2.979,0c0-.005,0-.01,0-.016h4.3c0,.005,0,.01,0,.016a1.489,1.489,0,1,0,2.979,0c0-.005,0-.01,0-.016h.769a.235.235,0,0,0,.235-.235V99.314A1.24,1.24,0,0,0,13.967,98.089Zm-2.962-2.554h1.771a.518.518,0,0,1,.517.517v.016H11.005Zm0,2.54V96.539h2.09l.384,1.536Zm-5.757,5.017a1.019,1.019,0,1,1,1.019-1.019A1.02,1.02,0,0,1,5.248,103.092Zm7.277,0a1.019,1.019,0,1,1,1.019-1.019A1.02,1.02,0,0,1,12.526,103.092Zm2.022-3.01v0Z" transform="translate(0 -94.062)" fill="#2c3032" stroke="#2c3032" stroke-linecap="round" stroke-width="0.2"/>
        </g>
      </g>
      <g id="Group_64" data-name="Group 64" transform="translate(3.762 101.587)">
        <g id="Group_63" data-name="Group 63" transform="translate(0 0)">
          <path id="Path_104" data-name="Path 104" d="M128.753,350.6a.486.486,0,1,0,.486.486A.487.487,0,0,0,128.753,350.6Z" transform="translate(-128.267 -350.597)" fill="#2c3032" stroke="#2c3032" stroke-linecap="round" stroke-width="0.2"/>
        </g>
      </g>
      <g id="Group_66" data-name="Group 66" transform="translate(12.04 101.587)">
        <g id="Group_65" data-name="Group 65" transform="translate(0 0)">
          <path id="Path_105" data-name="Path 105" d="M410.941,350.6a.486.486,0,1,0,.486.486A.487.487,0,0,0,410.941,350.6Z" transform="translate(-410.455 -350.597)" fill="#2c3032" stroke="#2c3032" stroke-linecap="round" stroke-width="0.2"/>
        </g>
      </g>
      <g id="Group_70" data-name="Group 70" transform="translate(1.502 99.58)">
        <g id="Group_69" data-name="Group 69">
          <path id="Path_107" data-name="Path 107" d="M20.347,282.188h-3.01a.235.235,0,1,0,0,.47h3.01a.235.235,0,1,0,0-.47Z" transform="translate(-17.102 -282.188)" fill="#2c3032" stroke="#2c3032" stroke-linecap="round" stroke-width="0.2"/>
        </g>
      </g>
    </g>
    <g id="sum" transform="translate(-57 166)">
      <path id="Path_94" data-name="Path 94" d="M71.11,9.75H64.2a.2.2,0,0,1-.173-.309l2.78-4.566L64.03.309A.2.2,0,0,1,64.2,0H71.11a.2.2,0,0,1,0,.406H64.565L67.22,4.769a.2.2,0,0,1,0,.211L64.565,9.344H71.11a.2.2,0,1,1,0,.406Z" fill="#2c3032" stroke="#2c3032" stroke-width="0.3"/>
      <path id="Path_95" data-name="Path 95" d="M71.11,9.75H64.2a.2.2,0,0,1-.173-.309l2.78-4.566L64.03.309A.2.2,0,0,1,64.2,0H71.11a.2.2,0,0,1,0,.406H64.565l2.656,4.363a.2.2,0,0,1,0,.211L64.565,9.344H71.11a.2.2,0,1,1,0,.406Z" fill="#2c3032" stroke="#2c3032" stroke-width="0.3"/>
    </g>
    <g id="Credit_Card" data-name="Credit Card" transform="translate(30 79.667)">
      <g id="Group_51" data-name="Group 51" transform="translate(0 85.333)">
        <g id="Group_50" data-name="Group 50">
          <path id="Path_89" data-name="Path 89" d="M12.414,85.333H1.443A1.6,1.6,0,0,0,0,87.046v7.535a1.6,1.6,0,0,0,1.443,1.713h10.97a1.6,1.6,0,0,0,1.443-1.713V87.046A1.6,1.6,0,0,0,12.414,85.333Zm.866,9.248a.958.958,0,0,1-.866,1.028H1.443a.958.958,0,0,1-.866-1.028V87.046a.958.958,0,0,1,.866-1.028h10.97a.958.958,0,0,1,.866,1.028v7.535Z" transform="translate(0 -85.333)" fill="#2c3032"/>
        </g>
      </g>
      <g id="Group_53" data-name="Group 53" transform="translate(0 87.388)">
        <g id="Group_52" data-name="Group 52" transform="translate(0 0)">
          <path id="Path_90" data-name="Path 90" d="M13.568,149.333H.289a.319.319,0,0,0-.289.343v2.055a.319.319,0,0,0,.289.343h13.28a.319.319,0,0,0,.289-.343v-2.055A.319.319,0,0,0,13.568,149.333Zm-.289,2.055H.577v-1.37h12.7v1.37Z" transform="translate(0 -149.333)" fill="#2c3032"/>
        </g>
      </g>
      <g id="Group_55" data-name="Group 55" transform="translate(2.055 92.183)">
        <g id="Group_54" data-name="Group 54" transform="translate(0 0)">
          <path id="Path_91" data-name="Path 91" d="M68.453,298.667h-4.11a.342.342,0,1,0,0,.685h4.11a.342.342,0,1,0,0-.685Z" transform="translate(-64 -298.667)" fill="#2c3032"/>
        </g>
      </g>
      <g id="Group_59" data-name="Group 59" transform="translate(9.179 91.498)">
        <g id="Group_58" data-name="Group 58" transform="translate(0 0)">
          <path id="Path_93" data-name="Path 93" d="M364.38,277.333h-.685a1.029,1.029,0,0,0-1.028,1.028v.685a1.029,1.029,0,0,0,1.028,1.028h.685a1.029,1.029,0,0,0,1.028-1.028v-.685A1.029,1.029,0,0,0,364.38,277.333Zm.343,1.713a.343.343,0,0,1-.343.343h-.685a.343.343,0,0,1-.343-.343v-.685a.343.343,0,0,1,.343-.342h.685a.343.343,0,0,1,.343.342Z" transform="translate(-362.667 -277.333)" fill="#2c3032"/>
        </g>
      </g>
    </g>
    <g id="settings" transform="translate(26 180.999)">
      <g id="Group_4" data-name="Group 4" transform="translate(-21 0.001)">
        <path id="Path_7" data-name="Path 7" d="M15.418,6.42l-1.141-.193a6.44,6.44,0,0,0-.458-1.107l.672-.94a1,1,0,0,0-.109-1.293L13.371,1.875a1,1,0,0,0-.709-.3.986.986,0,0,0-.58.187l-.944.672A6.373,6.373,0,0,0,9.99,1.966L9.8.839A1,1,0,0,0,8.809,0H7.38a1,1,0,0,0-.991.838l-.2,1.154a6.282,6.282,0,0,0-1.1.465l-.934-.672A1,1,0,0,0,2.862,1.9L1.847,2.907A1,1,0,0,0,1.738,4.2l.679.954a6.291,6.291,0,0,0-.451,1.11l-1.127.19A1,1,0,0,0,0,7.445V8.874a1,1,0,0,0,.838.991l1.154.2a6.282,6.282,0,0,0,.465,1.1l-.669.93A1,1,0,0,0,1.9,13.389L2.909,14.4a1,1,0,0,0,.709.3.986.986,0,0,0,.58-.187l.954-.679a6.422,6.422,0,0,0,1.073.441l.19,1.141a1,1,0,0,0,.991.838H8.84a1,1,0,0,0,.991-.838l.193-1.141a6.44,6.44,0,0,0,1.107-.458l.94.672a1,1,0,0,0,.584.187h0a1,1,0,0,0,.709-.3l1.012-1.012a1,1,0,0,0,.109-1.293l-.672-.944a6.394,6.394,0,0,0,.458-1.107l1.141-.19a1,1,0,0,0,.838-.991V7.411A.991.991,0,0,0,15.418,6.42Zm-.078,2.42a.088.088,0,0,1-.075.088l-1.426.238a.456.456,0,0,0-.367.336,5.434,5.434,0,0,1-.591,1.422.459.459,0,0,0,.02.5l.838,1.181a.092.092,0,0,1-.01.115L12.72,13.732a.086.086,0,0,1-.064.027.083.083,0,0,1-.051-.017L11.426,12.9a.459.459,0,0,0-.5-.02,5.434,5.434,0,0,1-1.422.591.451.451,0,0,0-.336.367l-.241,1.426a.088.088,0,0,1-.088.075H7.41a.088.088,0,0,1-.088-.075l-.238-1.426a.456.456,0,0,0-.336-.367,5.643,5.643,0,0,1-1.392-.57.47.47,0,0,0-.231-.061.447.447,0,0,0-.265.085l-1.188.845a.1.1,0,0,1-.051.017.091.091,0,0,1-.064-.027L2.546,12.751a.092.092,0,0,1-.01-.115l.835-1.171a.465.465,0,0,0,.02-.5,5.383,5.383,0,0,1-.6-1.419.465.465,0,0,0-.367-.336L.991,8.963a.088.088,0,0,1-.075-.088V7.445a.088.088,0,0,1,.075-.088l1.416-.238a.459.459,0,0,0,.37-.339,5.429,5.429,0,0,1,.58-1.426.453.453,0,0,0-.024-.5L2.488,3.671a.092.092,0,0,1,.01-.115L3.51,2.544a.086.086,0,0,1,.064-.027.083.083,0,0,1,.051.017L4.8,3.368a.465.465,0,0,0,.5.02,5.383,5.383,0,0,1,1.419-.6.465.465,0,0,0,.336-.367L7.3.989A.088.088,0,0,1,7.387.914H8.816A.088.088,0,0,1,8.9.989L9.142,2.4a.459.459,0,0,0,.339.37,5.51,5.51,0,0,1,1.456.6.459.459,0,0,0,.5-.02l1.171-.842a.1.1,0,0,1,.051-.017.091.091,0,0,1,.064.027l1.012,1.012a.092.092,0,0,1,.01.115l-.838,1.178a.459.459,0,0,0-.02.5,5.434,5.434,0,0,1,.591,1.422.451.451,0,0,0,.367.336l1.426.241a.088.088,0,0,1,.075.088V8.841Z" transform="translate(0 -0.001)" fill="#7a8184"/>
        <path id="Path_8" data-name="Path 8" d="M139.607,136a3.507,3.507,0,1,0,3.507,3.507A3.509,3.509,0,0,0,139.607,136Zm0,6.1a2.59,2.59,0,1,1,2.59-2.59A2.592,2.592,0,0,1,139.607,142.1Z" transform="translate(-131.48 -131.384)" fill="#7a8184"/>
      </g>
    </g>
    <g id="down-arrow" transform="translate(-37.726 -207.016)">
      <path id="Path_9-2" data-name="Path 9" d="M90.818,393.187a.534.534,0,0,0-.783,0l-6.884,7.279-6.9-7.279a.534.534,0,0,0-.783,0,.608.608,0,0,0,0,.826l7.276,7.678a.527.527,0,0,0,.391.171.549.549,0,0,0,.391-.171l7.276-7.678A.6.6,0,0,0,90.818,393.187Z" transform="translate(-2 0)" fill="#7a8184"/>
    </g>
    <g id="delete" transform="translate(68.003 181.002)">
      <path id="Path_37" data-name="Path 37" d="M222.821,154.7c-.234,0-.423.143-.423.318v6.019c0,.176.189.318.423.318s.423-.143.423-.318v-6.019C223.244,154.846,223.055,154.7,222.821,154.7Zm0,0" transform="translate(-212.989 -147.247)" fill="#7b8285"/>
      <path id="Path_38" data-name="Path 38" d="M104.821,154.7c-.234,0-.423.143-.423.318v6.019c0,.176.189.318.423.318s.423-.143.423-.318v-6.019C105.244,154.846,105.055,154.7,104.821,154.7Zm0,0" transform="translate(-99.983 -147.247)" fill="#7b8285"/>
      <path id="Path_39" data-name="Path 39" d="M1.2,5.378v8.606a2.335,2.335,0,0,0,.621,1.61,2.084,2.084,0,0,0,1.512.654h8.007a2.084,2.084,0,0,0,1.512-.654,2.335,2.335,0,0,0,.621-1.61V5.378A1.617,1.617,0,0,0,13.057,2.2H10.89V1.67A1.662,1.662,0,0,0,9.214,0H5.456A1.662,1.662,0,0,0,3.78,1.67V2.2H1.613A1.617,1.617,0,0,0,1.2,5.378ZM11.339,15.4H3.332a1.34,1.34,0,0,1-1.286-1.418V5.416h10.58v8.569A1.34,1.34,0,0,1,11.339,15.4ZM4.627,1.67a.815.815,0,0,1,.83-.825H9.214a.815.815,0,0,1,.83.825V2.2H4.627ZM1.613,3.046H13.057a.762.762,0,0,1,0,1.524H1.613a.762.762,0,0,1,0-1.524Zm0,0" transform="translate(0 0)" fill="#7b8285"/>
      <path id="Path_40" data-name="Path 40" d="M163.821,154.7c-.234,0-.423.143-.423.318v6.019c0,.176.189.318.423.318s.423-.143.423-.318v-6.019C164.244,154.846,164.055,154.7,163.821,154.7Zm0,0" transform="translate(-156.486 -147.247)" fill="#7b8285"/>
    </g>
    <path id="Shape_655_copy_5" data-name="Shape 655 copy 5" d="M1283,160h8l-4,5Z" transform="translate(-1275 43)" fill="#949a9c"/>
    <path id="Path_110" data-name="Path 110" d="M10.3-4.658H6.75v3.542H5.581V-4.658H2.039V-5.836H5.581V-9.378H6.75v3.542H10.3Z" transform="translate(28 211)" fill="#60696d"/>
  </g>
</svg>
