<svg id="icon" xmlns="http://www.w3.org/2000/svg" width="181" height="122" viewBox="0 0 181 122">
  <defs>
    <style>
      .cls-1, .cls-3 {
        fill: #eef3fe;
      }

      .cls-1, .cls-2, .cls-4, .cls-5 {
        fill-rule: evenodd;
      }

      .cls-2 {
        fill: #fff;
      }

      .cls-2, .cls-3 {
        stroke: #e3e3e3;
        stroke-linejoin: round;
        stroke-width: 1px;
      }

      .cls-4 {
        fill: #3c3c3c;
      }

      .cls-5 {
        fill: #3be2a9;
      }
    </style>
  </defs>
  <path class="cls-1" d="M20,68.019c0.518-12.348,3.106-22.638,28.987-30.87S82.739,25.287,95.68,17.569c10.426-6.394,42.473-5.832,57.974,15.435,10.784,14.8,10.007,34.037-2.07,47.334-10.26,11.3-31.5,20.432-52.8,24.7-21.692,4.344-37.893,1.057-53.939-5.117S19.655,82.768,20,68.019Z"/>
  <g id="Categories">
    <g id="graph">
      <path class="cls-2" d="M61,100V24c0-3.449,2.251-5,5-5h69c-0.761,1.212-2,2.333-2,4V98c0,3.222-1.468,6-6,6H65A3.731,3.731,0,0,1,61,100Z"/>
      <path id="Shape_706_copy" data-name="Shape 706 copy" class="cls-2" d="M138,19h-0.27C135.3,19,133,20.576,133,23v6h9V23C142.152,20.576,140.433,19,138,19Z"/>
    </g>
    <g id="Graph_copy" data-name="Graph copy">
      <g id="tick-1">
        <rect id="Rounded_Rectangle_601" data-name="Rounded Rectangle 601" class="cls-3" x="68" y="43" width="12" height="12" rx="1" ry="1"/>
        <path id="Furniture" class="cls-4" d="M85,50.889h0.764V47.841h2.559V47.12H85.765V44.793h2.743V44.072H85v6.817Zm4.611-4.87v2.941a4.3,4.3,0,0,0,.1,1,1.593,1.593,0,0,0,.285.628,0.99,0.99,0,0,0,.469.326,2.072,2.072,0,0,0,.649.093,1.544,1.544,0,0,0,.911-0.253,1.9,1.9,0,0,0,.571-0.633H92.64l0.184,0.769h0.506a5.067,5.067,0,0,1-.078-0.657q-0.023-.375-0.023-0.726V46.02H92.493v3.253a2.1,2.1,0,0,1-.189.4,1.654,1.654,0,0,1-.267.336,1.141,1.141,0,0,1-.345.229,1.111,1.111,0,0,1-.442.083,0.9,0.9,0,0,1-.442-0.1,0.691,0.691,0,0,1-.276-0.287,1.457,1.457,0,0,1-.143-0.477,4.731,4.731,0,0,1-.041-0.667V46.02H89.612Zm7.363,0a2.149,2.149,0,0,0-.6-0.1,1.018,1.018,0,0,0-.621.18,1.48,1.48,0,0,0-.419.511H95.3l-0.138-.594H94.647v4.87h0.736V47.481a1.016,1.016,0,0,1,.285-0.579,0.848,0.848,0,0,1,.626-0.229,1.581,1.581,0,0,1,.525.1Zm4.492,4.87V47.948a4.316,4.316,0,0,0-.1-1,1.613,1.613,0,0,0-.285-0.628A0.992,0.992,0,0,0,100.611,46a2.159,2.159,0,0,0-.663-0.093,1.857,1.857,0,0,0-.888.2,1.691,1.691,0,0,0-.594.511H98.429l-0.138-.594H97.776v4.87h0.736V47.558a1.485,1.485,0,0,1,.446-0.7,1.179,1.179,0,0,1,.805-0.278,0.784,0.784,0,0,1,.759.385,2.485,2.485,0,0,1,.207,1.144v2.776h0.737Zm1.5,0H103.7V46.02h-0.736v4.87Zm-0.014-5.98a0.485,0.485,0,0,0,.363.146,0.535,0.535,0,0,0,.378-0.146,0.485,0.485,0,0,0,.156-0.37,0.533,0.533,0,0,0-.156-0.385,0.509,0.509,0,0,0-.378-0.161,0.463,0.463,0,0,0-.363.161,0.561,0.561,0,0,0-.143.385A0.509,0.509,0,0,0,102.953,44.909Zm1.716,1.792h0.718v2.844a2.068,2.068,0,0,0,.23,1.125,0.892,0.892,0,0,0,.792.336,2.481,2.481,0,0,0,.635-0.078,2.732,2.732,0,0,0,.543-0.2l-0.166-.594c-0.135.059-.257,0.106-0.368,0.141a1.325,1.325,0,0,1-.405.053,0.429,0.429,0,0,1-.405-0.209,1.542,1.542,0,0,1-.119-0.716V46.7h1.251V46.02h-1.251V44.831l-0.737.224V46.02h-0.718V46.7Zm3.654-.682v2.941a4.261,4.261,0,0,0,.1,1,1.585,1.585,0,0,0,.285.628,0.989,0.989,0,0,0,.47.326,2.068,2.068,0,0,0,.648.093,1.546,1.546,0,0,0,.912-0.253,1.894,1.894,0,0,0,.57-0.633h0.046l0.184,0.769h0.506a5.366,5.366,0,0,1-.078-0.657q-0.023-.375-0.023-0.726V46.02H111.2v3.253a2.063,2.063,0,0,1-.189.4,1.634,1.634,0,0,1-.267.336,1.136,1.136,0,0,1-.345.229,1.111,1.111,0,0,1-.442.083,0.894,0.894,0,0,1-.441-0.1,0.685,0.685,0,0,1-.276-0.287,1.431,1.431,0,0,1-.143-0.477,4.664,4.664,0,0,1-.042-0.667V46.02h-0.736Zm7.363,0a2.147,2.147,0,0,0-.6-0.1,1.015,1.015,0,0,0-.621.18,1.471,1.471,0,0,0-.419.511h-0.037l-0.138-.594h-0.515v4.87h0.736V47.481a1.019,1.019,0,0,1,.285-0.579,0.848,0.848,0,0,1,.626-0.229,1.581,1.581,0,0,1,.525.1Zm3.884,3.915a1.312,1.312,0,0,1-.469.273,1.781,1.781,0,0,1-.626.117,1.722,1.722,0,0,1-.686-0.122,1.119,1.119,0,0,1-.455-0.351,1.506,1.506,0,0,1-.258-0.56,3.154,3.154,0,0,1-.083-0.76h2.954A5.08,5.08,0,0,0,120,47.821a2.612,2.612,0,0,0-.157-0.989,1.454,1.454,0,0,0-.405-0.579,1.355,1.355,0,0,0-.561-0.278,2.753,2.753,0,0,0-.626-0.073,1.812,1.812,0,0,0-1.5.653,2.972,2.972,0,0,0-.525,1.9,4.236,4.236,0,0,0,.12,1.052,2.27,2.27,0,0,0,.368.8,1.636,1.636,0,0,0,.635.516,2.14,2.14,0,0,0,.911.18,2.849,2.849,0,0,0,.888-0.136,2.04,2.04,0,0,0,.7-0.37Zm-0.552-3.053a1.559,1.559,0,0,1,.267,1.037H117a1.556,1.556,0,0,1,.391-1.032,1.232,1.232,0,0,1,.87-0.3A0.964,0.964,0,0,1,119.018,46.882Z"/>
      </g>
      <g id="tick-2">
        <rect id="Rounded_Rectangle_601-2" data-name="Rounded Rectangle 601" class="cls-3" x="68" y="60" width="12" height="12" rx="1" ry="1"/>
        <path id="Electronics" class="cls-4" d="M85,67.872h3.563V67.155h-2.8V64.741h2.52V64.024h-2.52V61.8h2.751V61.087H85v6.785Zm5.7-6.785H89.958V66.9a1.1,1.1,0,0,0,.268.838,0.968,0.968,0,0,0,.683.247,2.578,2.578,0,0,0,.457-0.048,1.484,1.484,0,0,0,.411-0.126L91.693,67.2a1.432,1.432,0,0,1-.314.087,1.861,1.861,0,0,1-.258.019,0.371,0.371,0,0,1-.314-0.145A0.815,0.815,0,0,1,90.7,66.68V61.087Zm4.966,5.835a1.32,1.32,0,0,1-.471.271,1.8,1.8,0,0,1-.628.116,1.735,1.735,0,0,1-.688-0.121,1.125,1.125,0,0,1-.457-0.349,1.5,1.5,0,0,1-.258-0.557,3.1,3.1,0,0,1-.083-0.756h2.963a5.041,5.041,0,0,0,.055-0.707,2.576,2.576,0,0,0-.157-0.984,1.455,1.455,0,0,0-.406-0.577,1.366,1.366,0,0,0-.563-0.276,2.772,2.772,0,0,0-.628-0.073,1.825,1.825,0,0,0-1.5.649,2.942,2.942,0,0,0-.526,1.89,4.2,4.2,0,0,0,.12,1.047,2.268,2.268,0,0,0,.369.8,1.636,1.636,0,0,0,.637.514,2.16,2.16,0,0,0,.914.179,2.882,2.882,0,0,0,.891-0.136,2.051,2.051,0,0,0,.7-0.368Zm-0.554-3.039a1.543,1.543,0,0,1,.268,1.032H93.087a1.542,1.542,0,0,1,.392-1.027,1.241,1.241,0,0,1,.872-0.3A0.969,0.969,0,0,1,95.109,63.884Zm4.957,3.077a1.674,1.674,0,0,1-.43.242,1.573,1.573,0,0,1-.6.107,1.262,1.262,0,0,1-.651-0.155,1.233,1.233,0,0,1-.425-0.412,1.774,1.774,0,0,1-.231-0.591,3.463,3.463,0,0,1-.069-0.7q0-1.861,1.311-1.861a2.041,2.041,0,0,1,.554.073,1.962,1.962,0,0,1,.471.2l0.212-.669a2.221,2.221,0,0,0-.558-0.208A3.337,3.337,0,0,0,98.9,62.91a1.783,1.783,0,0,0-1.486.654,2.984,2.984,0,0,0-.517,1.885,4.734,4.734,0,0,0,.106,1.042,2.236,2.236,0,0,0,.341.8,1.56,1.56,0,0,0,.6.514,2.06,2.06,0,0,0,.9.179,2.8,2.8,0,0,0,.794-0.111,1.981,1.981,0,0,0,.656-0.325Zm0.646-3.257h0.72v2.83a2.04,2.04,0,0,0,.231,1.12,0.893,0.893,0,0,0,.793.334,2.5,2.5,0,0,0,.637-0.078,2.745,2.745,0,0,0,.545-0.2l-0.166-.591q-0.2.087-.369,0.141a1.347,1.347,0,0,1-.407.053,0.431,0.431,0,0,1-.406-0.208,1.526,1.526,0,0,1-.12-0.712V63.7h1.256V63.026H102.17V61.843l-0.738.223v0.96h-0.72V63.7Zm6.074-.678a2.175,2.175,0,0,0-.6-0.1,1.027,1.027,0,0,0-.623.179,1.478,1.478,0,0,0-.42.509h-0.037l-0.138-.591H104.45v4.846h0.739V64.48a1,1,0,0,1,.286-0.577,0.853,0.853,0,0,1,.627-0.228,1.6,1.6,0,0,1,.527.1Zm0.664,3.465a2.27,2.27,0,0,0,.369.8,1.641,1.641,0,0,0,.633.514,2.1,2.1,0,0,0,.9.179,1.806,1.806,0,0,0,1.5-.654,2.969,2.969,0,0,0,.521-1.885,4.214,4.214,0,0,0-.12-1.042,2.272,2.272,0,0,0-.369-0.8,1.648,1.648,0,0,0-.632-0.514,2.109,2.109,0,0,0-.9-0.179,1.8,1.8,0,0,0-1.5.654,2.963,2.963,0,0,0-.522,1.885A4.211,4.211,0,0,0,107.45,66.491Zm1.9-2.9a1.075,1.075,0,0,1,.581.15,1.162,1.162,0,0,1,.388.4,1.931,1.931,0,0,1,.217.591,3.6,3.6,0,0,1,.069.717q0,1.871-1.255,1.861a1.05,1.05,0,0,1-.582-0.155,1.2,1.2,0,0,1-.388-0.407,1.953,1.953,0,0,1-.217-0.591,3.541,3.541,0,0,1-.069-0.707q0-1.87,1.256-1.861h0Zm6.886,4.284V64.945a4.275,4.275,0,0,0-.1-0.993,1.588,1.588,0,0,0-.286-0.625A1,1,0,0,0,115.379,63a2.17,2.17,0,0,0-.664-0.092,1.873,1.873,0,0,0-.891.2,1.687,1.687,0,0,0-.595.509h-0.037l-0.139-.591h-0.517v4.846h0.739V64.557a1.476,1.476,0,0,1,.447-0.693,1.19,1.19,0,0,1,.808-0.276,0.79,0.79,0,0,1,.762.383,2.462,2.462,0,0,1,.207,1.139v2.762h0.739Zm1.5,0h0.739V63.026h-0.739v4.846Zm-0.014-5.951a0.491,0.491,0,0,0,.365.145,0.539,0.539,0,0,0,.379-0.145,0.483,0.483,0,0,0,.157-0.368,0.53,0.53,0,0,0-.157-0.383,0.512,0.512,0,0,0-.379-0.16,0.469,0.469,0,0,0-.365.16,0.556,0.556,0,0,0-.143.383A0.5,0.5,0,0,0,117.728,61.921Zm5.239,5.04a1.674,1.674,0,0,1-.429.242,1.577,1.577,0,0,1-.6.107,1.266,1.266,0,0,1-.651-0.155,1.229,1.229,0,0,1-.424-0.412,1.766,1.766,0,0,1-.231-0.591,3.471,3.471,0,0,1-.069-0.7q0-1.861,1.311-1.861a2.032,2.032,0,0,1,.553.073,1.941,1.941,0,0,1,.471.2l0.213-.669a2.244,2.244,0,0,0-.559-0.208,3.335,3.335,0,0,0-.752-0.073,1.782,1.782,0,0,0-1.486.654,2.982,2.982,0,0,0-.517,1.885,4.722,4.722,0,0,0,.106,1.042,2.239,2.239,0,0,0,.341.8,1.563,1.563,0,0,0,.6.514,2.061,2.061,0,0,0,.905.179,2.8,2.8,0,0,0,.794-0.111,1.98,1.98,0,0,0,.655-0.325Zm3.027,0.184a1.194,1.194,0,0,1-.655.165,2.3,2.3,0,0,1-.692-0.107,2.626,2.626,0,0,1-.554-0.233l-0.222.659a2.76,2.76,0,0,0,.619.252,3.257,3.257,0,0,0,.9.107,2.027,2.027,0,0,0,.706-0.111,1.441,1.441,0,0,0,.5-0.305,1.17,1.17,0,0,0,.3-0.465,1.706,1.706,0,0,0,.1-0.582,1.312,1.312,0,0,0-.166-0.7,1.532,1.532,0,0,0-.411-0.441,2.25,2.25,0,0,0-.535-0.281q-0.291-.106-0.535-0.218a1.772,1.772,0,0,1-.411-0.252,0.485,0.485,0,0,1-.166-0.393,0.6,0.6,0,0,1,.189-0.5,0.98,0.98,0,0,1,.595-0.145,2.421,2.421,0,0,1,.642.082,2.8,2.8,0,0,1,.512.189l0.176-.64A3.164,3.164,0,0,0,126.294,63a3.216,3.216,0,0,0-.835-0.092,1.565,1.565,0,0,0-1.052.325,1.274,1.274,0,0,0-.379,1.023,1.224,1.224,0,0,0,.166.678,1.421,1.421,0,0,0,.411.412,2.46,2.46,0,0,0,.536.262c0.193,0.068.372,0.139,0.535,0.213a1.411,1.411,0,0,1,.411.276,0.612,0.612,0,0,1,.166.456A0.645,0.645,0,0,1,125.994,67.145Z"/>
      </g>
      <g id="tick-3">
        <rect id="Rounded_Rectangle_601-3" data-name="Rounded Rectangle 601" class="cls-3" x="68" y="77" width="12" height="12" rx="1" ry="1"/>
        <path id="Cell_Phone" data-name="Cell Phone" class="cls-4" d="M89.167,84.978a1.918,1.918,0,0,1-.516.223,2.633,2.633,0,0,1-.717.087,2.039,2.039,0,0,1-.845-0.174,1.855,1.855,0,0,1-.676-0.523,2.558,2.558,0,0,1-.452-0.872A4.077,4.077,0,0,1,85.8,82.5a4.258,4.258,0,0,1,.174-1.307,2.442,2.442,0,0,1,.461-0.862,1.7,1.7,0,0,1,.653-0.474,1.988,1.988,0,0,1,.74-0.145,2.724,2.724,0,0,1,1.252.232l0.183-.716a2.751,2.751,0,0,0-.594-0.169,5.193,5.193,0,0,0-.9-0.063,2.731,2.731,0,0,0-1.005.194,2.454,2.454,0,0,0-.891.615,3.111,3.111,0,0,0-.639,1.084,4.724,4.724,0,0,0-.242,1.612,5.031,5.031,0,0,0,.219,1.574,3.1,3.1,0,0,0,.594,1.089,2.358,2.358,0,0,0,.877.634A2.788,2.788,0,0,0,87.76,86a4.4,4.4,0,0,0,.9-0.087,1.594,1.594,0,0,0,.694-0.31Zm3.974-.039a1.3,1.3,0,0,1-.466.271,1.762,1.762,0,0,1-.621.116,1.7,1.7,0,0,1-.681-0.121,1.114,1.114,0,0,1-.452-0.349,1.507,1.507,0,0,1-.256-0.557,3.125,3.125,0,0,1-.082-0.755h2.933a5.069,5.069,0,0,0,.055-0.707,2.6,2.6,0,0,0-.155-0.983,1.453,1.453,0,0,0-.4-0.576A1.348,1.348,0,0,0,92.456,81a2.722,2.722,0,0,0-.621-0.073,1.8,1.8,0,0,0-1.489.649,2.96,2.96,0,0,0-.521,1.888,4.229,4.229,0,0,0,.119,1.046,2.278,2.278,0,0,0,.365.8,1.625,1.625,0,0,0,.63.513,2.12,2.12,0,0,0,.9.179,2.83,2.83,0,0,0,.882-0.135,2.025,2.025,0,0,0,.69-0.368ZM92.593,81.9a1.552,1.552,0,0,1,.265,1.031H90.593a1.548,1.548,0,0,1,.388-1.026,1.221,1.221,0,0,1,.863-0.3A0.955,0.955,0,0,1,92.593,81.9Zm2.942-2.793H94.8v5.81a1.107,1.107,0,0,0,.265.838,0.952,0.952,0,0,0,.676.247,2.527,2.527,0,0,0,.452-0.048A1.459,1.459,0,0,0,96.6,85.83l-0.082-.61a1.407,1.407,0,0,1-.311.087,1.807,1.807,0,0,1-.256.019,0.366,0.366,0,0,1-.311-0.145,0.82,0.82,0,0,1-.11-0.484V79.11Zm2.668,0H97.472v5.81a1.107,1.107,0,0,0,.265.838,0.952,0.952,0,0,0,.676.247,2.528,2.528,0,0,0,.452-0.048,1.459,1.459,0,0,0,.407-0.126l-0.082-.61a1.407,1.407,0,0,1-.311.087,1.807,1.807,0,0,1-.256.019,0.366,0.366,0,0,1-.311-0.145A0.82,0.82,0,0,1,98.2,84.7V79.11Zm4.367,6.778h0.758V83.312a1.45,1.45,0,0,0,.155.019c0.074,0.007.148,0.011,0.224,0.014s0.149,0,.22,0h0.15A3.654,3.654,0,0,0,105,83.235a2.205,2.205,0,0,0,.8-0.382,1.936,1.936,0,0,0,.557-0.692,2.351,2.351,0,0,0,.21-1.046,2.124,2.124,0,0,0-.224-1.036,1.75,1.75,0,0,0-.58-0.639,2.235,2.235,0,0,0-.79-0.32,4.328,4.328,0,0,0-.854-0.087q-0.393,0-.8.029a4.365,4.365,0,0,0-.749.116v6.71Zm2.147-6.091a1.528,1.528,0,0,1,.525.228,1.185,1.185,0,0,1,.375.426,1.407,1.407,0,0,1,.141.663,1.709,1.709,0,0,1-.15.765,1.181,1.181,0,0,1-.4.465,1.542,1.542,0,0,1-.553.228,3.037,3.037,0,0,1-.616.063H103.9c-0.068,0-.137,0-0.211,0l-0.21-.01a0.459,0.459,0,0,1-.146-0.024V79.788a1.473,1.473,0,0,1,.347-0.049c0.146-.006.3-0.01,0.457-0.01A2.594,2.594,0,0,1,104.717,79.8Zm6.55,6.091V82.964a4.775,4.775,0,0,0-.086-0.993,1.5,1.5,0,0,0-.275-0.625,0.977,0.977,0,0,0-.47-0.324,2.17,2.17,0,0,0-.667-0.092,1.731,1.731,0,0,0-.827.179,1.821,1.821,0,0,0-.571.479h-0.036V79.11H107.6v6.778h0.731V82.664a1.342,1.342,0,0,1,.447-0.76,1.171,1.171,0,0,1,.777-0.3,1.067,1.067,0,0,1,.489.1,0.727,0.727,0,0,1,.3.286,1.31,1.31,0,0,1,.15.475,4.625,4.625,0,0,1,.041.663v2.76h0.731Zm1.2-1.38a2.264,2.264,0,0,0,.366.8,1.632,1.632,0,0,0,.625.513,2.068,2.068,0,0,0,.891.179,1.78,1.78,0,0,0,1.485-.654,2.983,2.983,0,0,0,.516-1.883,4.254,4.254,0,0,0-.119-1.041,2.281,2.281,0,0,0-.365-0.8,1.636,1.636,0,0,0-.626-0.513,2.068,2.068,0,0,0-.891-0.179,1.78,1.78,0,0,0-1.484.654,2.977,2.977,0,0,0-.517,1.883A4.253,4.253,0,0,0,112.464,84.508Zm1.882-2.9a1.06,1.06,0,0,1,.576.15,1.148,1.148,0,0,1,.383.4,1.9,1.9,0,0,1,.215.591,3.588,3.588,0,0,1,.069.717q0,1.869-1.243,1.859a1.029,1.029,0,0,1-.575-0.155,1.182,1.182,0,0,1-.384-0.407,1.924,1.924,0,0,1-.215-0.591,3.609,3.609,0,0,1-.068-0.707q0-1.869,1.242-1.859h0Zm6.816,4.28V82.964a4.273,4.273,0,0,0-.1-0.993,1.6,1.6,0,0,0-.283-0.625,0.984,0.984,0,0,0-.471-0.324,2.136,2.136,0,0,0-.658-0.092,1.837,1.837,0,0,0-.881.2,1.687,1.687,0,0,0-.59.508h-0.036l-0.137-.591H117.5v4.842h0.731V82.577a1.476,1.476,0,0,1,.443-0.692,1.17,1.17,0,0,1,.8-0.276,0.778,0.778,0,0,1,.753.382,2.473,2.473,0,0,1,.206,1.138v2.76h0.731Zm4.394-.949a1.3,1.3,0,0,1-.466.271,1.76,1.76,0,0,1-.621.116,1.707,1.707,0,0,1-.681-0.121,1.116,1.116,0,0,1-.452-0.349,1.507,1.507,0,0,1-.256-0.557A3.121,3.121,0,0,1,123,83.545h2.933a5.165,5.165,0,0,0,.055-0.707,2.585,2.585,0,0,0-.156-0.983,1.442,1.442,0,0,0-.4-0.576A1.344,1.344,0,0,0,124.871,81a2.72,2.72,0,0,0-.621-0.073,1.8,1.8,0,0,0-1.49.649,2.961,2.961,0,0,0-.52,1.888,4.191,4.191,0,0,0,.119,1.046,2.283,2.283,0,0,0,.365.8,1.626,1.626,0,0,0,.63.513,2.124,2.124,0,0,0,.905.179,2.826,2.826,0,0,0,.881-0.135,2.011,2.011,0,0,0,.69-0.368ZM125.008,81.9a1.55,1.55,0,0,1,.265,1.031h-2.266a1.552,1.552,0,0,1,.388-1.026,1.223,1.223,0,0,1,.864-0.3A0.954,0.954,0,0,1,125.008,81.9Z"/>
      </g>
      <path id="Categories-2" data-name="Categories" class="cls-4" d="M72.573,33.012a2.207,2.207,0,0,1-.567.224,3.139,3.139,0,0,1-.788.088,2.416,2.416,0,0,1-.929-0.175,2.028,2.028,0,0,1-.743-0.527,2.511,2.511,0,0,1-.5-0.878,3.79,3.79,0,0,1-.181-1.229A3.961,3.961,0,0,1,69.06,29.2a2.408,2.408,0,0,1,.507-0.868,1.871,1.871,0,0,1,.718-0.478,2.359,2.359,0,0,1,.813-0.146,3.229,3.229,0,0,1,1.375.234l0.2-.722a3.234,3.234,0,0,0-.652-0.171,6.215,6.215,0,0,0-.984-0.063,3.239,3.239,0,0,0-1.1.2,2.712,2.712,0,0,0-.979.619,3.089,3.089,0,0,0-.7,1.092,4.4,4.4,0,0,0-.266,1.624,4.678,4.678,0,0,0,.241,1.585,3.056,3.056,0,0,0,.653,1.1,2.6,2.6,0,0,0,.964.639,3.31,3.31,0,0,0,1.185.21,5.267,5.267,0,0,0,.984-0.088,1.832,1.832,0,0,0,.763-0.312Zm1.355-3a1.979,1.979,0,0,1,.326-0.145,3.366,3.366,0,0,1,.392-0.11q0.206-.045.4-0.07a2.9,2.9,0,0,1,.366-0.025,1.154,1.154,0,0,1,.8.215,1.028,1.028,0,0,1,.221.751,5.184,5.184,0,0,1-.03.527,2.024,2.024,0,0,0-.276-0.02H75.856a6.4,6.4,0,0,0-1.009.073,2.558,2.558,0,0,0-.783.244,1.289,1.289,0,0,0-.507.458,1.324,1.324,0,0,0-.181.717,1.373,1.373,0,0,0,.115.575,1.3,1.3,0,0,0,.316.434,1.4,1.4,0,0,0,.477.278,1.783,1.783,0,0,0,.6.1,2.189,2.189,0,0,0,.572-0.068,2.091,2.091,0,0,0,.442-0.171,1.448,1.448,0,0,0,.326-0.234,1.628,1.628,0,0,0,.226-0.268H76.5l0.211,0.683H77.3a3.141,3.141,0,0,1-.11-0.595q-0.03-.322-0.03-0.683,0-.5.03-1.053t0.03-1.141a2.567,2.567,0,0,0-.055-0.527,1.2,1.2,0,0,0-.221-0.483,1.165,1.165,0,0,0-.482-0.356,2.146,2.146,0,0,0-.838-0.137,5.11,5.11,0,0,0-1.059.107,2.949,2.949,0,0,0-.888.332Zm0.532,3.1a0.711,0.711,0,0,1-.251-0.561,0.607,0.607,0,0,1,.135-0.4,0.918,0.918,0,0,1,.361-0.254,1.976,1.976,0,0,1,.522-0.127,5.311,5.311,0,0,1,.607-0.034q0.14,0,.286,0t0.286,0.015v0.81a1.1,1.1,0,0,1-.156.263,1.2,1.2,0,0,1-.266.249,1.472,1.472,0,0,1-.381.185,1.6,1.6,0,0,1-.5.073A0.94,0.94,0,0,1,74.46,33.105Zm3.613-3.37h0.783v2.848a1.929,1.929,0,0,0,.251,1.127,1.009,1.009,0,0,0,.863.337,2.931,2.931,0,0,0,.693-0.078,3.135,3.135,0,0,0,.592-0.2l-0.181-.595q-0.221.088-.4,0.141a1.569,1.569,0,0,1-.442.054,0.478,0.478,0,0,1-.442-0.21,1.434,1.434,0,0,1-.131-0.717v-2.7h1.365V29.053H79.66v-1.19l-0.8.224v0.966H78.074v0.683Zm7.318,3.238a1.463,1.463,0,0,1-.512.273,2.094,2.094,0,0,1-.682.117,2.023,2.023,0,0,1-.748-0.122,1.215,1.215,0,0,1-.5-0.351,1.464,1.464,0,0,1-.281-0.561,2.9,2.9,0,0,1-.09-0.761H85.8a4.693,4.693,0,0,0,.06-0.712,2.419,2.419,0,0,0-.171-0.99,1.472,1.472,0,0,0-.442-0.58,1.537,1.537,0,0,0-.612-0.278,3.247,3.247,0,0,0-.683-0.073,2.059,2.059,0,0,0-1.636.653,2.805,2.805,0,0,0-.572,1.9,3.92,3.92,0,0,0,.13,1.053,2.21,2.21,0,0,0,.4.8,1.762,1.762,0,0,0,.693.517,2.512,2.512,0,0,0,.994.181,3.366,3.366,0,0,0,.969-0.137,2.293,2.293,0,0,0,.758-0.371Zm-0.6-3.058a1.47,1.47,0,0,1,.291,1.039H82.591a1.491,1.491,0,0,1,.427-1.034,1.418,1.418,0,0,1,.949-0.3A1.1,1.1,0,0,1,84.789,29.916Zm6.073-.658a5.57,5.57,0,0,0-.728-0.2,4.707,4.707,0,0,0-.979-0.088,2.368,2.368,0,0,0-1.807.649,2.664,2.664,0,0,0-.612,1.9,3.112,3.112,0,0,0,.477,1.912,1.768,1.768,0,0,0,1.491.614,1.87,1.87,0,0,0,.813-0.151,1.332,1.332,0,0,0,.512-0.434h0.04V33.92a2.949,2.949,0,0,1-.06.639,0.92,0.92,0,0,1-.221.439,0.9,0.9,0,0,1-.427.244,2.66,2.66,0,0,1-.688.073,2.821,2.821,0,0,1-.733-0.078q-0.281-.078-0.512-0.166l-0.211.663a2.957,2.957,0,0,0,.627.19,5.147,5.147,0,0,0,.969.073,2.278,2.278,0,0,0,1.531-.449,1.751,1.751,0,0,0,.517-1.395v-4.9Zm-2.61,3.96a1.081,1.081,0,0,1-.391-0.38,1.79,1.79,0,0,1-.221-0.585,3.727,3.727,0,0,1-.07-0.751,2.1,2.1,0,0,1,.391-1.4,1.351,1.351,0,0,1,1.074-.449,2.452,2.452,0,0,1,1.024.185v2.5a1.394,1.394,0,0,1-.412.775,1.2,1.2,0,0,1-.8.249A1.183,1.183,0,0,1,88.253,33.217Zm4-.678a2.207,2.207,0,0,0,.4.809,1.769,1.769,0,0,0,.688.517,2.447,2.447,0,0,0,.979.181,2.036,2.036,0,0,0,1.631-.658,2.826,2.826,0,0,0,.567-1.9,3.943,3.943,0,0,0-.13-1.049,2.211,2.211,0,0,0-.4-0.809,1.772,1.772,0,0,0-.688-0.517,2.448,2.448,0,0,0-.979-0.18,2.035,2.035,0,0,0-1.631.658,2.826,2.826,0,0,0-.567,1.9A3.933,3.933,0,0,0,92.258,32.539Zm2.068-2.921a1.242,1.242,0,0,1,.632.151,1.211,1.211,0,0,1,.422.4,1.851,1.851,0,0,1,.236.6,3.35,3.35,0,0,1,.075.722q0,1.882-1.365,1.873a1.21,1.21,0,0,1-.632-0.156,1.248,1.248,0,0,1-.422-0.41,1.843,1.843,0,0,1-.236-0.595,3.3,3.3,0,0,1-.075-0.712q0-1.882,1.365-1.873h0Zm6-.566a2.535,2.535,0,0,0-.653-0.1,1.182,1.182,0,0,0-.677.18,1.518,1.518,0,0,0-.457.512H98.5l-0.151-.595H97.788v4.877h0.8V30.516a0.989,0.989,0,0,1,.311-0.58,0.974,0.974,0,0,1,.683-0.229,1.858,1.858,0,0,1,.572.1Zm1.044,4.877h0.8V29.053h-0.8v4.877Zm-0.015-5.989a0.554,0.554,0,0,0,.4.146,0.612,0.612,0,0,0,.412-0.146,0.466,0.466,0,0,0,.17-0.371,0.51,0.51,0,0,0-.17-0.385,0.579,0.579,0,0,0-.412-0.161,0.526,0.526,0,0,0-.4.161,0.534,0.534,0,0,0-.156.385A0.486,0.486,0,0,0,101.357,27.941Zm5.9,5.033a1.469,1.469,0,0,1-.512.273,2.1,2.1,0,0,1-.683.117,2.02,2.02,0,0,1-.747-0.122,1.21,1.21,0,0,1-.5-0.351,1.464,1.464,0,0,1-.281-0.561,2.869,2.869,0,0,1-.091-0.761h3.222a4.6,4.6,0,0,0,.061-0.712,2.414,2.414,0,0,0-.171-0.99,1.471,1.471,0,0,0-.442-0.58,1.534,1.534,0,0,0-.612-0.278,3.241,3.241,0,0,0-.682-0.073,2.061,2.061,0,0,0-1.637.653,2.808,2.808,0,0,0-.572,1.9,3.924,3.924,0,0,0,.131,1.053,2.206,2.206,0,0,0,.4.8,1.766,1.766,0,0,0,.693.517,2.511,2.511,0,0,0,.994.181,3.36,3.36,0,0,0,.968-0.137,2.29,2.29,0,0,0,.758-0.371Zm-0.6-3.058a1.47,1.47,0,0,1,.291,1.039h-2.49a1.491,1.491,0,0,1,.427-1.034,1.418,1.418,0,0,1,.949-0.3A1.1,1.1,0,0,1,106.652,29.916Zm4.266,3.282a1.386,1.386,0,0,1-.713.166,2.7,2.7,0,0,1-.753-0.107,3.01,3.01,0,0,1-.6-0.234l-0.241.663a3.127,3.127,0,0,0,.673.254,3.813,3.813,0,0,0,.973.107,2.364,2.364,0,0,0,.768-0.112,1.592,1.592,0,0,0,.547-0.307,1.185,1.185,0,0,0,.326-0.468A1.6,1.6,0,0,0,112,32.574a1.241,1.241,0,0,0-.181-0.707,1.58,1.58,0,0,0-.447-0.444,2.516,2.516,0,0,0-.582-0.283q-0.316-.107-0.582-0.22a1.969,1.969,0,0,1-.447-0.254,0.474,0.474,0,0,1-.18-0.4,0.58,0.58,0,0,1,.2-0.507,1.134,1.134,0,0,1,.648-0.146,2.837,2.837,0,0,1,.7.083,3.227,3.227,0,0,1,.557.19l0.19-.644a3.58,3.58,0,0,0-.637-0.22,3.773,3.773,0,0,0-.908-0.093,1.8,1.8,0,0,0-1.145.327,1.235,1.235,0,0,0-.411,1.029,1.158,1.158,0,0,0,.18.683,1.5,1.5,0,0,0,.447.415,2.749,2.749,0,0,0,.582.263q0.316,0.1.582,0.215a1.524,1.524,0,0,1,.447.278,0.589,0.589,0,0,1,.181.458A0.633,0.633,0,0,1,110.918,33.2Z"/>
    </g>
    <path id="Forma_1" data-name="Forma 1" class="cls-5" d="M77.906,45.182L73.023,50.4,71.049,48.29a0.593,0.593,0,0,0-.878,0,0.7,0.7,0,0,0,0,.938l2.413,2.577a0.593,0.593,0,0,0,.878,0v0l5.32-5.684a0.7,0.7,0,0,0,0-.938A0.593,0.593,0,0,0,77.906,45.182Z"/>
    <path id="Forma_1_copy_14" data-name="Forma 1 copy 14" class="cls-5" d="M77.906,62.182L73.023,67.4,71.049,65.29a0.593,0.593,0,0,0-.878,0,0.7,0.7,0,0,0,0,.938l2.413,2.577a0.593,0.593,0,0,0,.878,0v0l5.32-5.684a0.7,0.7,0,0,0,0-.938A0.593,0.593,0,0,0,77.906,62.182Z"/>
  </g>
</svg>
