<svg id="icon" xmlns="http://www.w3.org/2000/svg" width="181" height="122" viewBox="0 0 181 122">
  <defs>
    <style>
      .cls-1, .cls-12 {
        fill: #eef3fe;
      }

      .cls-1, .cls-10, .cls-11, .cls-13, .cls-15, .cls-2, .cls-3, .cls-4, .cls-5, .cls-6, .cls-7, .cls-8, .cls-9 {
        fill-rule: evenodd;
      }

      .cls-2 {
        fill: #193151;
      }

      .cls-3 {
        fill: #fbe3c5;
      }

      .cls-5 {
        fill: #0a1c35;
      }

      .cls-6 {
        fill: #b5ccfa;
      }

      .cls-7 {
        fill: #747aea;
      }

      .cls-8 {
        fill: #fc9236;
      }

      .cls-9 {
        fill: #6066de;
      }

      .cls-10 {
        fill: #fff;
        stroke: #dfe4e5;
      }

      .cls-10, .cls-12 {
        stroke-linejoin: round;
        stroke-width: 1px;
      }

      .cls-11 {
        fill: #e7eaeb;
      }

      .cls-12 {
        stroke: #e3e3e3;
      }

      .cls-13, .cls-14 {
        fill: #3c3c3c;
      }

      .cls-14 {
        font-size: 9.414px;
        font-family: "PT Sans";
      }

      .cls-15 {
        fill: #3be2a9;
      }
    </style>
  </defs>
  <path class="cls-1" d="M20,70.019c0.518-12.348,3.106-22.638,28.987-30.87S82.739,27.287,95.68,19.569c10.426-6.394,42.473-5.832,57.974,15.435,10.784,14.8,10.007,34.037-2.07,47.334-10.26,11.3-31.5,20.432-52.8,24.7-21.692,4.344-37.893,1.057-53.939-5.117S19.655,84.768,20,70.019Z"/>
  <g id="illustrator">
    <path class="cls-2" d="M49.828,95.9a16.738,16.738,0,0,0-.944,2.457,6.329,6.329,0,0,1-1.878,2.391s-2.336,4.394,1.758,4.134c4.07-.259.221-0.009,0.221-0.009s1.67,1.008,4-2.715a13.753,13.753,0,0,0,.55-2.668c0.071-1.27.151-3.162,0.127-3.241A34.586,34.586,0,0,0,49.828,95.9Z"/>
    <path class="cls-3" d="M67,36.989s7.962,0.614,11.25-.024a8,8,0,0,0,4.61-3.443s4.262-5.188,5.029-6.5a2.344,2.344,0,0,0,2.046-.707c2.074-2.716-.3-3.148-0.3-3.148s-4.554.3-4.951,1.84c-0.514,1.987-4.394,4.838-6.394,6.484,0,0-6.367-.157-9.289-1.489C69,30,66.242,35.948,67,36.989Z"/>
    <path class="cls-2" d="M59.868,98.925s-0.349,3.1.534,3.377a3.023,3.023,0,0,0,2.271,1.307c0.37,0.524,5.527,2.17,7.334,1.183-0.062-.234,1.457-1.393.306-2.792,0,0-5.293-2.355-5.621-3.94Z"/>
    <g id="Group_10_copy" data-name="Group 10 copy">
      <path class="cls-3" d="M59.055,21.434a0.942,0.942,0,0,0,.909.981s-0.032,1.665.846,2.1a16.432,16.432,0,0,0,4.432,1.245,9.22,9.22,0,0,1-.532,1.957c1.362,3.506-4.073,2.509-7.35-.312a3.343,3.343,0,0,0,1.075-2.488C58.61,23.479,59.125,22.82,59.055,21.434Z"/>
      <g>
        <path class="cls-4" d="M58.524,24.58A5.752,5.752,0,0,1,58,22.441,9.758,9.758,0,0,1,59.169,18.9a2.167,2.167,0,0,1,1.228-.823,15.072,15.072,0,0,0,3.97-1.084s3.821-.9,4.3,2.08c0,0-2.253-2.586-4.374-1.252,0,0-1.145.5-1.825,3.228-0.082.265-.51,0.935-1.069-0.266,0,0-1.107-2.535-1.933-1.646C59.1,19.7,59.342,23.522,58.524,24.58Z"/>
        <path class="cls-3" d="M59.542,22.674a3.784,3.784,0,0,0,.846,2.084,9.246,9.246,0,0,0,3.3,1.567l1.825,0.592c0.265,0.1,1.581.561,1.642-.784a5.411,5.411,0,0,1,.725-2.124,3.638,3.638,0,0,0,.369-2.785,2.7,2.7,0,0,1,.458-1.523A1.234,1.234,0,0,0,68,18.381c-0.634-.5-4.075-3.2-5.642,2.7-0.609,1.815-2.022-4.614-3.274-1.251C58.862,21.854,58.919,22.449,59.542,22.674Z"/>
        <path class="cls-2" d="M68.159,17.77s-0.082-6.877-6.673-5.648A5.183,5.183,0,0,0,57.117,16.3c-0.729,2.8.955,6.033,0.955,6.033a11.655,11.655,0,0,1,1.55-3.81c0.119-.156.091-0.027,0.217-0.084a11.067,11.067,0,0,0,2.678-.685C64.241,17.342,66.169,16.239,68.159,17.77Z"/>
        <path class="cls-5" d="M71.741,15.963c-4.609-3.347-7.663.043-8.258,2,0.427-.45,3.751-1.576,5.109,1.218a26.788,26.788,0,0,1,3.249-1.72,0.736,0.736,0,0,0,.444-0.852A1.154,1.154,0,0,0,71.741,15.963Z"/>
      </g>
    </g>
    <path class="cls-6" d="M68,48c0,9.028-3,51-3,51H60c0-.222-0.9-16.887-0.9-16.887-0.057-1.662.043-14.721,0.043-14.721a2.286,2.286,0,0,0-.481-0.975,1.5,1.5,0,0,1-.983.261c0.051,1.022-2.419,16.033-2.419,16.033C55.217,85.1,54.013,98,54.013,98L49,98V55c0-2.3,1-11,1-11Z"/>
    <path class="cls-7" d="M74.313,32a18.386,18.386,0,0,0-5.058-3.131S66.4,28.693,65,27.5a2.845,2.845,0,0,1-2.258,1.528s-3.531.873-4.711-1.8l-2.466.735c-2.772.825-7.115,2.239-6.975,4.982C48.593,40.232,49,61,49,61l16.615-.016L68,61V37a35.16,35.16,0,0,0,4,1C72.688,37.011,72.866,32.091,74.313,32Z"/>
    <path class="cls-8" d="M57.366,57.015S56.62,53.4,59.521,54.1c0,0-.8,1.822-0.589,2.168s0.7,1.013.7,1.013a1.231,1.231,0,0,0,1.031.2,2.572,2.572,0,0,1,.955-0.342s-0.214,3.593-3.1,1.429l-0.025.021a0.971,0.971,0,0,1-.208.187L48.23,65.794a1,1,0,0,1-1.374-.265,0.965,0.965,0,0,1,.256-1.355l10.05-7.023a0.987,0.987,0,0,1,.177-0.094Z"/>
    <path class="cls-3" d="M54.313,40s-2.231,3.413-2,10a18.847,18.847,0,0,0,2,10s0.108-.443,0,1c0,0-.311,3.216-3,3-0.523-.853-0.484-2.078-1-3s-0.611-.465-0.8-1.129c-2.434-8.582-3.831-11.1-.478-20.991Z"/>
    <path class="cls-9" d="M48.167,40.69s5.293,0.8,5.949.589c-0.009-.031.866-4.487,1.2-6.279,1.664-6.783-6.719-6.547-7.332-1.723C47.981,33.277,47.92,40.285,48.167,40.69Z"/>
  </g>
  <g id="icon-2" data-name="icon">
    <path id="Forma_1" data-name="Forma 1" class="cls-10" d="M127,26H84a4.841,4.841,0,0,0-5,5V98a4.839,4.839,0,0,0,5,5h53a4.837,4.837,0,0,0,5-5V42Z"/>
    <path id="Forma_1_copy_8" data-name="Forma 1 copy 8" class="cls-11" d="M127,30l11,11H127V30Z"/>
    <g id="tick-1">
      <rect id="Rounded_Rectangle_601" data-name="Rounded Rectangle 601" class="cls-12" x="89" y="47" width="12" height="12" rx="1" ry="1"/>
      <path id="Cleaning" class="cls-13" d="M108.772,54.356a1.744,1.744,0,0,1-.467.2,2.4,2.4,0,0,1-.648.078,1.861,1.861,0,0,1-.763-0.156,1.68,1.68,0,0,1-.611-0.467,2.277,2.277,0,0,1-.408-0.778,3.6,3.6,0,0,1-.149-1.089,3.746,3.746,0,0,1,.157-1.167,2.156,2.156,0,0,1,.417-0.769,1.534,1.534,0,0,1,.59-0.423,1.815,1.815,0,0,1,.668-0.13,2.486,2.486,0,0,1,1.131.207l0.165-.639a2.493,2.493,0,0,0-.536-0.151,4.757,4.757,0,0,0-.809-0.056,2.493,2.493,0,0,0-.908.173,2.224,2.224,0,0,0-.8.549,2.779,2.779,0,0,0-.578.968A4.19,4.19,0,0,0,105,52.143a4.441,4.441,0,0,0,.2,1.4,2.766,2.766,0,0,0,.536.972,2.133,2.133,0,0,0,.793.566,2.544,2.544,0,0,0,.974.186,4.021,4.021,0,0,0,.808-0.078,1.452,1.452,0,0,0,.628-0.277Zm1.848-5.237h-0.66V54.3a0.983,0.983,0,0,0,.239.748,0.869,0.869,0,0,0,.611.22,2.316,2.316,0,0,0,.409-0.043,1.325,1.325,0,0,0,.367-0.112l-0.074-.544a1.286,1.286,0,0,1-.281.078,1.664,1.664,0,0,1-.231.017,0.333,0.333,0,0,1-.281-0.13,0.725,0.725,0,0,1-.1-0.432V49.119Zm4.441,5.2a1.185,1.185,0,0,1-.421.242,1.609,1.609,0,0,1-.561.1,1.552,1.552,0,0,1-.615-0.108,1.01,1.01,0,0,1-.409-0.311,1.355,1.355,0,0,1-.231-0.5,2.738,2.738,0,0,1-.074-0.674H115.4a4.486,4.486,0,0,0,.05-0.631,2.281,2.281,0,0,0-.141-0.877,1.287,1.287,0,0,0-.363-0.514,1.218,1.218,0,0,0-.5-0.246,2.494,2.494,0,0,0-.562-0.065,1.634,1.634,0,0,0-1.345.579,2.616,2.616,0,0,0-.47,1.685,3.711,3.711,0,0,0,.107.933,2.022,2.022,0,0,0,.33.713,1.468,1.468,0,0,0,.57.458,1.935,1.935,0,0,0,.817.16,2.582,2.582,0,0,0,.8-0.121,1.835,1.835,0,0,0,.623-0.328Zm-0.5-2.709a1.37,1.37,0,0,1,.24.92h-2.047a1.367,1.367,0,0,1,.351-0.916,1.11,1.11,0,0,1,.78-0.268A0.866,0.866,0,0,1,114.565,51.612Zm2.064,0.082a1.571,1.571,0,0,1,.268-0.129,2.625,2.625,0,0,1,.322-0.1q0.169-.04.33-0.062a2.211,2.211,0,0,1,.3-0.022,0.9,0.9,0,0,1,.661.19,0.958,0.958,0,0,1,.181.665c0,0.138-.008.294-0.025,0.467a1.529,1.529,0,0,0-.227-0.017h-0.226a4.895,4.895,0,0,0-.83.065,2,2,0,0,0-.644.216,1.093,1.093,0,0,0-.417.406,1.245,1.245,0,0,0-.148.635,1.287,1.287,0,0,0,.095.51,1.148,1.148,0,0,0,.26.385,1.128,1.128,0,0,0,.392.246,1.37,1.37,0,0,0,.491.086,1.673,1.673,0,0,0,.47-0.061,1.652,1.652,0,0,0,.364-0.151,1.223,1.223,0,0,0,.268-0.207,1.408,1.408,0,0,0,.185-0.238h0.042l0.173,0.6H119.4a3.028,3.028,0,0,1-.091-0.527c-0.016-.19-0.025-0.392-0.025-0.6,0-.294.009-0.6,0.025-0.933s0.025-.665.025-1.011a2.458,2.458,0,0,0-.045-0.467,1.115,1.115,0,0,0-.182-0.428,0.972,0.972,0,0,0-.4-0.315,1.65,1.65,0,0,0-.689-0.121,3.91,3.91,0,0,0-.871.095,2.331,2.331,0,0,0-.731.294Zm0.437,2.744a0.654,0.654,0,0,1-.206-0.5,0.566,0.566,0,0,1,.111-0.359,0.768,0.768,0,0,1,.3-0.225,1.527,1.527,0,0,1,.43-0.112,4.026,4.026,0,0,1,.5-0.03c0.077,0,.155,0,0.235,0s0.158,0.007.235,0.013v0.717a1,1,0,0,1-.127.233,1.026,1.026,0,0,1-.219.22,1.175,1.175,0,0,1-.314.164,1.225,1.225,0,0,1-.413.065A0.74,0.74,0,0,1,117.066,54.438Zm6.826,0.73v-2.61a3.758,3.758,0,0,0-.087-0.886,1.407,1.407,0,0,0-.256-0.557,0.886,0.886,0,0,0-.425-0.289,1.943,1.943,0,0,0-.594-0.082,1.676,1.676,0,0,0-.8.177,1.513,1.513,0,0,0-.533.454h-0.033l-0.124-.527h-0.462v4.321h0.66V52.213a1.316,1.316,0,0,1,.4-0.618,1.064,1.064,0,0,1,.722-0.246,0.706,0.706,0,0,1,.681.341,2.181,2.181,0,0,1,.186,1.015v2.463h0.66Zm1.345,0h0.66V50.847h-0.66v4.321Zm-0.012-5.306a0.438,0.438,0,0,0,.326.13,0.479,0.479,0,0,0,.338-0.13,0.426,0.426,0,0,0,.14-0.328,0.467,0.467,0,0,0-.14-0.341,0.456,0.456,0,0,0-.338-0.143,0.418,0.418,0,0,0-.326.143,0.49,0.49,0,0,0-.128.341A0.445,0.445,0,0,0,125.225,49.862Zm5.393,5.306v-2.61a3.818,3.818,0,0,0-.086-0.886,1.407,1.407,0,0,0-.256-0.557,0.891,0.891,0,0,0-.425-0.289,1.954,1.954,0,0,0-.595-0.082,1.679,1.679,0,0,0-.8.177,1.51,1.51,0,0,0-.532.454H127.9l-0.124-.527h-0.462v4.321h0.66V52.213a1.314,1.314,0,0,1,.4-0.618,1.065,1.065,0,0,1,.722-0.246,0.7,0.7,0,0,1,.681.341,2.181,2.181,0,0,1,.186,1.015v2.463h0.66Zm4.366-4.139a4.292,4.292,0,0,0-.6-0.181,3.6,3.6,0,0,0-.805-0.078,1.867,1.867,0,0,0-1.485.575,2.478,2.478,0,0,0-.5,1.681,2.925,2.925,0,0,0,.392,1.694,1.409,1.409,0,0,0,1.226.544,1.439,1.439,0,0,0,.668-0.134,1.117,1.117,0,0,0,.421-0.385h0.033v0.415a2.816,2.816,0,0,1-.049.566,0.84,0.84,0,0,1-.182.389,0.727,0.727,0,0,1-.351.216,2.032,2.032,0,0,1-.565.065,2.159,2.159,0,0,1-.6-0.069c-0.154-.046-0.295-0.095-0.421-0.147l-0.174.588a2.3,2.3,0,0,0,.516.169,3.938,3.938,0,0,0,.8.065,1.78,1.78,0,0,0,1.258-.4,1.615,1.615,0,0,0,.425-1.236V51.029Zm-2.146,3.508a0.917,0.917,0,0,1-.321-0.337,1.64,1.64,0,0,1-.182-0.518,3.513,3.513,0,0,1-.058-0.665,1.969,1.969,0,0,1,.322-1.244,1.076,1.076,0,0,1,.883-0.4,1.89,1.89,0,0,1,.842.164v2.212a1.269,1.269,0,0,1-.338.687,0.94,0.94,0,0,1-.661.22A0.921,0.921,0,0,1,132.838,54.537Z"/>
    </g>
    <g id="tick-2">
      <rect id="Rounded_Rectangle_601-2" data-name="Rounded Rectangle 601" class="cls-12" x="89" y="64" width="12" height="12" rx="1" ry="1"/>
      <path id="Painters" class="cls-13" d="M105,71.872h0.779V69.3a1.491,1.491,0,0,0,.159.019c0.076,0.006.152,0.011,0.23,0.015s0.154,0,.226,0h0.154a3.858,3.858,0,0,0,.948-0.116,2.284,2.284,0,0,0,.816-0.383,1.94,1.94,0,0,0,.572-0.692A2.3,2.3,0,0,0,109.1,67.1a2.09,2.09,0,0,0-.23-1.036,1.779,1.779,0,0,0-.595-0.639,2.338,2.338,0,0,0-.812-0.319,4.566,4.566,0,0,0-.877-0.087q-0.4,0-.816.029a4.594,4.594,0,0,0-.77.116v6.71Zm2.2-6.091a1.589,1.589,0,0,1,.539.228,1.183,1.183,0,0,1,.385.426,1.37,1.37,0,0,1,.146.663,1.666,1.666,0,0,1-.155.765,1.194,1.194,0,0,1-.408.465,1.609,1.609,0,0,1-.568.227,3.212,3.212,0,0,1-.633.063h-0.15c-0.069,0-.141,0-0.216,0l-0.216-.01a0.471,0.471,0,0,1-.15-0.024V65.772a1.553,1.553,0,0,1,.356-0.048c0.151-.006.307-0.01,0.47-0.01A2.72,2.72,0,0,1,107.205,65.782Zm2.8,2.2a1.77,1.77,0,0,1,.3-0.144,2.922,2.922,0,0,1,.366-0.11q0.192-.045.375-0.07a2.53,2.53,0,0,1,.342-0.025,1.036,1.036,0,0,1,.751.213,1.066,1.066,0,0,1,.206.746c0,0.155-.009.329-0.028,0.523a1.768,1.768,0,0,0-.258-0.019H111.8a5.637,5.637,0,0,0-.943.073,2.306,2.306,0,0,0-.732.242,1.231,1.231,0,0,0-.473.455,1.375,1.375,0,0,0-.169.712,1.436,1.436,0,0,0,.108.571,1.266,1.266,0,0,0,.741.707,1.579,1.579,0,0,0,.558.1,1.937,1.937,0,0,0,.535-0.068,1.9,1.9,0,0,0,.413-0.169,1.392,1.392,0,0,0,.3-0.232,1.66,1.66,0,0,0,.211-0.266H112.4l0.2,0.678h0.553a3.321,3.321,0,0,1-.1-0.591q-0.028-.32-0.028-0.678,0-.494.028-1.046t0.028-1.133a2.649,2.649,0,0,0-.052-0.523,1.226,1.226,0,0,0-.206-0.479,1.094,1.094,0,0,0-.45-0.353,1.9,1.9,0,0,0-.784-0.136,4.494,4.494,0,0,0-.989.106,2.663,2.663,0,0,0-.831.329Zm0.5,3.074a0.728,0.728,0,0,1-.235-0.557,0.63,0.63,0,0,1,.127-0.4,0.863,0.863,0,0,1,.338-0.252,1.755,1.755,0,0,1,.488-0.126,4.648,4.648,0,0,1,.567-0.034c0.088,0,.177,0,0.268,0s0.179,0.008.267,0.015v0.8a1.119,1.119,0,0,1-.145.261,1.158,1.158,0,0,1-.249.247,1.344,1.344,0,0,1-.356.184,1.417,1.417,0,0,1-.47.073A0.847,0.847,0,0,1,110.5,71.054Zm4.156,0.818h0.751V67.031h-0.751v4.841Zm-0.014-5.945a0.5,0.5,0,0,0,.37.145,0.55,0.55,0,0,0,.385-0.145,0.477,0.477,0,0,0,.16-0.368,0.546,0.546,0,0,0-.545-0.542,0.478,0.478,0,0,0-.37.16,0.548,0.548,0,0,0-.145.383A0.5,0.5,0,0,0,114.64,65.927Zm6.131,5.945V68.948a4.148,4.148,0,0,0-.1-0.993,1.548,1.548,0,0,0-.291-0.625,1.007,1.007,0,0,0-.483-0.324,2.244,2.244,0,0,0-.675-0.092,1.934,1.934,0,0,0-.906.2,1.714,1.714,0,0,0-.6.508h-0.037l-0.141-.591h-0.525v4.841h0.75V68.561a1.475,1.475,0,0,1,.455-0.692,1.223,1.223,0,0,1,.821-0.276,0.806,0.806,0,0,1,.774.382,2.413,2.413,0,0,1,.211,1.138v2.76h0.751Zm0.75-4.164h0.732v2.827a2,2,0,0,0,.235,1.118,0.916,0.916,0,0,0,.806.334,2.588,2.588,0,0,0,.648-0.077,2.821,2.821,0,0,0,.553-0.2l-0.169-.591q-0.206.087-.375,0.14a1.384,1.384,0,0,1-.413.053,0.438,0.438,0,0,1-.412-0.208A1.492,1.492,0,0,1,123,70.391V67.708h1.275V67.031H123V65.849l-0.751.223v0.959h-0.732v0.678Zm6.84,3.215a1.349,1.349,0,0,1-.479.271,1.852,1.852,0,0,1-.638.116,1.794,1.794,0,0,1-.7-0.121,1.139,1.139,0,0,1-.464-0.349,1.483,1.483,0,0,1-.263-0.557,3.065,3.065,0,0,1-.084-0.755h3.011a4.888,4.888,0,0,0,.057-0.707,2.539,2.539,0,0,0-.16-0.983,1.449,1.449,0,0,0-.413-0.576,1.4,1.4,0,0,0-.572-0.276,2.867,2.867,0,0,0-.638-0.073,1.868,1.868,0,0,0-1.529.649,2.9,2.9,0,0,0-.535,1.888,4.14,4.14,0,0,0,.122,1.046,2.244,2.244,0,0,0,.375.8,1.661,1.661,0,0,0,.648.513,2.224,2.224,0,0,0,.928.179,2.982,2.982,0,0,0,.906-0.136,2.1,2.1,0,0,0,.708-0.368ZM127.8,67.888a1.524,1.524,0,0,1,.272,1.031h-2.327a1.528,1.528,0,0,1,.4-1.026,1.273,1.273,0,0,1,.886-0.3A1,1,0,0,1,127.8,67.888Zm4.559-.857a2.234,2.234,0,0,0-.61-0.1,1.057,1.057,0,0,0-.633.179,1.48,1.48,0,0,0-.427.508H130.65l-0.141-.591h-0.525v4.841h0.75V68.483a1.006,1.006,0,0,1,.291-0.576,0.877,0.877,0,0,1,.638-0.228,1.649,1.649,0,0,1,.535.1Zm2.618,4.115a1.238,1.238,0,0,1-.667.165,2.38,2.38,0,0,1-.7-0.106,2.692,2.692,0,0,1-.563-0.232l-0.225.658a2.812,2.812,0,0,0,.628.252,3.372,3.372,0,0,0,.91.107,2.093,2.093,0,0,0,.718-0.111,1.47,1.47,0,0,0,.511-0.305,1.169,1.169,0,0,0,.305-0.465,1.68,1.68,0,0,0,.1-0.581,1.292,1.292,0,0,0-.169-0.7,1.54,1.54,0,0,0-.418-0.441,2.292,2.292,0,0,0-.544-0.281q-0.3-.106-0.544-0.218a1.78,1.78,0,0,1-.417-0.252,0.48,0.48,0,0,1-.169-0.392,0.593,0.593,0,0,1,.192-0.5,1.009,1.009,0,0,1,.6-0.145,2.491,2.491,0,0,1,.652.082,2.9,2.9,0,0,1,.521.189l0.178-.639a3.221,3.221,0,0,0-.6-0.218,3.326,3.326,0,0,0-.849-0.092,1.608,1.608,0,0,0-1.069.324,1.262,1.262,0,0,0-.385,1.022,1.2,1.2,0,0,0,.169.678,1.432,1.432,0,0,0,.418.411,2.5,2.5,0,0,0,.544.261q0.3,0.1.544,0.213a1.414,1.414,0,0,1,.417.276,0.6,0.6,0,0,1,.169.455A0.641,0.641,0,0,1,134.975,71.146Z"/>
    </g>
    <g id="tick-3">
      <rect id="Rounded_Rectangle_601-3" data-name="Rounded Rectangle 601" class="cls-12" x="89" y="83" width="12" height="12" rx="1" ry="1"/>
      <path id="HVAC" class="cls-13" d="M108.806,91.888h0.754V85.11h-0.754v2.953h-3.052V85.11H105v6.778h0.754V88.78h3.052v3.108Zm2.335-6.778h-0.827l2.453,6.885H113.1l2.407-6.885h-0.754l-1.535,4.638-0.236,1.046h-0.009l-0.218-1.026Zm8.384,6.778h0.8L117.908,85h-0.345l-2.407,6.885h0.754l0.633-1.879h2.332Zm-2.042-4.619,0.226-1.046h0.009l0.226,1.026,0.7,2.063h-1.862Zm7.347,3.709a1.892,1.892,0,0,1-.513.223,2.6,2.6,0,0,1-.713.087,2.015,2.015,0,0,1-.84-0.174,1.835,1.835,0,0,1-.672-0.523,2.559,2.559,0,0,1-.45-0.872,4.1,4.1,0,0,1-.164-1.22,4.284,4.284,0,0,1,.173-1.307,2.445,2.445,0,0,1,.459-0.862,1.693,1.693,0,0,1,.649-0.474,1.969,1.969,0,0,1,.736-0.145,2.7,2.7,0,0,1,1.245.232l0.181-.716a2.71,2.71,0,0,0-.59-0.169,5.134,5.134,0,0,0-.89-0.063,2.7,2.7,0,0,0-1,.194,2.433,2.433,0,0,0-.885.615,3.1,3.1,0,0,0-.636,1.084,4.736,4.736,0,0,0-.241,1.612,5.068,5.068,0,0,0,.218,1.574,3.091,3.091,0,0,0,.591,1.089,2.336,2.336,0,0,0,.872.634,2.756,2.756,0,0,0,1.071.208,4.365,4.365,0,0,0,.891-0.087,1.584,1.584,0,0,0,.69-0.31Z"/>
    </g>
    <text id="Services" class="cls-14" transform="translate(-82.559 39.91) scale(1.05 1.061)">Services</text>
    <path id="Forma_1-2" data-name="Forma 1" class="cls-15" d="M98.906,49.182L94.023,54.4,92.049,52.29a0.593,0.593,0,0,0-.878,0,0.7,0.7,0,0,0,0,.938l2.413,2.577a0.593,0.593,0,0,0,.878,0v0l5.32-5.684a0.7,0.7,0,0,0,0-.938A0.593,0.593,0,0,0,98.906,49.182Z"/>
    <path id="Forma_1_copy_18" data-name="Forma 1 copy 18" class="cls-15" d="M98.906,66.182L94.023,71.4,92.049,69.29a0.593,0.593,0,0,0-.878,0,0.7,0.7,0,0,0,0,.938l2.413,2.577a0.593,0.593,0,0,0,.878,0v0l5.32-5.684a0.7,0.7,0,0,0,0-.938A0.593,0.593,0,0,0,98.906,66.182Z"/>
  </g>
</svg>
