<svg id="icon" xmlns="http://www.w3.org/2000/svg" width="178" height="122" viewBox="0 0 178 122">
  <defs>
    <style>
      .cls-1 {
        fill: #eef3fe;
      }

      .cls-1, .cls-2, .cls-4 {
        fill-rule: evenodd;
      }

      .cls-2, .cls-3, .cls-9 {
        fill: #5387ff;
      }

      .cls-3, .cls-6 {
        opacity: 0.2;
      }

      .cls-4 {
        fill: #fff;
      }

      .cls-5 {
        fill: #7879dc;
      }

      .cls-7 {
        fill: #33e2a6;
      }

      .cls-8 {
        fill: #036c48;
        opacity: 0.22;
      }
    </style>
  </defs>
  <path class="cls-1" d="M16,68.019c0.518-12.348,3.106-22.638,28.987-30.87S78.739,25.287,91.68,17.569c10.426-6.394,42.473-5.832,57.974,15.435,10.784,14.8,10.007,34.037-2.07,47.334-10.26,11.3-31.5,20.432-52.8,24.7-21.692,4.344-37.893,1.057-53.939-5.117S15.655,82.768,16,68.019Z"/>
  <g>
    <path class="cls-2" d="M54,96V44L90.534,23.025,127,44V96h-7V51H61V96H54Z"/>
    <rect class="cls-3" x="61" y="51" width="59" height="7"/>
    <path class="cls-4" d="M84,41v4H97V41H84Z"/>
    <g id="Home">
      <g id="_3" data-name="3">
        <rect class="cls-5" x="101" y="81" width="15" height="15"/>
        <rect class="cls-6" x="106" y="81" width="5" height="5"/>
      </g>
      <g id="_2" data-name="2">
        <rect class="cls-7" x="101" y="67" width="15" height="14"/>
        <rect class="cls-8" x="106" y="67" width="5" height="5"/>
      </g>
      <g id="_4" data-name="4">
        <rect class="cls-9" x="86" y="81" width="15" height="15"/>
        <rect id="Rectangle_4_copy" data-name="Rectangle 4 copy" class="cls-6" x="91" y="81" width="5" height="5"/>
      </g>
    </g>
  </g>
</svg>
