<svg id="icon" xmlns="http://www.w3.org/2000/svg" width="181" height="122" viewBox="0 0 181 122">
  <defs>
    <style>
      .cls-1 {
        fill: #eef3fe;
      }

      .cls-1, .cls-2, .cls-3, .cls-4, .cls-5, .cls-7, .cls-8, .cls-9 {
        fill-rule: evenodd;
      }

      .cls-2 {
        fill: #80a6ff;
      }

      .cls-3, .cls-7 {
        fill: #6291fe;
      }

      .cls-4 {
        fill: #4b7ff8;
      }

      .cls-5 {
        fill: #b4cbff;
      }

      .cls-6 {
        fill: #fff;
        stroke: #e3e3e3;
        stroke-linejoin: round;
        stroke-width: 1px;
      }

      .cls-7, .cls-8 {
        opacity: 0.6;
      }

      .cls-8, .cls-9 {
        fill: #7374dd;
      }
    </style>
  </defs>
  <path class="cls-1" d="M4,68.019c0.518-12.348,3.106-22.638,28.987-30.87S66.739,25.287,79.68,17.569C90.106,11.175,122.153,11.737,137.654,33c10.784,14.8,10.007,34.037-2.07,47.334-10.26,11.3-31.5,20.432-52.8,24.7-21.692,4.344-37.893,1.057-53.939-5.117S3.655,82.768,4,68.019Z"/>
  <g id="Box">
    <path id="Shape_1_copy_3" data-name="Shape 1 copy 3" class="cls-2" d="M77,35L48,51,77,69l29.217-17.425Z"/>
    <path id="Shape_1_copy_2" data-name="Shape 1 copy 2" class="cls-3" d="M76,69l1,31,28.515-14.977L106,52Z"/>
    <path id="Shape_1_copy" data-name="Shape 1 copy" class="cls-4" d="M48,51V84l29,16V68Z"/>
    <path class="cls-5" d="M58.413,66.429V57.914L87.774,40.971l5.766,3.371L64.179,61.373l-0.443,7.806Z"/>
  </g>
  <g id="_1" data-name="1">
    <rect id="Rounded_Rectangle_593_copy" data-name="Rounded Rectangle 593 copy" class="cls-6" x="91" y="46" width="85" height="20" rx="5" ry="5"/>
    <path id="Rounded_Rectangle_599" data-name="Rounded Rectangle 599" class="cls-7" d="M136,52h29a1,1,0,0,1,0,2H136A1,1,0,0,1,136,52Zm0,6h13a1,1,0,0,1,0,2H136A1,1,0,0,1,136,58Z"/>
    <path id="Simple" class="cls-3" d="M101.683,58.9a1.691,1.691,0,0,1-1.085.319,1.886,1.886,0,0,1-1.151-.377,1.254,1.254,0,0,1-.51-1.071H98.016l-0.01.03a1.842,1.842,0,0,0,.767,1.6,2.946,2.946,0,0,0,1.825.6,2.75,2.75,0,0,0,1.771-.542,1.742,1.742,0,0,0,.679-1.433,1.885,1.885,0,0,0-.563-1.388,3.6,3.6,0,0,0-1.642-.851,3.58,3.58,0,0,1-1.281-.565,1,1,0,0,1-.394-0.8,1.156,1.156,0,0,1,.36-0.881,1.455,1.455,0,0,1,1.037-.339,1.494,1.494,0,0,1,1.085.41,1.382,1.382,0,0,1,.424,1.038h0.921l0.015-.03a2.033,2.033,0,0,0-.649-1.542,2.444,2.444,0,0,0-1.8-.661,2.488,2.488,0,0,0-1.705.577,1.843,1.843,0,0,0-.657,1.443,1.745,1.745,0,0,0,.61,1.362,4.022,4.022,0,0,0,1.7.82,2.857,2.857,0,0,1,1.225.577,1.127,1.127,0,0,1,.348.841A1.048,1.048,0,0,1,101.683,58.9Zm3.644-4.487h-0.966v5.48h0.966v-5.48Zm0-2.421h-0.966v1.018h0.966V51.99Zm1.484,2.421v5.48h0.966V55.834a1.2,1.2,0,0,1,.436-0.527,1.292,1.292,0,0,1,.725-0.187,0.947,0.947,0,0,1,.8.357,1.839,1.839,0,0,1,.277,1.127v3.287h0.97v-3.52a1.566,1.566,0,0,1,.361-0.9,1.008,1.008,0,0,1,.8-0.355,0.966,0.966,0,0,1,.8.337,1.866,1.866,0,0,1,.27,1.147v3.287h0.965V56.614a2.693,2.693,0,0,0-.47-1.73,1.566,1.566,0,0,0-1.279-.575,1.7,1.7,0,0,0-.958.271,2.024,2.024,0,0,0-.664.742,1.53,1.53,0,0,0-.571-0.76,1.6,1.6,0,0,0-.909-0.253,1.932,1.932,0,0,0-.929.215,1.831,1.831,0,0,0-.659.605l-0.068-.719h-0.863ZM120.1,57.252a3.749,3.749,0,0,0-.546-2.135,1.745,1.745,0,0,0-1.531-.808,1.881,1.881,0,0,0-.9.208,1.773,1.773,0,0,0-.647.6l-0.152-.709h-0.739V62h0.965V59.319a1.651,1.651,0,0,0,.63.509,2.04,2.04,0,0,0,.859.17,1.793,1.793,0,0,0,1.515-.727,3.1,3.1,0,0,0,.548-1.912V57.252Zm-0.965.106a2.33,2.33,0,0,1-.353,1.34,1.175,1.175,0,0,1-1.039.519,1.3,1.3,0,0,1-.72-0.19,1.4,1.4,0,0,1-.475-0.529V55.849a1.443,1.443,0,0,1,.475-0.534,1.258,1.258,0,0,1,.711-0.2,1.144,1.144,0,0,1,1.046.6,2.972,2.972,0,0,1,.355,1.532v0.106Zm3.195-5.368h-0.965v7.9h0.965v-7.9Zm4.8,7.812a2.321,2.321,0,0,0,.75-0.479l-0.378-.648a1.909,1.909,0,0,1-.634.4,2.358,2.358,0,0,1-.86.144,1.217,1.217,0,0,1-1.078-.514,2.323,2.323,0,0,1-.353-1.34l0.015-.025h3.391V56.812a2.885,2.885,0,0,0-.532-1.818,1.9,1.9,0,0,0-1.595-.684,2.041,2.041,0,0,0-1.61.772,2.9,2.9,0,0,0-.659,1.952v0.223a2.963,2.963,0,0,0,.64,1.985A2.207,2.207,0,0,0,126.01,60,2.9,2.9,0,0,0,127.132,59.8Zm-0.4-4.318a1.63,1.63,0,0,1,.284.988v0.081h-2.391l-0.01-.025a1.937,1.937,0,0,1,.405-1.031,1.035,1.035,0,0,1,.835-0.4A1.013,1.013,0,0,1,126.735,55.485Z"/>
  </g>
  <g id="_2" data-name="2">
    <rect id="Rounded_Rectangle_593_copy-2" data-name="Rounded Rectangle 593 copy" class="cls-6" x="56" y="21" width="110" height="20" rx="5" ry="5"/>
    <path id="Rounded_Rectangle_599-2" data-name="Rounded Rectangle 599" class="cls-8" d="M126,27h30a1,1,0,0,1,0,2H126A1,1,0,0,1,126,27Zm0,6h12a1,1,0,0,1,0,2H126A1,1,0,0,1,126,33Z"/>
    <path id="Configurable" class="cls-9" d="M67.31,32.535a1.653,1.653,0,0,1-.431,1.211,1.628,1.628,0,0,1-1.216.438,1.469,1.469,0,0,1-1.259-.658,2.762,2.762,0,0,1-.469-1.644V30.589a2.745,2.745,0,0,1,.469-1.634,1.469,1.469,0,0,1,1.259-.659,1.623,1.623,0,0,1,1.216.441,1.641,1.641,0,0,1,.431,1.2h0.9l0.01-.03a2.19,2.19,0,0,0-.679-1.726,2.649,2.649,0,0,0-1.881-.651,2.418,2.418,0,0,0-1.926.869,3.264,3.264,0,0,0-.744,2.2v1.282a3.254,3.254,0,0,0,.744,2.2,2.421,2.421,0,0,0,1.926.867,2.582,2.582,0,0,0,1.871-.683,2.2,2.2,0,0,0,.689-1.7l-0.01-.03h-0.9Zm1.79-.312a3,3,0,0,0,.625,1.958,2.263,2.263,0,0,0,3.391,0,3,3,0,0,0,.622-1.961V32.114a3.007,3.007,0,0,0-.625-1.961,2.254,2.254,0,0,0-3.391,0,3.016,3.016,0,0,0-.622,1.958v0.109Zm0.943-.109a2.615,2.615,0,0,1,.347-1.4,1.128,1.128,0,0,1,1.022-.559,1.143,1.143,0,0,1,1.031.559,2.587,2.587,0,0,1,.352,1.4v0.109a2.6,2.6,0,0,1-.349,1.406,1.23,1.23,0,0,1-2.055,0,2.609,2.609,0,0,1-.347-1.406V32.114Zm4.848-2.629v5.357h0.943V30.866a1.292,1.292,0,0,1,.481-0.508,1.422,1.422,0,0,1,.739-0.181,1.062,1.062,0,0,1,.826.3,1.485,1.485,0,0,1,.27,1.005v3.362h0.943V31.461a2.279,2.279,0,0,0-.459-1.567,1.66,1.66,0,0,0-1.3-.508,1.685,1.685,0,0,0-.888.235,1.913,1.913,0,0,0-.648.661l-0.067-.8H74.89Zm6.777,5.357V30.208H82.7V29.485H81.667V28.906a1.11,1.11,0,0,1,.246-0.792,1.078,1.078,0,0,1,.806-0.257,2.343,2.343,0,0,1,.589.074,4.209,4.209,0,0,1,.541.178l0.163-.792q-0.421-.148-0.732-0.225a2.631,2.631,0,0,0-.632-0.077,1.944,1.944,0,0,0-1.414.5,1.857,1.857,0,0,0-.51,1.4v0.579H79.91v0.723h0.814v4.634h0.943Zm2.8-5.357H83.524v5.357h0.948V29.485Zm1.278,2.882a3.035,3.035,0,0,0,.534,1.869,1.748,1.748,0,0,0,1.481.711,1.84,1.84,0,0,0,.818-0.173,1.681,1.681,0,0,0,.608-0.51v0.609a1.373,1.373,0,0,1-.314.988,1.344,1.344,0,0,1-1,.324,3.27,3.27,0,0,1-.759-0.092,2.67,2.67,0,0,1-.658-0.24l-0.144.758a3.09,3.09,0,0,0,.763.29,3.394,3.394,0,0,0,.806.106,2.328,2.328,0,0,0,1.67-.552,2.083,2.083,0,0,0,.579-1.582V29.485H89.381l-0.115.7a1.693,1.693,0,0,0-1.493-.8,1.7,1.7,0,0,0-1.491.792,3.669,3.669,0,0,0-.534,2.085v0.1Zm0.943-.1a3.076,3.076,0,0,1,.323-1.505,1.067,1.067,0,0,1,1-.579,1.212,1.212,0,0,1,.7.2,1.5,1.5,0,0,1,.474.542v2.466a1.506,1.506,0,0,1-.474.567,1.215,1.215,0,0,1-.713.2,1.1,1.1,0,0,1-.991-0.49,2.338,2.338,0,0,1-.321-1.3v-0.1Zm8.145,2.58h0.847V29.485H94.741v3.862a1.305,1.305,0,0,1-.5.6,1.509,1.509,0,0,1-.83.21,0.893,0.893,0,0,1-.761-0.322,2.05,2.05,0,0,1-.244-1.178V29.485H91.468v3.159a2.662,2.662,0,0,0,.474,1.743,1.637,1.637,0,0,0,1.321.559,1.671,1.671,0,0,0,.885-0.233,1.788,1.788,0,0,0,.627-0.663Zm4.8-5.4a1.327,1.327,0,0,0-.158-0.037,1.122,1.122,0,0,0-.2-0.017,1.24,1.24,0,0,0-.744.233,1.841,1.841,0,0,0-.543.649L97.9,29.485H97.057v5.357H98V31.015a1.169,1.169,0,0,1,.395-0.515,1.053,1.053,0,0,1,.629-0.183l0.483,0.03Zm5.006,5.4a2.846,2.846,0,0,1-.106-0.525,5.236,5.236,0,0,1-.028-0.555v-2.58a1.668,1.668,0,0,0-.536-1.334,2.094,2.094,0,0,0-1.417-.463,2.142,2.142,0,0,0-1.452.485,1.3,1.3,0,0,0-.529,1.069l0.009,0.03,0.895-.01a0.72,0.72,0,0,1,.283-0.569,1.111,1.111,0,0,1,.741-0.238,1.068,1.068,0,0,1,.785.275,1,1,0,0,1,.278.745V31.7h-1.024a2.735,2.735,0,0,0-1.63.433,1.4,1.4,0,0,0-.6,1.2,1.607,1.607,0,0,0,.423,1.181,1.657,1.657,0,0,0,1.232.428,1.711,1.711,0,0,0,.912-0.26,2.238,2.238,0,0,0,.687-0.646,3.111,3.111,0,0,0,.031.374c0.017,0.124.042,0.267,0.074,0.428h0.972Zm-3.173-.921a0.747,0.747,0,0,1-.216-0.564,0.9,0.9,0,0,1,.342-0.7,1.343,1.343,0,0,1,.912-0.3h1.058v0.871a1.284,1.284,0,0,1-.536.624,1.64,1.64,0,0,1-.924.272A0.88,0.88,0,0,1,101.47,33.921Zm8.829-1.659a3.659,3.659,0,0,0-.536-2.085,1.7,1.7,0,0,0-1.493-.792,1.807,1.807,0,0,0-.845.188,1.655,1.655,0,0,0-.605.545v-3h-0.943v7.724H106.6l0.153-.728a1.7,1.7,0,0,0,.629.621,1.829,1.829,0,0,0,.9.21,1.756,1.756,0,0,0,1.481-.711,3.015,3.015,0,0,0,.538-1.869v-0.1Zm-0.943.1a2.31,2.31,0,0,1-.325,1.3,1.108,1.108,0,0,1-.991.49,1.2,1.2,0,0,1-.744-0.223,1.586,1.586,0,0,1-.476-0.619V30.99A1.545,1.545,0,0,1,107.3,30.4a1.205,1.205,0,0,1,.735-0.22,1.074,1.074,0,0,1,1,.582,3.048,3.048,0,0,1,.327,1.5v0.1Zm3.111-5.248h-0.943v7.724h0.943V27.118Zm4.69,7.637a2.255,2.255,0,0,0,.732-0.468l-0.368-.634a1.871,1.871,0,0,1-.62.389,2.3,2.3,0,0,1-.84.141,1.19,1.19,0,0,1-1.053-.5,2.277,2.277,0,0,1-.344-1.31l0.014-.025h3.312V31.832a2.815,2.815,0,0,0-.52-1.777,1.849,1.849,0,0,0-1.557-.669,1.991,1.991,0,0,0-1.572.755,2.835,2.835,0,0,0-.644,1.909v0.218a2.9,2.9,0,0,0,.624,1.941,2.158,2.158,0,0,0,1.74.738A2.83,2.83,0,0,0,117.157,34.756Zm-0.388-4.221a1.6,1.6,0,0,1,.278.966v0.079h-2.335l-0.01-.025a1.894,1.894,0,0,1,.395-1.008,1.011,1.011,0,0,1,.816-0.394A0.988,0.988,0,0,1,116.769,30.535Z"/>
  </g>
</svg>
