<svg id="icon" xmlns="http://www.w3.org/2000/svg" width="181" height="122" viewBox="0 0 181 122">
  <defs>
    <style>
      .cls-1 {
        fill: #eef3fe;
      }

      .cls-1, .cls-2, .cls-3, .cls-4, .cls-5 {
        fill-rule: evenodd;
      }

      .cls-2 {
        fill: #fff;
        stroke: #e3e3e3;
        stroke-linejoin: round;
        stroke-width: 1px;
      }

      .cls-3 {
        fill: #3c3c3c;
      }

      .cls-4 {
        fill: #36be8f;
      }

      .cls-5 {
        fill: #de617e;
      }
    </style>
  </defs>
  <path class="cls-1" d="M20,68.019c0.518-12.348,3.106-22.638,28.987-30.87S82.739,25.287,95.68,17.569c10.426-6.394,42.473-5.832,57.974,15.435,10.784,14.8,10.007,34.037-2.07,47.334-10.26,11.3-31.5,20.432-52.8,24.7-21.692,4.344-37.893,1.057-53.939-5.117S19.655,82.768,20,68.019Z"/>
  <g id="Graph">
    <path class="cls-2" d="M126.467,81.007h13.581s8.5,6.356,2.037,17.086c0,0-1.048,2.016-11.544,1.9h-8.149S118.854,93.259,119,92.5,126.467,81.007,126.467,81.007Z"/>
    <path class="cls-2" d="M53,17h73s6-.242,6,8l0.026,69.678s2.01,4.868,6.933,5.276L59,101s-10,.8-10-11L48,23S47.461,17,53,17Z"/>
    <g id="tick-1">
      <path id="Cleaning" class="cls-3" d="M58.076,48.939a1.473,1.473,0,0,1-.406,1.1,1.567,1.567,0,0,1-1.146.4,1.4,1.4,0,0,1-1.186-.6,2.449,2.449,0,0,1-.442-1.5V47.169a2.435,2.435,0,0,1,.442-1.486,1.4,1.4,0,0,1,1.186-.6,1.561,1.561,0,0,1,1.146.4,1.462,1.462,0,0,1,.406,1.09h0.852l0.009-.027a1.957,1.957,0,0,0-.641-1.57,2.552,2.552,0,0,0-1.773-.592,2.315,2.315,0,0,0-1.815.79,2.9,2.9,0,0,0-.7,2v1.166a2.9,2.9,0,0,0,.7,2,2.317,2.317,0,0,0,1.816.788,2.484,2.484,0,0,0,1.764-.622,1.969,1.969,0,0,0,.65-1.545l-0.009-.027H58.076Zm2.855-4.927H60.043v7.026h0.889V44.011Zm4.42,6.947a2.136,2.136,0,0,0,.69-0.426l-0.347-.576a1.767,1.767,0,0,1-.584.354,2.238,2.238,0,0,1-.792.128,1.135,1.135,0,0,1-.992-0.457A2.011,2.011,0,0,1,63,48.79l0.014-.023h3.121V48.3a2.5,2.5,0,0,0-.489-1.617,1.772,1.772,0,0,0-1.468-.608,1.9,1.9,0,0,0-1.482.687,2.526,2.526,0,0,0-.607,1.736v0.2a2.58,2.58,0,0,0,.589,1.766,2.066,2.066,0,0,0,1.64.671A2.756,2.756,0,0,0,65.352,50.959Zm-0.365-3.84a1.418,1.418,0,0,1,.262.878v0.072h-2.2l-0.009-.023a1.693,1.693,0,0,1,.372-0.916,0.967,0.967,0,0,1,.769-0.358A0.946,0.946,0,0,1,64.986,47.119Zm6.062,3.919a2.588,2.588,0,0,1-.1-0.477,4.573,4.573,0,0,1-.027-0.5V47.709a1.491,1.491,0,0,0-.505-1.214,2.018,2.018,0,0,0-1.335-.421,2.067,2.067,0,0,0-1.369.441,1.166,1.166,0,0,0-.5.973l0.009,0.027,0.844-.009a0.648,0.648,0,0,1,.266-0.518,1.075,1.075,0,0,1,.7-0.216,1.028,1.028,0,0,1,.74.25,0.893,0.893,0,0,1,.262.678v0.482H69.069a2.646,2.646,0,0,0-1.536.394,1.258,1.258,0,0,0-.566,1.092,1.431,1.431,0,0,0,.4,1.074,1.6,1.6,0,0,0,1.162.39,1.657,1.657,0,0,0,.859-0.236,2.071,2.071,0,0,0,.647-0.588,2.82,2.82,0,0,0,.029.34q0.025,0.169.07,0.39h0.916ZM68.058,50.2a0.668,0.668,0,0,1-.2-0.513,0.808,0.808,0,0,1,.323-0.635,1.3,1.3,0,0,1,.859-0.27h1v0.793a1.178,1.178,0,0,1-.505.568,1.583,1.583,0,0,1-.871.248A0.85,0.85,0,0,1,68.058,50.2Zm4.154-4.035v4.873H73.1V47.421a1.2,1.2,0,0,1,.453-0.462,1.379,1.379,0,0,1,.7-0.164,1.022,1.022,0,0,1,.778.27,1.317,1.317,0,0,1,.255.914v3.058h0.889V47.961a2.025,2.025,0,0,0-.433-1.426,1.6,1.6,0,0,0-1.222-.462,1.632,1.632,0,0,0-.837.214,1.771,1.771,0,0,0-.611.6l-0.063-.725H72.213Zm6.211,0H77.535v4.873h0.889V46.164Zm0-2.153H77.535v0.905h0.889V44.011Zm1.367,2.153v4.873h0.889V47.421a1.2,1.2,0,0,1,.453-0.462,1.379,1.379,0,0,1,.7-0.164,1.022,1.022,0,0,1,.778.27,1.317,1.317,0,0,1,.255.914v3.058h0.889V47.961a2.025,2.025,0,0,0-.433-1.426,1.6,1.6,0,0,0-1.222-.462,1.633,1.633,0,0,0-.837.214,1.772,1.772,0,0,0-.611.6l-0.063-.725H79.791Zm5.093,2.621a2.692,2.692,0,0,0,.5,1.7,1.67,1.67,0,0,0,1.4.646,1.787,1.787,0,0,0,.771-0.158,1.571,1.571,0,0,0,.573-0.464v0.554a1.221,1.221,0,0,1-.3.9,1.3,1.3,0,0,1-.945.3,3.192,3.192,0,0,1-.715-0.083,2.573,2.573,0,0,1-.62-0.218l-0.135.689a2.975,2.975,0,0,0,.719.264,3.308,3.308,0,0,0,.76.1,2.244,2.244,0,0,0,1.574-.5,1.858,1.858,0,0,0,.546-1.439v-4.9H88.307L88.2,46.8a1.643,1.643,0,0,0-.591-0.538,1.715,1.715,0,0,0-.817-0.187,1.617,1.617,0,0,0-1.405.721,3.249,3.249,0,0,0-.5,1.9v0.095Zm0.889-.095a2.717,2.717,0,0,1,.3-1.369,1.012,1.012,0,0,1,.941-0.527,1.173,1.173,0,0,1,.663.182,1.378,1.378,0,0,1,.447.493v2.243a1.384,1.384,0,0,1-.447.516,1.176,1.176,0,0,1-.672.182,1.049,1.049,0,0,1-.934-0.446,2.068,2.068,0,0,1-.3-1.18V48.691Z"/>
    </g>
    <g id="tick-2">
      <path id="Painters" class="cls-3" d="M56.506,65.322a2.32,2.32,0,0,0,1.621-.528,1.99,1.99,0,0,0,0-2.807,2.307,2.307,0,0,0-1.621-.532H54.015v6.456H54.9v-2.59h1.61ZM54.9,62.143h1.61A1.189,1.189,0,0,1,57.821,63.4a1.258,1.258,0,0,1-.326.889,1.284,1.284,0,0,1-.988.353H54.9v-2.5Zm8.654,5.769a2.524,2.524,0,0,1-.1-0.47,4.455,4.455,0,0,1-.027-0.5v-2.31a1.463,1.463,0,0,0-.5-1.2,2.01,2.01,0,0,0-1.324-.415,2.06,2.06,0,0,0-1.357.435,1.145,1.145,0,0,0-.494.958l0.009,0.027,0.836-.009a0.637,0.637,0,0,1,.264-0.51,1.07,1.07,0,0,1,.693-0.213,1.025,1.025,0,0,1,.733.246,0.877,0.877,0,0,1,.259.667V65.1H61.587a2.639,2.639,0,0,0-1.523.388,1.236,1.236,0,0,0-.561,1.075,1.4,1.4,0,0,0,.4,1.058A1.59,1.59,0,0,0,61.05,68a1.652,1.652,0,0,0,.852-0.233,2.05,2.05,0,0,0,.642-0.579,2.775,2.775,0,0,0,.029.335q0.025,0.166.069,0.384H63.55Zm-2.965-.825a0.655,0.655,0,0,1-.2-0.505,0.793,0.793,0,0,1,.32-0.625,1.289,1.289,0,0,1,.852-0.266h0.988v0.781a1.163,1.163,0,0,1-.5.559,1.578,1.578,0,0,1-.863.244A0.847,0.847,0,0,1,60.585,67.087Zm5.072-3.973H64.776v4.8h0.881v-4.8Zm0-2.12H64.776v0.891h0.881V60.994Zm1.355,2.12v4.8h0.881V64.351a1.181,1.181,0,0,1,.45-0.454,1.376,1.376,0,0,1,.691-0.162A1.018,1.018,0,0,1,69.8,64a1.29,1.29,0,0,1,.253.9v3.011h0.881V64.883a1.984,1.984,0,0,0-.429-1.4,1.587,1.587,0,0,0-1.212-.455,1.628,1.628,0,0,0-.83.211,1.749,1.749,0,0,0-.606.592L67.8,63.114H67.012Zm5.55-1.157v1.157H71.793v0.647h0.769v2.913a1.388,1.388,0,0,0,.317,1.009,1.147,1.147,0,0,0,.854.322,1.483,1.483,0,0,0,.38-0.051,0.784,0.784,0,0,0,.291-0.131l-0.121-.6a1.266,1.266,0,0,1-.157.042,0.824,0.824,0,0,1-.17.02,0.512,0.512,0,0,1-.373-0.137,0.649,0.649,0,0,1-.141-0.475V63.761H74.36V63.114H73.443V61.957H72.562Zm5.769,5.877a2.119,2.119,0,0,0,.684-0.419l-0.344-.568a1.754,1.754,0,0,1-.579.348,2.233,2.233,0,0,1-.785.126,1.129,1.129,0,0,1-.984-0.45A1.97,1.97,0,0,1,76,65.7l0.013-.022H79.11V65.216a2.453,2.453,0,0,0-.485-1.592,1.764,1.764,0,0,0-1.456-.6A1.893,1.893,0,0,0,75.7,63.7a2.476,2.476,0,0,0-.6,1.709v0.2a2.529,2.529,0,0,0,.584,1.738A2.056,2.056,0,0,0,77.307,68,2.748,2.748,0,0,0,78.332,67.834Zm-0.362-3.78a1.389,1.389,0,0,1,.259.865V64.99H76.046l-0.009-.022a1.661,1.661,0,0,1,.369-0.9,0.961,0.961,0,0,1,.763-0.352A0.941,0.941,0,0,1,77.969,64.054Zm4.54-.98a1.275,1.275,0,0,0-.148-0.033,1.094,1.094,0,0,0-.188-0.016,1.194,1.194,0,0,0-.7.208,1.67,1.67,0,0,0-.508.581l-0.085-.7H80.1v4.8h0.881V64.484a1.054,1.054,0,0,1,.369-0.461,1.015,1.015,0,0,1,.588-0.164l0.452,0.027Zm3.343,4.051a1.212,1.212,0,0,1-.736.2,1.357,1.357,0,0,1-.765-0.215A0.806,0.806,0,0,1,84,66.426H83.162l-0.009.027a1.324,1.324,0,0,0,.505,1.086A2.138,2.138,0,0,0,85.116,68a2.162,2.162,0,0,0,1.362-.4A1.26,1.26,0,0,0,87,66.559a1.06,1.06,0,0,0-.461-0.891,3.486,3.486,0,0,0-1.351-.528,2.214,2.214,0,0,1-.821-0.284,0.524,0.524,0,0,1-.2-0.439,0.648,0.648,0,0,1,.23-0.5,1.009,1.009,0,0,1,.7-0.208,0.988,0.988,0,0,1,.7.253,0.753,0.753,0,0,1,.275.563h0.841l0.009-.027a1.266,1.266,0,0,0-.488-1.033,2.236,2.236,0,0,0-2.636-.027,1.262,1.262,0,0,0-.5,1,1.027,1.027,0,0,0,.458.878,3.533,3.533,0,0,0,1.313.51,2.148,2.148,0,0,1,.839.319,0.58,0.58,0,0,1,.221.47A0.6,0.6,0,0,1,85.852,67.125Z"/>
    </g>
    <g id="tick-3">
      <path id="HVAC" class="cls-3" d="M59.094,78.1H58.185v3.07H54.924V78.1H54.015V84.89h0.909v-3h3.261v3h0.909V78.1Zm1.873,0H59.98l2.5,6.793h0.779l2.5-6.793H64.768l-1.735,5.011-0.152.564H62.854L62.7,83.108ZM70.35,84.89h0.927L68.906,78.1h-0.78L65.7,84.89h0.927l0.6-1.749h2.528ZM68.5,79.455h0.028L69.5,82.37H67.494Zm7.639,3.261a1.536,1.536,0,0,1-.415,1.141,1.589,1.589,0,0,1-1.172.413,1.426,1.426,0,0,1-1.213-.62,2.56,2.56,0,0,1-.452-1.549V80.882a2.544,2.544,0,0,1,.452-1.539,1.426,1.426,0,0,1,1.213-.621,1.584,1.584,0,0,1,1.172.415,1.526,1.526,0,0,1,.415,1.129h0.872l0.009-.028a2.04,2.04,0,0,0-.655-1.626A2.589,2.589,0,0,0,74.547,78a2.354,2.354,0,0,0-1.857.819,3.032,3.032,0,0,0-.717,2.074V82.1a3.023,3.023,0,0,0,.717,2.071,2.357,2.357,0,0,0,1.857.816,2.521,2.521,0,0,0,1.8-.644,2.052,2.052,0,0,0,.664-1.6l-0.009-.028H76.134Z"/>
    </g>
    <path id="Service" class="cls-3" d="M57.8,32.481a1.216,1.216,0,0,1-.372.4,1.572,1.572,0,0,1-.555.233,3.141,3.141,0,0,1-.689.072,4.3,4.3,0,0,1-1.122-.135,3.581,3.581,0,0,1-.755-0.275L54,33.6a3.757,3.757,0,0,0,.844.283,6.194,6.194,0,0,0,1.378.128,3.669,3.669,0,0,0,1.111-.155,2.423,2.423,0,0,0,.833-0.444,1.892,1.892,0,0,0,.522-0.687,2.186,2.186,0,0,0,.178-0.9,1.78,1.78,0,0,0-.278-1.02,2.732,2.732,0,0,0-.694-0.7,5.549,5.549,0,0,0-.905-0.516q-0.489-.222-0.905-0.449a2.84,2.84,0,0,1-.694-0.515,1.029,1.029,0,0,1,.089-1.491,1.609,1.609,0,0,1,1.1-.327,4.973,4.973,0,0,1,1.116.114,3.638,3.638,0,0,1,.75.24l0.278-.821a3.308,3.308,0,0,0-.867-0.255,6.993,6.993,0,0,0-1.233-.1,2.722,2.722,0,0,0-1.8.532,1.785,1.785,0,0,0-.633,1.441,1.868,1.868,0,0,0,.278,1.059,2.545,2.545,0,0,0,.694.7,4.915,4.915,0,0,0,.905.482,8.988,8.988,0,0,1,.905.427,2.777,2.777,0,0,1,.694.521,1.061,1.061,0,0,1,.278.759A1.145,1.145,0,0,1,57.8,32.481Zm6.16,0.31a1.608,1.608,0,0,1-.567.31,2.261,2.261,0,0,1-.755.133A2.186,2.186,0,0,1,61.81,33.1a1.346,1.346,0,0,1-.55-0.4,1.682,1.682,0,0,1-.311-0.638,3.381,3.381,0,0,1-.1-0.865h3.566a5.473,5.473,0,0,0,.067-0.809,2.815,2.815,0,0,0-.189-1.125,1.595,1.595,0,0,0-1.166-.976,3.507,3.507,0,0,0-.755-0.083,2.248,2.248,0,0,0-1.811.743,3.248,3.248,0,0,0-.633,2.162,4.573,4.573,0,0,0,.144,1.2,2.54,2.54,0,0,0,.444.915,1.955,1.955,0,0,0,.766.588,2.717,2.717,0,0,0,1.1.205,3.634,3.634,0,0,0,1.072-.155,2.51,2.51,0,0,0,.839-0.421Zm-0.666-3.476a1.7,1.7,0,0,1,.322,1.181H60.861a1.718,1.718,0,0,1,.472-1.175,1.541,1.541,0,0,1,1.05-.344A1.2,1.2,0,0,1,63.293,29.316Zm5.4-.981a2.734,2.734,0,0,0-.722-0.111,1.282,1.282,0,0,0-.75.205,1.71,1.71,0,0,0-.505.582H66.67L66.5,28.335H65.882v5.543H66.77V30a1.133,1.133,0,0,1,.344-0.66,1.06,1.06,0,0,1,.755-0.261,2.01,2.01,0,0,1,.633.111Zm1.233,0H68.9L71.314,34h0.378l2.366-5.665H73.1l-1.244,3.226L71.58,32.636H71.569l-0.311-1.053ZM75.2,33.878H76.09V28.335H75.2v5.543Zm-0.017-6.807a0.606,0.606,0,0,0,.439.166,0.666,0.666,0,0,0,.455-0.166,0.537,0.537,0,0,0,.189-0.421,0.588,0.588,0,0,0-.189-0.438,0.631,0.631,0,0,0-.455-0.183,0.576,0.576,0,0,0-.439.183,0.616,0.616,0,0,0-.172.438A0.56,0.56,0,0,0,75.185,27.071Zm6.3,5.765a2.031,2.031,0,0,1-.517.277,1.979,1.979,0,0,1-.716.122,1.583,1.583,0,0,1-.783-0.177,1.453,1.453,0,0,1-.511-0.471,1.975,1.975,0,0,1-.278-0.676,3.77,3.77,0,0,1-.083-0.8q0-2.129,1.577-2.129a2.574,2.574,0,0,1,.666.083,2.426,2.426,0,0,1,.567.227l0.255-.765a2.779,2.779,0,0,0-.672-0.238,4.223,4.223,0,0,0-.905-0.083,2.194,2.194,0,0,0-1.788.748,3.292,3.292,0,0,0-.622,2.156,5.152,5.152,0,0,0,.128,1.192,2.491,2.491,0,0,0,.411.92,1.857,1.857,0,0,0,.728.588,2.589,2.589,0,0,0,1.089.205,3.531,3.531,0,0,0,.955-0.128,2.429,2.429,0,0,0,.789-0.371Zm4.977-.044a1.607,1.607,0,0,1-.567.31,2.261,2.261,0,0,1-.755.133,2.187,2.187,0,0,1-.828-0.139,1.347,1.347,0,0,1-.55-0.4,1.682,1.682,0,0,1-.311-0.638,3.385,3.385,0,0,1-.1-0.865h3.566a5.486,5.486,0,0,0,.067-0.809A2.817,2.817,0,0,0,86.8,29.26a1.6,1.6,0,0,0-1.166-.976,3.507,3.507,0,0,0-.755-0.083,2.249,2.249,0,0,0-1.811.743,3.248,3.248,0,0,0-.633,2.162,4.568,4.568,0,0,0,.145,1.2,2.538,2.538,0,0,0,.444.915,1.956,1.956,0,0,0,.766.588,2.716,2.716,0,0,0,1.1.205,3.635,3.635,0,0,0,1.072-.155,2.511,2.511,0,0,0,.839-0.421ZM85.8,29.316a1.7,1.7,0,0,1,.322,1.181H83.366a1.717,1.717,0,0,1,.472-1.175,1.541,1.541,0,0,1,1.05-.344A1.2,1.2,0,0,1,85.8,29.316Z"/>
    <path id="Active_copy_2" data-name="Active copy 2" class="cls-4" d="M99.362,50.92h0.871l-2.228-6.456H97.273L95,50.92h0.871l0.564-1.663h2.375ZM97.62,45.754h0.026l0.919,2.771H96.679Zm4.367,4.079a2.415,2.415,0,0,1-.284-1.219V48.428a2.379,2.379,0,0,1,.288-1.208,0.981,0.981,0,0,1,.917-0.5,0.91,0.91,0,0,1,.7.308,1.075,1.075,0,0,1,.28.747h0.775l0.009-.027a1.591,1.591,0,0,0-.483-1.219,1.747,1.747,0,0,0-1.285-.5,1.824,1.824,0,0,0-1.524.69,2.68,2.68,0,0,0-.54,1.7v0.186a2.7,2.7,0,0,0,.538,1.712,1.956,1.956,0,0,0,2.774.206,1.39,1.39,0,0,0,.52-1.1l-0.013-.027h-0.771a0.858,0.858,0,0,1-.3.658,0.992,0.992,0,0,1-.689.268A0.979,0.979,0,0,1,101.987,49.834Zm4.037-4.869v1.157h-0.745V46.77h0.745v2.913a1.418,1.418,0,0,0,.308,1.009,1.092,1.092,0,0,0,.828.322,1.393,1.393,0,0,0,.368-0.051,0.754,0.754,0,0,0,.282-0.131l-0.117-.6a1.214,1.214,0,0,1-.152.042,0.782,0.782,0,0,1-.165.02,0.488,0.488,0,0,1-.362-0.137,0.663,0.663,0,0,1-.136-0.475V46.77h0.888V46.122h-0.888V44.965h-0.854Zm3.58,1.157H108.75v4.8H109.6v-4.8Zm0-2.12H108.75v0.891H109.6V44Zm1.769,2.12H110.5l1.747,4.8h0.646l1.725-4.8h-0.871l-1.08,3.383-0.082.337h-0.026l-0.074-.337Zm6.887,4.72a2.032,2.032,0,0,0,.663-0.419l-0.334-.568a1.691,1.691,0,0,1-.561.348,2.1,2.1,0,0,1-.761.126,1.081,1.081,0,0,1-.953-0.45A2.017,2.017,0,0,1,116,48.707l0.013-.022h3V48.224a2.508,2.508,0,0,0-.47-1.592,1.685,1.685,0,0,0-1.411-.6,1.812,1.812,0,0,0-1.424.676,2.528,2.528,0,0,0-.583,1.709v0.2a2.581,2.581,0,0,0,.566,1.738,1.962,1.962,0,0,0,1.575.661A2.588,2.588,0,0,0,118.26,50.843Zm-0.351-3.78a1.417,1.417,0,0,1,.251.865V48h-2.115l-0.008-.022a1.686,1.686,0,0,1,.357-0.9,0.919,0.919,0,0,1,.739-0.352A0.9,0.9,0,0,1,117.909,47.062Z"/>
    <path id="Active_copy_3" data-name="Active copy 3" class="cls-4" d="M99.544,67.92h0.907l-2.32-6.456H97.368L95,67.92H95.9l0.587-1.663h2.474Zm-1.815-5.166h0.027l0.957,2.771H96.749Zm4.549,4.079a2.337,2.337,0,0,1-.3-1.219V65.428a2.3,2.3,0,0,1,.3-1.208,1.032,1.032,0,0,1,.955-0.5,0.967,0.967,0,0,1,.734.308,1.049,1.049,0,0,1,.291.747h0.808l0.009-.027a1.563,1.563,0,0,0-.5-1.219,1.863,1.863,0,0,0-1.339-.5,1.932,1.932,0,0,0-1.587.69,2.609,2.609,0,0,0-.562,1.7v0.186a2.623,2.623,0,0,0,.56,1.712,2.1,2.1,0,0,0,2.889.206,1.367,1.367,0,0,0,.542-1.1l-0.013-.027h-0.8a0.84,0.84,0,0,1-.307.658,1.057,1.057,0,0,1-.718.268A1.031,1.031,0,0,1,102.278,66.834Zm4.2-4.869v1.157h-0.776V63.77h0.776v2.913a1.379,1.379,0,0,0,.321,1.009,1.163,1.163,0,0,0,.862.322,1.506,1.506,0,0,0,.384-0.051,0.805,0.805,0,0,0,.294-0.131l-0.122-.6a1.342,1.342,0,0,1-.158.042,0.852,0.852,0,0,1-.172.02,0.521,0.521,0,0,1-.377-0.137,0.644,0.644,0,0,1-.142-0.474V63.77H108.3V63.122h-0.925V61.965h-0.89Zm3.73,1.157h-0.89v4.8h0.89v-4.8Zm0-2.12h-0.89v0.891h0.89V61Zm1.842,2.12h-0.912l1.819,4.8h0.673l1.8-4.8h-0.907L113.4,66.506l-0.085.337h-0.028l-0.076-.337Zm7.174,4.72a2.148,2.148,0,0,0,.691-0.419l-0.348-.567a1.768,1.768,0,0,1-.584.348,2.28,2.28,0,0,1-.793.126,1.144,1.144,0,0,1-.993-0.45,1.954,1.954,0,0,1-.325-1.173l0.013-.022h3.125V65.224a2.434,2.434,0,0,0-.49-1.592,1.789,1.789,0,0,0-1.47-.6,1.919,1.919,0,0,0-1.483.676,2.462,2.462,0,0,0-.607,1.709v0.2a2.513,2.513,0,0,0,.589,1.738,2.085,2.085,0,0,0,1.641.661A2.8,2.8,0,0,0,119.229,67.843Zm-0.365-3.78a1.383,1.383,0,0,1,.261.865V65h-2.2l-0.009-.022a1.646,1.646,0,0,1,.373-0.9,0.972,0.972,0,0,1,.769-0.353A0.956,0.956,0,0,1,118.864,64.062Z"/>
    <path id="Inactive_copy" data-name="Inactive copy" class="cls-5" d="M95.88,78.464H95V84.92H95.88V78.464Zm1.486,1.658v4.8h0.877V81.359a1.177,1.177,0,0,1,.447-0.454,1.362,1.362,0,0,1,.687-0.162,1.007,1.007,0,0,1,.767.266,1.292,1.292,0,0,1,.252.9V84.92h0.876V81.892a1.99,1.99,0,0,0-.427-1.4,1.575,1.575,0,0,0-1.206-.454,1.613,1.613,0,0,0-.825.211,1.745,1.745,0,0,0-.6.592l-0.062-.714H97.366Zm9.041,4.8a2.516,2.516,0,0,1-.1-0.47,4.43,4.43,0,0,1-.027-0.5v-2.31a1.467,1.467,0,0,0-.5-1.195,1.992,1.992,0,0,0-1.317-.415,2.04,2.04,0,0,0-1.35.435,1.146,1.146,0,0,0-.492.958l0.009,0.027,0.832-.009a0.637,0.637,0,0,1,.262-0.51,1.062,1.062,0,0,1,.69-0.213,1.017,1.017,0,0,1,.73.246,0.879,0.879,0,0,1,.258.667v0.474h-0.952a2.614,2.614,0,0,0-1.515.388,1.237,1.237,0,0,0-.559,1.075,1.406,1.406,0,0,0,.394,1.057,1.577,1.577,0,0,0,1.146.384,1.635,1.635,0,0,0,.847-0.233,2.036,2.036,0,0,0,.639-0.579,2.677,2.677,0,0,0,.029.335q0.024,0.166.069,0.383h0.9Zm-2.95-.825a0.658,0.658,0,0,1-.2-0.505,0.8,0.8,0,0,1,.318-0.625,1.277,1.277,0,0,1,.848-0.266h0.983v0.78a1.159,1.159,0,0,1-.5.559,1.568,1.568,0,0,1-.859.244A0.84,0.84,0,0,1,103.457,84.1Zm5.066-.262a2.365,2.365,0,0,1-.292-1.219V82.428a2.331,2.331,0,0,1,.3-1.208,1.013,1.013,0,0,1,.941-0.5,0.945,0.945,0,0,1,.723.308,1.054,1.054,0,0,1,.287.747h0.8l0.009-.027a1.575,1.575,0,0,0-.5-1.219,1.818,1.818,0,0,0-1.319-.5,1.892,1.892,0,0,0-1.564.69,2.637,2.637,0,0,0-.554,1.7v0.186a2.646,2.646,0,0,0,.552,1.712,2.045,2.045,0,0,0,2.848.206,1.381,1.381,0,0,0,.534-1.1L111.27,83.4h-0.792a0.848,0.848,0,0,1-.3.658,1.034,1.034,0,0,1-.708.268A1.011,1.011,0,0,1,108.523,83.834Zm4.144-4.869v1.157H111.9V80.77h0.765v2.913a1.4,1.4,0,0,0,.316,1.009,1.138,1.138,0,0,0,.85.322,1.461,1.461,0,0,0,.378-0.051,0.769,0.769,0,0,0,.289-0.131l-0.12-.6a1.228,1.228,0,0,1-.155.042,0.825,0.825,0,0,1-.169.02,0.507,0.507,0,0,1-.372-0.137,0.653,0.653,0,0,1-.14-0.474V80.77h0.912V80.122h-0.912V78.965h-0.877Zm3.676,1.157h-0.877v4.8h0.877v-4.8Zm0-2.12h-0.877v0.891h0.877V78Zm1.815,2.12h-0.9l1.793,4.8h0.663l1.771-4.8h-0.894l-1.108,3.383-0.085.337h-0.026l-0.076-.337Zm7.07,4.72a2.105,2.105,0,0,0,.681-0.419l-0.343-.567a1.74,1.74,0,0,1-.576.348,2.21,2.21,0,0,1-.781.126,1.121,1.121,0,0,1-.979-0.45,1.982,1.982,0,0,1-.32-1.173l0.013-.022H126V82.224a2.459,2.459,0,0,0-.483-1.592,1.748,1.748,0,0,0-1.448-.6,1.878,1.878,0,0,0-1.461.676,2.485,2.485,0,0,0-.6,1.709v0.2a2.538,2.538,0,0,0,.581,1.738,2.039,2.039,0,0,0,1.617.661A2.722,2.722,0,0,0,125.228,84.843Zm-0.36-3.78a1.394,1.394,0,0,1,.258.865V82h-2.172l-0.009-.022a1.664,1.664,0,0,1,.368-0.9,0.953,0.953,0,0,1,.758-0.353A0.935,0.935,0,0,1,124.868,81.062Z"/>
  </g>
</svg>
