<svg xmlns="http://www.w3.org/2000/svg" width="178" height="122" viewBox="0 0 178 122">
  <defs>
    <style>
      .cls-1 {
        fill: #eef3fe;
      }

      .cls-1, .cls-11, .cls-3, .cls-4, .cls-5, .cls-7, .cls-8, .cls-9 {
        fill-rule: evenodd;
      }

      .cls-12, .cls-2 {
        fill: #fff;
      }

      .cls-2 {
        stroke: #e3e3e3;
        stroke-linejoin: round;
        stroke-width: 1px;
      }

      .cls-3 {
        fill: #343439;
      }

      .cls-4 {
        fill: #0dc77c;
      }

      .cls-5 {
        fill: #00ca72;
      }

      .cls-5, .cls-7 {
        opacity: 0.25;
      }

      .cls-6 {
        fill: #51aafc;
        opacity: 0.3;
      }

      .cls-7 {
        fill: #7879dc;
      }

      .cls-8 {
        fill: #3188d9;
      }

      .cls-9 {
        fill: #5557dc;
      }

      .cls-10 {
        fill: #c8d9fe;
      }

      .cls-11 {
        fill: #6292ff;
      }
    </style>
  </defs>
  <path class="cls-1" d="M16,68.019c0.518-12.348,3.106-22.638,28.987-30.87S78.739,25.287,91.68,17.569c10.426-6.394,42.473-5.832,57.974,15.435,10.784,14.8,10.007,34.037-2.07,47.334-10.26,11.3-31.5,20.432-52.8,24.7-21.692,4.344-37.893,1.057-53.939-5.117S15.655,82.768,16,68.019Z"/>
  <g id="Bar">
    <rect id="Rounded_Rectangle_593" data-name="Rounded Rectangle 593" class="cls-2" x="40" y="25" width="89" height="73" rx="5" ry="5"/>
    <g id="Bar-2" data-name="Bar">
      <path id="Address_" data-name="Address " class="cls-3" d="M52.048,40.9h1.006l-2.572-7.368H49.636L47.009,40.9h1.006L48.665,39h2.742ZM50.037,35h0.03l1.061,3.163H48.951Zm3.728,3.365a3.042,3.042,0,0,0,.56,1.91,1.85,1.85,0,0,0,1.552.726,1.941,1.941,0,0,0,.906-0.2,1.765,1.765,0,0,0,.656-0.6l0.15,0.693h0.756V33H57.358v3.011A1.733,1.733,0,0,0,56.73,35.5a1.92,1.92,0,0,0-.843-0.177,1.792,1.792,0,0,0-1.564.81,3.685,3.685,0,0,0-.558,2.131v0.106Zm0.986-.106a3.085,3.085,0,0,1,.338-1.538,1.125,1.125,0,0,1,1.048-.592,1.293,1.293,0,0,1,.728.2,1.53,1.53,0,0,1,.493.539v2.556a1.506,1.506,0,0,1-.49.567,1.3,1.3,0,0,1-.741.2,1.166,1.166,0,0,1-1.041-.5,2.345,2.345,0,0,1-.335-1.328V38.263Zm4.84,0.106a3.042,3.042,0,0,0,.56,1.91,1.85,1.85,0,0,0,1.551.726,1.942,1.942,0,0,0,.906-0.2,1.765,1.765,0,0,0,.656-0.6l0.15,0.693H64.17V33H63.184v3.011a1.733,1.733,0,0,0-.628-0.516,1.92,1.92,0,0,0-.843-0.177,1.792,1.792,0,0,0-1.564.81,3.684,3.684,0,0,0-.558,2.131v0.106Zm0.986-.106a3.085,3.085,0,0,1,.338-1.538,1.125,1.125,0,0,1,1.049-.592,1.292,1.292,0,0,1,.728.2,1.529,1.529,0,0,1,.493.539v2.556a1.506,1.506,0,0,1-.491.567,1.3,1.3,0,0,1-.741.2,1.166,1.166,0,0,1-1.041-.5,2.344,2.344,0,0,1-.335-1.328V38.263Zm7.762-2.885a1.42,1.42,0,0,0-.165-0.038,1.207,1.207,0,0,0-.21-0.018,1.318,1.318,0,0,0-.778.238,1.9,1.9,0,0,0-.568.663l-0.1-.8H65.641V40.9h0.986V36.988a1.2,1.2,0,0,1,.413-0.526,1.121,1.121,0,0,1,.658-0.187L68.2,36.3Zm4.184,5.433a2.364,2.364,0,0,0,.766-0.478L72.9,39.685a1.956,1.956,0,0,1-.648.4,2.458,2.458,0,0,1-.878.144,1.254,1.254,0,0,1-1.1-.514,2.282,2.282,0,0,1-.36-1.339l0.015-.025h3.463V37.823a2.836,2.836,0,0,0-.543-1.817,1.955,1.955,0,0,0-1.629-.683,2.1,2.1,0,0,0-1.644.772,2.861,2.861,0,0,0-.673,1.951v0.223a2.922,2.922,0,0,0,.653,1.984,2.278,2.278,0,0,0,1.819.754A3.02,3.02,0,0,0,72.522,40.811ZM72.117,36.5a1.607,1.607,0,0,1,.29.987v0.081H69.965l-0.01-.025a1.916,1.916,0,0,1,.413-1.03,1.067,1.067,0,0,1,.853-0.4A1.044,1.044,0,0,1,72.117,36.5ZM77.349,40a1.337,1.337,0,0,1-.823.225,1.5,1.5,0,0,1-.856-0.245,0.925,0.925,0,0,1-.39-0.777H74.339l-0.01.03a1.523,1.523,0,0,0,.566,1.24,2.761,2.761,0,0,0,3.155.071,1.447,1.447,0,0,0,.583-1.189,1.217,1.217,0,0,0-.515-1.017,3.857,3.857,0,0,0-1.511-.6,2.447,2.447,0,0,1-.918-0.324,0.6,0.6,0,0,1-.223-0.5,0.746,0.746,0,0,1,.258-0.567,1.114,1.114,0,0,1,.778-0.238,1.093,1.093,0,0,1,.778.288,0.866,0.866,0,0,1,.308.643h0.941l0.01-.03a1.457,1.457,0,0,0-.546-1.179,2.463,2.463,0,0,0-2.95-.03,1.45,1.45,0,0,0-.563,1.144,1.179,1.179,0,0,0,.513,1,3.91,3.91,0,0,0,1.469.582,2.376,2.376,0,0,1,.938.364,0.668,0.668,0,0,1,.248.536A0.691,0.691,0,0,1,77.349,40Zm5.36,0a1.337,1.337,0,0,1-.823.225,1.5,1.5,0,0,1-.856-0.245,0.925,0.925,0,0,1-.39-0.777H79.7l-0.01.03a1.524,1.524,0,0,0,.566,1.24,2.761,2.761,0,0,0,3.155.071,1.447,1.447,0,0,0,.583-1.189,1.217,1.217,0,0,0-.516-1.017,3.857,3.857,0,0,0-1.511-.6,2.446,2.446,0,0,1-.918-0.324,0.6,0.6,0,0,1-.223-0.5,0.746,0.746,0,0,1,.258-0.567,1.114,1.114,0,0,1,.778-0.238,1.093,1.093,0,0,1,.778.288,0.866,0.866,0,0,1,.308.643h0.941l0.01-.03a1.457,1.457,0,0,0-.546-1.179,2.463,2.463,0,0,0-2.95-.03,1.45,1.45,0,0,0-.563,1.144,1.179,1.179,0,0,0,.513,1,3.911,3.911,0,0,0,1.469.582,2.376,2.376,0,0,1,.938.364,0.667,0.667,0,0,1,.248.536A0.691,0.691,0,0,1,82.709,40Z"/>
      <g id="_1" data-name="1">
        <g id="_1_copy_5" data-name="1 copy 5">
          <path id="Permanent" class="cls-4" d="M46.991,55.886h0.752V53.3a1.4,1.4,0,0,0,.154.02q0.109,0.01.222,0.015c0.075,0,.148,0,0.218,0h0.15a3.584,3.584,0,0,0,.916-0.117,2.167,2.167,0,0,0,.789-0.385,1.94,1.94,0,0,0,.553-0.7,2.392,2.392,0,0,0,.209-1.052,2.171,2.171,0,0,0-.222-1.042,1.759,1.759,0,0,0-.576-0.643,2.2,2.2,0,0,0-.784-0.321,4.246,4.246,0,0,0-.848-0.088q-0.39,0-.789.029a4.276,4.276,0,0,0-.743.117v6.749Zm2.13-6.126a1.511,1.511,0,0,1,.521.229,1.177,1.177,0,0,1,.372.428,1.426,1.426,0,0,1,.141.667,1.731,1.731,0,0,1-.15.769,1.182,1.182,0,0,1-.394.468,1.52,1.52,0,0,1-.548.229,2.986,2.986,0,0,1-.612.063H48.305c-0.067,0-.136,0-0.209,0l-0.209-.01a0.446,0.446,0,0,1-.145-0.024V49.75a1.441,1.441,0,0,1,.345-0.049q0.217-.01.453-0.01A2.538,2.538,0,0,1,49.121,49.76ZM54.7,54.932a1.289,1.289,0,0,1-.462.273,1.729,1.729,0,0,1-.616.117,1.67,1.67,0,0,1-.675-0.122,1.107,1.107,0,0,1-.449-0.351,1.525,1.525,0,0,1-.254-0.56,3.187,3.187,0,0,1-.082-0.76h2.91a5.186,5.186,0,0,0,.054-0.711,2.645,2.645,0,0,0-.154-0.988,1.463,1.463,0,0,0-.4-0.58,1.331,1.331,0,0,0-.553-0.278A2.671,2.671,0,0,0,53.4,50.9a1.775,1.775,0,0,0-1.478.653,3.006,3.006,0,0,0-.517,1.9,4.309,4.309,0,0,0,.118,1.052,2.307,2.307,0,0,0,.363.8,1.616,1.616,0,0,0,.625.516,2.08,2.08,0,0,0,.9.18,2.772,2.772,0,0,0,.875-0.136,2,2,0,0,0,.684-0.37Zm-0.544-3.053a1.577,1.577,0,0,1,.263,1.037H52.167a1.568,1.568,0,0,1,.385-1.032,1.2,1.2,0,0,1,.857-0.3A0.941,0.941,0,0,1,54.152,51.878Zm4.406-.862a2.083,2.083,0,0,0-.589-0.1,0.991,0.991,0,0,0-.612.18,1.474,1.474,0,0,0-.413.511H56.908l-0.136-.594H56.264v4.87H56.99V52.477a1.022,1.022,0,0,1,.281-0.579,0.828,0.828,0,0,1,.616-0.229,1.537,1.537,0,0,1,.517.1Zm4.17,4.87V52.633a1.621,1.621,0,0,1,.363-0.779,0.918,0.918,0,0,1,.707-0.273,1,1,0,0,1,.44.083,0.6,0.6,0,0,1,.263.253,1.171,1.171,0,0,1,.127.429,5.077,5.077,0,0,1,.032.609v2.931h0.725V52.964a5.5,5.5,0,0,0-.077-1.013,1.56,1.56,0,0,0-.249-0.633,0.906,0.906,0,0,0-.435-0.326,1.955,1.955,0,0,0-.644-0.093,1.616,1.616,0,0,0-.83.214,1.521,1.521,0,0,0-.576.594,1.172,1.172,0,0,0-.431-0.628,1.282,1.282,0,0,0-.712-0.18,1.572,1.572,0,0,0-.838.2,2.176,2.176,0,0,0-.567.511H59.99l-0.136-.594H59.347v4.87h0.725v-3.35a1.465,1.465,0,0,1,.385-0.682,0.948,0.948,0,0,1,.694-0.273,0.871,0.871,0,0,1,.44.1,0.638,0.638,0,0,1,.258.292,1.557,1.557,0,0,1,.122.482A6.252,6.252,0,0,1,62,53.13v2.756h0.725Zm4.134-3.915a1.711,1.711,0,0,1,.295-0.145,2.818,2.818,0,0,1,.354-0.11q0.186-.045.363-0.07A2.364,2.364,0,0,1,68.2,51.62a0.973,0.973,0,0,1,.725.214,1.1,1.1,0,0,1,.2.75q0,0.234-.027.526a1.654,1.654,0,0,0-.249-0.02H68.6a5.239,5.239,0,0,0-.911.073,2.153,2.153,0,0,0-.707.243,1.216,1.216,0,0,0-.458.458,1.432,1.432,0,0,0-.163.716,1.5,1.5,0,0,0,.1.575,1.3,1.3,0,0,0,.286.433,1.244,1.244,0,0,0,.43.278,1.472,1.472,0,0,0,.539.1,1.757,1.757,0,0,0,.916-0.239,1.318,1.318,0,0,0,.295-0.234,1.6,1.6,0,0,0,.2-0.268h0.045l0.19,0.682h0.535a3.432,3.432,0,0,1-.1-0.594Q69.78,54.99,69.78,54.63q0-.5.027-1.052t0.027-1.139a2.821,2.821,0,0,0-.05-0.526,1.265,1.265,0,0,0-.2-0.482,1.069,1.069,0,0,0-.435-0.355,1.774,1.774,0,0,0-.757-0.136,4.184,4.184,0,0,0-.956.107,2.507,2.507,0,0,0-.8.331Zm0.48,3.092a0.745,0.745,0,0,1-.227-0.56,0.649,0.649,0,0,1,.122-0.4,0.835,0.835,0,0,1,.326-0.253,1.643,1.643,0,0,1,.471-0.127,4.335,4.335,0,0,1,.548-0.034q0.127,0,.258,0T69.1,53.7v0.808a1.161,1.161,0,0,1-.381.511,1.281,1.281,0,0,1-.345.185,1.312,1.312,0,0,1-.453.073A0.8,0.8,0,0,1,67.342,55.063Zm7.5,0.823V52.945a4.354,4.354,0,0,0-.1-1,1.6,1.6,0,0,0-.281-0.628A0.975,0.975,0,0,0,74,50.992a2.091,2.091,0,0,0-.653-0.093,1.806,1.806,0,0,0-.875.2,1.671,1.671,0,0,0-.585.511H71.847l-0.136-.594H71.2v4.87h0.725V52.555a1.488,1.488,0,0,1,.44-0.7,1.15,1.15,0,0,1,.793-0.278,0.77,0.77,0,0,1,.748.385,2.517,2.517,0,0,1,.2,1.144v2.776h0.725Zm4.36-.954a1.29,1.29,0,0,1-.462.273,1.729,1.729,0,0,1-.617.117,1.67,1.67,0,0,1-.675-0.122A1.107,1.107,0,0,1,77,54.849a1.525,1.525,0,0,1-.254-0.56,3.187,3.187,0,0,1-.082-0.76h2.91a5.17,5.17,0,0,0,.054-0.711,2.643,2.643,0,0,0-.154-0.988,1.462,1.462,0,0,0-.4-0.58,1.331,1.331,0,0,0-.553-0.278A2.671,2.671,0,0,0,77.9,50.9a1.775,1.775,0,0,0-1.478.653,3.006,3.006,0,0,0-.517,1.9,4.309,4.309,0,0,0,.118,1.052,2.305,2.305,0,0,0,.363.8,1.616,1.616,0,0,0,.626.516,2.079,2.079,0,0,0,.9.18,2.773,2.773,0,0,0,.875-0.136,2,2,0,0,0,.684-0.37Zm-0.544-3.053a1.577,1.577,0,0,1,.263,1.037H76.67a1.568,1.568,0,0,1,.385-1.032,1.2,1.2,0,0,1,.857-0.3A0.941,0.941,0,0,1,78.655,51.878ZM84.4,55.886V52.945a4.354,4.354,0,0,0-.1-1,1.6,1.6,0,0,0-.281-0.628,0.976,0.976,0,0,0-.467-0.326,2.091,2.091,0,0,0-.653-0.093,1.806,1.806,0,0,0-.875.2,1.671,1.671,0,0,0-.585.511H81.411l-0.136-.594H80.767v4.87h0.725V52.555a1.489,1.489,0,0,1,.44-0.7,1.151,1.151,0,0,1,.793-0.278,0.77,0.77,0,0,1,.748.385,2.517,2.517,0,0,1,.2,1.144v2.776H84.4ZM85.127,51.7h0.707v2.844a2.089,2.089,0,0,0,.227,1.125,0.871,0.871,0,0,0,.78.336,2.407,2.407,0,0,0,.626-0.078,2.665,2.665,0,0,0,.535-0.2l-0.163-.594q-0.2.088-.363,0.141a1.288,1.288,0,0,1-.4.054,0.42,0.42,0,0,1-.4-0.209A1.564,1.564,0,0,1,86.56,54.4V51.7h1.233V51.017H86.56V49.828l-0.725.224v0.964H85.127V51.7Z"/>
          <path id="Rounded_Rectangle_598_copy" data-name="Rounded Rectangle 598 copy" class="cls-5" d="M94,48h27a1,1,0,0,1,0,2H94A1,1,0,0,1,94,48Zm0,5h15a1,1,0,0,1,0,2H94A1,1,0,0,1,94,53Z"/>
          <rect id="Rounded_Rectangle_598_copy_2" data-name="Rounded Rectangle 598 copy 2" class="cls-6" x="77" y="66" width="30" height="2" rx="1" ry="1"/>
          <rect id="Rounded_Rectangle_598_copy_2-2" data-name="Rounded Rectangle 598 copy 2" class="cls-6" x="77" y="71" width="15" height="2" rx="1" ry="1"/>
          <path id="Rounded_Rectangle_598_copy_3" data-name="Rounded Rectangle 598 copy 3" class="cls-7" d="M67,82H97a1,1,0,0,1,1,1h0a1,1,0,0,1-1,1H67a1,1,0,0,1-1-1h0A1,1,0,0,1,67,82Zm0,5H79a1,1,0,0,1,0,2H67A1,1,0,0,1,67,87Z"/>
          <path id="Billing" class="cls-8" d="M50.654,65.8a1.461,1.461,0,0,0-.5-0.5,1.932,1.932,0,0,0-.672-0.245,4.292,4.292,0,0,0-.727-0.064q-0.531,0-.979.039t-0.786.1v6.739a2.463,2.463,0,0,0,.4.073q0.229,0.024.457,0.039t0.439,0.015h0.366a3.317,3.317,0,0,0,.878-0.117,2.305,2.305,0,0,0,.764-0.362,1.84,1.84,0,0,0,.54-0.631,1.919,1.919,0,0,0,.206-0.914,1.846,1.846,0,0,0-.119-0.695,1.6,1.6,0,0,0-.311-0.5,1.434,1.434,0,0,0-.444-0.323,2.123,2.123,0,0,0-.526-0.166V68.248a1.69,1.69,0,0,0,.54-0.254,1.512,1.512,0,0,0,.375-0.386,1.708,1.708,0,0,0,.219-0.474,1.8,1.8,0,0,0,.073-0.5A1.579,1.579,0,0,0,50.654,65.8Zm-2.181,5.482q-0.146,0-.284-0.015l-0.256-.02a0.9,0.9,0,0,1-.183-0.029V68.766h0.8a3.78,3.78,0,0,1,.6.049,1.626,1.626,0,0,1,.544.186,1.084,1.084,0,0,1,.393.381,1.218,1.218,0,0,1,.151.646,1.182,1.182,0,0,1-.123.557,1.194,1.194,0,0,1-.334.4,1.367,1.367,0,0,1-.485.235,2.186,2.186,0,0,1-.567.073Q48.619,71.29,48.472,71.285Zm-0.723-3.2V65.754a2.484,2.484,0,0,1,.38-0.044q0.251-.015.553-0.015a2.368,2.368,0,0,1,.5.054,1.284,1.284,0,0,1,.439.181,0.931,0.931,0,0,1,.306.337,1.109,1.109,0,0,1,.114.533,1.085,1.085,0,0,1-.087.435,1.134,1.134,0,0,1-.238.352,1.67,1.67,0,0,1-.343.264,2.413,2.413,0,0,1-.412.191q-0.146.02-.366,0.029t-0.375.01H47.75Zm4.664,3.834h0.732V67.025H52.414v4.891ZM52.4,65.91a0.481,0.481,0,0,0,.361.147,0.527,0.527,0,0,0,.375-0.147,0.489,0.489,0,0,0,.155-0.372,0.538,0.538,0,0,0-.155-0.386,0.5,0.5,0,0,0-.375-0.161,0.459,0.459,0,0,0-.361.161,0.565,0.565,0,0,0-.142.386A0.513,0.513,0,0,0,52.4,65.91Zm3.123-.841H54.792v5.869a1.125,1.125,0,0,0,.265.846,0.948,0.948,0,0,0,.677.249,2.5,2.5,0,0,0,.453-0.049,1.451,1.451,0,0,0,.407-0.127l-0.082-.616a1.4,1.4,0,0,1-.311.088,1.813,1.813,0,0,1-.256.019,0.365,0.365,0,0,1-.311-0.147,0.835,0.835,0,0,1-.11-0.489V65.069Zm2.67,0H57.462v5.869a1.125,1.125,0,0,0,.265.846,0.948,0.948,0,0,0,.677.249,2.5,2.5,0,0,0,.453-0.049,1.453,1.453,0,0,0,.407-0.127l-0.082-.616a1.4,1.4,0,0,1-.311.088,1.813,1.813,0,0,1-.256.019A0.365,0.365,0,0,1,58.3,71.2a0.834,0.834,0,0,1-.11-0.489V65.069Zm2.012,6.847h0.732V67.025H60.206v4.891ZM60.192,65.91a0.481,0.481,0,0,0,.361.147,0.527,0.527,0,0,0,.375-0.147,0.489,0.489,0,0,0,.155-0.372,0.537,0.537,0,0,0-.155-0.386,0.5,0.5,0,0,0-.375-0.161,0.46,0.46,0,0,0-.361.161,0.565,0.565,0,0,0-.142.386A0.513,0.513,0,0,0,60.192,65.91Zm5.976,6.006V68.962a4.358,4.358,0,0,0-.1-1,1.609,1.609,0,0,0-.283-0.631A0.984,0.984,0,0,0,65.318,67a2.118,2.118,0,0,0-.659-0.093,1.829,1.829,0,0,0-.883.2,1.686,1.686,0,0,0-.59.513H63.151l-0.137-.6H62.5v4.891h0.732V68.571a1.493,1.493,0,0,1,.444-0.7,1.164,1.164,0,0,1,.8-0.279,0.777,0.777,0,0,1,.755.386,2.518,2.518,0,0,1,.206,1.149v2.788h0.732Zm4.838-4.685a4.713,4.713,0,0,0-.663-0.205,3.906,3.906,0,0,0-.892-0.088,2.049,2.049,0,0,0-1.646.65,2.848,2.848,0,0,0-.558,1.9,3.363,3.363,0,0,0,.434,1.917,1.547,1.547,0,0,0,1.358.616,1.57,1.57,0,0,0,.741-0.152,1.252,1.252,0,0,0,.466-0.435h0.037v0.47a3.247,3.247,0,0,1-.055.641,0.96,0.96,0,0,1-.2.44,0.8,0.8,0,0,1-.389.245,2.213,2.213,0,0,1-.626.073,2.345,2.345,0,0,1-.668-0.078q-0.256-.078-0.466-0.166l-0.192.665a2.508,2.508,0,0,0,.572.191,4.265,4.265,0,0,0,.883.073,1.947,1.947,0,0,0,1.395-.45,1.855,1.855,0,0,0,.471-1.4v-4.91ZM68.629,71.2a1.035,1.035,0,0,1-.357-0.382,1.905,1.905,0,0,1-.2-0.587,4.1,4.1,0,0,1-.064-0.753,2.261,2.261,0,0,1,.357-1.408,1.181,1.181,0,0,1,.979-0.45,2.056,2.056,0,0,1,.933.186v2.5a1.445,1.445,0,0,1-.375.778,1.026,1.026,0,0,1-.732.249A1,1,0,0,1,68.629,71.2Z"/>
          <path id="Site" class="cls-9" d="M50.1,86.665a1.04,1.04,0,0,1-.3.354,1.244,1.244,0,0,1-.455.2,2.418,2.418,0,0,1-.564.063,3.312,3.312,0,0,1-.919-0.118,2.811,2.811,0,0,1-.618-0.241l-0.255.717a2.946,2.946,0,0,0,.691.247A4.761,4.761,0,0,0,48.808,88a2.828,2.828,0,0,0,.91-0.136A1.946,1.946,0,0,0,50.4,87.48a1.647,1.647,0,0,0,.428-0.6,2.024,2.024,0,0,0,.145-0.785,1.635,1.635,0,0,0-.227-0.892,2.321,2.321,0,0,0-.568-0.615,4.469,4.469,0,0,0-.741-0.451q-0.4-.194-0.741-0.393a2.343,2.343,0,0,1-.569-0.451,0.942,0.942,0,0,1,.073-1.3,1.261,1.261,0,0,1,.9-0.286,3.823,3.823,0,0,1,.914.1,2.848,2.848,0,0,1,.614.21l0.227-.717a2.581,2.581,0,0,0-.709-0.223,5.372,5.372,0,0,0-1.01-.087,2.132,2.132,0,0,0-1.473.465,1.608,1.608,0,0,0-.518,1.26,1.717,1.717,0,0,0,.227.926,2.16,2.16,0,0,0,.568.611,3.941,3.941,0,0,0,.741.422,7.163,7.163,0,0,1,.741.373,2.293,2.293,0,0,1,.568.456,0.965,0.965,0,0,1,.227.664A1.056,1.056,0,0,1,50.1,86.665Zm2.151,1.221h0.728V83.04H52.255v4.846Zm-0.014-5.951a0.479,0.479,0,0,0,.359.145,0.525,0.525,0,0,0,.373-0.145,0.484,0.484,0,0,0,.155-0.368,0.532,0.532,0,0,0-.155-0.383,0.5,0.5,0,0,0-.373-0.16,0.458,0.458,0,0,0-.359.16,0.559,0.559,0,0,0-.141.383A0.507,0.507,0,0,0,52.241,81.936Zm1.7,1.783h0.709v2.83a2.066,2.066,0,0,0,.227,1.119,0.877,0.877,0,0,0,.782.334,2.436,2.436,0,0,0,.627-0.078,2.682,2.682,0,0,0,.537-0.2l-0.164-.591q-0.2.087-.364,0.141a1.3,1.3,0,0,1-.4.053,0.422,0.422,0,0,1-.4-0.208,1.544,1.544,0,0,1-.118-0.712V83.719h1.237V83.04H55.374V81.858l-0.727.223v0.96H53.937v0.678Zm6.63,3.218a1.294,1.294,0,0,1-.464.271,1.746,1.746,0,0,1-.618.116,1.69,1.69,0,0,1-.678-0.121,1.11,1.11,0,0,1-.45-0.349A1.512,1.512,0,0,1,58.1,86.3a3.146,3.146,0,0,1-.082-0.756H60.94a5.107,5.107,0,0,0,.055-0.707,2.61,2.61,0,0,0-.155-0.984,1.455,1.455,0,0,0-.4-0.577A1.341,1.341,0,0,0,59.885,83a2.7,2.7,0,0,0-.619-0.073,1.787,1.787,0,0,0-1.482.649,2.975,2.975,0,0,0-.518,1.89,4.253,4.253,0,0,0,.118,1.047,2.285,2.285,0,0,0,.364.8,1.619,1.619,0,0,0,.628.514,2.1,2.1,0,0,0,.9.179,2.8,2.8,0,0,0,.878-0.136A2.01,2.01,0,0,0,60.84,87.5ZM60.022,83.9a1.56,1.56,0,0,1,.264,1.032H58.03a1.554,1.554,0,0,1,.387-1.027,1.211,1.211,0,0,1,.859-0.3A0.948,0.948,0,0,1,60.022,83.9Z"/>
        </g>
      </g>
    </g>
  </g>
  <g id="location">
    <ellipse class="cls-10" cx="122" cy="98" rx="13" ry="3"/>
    <path id="Forma_1" data-name="Forma 1" class="cls-11" d="M122,50c-9.373,0-17,7.927-17,17.671a17.818,17.818,0,0,0,1.487,7.213c4.25,9.667,12.4,19.874,14.8,22.772a0.923,0.923,0,0,0,1.434,0c2.4-2.9,10.545-13.1,14.8-22.772A17.8,17.8,0,0,0,139,67.672C139,57.928,131.373,50,122,50Z"/>
    <circle id="Forma_1_copy_2" data-name="Forma 1 copy 2" class="cls-12" cx="122" cy="67" r="9"/>
  </g>
</svg>
