<svg id="icon" xmlns="http://www.w3.org/2000/svg" width="178" height="122" viewBox="0 0 178 122">
  <defs>
    <style>
      .cls-1 {
        fill: #eef3fe;
      }

      .cls-1, .cls-10, .cls-2, .cls-3, .cls-4, .cls-5, .cls-6, .cls-7, .cls-8, .cls-9 {
        fill-rule: evenodd;
      }

      .cls-2 {
        fill: #f3d5af;
      }

      .cls-3 {
        fill: #5387ff;
      }

      .cls-4 {
        fill: #343439;
      }

      .cls-5 {
        fill: #fbe3c5;
      }

      .cls-6 {
        fill: #bbd0ff;
      }

      .cls-7 {
        fill: #51aafc;
      }

      .cls-8 {
        fill: #b9dcfc;
      }

      .cls-9 {
        fill: #8388e4;
      }

      .cls-10 {
        fill: #bcbfff;
      }

      .cls-11 {
        fill: #878a8f;
        opacity: 0.5;
      }

      .cls-12 {
        fill: #babec6;
      }
    </style>
  </defs>
  <path class="cls-1" d="M16,72.019c0.518-12.348,3.106-22.638,28.987-30.87S78.739,29.287,91.68,21.569c10.426-6.394,42.473-5.832,57.974,15.435,10.784,14.8,10.007,34.037-2.07,47.334-10.26,11.3-31.5,20.432-52.8,24.7-21.692,4.344-37.893,1.057-53.939-5.117S15.655,86.768,16,72.019Z"/>
  <g id="icon-2" data-name="icon">
    <g>
      <g id="Group_1_copy_2" data-name="Group 1 copy 2">
        <path class="cls-2" d="M90.133,32.365a7.282,7.282,0,0,1-4-1.143v3.949l3.979,4.971L94.1,35.171V31.116A6.9,6.9,0,0,1,90.133,32.365Z"/>
        <path class="cls-3" d="M94.213,33.716L90.191,38.67,86.17,33.716S71,33.5,71,46V57c0,3.073,1.678,5,5,5h28a3.659,3.659,0,0,0,4-4V47C108,33.787,94.213,33.716,94.213,33.716Z"/>
        <path class="cls-4" d="M90.273,9.848C84.95,9.848,80,13.7,80,19v4c0.644-.594,2.2-0.6,3.09-0.485V22.037a0.656,0.656,0,0,1,.7-0.651A17.323,17.323,0,0,0,94.18,18.611a0.659,0.659,0,0,1,.84.1c2.451,2.621,2.437,2.52,2.437,2.862v0.938A3.058,3.058,0,0,1,100,23V19C100,13.7,95.6,9.848,90.273,9.848Z"/>
        <path class="cls-5" d="M95.012,16.856a0.659,0.659,0,0,0-.84-0.1,17.324,17.324,0,0,1-10.386,2.775,0.655,0.655,0,0,0-.7.651v5.728a7.185,7.185,0,0,0,14.366,0v-6.19C97.449,19.376,97.464,19.477,95.012,16.856Z"/>
        <path class="cls-5" d="M83.381,26.376V21.082a2.951,2.951,0,0,0-3.36,2.732,2.822,2.822,0,0,0,3.364,2.733C83.384,26.49,83.381,26.433,83.381,26.376Z"/>
        <path id="Shape_5_copy" data-name="Shape 5 copy" class="cls-5" d="M97.161,21.228V26.5a2.951,2.951,0,0,0,3.365-2.72,2.822,2.822,0,0,0-3.369-2.721C97.158,21.114,97.161,21.171,97.161,21.228Z"/>
        <path class="cls-6" d="M86.169,57.1a0.664,0.664,0,0,0,.154.533h0L89.9,61.563a0.5,0.5,0,0,0,.743,0l3.577-3.933h0a0.666,0.666,0,0,0,.154-0.533s-2.422-13.453-2.583-14.4l-0.008-.017,1.353-2.033-2.863-2.029v0l0,0,0,0v0l-2.863,2.029,1.353,2.033-0.009.021c-0.167.986-2.582,14.4-2.582,14.4a0.664,0.664,0,0,0,.154.533L89.9,61.563a0.5,0.5,0,0,0,.743,0l1.133-1.246"/>
      </g>
      <g>
        <path class="cls-2" d="M57.884,76.493a7.283,7.283,0,0,1-4-1.142V79.3l3.98,4.971L61.846,79.3V75.244A6.9,6.9,0,0,1,57.884,76.493Z"/>
        <path id="Shape_1_copy_3" data-name="Shape 1 copy 3" class="cls-7" d="M62.213,78.716L58.191,83.67,54.17,78.716S39,78.5,39,91v11c0,3.073,1.678,5,5,5H72a3.659,3.659,0,0,0,4-4V92C76,78.787,62.213,78.716,62.213,78.716Z"/>
        <path class="cls-4" d="M58.024,53.976A10.33,10.33,0,0,0,48,64v3c0.644-.594,1.946-0.476,2.841-0.357V66.165a0.655,0.655,0,0,1,.7-0.651,17.325,17.325,0,0,0,10.387-2.775,0.659,0.659,0,0,1,.84.1c2.452,2.621,2.437,2.52,2.437,2.862v0.938c0.981-.146,2.188-0.2,2.792.359V64A10.287,10.287,0,0,0,58.024,53.976Z"/>
        <path class="cls-5" d="M62.763,60.984a0.659,0.659,0,0,0-.84-0.1,17.323,17.323,0,0,1-10.386,2.775,0.655,0.655,0,0,0-.7.651v5.728a7.185,7.185,0,0,0,14.367,0v-6.19C65.2,63.5,65.215,63.6,62.763,60.984Z"/>
        <path class="cls-5" d="M51.132,70.5V65.21a2.951,2.951,0,0,0-3.36,2.732,2.822,2.822,0,0,0,3.364,2.733C51.135,70.618,51.132,70.561,51.132,70.5Z"/>
        <path id="Shape_5_copy-2" data-name="Shape 5 copy" class="cls-5" d="M64.912,65.356v5.271a2.951,2.951,0,0,0,3.365-2.72,2.822,2.822,0,0,0-3.369-2.721C64.909,65.242,64.912,65.3,64.912,65.356Z"/>
        <path class="cls-8" d="M53.92,101.378a0.664,0.664,0,0,0,.154.533h0l3.577,3.933a0.5,0.5,0,0,0,.743,0l3.577-3.933h0a0.665,0.665,0,0,0,.154-0.533s-2.422-13.453-2.583-14.4l-0.008-.017,1.353-2.032L58.025,82.9v0l0,0,0,0v0l-2.863,2.029,1.353,2.032L56.5,86.98c-0.167.986-2.582,14.4-2.582,14.4a0.664,0.664,0,0,0,.154.533l3.577,3.933a0.5,0.5,0,0,0,.743,0l1.133-1.245"/>
      </g>
      <g id="Group_1_copy" data-name="Group 1 copy">
        <path class="cls-2" d="M121.838,76.646a7.284,7.284,0,0,1-4-1.142v3.948l3.98,4.971,3.979-4.971V75.4A6.9,6.9,0,0,1,121.838,76.646Z"/>
        <path id="Shape_1_copy_4" data-name="Shape 1 copy 4" class="cls-9" d="M126.213,78.716l-4.022,4.953-4.021-4.953S103,78.5,103,91v11c0,3.073,1.678,5,5,5h28a3.659,3.659,0,0,0,4-4V92C140,78.787,126.213,78.716,126.213,78.716Z"/>
        <path class="cls-4" d="M121.978,54.129A10.154,10.154,0,0,0,112,64v4a4.235,4.235,0,0,1,2.8-1.2V66.318a0.655,0.655,0,0,1,.7-0.651,17.322,17.322,0,0,0,10.386-2.775,0.659,0.659,0,0,1,.84.1c2.452,2.621,2.437,2.52,2.437,2.862v0.938A4.13,4.13,0,0,1,132,68V64A10.192,10.192,0,0,0,121.978,54.129Z"/>
        <path class="cls-5" d="M126.717,61.137a0.658,0.658,0,0,0-.839-0.1,17.327,17.327,0,0,1-10.387,2.775,0.655,0.655,0,0,0-.7.651v5.728a7.184,7.184,0,0,0,14.366,0V64C129.154,63.657,129.169,63.758,126.717,61.137Z"/>
        <path class="cls-5" d="M115.086,70.657V65.363a2.951,2.951,0,0,0-3.36,2.732,2.823,2.823,0,0,0,3.364,2.733C115.089,70.771,115.086,70.714,115.086,70.657Z"/>
        <path id="Shape_5_copy-3" data-name="Shape 5 copy" class="cls-5" d="M128.866,65.509V70.78a2.951,2.951,0,0,0,3.365-2.72,2.822,2.822,0,0,0-3.369-2.722C128.863,65.4,128.866,65.452,128.866,65.509Z"/>
        <path class="cls-10" d="M117.874,101.378a0.667,0.667,0,0,0,.154.533h0l3.578,3.933a0.5,0.5,0,0,0,.743,0l3.577-3.933h0a0.667,0.667,0,0,0,.154-0.533s-2.422-13.453-2.582-14.4l-0.009-.017,1.353-2.032L121.979,82.9v0l0,0,0,0v0l-2.863,2.029,1.353,2.032-0.009.021c-0.167.986-2.582,14.4-2.582,14.4a0.667,0.667,0,0,0,.154.533l3.577,3.933a0.5,0.5,0,0,0,.744,0l1.132-1.245"/>
      </g>
    </g>
    <rect class="cls-11" x="89" y="64" width="2" height="13"/>
    <rect id="Rectangle_11_copy" data-name="Rectangle 11 copy" class="cls-12" x="73" y="77" width="17" height="2"/>
    <rect id="Rectangle_11_copy_2" data-name="Rectangle 11 copy 2" class="cls-12" x="90" y="77" width="17" height="2"/>
  </g>
</svg>
