<svg xmlns="http://www.w3.org/2000/svg" width="178" height="122" viewBox="0 0 178 122">
  <defs>
    <style>
      .cls-1 {
        fill: #eef3fe;
      }

      .cls-1, .cls-2, .cls-3, .cls-4, .cls-5, .cls-6, .cls-7 {
        fill-rule: evenodd;
      }

      .cls-2 {
        fill: #f3d5af;
      }

      .cls-3 {
        fill: #343439;
      }

      .cls-4 {
        fill: #57b6f1;
      }

      .cls-5, .cls-8 {
        fill: #fff;
      }

      .cls-5 {
        opacity: 0.5;
      }

      .cls-6 {
        fill: #fbe3c5;
      }

      .cls-7 {
        fill: #30d28e;
        stroke: #fff;
        stroke-linejoin: round;
        stroke-width: 2px;
      }
    </style>
  </defs>
  <path class="cls-1" d="M19,68.019c0.518-12.348,3.106-22.638,28.987-30.87S81.739,25.287,94.68,17.569c10.426-6.394,42.473-5.832,57.974,15.435,10.784,14.8,10.007,34.037-2.07,47.334-10.26,11.3-31.5,20.432-52.8,24.7-21.692,4.344-37.893,1.057-53.939-5.117S18.655,82.768,19,68.019Z"/>
  <g id="user-2">
    <path class="cls-2" d="M81.756,56.97s-2.469,5.279-4.923,6.132L87.91,71.687l11.077-1.226L99,63a14.487,14.487,0,0,0-4.936-6.03C89.261,53.309,81.756,56.97,81.756,56.97Z"/>
    <path class="cls-3" d="M72,63V35.423S71.684,21.788,88.818,22a21.2,21.2,0,0,1,7.676,1.667c5.672,2.159,6.392,12.724-4.226,10.876C88.977,34.11,79,31.868,76.226,39.633c-2.817,7.927,4.135,16.571,5.692,17.63C81.042,61.717,72,63,72,63Z"/>
    <path class="cls-3" d="M100.461,30.248S104.108,30,104,35.861l-0.086,25.963s-8.986-.045-9.142-4.473c0,0,9.156-8.374,4.657-24.91A1.933,1.933,0,0,1,100.461,30.248Z"/>
    <path class="cls-4" d="M79.373,60.757S54.152,64.264,55,92.933c0,0,30.621,20.573,63.52,1.226,0,0,3.977-28.506-21.994-34.341C96.525,59.818,89.066,72.447,79.373,60.757Z"/>
    <path class="cls-5" d="M85.448,65.95a4.685,4.685,0,0,0,1.231,4.906l-2,29.874s-0.116,2.1,3,2.178c2.263,0.056,3.294-1.063,3.422-2.178L89.141,70.856s2.233-2.574,1.231-4.906C90.322,65.241,85.938,65.622,85.448,65.95Z"/>
    <path class="cls-6" d="M100,32s-1.516,3.891-9,2c0,0-11.354-2.265-14.6,5.019l-0.086.7s-1.706-.276-1.9,2.807c0,0-1.071,4.254,1.585,5.472,0,0,2.408,11.065,12.214,11.983,0.135-.054,9.871-0.05,11.95-12.476A5.412,5.412,0,0,0,103,42s-0.384-2.141-2-2C101,40,100.4,33.149,100,32Z"/>
  </g>
  <path id="Forma_1" data-name="Forma 1" class="cls-7" d="M131.92,86.216a0.748,0.748,0,0,0-.739-0.567,2.541,2.541,0,0,1-1.739-4.422,0.64,0.64,0,0,0,.07-0.868,11.421,11.421,0,0,0-1.822-1.841,0.641,0.641,0,0,0-.875.071,2.649,2.649,0,0,1-2.868.645,2.555,2.555,0,0,1-1.554-2.5,0.638,0.638,0,0,0-.565-0.672,11.471,11.471,0,0,0-2.587-.007,0.64,0.64,0,0,0-.57.658A2.56,2.56,0,0,1,117.1,79.17a2.657,2.657,0,0,1-2.847-.649,0.641,0.641,0,0,0-.868-0.073,11.382,11.382,0,0,0-1.861,1.84,0.639,0.639,0,0,0,.068.875,2.55,2.55,0,0,1,.643,2.871,2.658,2.658,0,0,1-2.5,1.555,0.626,0.626,0,0,0-.665.565,11.564,11.564,0,0,0,0,2.617,0.761,0.761,0,0,0,.754.566,2.522,2.522,0,0,1,2.367,1.577,2.559,2.559,0,0,1-.643,2.845,0.64,0.64,0,0,0-.07.867,11.446,11.446,0,0,0,1.82,1.842,0.639,0.639,0,0,0,.875-0.069,2.647,2.647,0,0,1,2.868-.645,2.551,2.551,0,0,1,1.556,2.5,0.64,0.64,0,0,0,.565.672,11.448,11.448,0,0,0,2.587.007,0.641,0.641,0,0,0,.57-0.659,2.556,2.556,0,0,1,1.574-2.454,2.653,2.653,0,0,1,2.848.648,0.644,0.644,0,0,0,.869.073,11.451,11.451,0,0,0,1.86-1.841,0.638,0.638,0,0,0-.068-0.874,2.55,2.55,0,0,1-.645-2.871,2.576,2.576,0,0,1,2.353-1.56l0.143,0a0.641,0.641,0,0,0,.673-0.564A11.565,11.565,0,0,0,131.92,86.216Z"/>
  <circle id="Forma_1_copy" data-name="Forma 1 copy" class="cls-8" cx="120.5" cy="87.5" r="3.5"/>
</svg>
