<svg id="icon" xmlns="http://www.w3.org/2000/svg" width="181" height="122" viewBox="0 0 181 122">
  <defs>
    <style>
      .cls-1 {
        fill: #eef3fe;
      }

      .cls-1, .cls-10, .cls-11, .cls-12, .cls-3, .cls-4, .cls-5, .cls-6, .cls-7, .cls-9 {
        fill-rule: evenodd;
      }

      .cls-2, .cls-5 {
        fill: #fff;
      }

      .cls-2 {
        stroke: #dbdedf;
        stroke-linejoin: round;
        stroke-width: 1px;
      }

      .cls-3 {
        fill: #f3d5af;
      }

      .cls-4 {
        fill: #5387ff;
      }

      .cls-5 {
        opacity: 0.5;
      }

      .cls-6 {
        fill: #fbe3c5;
      }

      .cls-7 {
        fill: #343439;
      }

      .cls-8 {
        fill: #ddd8d8;
      }

      .cls-9 {
        fill: #33e2a6;
      }

      .cls-10 {
        fill: #8388e4;
      }

      .cls-11 {
        fill: #51aafc;
      }

      .cls-12 {
        fill: #8f94e7;
        opacity: 0.85;
      }
    </style>
  </defs>
  <path class="cls-1" d="M16,75.019c0.518-12.348,3.106-22.638,28.987-30.87S78.739,32.287,91.68,24.569c10.426-6.394,42.473-5.832,57.974,15.435,10.784,14.8,10.007,34.037-2.07,47.334-10.26,11.3-31.5,20.432-52.8,24.7-21.692,4.344-37.893,1.057-53.939-5.117S15.655,89.768,16,75.019Z"/>
  <g id="icon-2" data-name="icon">
    <g id="_1" data-name="1">
      <circle class="cls-2" cx="91.5" cy="28.5" r="21.188"/>
      <g id="user-1">
        <path class="cls-3" d="M89.354,27.206s-0.8,1.709-1.593,1.985l3.585,2.779,3.585-.4-0.4-2.382a5.707,5.707,0,0,1-1.2-1.985C92.53,25.426,89.354,27.206,89.354,27.206Z"/>
        <path class="cls-4" d="M88.675,28.388S79.745,29.257,81,39h21s0.722-9.112-7.769-10.814C94.231,28.186,91.742,32.229,88.675,28.388Z"/>
        <path class="cls-5" d="M90.549,30.113a1.517,1.517,0,0,0,.4,1.588L90.3,38.106s-0.037.681,0.972,0.705a0.934,0.934,0,0,0,1.108-.705L91.745,31.7a1.743,1.743,0,0,0,.4-1.588C92.127,29.883,90.708,30.006,90.549,30.113Z"/>
        <path class="cls-6" d="M86.566,21.648a1.51,1.51,0,0,0,.8,2.382,3.969,3.969,0,0,0,1.992,3.176c0.174,0.05,4.858,1.5,5.577-3.176a1.808,1.808,0,0,0,.8-2.382s-0.578-2.81-.8-2.779-3.984-1.191-3.984-1.191l-4.382,1.985v1.985"/>
        <path class="cls-7" d="M86.167,21.648a3.509,3.509,0,0,0,1.992-.794s3.985,0.6,5.26-.906c0,0,.91-0.142,1.911,1.3,0,0,.166,1.513.8,0,0,0,.945-4.253-2.789-5.955C93.338,15.3,85.87,12.572,86.167,21.648Z"/>
      </g>
      <rect id="Rounded_Rectangle_598" data-name="Rounded Rectangle 598" class="cls-8" x="84" y="42" width="13" height="2" rx="0.8" ry="0.8"/>
    </g>
    <g id="_2" data-name="2">
      <circle class="cls-2" cx="90.5" cy="91.5" r="21.188"/>
      <g id="user-1-2" data-name="user-1">
        <path class="cls-3" d="M88.354,90.206s-0.8,1.709-1.593,1.985l3.585,2.779,3.585-.4-0.4-2.382a5.707,5.707,0,0,1-1.2-1.985C91.53,88.426,88.354,90.206,88.354,90.206Z"/>
        <path class="cls-9" d="M87.675,91.388S78.745,92.257,80,102h21s0.722-9.112-7.769-10.814C93.231,91.186,90.742,95.229,87.675,91.388Z"/>
        <path class="cls-5" d="M89.549,93.113a1.517,1.517,0,0,0,.4,1.588L89.3,101.106s-0.037.681,0.972,0.705a0.933,0.933,0,0,0,1.108-.705L90.745,94.7a1.743,1.743,0,0,0,.4-1.588C91.127,92.883,89.708,93.006,89.549,93.113Z"/>
        <path class="cls-6" d="M85.566,84.648a1.51,1.51,0,0,0,.8,2.382,3.969,3.969,0,0,0,1.992,3.176c0.174,0.05,4.858,1.5,5.577-3.176a1.808,1.808,0,0,0,.8-2.382s-0.578-2.81-.8-2.779-3.984-1.191-3.984-1.191l-4.382,1.985v1.985"/>
        <path class="cls-7" d="M85.167,84.648a3.509,3.509,0,0,0,1.992-.794s3.985,0.6,5.26-.907c0,0,.91-0.142,1.911,1.3,0,0,.166,1.513.8,0,0,0,.945-4.253-2.789-5.955C92.338,78.3,84.87,75.572,85.167,84.648Z"/>
      </g>
      <rect id="Rounded_Rectangle_598-2" data-name="Rounded Rectangle 598" class="cls-8" x="83" y="105" width="13" height="2" rx="0.8" ry="0.8"/>
    </g>
    <g id="_3" data-name="3">
      <circle class="cls-2" cx="37.5" cy="91.5" r="21.188"/>
      <g id="user-1-3" data-name="user-1">
        <path class="cls-3" d="M35.354,90.206s-0.8,1.709-1.593,1.985l3.585,2.779,3.585-.4-0.4-2.382a5.707,5.707,0,0,1-1.2-1.985C38.53,88.426,35.354,90.206,35.354,90.206Z"/>
        <path class="cls-10" d="M34.675,91.388S25.745,92.257,27,102H48s0.722-9.112-7.769-10.814C40.231,91.186,37.742,95.229,34.675,91.388Z"/>
        <path class="cls-5" d="M36.549,93.113a1.517,1.517,0,0,0,.4,1.588L36.3,101.106s-0.038.681,0.972,0.705a0.933,0.933,0,0,0,1.107-.705L37.745,94.7a1.743,1.743,0,0,0,.4-1.588C38.127,92.883,36.708,93.006,36.549,93.113Z"/>
        <path class="cls-6" d="M32.566,84.648a1.51,1.51,0,0,0,.8,2.382,3.969,3.969,0,0,0,1.992,3.176c0.174,0.05,4.858,1.5,5.577-3.176a1.808,1.808,0,0,0,.8-2.382s-0.578-2.81-.8-2.779-3.984-1.191-3.984-1.191l-4.382,1.985v1.985"/>
        <path class="cls-7" d="M32.167,84.648a3.509,3.509,0,0,0,1.992-.794s3.985,0.6,5.26-.907c0,0,.91-0.142,1.911,1.3,0,0,.166,1.513.8,0,0,0,.945-4.253-2.789-5.955C39.338,78.3,31.87,75.572,32.167,84.648Z"/>
      </g>
      <rect id="Rounded_Rectangle_598-3" data-name="Rounded Rectangle 598" class="cls-8" x="30" y="105" width="13" height="2" rx="0.8" ry="0.8"/>
    </g>
    <g id="_4" data-name="4">
      <circle class="cls-2" cx="143.5" cy="91.5" r="21.187"/>
      <g id="user-1-4" data-name="user-1">
        <path class="cls-3" d="M141.354,90.206s-0.8,1.709-1.593,1.985l3.585,2.779,3.585-.4-0.4-2.382a5.711,5.711,0,0,1-1.195-1.985C144.53,88.426,141.354,90.206,141.354,90.206Z"/>
        <path class="cls-11" d="M140.675,91.388S131.745,92.257,133,102h21s0.722-9.112-7.769-10.814C146.231,91.186,143.742,95.229,140.675,91.388Z"/>
        <path class="cls-5" d="M142.549,93.113a1.517,1.517,0,0,0,.4,1.588l-0.648,6.405s-0.038.681,0.972,0.705a0.932,0.932,0,0,0,1.107-.705L143.744,94.7a1.744,1.744,0,0,0,.4-1.588C144.127,92.883,142.708,93.006,142.549,93.113Z"/>
        <path class="cls-6" d="M138.566,84.648a1.51,1.51,0,0,0,.8,2.382,3.971,3.971,0,0,0,1.992,3.176c0.175,0.05,4.858,1.5,5.577-3.176a1.807,1.807,0,0,0,.8-2.382s-0.578-2.81-.8-2.779-3.983-1.191-3.983-1.191l-4.382,1.985v1.985"/>
        <path class="cls-7" d="M138.167,84.648a3.508,3.508,0,0,0,1.992-.794s3.985,0.6,5.26-.907c0,0,.91-0.142,1.911,1.3,0,0,.166,1.513.8,0,0,0,.945-4.253-2.789-5.955C145.338,78.3,137.87,75.572,138.167,84.648Z"/>
      </g>
      <rect id="Rounded_Rectangle_598-4" data-name="Rounded Rectangle 598" class="cls-8" x="136" y="105" width="13" height="2" rx="0.8" ry="0.8"/>
    </g>
    <path class="cls-12" d="M146,66V61a2.115,2.115,0,0,0-2-2H92V53H90v6H38a2.206,2.206,0,0,0-2,2v5h2V62a0.9,0.9,0,0,1,1-1H90v5h2V61h51a0.953,0.953,0,0,1,1,1v4h2Z"/>
  </g>
</svg>
