<svg id="icon" xmlns="http://www.w3.org/2000/svg" width="181" height="122" viewBox="0 0 181 122">
  <defs>
    <style>
      .cls-1 {
        fill: #eef3fe;
      }

      .cls-1, .cls-2, .cls-3, .cls-4, .cls-5 {
        fill-rule: evenodd;
      }

      .cls-2, .cls-4 {
        fill: #5ce3b5;
      }

      .cls-2, .cls-5 {
        opacity: 0.85;
      }

      .cls-3 {
        fill: #6a97ff;
      }

      .cls-5 {
        fill: #5387ff;
      }
    </style>
  </defs>
  <path class="cls-1" d="M19,68.019c0.518-12.348,3.106-22.638,28.987-30.87S81.739,25.287,94.68,17.569c10.426-6.394,42.473-5.832,57.974,15.435,10.784,14.8,10.007,34.037-2.07,47.334-10.26,11.3-31.5,20.432-52.8,24.7-21.692,4.344-37.893,1.057-53.939-5.117S18.655,82.768,19,68.019Z"/>
  <g id="icon-2" data-name="icon">
    <path class="cls-2" d="M125,81l0.1-5.15c0-3.036-2.073-5.847-5.1-5.85H90V51H87V70H56c-3.463,0-5,2.964-5,6v5h3V76a2.758,2.758,0,0,1,2.5-2.95L87,73v8h3V73h29a2.921,2.921,0,0,1,3,3v5h3Z"/>
    <path id="Shape_1_copy_6" data-name="Shape 1 copy 6" class="cls-3" d="M56,81h4a3.358,3.358,0,0,1,3,3V97a3.357,3.357,0,0,1-3,3H47a3.357,3.357,0,0,1-3-3V84a3.358,3.358,0,0,1,3-3h9Z"/>
    <path id="Shape_1_copy_8" data-name="Shape 1 copy 8" class="cls-4" d="M91,81h4a3.358,3.358,0,0,1,3,3V97a3.357,3.357,0,0,1-3,3H82a3.357,3.357,0,0,1-3-3V84a3.358,3.358,0,0,1,3-3h9Z"/>
    <path id="Shape_1_copy_7" data-name="Shape 1 copy 7" class="cls-3" d="M126,81h4a3.358,3.358,0,0,1,3,3V97a3.358,3.358,0,0,1-3,3H117a3.357,3.357,0,0,1-3-3V84a3.357,3.357,0,0,1,3-3h9Z"/>
    <path id="Shape_1_copy" data-name="Shape 1 copy" class="cls-5" d="M61,32h56a3.353,3.353,0,0,1,3,3V48a3.353,3.353,0,0,1-3,3H61a3.353,3.353,0,0,1-3-3V35A3.353,3.353,0,0,1,61,32Z"/>
  </g>
</svg>
