<svg xmlns="http://www.w3.org/2000/svg" width="30" height="90" viewBox="0 0 30 90">
  <metadata><?xpacket begin="﻿" id="W5M0MpCehiHzreSzNTczkc9d"?>
<x:xmpmeta xmlns:x="adobe:ns:meta/" x:xmptk="Adobe XMP Core 5.6-c142 79.160924, 2017/07/13-01:06:39        ">
   <rdf:RDF xmlns:rdf="http://www.w3.org/1999/02/22-rdf-syntax-ns#">
      <rdf:Description rdf:about=""/>
   </rdf:RDF>
</x:xmpmeta>
                                                                                                    
                                                                                                    
                                                                                                    
                                                                                                    
                                                                                                    
                                                                                                    
                                                                                                    
                                                                                                    
                                                                                                    
                                                                                                    
                                                                                                    
                                                                                                    
                                                                                                    
                                                                                                    
                                                                                                    
                                                                                                    
                                                                                                    
                                                                                                    
                                                                                                    
                                                                                                    
                           
<?xpacket end="w"?></metadata>
<defs>
    <style>
      .cls-1 {
        fill: #1bbc9b;
      }

      .cls-1, .cls-2 {
        fill-rule: evenodd;
      }

      .cls-2 {
        fill: #999;
      }
    </style>
  </defs>
  <path class="cls-1" d="M15.081,1a14.944,14.944,0,0,0-15,14.853c0,10.164,13.423,25.085,13.995,25.715a1.36,1.36,0,0,0,2.01,0c0.572-.63,14-15.551,14-25.715A14.944,14.944,0,0,0,15.081,1ZM15,27.02A11.006,11.006,0,1,1,26,16.014,11.015,11.015,0,0,1,15,27.02Z"/>
  <path id="Shape_1_copy" data-name="Shape 1 copy" class="cls-2" d="M15.081,48a14.944,14.944,0,0,0-15,14.853c0,10.164,13.423,25.085,13.995,25.715a1.36,1.36,0,0,0,2.01,0c0.572-.63,14-15.551,14-25.715A14.944,14.944,0,0,0,15.081,48ZM15,74.02A11.006,11.006,0,1,1,26,63.014,11.015,11.015,0,0,1,15,74.02Z"/>
</svg>
