<svg id="icon" xmlns="http://www.w3.org/2000/svg" width="178" height="122" viewBox="0 0 178 122">
  <defs>
    <style>
      .cls-1 {
        fill: #eef3fe;
      }

      .cls-1, .cls-11, .cls-15, .cls-16, .cls-19, .cls-2, .cls-21, .cls-22, .cls-23, .cls-3, .cls-4, .cls-5, .cls-6, .cls-7, .cls-8 {
        fill-rule: evenodd;
      }

      .cls-2 {
        fill: #193151;
      }

      .cls-3 {
        fill: #fbe3c5;
      }

      .cls-5 {
        fill: #0a1c35;
      }

      .cls-6 {
        fill: #b5ccfa;
      }

      .cls-7 {
        fill: #5387ff;
      }

      .cls-8 {
        fill: #4278f2;
      }

      .cls-11, .cls-18, .cls-9 {
        fill: #fff;
      }

      .cls-9 {
        stroke: #e3e3e3;
        stroke-linejoin: round;
        stroke-width: 1px;
      }

      .cls-10 {
        fill: #00ca72;
      }

      .cls-12 {
        fill: #7879dc;
      }

      .cls-13, .cls-16 {
        fill: #57b6f1;
      }

      .cls-14 {
        fill: #569bfc;
      }

      .cls-15 {
        fill: #1b6abf;
      }

      .cls-17 {
        fill: #3d93f0;
      }

      .cls-19 {
        fill: #c8e6f8;
      }

      .cls-20, .cls-21 {
        fill: #fe8300;
      }

      .cls-22 {
        fill: #2669a9;
      }

      .cls-23 {
        fill: #de617e;
      }
    </style>
  </defs>
  <path class="cls-1" d="M19,74.019c0.518-12.348,3.106-22.638,28.987-30.87S81.739,31.287,94.68,23.569c10.426-6.394,42.473-5.832,57.974,15.435,10.784,14.8,10.007,34.037-2.07,47.334-10.26,11.3-31.5,20.432-52.8,24.7-21.692,4.344-37.893,1.057-53.939-5.117S18.655,88.768,19,74.019Z"/>
  <g id="illustrator">
    <path class="cls-2" d="M23.846,99.631a18.436,18.436,0,0,0-1.039,2.7,6.963,6.963,0,0,1-2.066,2.63s-2.569,4.833,1.933,4.547c4.478-.284.243-0.01,0.243-0.01s1.837,1.109,4.4-2.986a15.143,15.143,0,0,0,.605-2.935c0.079-1.4.166-3.478,0.14-3.564A37.991,37.991,0,0,0,23.846,99.631Z"/>
    <path class="cls-3" d="M41.655,32.052s7.732,4.168,11.323,4.993a8.8,8.8,0,0,0,6.171-1.407s6.6-3.316,7.957-4.295a2.578,2.578,0,0,0,2.372.2c3.3-1.806,1.1-3.3,1.1-3.3s-4.714-1.726-5.8-.358c-1.4,1.769-6.576,2.905-9.321,3.668,0,0-6.735-1.768-9.079-4.411C46.378,27.145,41.356,30.667,41.655,32.052Z"/>
    <path class="cls-2" d="M34.889,102.963s-0.383,3.41.587,3.715a3.325,3.325,0,0,0,2.5,1.437c0.407,0.577,6.079,2.387,8.068,1.3-0.068-.258,1.6-1.533.337-3.072,0,0-5.822-2.591-6.183-4.334Z"/>
    <g id="Group_10_copy" data-name="Group 10 copy">
      <path class="cls-3" d="M33.995,17.723a1.036,1.036,0,0,0,1,1.079s-0.036,1.831.93,2.314a18.075,18.075,0,0,0,4.875,1.37,10.155,10.155,0,0,1-.586,2.152c1.5,3.857-4.48,2.76-8.085-.343a3.678,3.678,0,0,0,1.182-2.736C33.506,19.972,34.072,19.247,33.995,17.723Z"/>
      <g>
        <path class="cls-4" d="M33.411,21.183a6.327,6.327,0,0,1-.581-2.353,10.734,10.734,0,0,1,1.291-3.9,2.383,2.383,0,0,1,1.35-.905,16.574,16.574,0,0,0,4.367-1.192s4.2-.989,4.725,2.288c0,0-2.478-2.844-4.812-1.377,0,0-1.26.545-2.008,3.55-0.091.292-.561,1.029-1.175-0.293,0,0-1.218-2.789-2.127-1.811C34.042,15.82,34.311,20.02,33.411,21.183Z"/>
        <path class="cls-3" d="M34.531,19.087a4.162,4.162,0,0,0,.931,2.292A10.169,10.169,0,0,0,39.091,23.1L41.1,23.754c0.291,0.11,1.739.618,1.806-.862a5.954,5.954,0,0,1,.8-2.336,4,4,0,0,0,.406-3.063,2.973,2.973,0,0,1,.5-1.675,1.358,1.358,0,0,0-.781-1.453c-0.7-.553-4.483-3.524-6.206,2.969-0.67,2-2.224-5.075-3.6-1.376C33.783,18.185,33.845,18.84,34.531,19.087Z"/>
        <path class="cls-2" d="M44.009,13.692s-0.09-7.565-7.34-6.213a5.7,5.7,0,0,0-4.805,4.6c-0.8,3.082,1.051,6.636,1.051,6.636a12.821,12.821,0,0,1,1.706-4.191c0.131-.172.1-0.029,0.239-0.092a12.171,12.171,0,0,0,2.946-.753C39.7,13.221,41.82,12.009,44.009,13.692Z"/>
        <path class="cls-5" d="M47.949,11.7c-5.07-3.682-8.43.048-9.084,2.2,0.47-.495,4.127-1.733,5.62,1.34a29.48,29.48,0,0,1,3.574-1.892,0.809,0.809,0,0,0,.489-0.937A1.27,1.27,0,0,0,47.949,11.7Z"/>
      </g>
    </g>
    <path class="cls-6" d="M44,47c0,9.931-3,56-3,56H35c-0.689-1.025-.957-18.53-0.957-18.53-0.063-1.829.047-16.193,0.047-16.193a2.516,2.516,0,0,0-.529-1.072,1.644,1.644,0,0,1-1.082.287c0.056,1.124-2.661,17.636-2.661,17.636C29.772,87.755,28,102,28,102H23c-0.449-21.223,1-59,1-59Z"/>
    <path class="cls-7" d="M50.778,29.345A20.225,20.225,0,0,0,45.215,25.9s-3.141-.194-4.677-1.51a3.13,3.13,0,0,1-2.483,1.681s-3.883.96-5.182-1.976l-2.713.808c-3.049.908-8.073,2.485-7.673,5.48C23.557,38.4,23,61,23,61H44c0.028,0.008.2-7.566-.12-15.054-0.249-5.9-.5-10.6-0.481-11.092a37.952,37.952,0,0,0,4.079,2.191C48.235,35.957,49.186,29.445,50.778,29.345Z"/>
    <path class="cls-3" d="M28.778,38.145s-2.454,3.754-2.2,11a20.731,20.731,0,0,0,2.2,11,13.076,13.076,0,0,1,.717,1.828c0.42,1.365-1.312,5.281-4.017,2.572-0.576-.938-0.533-2.286-1.1-3.3S23.706,60.734,23.5,60c-2.678-9.44-4.214-12.208-.526-23.09Z"/>
    <path class="cls-8" d="M22.019,38.9s5.823,0.882,6.544.648c-0.009-.034.953-4.936,1.316-6.907,1.343-6.824-7.391-7.2-8.065-1.9C21.813,30.75,21.746,38.459,22.019,38.9Z"/>
  </g>
  <g id="Graph">
    <rect id="Rounded_Rectangle_1" data-name="Rounded Rectangle 1" class="cls-9" x="52" y="31" width="68" height="77" rx="3" ry="3"/>
    <g id="_1" data-name="1">
      <rect id="Rounded_Rectangle_599" data-name="Rounded Rectangle 599" class="cls-10" x="61" y="41" width="12" height="12" rx="2" ry="2"/>
      <path id="Forma_1" data-name="Forma 1" class="cls-11" d="M70.808,44.4l-0.231-.225a0.666,0.666,0,0,0-.924,0L65.73,48.005l-1.392-1.357a0.666,0.666,0,0,0-.923,0l-0.231.225a0.628,0.628,0,0,0,0,.9l2.083,2.034a0.667,0.667,0,0,0,.923,0l4.617-4.5A0.629,0.629,0,0,0,70.808,44.4Z"/>
      <rect id="Rounded_Rectangle_598" data-name="Rounded Rectangle 598" class="cls-12" x="77" y="43" width="33" height="2" rx="1" ry="1"/>
      <rect id="Rounded_Rectangle_598_copy" data-name="Rounded Rectangle 598 copy" class="cls-12" x="77" y="49" width="23" height="2" rx="1" ry="1"/>
    </g>
    <g id="_2" data-name="2">
      <rect id="Rounded_Rectangle_599-2" data-name="Rounded Rectangle 599" class="cls-10" x="61" y="63" width="12" height="12" rx="2" ry="2"/>
      <path id="Forma_1-2" data-name="Forma 1" class="cls-11" d="M70.808,66.4l-0.231-.225a0.666,0.666,0,0,0-.924,0L65.73,70.005l-1.392-1.357a0.666,0.666,0,0,0-.923,0l-0.231.225a0.628,0.628,0,0,0,0,.9l2.083,2.033a0.667,0.667,0,0,0,.923,0l4.617-4.5A0.629,0.629,0,0,0,70.808,66.4Z"/>
      <rect id="Rounded_Rectangle_598-2" data-name="Rounded Rectangle 598" class="cls-13" x="77" y="65" width="33" height="2" rx="1" ry="1"/>
      <rect id="Rounded_Rectangle_598_copy-2" data-name="Rounded Rectangle 598 copy" class="cls-13" x="77" y="71" width="23" height="2" rx="1" ry="1"/>
    </g>
    <g id="_3" data-name="3">
      <rect id="Rounded_Rectangle_599-3" data-name="Rounded Rectangle 599" class="cls-9" x="61" y="85" width="12" height="12" rx="2" ry="2"/>
      <rect id="Rounded_Rectangle_598-3" data-name="Rounded Rectangle 598" class="cls-14" x="77" y="87" width="33" height="2" rx="1" ry="1"/>
      <rect id="Rounded_Rectangle_598_copy-3" data-name="Rounded Rectangle 598 copy" class="cls-14" x="77" y="93" width="23" height="2" rx="1" ry="1"/>
    </g>
  </g>
  <g id="Clock">
    <path class="cls-15" d="M130.757,25.155v1.91l3.053,0.819v-3Z"/>
    <path id="Rounded_Rectangle_5" data-name="Rounded Rectangle 5" class="cls-16" d="M129.115,26.352a1.752,1.752,0,0,1,1.985-1.7l1.308,0.095a2.317,2.317,0,0,1,2.126,1.959l0.12,1.155-5.539-.341V26.352Z"/>
    <circle id="Ellipse_1_copy_3" data-name="Ellipse 1 copy 3" class="cls-17" cx="131.391" cy="40.563" r="14.016"/>
    <circle id="Rounded_Rectangle_4" data-name="Rounded Rectangle 4" class="cls-18" cx="131.172" cy="40.578" r="12.641"/>
    <circle id="Rounded_Rectangle_4_copy" data-name="Rounded Rectangle 4 copy" class="cls-18" cx="131.172" cy="40.578" r="12.641"/>
    <path id="Ellipse_1_copy" data-name="Ellipse 1 copy" class="cls-16" d="M130.618,26.792A13.783,13.783,0,1,1,116.6,40.573,13.9,13.9,0,0,1,130.618,26.792ZM131,28.247A12.387,12.387,0,0,1,143.6,40.4a12.616,12.616,0,0,1-25.216,0A12.387,12.387,0,0,1,131,28.247Z"/>
    <path class="cls-19" d="M130.479,37.981a3,3,0,1,1-3.053,3A3.028,3.028,0,0,1,130.479,37.981Z"/>
    <path class="cls-19" d="M124.058,34.737l0.944-1,1.628,1.485-0.944,1Z"/>
    <circle class="cls-20" cx="130.625" cy="41.125" r="1.531"/>
    <path id="Rounded_Rectangle_3" data-name="Rounded Rectangle 3" class="cls-21" d="M127.911,40.258l8.856,0.907a0.682,0.682,0,1,1-.1,1.361l-8.856-.907A0.682,0.682,0,1,1,127.911,40.258Z"/>
    <path id="Rectangle_3_copy" data-name="Rectangle 3 copy" class="cls-19" d="M122.033,41.149L122,39.785l2.219-.061,0.039,1.364Z"/>
    <path id="Rectangle_3_copy_6" data-name="Rectangle 3 copy 6" class="cls-19" d="M122.033,41.149L122,39.785l2.219-.061,0.039,1.364Zm15.3,0-0.038-1.364,2.219-.061,0.039,1.364Z"/>
    <path id="Rectangle_3_copy_2" data-name="Rectangle 3 copy 2" class="cls-19" d="M129.373,47.568l1.321-.038,0.059,2.149-1.321.038Z"/>
    <path id="Rectangle_3_copy_5" data-name="Rectangle 3 copy 5" class="cls-19" d="M130.273,31.368l1.321-.038,0.059,2.149-1.321.038Z"/>
    <path id="Rectangle_3_copy_3" data-name="Rectangle 3 copy 3" class="cls-19" d="M135.877,33.872l0.949,0.9L135.3,36.317l-0.95-.9Z"/>
    <path id="Rectangle_3_copy_4" data-name="Rectangle 3 copy 4" class="cls-19" d="M134.671,46.345l0.985-.867,1.455,1.6-0.984.867Z"/>
  </g>
  <g id="Calculator">
    <path id="Rounded_Rectangle_598-4" data-name="Rounded Rectangle 598" class="cls-22" d="M128.664,64.6L153.8,75.173a1.5,1.5,0,0,1,.8,1.969l-13.29,31.452a1.508,1.508,0,0,1-1.973.8L114.2,98.827a1.5,1.5,0,0,1-.8-1.969L126.69,65.406A1.508,1.508,0,0,1,128.664,64.6Z"/>
    <path id="Rounded_Rectangle_599-4" data-name="Rounded Rectangle 599" class="cls-19" d="M130.139,68.08l20.341,8.554a1.5,1.5,0,0,1,.8,1.969l-2.137,5.057a1.508,1.508,0,0,1-1.974.8l-20.341-8.554a1.5,1.5,0,0,1-.8-1.969l2.137-5.057A1.508,1.508,0,0,1,130.139,68.08Z"/>
    <path id="Rounded_Rectangle_603_copy" data-name="Rounded Rectangle 603 copy" class="cls-11" d="M148.045,77.071a0.7,0.7,0,0,1-.288.94L141.8,81.175a0.695,0.695,0,1,1-.653-1.226l5.959-3.165A0.7,0.7,0,0,1,148.045,77.071Z"/>
    <path id="Rounded_Rectangle_603_copy_2" data-name="Rounded Rectangle 603 copy 2" class="cls-11" d="M144.045,75.071a0.7,0.7,0,0,1-.288.94L137.8,79.175a0.695,0.695,0,1,1-.653-1.226l5.959-3.165A0.7,0.7,0,0,1,144.045,75.071Z"/>
    <path id="Rounded_Rectangle_600" data-name="Rounded Rectangle 600" class="cls-23" d="M125.869,77.217L140.24,83.26a1.278,1.278,0,1,1-1,2.355l-14.371-6.043A1.279,1.279,0,1,1,125.869,77.217Z"/>
    <path id="Rounded_Rectangle_600_copy" data-name="Rounded Rectangle 600 copy" class="cls-21" d="M143.711,84.72L146.766,86a1.278,1.278,0,1,1-1,2.355l-3.055-1.285A1.279,1.279,0,1,1,143.711,84.72Z"/>
    <path id="Rounded_Rectangle_601" data-name="Rounded Rectangle 601" class="cls-11" d="M123.872,80.783l3.749,1.576a0.752,0.752,0,0,1,.4.985l-1.464,3.464a0.754,0.754,0,0,1-.987.4l-3.749-1.576a0.751,0.751,0,0,1-.4-0.985l1.463-3.464A0.754,0.754,0,0,1,123.872,80.783Z"/>
    <path id="Rounded_Rectangle_601_copy" data-name="Rounded Rectangle 601 copy" class="cls-11" d="M129.634,83.206l3.749,1.576a0.751,0.751,0,0,1,.4.985l-1.464,3.464a0.754,0.754,0,0,1-.987.4l-3.749-1.576a0.751,0.751,0,0,1-.4-0.985l1.463-3.464A0.754,0.754,0,0,1,129.634,83.206Z"/>
    <path id="Rounded_Rectangle_601_copy_2" data-name="Rounded Rectangle 601 copy 2" class="cls-11" d="M135.535,85.688l3.749,1.576a0.751,0.751,0,0,1,.4.985l-1.464,3.464a0.754,0.754,0,0,1-.987.4l-3.749-1.576a0.751,0.751,0,0,1-.4-0.985l1.463-3.464A0.754,0.754,0,0,1,135.535,85.688Z"/>
    <path id="Rounded_Rectangle_601_copy_3" data-name="Rounded Rectangle 601 copy 3" class="cls-11" d="M121.472,86.464l3.749,1.576a0.751,0.751,0,0,1,.4.985l-1.463,3.464a0.754,0.754,0,0,1-.987.4l-3.749-1.576a0.751,0.751,0,0,1-.4-0.985l1.464-3.464A0.754,0.754,0,0,1,121.472,86.464Z"/>
    <path id="Rounded_Rectangle_601_copy_4" data-name="Rounded Rectangle 601 copy 4" class="cls-11" d="M127.234,88.887l3.749,1.576a0.752,0.752,0,0,1,.4.985l-1.464,3.464a0.755,0.755,0,0,1-.987.4l-3.749-1.577a0.751,0.751,0,0,1-.4-0.985l1.463-3.464A0.755,0.755,0,0,1,127.234,88.887Z"/>
    <path id="Rounded_Rectangle_601_copy_5" data-name="Rounded Rectangle 601 copy 5" class="cls-11" d="M133.135,91.368l3.749,1.577a0.752,0.752,0,0,1,.4.985l-1.464,3.464a0.754,0.754,0,0,1-.987.4l-3.749-1.577a0.751,0.751,0,0,1-.4-0.985l1.463-3.464A0.754,0.754,0,0,1,133.135,91.368Z"/>
    <path id="Rounded_Rectangle_601_copy_6" data-name="Rounded Rectangle 601 copy 6" class="cls-11" d="M119.072,92.144l3.748,1.576a0.751,0.751,0,0,1,.4.985l-1.464,3.464a0.754,0.754,0,0,1-.987.4l-3.748-1.576a0.75,0.75,0,0,1-.4-0.985l1.464-3.464A0.754,0.754,0,0,1,119.072,92.144Z"/>
    <path id="Rounded_Rectangle_601_copy_7" data-name="Rounded Rectangle 601 copy 7" class="cls-11" d="M124.834,94.568l3.749,1.577a0.751,0.751,0,0,1,.4.985l-1.463,3.464a0.754,0.754,0,0,1-.987.4l-3.749-1.576a0.751,0.751,0,0,1-.4-0.985l1.464-3.464A0.754,0.754,0,0,1,124.834,94.568Z"/>
    <path id="Rounded_Rectangle_601_copy_8" data-name="Rounded Rectangle 601 copy 8" class="cls-11" d="M130.735,97.049l3.749,1.577a0.751,0.751,0,0,1,.4.985l-1.463,3.464a0.754,0.754,0,0,1-.987.4l-3.749-1.577a0.752,0.752,0,0,1-.4-0.984l1.464-3.464A0.754,0.754,0,0,1,130.735,97.049Z"/>
    <path id="Rounded_Rectangle_602" data-name="Rounded Rectangle 602" class="cls-11" d="M141.813,88.246l3.471,1.46a1.126,1.126,0,0,1,.6,1.477l-1.141,2.7a1.132,1.132,0,0,1-1.481.6l-3.471-1.46a1.126,1.126,0,0,1-.6-1.477l1.141-2.7A1.132,1.132,0,0,1,141.813,88.246Z"/>
    <path id="Rounded_Rectangle_602_copy" data-name="Rounded Rectangle 602 copy" class="cls-11" d="M139.383,94l3.472,1.46a1.127,1.127,0,0,1,.6,1.477l-3.571,8.451a1.132,1.132,0,0,1-1.481.6l-3.471-1.46a1.126,1.126,0,0,1-.6-1.477L137.9,94.6A1.131,1.131,0,0,1,139.383,94Z"/>
  </g>
</svg>
