<svg id="icon" xmlns="http://www.w3.org/2000/svg" width="178" height="122" viewBox="0 0 178 122">
  <defs>
    <style>
      .cls-1 {
        fill: #eef3fe;
      }

      .cls-1, .cls-10, .cls-2, .cls-4, .cls-6, .cls-7, .cls-8, .cls-9 {
        fill-rule: evenodd;
      }

      .cls-2 {
        fill: #8388e4;
      }

      .cls-3 {
        fill: #ffc501;
      }

      .cls-4, .cls-5 {
        fill: #fff;
      }

      .cls-5 {
        stroke: #e3e3e3;
        stroke-linejoin: round;
        stroke-width: 1px;
      }

      .cls-6 {
        fill: #343439;
      }

      .cls-7 {
        fill: #565657;
      }

      .cls-8 {
        fill: #33e2a6;
      }

      .cls-9 {
        fill: #de617e;
      }

      .cls-10 {
        opacity: 0.05;
      }
    </style>
  </defs>
  <path class="cls-1" d="M9,68.019c0.518-12.348,3.106-22.638,28.987-30.87S71.739,25.287,84.68,17.569C95.106,11.175,127.153,11.737,142.654,33c10.784,14.8,10.007,34.037-2.07,47.334-10.26,11.3-31.5,20.432-52.8,24.7-21.692,4.344-37.893,1.057-53.939-5.117S8.655,82.768,9,68.019Z"/>
  <g id="Icon-2" data-name="Icon">
    <path class="cls-2" d="M169.232,23h-0.091l-5.784.27a0.726,0.726,0,0,0-.76.388,0.6,0.6,0,0,0,.23.762c0.593,0.589,1.179,1.185,1.779,1.761l-0.656.652-5.337,5.3-0.475.471-1.165,1.158-4.591,4.561-0.265-.264-5.491-5.456-1.165-1.158-0.314-.312a1.259,1.259,0,0,0-.9-0.367,1.289,1.289,0,0,0-.9.367l-0.314.312-6.663,6.62a1.263,1.263,0,0,0,0,1.789l0.314,0.312a1.261,1.261,0,0,0,.9.367,1.289,1.289,0,0,0,.9-0.367l5.763-5.726,0.265,0.264L150,40.164l1.165,1.158,0.314,0.312a1.261,1.261,0,0,0,.9.367,1.289,1.289,0,0,0,.9-0.367l0.314-.312,5.491-5.456,1.165-1.158,0.475-.471,5.337-5.3,0.649-.645,1.744,1.719a0.834,0.834,0,0,0,.551.333,0.624,0.624,0,0,0,.286-0.083,0.872,0.872,0,0,0,.44-0.832c0.084-1.872.174-3.736,0.265-5.608A0.673,0.673,0,0,0,169.232,23Z"/>
  </g>
  <g id="dollar">
    <g id="_2" data-name="2">
      <circle class="cls-3" cx="153.063" cy="68.281" r="10"/>
      <path id="_" data-name="$" class="cls-4" d="M154.8,71.966a1.94,1.94,0,0,1-1.272.369,2.006,2.006,0,0,1-1.287-.4,1.629,1.629,0,0,1-.509-1.354h-1.708l-0.014.034a2.69,2.69,0,0,0,.817,2.194,3.69,3.69,0,0,0,2.156.868V75h1.156V73.668a3.52,3.52,0,0,0,2.1-.834,2.738,2.738,0,0,0,.007-3.794,5.986,5.986,0,0,0-2.3-1.169,4.306,4.306,0,0,1-1.425-.718,1.221,1.221,0,0,1-.385-0.943,1.357,1.357,0,0,1,.37-1,1.551,1.551,0,0,1,1.142-.373,1.443,1.443,0,0,1,1.141.461,1.831,1.831,0,0,1,.407,1.254h1.708l0.022-.034a2.951,2.951,0,0,0-.683-2.071,3.016,3.016,0,0,0-1.963-.943V62h-1.156v1.49a3.247,3.247,0,0,0-2.013.865,2.518,2.518,0,0,0-.735,1.87,2.453,2.453,0,0,0,.771,1.911,6.005,6.005,0,0,0,2.312,1.165,3.793,3.793,0,0,1,1.377.7,1.262,1.262,0,0,1,.4.96A1.238,1.238,0,0,1,154.8,71.966Z"/>
    </g>
  </g>
  <g id="graphic">
    <rect id="Rounded_Rectangle_593" data-name="Rounded Rectangle 593" class="cls-5" x="9" y="13" width="131" height="86" rx="5" ry="5"/>
    <g id="Bar">
      <path id="Sales_Workflow" data-name="Sales Workflow" class="cls-6" d="M20.776,27.921a1.777,1.777,0,0,1-1.111.315,1.979,1.979,0,0,1-1.179-.373,1.222,1.222,0,0,1-.522-1.057H17.022l-0.01.03a1.8,1.8,0,0,0,.785,1.58,3.091,3.091,0,0,0,1.869.59,2.891,2.891,0,0,0,1.814-.535,1.7,1.7,0,0,0,.695-1.415,1.826,1.826,0,0,0-.577-1.37,3.729,3.729,0,0,0-1.681-.84,3.73,3.73,0,0,1-1.312-.558,0.97,0.97,0,0,1-.4-0.793,1.121,1.121,0,0,1,.369-0.87,1.525,1.525,0,0,1,1.061-.335,1.564,1.564,0,0,1,1.111.4,1.342,1.342,0,0,1,.434,1.025h0.943l0.015-.03a1.973,1.973,0,0,0-.665-1.523,2.555,2.555,0,0,0-1.839-.652,2.607,2.607,0,0,0-1.746.57,1.792,1.792,0,0,0-.672,1.425,1.7,1.7,0,0,0,.625,1.345,4.182,4.182,0,0,0,1.738.81,2.972,2.972,0,0,1,1.254.57,1.094,1.094,0,0,1,.356.83A1.022,1.022,0,0,1,20.776,27.921Zm7.016,0.98a2.866,2.866,0,0,1-.11-0.53,5.045,5.045,0,0,1-.03-0.56V25.206a1.654,1.654,0,0,0-.562-1.348,2.247,2.247,0,0,0-1.485-.468,2.3,2.3,0,0,0-1.523.49,1.293,1.293,0,0,0-.554,1.08l0.01,0.03,0.938-.01a0.719,0.719,0,0,1,.3-0.575,1.2,1.2,0,0,1,.778-0.24,1.145,1.145,0,0,1,.823.277,0.991,0.991,0,0,1,.291.752v0.535H25.59a2.948,2.948,0,0,0-1.708.438,1.4,1.4,0,0,0-.63,1.213,1.588,1.588,0,0,0,.444,1.192,1.778,1.778,0,0,0,1.292.433,1.846,1.846,0,0,0,.956-0.262,2.3,2.3,0,0,0,.72-0.652,3.153,3.153,0,0,0,.033.377q0.028,0.188.078,0.433h1.018Zm-3.326-.93a0.741,0.741,0,0,1-.226-0.57A0.9,0.9,0,0,1,24.6,26.7a1.441,1.441,0,0,1,.956-0.3h1.109v0.88a1.309,1.309,0,0,1-.562.63,1.763,1.763,0,0,1-.968.275A0.947,0.947,0,0,1,24.466,27.971Zm5.689-6.87H29.167v7.8h0.988V21.1Zm4.916,7.713a2.376,2.376,0,0,0,.768-0.473l-0.386-.64a1.967,1.967,0,0,1-.65.392,2.5,2.5,0,0,1-.88.143,1.263,1.263,0,0,1-1.1-.508,2.23,2.23,0,0,1-.361-1.323l0.015-.025h3.472v-0.52a2.775,2.775,0,0,0-.544-1.8,1.973,1.973,0,0,0-1.633-.675,2.119,2.119,0,0,0-1.648.763,2.8,2.8,0,0,0-.675,1.927V26.3a2.861,2.861,0,0,0,.655,1.96,2.3,2.3,0,0,0,1.824.745A3.067,3.067,0,0,0,35.071,28.813Zm-0.406-4.263a1.572,1.572,0,0,1,.291.975v0.08H32.508l-0.01-.025a1.877,1.877,0,0,1,.414-1.017,1.076,1.076,0,0,1,.855-0.4A1.053,1.053,0,0,1,34.665,24.551Zm5.245,3.463a1.354,1.354,0,0,1-.825.223,1.517,1.517,0,0,1-.858-0.242,0.91,0.91,0,0,1-.391-0.768H36.893l-0.01.03a1.5,1.5,0,0,0,.567,1.225,2.391,2.391,0,0,0,1.636.525,2.416,2.416,0,0,0,1.528-.455,1.423,1.423,0,0,0,.584-1.175,1.2,1.2,0,0,0-.517-1.005,3.9,3.9,0,0,0-1.515-.595,2.474,2.474,0,0,1-.92-0.32,0.592,0.592,0,0,1-.223-0.5,0.732,0.732,0,0,1,.258-0.56,1.127,1.127,0,0,1,.78-0.235,1.105,1.105,0,0,1,.78.285,0.851,0.851,0,0,1,.309.635h0.943l0.01-.03a1.431,1.431,0,0,0-.547-1.165,2.5,2.5,0,0,0-2.957-.03,1.425,1.425,0,0,0-.564,1.13,1.16,1.16,0,0,0,.514.99,3.951,3.951,0,0,0,1.472.575,2.4,2.4,0,0,1,.941.36,0.656,0.656,0,0,1,.248.53A0.68,0.68,0,0,1,39.91,28.013Zm5.606-6.393H44.448l1.761,7.28h0.883l1.48-5.05,0.105-.655h0.03l0.11,0.655,1.46,5.05H51.16l1.766-7.28H51.852l-1.044,4.755-0.135.975h-0.03l-0.171-.975-1.3-4.755H48.2l-1.294,4.755-0.171.96-0.03,0-0.125-.955Zm7.921,4.635a2.953,2.953,0,0,0,.655,1.977,2.433,2.433,0,0,0,3.554,0,2.958,2.958,0,0,0,.652-1.98v-0.11a2.962,2.962,0,0,0-.655-1.98,2.422,2.422,0,0,0-3.554,0,2.972,2.972,0,0,0-.652,1.978v0.11Zm0.988-.11a2.564,2.564,0,0,1,.364-1.415,1.193,1.193,0,0,1,1.071-.565,1.21,1.21,0,0,1,1.081.565,2.539,2.539,0,0,1,.369,1.415v0.11a2.546,2.546,0,0,1-.366,1.42,1.316,1.316,0,0,1-2.155,0,2.558,2.558,0,0,1-.364-1.42v-0.11Zm7.786-2.7a1.418,1.418,0,0,0-.165-0.037,1.233,1.233,0,0,0-.211-0.018,1.335,1.335,0,0,0-.78.235,1.879,1.879,0,0,0-.569.655l-0.1-.79H59.508V28.9H60.5V25.036a1.188,1.188,0,0,1,.414-0.52,1.135,1.135,0,0,1,.66-0.185l0.507,0.03Zm4.2,5.455h1.169l-2.142-2.915,1.972-2.5H66.225l-1.63,2.13H64.1V21.1H63.11v7.8H64.1v-2.5H64.6Zm3.361,0v-4.68h0.983v-0.73H69.772V22.806a1.156,1.156,0,0,1,.211-0.748,0.781,0.781,0,0,1,.642-0.258,2.308,2.308,0,0,1,.268.015q0.128,0.015.218,0.035l0.12-.75q-0.211-.05-0.384-0.078A2.192,2.192,0,0,0,70.5,21a1.674,1.674,0,0,0-1.267.473,1.853,1.853,0,0,0-.454,1.338v0.685H67.936v0.73h0.848V28.9h0.988Zm3.05-7.8H71.834v7.8h0.988V21.1Zm1.289,5.155a2.953,2.953,0,0,0,.655,1.977,2.433,2.433,0,0,0,3.554,0,2.958,2.958,0,0,0,.652-1.98v-0.11a2.962,2.962,0,0,0-.655-1.98,2.422,2.422,0,0,0-3.554,0,2.972,2.972,0,0,0-.652,1.978v0.11Zm0.988-.11a2.565,2.565,0,0,1,.364-1.415,1.193,1.193,0,0,1,1.071-.565,1.21,1.21,0,0,1,1.081.565,2.539,2.539,0,0,1,.369,1.415v0.11a2.546,2.546,0,0,1-.366,1.42,1.316,1.316,0,0,1-2.155,0,2.559,2.559,0,0,1-.364-1.42v-0.11Zm5.619-2.655H79.69l1.575,5.41h0.8l1.053-3.3,0.191-.86h0.03l0.206,0.86,1.073,3.3h0.8l1.575-5.41H85.956l-0.8,3.44-0.16.775h-0.03l-0.14-.775-1.089-3.44H82.941l-1.084,3.44-0.13.7H81.7l-0.125-.7Z"/>
      <g id="_1" data-name="1">
        <g id="_1_copy_5" data-name="1 copy 5">
          <path id="_1234" data-name="#1234" class="cls-7" d="M18.976,46.324h0.645l0.365-1.619H20.66l0.15-.62H20.127l0.29-1.27h0.711l0.15-.62h-0.72l0.355-1.531H20.267L19.912,42.2H18.93l0.355-1.531H18.64L18.284,42.2h-0.7l-0.131.62h0.692l-0.29,1.27H17.116l-0.131.62h0.729l-0.365,1.619h0.645l0.365-1.619h0.982Zm-0.187-3.509h0.982l-0.29,1.27H18.5Zm4.04,4.071h3.32V46.169H24.867V39.986H24.531l-2.057,1.648,0.355,0.494,1.029-.766,0.374-.456-0.093.572v4.691H22.829v0.717Zm8.145-5.907a1.494,1.494,0,0,0-.327-0.528,1.459,1.459,0,0,0-.524-0.344,1.937,1.937,0,0,0-.711-0.121,2.774,2.774,0,0,0-.963.165,2.4,2.4,0,0,0-.776.456l0.309,0.552a2.68,2.68,0,0,1,.58-0.344,1.682,1.682,0,0,1,.692-0.15,0.975,0.975,0,0,1,.795.315,1.2,1.2,0,0,1,.262.79,2.772,2.772,0,0,1-.15.863,5.842,5.842,0,0,1-.4.921,10.343,10.343,0,0,1-.552.916q-0.3.451-.617,0.853t-0.6.732q-0.29.33-.5,0.553v0.281h3.722V46.169H29.178l-0.6.107V46.237l0.458-.417q0.365-.465.729-0.984a10.77,10.77,0,0,0,.659-1.061,6.946,6.946,0,0,0,.477-1.081,3.267,3.267,0,0,0,.182-1.052A1.911,1.911,0,0,0,30.974,40.979Zm2.567,5.273a2.485,2.485,0,0,1-.51-0.179l-0.2.688a3.077,3.077,0,0,0,.589.174,3.852,3.852,0,0,0,.757.068,2.593,2.593,0,0,0,.87-0.145,2.082,2.082,0,0,0,.715-0.422,1.981,1.981,0,0,0,.482-0.683,2.308,2.308,0,0,0,.178-0.931,2.184,2.184,0,0,0-.131-0.78,1.762,1.762,0,0,0-.365-0.591,1.576,1.576,0,0,0-.552-0.378,1.934,1.934,0,0,0-.692-0.141L34.368,43V42.981L34.7,42.7l1.487-2.316V40.1H32.844v0.717H34.7l0.608-.1-0.43.426L33.526,43.3v0.281h0.692a1.6,1.6,0,0,1,1.071.33,1.25,1.25,0,0,1,.388,1.008,1.434,1.434,0,0,1-.112.572,1.363,1.363,0,0,1-.309.451,1.29,1.29,0,0,1-.468.286,1.736,1.736,0,0,1-.589.1A2.753,2.753,0,0,1,33.54,46.252Zm8.467-2.127H40.9V40H40.4l-3.1,4.488V44.8h2.88v2.084H40.9V44.8h1.1V44.124Zm-1.833,0H38.8l-0.654.078,0.449-.475,1.319-1.851,0.327-.659h0.028l-0.093.795v2.113Z"/>
          <path id="_1244" data-name="#1244" class="cls-7" d="M18.976,67.417h0.645l0.365-1.642H20.66l0.15-.629H20.127l0.29-1.288h0.711l0.15-.629h-0.72l0.355-1.554H20.267l-0.355,1.554H18.93l0.355-1.554H18.64l-0.355,1.554h-0.7l-0.131.629h0.692l-0.29,1.288H17.116l-0.131.629h0.729l-0.365,1.642h0.645l0.365-1.642h0.982Zm-0.187-3.56h0.982l-0.29,1.288H18.5Zm4.04,4.13h3.32V67.26H24.867V60.986H24.531l-2.057,1.672,0.355,0.5,1.029-.777,0.374-.462-0.093.58v4.76H22.829v0.728Zm8.145-5.994a1.519,1.519,0,0,0-.327-0.536,1.457,1.457,0,0,0-.524-0.349,1.912,1.912,0,0,0-.711-0.123,2.738,2.738,0,0,0-.963.167,2.4,2.4,0,0,0-.776.462l0.309,0.561a2.67,2.67,0,0,1,.58-0.349,1.661,1.661,0,0,1,.692-0.153,0.968,0.968,0,0,1,.795.32,1.224,1.224,0,0,1,.262.8,2.849,2.849,0,0,1-.15.875,5.978,5.978,0,0,1-.4.934,10.517,10.517,0,0,1-.552.929q-0.3.457-.617,0.865t-0.6.742q-0.29.335-.5,0.561v0.285h3.722V67.26H29.178l-0.6.108V67.329l0.458-.423q0.365-.472.729-1a10.947,10.947,0,0,0,.659-1.077,7.1,7.1,0,0,0,.477-1.1,3.358,3.358,0,0,0,.182-1.067A1.964,1.964,0,0,0,30.974,61.994Zm5.938,3.191h-1.1V61H35.3l-3.1,4.553v0.325h2.88v2.114h0.729V65.873h1.1V65.185Zm-1.833,0H33.7l-0.654.079,0.449-.482L34.817,62.9l0.327-.669h0.028l-0.093.806v2.144Zm6.929,0H40.9V61H40.4l-3.1,4.553v0.325h2.88v2.114H40.9V65.873h1.1V65.185Zm-1.833,0H38.8l-0.654.079,0.449-.482L39.913,62.9l0.327-.669h0.028l-0.093.806v2.144Z"/>
          <path id="_1238" data-name="#1238" class="cls-7" d="M18.93,89.324h0.63l0.356-1.619h0.658l0.146-.62H20.054l0.283-1.27h0.694l0.146-.62h-0.7l0.347-1.531h-0.63L19.844,85.2H18.885l0.347-1.531H18.6L18.255,85.2H17.57l-0.128.62h0.676l-0.283,1.27H17.113l-0.128.62H17.7l-0.356,1.619h0.63l0.356-1.619h0.959Zm-0.183-3.509h0.959l-0.283,1.27H18.465Zm3.946,4.071h3.242V89.169H24.684V82.986H24.356l-2.009,1.648,0.347,0.494,1-.766,0.365-.456-0.091.572v4.691H22.693v0.717Zm7.955-5.907a1.5,1.5,0,0,0-.32-0.528,1.423,1.423,0,0,0-.512-0.344,1.852,1.852,0,0,0-.694-0.121,2.653,2.653,0,0,0-.941.165,2.333,2.333,0,0,0-.758.456l0.3,0.552a2.6,2.6,0,0,1,.566-0.344,1.611,1.611,0,0,1,.676-0.15,0.941,0.941,0,0,1,.776.315,1.213,1.213,0,0,1,.256.79,2.828,2.828,0,0,1-.146.863,5.914,5.914,0,0,1-.388.921,10.38,10.38,0,0,1-.539.916q-0.3.451-.6,0.853t-0.589.732q-0.283.33-.484,0.553v0.281h3.635V89.169H28.895l-0.585.107V89.237l0.448-.417q0.356-.465.712-0.984a10.816,10.816,0,0,0,.644-1.061,7.018,7.018,0,0,0,.466-1.081,3.336,3.336,0,0,0,.178-1.052A1.951,1.951,0,0,0,30.648,83.979Zm2.507,5.273a2.392,2.392,0,0,1-.5-0.179l-0.192.688a2.953,2.953,0,0,0,.575.174,3.678,3.678,0,0,0,.74.068,2.479,2.479,0,0,0,.849-0.145,2.023,2.023,0,0,0,.7-0.422,1.982,1.982,0,0,0,.47-0.683,2.356,2.356,0,0,0,.173-0.93,2.23,2.23,0,0,0-.128-0.78,1.768,1.768,0,0,0-.356-0.591,1.539,1.539,0,0,0-.539-0.378,1.852,1.852,0,0,0-.676-0.141L33.964,86V85.981l0.32-.281,1.452-2.317V83.1H32.475v0.717h1.808l0.594-.1-0.42.426L33.142,86.3v0.281h0.676a1.542,1.542,0,0,1,1.046.329,1.266,1.266,0,0,1,.379,1.008,1.465,1.465,0,0,1-.11.572,1.363,1.363,0,0,1-.3.451,1.255,1.255,0,0,1-.457.286,1.661,1.661,0,0,1-.575.1A2.629,2.629,0,0,1,33.155,89.252Zm4.224-.3a1.524,1.524,0,0,0,.352.548,1.682,1.682,0,0,0,.571.368,2.072,2.072,0,0,0,.776.136,2.206,2.206,0,0,0,.813-0.141,1.742,1.742,0,0,0,.6-0.388,1.628,1.628,0,0,0,.375-0.591A2.17,2.17,0,0,0,41,88.123a1.867,1.867,0,0,0-.091-0.606,1.735,1.735,0,0,0-.251-0.48,2.207,2.207,0,0,0-.374-0.388,4.144,4.144,0,0,0-.452-0.32,2.779,2.779,0,0,0,.785-0.829,1.952,1.952,0,0,0,.237-0.974,1.58,1.58,0,0,0-.119-0.62,1.425,1.425,0,0,0-.333-0.485,1.534,1.534,0,0,0-.525-0.32,1.966,1.966,0,0,0-.694-0.116,2.02,2.02,0,0,0-.735.126,1.67,1.67,0,0,0-.557.349,1.49,1.49,0,0,0-.356.533,1.847,1.847,0,0,0-.123.688,1.78,1.78,0,0,0,.087.582,1.677,1.677,0,0,0,.237.456,2.009,2.009,0,0,0,.347.364,4.5,4.5,0,0,0,.425.305,2.756,2.756,0,0,0-.941.819,1.863,1.863,0,0,0-.3,1.061A1.92,1.92,0,0,0,37.38,88.951Zm2.809-.271a1.01,1.01,0,0,1-.256.359,1.1,1.1,0,0,1-.37.213,1.331,1.331,0,0,1-.438.073,1.253,1.253,0,0,1-.5-0.092,1.064,1.064,0,0,1-.361-0.247,1,1,0,0,1-.219-0.368,1.363,1.363,0,0,1-.073-0.446,1.544,1.544,0,0,1,.237-0.775,2.162,2.162,0,0,1,.795-0.737q0.247,0.136.475,0.281a2.346,2.346,0,0,1,.407.325,1.552,1.552,0,0,1,.288.4,1.12,1.12,0,0,1,.11.509A1.256,1.256,0,0,1,40.188,88.68Zm-2-4.391a0.883,0.883,0,0,1,.206-0.315,1.121,1.121,0,0,1,.329-0.223,1.048,1.048,0,0,1,.438-0.087,0.952,0.952,0,0,1,.977,1.027,1.394,1.394,0,0,1-.2.727,2.678,2.678,0,0,1-.607.669q-0.238-.126-0.457-0.266a2.426,2.426,0,0,1-.388-0.305,1.31,1.31,0,0,1-.269-0.373,1.09,1.09,0,0,1-.1-0.48A1.037,1.037,0,0,1,38.188,84.289Z"/>
          <path id="Repair_" data-name="Repair " class="cls-7" d="M51,68.022h0.764V64.874l0.9,0.149,1.777,3h0.893l-1.6-2.751L53.292,64.9a1.981,1.981,0,0,0,1.05-.675,2.019,2.019,0,0,0,.414-1.321,2.068,2.068,0,0,0-.175-0.894,1.644,1.644,0,0,0-.465-0.6,1.809,1.809,0,0,0-.672-0.328,3.2,3.2,0,0,0-.806-0.1q-0.378,0-.833.04A7.572,7.572,0,0,0,51,61.14v6.882Zm2.606-5.968a1.211,1.211,0,0,1,.341.884,1.279,1.279,0,0,1-.414,1.053,1.607,1.607,0,0,1-1.05.338H51.764V61.765a0.882,0.882,0,0,1,.17-0.03l0.226-.02q0.12-.01.249-0.01h0.249A1.268,1.268,0,0,1,53.605,62.053Zm5.442,5a1.309,1.309,0,0,1-.47.278,1.751,1.751,0,0,1-.626.119,1.693,1.693,0,0,1-.686-0.124,1.125,1.125,0,0,1-.456-0.358,1.557,1.557,0,0,1-.258-0.571,3.261,3.261,0,0,1-.083-0.775h2.956a5.3,5.3,0,0,0,.055-0.725,2.705,2.705,0,0,0-.157-1.008,1.493,1.493,0,0,0-.405-0.591,1.35,1.35,0,0,0-.562-0.283,2.7,2.7,0,0,0-.626-0.075,1.8,1.8,0,0,0-1.5.665,3.075,3.075,0,0,0-.525,1.937,4.412,4.412,0,0,0,.12,1.073,2.355,2.355,0,0,0,.368.819,1.643,1.643,0,0,0,.635.526,2.106,2.106,0,0,0,.911.184A2.805,2.805,0,0,0,58.628,68a2.029,2.029,0,0,0,.7-0.377Zm-0.553-3.113a1.613,1.613,0,0,1,.267,1.058H56.478a1.6,1.6,0,0,1,.391-1.053,1.217,1.217,0,0,1,.87-0.308A0.954,0.954,0,0,1,58.494,63.935Zm2.145,6.073h0.737V67.942a2.066,2.066,0,0,0,.428.154,2.556,2.556,0,0,0,.539.045,1.979,1.979,0,0,0,.87-0.189,1.894,1.894,0,0,0,.668-0.536,2.525,2.525,0,0,0,.428-0.849,3.881,3.881,0,0,0,.152-1.127,3.18,3.18,0,0,0-.451-1.917,1.623,1.623,0,0,0-1.372-.586,1.576,1.576,0,0,0-.769.184,1.451,1.451,0,0,0-.548.531H61.284l-0.138-.6H60.639v6.952Zm2.417-6.247a1.027,1.027,0,0,1,.368.363,1.7,1.7,0,0,1,.207.566,3.917,3.917,0,0,1,.064.74,2.538,2.538,0,0,1-.373,1.5,1.183,1.183,0,0,1-1.008.511,1.732,1.732,0,0,1-.562-0.075,1.2,1.2,0,0,1-.377-0.213V64.695a1.509,1.509,0,0,1,.382-0.8,1.02,1.02,0,0,1,.741-0.263A1.108,1.108,0,0,1,63.056,63.761Zm2.721,0.268a1.732,1.732,0,0,1,.3-0.148,2.851,2.851,0,0,1,.359-0.112q0.189-.046.368-0.072a2.4,2.4,0,0,1,.336-0.026,0.986,0.986,0,0,1,.737.218,1.125,1.125,0,0,1,.2.765q0,0.238-.028.536a1.667,1.667,0,0,0-.253-0.02H67.545a5.3,5.3,0,0,0-.925.075,2.183,2.183,0,0,0-.718.248,1.238,1.238,0,0,0-.465.467,1.467,1.467,0,0,0-.166.73,1.533,1.533,0,0,0,.106.586,1.324,1.324,0,0,0,.29.442A1.261,1.261,0,0,0,66.1,68a1.488,1.488,0,0,0,.548.1,1.779,1.779,0,0,0,.93-0.243,1.344,1.344,0,0,0,.3-0.238,1.632,1.632,0,0,0,.207-0.273h0.046l0.193,0.7h0.543a3.51,3.51,0,0,1-.1-0.606q-0.028-.328-0.028-0.7,0-.506.028-1.073T68.8,64.506a2.9,2.9,0,0,0-.051-0.536,1.291,1.291,0,0,0-.2-0.492,1.087,1.087,0,0,0-.442-0.362,1.8,1.8,0,0,0-.769-0.139,4.235,4.235,0,0,0-.971.109,2.541,2.541,0,0,0-.815.338Zm0.488,3.153a0.761,0.761,0,0,1-.23-0.571,0.663,0.663,0,0,1,.124-0.412,0.848,0.848,0,0,1,.331-0.258,1.66,1.66,0,0,1,.479-0.129,4.377,4.377,0,0,1,.557-0.035q0.129,0,.262.005T68.051,65.8v0.824a1.183,1.183,0,0,1-.387.521,1.3,1.3,0,0,1-.35.189,1.327,1.327,0,0,1-.46.075A0.811,0.811,0,0,1,66.265,67.183Zm4.079,0.839H71.08V63.056H70.344v4.965Zm-0.014-6.1a0.482,0.482,0,0,0,.364.149,0.528,0.528,0,0,0,.377-0.149,0.5,0.5,0,0,0,.157-0.377,0.548,0.548,0,0,0-.157-0.392,0.5,0.5,0,0,0-.377-0.164,0.461,0.461,0,0,0-.364.164,0.577,0.577,0,0,0-.143.392A0.523,0.523,0,0,0,70.33,61.924Zm4.654,1.132a2.111,2.111,0,0,0-.6-0.1,1,1,0,0,0-.621.184,1.5,1.5,0,0,0-.419.521H73.308l-0.138-.606H72.655v4.965h0.737V64.546a1.044,1.044,0,0,1,.285-0.591,0.839,0.839,0,0,1,.626-0.233,1.555,1.555,0,0,1,.525.1Z"/>
          <path id="Installation" class="cls-7" d="M51.012,89.886h0.761V83.069H51.012v6.817Zm6.094,0V86.945a4.314,4.314,0,0,0-.1-1,1.6,1.6,0,0,0-.284-0.628,0.986,0.986,0,0,0-.472-0.326,2.136,2.136,0,0,0-.66-0.092,1.843,1.843,0,0,0-.884.2,1.685,1.685,0,0,0-.591.511H54.082l-0.137-.594H53.431v4.87h0.733V86.555a1.486,1.486,0,0,1,.445-0.7,1.171,1.171,0,0,1,.8-0.278,0.78,0.78,0,0,1,.756.385,2.493,2.493,0,0,1,.206,1.144v2.776h0.733Zm3.1-.73a1.178,1.178,0,0,1-.651.166,2.262,2.262,0,0,1-.687-0.107,2.594,2.594,0,0,1-.55-0.234l-0.22.662a2.7,2.7,0,0,0,.614.253A3.207,3.207,0,0,0,59.6,90a1.992,1.992,0,0,0,.7-0.112,1.433,1.433,0,0,0,.5-0.307,1.191,1.191,0,0,0,.3-0.468,1.743,1.743,0,0,0,.1-0.584,1.334,1.334,0,0,0-.165-0.706,1.529,1.529,0,0,0-.408-0.443A2.233,2.233,0,0,0,60.09,87.1q-0.289-.107-0.532-0.219a1.745,1.745,0,0,1-.408-0.253,0.491,0.491,0,0,1-.165-0.394,0.605,0.605,0,0,1,.188-0.507,0.963,0.963,0,0,1,.591-0.146,2.374,2.374,0,0,1,.637.083,2.785,2.785,0,0,1,.509.19l0.174-.643a3.1,3.1,0,0,0-.582-0.219,3.166,3.166,0,0,0-.829-0.092,1.542,1.542,0,0,0-1.045.326,1.291,1.291,0,0,0-.376,1.027,1.235,1.235,0,0,0,.165.682,1.416,1.416,0,0,0,.408.414,2.43,2.43,0,0,0,.532.263q0.289,0.1.532,0.214a1.393,1.393,0,0,1,.408.278,0.62,0.62,0,0,1,.165.458A0.652,0.652,0,0,1,60.2,89.156ZM61.7,85.7h0.715v2.844a2.071,2.071,0,0,0,.229,1.125A0.884,0.884,0,0,0,63.43,90a2.459,2.459,0,0,0,.632-0.078,2.713,2.713,0,0,0,.541-0.2l-0.165-.594q-0.2.088-.367,0.141a1.315,1.315,0,0,1-.4.054,0.426,0.426,0,0,1-.4-0.209,1.55,1.55,0,0,1-.119-0.716V85.7h1.246V85.017H63.146V83.828l-0.733.224v0.964H61.7V85.7Zm3.867,0.273a1.736,1.736,0,0,1,.3-0.145,2.875,2.875,0,0,1,.358-0.11q0.188-.045.367-0.07a2.418,2.418,0,0,1,.334-0.025,0.99,0.99,0,0,1,.733.214,1.092,1.092,0,0,1,.2.75q0,0.234-.028.526a1.689,1.689,0,0,0-.252-0.019H67.325a5.355,5.355,0,0,0-.921.073,2.193,2.193,0,0,0-.715.243,1.222,1.222,0,0,0-.463.458,1.42,1.42,0,0,0-.165.716,1.483,1.483,0,0,0,.105.575,1.3,1.3,0,0,0,.289.433,1.258,1.258,0,0,0,.435.278,1.5,1.5,0,0,0,.545.1,1.839,1.839,0,0,0,.522-0.068,1.817,1.817,0,0,0,.4-0.17,1.33,1.33,0,0,0,.3-0.234,1.6,1.6,0,0,0,.206-0.268h0.046L68.1,89.906h0.541a3.391,3.391,0,0,1-.1-0.594q-0.027-.321-0.028-0.682,0-.5.028-1.052t0.028-1.139a2.8,2.8,0,0,0-.05-0.526,1.258,1.258,0,0,0-.2-0.482,1.079,1.079,0,0,0-.44-0.356,1.811,1.811,0,0,0-.765-0.136,4.276,4.276,0,0,0-.967.107,2.551,2.551,0,0,0-.811.331Zm0.486,3.092a0.741,0.741,0,0,1-.229-0.56,0.643,0.643,0,0,1,.124-0.4,0.843,0.843,0,0,1,.33-0.253,1.677,1.677,0,0,1,.477-0.127,4.432,4.432,0,0,1,.555-0.034q0.128,0,.261,0T67.829,87.7v0.808a1.161,1.161,0,0,1-.385.511,1.3,1.3,0,0,1-.348.185,1.341,1.341,0,0,1-.458.073A0.814,0.814,0,0,1,66.051,89.063Zm4.72-5.995H70.037v5.843a1.116,1.116,0,0,0,.266.843,0.954,0.954,0,0,0,.678.248,2.528,2.528,0,0,0,.454-0.049,1.464,1.464,0,0,0,.408-0.127l-0.082-.614a1.41,1.41,0,0,1-.312.088,1.82,1.82,0,0,1-.257.02,0.367,0.367,0,0,1-.312-0.146,0.826,0.826,0,0,1-.11-0.487v-5.62Zm2.676,0H72.713v5.843a1.116,1.116,0,0,0,.266.843,0.954,0.954,0,0,0,.678.248,2.528,2.528,0,0,0,.454-0.049,1.464,1.464,0,0,0,.408-0.127l-0.082-.614a1.41,1.41,0,0,1-.312.088,1.82,1.82,0,0,1-.257.02,0.367,0.367,0,0,1-.312-0.146,0.827,0.827,0,0,1-.11-0.487v-5.62Zm2.016,2.9a1.732,1.732,0,0,1,.3-0.145,2.874,2.874,0,0,1,.357-0.11q0.188-.045.367-0.07a2.417,2.417,0,0,1,.335-0.025,0.991,0.991,0,0,1,.733.214,1.092,1.092,0,0,1,.2.75q0,0.234-.028.526a1.689,1.689,0,0,0-.252-0.019H77.222a5.355,5.355,0,0,0-.921.073,2.191,2.191,0,0,0-.715.243,1.222,1.222,0,0,0-.463.458,1.421,1.421,0,0,0-.165.716,1.483,1.483,0,0,0,.105.575,1.3,1.3,0,0,0,.289.433,1.258,1.258,0,0,0,.435.278,1.5,1.5,0,0,0,.545.1,1.839,1.839,0,0,0,.522-0.068,1.817,1.817,0,0,0,.4-0.17,1.33,1.33,0,0,0,.3-0.234,1.6,1.6,0,0,0,.206-0.268h0.046L78,89.906h0.541a3.391,3.391,0,0,1-.1-0.594q-0.028-.321-0.028-0.682,0-.5.028-1.052t0.028-1.139a2.8,2.8,0,0,0-.05-0.526,1.258,1.258,0,0,0-.2-0.482,1.077,1.077,0,0,0-.44-0.356,1.81,1.81,0,0,0-.765-0.136,4.275,4.275,0,0,0-.967.107,2.55,2.55,0,0,0-.811.331Zm0.486,3.092a0.741,0.741,0,0,1-.229-0.56,0.643,0.643,0,0,1,.124-0.4,0.843,0.843,0,0,1,.33-0.253,1.677,1.677,0,0,1,.477-0.127,4.431,4.431,0,0,1,.554-0.034q0.128,0,.261,0T77.726,87.7v0.808a1.161,1.161,0,0,1-.385.511,1.3,1.3,0,0,1-.348.185,1.34,1.34,0,0,1-.458.073A0.814,0.814,0,0,1,75.949,89.063Zm3.3-3.365h0.715v2.844a2.071,2.071,0,0,0,.229,1.125A0.884,0.884,0,0,0,80.98,90a2.459,2.459,0,0,0,.632-0.078,2.709,2.709,0,0,0,.541-0.2l-0.165-.594q-0.2.088-.367,0.141a1.315,1.315,0,0,1-.4.054,0.426,0.426,0,0,1-.4-0.209A1.549,1.549,0,0,1,80.7,88.4V85.7h1.246V85.017H80.7V83.828l-0.733.224v0.964H79.248V85.7Zm3.867,4.188h0.733v-4.87H83.115v4.87ZM83.1,83.906a0.483,0.483,0,0,0,.362.146,0.53,0.53,0,0,0,.376-0.146,0.485,0.485,0,0,0,.156-0.37,0.533,0.533,0,0,0-.156-0.385,0.5,0.5,0,0,0-.376-0.161,0.462,0.462,0,0,0-.362.161,0.561,0.561,0,0,0-.142.385A0.509,0.509,0,0,0,83.1,83.906ZM85.278,88.5a2.289,2.289,0,0,0,.367.808,1.637,1.637,0,0,0,.628.516,2.067,2.067,0,0,0,.894.18,1.784,1.784,0,0,0,1.489-.657,3.006,3.006,0,0,0,.518-1.894,4.288,4.288,0,0,0-.119-1.047,2.3,2.3,0,0,0-.367-0.808,1.64,1.64,0,0,0-.628-0.516,2.068,2.068,0,0,0-.894-0.18,1.783,1.783,0,0,0-1.489.657,3.005,3.005,0,0,0-.518,1.894A4.277,4.277,0,0,0,85.278,88.5Zm1.888-2.917a1.058,1.058,0,0,1,.577.151,1.156,1.156,0,0,1,.385.4,1.948,1.948,0,0,1,.215.594,3.642,3.642,0,0,1,.069.721q0,1.88-1.246,1.87a1.031,1.031,0,0,1-.577-0.156,1.2,1.2,0,0,1-.385-0.409,1.942,1.942,0,0,1-.215-0.594,3.582,3.582,0,0,1-.069-0.711q0-1.88,1.246-1.87h0ZM94,89.886V86.945a4.308,4.308,0,0,0-.1-1,1.6,1.6,0,0,0-.284-0.628,0.986,0.986,0,0,0-.472-0.326,2.136,2.136,0,0,0-.66-0.092,1.842,1.842,0,0,0-.884.2,1.684,1.684,0,0,0-.591.511H90.978l-0.138-.594H90.328v4.87h0.733V86.555a1.486,1.486,0,0,1,.445-0.7,1.171,1.171,0,0,1,.8-0.278,0.78,0.78,0,0,1,.756.385,2.5,2.5,0,0,1,.206,1.144v2.776H94Z"/>
          <path id="Installation-2" data-name="Installation" class="cls-7" d="M51,46.886h0.761V40.069H51v6.817Zm6.094,0V43.945a4.314,4.314,0,0,0-.1-1,1.6,1.6,0,0,0-.284-0.628,0.986,0.986,0,0,0-.472-0.326,2.136,2.136,0,0,0-.66-0.093,1.842,1.842,0,0,0-.884.2,1.685,1.685,0,0,0-.591.511H54.074l-0.137-.594H53.423v4.87h0.733V43.555a1.486,1.486,0,0,1,.444-0.7,1.171,1.171,0,0,1,.8-0.278,0.78,0.78,0,0,1,.756.385,2.493,2.493,0,0,1,.206,1.144v2.776H57.1Zm3.1-.73a1.178,1.178,0,0,1-.651.166,2.263,2.263,0,0,1-.687-0.107,2.594,2.594,0,0,1-.55-0.234l-0.22.662a2.7,2.7,0,0,0,.614.253,3.207,3.207,0,0,0,.889.107,1.992,1.992,0,0,0,.7-0.112,1.433,1.433,0,0,0,.5-0.307,1.191,1.191,0,0,0,.3-0.468,1.741,1.741,0,0,0,.1-0.584,1.333,1.333,0,0,0-.165-0.706,1.528,1.528,0,0,0-.408-0.443,2.232,2.232,0,0,0-.531-0.282q-0.289-.107-0.532-0.219a1.745,1.745,0,0,1-.408-0.253,0.491,0.491,0,0,1-.165-0.394,0.605,0.605,0,0,1,.188-0.506,0.963,0.963,0,0,1,.591-0.146,2.374,2.374,0,0,1,.637.083,2.782,2.782,0,0,1,.509.19l0.174-.643a3.1,3.1,0,0,0-.582-0.219,3.166,3.166,0,0,0-.829-0.093,1.542,1.542,0,0,0-1.045.326,1.291,1.291,0,0,0-.376,1.027,1.236,1.236,0,0,0,.165.682,1.415,1.415,0,0,0,.408.414,2.429,2.429,0,0,0,.532.263q0.289,0.1.532,0.214a1.394,1.394,0,0,1,.408.278,0.62,0.62,0,0,1,.165.458A0.653,0.653,0,0,1,60.2,46.156ZM61.689,42.7H62.4v2.844a2.071,2.071,0,0,0,.229,1.125,0.884,0.884,0,0,0,.788.336,2.459,2.459,0,0,0,.632-0.078,2.713,2.713,0,0,0,.541-0.2l-0.165-.594q-0.2.088-.367,0.141a1.315,1.315,0,0,1-.4.054,0.425,0.425,0,0,1-.4-0.209,1.548,1.548,0,0,1-.119-0.716V42.7h1.246V42.017H63.137V40.828l-0.733.224v0.964H61.689V42.7Zm3.867,0.273a1.733,1.733,0,0,1,.3-0.145,2.868,2.868,0,0,1,.357-0.11q0.188-.045.367-0.07a2.416,2.416,0,0,1,.335-0.025,0.99,0.99,0,0,1,.733.214,1.091,1.091,0,0,1,.2.75q0,0.234-.027.526a1.692,1.692,0,0,0-.252-0.02H67.316a5.353,5.353,0,0,0-.921.073,2.193,2.193,0,0,0-.715.243,1.223,1.223,0,0,0-.463.458,1.42,1.42,0,0,0-.165.716,1.483,1.483,0,0,0,.105.575,1.3,1.3,0,0,0,.289.433,1.259,1.259,0,0,0,.435.278,1.5,1.5,0,0,0,.545.1A1.839,1.839,0,0,0,66.95,46.9a1.818,1.818,0,0,0,.4-0.171,1.329,1.329,0,0,0,.3-0.234,1.6,1.6,0,0,0,.206-0.268H67.9L68.1,46.906h0.541a3.4,3.4,0,0,1-.1-0.594q-0.027-.321-0.028-0.682,0-.5.028-1.052t0.028-1.139a2.8,2.8,0,0,0-.05-0.526,1.256,1.256,0,0,0-.2-0.482,1.078,1.078,0,0,0-.44-0.355,1.811,1.811,0,0,0-.765-0.136,4.276,4.276,0,0,0-.967.107,2.551,2.551,0,0,0-.811.331Zm0.486,3.092a0.741,0.741,0,0,1-.229-0.56,0.644,0.644,0,0,1,.124-0.4,0.843,0.843,0,0,1,.33-0.253,1.675,1.675,0,0,1,.477-0.127,4.433,4.433,0,0,1,.555-0.034q0.128,0,.261,0T67.82,44.7v0.808a1.163,1.163,0,0,1-.385.511,1.3,1.3,0,0,1-.348.185,1.341,1.341,0,0,1-.458.073A0.814,0.814,0,0,1,66.042,46.063Zm4.72-5.994H70.029v5.843a1.116,1.116,0,0,0,.266.843,0.954,0.954,0,0,0,.678.248,2.529,2.529,0,0,0,.454-0.049,1.464,1.464,0,0,0,.408-0.127l-0.082-.614a1.408,1.408,0,0,1-.312.088,1.819,1.819,0,0,1-.257.02,0.367,0.367,0,0,1-.312-0.146,0.827,0.827,0,0,1-.11-0.487V40.069Zm2.676,0H72.7v5.843a1.116,1.116,0,0,0,.266.843,0.954,0.954,0,0,0,.678.248,2.529,2.529,0,0,0,.454-0.049,1.464,1.464,0,0,0,.408-0.127l-0.083-.614a1.407,1.407,0,0,1-.312.088,1.819,1.819,0,0,1-.257.02,0.367,0.367,0,0,1-.312-0.146,0.827,0.827,0,0,1-.11-0.487V40.069Zm2.016,2.9a1.736,1.736,0,0,1,.3-0.145,2.875,2.875,0,0,1,.358-0.11q0.188-.045.367-0.07a2.418,2.418,0,0,1,.334-0.025,0.99,0.99,0,0,1,.733.214,1.092,1.092,0,0,1,.2.75q0,0.234-.028.526a1.689,1.689,0,0,0-.252-0.02H77.214a5.355,5.355,0,0,0-.921.073,2.193,2.193,0,0,0-.715.243,1.222,1.222,0,0,0-.463.458,1.42,1.42,0,0,0-.165.716,1.483,1.483,0,0,0,.105.575,1.3,1.3,0,0,0,.289.433,1.258,1.258,0,0,0,.435.278,1.5,1.5,0,0,0,.545.1,1.839,1.839,0,0,0,.522-0.068,1.817,1.817,0,0,0,.4-0.171,1.33,1.33,0,0,0,.3-0.234,1.6,1.6,0,0,0,.206-0.268H77.8l0.193,0.682h0.541a3.391,3.391,0,0,1-.1-0.594q-0.027-.321-0.028-0.682,0-.5.028-1.052t0.028-1.139a2.8,2.8,0,0,0-.05-0.526,1.258,1.258,0,0,0-.2-0.482,1.079,1.079,0,0,0-.44-0.355A1.811,1.811,0,0,0,77,41.939a4.276,4.276,0,0,0-.967.107,2.551,2.551,0,0,0-.811.331Zm0.486,3.092a0.741,0.741,0,0,1-.229-0.56,0.643,0.643,0,0,1,.124-0.4,0.843,0.843,0,0,1,.33-0.253,1.677,1.677,0,0,1,.477-0.127,4.432,4.432,0,0,1,.555-0.034q0.128,0,.261,0T77.718,44.7v0.808a1.161,1.161,0,0,1-.385.511,1.3,1.3,0,0,1-.348.185,1.341,1.341,0,0,1-.458.073A0.814,0.814,0,0,1,75.94,46.063Zm3.3-3.365h0.715v2.844a2.071,2.071,0,0,0,.229,1.125,0.884,0.884,0,0,0,.788.336,2.459,2.459,0,0,0,.632-0.078,2.713,2.713,0,0,0,.541-0.2l-0.165-.594q-0.2.088-.367,0.141a1.315,1.315,0,0,1-.4.054,0.426,0.426,0,0,1-.4-0.209,1.549,1.549,0,0,1-.119-0.716V42.7h1.246V42.017H80.687V40.828l-0.733.224v0.964H79.239V42.7Zm3.867,4.188H83.84v-4.87H83.107v4.87Zm-0.014-5.98a0.483,0.483,0,0,0,.362.146,0.53,0.53,0,0,0,.376-0.146,0.485,0.485,0,0,0,.156-0.37,0.534,0.534,0,0,0-.156-0.385,0.5,0.5,0,0,0-.376-0.161,0.462,0.462,0,0,0-.362.161,0.561,0.561,0,0,0-.142.385A0.508,0.508,0,0,0,83.093,40.906ZM85.269,45.5a2.293,2.293,0,0,0,.367.808,1.637,1.637,0,0,0,.628.516,2.067,2.067,0,0,0,.894.18,1.784,1.784,0,0,0,1.489-.657,3.006,3.006,0,0,0,.518-1.894,4.288,4.288,0,0,0-.119-1.047,2.3,2.3,0,0,0-.367-0.808,1.64,1.64,0,0,0-.628-0.516,2.068,2.068,0,0,0-.894-0.18,1.783,1.783,0,0,0-1.489.657,3.005,3.005,0,0,0-.518,1.894A4.281,4.281,0,0,0,85.269,45.5Zm1.888-2.917a1.058,1.058,0,0,1,.577.151,1.158,1.158,0,0,1,.385.4,1.95,1.95,0,0,1,.215.594,3.642,3.642,0,0,1,.069.721q0,1.88-1.246,1.87a1.03,1.03,0,0,1-.577-0.156,1.193,1.193,0,0,1-.385-0.409,1.94,1.94,0,0,1-.215-0.594,3.59,3.59,0,0,1-.069-0.711q0-1.88,1.246-1.87h0Zm6.837,4.3V43.945a4.308,4.308,0,0,0-.1-1,1.6,1.6,0,0,0-.284-0.628,0.986,0.986,0,0,0-.472-0.326,2.136,2.136,0,0,0-.66-0.093,1.843,1.843,0,0,0-.884.2,1.685,1.685,0,0,0-.591.511H90.97l-0.137-.594H90.319v4.87h0.733V43.555a1.486,1.486,0,0,1,.445-0.7,1.171,1.171,0,0,1,.8-0.278,0.78,0.78,0,0,1,.756.385,2.493,2.493,0,0,1,.206,1.144v2.776h0.733Z"/>
          <path id="Active" class="cls-8" d="M105.277,89.854h1.341l-2.346-6.8h-0.94l-2.346,6.8h1.276l0.493-1.5h2ZM103.555,85.8l0.2-1.071H103.8l0.2,1.061,0.484,1.5h-1.4Zm6.432,2.8a1.823,1.823,0,0,1-.381.2,1.466,1.466,0,0,1-.522.082,1.025,1.025,0,0,1-.488-0.111,0.924,0.924,0,0,1-.34-0.3,1.426,1.426,0,0,1-.2-0.453A2.365,2.365,0,0,1,108,87.442a1.82,1.82,0,0,1,.261-1.095A0.9,0.9,0,0,1,109.019,86a1.8,1.8,0,0,1,.479.058,2.391,2.391,0,0,1,.424.164l0.289-1.022a2.756,2.756,0,0,0-.564-0.222,3.168,3.168,0,0,0-.823-0.087,1.863,1.863,0,0,0-1.545.661,2.945,2.945,0,0,0-.531,1.886,4.74,4.74,0,0,0,.107,1.042,2.164,2.164,0,0,0,.349.805,1.621,1.621,0,0,0,.628.516,2.2,2.2,0,0,0,.945.183,3.011,3.011,0,0,0,.815-0.111,1.989,1.989,0,0,0,.674-0.323Zm0.531-2.508h0.642v2.431a1.687,1.687,0,0,0,.3,1.124,1.2,1.2,0,0,0,.945.343,2.707,2.707,0,0,0,.68-0.087,3,3,0,0,0,.586-0.212l-0.214-.965a2.138,2.138,0,0,1-.3.116,1.174,1.174,0,0,1-.321.039,0.365,0.365,0,0,1-.367-0.217,1.9,1.9,0,0,1-.1-0.719V86.092h1.136V85.031H112.37V83.767l-1.21.357v0.907h-0.642v1.061Zm3.835,3.762h1.21V85.031h-1.21v4.823Zm0.023-5.715a0.776,0.776,0,0,0,.554.188,0.848,0.848,0,0,0,.572-0.188,0.592,0.592,0,0,0,.219-0.468,0.621,0.621,0,0,0-.219-0.477,0.822,0.822,0,0,0-.572-0.2,0.754,0.754,0,0,0-.554.2,0.645,0.645,0,0,0-.2.477A0.613,0.613,0,0,0,114.376,84.138Zm3.123,0.892h-1.406l2.02,4.871h0.735l1.946-4.871h-1.3L118.7,87.539l-0.13.762h-0.047l-0.158-.743Zm6.953,3.588a1.893,1.893,0,0,1-.461.246,1.835,1.835,0,0,1-.684.121,1.134,1.134,0,0,1-.889-0.309,1.448,1.448,0,0,1-.3-0.916h2.793c0.031-.167.054-0.328,0.07-0.482s0.023-.3.023-0.434a2.431,2.431,0,0,0-.158-0.936,1.512,1.512,0,0,0-1.015-.916,2.48,2.48,0,0,0-.689-0.1,2.127,2.127,0,0,0-1.647.637,2.734,2.734,0,0,0-.587,1.91,3,3,0,0,0,.522,1.866,1.942,1.942,0,0,0,1.647.68,3.21,3.21,0,0,0,1.019-.159,2.334,2.334,0,0,0,.759-0.391Zm-0.731-2.44a1.257,1.257,0,0,1,.154.8h-1.732a1.487,1.487,0,0,1,.275-0.786,0.833,0.833,0,0,1,.7-0.294A0.675,0.675,0,0,1,123.721,86.179Z"/>
          <path id="Active-2" data-name="Active" class="cls-8" d="M105.277,46.854h1.341l-2.346-6.8h-0.94l-2.346,6.8h1.276l0.493-1.5h2ZM103.555,42.8l0.2-1.071H103.8l0.2,1.061,0.484,1.5h-1.4Zm6.432,2.8a1.823,1.823,0,0,1-.381.2,1.466,1.466,0,0,1-.522.082,1.025,1.025,0,0,1-.488-0.111,0.924,0.924,0,0,1-.34-0.3,1.426,1.426,0,0,1-.2-0.453A2.365,2.365,0,0,1,108,44.442a1.82,1.82,0,0,1,.261-1.095A0.9,0.9,0,0,1,109.019,43a1.8,1.8,0,0,1,.479.058,2.391,2.391,0,0,1,.424.164l0.289-1.022a2.756,2.756,0,0,0-.564-0.222,3.168,3.168,0,0,0-.823-0.087,1.863,1.863,0,0,0-1.545.661,2.945,2.945,0,0,0-.531,1.886,4.74,4.74,0,0,0,.107,1.042,2.164,2.164,0,0,0,.349.805,1.621,1.621,0,0,0,.628.516,2.2,2.2,0,0,0,.945.183,3.011,3.011,0,0,0,.815-0.111,1.989,1.989,0,0,0,.674-0.323Zm0.531-2.508h0.642v2.431a1.687,1.687,0,0,0,.3,1.124,1.2,1.2,0,0,0,.945.343,2.707,2.707,0,0,0,.68-0.087,3,3,0,0,0,.586-0.212l-0.214-.965a2.138,2.138,0,0,1-.3.116,1.174,1.174,0,0,1-.321.039,0.365,0.365,0,0,1-.367-0.217,1.9,1.9,0,0,1-.1-0.719V43.092h1.136V42.031H112.37V40.767l-1.21.357v0.907h-0.642v1.061Zm3.835,3.762h1.21V42.031h-1.21v4.823Zm0.023-5.715a0.776,0.776,0,0,0,.554.188,0.848,0.848,0,0,0,.572-0.188,0.592,0.592,0,0,0,.219-0.468,0.621,0.621,0,0,0-.219-0.477,0.822,0.822,0,0,0-.572-0.2,0.754,0.754,0,0,0-.554.2,0.645,0.645,0,0,0-.2.477A0.613,0.613,0,0,0,114.376,41.138Zm3.123,0.892h-1.406l2.02,4.871h0.735l1.946-4.871h-1.3L118.7,44.539l-0.13.762h-0.047l-0.158-.743Zm6.953,3.588a1.893,1.893,0,0,1-.461.246,1.835,1.835,0,0,1-.684.121,1.134,1.134,0,0,1-.889-0.309,1.448,1.448,0,0,1-.3-0.916h2.793c0.031-.167.054-0.328,0.07-0.482s0.023-.3.023-0.434a2.431,2.431,0,0,0-.158-0.936,1.512,1.512,0,0,0-1.015-.916,2.48,2.48,0,0,0-.689-0.1,2.127,2.127,0,0,0-1.647.637,2.734,2.734,0,0,0-.587,1.91,3,3,0,0,0,.522,1.866,1.942,1.942,0,0,0,1.647.68,3.21,3.21,0,0,0,1.019-.159,2.334,2.334,0,0,0,.759-0.391Zm-0.731-2.44a1.257,1.257,0,0,1,.154.8h-1.732a1.487,1.487,0,0,1,.275-0.786,0.833,0.833,0,0,1,.7-0.294A0.675,0.675,0,0,1,123.721,43.179Z"/>
          <path id="In_active" data-name="In active" class="cls-9" d="M100.987,67.854h1.253V61.1h-1.253v6.752Zm6.44,0v-3a4.1,4.1,0,0,0-.091-0.94,1.481,1.481,0,0,0-.275-0.6,1.025,1.025,0,0,0-.448-0.318,1.763,1.763,0,0,0-.6-0.1,1.585,1.585,0,0,0-.9.231,2.011,2.011,0,0,0-.558.54h-0.037l-0.137-.637h-0.942v4.823h1.189V64.728a1.152,1.152,0,0,1,.334-0.516A0.829,0.829,0,0,1,105.534,64a0.588,0.588,0,0,1,.544.26,1.688,1.688,0,0,1,.16.849v2.739h1.189ZM111,64.246a2.667,2.667,0,0,1,.654-0.2,3.981,3.981,0,0,1,.755-0.077,0.656,0.656,0,0,1,.613.236,1.309,1.309,0,0,1,.073.776,5.659,5.659,0,0,0-1.093.043,2.584,2.584,0,0,0-.842.26,1.37,1.37,0,0,0-.539.492,1.39,1.39,0,0,0-.188.748,1.537,1.537,0,0,0,.1.574,1.32,1.32,0,0,0,.283.444,1.247,1.247,0,0,0,.439.289,1.559,1.559,0,0,0,.577.1,1.481,1.481,0,0,0,.837-0.217,1.689,1.689,0,0,0,.508-0.516h0.045l0.192,0.666h0.97a3.174,3.174,0,0,1-.137-0.738q-0.027-.391-0.023-0.805t0.032-.844c0.018-.286.028-0.571,0.028-0.854a2.841,2.841,0,0,0-.078-0.695,1.3,1.3,0,0,0-.266-0.531,1.205,1.205,0,0,0-.507-0.342,2.281,2.281,0,0,0-.8-0.121,5.318,5.318,0,0,0-1.052.1,3.737,3.737,0,0,0-.869.275Zm0.81,2.5a0.563,0.563,0,0,1-.151-0.42,0.441,0.441,0,0,1,.119-0.318,0.769,0.769,0,0,1,.32-0.193,1.9,1.9,0,0,1,.462-0.087,3.1,3.1,0,0,1,.544.01v0.627a1.147,1.147,0,0,1-.311.362,0.879,0.879,0,0,1-.567.169A0.563,0.563,0,0,1,111.805,66.749Zm6.436-.15a1.772,1.772,0,0,1-.375.2,1.418,1.418,0,0,1-.513.082,1,1,0,0,1-.48-0.111,0.914,0.914,0,0,1-.334-0.3,1.444,1.444,0,0,1-.192-0.453,2.366,2.366,0,0,1-.064-0.569,1.845,1.845,0,0,1,.256-1.095,0.879,0.879,0,0,1,.75-0.342,1.741,1.741,0,0,1,.471.058,2.33,2.33,0,0,1,.417.164L118.46,63.2a2.654,2.654,0,0,0-.553-0.222,3.07,3.07,0,0,0-.81-0.087,1.817,1.817,0,0,0-1.518.661,2.981,2.981,0,0,0-.522,1.886,4.807,4.807,0,0,0,.105,1.042,2.191,2.191,0,0,0,.343.805,1.6,1.6,0,0,0,.618.516,2.125,2.125,0,0,0,.928.183,2.905,2.905,0,0,0,.8-0.111,1.941,1.941,0,0,0,.663-0.323Zm0.521-2.508h0.631v2.431a1.705,1.705,0,0,0,.3,1.124,1.166,1.166,0,0,0,.928.343,2.609,2.609,0,0,0,.668-0.087,2.923,2.923,0,0,0,.577-0.212l-0.211-.965a2.09,2.09,0,0,1-.3.116,1.141,1.141,0,0,1-.316.039,0.358,0.358,0,0,1-.361-0.217,1.928,1.928,0,0,1-.1-0.719V64.092H121.7V63.031h-1.116V61.767l-1.19.357v0.907h-0.631v1.061Zm3.769,3.762h1.19V63.031h-1.19v4.823Zm0.023-5.715a0.756,0.756,0,0,0,.545.188,0.823,0.823,0,0,0,.562-0.188,0.594,0.594,0,0,0,.215-0.468,0.624,0.624,0,0,0-.215-0.477A0.8,0.8,0,0,0,123.1,61a0.735,0.735,0,0,0-.545.2,0.653,0.653,0,0,0-.2.477A0.621,0.621,0,0,0,122.554,62.138Zm3.07,0.892h-1.382l1.985,4.871h0.723l1.912-4.871h-1.281L126.8,65.539l-0.128.762H126.63l-0.156-.743Zm6.834,3.588a1.838,1.838,0,0,1-.453.246,1.776,1.776,0,0,1-.673.121,1.1,1.1,0,0,1-.873-0.309,1.465,1.465,0,0,1-.3-0.916h2.745q0.045-.251.069-0.482c0.015-.154.022-0.3,0.022-0.434a2.454,2.454,0,0,0-.155-0.936,1.5,1.5,0,0,0-1-.916,2.406,2.406,0,0,0-.677-0.1,2.074,2.074,0,0,0-1.62.637,2.767,2.767,0,0,0-.576,1.91,3.041,3.041,0,0,0,.512,1.866,1.9,1.9,0,0,0,1.62.68,3.108,3.108,0,0,0,1-.159,2.288,2.288,0,0,0,.746-0.391Zm-0.719-2.44a1.265,1.265,0,0,1,.151.8h-1.7a1.494,1.494,0,0,1,.27-0.786,0.811,0.811,0,0,1,.69-0.294A0.659,0.659,0,0,1,131.739,64.179Z"/>
        </g>
        <path class="cls-10" d="M19,52H139v1H19V52Zm0,22H139v1H19V74Z"/>
      </g>
    </g>
  </g>
</svg>
