<svg id="icon" xmlns="http://www.w3.org/2000/svg" width="178" height="122" viewBox="0 0 178 122">
  <defs>
    <style>
      .cls-1 {
        fill: #eef3fe;
      }

      .cls-1, .cls-10, .cls-11, .cls-12, .cls-14, .cls-4, .cls-5, .cls-6, .cls-7, .cls-8, .cls-9 {
        fill-rule: evenodd;
      }

      .cls-2 {
        fill: #f8f0e5;
        stroke: #11518e;
        stroke-width: 2px;
      }

      .cls-13, .cls-2 {
        stroke-linejoin: round;
      }

      .cls-11, .cls-13, .cls-3 {
        fill: #fff;
      }

      .cls-4 {
        fill: #11518e;
      }

      .cls-5 {
        fill: #faad27;
      }

      .cls-6 {
        fill: #193151;
      }

      .cls-7 {
        fill: #b5ccfa;
      }

      .cls-8 {
        fill: #787de1;
      }

      .cls-9 {
        fill: #fbe3c5;
      }

      .cls-10, .cls-14 {
        fill: #5387ff;
      }

      .cls-12 {
        fill: #8388ed;
      }

      .cls-13 {
        stroke: #e3e3e3;
        stroke-width: 1px;
      }

      .cls-14 {
        opacity: 0.6;
      }
    </style>
  </defs>
  <path class="cls-1" d="M17,68.019c0.518-12.348,3.106-22.638,28.987-30.87S79.739,25.287,92.68,17.569c10.426-6.394,42.473-5.832,57.974,15.435,10.784,14.8,10.007,34.037-2.07,47.334-10.26,11.3-31.5,20.432-52.8,24.7-21.692,4.344-37.893,1.057-53.939-5.117S16.655,82.768,17,68.019Z"/>
  <g id="_2" data-name="2">
    <rect id="Rounded_Rectangle_2202" data-name="Rounded Rectangle 2202" class="cls-2" x="47" y="41" width="67" height="57" rx="3" ry="3"/>
    <rect class="cls-3" x="49" y="53" width="63" height="43"/>
    <path id="Shape_711_copy" data-name="Shape 711 copy" class="cls-4" d="M48,41V53h65V41H48Z"/>
    <rect id="Rounded_Rectangle_2203" data-name="Rounded Rectangle 2203" class="cls-3" x="58" y="33" width="4" height="15" rx="2" ry="2"/>
    <rect id="Rounded_Rectangle_2203_copy" data-name="Rounded Rectangle 2203 copy" class="cls-3" x="98" y="33" width="4" height="15" rx="2" ry="2"/>
    <path id="Forma_1" data-name="Forma 1" class="cls-5" d="M92.914,69.145l-6.886-.658a1.192,1.192,0,0,1-.986-0.737l-2.466-6.04a1.176,1.176,0,0,0-2.19,0l-2.447,6.04a1.167,1.167,0,0,1-.987.737l-6.886.658a1.206,1.206,0,0,0-.671,2.093l5.189,4.6a1.2,1.2,0,0,1,.375,1.176L73.4,83.478a1.193,1.193,0,0,0,1.756,1.316L80.9,81.385a1.184,1.184,0,0,1,1.2,0l5.741,3.409A1.189,1.189,0,0,0,89.6,83.478L88.06,77.019a1.2,1.2,0,0,1,.375-1.176l5.189-4.6A1.22,1.22,0,0,0,92.914,69.145Z"/>
  </g>
  <g id="_3" data-name="3">
    <path id="Rounded_Rectangle_599_copy" data-name="Rounded Rectangle 599 copy" class="cls-6" d="M31.536,98.6l-0.747-1.744a1.412,1.412,0,0,0-1.9-.7,1.484,1.484,0,0,0-.779,1.915l0.375,3.125c0.422,0.876,2.474,1.155,3.03.21A3.768,3.768,0,0,0,31.536,98.6Z"/>
    <path id="Rounded_Rectangle_599" data-name="Rounded Rectangle 599" class="cls-6" d="M44.581,97.476l-1.814-.561A1.412,1.412,0,0,0,41,97.907a1.484,1.484,0,0,0,.955,1.834l2.481,1.785c0.459-.06,2.628-1.181,2.268-2.216A3.774,3.774,0,0,0,44.581,97.476Z"/>
    <path class="cls-7" d="M47.174,64.652A50.442,50.442,0,0,1,43.23,97.4H40.6s0.665-24.909-2.483-25.828c0,0,.536,14.421-6.72,25.983H27.453S33.19,70.7,28.563,63Z"/>
    <path class="cls-8" d="M43.23,36.724S46.729,40.5,47.563,44s4.719,16.057.38,22.515A35.988,35.988,0,0,1,29.563,66s-1-1.207-1-5c0,0-.632-20.329,8.093-26.765,0,0,.349,3.018,4.71,1.388a1.712,1.712,0,0,1,.992.088A6.787,6.787,0,0,1,43.23,36.724Z"/>
    <g id="pen">
      <path class="cls-9" d="M44.252,35.4s3.277-8.927-4.966-9.1c0,0-8.753,1.781-3.026,9.872,0,0,.611,2.5,1.3,2.828a3.74,3.74,0,0,0,3,0c0.361-.139.592-1.226,0.592-2.082a4.562,4.562,0,0,0,3.1-1.517"/>
      <path class="cls-6" d="M44.563,38s7.712-4.36,2.611-13.023c0,0-4.234-5.591-12.174-2.977a10.511,10.511,0,0,0-6.233,10.912s0.272,4.019,2.63,5.29c0,0,4.463,3.729,3.944,0h0V31.59s0.366-3.165,1.315-3.967C38.064,29.028,40.6,26.3,40.6,26.3c0.187-.272,3.529,1.87,3.137,5.445C43.6,33.008,42.828,35.314,41.563,36c-1.6.869-.377,2.7,1,3C43.482,39.2,44.563,38,44.563,38Z"/>
      <path class="cls-4" d="M95.948,37.445"/>
      <path class="cls-10" d="M61.112,38.293L42.419,55.269l-4.248,4.244L33.923,54.42,56.014,32.352Z"/>
      <path class="cls-11" d="M61.112,38.293l0.85-5.941-0.85-.849-5.947.849Z"/>
      <path class="cls-6" d="M61.961,33.837a47.771,47.771,0,0,0-3.5-3.5H63.13S62.32,34.435,61.961,33.837Z"/>
    </g>
    <path class="cls-9" d="M50.523,43.981s4.82,0.5,3.191,3.219c0,0-4.355,2.515-6.383,1.61C47.332,48.81,45.437,44.484,50.523,43.981Z"/>
    <path class="cls-12" d="M34.563,40s1.838,3.807,3,6,4.5,2.807,7,1,3-1,3-1L50,49s-5.766,2.474-9.437,3-4.972-1.131-7-4A24.18,24.18,0,0,1,31,44,3.574,3.574,0,0,1,34.563,40Z"/>
  </g>
  <g id="_1" data-name="1">
    <rect id="Rounded_Rectangle_593_copy" data-name="Rounded Rectangle 593 copy" class="cls-13" x="81" y="21" width="66" height="20" rx="5" ry="5"/>
    <path id="Rounded_Rectangle_599-2" data-name="Rounded Rectangle 599" class="cls-14" d="M114,27h27a1,1,0,0,1,0,2H114A1,1,0,0,1,114,27Zm0,6h16a1,1,0,0,1,0,2H114A1,1,0,0,1,114,33Z"/>
    <path id="Draft" class="cls-10" d="M88.19,34.886a2.918,2.918,0,0,0,2.206-.869,3.124,3.124,0,0,0,.835-2.258V30.769a3.135,3.135,0,0,0-.835-2.258,2.909,2.909,0,0,0-2.206-.874h-2.2v7.25h2.2Zm0-6.478a1.9,1.9,0,0,1,1.532.662,2.523,2.523,0,0,1,.561,1.688v1a2.538,2.538,0,0,1-.561,1.7,1.9,1.9,0,0,1-1.532.662H86.935V28.409H88.19Zm6.932,1.046a1.316,1.316,0,0,0-.159-0.037,1.134,1.134,0,0,0-.2-0.017,1.246,1.246,0,0,0-.748.234,1.852,1.852,0,0,0-.546.652L93.376,29.5H92.529v5.388h0.948V31.038a1.176,1.176,0,0,1,.4-0.518,1.058,1.058,0,0,1,.632-0.184l0.486,0.03Zm5.032,5.432a2.961,2.961,0,0,1-.106-0.528,5.287,5.287,0,0,1-.029-0.558V31.207a1.677,1.677,0,0,0-.539-1.342,2.1,2.1,0,0,0-1.424-.465,2.154,2.154,0,0,0-1.46.488,1.305,1.305,0,0,0-.532,1.076l0.01,0.03,0.9-.01a0.726,0.726,0,0,1,.284-0.573A1.119,1.119,0,0,1,98,30.171a1.073,1.073,0,0,1,.789.276,1.007,1.007,0,0,1,.279.749V31.73H98.042a2.748,2.748,0,0,0-1.638.436,1.406,1.406,0,0,0-.6,1.207,1.615,1.615,0,0,0,.426,1.188,1.666,1.666,0,0,0,1.239.431,1.721,1.721,0,0,0,.916-0.261,2.241,2.241,0,0,0,.69-0.65,3.231,3.231,0,0,0,.031.376q0.026,0.187.075,0.431h0.977Zm-3.189-.926a0.752,0.752,0,0,1-.217-0.568,0.9,0.9,0,0,1,.344-0.7,1.348,1.348,0,0,1,.916-0.3h1.063v0.876a1.29,1.29,0,0,1-.539.627,1.646,1.646,0,0,1-.928.274A0.886,0.886,0,0,1,96.965,33.96Zm5.772,0.926V30.226h0.943V29.5h-0.943V28.817a1.18,1.18,0,0,1,.2-0.744,0.737,0.737,0,0,1,.616-0.256,2.136,2.136,0,0,1,.257.015,2.088,2.088,0,0,1,.21.035l0.115-.747c-0.135-.033-0.257-0.059-0.368-0.077a2.037,2.037,0,0,0-.33-0.027,1.572,1.572,0,0,0-1.214.471,1.89,1.89,0,0,0-.436,1.332V29.5h-0.813v0.727h0.813v4.661h0.948Zm2.271-6.687v1.3H104.18v0.727h0.828V33.5a1.6,1.6,0,0,0,.341,1.133,1.205,1.205,0,0,0,.919.361,1.53,1.53,0,0,0,.409-0.057,0.829,0.829,0,0,0,.313-0.147l-0.13-.672a1.285,1.285,0,0,1-.169.047,0.843,0.843,0,0,1-.183.022,0.537,0.537,0,0,1-.4-0.154,0.75,0.75,0,0,1-.152-0.533V30.226h0.986V29.5h-0.986V28.2h-0.947Z"/>
  </g>
</svg>
