<svg id="icon" xmlns="http://www.w3.org/2000/svg" width="178" height="122" viewBox="0 0 178 122">
  <defs>
    <style>
      .cls-1, .cls-12 {
        fill: #eef3fe;
      }

      .cls-1, .cls-10, .cls-11, .cls-13, .cls-14, .cls-2, .cls-3, .cls-4, .cls-5, .cls-6, .cls-7, .cls-8, .cls-9 {
        fill-rule: evenodd;
      }

      .cls-2 {
        fill: #dedede;
      }

      .cls-15, .cls-3, .cls-9 {
        fill: #fff;
      }

      .cls-4 {
        fill: #7879dc;
      }

      .cls-5 {
        fill: #d5d6db;
      }

      .cls-6 {
        fill: #ffc501;
      }

      .cls-7 {
        fill: #33e2a6;
      }

      .cls-8 {
        fill: #5387ff;
      }

      .cls-9 {
        stroke: #e3e3e3;
      }

      .cls-14, .cls-9 {
        stroke-linejoin: round;
        stroke-width: 1px;
      }

      .cls-11 {
        fill: #343439;
      }

      .cls-13 {
        fill: #3be2a9;
      }

      .cls-14 {
        fill: #569bfc;
        stroke: #569bfc;
      }
    </style>
  </defs>
  <path class="cls-1" d="M19,70.019c0.518-12.348,3.106-22.638,28.987-30.87S81.739,27.287,94.68,19.569c10.426-6.394,42.473-5.832,57.974,15.435,10.784,14.8,10.007,34.037-2.07,47.334-10.26,11.3-31.5,20.432-52.8,24.7-21.692,4.344-37.893,1.057-53.939-5.117S18.655,84.768,19,70.019Z"/>
  <g id="AD">
    <path id="Forma_1" data-name="Forma 1" class="cls-2" d="M152.81,25.991L128.183,12.907a3.1,3.1,0,0,0-4.19,1.283L110.909,38.817a3.1,3.1,0,0,0,1.282,4.19l24.628,13.084a3.1,3.1,0,0,0,4.19-1.283l13.084-24.628A3.1,3.1,0,0,0,152.81,25.991Z"/>
    <path id="Forma_1_copy_4" data-name="Forma 1 copy 4" class="cls-3" d="M141.009,54.808l13.084-24.628M138.574,54.337L112.663,40.572l11.585-21.807,25.911,13.766Z"/>
    <path id="Forma_1_copy_5" data-name="Forma 1 copy 5" class="cls-4" d="M118.605,35.888l13.682,7.269a0.775,0.775,0,0,0,1.048-.321l5.815-10.946a0.774,0.774,0,0,0-.321-1.047l-13.682-7.269a0.775,0.775,0,0,0-1.048.321l-5.815,10.946A0.775,0.775,0,0,0,118.605,35.888Z"/>
    <path id="Forma_1_copy_7" data-name="Forma 1 copy 7" class="cls-3" d="M131.411,36.551l1.453-2.736a0.775,0.775,0,0,0-.32-1.047L131.86,32.4l-2.181,4.1,0.684,0.364A0.776,0.776,0,0,0,131.411,36.551Zm-4.019-5.644a0.775,0.775,0,0,0-1.369-.727l-1.09,2.052L126.3,32.96l1.091-2.052h0Zm3.463,0.086a0.774,0.774,0,0,1,1.047-.321l1.369,0.727a2.327,2.327,0,0,1,.962,3.143l-1.454,2.736a2.327,2.327,0,0,1-3.143.962l-1.368-.727a0.774,0.774,0,0,1-.321-1.047Zm-6.2-1.539a2.324,2.324,0,0,1,4.1,2.181l-2.181,4.1a0.775,0.775,0,0,1-1.368-.727l0.363-.684-1.368-.727-0.363.684a0.775,0.775,0,1,1-1.368-.727l2.18-4.1h0Z"/>
    <path id="Forma_1_copy_6" data-name="Forma 1 copy 6" class="cls-5" d="M116.424,39.993l20.524,10.9a0.775,0.775,0,0,0,.727-1.368l-20.524-10.9A0.775,0.775,0,0,0,116.424,39.993ZM139.385,36.4l4.1,2.181a0.775,0.775,0,1,0,.727-1.368l-4.1-2.181A0.775,0.775,0,1,0,139.385,36.4Zm-2.181,4.1,4.1,2.181a0.775,0.775,0,0,0,.727-1.368l-4.1-2.181A0.775,0.775,0,0,0,137.2,40.506Zm-2.18,4.1,4.1,2.181a0.775,0.775,0,1,0,.727-1.368l-4.1-2.181A0.774,0.774,0,1,0,135.024,44.611Z"/>
    <path id="Forma_1_copy" data-name="Forma 1 copy" class="cls-6" d="M127.413,16.006a0.775,0.775,0,1,1-1.047.321A0.774,0.774,0,0,1,127.413,16.006Z"/>
    <path id="Forma_1_copy_2" data-name="Forma 1 copy 2" class="cls-7" d="M130.15,17.46a0.775,0.775,0,1,1-1.048.321A0.775,0.775,0,0,1,130.15,17.46Z"/>
    <path id="Forma_1_copy_3" data-name="Forma 1 copy 3" class="cls-8" d="M132.886,18.914a0.775,0.775,0,1,1-1.048.321A0.775,0.775,0,0,1,132.886,18.914Z"/>
  </g>
  <g id="_3" data-name="3">
    <path class="cls-9" d="M116.467,87.007h13.581s7.27,4.841,2.037,16.085c0,0-1.048,2.016-11.544,1.9h-8.149S108.854,98.259,109,97.5,116.467,87.007,116.467,87.007Z"/>
    <path class="cls-9" d="M48.227,15H114.96s5.352,0.345,6.066,7.915V99.678s2.01,4.868,6.933,5.277l-74.532.879s-8.514-3.046-9.533-10.553L43.027,21.156S42.408,16.005,48.227,15Z"/>
    <path id="Source" class="cls-10" d="M53.683,29.487a1.2,1.2,0,0,1-.361.4,1.5,1.5,0,0,1-.538.232,2.968,2.968,0,0,1-.668.072,4.065,4.065,0,0,1-1.088-.134,3.411,3.411,0,0,1-.732-0.274l-0.3.817a3.576,3.576,0,0,0,.818.282,5.845,5.845,0,0,0,1.335.127,3.469,3.469,0,0,0,1.077-.155,2.329,2.329,0,0,0,.808-0.442,1.88,1.88,0,0,0,.506-0.685,2.231,2.231,0,0,0,.172-0.895,1.81,1.81,0,0,0-.269-1.016,2.689,2.689,0,0,0-.673-0.7,5.348,5.348,0,0,0-.878-0.514q-0.474-.221-0.878-0.447a2.763,2.763,0,0,1-.673-0.513,1.045,1.045,0,0,1,.086-1.485,1.532,1.532,0,0,1,1.066-.326,4.7,4.7,0,0,1,1.082.114,3.464,3.464,0,0,1,.727.239l0.269-.817a3.146,3.146,0,0,0-.84-0.254,6.615,6.615,0,0,0-1.2-.1,2.59,2.59,0,0,0-1.745.53,1.8,1.8,0,0,0-.614,1.436,1.9,1.9,0,0,0,.269,1.055,2.5,2.5,0,0,0,.673.7,4.713,4.713,0,0,0,.878.48,8.618,8.618,0,0,1,.878.425,2.7,2.7,0,0,1,.673.519,1.074,1.074,0,0,1,.269.756A1.167,1.167,0,0,1,53.683,29.487Zm2.2-.182a2.555,2.555,0,0,0,.431.917,1.911,1.911,0,0,0,.738.585,2.505,2.505,0,0,0,1.05.2,2.129,2.129,0,0,0,1.75-.745,3.322,3.322,0,0,0,.608-2.148,4.7,4.7,0,0,0-.14-1.187,2.56,2.56,0,0,0-.431-0.917,1.914,1.914,0,0,0-.738-0.585,2.507,2.507,0,0,0-1.05-.2,2.128,2.128,0,0,0-1.75.745,3.322,3.322,0,0,0-.608,2.148A4.689,4.689,0,0,0,55.885,29.3ZM58.1,26a1.278,1.278,0,0,1,.678.171,1.333,1.333,0,0,1,.452.458,2.162,2.162,0,0,1,.253.674,3.993,3.993,0,0,1,.081.817q0,2.131-1.465,2.12a1.245,1.245,0,0,1-.678-0.177,1.376,1.376,0,0,1-.452-0.464,2.157,2.157,0,0,1-.253-0.674,3.934,3.934,0,0,1-.081-0.806q0-2.131,1.464-2.12h0Zm3.629-.64v3.335a4.722,4.722,0,0,0,.113,1.132,1.779,1.779,0,0,0,.334.712,1.159,1.159,0,0,0,.549.37,2.5,2.5,0,0,0,.759.1,1.849,1.849,0,0,0,1.066-.287,2.175,2.175,0,0,0,.668-0.718h0.054l0.215,0.872h0.592a5.6,5.6,0,0,1-.091-0.745q-0.027-.425-0.027-0.823V25.357H65.1v3.689a2.338,2.338,0,0,1-.221.458,1.885,1.885,0,0,1-.312.381,1.292,1.292,0,0,1-.921.353,1.078,1.078,0,0,1-.517-0.11,0.8,0.8,0,0,1-.323-0.326,1.613,1.613,0,0,1-.167-0.541,5.2,5.2,0,0,1-.049-0.756V25.357H61.732Zm8.614,0a2.585,2.585,0,0,0-.7-0.11,1.219,1.219,0,0,0-.727.2,1.69,1.69,0,0,0-.49.58H68.387l-0.162-.674h-0.6v5.522h0.862V27.013a1.139,1.139,0,0,1,.334-0.657A1.011,1.011,0,0,1,69.55,26.1a1.9,1.9,0,0,1,.614.11Zm4.329,4.484a1.949,1.949,0,0,1-.5.276,1.873,1.873,0,0,1-.695.122,1.5,1.5,0,0,1-.759-0.177,1.423,1.423,0,0,1-.5-0.469,1.992,1.992,0,0,1-.269-0.674,3.855,3.855,0,0,1-.081-0.8Q71.875,26,73.4,26a2.427,2.427,0,0,1,.646.083,2.317,2.317,0,0,1,.549.226l0.248-.762a2.648,2.648,0,0,0-.651-0.237,3.986,3.986,0,0,0-.878-0.083,2.1,2.1,0,0,0-1.734.745,3.343,3.343,0,0,0-.6,2.148,5.273,5.273,0,0,0,.124,1.187,2.519,2.519,0,0,0,.4.917,1.81,1.81,0,0,0,.705.585,2.452,2.452,0,0,0,1.055.2,3.336,3.336,0,0,0,.926-0.127,2.325,2.325,0,0,0,.764-0.37ZM79.5,29.8a1.546,1.546,0,0,1-.549.309,2.138,2.138,0,0,1-.732.133,2.067,2.067,0,0,1-.8-0.138,1.309,1.309,0,0,1-.533-0.4,1.7,1.7,0,0,1-.3-0.635,3.459,3.459,0,0,1-.1-0.861h3.457a5.619,5.619,0,0,0,.065-0.806,2.874,2.874,0,0,0-.183-1.121,1.659,1.659,0,0,0-.474-0.657,1.611,1.611,0,0,0-.657-0.315,3.312,3.312,0,0,0-.732-0.083,2.152,2.152,0,0,0-1.755.74,3.3,3.3,0,0,0-.614,2.153,4.672,4.672,0,0,0,.14,1.193,2.559,2.559,0,0,0,.431.911,1.9,1.9,0,0,0,.743.585,2.573,2.573,0,0,0,1.066.2,3.436,3.436,0,0,0,1.039-.155,2.409,2.409,0,0,0,.813-0.42Zm-0.646-3.462a1.729,1.729,0,0,1,.312,1.176H76.495a1.735,1.735,0,0,1,.458-1.171A1.468,1.468,0,0,1,77.97,26,1.145,1.145,0,0,1,78.853,26.334Z"/>
    <path id="Trade_Show" data-name="Trade Show" class="cls-11" d="M70.539,41.527H64.988v0.784h2.286V48.9h0.95V42.312h2.315V41.527Zm3.106,1.847a1.31,1.31,0,0,0-.159-0.038,1.122,1.122,0,0,0-.2-0.018,1.238,1.238,0,0,0-.75.238,1.876,1.876,0,0,0-.547.663l-0.092-.8H71.046V48.9H72V44.983a1.194,1.194,0,0,1,.4-0.526,1.051,1.051,0,0,1,.634-0.187l0.487,0.03ZM78.691,48.9a3.033,3.033,0,0,1-.106-0.536,5.377,5.377,0,0,1-.029-0.567V45.156a1.716,1.716,0,0,0-.54-1.364,2.089,2.089,0,0,0-1.428-.473,2.142,2.142,0,0,0-1.464.5,1.333,1.333,0,0,0-.533,1.093l0.01,0.03,0.9-.01a0.741,0.741,0,0,1,.285-0.582,1.112,1.112,0,0,1,.748-0.243,1.068,1.068,0,0,1,.791.281,1.032,1.032,0,0,1,.28.762v0.541H76.574a2.727,2.727,0,0,0-1.642.443,1.435,1.435,0,0,0-.605,1.227A1.505,1.505,0,0,0,75.995,49a1.707,1.707,0,0,0,.919-0.266,2.26,2.26,0,0,0,.692-0.66,3.359,3.359,0,0,0,.031.382q0.026,0.19.075,0.438h0.979Zm-3.2-.941a0.77,0.77,0,0,1-.217-0.577,0.924,0.924,0,0,1,.345-0.714,1.34,1.34,0,0,1,.919-0.3h1.066v0.891a1.305,1.305,0,0,1-.54.638,1.633,1.633,0,0,1-.931.278A0.882,0.882,0,0,1,75.493,47.954Zm4.225-1.589a3.122,3.122,0,0,0,.54,1.91,1.759,1.759,0,0,0,1.5.726,1.815,1.815,0,0,0,.873-0.2,1.724,1.724,0,0,0,.632-0.6L83.4,48.9h0.728V41h-0.95v3.011a1.686,1.686,0,0,0-.605-0.516,1.8,1.8,0,0,0-.813-0.177,1.71,1.71,0,0,0-1.507.81,3.789,3.789,0,0,0-.538,2.13v0.106Zm0.95-.106a3.179,3.179,0,0,1,.326-1.538A1.077,1.077,0,0,1,82,44.128a1.211,1.211,0,0,1,.7.2,1.509,1.509,0,0,1,.475.539v2.556a1.49,1.49,0,0,1-.473.567,1.214,1.214,0,0,1-.714.2,1.111,1.111,0,0,1-1-.5,2.412,2.412,0,0,1-.323-1.328V46.259Zm8.147,2.548a2.267,2.267,0,0,0,.738-0.478l-0.371-.648a1.875,1.875,0,0,1-.625.4,2.291,2.291,0,0,1-.847.144,1.193,1.193,0,0,1-1.061-.514A2.346,2.346,0,0,1,86.3,46.37l0.014-.025h3.338V45.818A2.911,2.911,0,0,0,89.131,44a1.854,1.854,0,0,0-1.57-.683,2,2,0,0,0-1.585.772,2.928,2.928,0,0,0-.649,1.951v0.223a2.994,2.994,0,0,0,.629,1.984A2.159,2.159,0,0,0,87.711,49,2.819,2.819,0,0,0,88.815,48.807Zm-0.391-4.314a1.651,1.651,0,0,1,.28.987V45.56H86.351l-0.01-.025a1.955,1.955,0,0,1,.4-1.03,1.014,1.014,0,0,1,.822-0.4A0.991,0.991,0,0,1,88.425,44.493ZM96.656,47.9a1.648,1.648,0,0,1-1.068.319,1.838,1.838,0,0,1-1.134-.377,1.26,1.26,0,0,1-.5-1.07H93.046l-0.01.03a1.851,1.851,0,0,0,.755,1.6,2.872,2.872,0,0,0,1.8.6,2.682,2.682,0,0,0,1.744-.541A1.752,1.752,0,0,0,98,47.028a1.9,1.9,0,0,0-.555-1.386,3.524,3.524,0,0,0-1.616-.85,3.5,3.5,0,0,1-1.261-.564,1,1,0,0,1-.388-0.8,1.164,1.164,0,0,1,.355-0.88,1.419,1.419,0,0,1,1.02-.339,1.461,1.461,0,0,1,1.068.41,1.393,1.393,0,0,1,.417,1.037h0.907l0.014-.03a2.048,2.048,0,0,0-.639-1.541,2.385,2.385,0,0,0-1.768-.66A2.426,2.426,0,0,0,93.875,42a1.853,1.853,0,0,0-.646,1.442,1.755,1.755,0,0,0,.6,1.361,3.936,3.936,0,0,0,1.671.82,2.8,2.8,0,0,1,1.206.577,1.135,1.135,0,0,1,.343.84A1.055,1.055,0,0,1,96.656,47.9Zm3.509-6.9h-0.95V48.9h0.95v-4.1a1.371,1.371,0,0,1,.506-0.488,1.493,1.493,0,0,1,.738-0.175,1.03,1.03,0,0,1,.828.324,1.515,1.515,0,0,1,.277,1V48.9h0.95V45.464A2.394,2.394,0,0,0,103,43.845a1.646,1.646,0,0,0-1.3-.526,1.754,1.754,0,0,0-.871.22,1.958,1.958,0,0,0-.663.615V41Zm4.442,5.217a3.089,3.089,0,0,0,.63,2,2.26,2.26,0,0,0,3.417,0,3.1,3.1,0,0,0,.627-2V46.107a3.1,3.1,0,0,0-.629-2,2.252,2.252,0,0,0-3.418,0,3.112,3.112,0,0,0-.627,2v0.111Zm0.951-.111a2.7,2.7,0,0,1,.349-1.432,1.134,1.134,0,0,1,1.03-.572,1.149,1.149,0,0,1,1.04.572,2.676,2.676,0,0,1,.354,1.432v0.111a2.679,2.679,0,0,1-.352,1.437,1.23,1.23,0,0,1-2.072,0,2.7,2.7,0,0,1-.349-1.437V46.107Zm5.4-2.687h-0.989l1.515,5.475h0.767l1.013-3.335,0.183-.87h0.029l0.2,0.87,1.033,3.335h0.767l1.514-5.475H116L115.224,46.9l-0.155.784h-0.028l-0.136-.784-1.046-3.482H113.1L112.055,46.9l-0.126.7H111.9l-0.12-.7Z"/>
    <g id="Group_18_copy" data-name="Group 18 copy">
      <path id="Chat" class="cls-11" d="M69.394,66.526a1.691,1.691,0,0,1-.439,1.237,1.657,1.657,0,0,1-1.239.448,1.5,1.5,0,0,1-1.283-.673,2.827,2.827,0,0,1-.478-1.68V64.538a2.809,2.809,0,0,1,.478-1.67,1.5,1.5,0,0,1,1.283-.673,1.652,1.652,0,0,1,1.239.45,1.679,1.679,0,0,1,.439,1.225h0.922l0.01-.03a2.241,2.241,0,0,0-.693-1.764,2.7,2.7,0,0,0-1.917-.665,2.462,2.462,0,0,0-1.964.888,3.341,3.341,0,0,0-.759,2.249v1.311a3.331,3.331,0,0,0,.759,2.247,2.465,2.465,0,0,0,1.964.886,2.628,2.628,0,0,0,1.908-.7,2.254,2.254,0,0,0,.7-1.736l-0.01-.03H69.394ZM72.4,60.99H71.443v7.894H72.4v-4.1a1.377,1.377,0,0,1,.512-0.488,1.524,1.524,0,0,1,.746-0.175,1.047,1.047,0,0,1,.837.324,1.5,1.5,0,0,1,.281,1v3.441h0.961V65.454a2.373,2.373,0,0,0-.471-1.619,1.673,1.673,0,0,0-1.315-.526,1.788,1.788,0,0,0-.881.22,1.972,1.972,0,0,0-.671.615V60.99Zm8.953,7.894a3,3,0,0,1-.107-0.537,5.322,5.322,0,0,1-.029-0.567V65.145a1.706,1.706,0,0,0-.546-1.364,2.129,2.129,0,0,0-1.444-.473,2.182,2.182,0,0,0-1.481.5A1.328,1.328,0,0,0,77.21,64.9l0.01,0.03,0.912-.01a0.738,0.738,0,0,1,.288-0.582,1.133,1.133,0,0,1,.756-0.243,1.087,1.087,0,0,1,.8.281,1.025,1.025,0,0,1,.283.762v0.541H79.215a2.782,2.782,0,0,0-1.661.443,1.43,1.43,0,0,0-.612,1.227,1.644,1.644,0,0,0,.432,1.207,1.688,1.688,0,0,0,1.256.438,1.741,1.741,0,0,0,.929-0.266,2.274,2.274,0,0,0,.7-0.66,3.314,3.314,0,0,0,.032.382q0.027,0.19.076,0.438h0.99Zm-3.235-.941a0.765,0.765,0,0,1-.219-0.577,0.92,0.92,0,0,1,.349-0.713,1.365,1.365,0,0,1,.929-0.3h1.078V67.24a1.31,1.31,0,0,1-.546.638,1.665,1.665,0,0,1-.942.278A0.9,0.9,0,0,1,78.122,67.943Zm4.869-5.855v1.321H82.152v0.739h0.839v3.325a1.632,1.632,0,0,0,.346,1.151,1.22,1.22,0,0,0,.932.367,1.546,1.546,0,0,0,.415-0.058A0.835,0.835,0,0,0,85,68.783L84.87,68.1a1.338,1.338,0,0,1-.171.048,0.867,0.867,0,0,1-.185.023,0.544,0.544,0,0,1-.407-0.157,0.763,0.763,0,0,1-.154-0.541V64.148h1V63.409h-1V62.088H82.991Z"/>
      <path id="Sales_Email" data-name="Sales Email" class="cls-11" d="M68.632,86.916a1.653,1.653,0,0,1-1.07.319,1.844,1.844,0,0,1-1.135-.377,1.259,1.259,0,0,1-.5-1.07H65.016l-0.01.03a1.85,1.85,0,0,0,.756,1.6,2.88,2.88,0,0,0,1.8.6,2.691,2.691,0,0,0,1.747-.541,1.751,1.751,0,0,0,.669-1.432,1.9,1.9,0,0,0-.556-1.387A3.531,3.531,0,0,0,67.8,83.8a3.5,3.5,0,0,1-1.263-.564,1,1,0,0,1-.389-0.8,1.163,1.163,0,0,1,.355-0.88,1.423,1.423,0,0,1,1.022-.339,1.465,1.465,0,0,1,1.07.41,1.392,1.392,0,0,1,.418,1.037h0.908l0.014-.03a2.046,2.046,0,0,0-.64-1.541,2.391,2.391,0,0,0-1.771-.66,2.433,2.433,0,0,0-1.681.577,1.851,1.851,0,0,0-.647,1.442,1.754,1.754,0,0,0,.6,1.361,3.946,3.946,0,0,0,1.674.82,2.806,2.806,0,0,1,1.208.577,1.134,1.134,0,0,1,.343.84A1.055,1.055,0,0,1,68.632,86.916Zm6.757,0.992a3.046,3.046,0,0,1-.106-0.536,5.38,5.38,0,0,1-.029-0.567V84.168a1.715,1.715,0,0,0-.541-1.364,2.1,2.1,0,0,0-1.43-.473,2.148,2.148,0,0,0-1.466.5,1.332,1.332,0,0,0-.534,1.093l0.01,0.03,0.9-.01a0.741,0.741,0,0,1,.285-0.582,1.115,1.115,0,0,1,.749-0.243,1.07,1.07,0,0,1,.792.281,1.03,1.03,0,0,1,.28.762V84.7H73.268a2.736,2.736,0,0,0-1.645.443,1.435,1.435,0,0,0-.606,1.227,1.506,1.506,0,0,0,1.672,1.645,1.713,1.713,0,0,0,.921-0.266,2.261,2.261,0,0,0,.693-0.66,3.336,3.336,0,0,0,.031.382q0.027,0.19.075,0.438h0.981Zm-3.2-.941a0.77,0.77,0,0,1-.218-0.577,0.923,0.923,0,0,1,.345-0.713,1.344,1.344,0,0,1,.92-0.3H74.3v0.891a1.306,1.306,0,0,1-.541.638,1.638,1.638,0,0,1-.933.278A0.884,0.884,0,0,1,72.186,86.967Zm5.479-6.953H76.713v7.894h0.952V80.014ZM82.4,87.819a2.271,2.271,0,0,0,.739-0.478l-0.372-.648a1.878,1.878,0,0,1-.626.4,2.3,2.3,0,0,1-.848.144,1.2,1.2,0,0,1-1.063-.514,2.343,2.343,0,0,1-.348-1.338l0.014-.025h3.344V84.831a2.908,2.908,0,0,0-.524-1.817,1.859,1.859,0,0,0-1.573-.683,2,2,0,0,0-1.587.772,2.924,2.924,0,0,0-.65,1.951v0.223a2.99,2.99,0,0,0,.63,1.984,2.164,2.164,0,0,0,1.756.754A2.826,2.826,0,0,0,82.4,87.819Zm-0.391-4.314a1.648,1.648,0,0,1,.28.987v0.081H79.931l-0.01-.025a1.953,1.953,0,0,1,.4-1.03,1.017,1.017,0,0,1,.824-0.4A0.994,0.994,0,0,1,82.009,83.505Zm5.052,3.5a1.258,1.258,0,0,1-.795.225,1.409,1.409,0,0,1-.826-0.245,0.935,0.935,0,0,1-.377-0.777H84.154l-0.01.03a1.547,1.547,0,0,0,.546,1.24,2.591,2.591,0,0,0,3.046.071,1.466,1.466,0,0,0,.563-1.189,1.231,1.231,0,0,0-.5-1.017,3.653,3.653,0,0,0-1.459-.6,2.312,2.312,0,0,1-.887-0.324,0.612,0.612,0,0,1-.215-0.5,0.757,0.757,0,0,1,.249-0.567,1.051,1.051,0,0,1,.751-0.238,1.035,1.035,0,0,1,.751.288,0.879,0.879,0,0,1,.3.643H88.2l0.01-.03a1.479,1.479,0,0,0-.527-1.179,2.312,2.312,0,0,0-2.848-.03,1.469,1.469,0,0,0-.544,1.144,1.193,1.193,0,0,0,.5,1,3.7,3.7,0,0,0,1.418.582,2.251,2.251,0,0,1,.906.364,0.677,0.677,0,0,1,.239.536A0.7,0.7,0,0,1,87.061,87.01Zm8.854-3.3H93.026V81.324h3.329V80.54H92.074v7.368h4.334V87.129H93.026V84.492h2.889V83.708ZM97.4,82.433v5.475h0.952V83.855a1.2,1.2,0,0,1,.43-0.526,1.263,1.263,0,0,1,.715-0.187,0.929,0.929,0,0,1,.785.357,1.86,1.86,0,0,1,.273,1.126v3.284h0.957V84.391a1.58,1.58,0,0,1,.355-0.9,0.988,0.988,0,0,1,.79-0.354,0.951,0.951,0,0,1,.793.337,1.888,1.888,0,0,1,.265,1.146v3.284h0.952V84.634a2.708,2.708,0,0,0-.464-1.728,1.534,1.534,0,0,0-1.261-.574A1.653,1.653,0,0,0,102,82.6a2.011,2.011,0,0,0-.655.741,1.522,1.522,0,0,0-.563-0.759,1.563,1.563,0,0,0-.9-0.253,1.881,1.881,0,0,0-.916.215,1.805,1.805,0,0,0-.65.6l-0.068-.719H97.4Zm12.843,5.475a3.054,3.054,0,0,1-.106-0.536,5.2,5.2,0,0,1-.029-0.567V84.168a1.717,1.717,0,0,0-.541-1.364,2.1,2.1,0,0,0-1.431-.473,2.146,2.146,0,0,0-1.466.5,1.33,1.33,0,0,0-.534,1.093l0.01,0.03,0.9-.01a0.741,0.741,0,0,1,.285-0.582,1.116,1.116,0,0,1,.749-0.243,1.071,1.071,0,0,1,.793.281,1.033,1.033,0,0,1,.28.762V84.7h-1.034a2.734,2.734,0,0,0-1.645.443,1.434,1.434,0,0,0-.607,1.227,1.507,1.507,0,0,0,1.672,1.645,1.716,1.716,0,0,0,.921-0.266,2.259,2.259,0,0,0,.693-0.66,3.477,3.477,0,0,0,.031.382q0.027,0.19.075,0.438h0.981Zm-3.2-.941a0.77,0.77,0,0,1-.218-0.577,0.922,0.922,0,0,1,.346-0.713,1.343,1.343,0,0,1,.92-0.3h1.068v0.891a1.307,1.307,0,0,1-.541.638,1.639,1.639,0,0,1-.933.278A0.883,0.883,0,0,1,107.043,86.967Zm5.479-4.534H111.57v5.475h0.952V82.433Zm0-2.419H111.57v1.017h0.952V80.014Zm2.493,0h-0.952v7.894h0.952V80.014Z"/>
    </g>
    <g>
      <rect id="Rounded_Rectangle_601" data-name="Rounded Rectangle 601" class="cls-12" x="49" y="39" width="12" height="12" rx="1" ry="1"/>
      <rect id="Rounded_Rectangle_601-2" data-name="Rounded Rectangle 601" class="cls-12" x="49" y="59" width="12" height="12" rx="1" ry="1"/>
      <rect id="Rounded_Rectangle_601_copy" data-name="Rounded Rectangle 601 copy" class="cls-12" x="49" y="78" width="12" height="12" rx="1" ry="1"/>
      <path id="Forma_1-2" data-name="Forma 1" class="cls-13" d="M58.906,81.182L54.023,86.4,52.049,84.29a0.593,0.593,0,0,0-.878,0,0.7,0.7,0,0,0,0,.938l2.413,2.577a0.593,0.593,0,0,0,.878,0v0l5.32-5.684a0.7,0.7,0,0,0,0-.938A0.593,0.593,0,0,0,58.906,81.182Z"/>
      <path id="Forma_1_copy_8" data-name="Forma 1 copy 8" class="cls-13" d="M58.906,62.182L54.023,67.4,52.049,65.29a0.593,0.593,0,0,0-.878,0,0.7,0.7,0,0,0,0,.938l2.413,2.577a0.593,0.593,0,0,0,.878,0v0l5.32-5.684a0.7,0.7,0,0,0,0-.938A0.593,0.593,0,0,0,58.906,62.182Z"/>
      <path id="Forma_1_copy_10" data-name="Forma 1 copy 10" class="cls-13" d="M58.906,42.182L54.023,47.4,52.049,45.29a0.593,0.593,0,0,0-.878,0,0.7,0.7,0,0,0,0,.938l2.413,2.577a0.593,0.593,0,0,0,.878,0v0l5.32-5.684a0.7,0.7,0,0,0,0-.938A0.593,0.593,0,0,0,58.906,42.182Z"/>
    </g>
  </g>
  <g id="Chat-2" data-name="Chat">
    <path id="Forma_1-3" data-name="Forma 1" class="cls-14" d="M137.427,81.82a12.091,12.091,0,0,0,3.268.443c5.359,0,9.7-3.406,9.7-7.613s-4.344-7.612-9.7-7.612-9.7,3.407-9.7,7.612a6.856,6.856,0,0,0,2.745,5.307,6.437,6.437,0,0,1-1.383,4.028A9.118,9.118,0,0,0,137.427,81.82Zm16.164-6.428a6.366,6.366,0,0,0,1.285-3.787c0-4.205-4.344-7.613-9.7-7.613a11.382,11.382,0,0,0-6.2,1.757,13.11,13.11,0,0,1,2.468-.234c5.772,0,10.449,3.75,10.449,8.374a7.278,7.278,0,0,1-1.957,4.883,9.109,9.109,0,0,0,5.074,2.168c-1.354-1.31-1.45-4.211-1.416-5.547h0Z"/>
    <circle class="cls-15" cx="136.5" cy="74.5" r="1.5"/>
    <circle id="Ellipse_989_copy" data-name="Ellipse 989 copy" class="cls-15" cx="141" cy="74.5" r="1.5"/>
    <circle id="Ellipse_989_copy_2" data-name="Ellipse 989 copy 2" class="cls-15" cx="145.5" cy="74.5" r="1.5"/>
  </g>
</svg>
