<svg id="icon" xmlns="http://www.w3.org/2000/svg" width="178" height="122" viewBox="0 0 178 122">
  <defs>
    <style>
      .cls-1 {
        fill: #eef3fe;
      }

      .cls-1, .cls-10, .cls-11, .cls-13, .cls-14, .cls-15, .cls-2, .cls-3, .cls-4, .cls-5, .cls-6, .cls-7, .cls-8, .cls-9 {
        fill-rule: evenodd;
      }

      .cls-12, .cls-2, .cls-5 {
        fill: #fff;
      }

      .cls-12, .cls-2 {
        stroke: #e3e3e3;
        stroke-linejoin: round;
        stroke-width: 1px;
      }

      .cls-3 {
        fill: #7879dc;
      }

      .cls-4 {
        fill: #00ca72;
      }

      .cls-6 {
        fill: #57b6f1;
      }

      .cls-7 {
        fill: #569bfc;
      }

      .cls-8 {
        fill: #2669a9;
      }

      .cls-9 {
        fill: #c8e6f8;
      }

      .cls-10, .cls-13 {
        fill: #de617e;
      }

      .cls-11 {
        fill: #fe8300;
      }

      .cls-13, .cls-14 {
        opacity: 0.6;
      }

      .cls-14, .cls-15 {
        fill: #5387ff;
      }
    </style>
  </defs>
  <path class="cls-1" d="M9,71.019c0.518-12.348,3.106-22.638,28.987-30.87S71.739,28.287,84.68,20.569C95.106,14.175,127.153,14.737,142.654,36c10.784,14.8,10.007,34.037-2.07,47.334-10.26,11.3-31.5,20.432-52.8,24.7-21.692,4.344-37.893,1.057-53.939-5.117S8.655,85.768,9,71.019Z"/>
  <g>
    <path id="Rounded_Rectangle_1" data-name="Rounded Rectangle 1" class="cls-2" d="M26.9,29.483L89.523,18.928a3.627,3.627,0,0,1,4.147,3.011l11.6,75.329a3.617,3.617,0,0,1-3.022,4.133L39.628,111.956a3.626,3.626,0,0,1-4.147-3.011L23.88,33.616A3.618,3.618,0,0,1,26.9,29.483Z"/>
    <path id="Rounded_Rectangle_604" data-name="Rounded Rectangle 604" class="cls-3" d="M52.417,40.524l27.829-4.029a1.5,1.5,0,1,1,.337,2.981L52.753,43.5A1.5,1.5,0,0,1,52.417,40.524Zm1,7,23.829-3.029a1.5,1.5,0,1,1,.337,2.981L53.753,50.5A1.5,1.5,0,0,1,53.417,47.524Z"/>
    <path id="Rounded_Rectangle_605" data-name="Rounded Rectangle 605" class="cls-4" d="M35.853,42.949l7.829-1.643a2,2,0,0,1,2.368,1.547l1.643,7.83a2,2,0,0,1-1.547,2.368l-7.83,1.643a2,2,0,0,1-2.368-1.547l-1.643-7.83A2,2,0,0,1,35.853,42.949Z"/>
    <path class="cls-5" d="M39.7,50.385a0.812,0.812,0,0,1-1.164,0l-1.725-1.761a0.836,0.836,0,0,1-.242-0.593,0.845,0.845,0,0,1,.242-0.6,0.812,0.812,0,0,1,1.164,0L39.12,48.6l3.9-4a0.812,0.812,0,0,1,1.164,0,0.85,0.85,0,0,1,0,1.188Z"/>
    <g>
      <path id="Rounded_Rectangle_605_copy" data-name="Rounded Rectangle 605 copy" class="cls-4" d="M39.709,65.1l7.779-1.869A2,2,0,0,1,49.9,64.709l1.868,7.779A2,2,0,0,1,50.291,74.9l-7.779,1.869A2,2,0,0,1,40.1,75.291l-1.869-7.779A2,2,0,0,1,39.709,65.1Z"/>
      <path id="Rounded_Rectangle_604_copy" data-name="Rounded Rectangle 604 copy" class="cls-6" d="M58.343,61.9l27.713-4.764a1.5,1.5,0,1,1,.415,2.971L58.758,64.869A1.5,1.5,0,0,1,58.343,61.9Zm1.185,6.971L83.269,65.21a1.5,1.5,0,1,1,.415,2.971L59.943,71.84A1.5,1.5,0,1,1,59.528,68.869Z"/>
      <path id="Shape_1_copy" data-name="Shape 1 copy" class="cls-5" d="M44.9,72.484a0.812,0.812,0,0,1-1.16.1l-1.865-1.612a0.835,0.835,0,0,1-.29-0.571,0.844,0.844,0,0,1,.192-0.613,0.812,0.812,0,0,1,1.16-.1l1.237,1.069,3.557-4.31a0.812,0.812,0,0,1,1.16-.1,0.85,0.85,0,0,1,.1,1.184Z"/>
    </g>
    <g id="Group_42_copy" data-name="Group 42 copy">
      <path id="Rounded_Rectangle_605_copy-2" data-name="Rounded Rectangle 605 copy" class="cls-2" d="M44.566,88.089l7.842-1.9a2.016,2.016,0,0,1,2.432,1.5l1.884,7.89a2.029,2.029,0,0,1-1.49,2.446l-7.842,1.9a2.016,2.016,0,0,1-2.432-1.5l-1.884-7.89A2.029,2.029,0,0,1,44.566,88.089Z"/>
      <path id="Rounded_Rectangle_604_copy-2" data-name="Rounded Rectangle 604 copy" class="cls-7" d="M63.352,84.841l27.94-4.832a1.521,1.521,0,0,1,.419,3.013l-27.94,4.832A1.521,1.521,0,0,1,63.352,84.841Zm1.195,7.071L88.482,88.2a1.521,1.521,0,0,1,.419,3.013L64.966,94.925A1.521,1.521,0,0,1,64.547,91.911Z"/>
    </g>
  </g>
  <g id="Calculator">
    <path id="Rounded_Rectangle_598" data-name="Rounded Rectangle 598" class="cls-8" d="M113.664,56.6L138.8,67.173a1.5,1.5,0,0,1,.8,1.969l-13.29,31.452a1.508,1.508,0,0,1-1.973.8L99.2,90.827a1.5,1.5,0,0,1-.8-1.969L111.69,57.406A1.508,1.508,0,0,1,113.664,56.6Z"/>
    <path id="Rounded_Rectangle_599" data-name="Rounded Rectangle 599" class="cls-9" d="M115.139,60.08l20.341,8.554a1.5,1.5,0,0,1,.8,1.969l-2.137,5.057a1.508,1.508,0,0,1-1.974.8l-20.341-8.554a1.5,1.5,0,0,1-.8-1.969l2.137-5.057A1.508,1.508,0,0,1,115.139,60.08Z"/>
    <path id="Rounded_Rectangle_603_copy" data-name="Rounded Rectangle 603 copy" class="cls-5" d="M133.045,69.071a0.7,0.7,0,0,1-.288.94L126.8,73.175a0.695,0.695,0,1,1-.653-1.226l5.959-3.165A0.7,0.7,0,0,1,133.045,69.071Z"/>
    <path id="Rounded_Rectangle_603_copy_2" data-name="Rounded Rectangle 603 copy 2" class="cls-5" d="M129.045,67.071a0.7,0.7,0,0,1-.288.94L122.8,71.175a0.695,0.695,0,1,1-.653-1.226l5.959-3.165A0.7,0.7,0,0,1,129.045,67.071Z"/>
    <path id="Rounded_Rectangle_600" data-name="Rounded Rectangle 600" class="cls-10" d="M110.869,69.217L125.24,75.26a1.279,1.279,0,1,1-.995,2.355l-14.371-6.043A1.279,1.279,0,1,1,110.869,69.217Z"/>
    <path id="Rounded_Rectangle_600_copy" data-name="Rounded Rectangle 600 copy" class="cls-11" d="M128.711,76.72L131.766,78a1.278,1.278,0,1,1-1,2.355l-3.055-1.285A1.278,1.278,0,1,1,128.711,76.72Z"/>
    <path id="Rounded_Rectangle_601" data-name="Rounded Rectangle 601" class="cls-5" d="M108.872,72.783l3.749,1.576a0.752,0.752,0,0,1,.4.985l-1.464,3.464a0.754,0.754,0,0,1-.987.4l-3.749-1.576a0.751,0.751,0,0,1-.4-0.985l1.463-3.464A0.754,0.754,0,0,1,108.872,72.783Z"/>
    <path id="Rounded_Rectangle_601_copy" data-name="Rounded Rectangle 601 copy" class="cls-5" d="M114.634,75.206l3.749,1.576a0.751,0.751,0,0,1,.4.985l-1.464,3.464a0.754,0.754,0,0,1-.987.4l-3.749-1.576a0.751,0.751,0,0,1-.4-0.985l1.463-3.464A0.755,0.755,0,0,1,114.634,75.206Z"/>
    <path id="Rounded_Rectangle_601_copy_2" data-name="Rounded Rectangle 601 copy 2" class="cls-5" d="M120.535,77.688l3.749,1.576a0.75,0.75,0,0,1,.4.985l-1.464,3.464a0.754,0.754,0,0,1-.987.4l-3.749-1.576a0.751,0.751,0,0,1-.4-0.985l1.463-3.464A0.754,0.754,0,0,1,120.535,77.688Z"/>
    <path id="Rounded_Rectangle_601_copy_3" data-name="Rounded Rectangle 601 copy 3" class="cls-5" d="M106.472,78.464l3.749,1.576a0.751,0.751,0,0,1,.4.985l-1.463,3.464a0.754,0.754,0,0,1-.987.4l-3.749-1.576a0.751,0.751,0,0,1-.4-0.985l1.464-3.464A0.754,0.754,0,0,1,106.472,78.464Z"/>
    <path id="Rounded_Rectangle_601_copy_4" data-name="Rounded Rectangle 601 copy 4" class="cls-5" d="M112.234,80.887l3.749,1.577a0.752,0.752,0,0,1,.4.985l-1.464,3.464a0.755,0.755,0,0,1-.987.4l-3.749-1.577a0.751,0.751,0,0,1-.4-0.985l1.463-3.464A0.754,0.754,0,0,1,112.234,80.887Z"/>
    <path id="Rounded_Rectangle_601_copy_5" data-name="Rounded Rectangle 601 copy 5" class="cls-5" d="M118.135,83.368l3.749,1.576a0.752,0.752,0,0,1,.4.985l-1.464,3.464a0.754,0.754,0,0,1-.987.4l-3.749-1.577a0.751,0.751,0,0,1-.4-0.985l1.463-3.464A0.754,0.754,0,0,1,118.135,83.368Z"/>
    <path id="Rounded_Rectangle_601_copy_6" data-name="Rounded Rectangle 601 copy 6" class="cls-5" d="M104.072,84.144l3.748,1.577a0.75,0.75,0,0,1,.4.985l-1.464,3.464a0.754,0.754,0,0,1-.987.4l-3.748-1.577a0.75,0.75,0,0,1-.4-0.985l1.464-3.464A0.754,0.754,0,0,1,104.072,84.144Z"/>
    <path id="Rounded_Rectangle_601_copy_7" data-name="Rounded Rectangle 601 copy 7" class="cls-5" d="M109.834,86.568l3.749,1.577a0.751,0.751,0,0,1,.4.985l-1.463,3.464a0.754,0.754,0,0,1-.987.4l-3.749-1.576a0.751,0.751,0,0,1-.4-0.985l1.464-3.464A0.754,0.754,0,0,1,109.834,86.568Z"/>
    <path id="Rounded_Rectangle_601_copy_8" data-name="Rounded Rectangle 601 copy 8" class="cls-5" d="M115.735,89.049l3.749,1.576a0.751,0.751,0,0,1,.4.985l-1.463,3.464a0.755,0.755,0,0,1-.987.4L113.686,93.9a0.752,0.752,0,0,1-.4-0.985l1.464-3.464A0.754,0.754,0,0,1,115.735,89.049Z"/>
    <path id="Rounded_Rectangle_602" data-name="Rounded Rectangle 602" class="cls-5" d="M126.813,80.246l3.471,1.46a1.126,1.126,0,0,1,.6,1.477l-1.141,2.7a1.132,1.132,0,0,1-1.481.6l-3.471-1.46a1.126,1.126,0,0,1-.6-1.477l1.141-2.7A1.132,1.132,0,0,1,126.813,80.246Z"/>
    <path id="Rounded_Rectangle_602_copy" data-name="Rounded Rectangle 602 copy" class="cls-5" d="M124.383,86l3.472,1.46a1.127,1.127,0,0,1,.6,1.477l-3.571,8.452a1.132,1.132,0,0,1-1.481.6l-3.471-1.46a1.126,1.126,0,0,1-.6-1.477L122.9,86.6A1.131,1.131,0,0,1,124.383,86Z"/>
  </g>
  <g id="_1" data-name="1">
    <rect id="Rounded_Rectangle_593_copy" data-name="Rounded Rectangle 593 copy" class="cls-12" x="90" y="33" width="81" height="20" rx="5" ry="5"/>
    <path id="Rounded_Rectangle_599-2" data-name="Rounded Rectangle 599" class="cls-13" d="M143,39h21a1,1,0,0,1,0,2H143A1,1,0,0,1,143,39Zm0,6h10a1,1,0,0,1,0,2H143A1,1,0,0,1,143,45Z"/>
    <path id="Cancelled" class="cls-10" d="M99.332,44.526a1.706,1.706,0,0,1-.433,1.237,1.621,1.621,0,0,1-1.222.448,1.47,1.47,0,0,1-1.265-.673,2.857,2.857,0,0,1-.471-1.68V42.538a2.839,2.839,0,0,1,.471-1.67,1.47,1.47,0,0,1,1.265-.673,1.616,1.616,0,0,1,1.222.45,1.693,1.693,0,0,1,.433,1.225h0.909l0.01-.03a2.257,2.257,0,0,0-.683-1.764,2.636,2.636,0,0,0-1.891-.665,2.414,2.414,0,0,0-1.936.888,3.372,3.372,0,0,0-.748,2.249v1.311a3.361,3.361,0,0,0,.748,2.247,2.416,2.416,0,0,0,1.936.886,2.571,2.571,0,0,0,1.881-.7,2.269,2.269,0,0,0,.693-1.736l-0.01-.03H99.332Zm6.2,2.358a3.054,3.054,0,0,1-.106-0.536,5.459,5.459,0,0,1-.029-0.567V43.145a1.716,1.716,0,0,0-.539-1.364,2.077,2.077,0,0,0-1.423-.473,2.13,2.13,0,0,0-1.46.5,1.336,1.336,0,0,0-.532,1.093l0.01,0.03,0.9-.01a0.743,0.743,0,0,1,.284-0.582,1.108,1.108,0,0,1,.746-0.243,1.063,1.063,0,0,1,.789.281,1.033,1.033,0,0,1,.279.762v0.541h-1.03a2.717,2.717,0,0,0-1.638.443,1.438,1.438,0,0,0-.6,1.227,1.5,1.5,0,0,0,1.664,1.645,1.7,1.7,0,0,0,.916-0.266,2.262,2.262,0,0,0,.691-0.66,3.248,3.248,0,0,0,.031.382c0.017,0.127.042,0.272,0.074,0.438h0.977Zm-3.189-.941a0.769,0.769,0,0,1-.217-0.577,0.926,0.926,0,0,1,.344-0.713,1.334,1.334,0,0,1,.916-0.3h1.064V45.24a1.307,1.307,0,0,1-.539.638,1.626,1.626,0,0,1-.929.278A0.875,0.875,0,0,1,102.339,45.943Zm4.43-4.534v5.475h0.948V42.821A1.3,1.3,0,0,1,108.2,42.3a1.414,1.414,0,0,1,.743-0.185,1.058,1.058,0,0,1,.83.3,1.537,1.537,0,0,1,.272,1.027v3.436h0.948V43.428a2.356,2.356,0,0,0-.462-1.6,1.849,1.849,0,0,0-2.2-.278,1.934,1.934,0,0,0-.652.676l-0.067-.815h-0.847Zm6.646,4.236a2.829,2.829,0,0,1-.315-1.392V44.041a2.778,2.778,0,0,1,.319-1.379,1.084,1.084,0,0,1,1.018-.569,1,1,0,0,1,.782.352,1.248,1.248,0,0,1,.31.853h0.861l0.01-.03a1.848,1.848,0,0,0-.537-1.392,1.91,1.91,0,0,0-1.426-.567,2,2,0,0,0-1.691.787,3.121,3.121,0,0,0-.6,1.946v0.213a3.131,3.131,0,0,0,.6,1.953,2,2,0,0,0,1.693.784,1.98,1.98,0,0,0,1.385-.549,1.607,1.607,0,0,0,.578-1.258l-0.015-.03h-0.856a0.989,0.989,0,0,1-.327.752A1.165,1.165,0,0,1,113.415,45.645Zm7.367,1.151a2.257,2.257,0,0,0,.736-0.478l-0.371-.648a1.864,1.864,0,0,1-.622.4,2.285,2.285,0,0,1-.845.144,1.189,1.189,0,0,1-1.058-.514,2.35,2.35,0,0,1-.346-1.338l0.014-.025h3.329V43.808a2.916,2.916,0,0,0-.522-1.817,1.847,1.847,0,0,0-1.566-.683,1.989,1.989,0,0,0-1.58.772,2.935,2.935,0,0,0-.647,1.951v0.223a3,3,0,0,0,.628,1.984,2.149,2.149,0,0,0,1.748.754A2.807,2.807,0,0,0,120.782,46.8Zm-0.39-4.314a1.654,1.654,0,0,1,.279.987V43.55h-2.347l-0.01-.025a1.961,1.961,0,0,1,.4-1.03,1.01,1.01,0,0,1,.82-0.4A0.988,0.988,0,0,1,120.392,42.482Zm3.315-3.492h-0.948v7.894h0.948V38.99Zm2.482,0h-0.948v7.894h0.948V38.99ZM130.9,46.8a2.257,2.257,0,0,0,.736-0.478l-0.37-.648a1.879,1.879,0,0,1-.623.4,2.285,2.285,0,0,1-.845.144,1.189,1.189,0,0,1-1.058-.514,2.35,2.35,0,0,1-.346-1.338l0.014-.025h3.329V43.808a2.916,2.916,0,0,0-.522-1.817,1.847,1.847,0,0,0-1.566-.683,1.989,1.989,0,0,0-1.58.772,2.935,2.935,0,0,0-.647,1.951v0.223a3,3,0,0,0,.628,1.984,2.149,2.149,0,0,0,1.748.754A2.807,2.807,0,0,0,130.9,46.8Zm-0.39-4.314a1.654,1.654,0,0,1,.279.987V43.55h-2.347l-0.01-.025a1.961,1.961,0,0,1,.4-1.03,1.011,1.011,0,0,1,.82-0.4A0.988,0.988,0,0,1,130.513,42.482Zm2.074,1.872a3.129,3.129,0,0,0,.538,1.91,1.755,1.755,0,0,0,1.492.726,1.8,1.8,0,0,0,.87-0.2,1.718,1.718,0,0,0,.631-0.6l0.144,0.693h0.726V38.99h-0.947V42a1.683,1.683,0,0,0-.6-0.516,1.789,1.789,0,0,0-.811-0.177,1.705,1.705,0,0,0-1.5.81,3.794,3.794,0,0,0-.536,2.13v0.106Zm0.947-.106a3.192,3.192,0,0,1,.325-1.538,1.074,1.074,0,0,1,1.008-.592,1.207,1.207,0,0,1,.7.2,1.51,1.51,0,0,1,.474.539v2.556a1.487,1.487,0,0,1-.472.567,1.208,1.208,0,0,1-.712.2,1.105,1.105,0,0,1-1-.5,2.416,2.416,0,0,1-.323-1.328V44.248Z"/>
  </g>
  <g id="_2" data-name="2">
    <rect id="Rounded_Rectangle_593_copy-2" data-name="Rounded Rectangle 593 copy" class="cls-12" x="72" y="10" width="62" height="20" rx="5" ry="5"/>
    <path id="Rounded_Rectangle_599-3" data-name="Rounded Rectangle 599" class="cls-14" d="M106,16h21a1,1,0,0,1,0,2H106A1,1,0,0,1,106,16Zm0,6h10a1,1,0,0,1,0,2H106A1,1,0,0,1,106,22Z"/>
    <path id="Draft" class="cls-15" d="M80.19,23.886a2.918,2.918,0,0,0,2.206-.869,3.124,3.124,0,0,0,.835-2.258V19.769a3.135,3.135,0,0,0-.835-2.258,2.909,2.909,0,0,0-2.206-.874h-2.2v7.25h2.2Zm0-6.478a1.9,1.9,0,0,1,1.532.662,2.523,2.523,0,0,1,.561,1.688v1a2.538,2.538,0,0,1-.561,1.7,1.9,1.9,0,0,1-1.532.662H78.935V17.409H80.19Zm6.932,1.046a1.316,1.316,0,0,0-.159-0.037,1.134,1.134,0,0,0-.2-0.017,1.246,1.246,0,0,0-.748.234,1.852,1.852,0,0,0-.546.652L85.376,18.5H84.529v5.387h0.948V20.038a1.176,1.176,0,0,1,.4-0.518,1.058,1.058,0,0,1,.632-0.184l0.486,0.03Zm5.032,5.432a2.952,2.952,0,0,1-.106-0.528,5.208,5.208,0,0,1-.029-0.558V20.207a1.677,1.677,0,0,0-.539-1.342,2.1,2.1,0,0,0-1.424-.465,2.154,2.154,0,0,0-1.46.488,1.305,1.305,0,0,0-.532,1.076l0.01,0.03,0.9-.01a0.726,0.726,0,0,1,.284-0.573A1.119,1.119,0,0,1,90,19.171a1.073,1.073,0,0,1,.789.276,1.007,1.007,0,0,1,.279.749V20.73H90.042a2.748,2.748,0,0,0-1.638.436,1.406,1.406,0,0,0-.6,1.207,1.615,1.615,0,0,0,.426,1.188,1.666,1.666,0,0,0,1.239.431,1.721,1.721,0,0,0,.916-0.261,2.241,2.241,0,0,0,.69-0.65,3.231,3.231,0,0,0,.031.376q0.026,0.187.075,0.431h0.976Zm-3.189-.926a0.752,0.752,0,0,1-.217-0.568,0.9,0.9,0,0,1,.344-0.7,1.348,1.348,0,0,1,.916-0.3h1.063v0.876a1.29,1.29,0,0,1-.539.627,1.646,1.646,0,0,1-.928.274A0.886,0.886,0,0,1,88.965,22.96Zm5.772,0.926v-4.66H95.68V18.5H94.737V17.817a1.183,1.183,0,0,1,.2-0.744,0.736,0.736,0,0,1,.616-0.256,2.144,2.144,0,0,1,.257.015,2.069,2.069,0,0,1,.209.035l0.115-.747q-0.2-.05-0.368-0.077a2.029,2.029,0,0,0-.33-0.027,1.573,1.573,0,0,0-1.215.471,1.888,1.888,0,0,0-.435,1.332V18.5H92.977v0.727H93.79v4.66h0.948Zm2.27-6.687v1.3H96.18v0.727h0.827V22.5a1.6,1.6,0,0,0,.342,1.133,1.2,1.2,0,0,0,.919.361,1.531,1.531,0,0,0,.409-0.057,0.824,0.824,0,0,0,.313-0.147l-0.13-.672a1.3,1.3,0,0,1-.168.047,0.848,0.848,0,0,1-.183.022,0.537,0.537,0,0,1-.4-0.154,0.75,0.75,0,0,1-.152-0.533V19.226h0.986V18.5H97.955V17.2H97.008Z"/>
  </g>
</svg>
