<svg id="icon" xmlns="http://www.w3.org/2000/svg" width="178" height="122" viewBox="0 0 178 122">
  <defs>
    <style>
      .cls-1 {
        fill: #eef3fe;
      }

      .cls-1, .cls-2, .cls-5, .cls-6, .cls-7, .cls-8 {
        fill-rule: evenodd;
      }

      .cls-2 {
        fill: #8388e4;
      }

      .cls-3, .cls-4 {
        fill: #fff;
      }

      .cls-4 {
        stroke: #e3e3e3;
        stroke-linejoin: round;
        stroke-width: 1px;
      }

      .cls-5, .cls-6 {
        fill: #5387ff;
      }

      .cls-5, .cls-7 {
        opacity: 0.6;
      }

      .cls-7, .cls-8 {
        fill: #24d598;
      }
    </style>
  </defs>
  <path class="cls-1" d="M7,68.019c0.518-12.348,3.106-22.638,28.987-30.87S69.739,25.287,82.68,17.569C93.106,11.175,125.153,11.737,140.654,33c10.784,14.8,10.007,34.037-2.07,47.334-10.26,11.3-31.5,20.432-52.8,24.7-21.692,4.344-37.893,1.057-53.939-5.117S6.655,82.768,7,68.019Z"/>
  <g id="job">
    <path id="Forma_1" data-name="Forma 1" class="cls-2" d="M85,74c0,1.095-.255,2-2,2H70c-1.867,0-2-1.049-2-2V67H39V87a6.679,6.679,0,0,0,2.258,4.677C42.559,92.985,44.174,93,46,93h62a5.9,5.9,0,0,0,6-6V67H85v7h0ZM70,67H83v7H70V67Z"/>
    <path id="Forma_1_copy_8" data-name="Forma 1 copy 8" class="cls-2" d="M45,41c-5.784,0-6,4.044-6,8V65h75V49c0-4.341-1.43-8-7-8H45Z"/>
    <path id="Forma_1_copy_7" data-name="Forma 1 copy 7" class="cls-2" d="M63,32H89c2.628,0,3,.366,3,2v7H61V35C61,33.5,61.289,32,63,32Z"/>
    <rect class="cls-3" x="65" y="36" width="23" height="5"/>
  </g>
  <g id="_1" data-name="1">
    <rect id="Rounded_Rectangle_593_copy" data-name="Rounded Rectangle 593 copy" class="cls-4" x="73" y="16" width="65" height="20" rx="5" ry="5"/>
    <path id="Rounded_Rectangle_599" data-name="Rounded Rectangle 599" class="cls-5" d="M106,22h26a1,1,0,0,1,0,2H106A1,1,0,0,1,106,22Zm0,6h14a1,1,0,0,1,0,2H106A1,1,0,0,1,106,28Z"/>
    <path id="Draft" class="cls-6" d="M81.19,29.886a2.918,2.918,0,0,0,2.206-.869,3.124,3.124,0,0,0,.835-2.258V25.769a3.135,3.135,0,0,0-.835-2.258,2.909,2.909,0,0,0-2.206-.874h-2.2v7.25h2.2Zm0-6.478a1.9,1.9,0,0,1,1.532.662,2.523,2.523,0,0,1,.561,1.688v1a2.538,2.538,0,0,1-.561,1.7,1.9,1.9,0,0,1-1.532.662H79.935V23.409H81.19Zm6.932,1.046a1.316,1.316,0,0,0-.159-0.037,1.134,1.134,0,0,0-.2-0.017,1.246,1.246,0,0,0-.748.234,1.852,1.852,0,0,0-.546.652L86.376,24.5H85.529v5.387h0.948V26.038a1.176,1.176,0,0,1,.4-0.518,1.058,1.058,0,0,1,.632-0.184l0.486,0.03Zm5.032,5.432a2.952,2.952,0,0,1-.106-0.528,5.208,5.208,0,0,1-.029-0.558V26.207a1.677,1.677,0,0,0-.539-1.342,2.1,2.1,0,0,0-1.424-.465,2.154,2.154,0,0,0-1.46.488,1.305,1.305,0,0,0-.532,1.076l0.01,0.03,0.9-.01a0.726,0.726,0,0,1,.284-0.573A1.119,1.119,0,0,1,91,25.171a1.073,1.073,0,0,1,.789.276,1.007,1.007,0,0,1,.279.749V26.73H91.042a2.748,2.748,0,0,0-1.638.436,1.406,1.406,0,0,0-.6,1.207,1.615,1.615,0,0,0,.426,1.188,1.666,1.666,0,0,0,1.239.431,1.721,1.721,0,0,0,.916-0.261,2.241,2.241,0,0,0,.69-0.65,3.231,3.231,0,0,0,.031.376q0.026,0.187.075,0.431h0.976Zm-3.189-.926a0.752,0.752,0,0,1-.217-0.568,0.9,0.9,0,0,1,.344-0.7,1.348,1.348,0,0,1,.916-0.3h1.063v0.876a1.29,1.29,0,0,1-.539.627,1.646,1.646,0,0,1-.928.274A0.886,0.886,0,0,1,89.965,28.96Zm5.772,0.926v-4.66H96.68V24.5H95.737V23.817a1.183,1.183,0,0,1,.2-0.744,0.736,0.736,0,0,1,.616-0.256,2.144,2.144,0,0,1,.257.015,2.069,2.069,0,0,1,.209.035l0.115-.747q-0.2-.05-0.368-0.077a2.029,2.029,0,0,0-.33-0.027,1.573,1.573,0,0,0-1.215.471,1.888,1.888,0,0,0-.435,1.332V24.5H93.977v0.727H94.79v4.66h0.948Zm2.27-6.687v1.3H97.18v0.727h0.827V28.5a1.6,1.6,0,0,0,.342,1.133,1.2,1.2,0,0,0,.919.361,1.531,1.531,0,0,0,.409-0.057,0.824,0.824,0,0,0,.313-0.147l-0.13-.672a1.3,1.3,0,0,1-.168.047,0.848,0.848,0,0,1-.183.022,0.537,0.537,0,0,1-.4-0.154,0.75,0.75,0,0,1-.152-0.533V25.226h0.986V24.5H98.955V23.2H98.008Z"/>
  </g>
  <g id="_2" data-name="2">
    <rect id="Rounded_Rectangle_593_copy-2" data-name="Rounded Rectangle 593 copy" class="cls-4" x="91" y="41" width="83" height="20" rx="5" ry="5"/>
    <path id="Rounded_Rectangle_599-2" data-name="Rounded Rectangle 599" class="cls-7" d="M142,47h26a1,1,0,0,1,0,2H142A1,1,0,0,1,142,47Zm0,6h14a1,1,0,0,1,0,2H142A1,1,0,0,1,142,53Z"/>
    <path id="Assigned" class="cls-8" d="M100.827,54.814h0.966l-2.471-7.3H98.509l-2.525,7.3h0.967l0.625-1.881h2.635Zm-1.933-5.843h0.029l1.019,3.135H97.85Zm6.537,4.953a1.255,1.255,0,0,1-.791.223,1.407,1.407,0,0,1-.822-0.243,0.926,0.926,0,0,1-.375-0.77h-0.9l-0.01.03a1.532,1.532,0,0,0,.543,1.229,2.587,2.587,0,0,0,3.032.07,1.449,1.449,0,0,0,.56-1.179,1.219,1.219,0,0,0-.5-1.008,3.641,3.641,0,0,0-1.452-.6,2.309,2.309,0,0,1-.883-0.321,0.607,0.607,0,0,1-.213-0.5,0.749,0.749,0,0,1,.247-0.562,1.048,1.048,0,0,1,.748-0.236,1.035,1.035,0,0,1,.748.286,0.869,0.869,0,0,1,.3.637h0.9l0.01-.03a1.464,1.464,0,0,0-.524-1.169,2.309,2.309,0,0,0-2.835-.03,1.456,1.456,0,0,0-.541,1.133,1.18,1.18,0,0,0,.493.993,3.7,3.7,0,0,0,1.411.577,2.245,2.245,0,0,1,.9.361,0.669,0.669,0,0,1,.238.532A0.691,0.691,0,0,1,105.431,53.924Zm5.15,0a1.255,1.255,0,0,1-.791.223,1.407,1.407,0,0,1-.822-0.243,0.926,0.926,0,0,1-.375-0.77h-0.9l-0.01.03a1.532,1.532,0,0,0,.543,1.229,2.587,2.587,0,0,0,3.032.07,1.449,1.449,0,0,0,.56-1.179,1.219,1.219,0,0,0-.495-1.008,3.641,3.641,0,0,0-1.452-.6,2.3,2.3,0,0,1-.882-0.321,0.6,0.6,0,0,1-.214-0.5,0.749,0.749,0,0,1,.247-0.562,1.048,1.048,0,0,1,.748-0.236,1.035,1.035,0,0,1,.748.286,0.869,0.869,0,0,1,.3.637h0.9l0.01-.03a1.464,1.464,0,0,0-.524-1.169,2.309,2.309,0,0,0-2.835-.03,1.456,1.456,0,0,0-.541,1.133,1.18,1.18,0,0,0,.493.993,3.7,3.7,0,0,0,1.411.577,2.245,2.245,0,0,1,.9.361,0.669,0.669,0,0,1,.238.532A0.691,0.691,0,0,1,110.581,53.924Zm3.436-4.536h-0.948v5.427h0.948V49.388Zm0-2.4h-0.948V48h0.948V46.99Zm1.288,5.316a3.088,3.088,0,0,0,.537,1.893,1.75,1.75,0,0,0,1.488.72,1.834,1.834,0,0,0,.822-0.175,1.7,1.7,0,0,0,.611-0.517v0.617a1.4,1.4,0,0,1-.315,1,1.345,1.345,0,0,1-1.008.328,3.264,3.264,0,0,1-.762-0.093,2.672,2.672,0,0,1-.661-0.243l-0.144.767a3.086,3.086,0,0,0,.767.293,3.378,3.378,0,0,0,.81.108,2.327,2.327,0,0,0,1.678-.559,2.119,2.119,0,0,0,.582-1.6V49.388h-0.755l-0.115.707a1.7,1.7,0,0,0-1.5-.808,1.7,1.7,0,0,0-1.5.8,3.735,3.735,0,0,0-.537,2.112v0.105Zm0.948-.105a3.141,3.141,0,0,1,.324-1.525,1.072,1.072,0,0,1,1-.587,1.212,1.212,0,0,1,.707.2,1.518,1.518,0,0,1,.476.549v2.5a1.527,1.527,0,0,1-.476.574,1.216,1.216,0,0,1-.717.2,1.1,1.1,0,0,1-.995-0.5,2.38,2.38,0,0,1-.322-1.314V52.2Zm4.818-2.814v5.427h0.947V50.787a1.308,1.308,0,0,1,.484-0.514,1.417,1.417,0,0,1,.742-0.183,1.063,1.063,0,0,1,.83.3,1.513,1.513,0,0,1,.272,1.018v3.405h0.947V51.389a2.321,2.321,0,0,0-.462-1.587,1.66,1.66,0,0,0-1.3-.514,1.683,1.683,0,0,0-.892.238,1.93,1.93,0,0,0-.651.67l-0.068-.807h-0.846Zm8.853,5.339a2.268,2.268,0,0,0,.735-0.474l-0.37-.642a1.872,1.872,0,0,1-.623.394,2.293,2.293,0,0,1-.844.143,1.19,1.19,0,0,1-1.057-.509,2.314,2.314,0,0,1-.347-1.327l0.015-.025h3.327V51.765a2.877,2.877,0,0,0-.521-1.8,1.854,1.854,0,0,0-1.566-.677,1.994,1.994,0,0,0-1.579.765,2.892,2.892,0,0,0-.647,1.934v0.221a2.957,2.957,0,0,0,.627,1.966,2.159,2.159,0,0,0,1.748.747A2.828,2.828,0,0,0,129.924,54.727Zm-0.39-4.276a1.628,1.628,0,0,1,.279.978v0.08h-2.347l-0.009-.025a1.933,1.933,0,0,1,.4-1.021,1.015,1.015,0,0,1,.82-0.4A0.991,0.991,0,0,1,129.534,50.451Zm2.073,1.856a3.082,3.082,0,0,0,.538,1.893,1.758,1.758,0,0,0,1.491.72,1.817,1.817,0,0,0,.87-0.2,1.716,1.716,0,0,0,.63-0.592l0.144,0.687h0.726V46.99h-0.947v2.984a1.684,1.684,0,0,0-.6-0.512,1.8,1.8,0,0,0-.811-0.175,1.706,1.706,0,0,0-1.5.8,3.735,3.735,0,0,0-.536,2.112v0.105Zm0.947-.105a3.141,3.141,0,0,1,.324-1.525,1.076,1.076,0,0,1,1.008-.587,1.215,1.215,0,0,1,.7.2,1.508,1.508,0,0,1,.473.534v2.533a1.484,1.484,0,0,1-.471.562,1.216,1.216,0,0,1-.712.2,1.109,1.109,0,0,1-1-.494,2.378,2.378,0,0,1-.322-1.316V52.2Z"/>
  </g>
</svg>
