<svg id="icon" xmlns="http://www.w3.org/2000/svg" width="178" height="122" viewBox="0 0 178 122">
  <defs>
    <style>
      .cls-1, .cls-12 {
        fill: #eef3fe;
      }

      .cls-1, .cls-10, .cls-16, .cls-17, .cls-18, .cls-19, .cls-2, .cls-20, .cls-21, .cls-3, .cls-4, .cls-5, .cls-6, .cls-7, .cls-8, .cls-9 {
        fill-rule: evenodd;
      }

      .cls-2 {
        fill: #193151;
      }

      .cls-3 {
        fill: #fbe3c5;
      }

      .cls-5 {
        fill: #0a1c35;
      }

      .cls-6 {
        fill: #b5ccfa;
      }

      .cls-7 {
        fill: #5387ff;
      }

      .cls-8 {
        fill: #fc9236;
      }

      .cls-9 {
        fill: #4278f2;
      }

      .cls-10, .cls-20 {
        fill: #fff;
      }

      .cls-10 {
        stroke: #dfe4e5;
      }

      .cls-10, .cls-12 {
        stroke-linejoin: round;
        stroke-width: 1px;
      }

      .cls-11 {
        fill: #747aea;
      }

      .cls-12 {
        stroke: #e3e3e3;
      }

      .cls-13 {
        fill: #7879dc;
      }

      .cls-14 {
        fill: #57b6f1;
      }

      .cls-15 {
        fill: #569bfc;
      }

      .cls-16 {
        fill: #3c3c3c;
      }

      .cls-17 {
        fill: #3be2a9;
      }

      .cls-18 {
        fill: #8388e4;
      }

      .cls-19 {
        fill: #2ce4a5;
      }

      .cls-21 {
        fill: #7378de;
      }
    </style>
  </defs>
  <path class="cls-1" d="M19,73.019c0.518-12.348,3.106-22.638,28.987-30.87S81.739,30.287,94.68,22.569c10.426-6.394,42.473-5.832,57.974,15.435,10.784,14.8,10.007,34.037-2.07,47.334-10.26,11.3-31.5,20.432-52.8,24.7-21.692,4.344-37.893,1.057-53.939-5.117S18.655,87.768,19,73.019Z"/>
  <g id="icon-2" data-name="icon">
    <g id="illustrator">
      <path class="cls-2" d="M153.484,96.9a16.7,16.7,0,0,1,.945,2.457,6.325,6.325,0,0,0,1.877,2.391s2.336,4.394-1.757,4.134c-4.071-.259-0.221-0.009-0.221-0.009s-1.67,1.008-4-2.715a13.792,13.792,0,0,1-.55-2.668c-0.072-1.27-.151-3.162-0.128-3.24A34.609,34.609,0,0,1,153.484,96.9Z"/>
      <path class="cls-3" d="M135.9,35.778s-7.745,1.945-11.094,1.869a8,8,0,0,1-5.123-2.619s-5.074-4.4-6.052-5.563a2.343,2.343,0,0,1-2.135-.352c-2.5-2.328-.232-3.154-0.232-3.154s4.54-.468,5.19.981c0.841,1.873,5.146,4.03,7.394,5.316,0,0,6.33-.053,8.987-1.858C132.836,30.4,136.474,34.624,135.9,35.778Z"/>
      <path class="cls-2" d="M143,100s0.543,2.541-.089,3.3a3.021,3.021,0,0,1-2.271,1.307c-0.37.524-5.526,2.17-7.334,1.183,0.062-.234-1.457-1.393-0.306-2.792,0,0,5.293-2.355,5.621-3.94Z"/>
      <g id="Group_10_copy" data-name="Group 10 copy">
        <path class="cls-3" d="M144.258,20.434a0.943,0.943,0,0,1-.91.981s0.033,1.665-.845,2.1a16.448,16.448,0,0,1-4.433,1.245,9.233,9.233,0,0,0,.533,1.957c-1.362,3.506,4.072,2.509,7.35-.312a3.346,3.346,0,0,1-1.076-2.488C144.7,22.479,144.188,21.82,144.258,20.434Z"/>
        <g>
          <path class="cls-4" d="M144.788,23.58a5.757,5.757,0,0,0,.528-2.139,9.748,9.748,0,0,0-1.173-3.543,2.164,2.164,0,0,0-1.228-.823,15.069,15.069,0,0,1-3.969-1.084s-3.821-.9-4.3,2.08c0,0,2.253-2.586,4.375-1.252,0,0,1.145.5,1.825,3.228,0.082,0.265.51,0.935,1.069-.266,0,0,1.107-2.535,1.933-1.646C144.214,18.7,143.97,22.522,144.788,23.58Z"/>
          <path class="cls-3" d="M143.77,21.674a3.781,3.781,0,0,1-.846,2.084,9.245,9.245,0,0,1-3.3,1.567l-1.825.592c-0.265.1-1.581,0.561-1.642-.784a5.411,5.411,0,0,0-.724-2.124,3.636,3.636,0,0,1-.37-2.785,2.7,2.7,0,0,0-.458-1.523,1.235,1.235,0,0,1,.71-1.321c0.634-.5,4.075-3.2,5.642,2.7,0.61,1.815,2.022-4.614,3.274-1.251C144.45,20.854,144.394,21.449,143.77,21.674Z"/>
          <path class="cls-2" d="M135.153,16.77s0.082-6.877,6.674-5.648A5.183,5.183,0,0,1,146.2,15.3c0.729,2.8-.955,6.033-0.955,6.033a11.654,11.654,0,0,0-1.55-3.81c-0.119-.156-0.091-0.026-0.217-0.084a11.066,11.066,0,0,1-2.678-.685C139.071,16.342,137.144,15.24,135.153,16.77Z"/>
          <path class="cls-5" d="M131.572,14.963c4.609-3.347,7.663.043,8.258,2-0.427-.45-3.752-1.575-5.109,1.218a26.769,26.769,0,0,0-3.249-1.72,0.735,0.735,0,0,1-.444-0.852A1.153,1.153,0,0,1,131.572,14.963Z"/>
        </g>
      </g>
      <path class="cls-6" d="M134.708,47C133.98,56.024,137,101,137,101h6c0.627-.932,1.214-19.887,1.214-19.887,0.057-1.662-.043-14.721-0.043-14.721a2.29,2.29,0,0,1,.481-0.975,1.5,1.5,0,0,0,.984.261c-0.051,1.022,2.419,16.033,2.419,16.033C148.1,84.1,149,100,149,100c0.43,0.014,6,0,6,0l0.276-46.345C155.541,53.482,154.634,43,154.634,43Z"/>
      <path class="cls-7" d="M129,31a18.4,18.4,0,0,1,5.058-3.131s2.855-.176,4.252-1.373a2.845,2.845,0,0,0,2.258,1.528s3.53,0.873,4.711-1.8l2.466,0.735c2.771,0.825,7.338,2.26,6.975,4.982-0.973,7.288-.086,28.04-0.086,28.04H134.708c-0.025.008,0.276-7.085,0.563-13.893,0.226-5.362.458-9.639,0.437-10.083A34.527,34.527,0,0,1,132,38C131.311,37.011,130.447,31.091,129,31Z"/>
      <path class="cls-8" d="M145.947,56.015s0.746-3.611-2.155-2.919c0,0,.795,1.822.588,2.168s-0.7,1.013-.7,1.013a1.23,1.23,0,0,1-1.03.2,2.575,2.575,0,0,0-.955-0.342s0.214,3.593,3.1,1.429l0.024,0.021a0.988,0.988,0,0,0,.208.187l10.05,7.023a1,1,0,0,0,1.374-.265,0.964,0.964,0,0,0-.257-1.355l-10.049-7.023a0.991,0.991,0,0,0-.177-0.094Z"/>
      <path class="cls-3" d="M149,39s2.231,3.413,2,10a18.849,18.849,0,0,1-2,10s-0.108-.443,0,1c0,0,.311,3.216,3,3,0.523-.853.484-2.078,1-3s0.611-.465.8-1.129c2.435-8.582,3.831-11.1.479-20.991Z"/>
      <path class="cls-9" d="M155.145,39.69s-5.293.8-5.949,0.589c0.009-.031-0.866-4.487-1.2-6.279-1.669-6.131,6.719-6.547,7.332-1.723C155.332,32.277,155.392,39.285,155.145,39.69Z"/>
    </g>
    <g id="icon-3" data-name="icon">
      <path id="Forma_1" data-name="Forma 1" class="cls-10" d="M70.963,29.011H66.978c-3.726,0-5.834,1.909-5.978,4.959v68.976c0,4.054,1.993,5,4.981,5h52.806c3.949,0,5.977-2.012,5.977-5V34.006c-0.143-3.05-1.939-5-5.977-5H70.963Z"/>
      <path id="Forma_1_copy_6" data-name="Forma 1 copy 6" class="cls-10" d="M88.9,24.016c0.4-1.748,1.39-3,3.985-3,2.143,0,2.615,1.259,2.989,3,0.122,0.668.7,1,1.993,1h3.985s3,1.8,3,3.569c0,1.724-3,3.425-3,3.425H82.918s-3-1.54-3-3.175c0-1.849,3-3.819,3-3.819H86.9c0.979,0,1.878-.353,1.993-1"/>
      <rect id="Rounded_Rectangle_602" data-name="Rounded Rectangle 602" class="cls-11" x="86" y="27" width="12" height="3" rx="1.5" ry="1.5"/>
      <g id="tick-1">
        <rect id="Rounded_Rectangle_601" data-name="Rounded Rectangle 601" class="cls-12" x="71" y="51" width="12" height="12" rx="1" ry="1"/>
        <g id="Line">
          <rect id="Rounded_Rectangle_603" data-name="Rounded Rectangle 603" class="cls-13" x="89" y="53" width="21" height="2" rx="1" ry="1"/>
          <rect id="Rounded_Rectangle_603_copy" data-name="Rounded Rectangle 603 copy" class="cls-13" x="89" y="59" width="11" height="2" rx="1" ry="1"/>
        </g>
        <g id="Line-1">
          <rect id="Rounded_Rectangle_603-2" data-name="Rounded Rectangle 603" class="cls-14" x="89" y="70" width="21" height="2" rx="1" ry="1"/>
          <rect id="Rounded_Rectangle_603_copy-2" data-name="Rounded Rectangle 603 copy" class="cls-14" x="89" y="76" width="11" height="2" rx="1" ry="1"/>
        </g>
        <g id="Line-1_copy" data-name="Line-1 copy">
          <rect id="Rounded_Rectangle_603-3" data-name="Rounded Rectangle 603" class="cls-15" x="89" y="89" width="21" height="2" rx="1" ry="1"/>
          <rect id="Rounded_Rectangle_603_copy-3" data-name="Rounded Rectangle 603 copy" class="cls-15" x="89" y="95" width="11" height="2" rx="1" ry="1"/>
        </g>
      </g>
      <g id="tick-2">
        <rect id="Rounded_Rectangle_601-2" data-name="Rounded Rectangle 601" class="cls-12" x="71" y="68" width="12" height="12" rx="1" ry="1"/>
      </g>
      <g id="tick-3">
        <rect id="Rounded_Rectangle_601-3" data-name="Rounded Rectangle 601" class="cls-12" x="71" y="87" width="12" height="12" rx="1" ry="1"/>
      </g>
      <path id="Workflow" class="cls-16" d="M71.921,37.1H71.012l2.066,6.888h0.475l1.467-4.534,0.186-1.037h0.052l0.186,1.027,1.467,4.544h0.475L79.4,37.1H78.573l-1.221,4.524-0.19,1.143h-0.01l-0.18-1.124-1.5-4.544H75.061l-1.487,4.524L73.4,42.769h-0.01l-0.165-1.124Zm7.767,5.4a2.164,2.164,0,0,0,.413.8,1.816,1.816,0,0,0,.708.513A2.6,2.6,0,0,0,81.816,44a2.132,2.132,0,0,0,1.678-.654,2.741,2.741,0,0,0,.584-1.884,3.79,3.79,0,0,0-.134-1.042,2.168,2.168,0,0,0-.413-0.8,1.819,1.819,0,0,0-.708-0.514,2.6,2.6,0,0,0-1.007-.179,2.132,2.132,0,0,0-1.678.654,2.741,2.741,0,0,0-.584,1.884A3.78,3.78,0,0,0,79.688,42.5Zm2.128-2.9a1.316,1.316,0,0,1,.651.15,1.228,1.228,0,0,1,.434.4,1.8,1.8,0,0,1,.243.591,3.208,3.208,0,0,1,.078.717q0,1.87-1.4,1.86a1.281,1.281,0,0,1-.651-0.155,1.266,1.266,0,0,1-.434-0.407,1.794,1.794,0,0,1-.243-0.591,3.162,3.162,0,0,1-.078-0.707q0-1.87,1.4-1.86h0Zm6.177-.562a2.694,2.694,0,0,0-.671-0.1,1.25,1.25,0,0,0-.7.179,1.528,1.528,0,0,0-.47.509H86.113l-0.155-.591H85.38v4.844h0.826V40.492a0.972,0.972,0,0,1,.32-0.576,1.025,1.025,0,0,1,.7-0.228,1.977,1.977,0,0,1,.589.1Zm3.925,4.844h1.023l-1.725-2.189L90.7,41.306l0.424-.32,1.58-1.947H91.742l-1.6,2.054-0.424.136V37.1H88.892v6.781h0.826V41.7h0.475Zm5.01-.969a1.021,1.021,0,0,0,.3.838A1.182,1.182,0,0,0,98,44a2.236,2.236,0,0,0,.238-0.015q0.134-.015.269-0.034a1.941,1.941,0,0,0,.253-0.053,1.357,1.357,0,0,0,.2-0.073l-0.083-.61a1.756,1.756,0,0,1-.351.087,2.4,2.4,0,0,1-.3.019,0.44,0.44,0,0,1-.346-0.145,0.725,0.725,0,0,1-.129-0.484V37.159a2.89,2.89,0,0,0-.377-0.068q-0.232-.029-0.5-0.053T96.359,37q-0.258-.015-0.465-0.014a1.546,1.546,0,0,0-1.818,1.782v0.271H93.271v0.678h0.806v4.166H94.9V39.717h1.064V39.039H94.9q0-.32.026-0.576a1.081,1.081,0,0,1,.129-0.436,0.655,0.655,0,0,1,.3-0.271,1.357,1.357,0,0,1,.553-0.092q0.279,0,.568.024t0.444,0.053v5.173Zm2.778-.412a2.163,2.163,0,0,0,.413.8,1.816,1.816,0,0,0,.708.513,2.6,2.6,0,0,0,1.007.179,2.133,2.133,0,0,0,1.678-.654,2.741,2.741,0,0,0,.584-1.884,3.766,3.766,0,0,0-.135-1.042,2.157,2.157,0,0,0-.413-0.8,1.822,1.822,0,0,0-.707-0.514,2.6,2.6,0,0,0-1.007-.179,2.133,2.133,0,0,0-1.679.654,2.741,2.741,0,0,0-.584,1.884A3.78,3.78,0,0,0,99.706,42.5Zm2.128-2.9a1.314,1.314,0,0,1,.65.15,1.227,1.227,0,0,1,.434.4,1.811,1.811,0,0,1,.243.591,3.191,3.191,0,0,1,.077.717q0,1.87-1.4,1.86a1.281,1.281,0,0,1-.651-0.155,1.266,1.266,0,0,1-.434-0.407,1.807,1.807,0,0,1-.243-0.591,3.2,3.2,0,0,1-.077-0.707q0-1.87,1.405-1.86h0Zm6.2-.562-1.105,2.8-0.248.959h-0.01l-0.176-.94-1.022-2.819h-0.9l1.8,4.95h0.4l1.3-3.187,0.207-.8h0.031l0.2,0.794,1.353,3.2h0.4L112,39.039h-0.785l-0.92,2.809-0.2.949h-0.021l-0.258-.93-1.188-2.829h-0.6Z"/>
      <path id="Forma_1-2" data-name="Forma 1" class="cls-17" d="M80.906,53.182L76.023,58.4,74.049,56.29a0.593,0.593,0,0,0-.878,0,0.7,0.7,0,0,0,0,.938l2.413,2.577a0.593,0.593,0,0,0,.878,0v0l5.32-5.684a0.7,0.7,0,0,0,0-.938A0.593,0.593,0,0,0,80.906,53.182Z"/>
      <path id="Forma_1_copy_9" data-name="Forma 1 copy 9" class="cls-17" d="M80.906,70.182L76.023,75.4,74.049,73.29a0.593,0.593,0,0,0-.878,0,0.7,0.7,0,0,0,0,.938l2.413,2.577a0.593,0.593,0,0,0,.878,0v0l5.32-5.684a0.7,0.7,0,0,0,0-.938A0.593,0.593,0,0,0,80.906,70.182Z"/>
    </g>
    <g id="illutrator">
      <g id="illustrator-2" data-name="illustrator">
        <path class="cls-3" d="M40.563,32.5s3.6,6.238,10,7.8c1.29,0.367,3.777-.367,2.4,0,3.488-.929,1.563-2.8,1.563-2.8l-1.763-1.6s-7.455-5.051-7.919-6.309C46.065,29.032,40.584,31.156,40.563,32.5Z"/>
        <path class="cls-2" d="M34.144,100.984s-0.37,3.224.566,3.512a3.207,3.207,0,0,0,2.409,1.358c0.393,0.545,4.764,2.257,6.681,1.231-0.066-.243,1.546-1.449.325-2.9,0,0-5.616-2.449-5.963-4.1Z"/>
        <path id="Shape_121_copy" data-name="Shape 121 copy" class="cls-2" d="M23.144,102.084s-0.37,3.224.566,3.512a3.207,3.207,0,0,0,2.409,1.358c0.393,0.545,4.764,2.257,6.681,1.231-0.066-.243,1.546-1.449.325-2.9,0,0-5.616-2.449-5.963-4.1Z"/>
        <g id="Group_10_copy-2" data-name="Group 10 copy">
          <path class="cls-3" d="M32.181,19.308a0.984,0.984,0,0,0,.965,1.02s-0.035,1.731.9,2.188a17.711,17.711,0,0,0,4.7,1.295,9.45,9.45,0,0,1-.565,2.034c1.445,3.646-4.321,2.609-7.8-.324a3.443,3.443,0,0,0,1.141-2.587C31.71,21.434,32.255,20.749,32.181,19.308Z"/>
          <g>
            <path class="cls-4" d="M31.618,22.579a5.887,5.887,0,0,1-.56-2.224A10.015,10.015,0,0,1,32.3,16.671a2.3,2.3,0,0,1,1.3-.856,16.249,16.249,0,0,0,4.212-1.127s4.054-.935,4.557,2.163c0,0-2.39-2.688-4.641-1.3,0,0-1.215.515-1.937,3.356-0.087.276-.541,0.973-1.134-0.277,0,0-1.175-2.636-2.051-1.712C32.227,17.51,32.486,21.479,31.618,22.579Z"/>
            <path class="cls-3" d="M32.7,20.6a3.889,3.889,0,0,0,.9,2.167c0.772,0.606.463,0.814,4.024,2.347a4.29,4.29,0,0,0,3.154-.917,5.129,5.129,0,0,0,1.058-2.205,17.432,17.432,0,0,0,.589-4.482c0.091-.976-0.125-0.942-0.754-1.373C41,15.611,37.344,12.8,35.682,18.94c-0.647,1.888-2.146-4.8-3.473-1.3C31.977,19.745,32.037,20.364,32.7,20.6Z"/>
            <path class="cls-2" d="M41.84,15.5s-0.087-7.151-7.08-5.873a5.445,5.445,0,0,0-4.635,4.345c-0.774,2.914,1.013,6.273,1.013,6.273a11.975,11.975,0,0,1,1.645-3.962c0.126-.162.1-0.028,0.23-0.087a11.94,11.94,0,0,0,2.841-.712C37.684,15.053,39.728,13.907,41.84,15.5Z"/>
            <path class="cls-5" d="M45.64,13.619c-4.89-3.48-8.13.045-8.761,2.083,0.453-.468,3.98-1.638,5.421,1.266a28.614,28.614,0,0,1,3.447-1.788,0.762,0.762,0,0,0,.471-0.886A1.206,1.206,0,0,0,45.64,13.619Z"/>
          </g>
        </g>
        <path class="cls-6" d="M41.762,56.8a190.352,190.352,0,0,1-.712,26.732c-1.151,10.455-1.169,17.592-1.169,17.592-1.236,1.038-6.366,1.04-6.366,1.04C32.61,100.987,32.962,83.2,32.962,83.2c-0.2-1.9-.689-16.1-0.689-16.1a2.363,2.363,0,0,0-.511-1.013c-0.25.309-1.043,1.371-1.043,1.371,0.054,1.062.043,15.745,0.043,15.745-0.044,2.483-1.731,19.018-1.731,19.019a4.1,4.1,0,0,1-1.811-.06h0s-5.772.411-5.337-1.035c-0.042-1.958.29-9.493,0.078-17.924-0.274-10.958-1.1-23.1-1.1-23.1-0.281-.18,0-5.5,0-5.5Z"/>
        <path class="cls-18" d="M47,32a16.228,16.228,0,0,0-3.038-2.7s-3.64-2.262-5.5-3.3A3.056,3.056,0,0,1,36.1,27.2s-4.081.474-5.334-2.3a26.188,26.188,0,0,1-2.746,1.744c-3.765,1.986-4.438,2.45-4.954,5.956-1,4.125-2.2,27.5-2.2,27.5l19.379,1.434,1.521-.334c0.849,0.288-.742-6.447,0-14.3a68.12,68.12,0,0,0,0-11A11.658,11.658,0,0,0,44,37,30.3,30.3,0,0,0,47,32Z"/>
      </g>
      <path id="Forma_1_copy_13" data-name="Forma 1 copy 13" class="cls-19" d="M65.148,31.008a0.651,0.651,0,0,0-.81.008,2.208,2.208,0,0,1-3.557-2.1,0.555,0.555,0,0,0-.416-0.632A9.9,9.9,0,0,0,58.132,28a0.556,0.556,0,0,0-.561.516,2.3,2.3,0,0,1-1.621,1.977,2.221,2.221,0,0,1-2.4-.88,0.555,0.555,0,0,0-.746-0.158,9.984,9.984,0,0,0-1.777,1.38,0.557,0.557,0,0,0-.038.756,2.225,2.225,0,0,1,.234,2.524,2.311,2.311,0,0,1-2.3,1.08,0.558,0.558,0,0,0-.634.414A9.928,9.928,0,0,0,48,37.865a0.556,0.556,0,0,0,.515.562,2.216,2.216,0,0,1,1.977,1.622,2.312,2.312,0,0,1-.883,2.4,0.544,0.544,0,0,0-.153.742,10.013,10.013,0,0,0,1.4,1.8,0.661,0.661,0,0,0,.819-0.016,2.193,2.193,0,0,1,2.465-.186,2.224,2.224,0,0,1,1.081,2.293,0.556,0.556,0,0,0,.416.631A9.928,9.928,0,0,0,57.866,48a0.556,0.556,0,0,0,.563-0.516,2.3,2.3,0,0,1,1.619-1.976,2.218,2.218,0,0,1,2.4.878,0.555,0.555,0,0,0,.746.158,9.951,9.951,0,0,0,1.777-1.38,0.556,0.556,0,0,0,.038-0.756,2.222,2.222,0,0,1-.234-2.523,2.308,2.308,0,0,1,2.3-1.08,0.559,0.559,0,0,0,.634-0.415A9.956,9.956,0,0,0,68,38.135a0.555,0.555,0,0,0-.515-0.562,2.216,2.216,0,0,1-1.977-1.621,2.239,2.239,0,0,1,.778-2.328l0.1-.074a0.557,0.557,0,0,0,.16-0.746A10.007,10.007,0,0,0,65.148,31.008Z"/>
      <path id="Forma_1_copy_15" data-name="Forma 1 copy 15" class="cls-20" d="M59.837,40.365a2.993,2.993,0,1,1,.516-4.2A3,3,0,0,1,59.837,40.365Z"/>
      <path class="cls-3" d="M36.427,35.316s2.009,4.333,8.635,6.083a20.907,20.907,0,0,0,9.9,1.1,18.887,18.887,0,0,1,5.5,0c0.567,0.172,1.893,2.132-1.073,3.1a10.885,10.885,0,0,1-3.03.13c-5.722-.658-16.667,1.686-23.4-5.426Z"/>
      <path class="cls-21" d="M32.962,42.5s4.175-5.817,4.4-6.6c0.205,0.04-4.962-3.827-6.468-5.307C26.529,28.153,26.435,27.339,24,30c0,0-2.782,3.955.429,6.7C24.429,36.7,32.411,42.481,32.962,42.5Z"/>
    </g>
  </g>
</svg>
