<svg id="icon" xmlns="http://www.w3.org/2000/svg" width="178" height="122" viewBox="0 0 178 122">
  <defs>
    <style>
      .cls-1 {
        fill: #eef3fe;
      }

      .cls-1, .cls-10, .cls-11, .cls-12, .cls-13, .cls-14, .cls-15, .cls-2, .cls-3, .cls-4, .cls-5, .cls-6, .cls-7, .cls-8 {
        fill-rule: evenodd;
      }

      .cls-2 {
        fill: #193151;
      }

      .cls-3 {
        fill: #fbe3c5;
      }

      .cls-5 {
        fill: #0a1c35;
      }

      .cls-6 {
        fill: #b5ccfa;
      }

      .cls-7 {
        fill: #8388e4;
      }

      .cls-8 {
        fill: #8b90eb;
      }

      .cls-9 {
        fill: #fff;
        stroke: #e3e3e3;
        stroke-linejoin: round;
        stroke-width: 1px;
      }

      .cls-10 {
        fill: #343439;
      }

      .cls-11 {
        fill: #de617e;
      }

      .cls-12 {
        fill: #ffc501;
      }

      .cls-13 {
        fill: #565657;
      }

      .cls-14 {
        fill: #717070;
      }

      .cls-15 {
        opacity: 0.05;
      }
    </style>
  </defs>
  <path class="cls-1" d="M8,80.019c0.518-12.348,3.106-22.638,28.987-30.87S70.739,37.287,83.68,29.569C94.106,23.175,126.153,23.737,141.654,45c10.784,14.8,10.007,34.037-2.07,47.334-10.26,11.3-31.5,20.432-52.8,24.7-21.692,4.344-37.893,1.057-53.939-5.117S7.655,94.768,8,80.019Z"/>
  <g id="illustrator">
    <path class="cls-2" d="M169.451,98.481a19.3,19.3,0,0,1,1.085,2.824,7.279,7.279,0,0,0,2.159,2.749s2.684,5.05-2.021,4.751c-4.679-.3-0.253-0.01-0.253-0.01s-1.92,1.159-4.6-3.121a15.811,15.811,0,0,1-.633-3.066c-0.082-1.461-.173-3.635-0.146-3.725A39.732,39.732,0,0,1,169.451,98.481Z"/>
    <path class="cls-3" d="M150.84,27.861s-7.33,2.512-11.833,2.218a9.194,9.194,0,0,1-6.449-1.47s-6.9-3.465-8.315-4.488a2.694,2.694,0,0,1-2.479.211c-3.445-1.887-1.149-3.448-1.149-3.448s4.927-1.8,6.06-.373c1.466,1.849,6.872,3.036,9.741,3.833,0,0,7.038,1.153,9.488-1.609C145.9,22.733,151.152,26.413,150.84,27.861Z"/>
    <path class="cls-2" d="M157.91,101.962s0.4,3.564-.613,3.883a3.472,3.472,0,0,1-2.61,1.5c-0.426.6-6.353,2.495-8.431,1.361,0.071-.269-1.675-1.6-0.352-3.21,0,0,6.084-2.707,6.461-4.529Z"/>
    <g id="Group_10_copy" data-name="Group 10 copy">
      <path class="cls-3" d="M158.845,12.886a1.083,1.083,0,0,1-1.046,1.128s0.038,1.913-.972,2.419a18.886,18.886,0,0,1-5.094,1.431,10.59,10.59,0,0,0,.612,2.249c-1.566,4.03,4.681,2.884,8.448-.358a3.845,3.845,0,0,1-1.236-2.86C159.356,15.237,158.764,14.479,158.845,12.886Z"/>
      <g>
        <path class="cls-4" d="M159.455,16.5a6.618,6.618,0,0,0,.607-2.459,11.214,11.214,0,0,0-1.349-4.073,2.491,2.491,0,0,0-1.411-.946,17.326,17.326,0,0,1-4.563-1.246s-4.392-1.033-4.938,2.391c0,0,2.59-2.972,5.029-1.439,0,0,1.316.569,2.1,3.71,0.094,0.305.586,1.075,1.228-.306,0,0,1.273-2.914,2.223-1.892C158.795,10.9,158.515,15.287,159.455,16.5Z"/>
        <path class="cls-3" d="M158.284,14.312a4.347,4.347,0,0,1-.972,2.4,10.635,10.635,0,0,1-3.793,1.8l-2.1.68c-0.3.114-1.817,0.645-1.888-.9a6.2,6.2,0,0,0-.833-2.441,4.181,4.181,0,0,1-.424-3.2,3.109,3.109,0,0,0-.527-1.75,1.418,1.418,0,0,1,.817-1.518c0.728-.577,4.684-3.683,6.485,3.1,0.7,2.087,2.325-5.3,3.763-1.438C159.066,13.369,159,14.054,158.284,14.312Z"/>
        <path class="cls-2" d="M148.38,8.675s0.093-7.9,7.67-6.493a5.959,5.959,0,0,1,5.022,4.8c0.838,3.221-1.1,6.935-1.1,6.935a13.408,13.408,0,0,0-1.782-4.38c-0.137-.179-0.1-0.03-0.25-0.1-0.587-.266-1.378.015-3.078-0.787C152.883,8.182,150.668,6.915,148.38,8.675Z"/>
        <path class="cls-5" d="M144.263,6.6c5.3-3.847,8.808.05,9.492,2.3-0.491-.517-4.312-1.811-5.873,1.4a30.752,30.752,0,0,0-3.734-1.977,0.846,0.846,0,0,1-.511-0.98A1.326,1.326,0,0,1,144.263,6.6Z"/>
      </g>
    </g>
    <path class="cls-6" d="M149.1,43.067C149.1,53.641,151,102,151,102l6.4,0.048,1.4-19.411c0.066-1.911-.049-16.922-0.049-16.922a2.636,2.636,0,0,1,.553-1.12,1.72,1.72,0,0,0,1.131.3c-0.059,1.174,2.781,18.43,2.781,18.43C163.257,86.07,165,101,165,101h6l-1-62S149,43,149.1,43.067Z"/>
    <path class="cls-7" d="M141,24c0.285-.14,2.217-0.9,6.12-2.567,0,0,3.282-.2,4.888-1.578a3.271,3.271,0,0,0,2.595,1.756s4.058,1,5.415-2.065l2.835,0.844c3.186,0.949,8.436,2.6,8.018,5.727C169.752,34.495,170,58,170,58H149V31s-5.887.163-6,0C142.209,29.863,142.663,24.1,141,24Z"/>
    <path class="cls-3" d="M164.3,34.228s2.565,3.923,2.3,11.5a21.669,21.669,0,0,1-2.3,11.495s-0.124-.509,0,1.15c0,0,.357,3.7,3.449,3.448,0.6-.981.556-2.389,1.149-3.448s0.7-.534.919-1.3c2.8-9.865,4.4-12.757.55-24.129Z"/>
    <path class="cls-8" d="M171.36,35.021s-6.085.922-6.838,0.677c0.009-.035-1-5.158-1.376-7.218-2.13-6.36,7.724-7.525,8.428-1.981C171.574,26.5,171.644,34.556,171.36,35.021Z"/>
  </g>
  <rect id="Rounded_Rectangle_593" data-name="Rounded Rectangle 593" class="cls-9" x="6" y="23" width="134" height="86" rx="5" ry="5"/>
  <g id="Bar">
    <path id="Job_Orders" data-name="Job Orders" class="cls-10" d="M15.5,36.764a1.54,1.54,0,0,1-.355,1.063,1.171,1.171,0,0,1-.917.4,1.227,1.227,0,0,1-.922-0.334,1.417,1.417,0,0,1-.325-1.022H12.007L12,36.9a1.91,1.91,0,0,0,.585,1.566,2.4,2.4,0,0,0,1.646.539,2.294,2.294,0,0,0,1.651-.607,2.153,2.153,0,0,0,.636-1.635V31.531H15.5v5.233Zm2.375-.542a2.961,2.961,0,0,0,.672,2,2.284,2.284,0,0,0,1.827.782,2.28,2.28,0,0,0,1.824-.779,2.966,2.966,0,0,0,.67-2V36.111a2.97,2.97,0,0,0-.672-2,2.287,2.287,0,0,0-1.832-.784,2.264,2.264,0,0,0-1.819.787,2.98,2.98,0,0,0-.67,2v0.111Zm1.015-.111a2.566,2.566,0,0,1,.373-1.432,1.23,1.23,0,0,1,1.1-.572,1.248,1.248,0,0,1,1.11.572,2.541,2.541,0,0,1,.379,1.432v0.111a2.548,2.548,0,0,1-.376,1.437,1.363,1.363,0,0,1-2.213,0,2.561,2.561,0,0,1-.373-1.437V36.111Zm9.98,0.152a3.594,3.594,0,0,0-.577-2.131,1.863,1.863,0,0,0-1.608-.81,2.028,2.028,0,0,0-.909.192,1.752,1.752,0,0,0-.652.557V31H24.11V38.9h0.778l0.165-.744a1.779,1.779,0,0,0,.678.635,2.051,2.051,0,0,0,.966.215,1.929,1.929,0,0,0,1.595-.726,2.972,2.972,0,0,0,.58-1.91V36.263Zm-1.015.106a2.269,2.269,0,0,1-.35,1.326,1.213,1.213,0,0,1-1.067.5,1.339,1.339,0,0,1-.8-0.228,1.635,1.635,0,0,1-.513-0.633V34.962a1.6,1.6,0,0,1,.513-0.6,1.346,1.346,0,0,1,.791-0.225,1.166,1.166,0,0,1,1.074.595,2.98,2.98,0,0,1,.353,1.536v0.106ZM38.6,34.563a3.121,3.121,0,0,0-.853-2.245,2.922,2.922,0,0,0-2.213-.893,2.764,2.764,0,0,0-2.136.9,3.189,3.189,0,0,0-.822,2.242v1.311a3.178,3.178,0,0,0,.822,2.242,2.772,2.772,0,0,0,2.136.891,2.926,2.926,0,0,0,2.213-.891,3.112,3.112,0,0,0,.853-2.242V34.563Zm-1.015,1.311a2.478,2.478,0,0,1-.554,1.673,1.871,1.871,0,0,1-1.5.645,1.731,1.731,0,0,1-1.414-.648,2.558,2.558,0,0,1-.528-1.67V34.552a2.542,2.542,0,0,1,.528-1.66,1.732,1.732,0,0,1,1.414-.648,1.87,1.87,0,0,1,1.494.648,2.457,2.457,0,0,1,.556,1.66v1.321ZM42.7,33.378a1.5,1.5,0,0,0-.17-0.038,1.279,1.279,0,0,0-.216-0.018,1.385,1.385,0,0,0-.8.238,1.911,1.911,0,0,0-.585.663l-0.1-.8H39.923V38.9h1.015V34.988a1.206,1.206,0,0,1,.425-0.526,1.179,1.179,0,0,1,.678-0.187l0.52,0.03Zm0.587,2.991a2.98,2.98,0,0,0,.577,1.91,1.927,1.927,0,0,0,1.6.726,2.048,2.048,0,0,0,.933-0.2,1.8,1.8,0,0,0,.675-0.6L47.224,38.9H48V31H46.987v3.011A1.775,1.775,0,0,0,46.34,33.5a2.027,2.027,0,0,0-.868-0.177,1.861,1.861,0,0,0-1.61.81,3.6,3.6,0,0,0-.575,2.131v0.106Zm1.015-.106a3.012,3.012,0,0,1,.348-1.538,1.165,1.165,0,0,1,1.079-.592,1.36,1.36,0,0,1,.75.2,1.549,1.549,0,0,1,.508.539v2.556a1.521,1.521,0,0,1-.505.567,1.362,1.362,0,0,1-.763.2,1.213,1.213,0,0,1-1.072-.5,2.293,2.293,0,0,1-.345-1.328V36.263Zm8.7,2.548a2.444,2.444,0,0,0,.788-0.478l-0.4-.648a2.025,2.025,0,0,1-.667.4,2.6,2.6,0,0,1-.9.144,1.305,1.305,0,0,1-1.134-.514,2.234,2.234,0,0,1-.371-1.339l0.016-.025H53.9V35.823a2.781,2.781,0,0,0-.559-1.817,2.04,2.04,0,0,0-1.677-.683,2.19,2.19,0,0,0-1.693.772,2.811,2.811,0,0,0-.693,1.951v0.223a2.869,2.869,0,0,0,.672,1.984,2.379,2.379,0,0,0,1.873.754A3.192,3.192,0,0,0,53.005,38.811ZM52.588,34.5a1.575,1.575,0,0,1,.3.987v0.081H50.372l-0.01-.025a1.886,1.886,0,0,1,.425-1.03,1.112,1.112,0,0,1,.878-0.4A1.089,1.089,0,0,1,52.588,34.5Zm5.23-1.118a1.5,1.5,0,0,0-.17-0.038,1.277,1.277,0,0,0-.216-0.018,1.386,1.386,0,0,0-.8.238,1.913,1.913,0,0,0-.585.663l-0.1-.8H55.04V38.9h1.015V34.988a1.206,1.206,0,0,1,.425-0.526,1.179,1.179,0,0,1,.678-0.187l0.52,0.03ZM61.669,38a1.406,1.406,0,0,1-.848.225,1.575,1.575,0,0,1-.881-0.245,0.917,0.917,0,0,1-.4-0.777H58.57l-0.01.03a1.505,1.505,0,0,0,.582,1.24,2.479,2.479,0,0,0,1.68.531,2.507,2.507,0,0,0,1.569-.461,1.433,1.433,0,0,0,.6-1.189,1.206,1.206,0,0,0-.531-1.017,4.038,4.038,0,0,0-1.556-.6,2.566,2.566,0,0,1-.945-0.324,0.6,0.6,0,0,1-.229-0.5,0.737,0.737,0,0,1,.265-0.567,1.169,1.169,0,0,1,.8-0.238,1.144,1.144,0,0,1,.8.288,0.856,0.856,0,0,1,.317.643h0.969l0.01-.03a1.44,1.44,0,0,0-.562-1.179,2.6,2.6,0,0,0-3.037-.03,1.435,1.435,0,0,0-.58,1.144,1.169,1.169,0,0,0,.528,1,4.1,4.1,0,0,0,1.512.582,2.488,2.488,0,0,1,.966.364,0.66,0.66,0,0,1,.255.536A0.685,0.685,0,0,1,61.669,38Z"/>
    <g id="_1" data-name="1">
      <g id="_1-2" data-name="1">
        <path id="Urgent" class="cls-11" d="M101.617,54.357a1.849,1.849,0,0,1-.265,1.114,1.019,1.019,0,0,1-.862.345,1.715,1.715,0,0,1-.529-0.074,0.838,0.838,0,0,1-.379-0.246,1.074,1.074,0,0,1-.222-0.453,2.837,2.837,0,0,1-.071-0.685V50h-1.3v4.622q0,2.395,2.517,2.395a2.955,2.955,0,0,0,.956-0.148,1.814,1.814,0,0,0,.738-0.463,2.17,2.17,0,0,0,.473-0.8,3.463,3.463,0,0,0,.171-1.153V50h-1.23v4.356Zm5.081-2.385a1.726,1.726,0,0,0-.558-0.108,1.076,1.076,0,0,0-.644.2,1.333,1.333,0,0,0-.435.562h-0.038l-0.142-.651h-0.955V56.9h1.23V53.717a0.881,0.881,0,0,1,.3-0.468,0.844,0.844,0,0,1,.553-0.182,1.545,1.545,0,0,1,.53.108Zm4.552,0.177a4.4,4.4,0,0,0-.781-0.207,5.963,5.963,0,0,0-1.083-.089,2.232,2.232,0,0,0-1.76.68,2.92,2.92,0,0,0-.606,2,3.075,3.075,0,0,0,.449,1.853,1.61,1.61,0,0,0,1.368.591,1.347,1.347,0,0,0,1.173-.463h0.038v0.315a1.271,1.271,0,0,1-.232.813,1.073,1.073,0,0,1-.875.291,2.46,2.46,0,0,1-.714-0.089q-0.29-.089-0.507-0.177l-0.255,1.015a2.616,2.616,0,0,0,.591.207,4.617,4.617,0,0,0,1.074.1,2.24,2.24,0,0,0,1.562-.508,2.039,2.039,0,0,0,.558-1.582V52.15Zm-2.735,3.43a2.139,2.139,0,0,1-.227-1.094,2.05,2.05,0,0,1,.265-1.178,0.858,0.858,0,0,1,.738-0.369,1.829,1.829,0,0,1,.729.128v2.218a1.069,1.069,0,0,1-.3.5,0.823,0.823,0,0,1-.554.168A0.722,0.722,0,0,1,108.515,55.579Zm7.183,0.059a1.919,1.919,0,0,1-.469.251,1.855,1.855,0,0,1-.695.123,1.15,1.15,0,0,1-.9-0.315,1.482,1.482,0,0,1-.308-0.936h2.839c0.032-.171.055-0.335,0.071-0.493a4.409,4.409,0,0,0,.024-0.444,2.489,2.489,0,0,0-.161-0.956,1.593,1.593,0,0,0-.426-0.611,1.611,1.611,0,0,0-.605-0.325,2.519,2.519,0,0,0-.7-0.1,2.159,2.159,0,0,0-1.675.65,2.8,2.8,0,0,0-.6,1.951,3.077,3.077,0,0,0,.53,1.907,1.972,1.972,0,0,0,1.675.695,3.249,3.249,0,0,0,1.036-.163,2.367,2.367,0,0,0,.771-0.4Zm-0.743-2.493a1.287,1.287,0,0,1,.156.818h-1.76a1.516,1.516,0,0,1,.279-0.8,0.845,0.845,0,0,1,.714-0.3A0.687,0.687,0,0,1,114.955,53.145Zm6.3,3.755V53.835a4.151,4.151,0,0,0-.094-0.961,1.506,1.506,0,0,0-.284-0.616,1.063,1.063,0,0,0-.464-0.325,1.842,1.842,0,0,0-.624-0.1,1.66,1.66,0,0,0-.928.236,2.069,2.069,0,0,0-.577.552h-0.038l-0.142-.651h-0.975V56.9h1.231V53.707a1.176,1.176,0,0,1,.345-0.527,0.865,0.865,0,0,1,.591-0.212,0.613,0.613,0,0,1,.564.266,1.715,1.715,0,0,1,.165.867v2.8h1.23Zm0.54-3.844h0.653V55.54a1.727,1.727,0,0,0,.307,1.148,1.215,1.215,0,0,0,.961.35,2.741,2.741,0,0,0,.691-0.089,3.057,3.057,0,0,0,.6-0.217l-0.218-.986a2.147,2.147,0,0,1-.308.118,1.185,1.185,0,0,1-.326.039,0.372,0.372,0,0,1-.374-0.222,1.953,1.953,0,0,1-.1-0.734V53.056h1.154V51.972h-1.154V50.681l-1.23.365v0.926h-0.653v1.084Z"/>
      </g>
      <path id="Medium" class="cls-12" d="M103.018,77.854h1.269V71.1h-1.149L101.5,74.169l-0.278.791h-0.037l-0.306-.772L99.146,71.1H97.988v6.752h1.2V74.343l-0.185-1.331h0.046l0.408,1.071,1.455,2.527h0.408l1.38-2.518,0.4-1.08h0.056l-0.139,1.341v3.5Zm5.66-1.235a1.856,1.856,0,0,1-.459.246,1.811,1.811,0,0,1-.681.121,1.125,1.125,0,0,1-.884-0.309,1.447,1.447,0,0,1-.3-0.916h2.779q0.046-.251.069-0.482a4.211,4.211,0,0,0,.023-0.434,2.432,2.432,0,0,0-.157-0.936,1.508,1.508,0,0,0-1.01-.916,2.457,2.457,0,0,0-.685-0.1,2.113,2.113,0,0,0-1.64.637,2.743,2.743,0,0,0-.584,1.91,3.009,3.009,0,0,0,.519,1.866,1.932,1.932,0,0,0,1.64.68,3.183,3.183,0,0,0,1.014-.159,2.321,2.321,0,0,0,.755-0.391Zm-0.727-2.44a1.264,1.264,0,0,1,.153.8H106.38a1.487,1.487,0,0,1,.274-0.786,0.827,0.827,0,0,1,.7-0.294A0.672,0.672,0,0,1,107.951,74.179Zm6.063-3.077h-1.2V73.06a1.835,1.835,0,0,0-.371-0.111,2.717,2.717,0,0,0-.472-0.034,1.881,1.881,0,0,0-1.575.685,3.037,3.037,0,0,0-.538,1.919,2.968,2.968,0,0,0,.482,1.871,1.638,1.638,0,0,0,1.353.6,1.565,1.565,0,0,0,.819-0.207,1.422,1.422,0,0,0,.533-0.545h0.037l0.167,0.627h0.861a7.206,7.206,0,0,1-.083-0.9q-0.009-.405-0.009-0.81V71.1Zm-2.71,5.45a2.046,2.046,0,0,1-.208-0.993,2.2,2.2,0,0,1,.254-1.225,0.879,0.879,0,0,1,.765-0.357,1.307,1.307,0,0,1,.407.053,0.919,0.919,0,0,1,.288.159v2.045a0.976,0.976,0,0,1-.288.516,0.814,0.814,0,0,1-.555.178A0.7,0.7,0,0,1,111.3,76.551Zm3.868,1.3h1.2V73.031h-1.2v4.823Zm0.023-5.715a0.77,0.77,0,0,0,.551.188,0.84,0.84,0,0,0,.57-0.188,0.593,0.593,0,0,0,.217-0.468,0.622,0.622,0,0,0-.217-0.477,0.815,0.815,0,0,0-.57-0.2,0.748,0.748,0,0,0-.551.2,0.648,0.648,0,0,0-.2.477A0.616,0.616,0,0,0,115.2,72.138Zm2.32,0.892v3a3.843,3.843,0,0,0,.1.945,1.522,1.522,0,0,0,.282.6,1.035,1.035,0,0,0,.463.318,1.924,1.924,0,0,0,.63.1,1.642,1.642,0,0,0,.9-0.241,1.766,1.766,0,0,0,.593-0.608h0.037l0.213,0.714h0.908a4.87,4.87,0,0,1-.111-0.69q-0.038-.381-0.037-0.776V73.031h-1.2v3.116a1.308,1.308,0,0,1-.338.521,0.8,0.8,0,0,1-.57.212,0.533,0.533,0,0,1-.523-0.26,1.964,1.964,0,0,1-.134-0.849V73.031h-1.2Zm8.866,4.823V74.69a1.12,1.12,0,0,1,.282-0.5A0.711,0.711,0,0,1,127.178,74a0.494,0.494,0,0,1,.514.285,2.391,2.391,0,0,1,.116.854v2.71h1.2V74.96a4.958,4.958,0,0,0-.084-1,1.646,1.646,0,0,0-.254-0.632,0.918,0.918,0,0,0-.445-0.333,2,2,0,0,0-.662-0.1,1.421,1.421,0,0,0-.806.222,1.719,1.719,0,0,0-.547.6,1.216,1.216,0,0,0-.44-0.632,1.288,1.288,0,0,0-.727-0.188,1.44,1.44,0,0,0-.848.231,2.169,2.169,0,0,0-.542.54H123.62l-0.139-.637h-0.935v4.823h1.2V74.642a1.144,1.144,0,0,1,.3-0.458,0.726,0.726,0,0,1,.51-0.178,0.487,0.487,0,0,1,.5.28,2.625,2.625,0,0,1,.121.945v2.624h1.2Z"/>
      <g id="_1_copy_5" data-name="1 copy 5">
        <path id="_1234" data-name="#1234" class="cls-13" d="M14.976,56.324h0.645l0.365-1.619H16.66l0.15-.62H16.127l0.29-1.27h0.711l0.15-.62h-0.72l0.355-1.531H16.267L15.912,52.2H14.93l0.355-1.531H14.64L14.284,52.2h-0.7l-0.131.62h0.692l-0.29,1.27H13.116l-0.131.62h0.729l-0.365,1.619h0.645l0.365-1.619h0.982Zm-0.187-3.509h0.982l-0.29,1.27H14.5Zm4.04,4.071h3.32V56.169H20.867V49.986H20.531l-2.057,1.648,0.355,0.494,1.029-.766,0.374-.456-0.093.572v4.691H18.829v0.717Zm8.145-5.907a1.494,1.494,0,0,0-.327-0.528,1.459,1.459,0,0,0-.524-0.344,1.937,1.937,0,0,0-.711-0.121,2.774,2.774,0,0,0-.963.165,2.4,2.4,0,0,0-.776.456l0.309,0.552a2.68,2.68,0,0,1,.58-0.344,1.682,1.682,0,0,1,.692-0.15,0.975,0.975,0,0,1,.795.315,1.2,1.2,0,0,1,.262.79,2.772,2.772,0,0,1-.15.863,5.842,5.842,0,0,1-.4.921,10.343,10.343,0,0,1-.552.916q-0.3.451-.617,0.853t-0.6.732q-0.29.33-.5,0.553v0.281h3.722V56.169H25.178l-0.6.107V56.237l0.458-.417q0.365-.465.729-0.984a10.77,10.77,0,0,0,.659-1.061,6.946,6.946,0,0,0,.477-1.081,3.267,3.267,0,0,0,.182-1.052A1.911,1.911,0,0,0,26.974,50.979Zm2.567,5.273a2.485,2.485,0,0,1-.51-0.179l-0.2.688a3.077,3.077,0,0,0,.589.174,3.852,3.852,0,0,0,.757.068,2.593,2.593,0,0,0,.87-0.145,2.082,2.082,0,0,0,.715-0.422,1.981,1.981,0,0,0,.482-0.683,2.308,2.308,0,0,0,.178-0.931,2.184,2.184,0,0,0-.131-0.78,1.762,1.762,0,0,0-.365-0.591,1.576,1.576,0,0,0-.552-0.378,1.934,1.934,0,0,0-.692-0.141L30.368,53V52.981L30.7,52.7l1.487-2.316V50.1H28.844v0.717H30.7l0.608-.1-0.43.426L29.526,53.3v0.281h0.692a1.6,1.6,0,0,1,1.071.33,1.25,1.25,0,0,1,.388,1.008,1.434,1.434,0,0,1-.112.572,1.363,1.363,0,0,1-.308.451,1.29,1.29,0,0,1-.468.286,1.736,1.736,0,0,1-.589.1A2.753,2.753,0,0,1,29.54,56.252Zm8.467-2.127H36.9V50H36.4l-3.1,4.488V54.8h2.88v2.084H36.9V54.8h1.1V54.124Zm-1.833,0H34.8l-0.654.078,0.449-.475,1.319-1.851,0.327-.659h0.028l-0.093.795v2.113Z"/>
        <path id="_1244" data-name="#1244" class="cls-13" d="M14.976,77.417h0.645l0.365-1.642H16.66l0.15-.629H16.127l0.29-1.288h0.711l0.15-.629h-0.72l0.355-1.554H16.267l-0.355,1.554H14.93l0.355-1.554H14.64l-0.355,1.554h-0.7l-0.131.629h0.692l-0.29,1.288H13.116l-0.131.629h0.729l-0.365,1.642h0.645l0.365-1.642h0.982Zm-0.187-3.56h0.982l-0.29,1.288H14.5Zm4.04,4.13h3.32V77.26H20.867V70.986H20.531l-2.057,1.672,0.355,0.5,1.029-.777,0.374-.462-0.093.58v4.76H18.829v0.728Zm8.145-5.994a1.519,1.519,0,0,0-.327-0.536,1.457,1.457,0,0,0-.524-0.349,1.912,1.912,0,0,0-.711-0.123,2.738,2.738,0,0,0-.963.167,2.4,2.4,0,0,0-.776.462l0.309,0.561a2.67,2.67,0,0,1,.58-0.349,1.661,1.661,0,0,1,.692-0.153,0.968,0.968,0,0,1,.795.32,1.224,1.224,0,0,1,.262.8,2.849,2.849,0,0,1-.15.875,5.978,5.978,0,0,1-.4.934,10.517,10.517,0,0,1-.552.929q-0.3.457-.617,0.865t-0.6.742q-0.29.335-.5,0.561v0.285h3.722V77.26H25.178l-0.6.108V77.329l0.458-.423q0.365-.472.729-1a10.947,10.947,0,0,0,.659-1.077,7.1,7.1,0,0,0,.477-1.1,3.358,3.358,0,0,0,.182-1.067A1.964,1.964,0,0,0,26.974,71.994Zm5.938,3.191h-1.1V71H31.3l-3.1,4.553v0.325h2.88v2.114h0.729V75.873h1.1V75.185Zm-1.833,0H29.7l-0.655.079,0.449-.482L30.817,72.9l0.327-.669h0.028l-0.094.806v2.144Zm6.929,0H36.9V71H36.4l-3.1,4.553v0.325h2.88v2.114H36.9V75.873h1.1V75.185Zm-1.833,0H34.8l-0.654.079,0.449-.482L35.913,72.9l0.327-.669h0.028l-0.093.806v2.144Z"/>
        <path id="_1238" data-name="#1238" class="cls-13" d="M14.93,99.324h0.63l0.356-1.619h0.658l0.146-.62H16.054l0.283-1.27h0.694l0.146-.62h-0.7l0.347-1.531h-0.63L15.844,95.2H14.885l0.347-1.531H14.6L14.255,95.2H13.57l-0.128.62h0.676l-0.283,1.27H13.113l-0.128.62H13.7l-0.356,1.619h0.63l0.356-1.619h0.959Zm-0.183-3.509h0.959l-0.283,1.27H14.465Zm3.946,4.071h3.242V99.169H20.684V92.986H20.356l-2.009,1.648,0.347,0.494,1-.766,0.365-.456-0.091.572v4.691H18.693v0.717Zm7.955-5.907a1.5,1.5,0,0,0-.32-0.528,1.423,1.423,0,0,0-.512-0.344,1.852,1.852,0,0,0-.694-0.121,2.653,2.653,0,0,0-.941.165,2.333,2.333,0,0,0-.758.456l0.3,0.552a2.6,2.6,0,0,1,.566-0.344,1.611,1.611,0,0,1,.676-0.15,0.941,0.941,0,0,1,.776.315,1.213,1.213,0,0,1,.256.79,2.828,2.828,0,0,1-.146.863,5.914,5.914,0,0,1-.388.921,10.38,10.38,0,0,1-.539.916q-0.3.451-.6,0.853t-0.589.732q-0.283.33-.484,0.553v0.281h3.635V99.169H24.895l-0.585.107V99.237l0.448-.417q0.356-.465.712-0.984a10.816,10.816,0,0,0,.644-1.061,7.018,7.018,0,0,0,.466-1.081,3.336,3.336,0,0,0,.178-1.052A1.951,1.951,0,0,0,26.648,93.979Zm2.507,5.273a2.392,2.392,0,0,1-.5-0.179l-0.192.688a2.953,2.953,0,0,0,.575.174,3.677,3.677,0,0,0,.74.068,2.479,2.479,0,0,0,.849-0.145,2.023,2.023,0,0,0,.7-0.422,1.982,1.982,0,0,0,.47-0.683,2.356,2.356,0,0,0,.174-0.93,2.23,2.23,0,0,0-.128-0.78,1.768,1.768,0,0,0-.356-0.591,1.539,1.539,0,0,0-.539-0.378,1.852,1.852,0,0,0-.676-0.141L29.964,96V95.981l0.32-.281,1.452-2.317V93.1h-3.26v0.717h1.808l0.594-.1-0.42.426L29.142,96.3v0.281h0.676a1.542,1.542,0,0,1,1.046.329,1.266,1.266,0,0,1,.379,1.008,1.465,1.465,0,0,1-.11.572,1.363,1.363,0,0,1-.3.451,1.255,1.255,0,0,1-.457.286,1.661,1.661,0,0,1-.575.1A2.629,2.629,0,0,1,29.155,99.252Zm4.224-.3a1.524,1.524,0,0,0,.352.548,1.682,1.682,0,0,0,.571.368,2.072,2.072,0,0,0,.776.136,2.206,2.206,0,0,0,.813-0.141,1.742,1.742,0,0,0,.6-0.388,1.628,1.628,0,0,0,.375-0.591A2.17,2.17,0,0,0,37,98.123a1.867,1.867,0,0,0-.091-0.606,1.735,1.735,0,0,0-.251-0.48,2.207,2.207,0,0,0-.374-0.388,4.144,4.144,0,0,0-.452-0.32,2.779,2.779,0,0,0,.785-0.829,1.952,1.952,0,0,0,.237-0.974,1.58,1.58,0,0,0-.119-0.62,1.425,1.425,0,0,0-.333-0.485,1.534,1.534,0,0,0-.525-0.32,1.966,1.966,0,0,0-.694-0.116,2.02,2.02,0,0,0-.735.126,1.67,1.67,0,0,0-.557.349,1.49,1.49,0,0,0-.356.533,1.847,1.847,0,0,0-.123.688,1.78,1.78,0,0,0,.087.582,1.677,1.677,0,0,0,.237.456,2.009,2.009,0,0,0,.347.364,4.5,4.5,0,0,0,.425.305,2.756,2.756,0,0,0-.941.819,1.863,1.863,0,0,0-.3,1.061A1.92,1.92,0,0,0,33.38,98.951Zm2.809-.271a1.01,1.01,0,0,1-.256.359,1.1,1.1,0,0,1-.37.213,1.331,1.331,0,0,1-.438.073,1.253,1.253,0,0,1-.5-0.092,1.064,1.064,0,0,1-.361-0.247,1,1,0,0,1-.219-0.368,1.363,1.363,0,0,1-.073-0.446,1.544,1.544,0,0,1,.237-0.775,2.162,2.162,0,0,1,.795-0.737q0.247,0.136.475,0.281a2.346,2.346,0,0,1,.407.325,1.552,1.552,0,0,1,.288.4,1.12,1.12,0,0,1,.11.509A1.256,1.256,0,0,1,36.188,98.68Zm-2-4.391a0.883,0.883,0,0,1,.206-0.315,1.121,1.121,0,0,1,.329-0.223,1.048,1.048,0,0,1,.438-0.087,0.952,0.952,0,0,1,.977,1.027,1.394,1.394,0,0,1-.2.727,2.678,2.678,0,0,1-.607.669q-0.238-.126-0.457-0.266a2.426,2.426,0,0,1-.388-0.305,1.31,1.31,0,0,1-.269-0.373,1.09,1.09,0,0,1-.1-0.48A1.037,1.037,0,0,1,34.188,94.289Z"/>
        <path id="Repair_" data-name="Repair " class="cls-13" d="M47,78.022h0.8V74.874l0.94,0.149,1.851,3h0.93l-1.669-2.751-0.46-.367a2.074,2.074,0,0,0,1.093-.675,1.966,1.966,0,0,0,.432-1.321,2,2,0,0,0-.182-0.894,1.656,1.656,0,0,0-.484-0.6,1.917,1.917,0,0,0-.7-0.328,3.462,3.462,0,0,0-.839-0.1q-0.393,0-.868.04A8.2,8.2,0,0,0,47,71.14v6.882Zm2.714-5.968a1.185,1.185,0,0,1,.355.884,1.254,1.254,0,0,1-.432,1.053,1.721,1.721,0,0,1-1.093.338H47.8V71.765a0.954,0.954,0,0,1,.177-0.03l0.235-.02q0.124-.01.259-0.01h0.259A1.352,1.352,0,0,1,49.714,72.053Zm5.668,5a1.375,1.375,0,0,1-.489.278,1.891,1.891,0,0,1-.652.119,1.827,1.827,0,0,1-.715-0.124,1.166,1.166,0,0,1-.475-0.358,1.53,1.53,0,0,1-.268-0.571,3.136,3.136,0,0,1-.086-0.775h3.079a5.1,5.1,0,0,0,.058-0.725,2.608,2.608,0,0,0-.163-1.008,1.493,1.493,0,0,0-.422-0.591,1.429,1.429,0,0,0-.585-0.283,2.925,2.925,0,0,0-.652-0.075,1.908,1.908,0,0,0-1.563.665,2.985,2.985,0,0,0-.547,1.937,4.24,4.24,0,0,0,.125,1.073,2.311,2.311,0,0,0,.384.819,1.7,1.7,0,0,0,.662.526,2.272,2.272,0,0,0,.949.184A3.034,3.034,0,0,0,54.945,78a2.142,2.142,0,0,0,.724-0.377Zm-0.575-3.113a1.566,1.566,0,0,1,.278,1.058H52.706a1.568,1.568,0,0,1,.408-1.053,1.3,1.3,0,0,1,.906-0.308A1.015,1.015,0,0,1,54.806,73.935Zm2.235,6.073h0.767V77.942a2.212,2.212,0,0,0,.446.154,2.77,2.77,0,0,0,.561.045,2.134,2.134,0,0,0,.906-0.189,1.959,1.959,0,0,0,.7-0.536,2.488,2.488,0,0,0,.446-0.849,3.737,3.737,0,0,0,.158-1.127,3.082,3.082,0,0,0-.47-1.917,1.722,1.722,0,0,0-1.429-.586,1.7,1.7,0,0,0-.8.184,1.485,1.485,0,0,0-.571.531H57.712l-0.144-.6H57.041v6.952Zm2.518-6.247a1.05,1.05,0,0,1,.384.362,1.658,1.658,0,0,1,.216.566,3.764,3.764,0,0,1,.067.74,2.461,2.461,0,0,1-.388,1.5,1.25,1.25,0,0,1-1.05.511,1.875,1.875,0,0,1-.585-0.075,1.262,1.262,0,0,1-.393-0.213V74.695a1.487,1.487,0,0,1,.4-0.8,1.089,1.089,0,0,1,.772-0.263A1.192,1.192,0,0,1,59.559,73.761Zm2.834,0.268a1.836,1.836,0,0,1,.312-0.148,3.064,3.064,0,0,1,.374-0.112q0.2-.046.384-0.072a2.6,2.6,0,0,1,.35-0.026,1.056,1.056,0,0,1,.767.219,1.093,1.093,0,0,1,.211.765q0,0.238-.029.536a1.809,1.809,0,0,0-.264-0.02H64.234a5.743,5.743,0,0,0-.964.075,2.337,2.337,0,0,0-.748.248,1.264,1.264,0,0,0-.484.467,1.419,1.419,0,0,0-.173.73,1.477,1.477,0,0,0,.11.586,1.3,1.3,0,0,0,.758.725,1.608,1.608,0,0,0,.571.1,1.971,1.971,0,0,0,.547-0.07,1.93,1.93,0,0,0,.422-0.174,1.391,1.391,0,0,0,.312-0.238,1.632,1.632,0,0,0,.216-0.273h0.048l0.2,0.7h0.566a3.381,3.381,0,0,1-.105-0.606q-0.029-.328-0.029-0.7,0-.506.029-1.073t0.029-1.162a2.777,2.777,0,0,0-.053-0.536,1.263,1.263,0,0,0-.211-0.492,1.123,1.123,0,0,0-.46-0.363,1.938,1.938,0,0,0-.8-0.139A4.588,4.588,0,0,0,63,73.086a2.708,2.708,0,0,0-.849.338ZM62.9,77.183a0.746,0.746,0,0,1-.24-0.571,0.644,0.644,0,0,1,.129-0.412,0.88,0.88,0,0,1,.345-0.258,1.787,1.787,0,0,1,.5-0.129,4.747,4.747,0,0,1,.58-0.035q0.134,0,.273.005T64.762,75.8v0.824a1.14,1.14,0,0,1-.149.268,1.176,1.176,0,0,1-.254.253,1.369,1.369,0,0,1-.364.189,1.435,1.435,0,0,1-.48.075A0.865,0.865,0,0,1,62.9,77.183Zm4.249,0.839h0.767V73.056H67.15v4.965Zm-0.014-6.1a0.513,0.513,0,0,0,.379.149,0.563,0.563,0,0,0,.393-0.149,0.489,0.489,0,0,0,.163-0.377,0.558,0.558,0,0,0-.556-0.556,0.489,0.489,0,0,0-.379.164,0.564,0.564,0,0,0-.149.392A0.511,0.511,0,0,0,67.135,71.924Zm4.848,1.132a2.282,2.282,0,0,0-.623-0.1,1.078,1.078,0,0,0-.647.184,1.516,1.516,0,0,0-.436.521H70.238l-0.144-.606H69.557v4.965h0.767V74.546a1.028,1.028,0,0,1,.3-0.591,0.9,0.9,0,0,1,.652-0.233,1.679,1.679,0,0,1,.547.1Z"/>
        <path id="Installation" class="cls-13" d="M46.012,99.886h0.761V93.069H46.012v6.817Zm6.094,0V96.945a4.314,4.314,0,0,0-.1-1,1.6,1.6,0,0,0-.284-0.628,0.986,0.986,0,0,0-.472-0.326,2.136,2.136,0,0,0-.66-0.092,1.843,1.843,0,0,0-.884.2,1.685,1.685,0,0,0-.591.511H49.082l-0.137-.594H48.431v4.87h0.733V96.555a1.486,1.486,0,0,1,.445-0.7,1.171,1.171,0,0,1,.8-0.278,0.78,0.78,0,0,1,.756.385,2.493,2.493,0,0,1,.206,1.144v2.776h0.733Zm3.1-.73a1.178,1.178,0,0,1-.651.166,2.262,2.262,0,0,1-.687-0.107,2.594,2.594,0,0,1-.55-0.234l-0.22.662a2.7,2.7,0,0,0,.614.253A3.207,3.207,0,0,0,54.6,100a1.992,1.992,0,0,0,.7-0.112,1.433,1.433,0,0,0,.5-0.307,1.191,1.191,0,0,0,.3-0.468,1.743,1.743,0,0,0,.1-0.584,1.334,1.334,0,0,0-.165-0.706,1.529,1.529,0,0,0-.408-0.443A2.233,2.233,0,0,0,55.09,97.1q-0.289-.107-0.532-0.219a1.745,1.745,0,0,1-.408-0.253,0.491,0.491,0,0,1-.165-0.394,0.605,0.605,0,0,1,.188-0.507,0.963,0.963,0,0,1,.591-0.146,2.374,2.374,0,0,1,.637.083,2.785,2.785,0,0,1,.509.19l0.174-.643a3.1,3.1,0,0,0-.582-0.219,3.166,3.166,0,0,0-.829-0.092,1.542,1.542,0,0,0-1.045.326,1.291,1.291,0,0,0-.376,1.027,1.235,1.235,0,0,0,.165.682,1.416,1.416,0,0,0,.408.414,2.43,2.43,0,0,0,.532.263q0.289,0.1.532,0.214a1.393,1.393,0,0,1,.408.278,0.62,0.62,0,0,1,.165.458A0.652,0.652,0,0,1,55.2,99.156ZM56.7,95.7h0.715v2.844a2.071,2.071,0,0,0,.229,1.125,0.885,0.885,0,0,0,.788.336,2.459,2.459,0,0,0,.632-0.078,2.713,2.713,0,0,0,.541-0.2l-0.165-.594q-0.2.088-.367,0.141a1.315,1.315,0,0,1-.4.054,0.426,0.426,0,0,1-.4-0.209,1.55,1.55,0,0,1-.119-0.716V95.7h1.246V95.017H58.146V93.828l-0.733.224v0.964H56.7V95.7Zm3.867,0.273a1.736,1.736,0,0,1,.3-0.145,2.875,2.875,0,0,1,.358-0.11q0.188-.045.367-0.07a2.418,2.418,0,0,1,.334-0.025,0.99,0.99,0,0,1,.733.214,1.092,1.092,0,0,1,.2.75q0,0.234-.027.526a1.689,1.689,0,0,0-.252-0.019H62.325a5.355,5.355,0,0,0-.921.073,2.193,2.193,0,0,0-.715.243,1.222,1.222,0,0,0-.463.458,1.42,1.42,0,0,0-.165.716,1.483,1.483,0,0,0,.105.575,1.3,1.3,0,0,0,.289.433,1.258,1.258,0,0,0,.435.278,1.5,1.5,0,0,0,.545.1,1.839,1.839,0,0,0,.522-0.068,1.817,1.817,0,0,0,.4-0.17,1.33,1.33,0,0,0,.3-0.234,1.6,1.6,0,0,0,.206-0.268h0.046L63.1,99.906h0.541a3.391,3.391,0,0,1-.1-0.594q-0.027-.321-0.028-0.682,0-.5.028-1.052t0.027-1.139a2.8,2.8,0,0,0-.05-0.526,1.258,1.258,0,0,0-.2-0.482,1.079,1.079,0,0,0-.44-0.356,1.811,1.811,0,0,0-.765-0.136,4.276,4.276,0,0,0-.967.107,2.551,2.551,0,0,0-.811.331Zm0.486,3.092a0.741,0.741,0,0,1-.229-0.56,0.643,0.643,0,0,1,.124-0.4,0.843,0.843,0,0,1,.33-0.253,1.677,1.677,0,0,1,.477-0.127,4.432,4.432,0,0,1,.554-0.034q0.128,0,.261,0T62.829,97.7v0.808a1.161,1.161,0,0,1-.385.511,1.3,1.3,0,0,1-.348.185,1.341,1.341,0,0,1-.458.073A0.814,0.814,0,0,1,61.051,99.063Zm4.72-5.995H65.037v5.843a1.116,1.116,0,0,0,.266.843,0.954,0.954,0,0,0,.678.248,2.529,2.529,0,0,0,.454-0.049,1.464,1.464,0,0,0,.408-0.127l-0.082-.614a1.41,1.41,0,0,1-.312.088,1.82,1.82,0,0,1-.257.02,0.367,0.367,0,0,1-.312-0.146,0.826,0.826,0,0,1-.11-0.487v-5.62Zm2.676,0H67.713v5.843a1.116,1.116,0,0,0,.266.843,0.954,0.954,0,0,0,.678.248,2.529,2.529,0,0,0,.454-0.049,1.464,1.464,0,0,0,.408-0.127l-0.082-.614a1.41,1.41,0,0,1-.312.088,1.82,1.82,0,0,1-.257.02,0.367,0.367,0,0,1-.312-0.146,0.827,0.827,0,0,1-.11-0.487v-5.62Zm2.016,2.9a1.732,1.732,0,0,1,.3-0.145,2.874,2.874,0,0,1,.357-0.11q0.188-.045.367-0.07a2.417,2.417,0,0,1,.335-0.025,0.991,0.991,0,0,1,.733.214,1.092,1.092,0,0,1,.2.75q0,0.234-.028.526a1.689,1.689,0,0,0-.252-0.019H72.222a5.355,5.355,0,0,0-.921.073,2.191,2.191,0,0,0-.715.243,1.222,1.222,0,0,0-.463.458,1.421,1.421,0,0,0-.165.716,1.483,1.483,0,0,0,.105.575,1.3,1.3,0,0,0,.289.433,1.258,1.258,0,0,0,.435.278,1.5,1.5,0,0,0,.545.1,1.839,1.839,0,0,0,.522-0.068,1.817,1.817,0,0,0,.4-0.17,1.33,1.33,0,0,0,.3-0.234,1.6,1.6,0,0,0,.206-0.268h0.046L73,99.906h0.541a3.391,3.391,0,0,1-.1-0.594q-0.028-.321-0.028-0.682,0-.5.028-1.052t0.028-1.139a2.8,2.8,0,0,0-.05-0.526,1.258,1.258,0,0,0-.2-0.482,1.077,1.077,0,0,0-.44-0.356,1.81,1.81,0,0,0-.765-0.136,4.275,4.275,0,0,0-.967.107,2.55,2.55,0,0,0-.811.331Zm0.486,3.092a0.741,0.741,0,0,1-.229-0.56,0.643,0.643,0,0,1,.124-0.4,0.843,0.843,0,0,1,.33-0.253,1.677,1.677,0,0,1,.477-0.127,4.431,4.431,0,0,1,.554-0.034q0.128,0,.261,0T72.726,97.7v0.808a1.161,1.161,0,0,1-.385.511,1.3,1.3,0,0,1-.348.185,1.34,1.34,0,0,1-.458.073A0.814,0.814,0,0,1,70.949,99.063Zm3.3-3.365h0.715v2.844a2.071,2.071,0,0,0,.229,1.125,0.884,0.884,0,0,0,.788.336,2.459,2.459,0,0,0,.632-0.078,2.709,2.709,0,0,0,.541-0.2l-0.165-.594q-0.2.088-.367,0.141a1.315,1.315,0,0,1-.4.054,0.426,0.426,0,0,1-.4-0.209A1.549,1.549,0,0,1,75.7,98.4V95.7h1.246V95.017H75.7V93.828l-0.733.224v0.964H74.248V95.7Zm3.867,4.188h0.733v-4.87H78.115v4.87ZM78.1,93.906a0.483,0.483,0,0,0,.362.146,0.53,0.53,0,0,0,.376-0.146,0.485,0.485,0,0,0,.156-0.37,0.533,0.533,0,0,0-.156-0.385,0.5,0.5,0,0,0-.376-0.161,0.462,0.462,0,0,0-.362.161,0.561,0.561,0,0,0-.142.385A0.509,0.509,0,0,0,78.1,93.906ZM80.278,98.5a2.289,2.289,0,0,0,.367.808,1.637,1.637,0,0,0,.628.516,2.067,2.067,0,0,0,.894.18,1.784,1.784,0,0,0,1.489-.657,3.006,3.006,0,0,0,.518-1.894,4.288,4.288,0,0,0-.119-1.047,2.3,2.3,0,0,0-.367-0.808,1.64,1.64,0,0,0-.628-0.516,2.068,2.068,0,0,0-.894-0.18,1.783,1.783,0,0,0-1.489.657,3.005,3.005,0,0,0-.518,1.894A4.277,4.277,0,0,0,80.278,98.5Zm1.888-2.917a1.058,1.058,0,0,1,.577.151,1.156,1.156,0,0,1,.385.4,1.948,1.948,0,0,1,.215.594,3.642,3.642,0,0,1,.069.721q0,1.88-1.246,1.87a1.031,1.031,0,0,1-.577-0.156,1.2,1.2,0,0,1-.385-0.409,1.942,1.942,0,0,1-.215-0.594,3.582,3.582,0,0,1-.069-0.711q0-1.88,1.246-1.87h0ZM89,99.886V96.945a4.308,4.308,0,0,0-.1-1,1.6,1.6,0,0,0-.284-0.628,0.986,0.986,0,0,0-.472-0.326,2.136,2.136,0,0,0-.66-0.092,1.842,1.842,0,0,0-.884.2,1.684,1.684,0,0,0-.591.511H85.978l-0.138-.594H85.328v4.87h0.733V96.555a1.486,1.486,0,0,1,.445-0.7,1.171,1.171,0,0,1,.8-0.278,0.78,0.78,0,0,1,.756.385,2.5,2.5,0,0,1,.206,1.144v2.776H89Z"/>
        <path id="Installation-2" data-name="Installation" class="cls-13" d="M47,56.886h0.743V50.069H47v6.817Zm5.953,0V53.945a4.408,4.408,0,0,0-.094-1,1.615,1.615,0,0,0-.277-0.628,0.964,0.964,0,0,0-.461-0.326,2.041,2.041,0,0,0-.645-0.093,1.765,1.765,0,0,0-.864.2,1.657,1.657,0,0,0-.577.511H50l-0.134-.594h-0.5v4.87h0.716V53.555a1.49,1.49,0,0,1,.434-0.7,1.128,1.128,0,0,1,.783-0.278,0.758,0.758,0,0,1,.739.385,2.546,2.546,0,0,1,.2,1.144v2.776h0.716Zm3.026-.73a1.13,1.13,0,0,1-.636.166,2.163,2.163,0,0,1-.671-0.107,2.5,2.5,0,0,1-.537-0.234l-0.215.662a2.607,2.607,0,0,0,.6.253,3.063,3.063,0,0,0,.868.107,1.9,1.9,0,0,0,.685-0.112,1.4,1.4,0,0,0,.488-0.307,1.2,1.2,0,0,0,.291-0.468,1.781,1.781,0,0,0,.094-0.584,1.358,1.358,0,0,0-.161-0.706,1.514,1.514,0,0,0-.4-0.443A2.165,2.165,0,0,0,55.87,54.1q-0.282-.107-0.519-0.219a1.7,1.7,0,0,1-.4-0.253,0.5,0.5,0,0,1-.161-0.394,0.613,0.613,0,0,1,.184-0.506,0.924,0.924,0,0,1,.577-0.146,2.269,2.269,0,0,1,.622.083,2.682,2.682,0,0,1,.5.19l0.17-.643a2.987,2.987,0,0,0-.568-0.219,3.024,3.024,0,0,0-.81-0.093,1.483,1.483,0,0,0-1.02.326,1.308,1.308,0,0,0-.367,1.027,1.259,1.259,0,0,0,.161.682,1.4,1.4,0,0,0,.4.414,2.348,2.348,0,0,0,.519.263q0.282,0.1.519,0.214a1.361,1.361,0,0,1,.4.278,0.629,0.629,0,0,1,.161.458A0.659,0.659,0,0,1,55.982,56.156ZM57.441,52.7h0.7v2.844a2.112,2.112,0,0,0,.224,1.125,0.856,0.856,0,0,0,.77.336,2.349,2.349,0,0,0,.618-0.078,2.61,2.61,0,0,0,.528-0.2l-0.161-.594q-0.2.088-.358,0.141a1.257,1.257,0,0,1-.394.054,0.413,0.413,0,0,1-.394-0.209,1.582,1.582,0,0,1-.116-0.716V52.7h1.217V52.017H58.855V50.828l-0.716.224v0.964h-0.7V52.7Zm3.778,0.273a1.678,1.678,0,0,1,.291-0.145,2.755,2.755,0,0,1,.349-0.11q0.183-.045.358-0.07a2.305,2.305,0,0,1,.327-0.025,0.952,0.952,0,0,1,.716.214,1.11,1.11,0,0,1,.2.75q0,0.234-.027.526a1.613,1.613,0,0,0-.246-0.02H62.937a5.111,5.111,0,0,0-.9.073,2.109,2.109,0,0,0-.7.243,1.209,1.209,0,0,0-.452.458,1.448,1.448,0,0,0-.161.716,1.513,1.513,0,0,0,.1.575,1.3,1.3,0,0,0,.282.433,1.227,1.227,0,0,0,.425.278,1.437,1.437,0,0,0,.533.1,1.718,1.718,0,0,0,.9-0.239,1.3,1.3,0,0,0,.291-0.234,1.593,1.593,0,0,0,.2-0.268H63.51L63.7,56.906h0.528a3.473,3.473,0,0,1-.1-0.594Q64.1,55.99,64.1,55.63q0-.5.027-1.052t0.027-1.139a2.854,2.854,0,0,0-.049-0.526,1.271,1.271,0,0,0-.2-0.482,1.058,1.058,0,0,0-.43-0.355,1.732,1.732,0,0,0-.747-0.136,4.083,4.083,0,0,0-.944.107,2.459,2.459,0,0,0-.792.331Zm0.474,3.092a0.75,0.75,0,0,1-.224-0.56,0.654,0.654,0,0,1,.121-0.4,0.826,0.826,0,0,1,.322-0.253,1.608,1.608,0,0,1,.465-0.127,4.229,4.229,0,0,1,.542-0.034q0.125,0,.255,0T63.429,54.7v0.808a1.159,1.159,0,0,1-.376.511,1.258,1.258,0,0,1-.34.185,1.282,1.282,0,0,1-.448.073A0.784,0.784,0,0,1,61.693,56.063Zm4.61-5.994H65.586v5.843a1.133,1.133,0,0,0,.26.843,0.919,0.919,0,0,0,.662.248,2.415,2.415,0,0,0,.443-0.049,1.407,1.407,0,0,0,.4-0.127l-0.081-.614a1.349,1.349,0,0,1-.3.088,1.736,1.736,0,0,1-.251.02,0.356,0.356,0,0,1-.3-0.146,0.842,0.842,0,0,1-.107-0.487V50.069Zm2.614,0H68.2v5.843a1.133,1.133,0,0,0,.26.843,0.919,0.919,0,0,0,.662.248,2.415,2.415,0,0,0,.443-0.049,1.406,1.406,0,0,0,.4-0.127l-0.081-.614a1.352,1.352,0,0,1-.3.088,1.736,1.736,0,0,1-.251.02,0.355,0.355,0,0,1-.3-0.146,0.842,0.842,0,0,1-.107-0.487V50.069Zm1.969,2.9a1.678,1.678,0,0,1,.291-0.145,2.755,2.755,0,0,1,.349-0.11q0.183-.045.358-0.07a2.305,2.305,0,0,1,.327-0.025,0.952,0.952,0,0,1,.716.214,1.11,1.11,0,0,1,.2.75q0,0.234-.027.526a1.613,1.613,0,0,0-.246-0.02H72.6a5.111,5.111,0,0,0-.9.073,2.109,2.109,0,0,0-.7.243,1.209,1.209,0,0,0-.452.458,1.448,1.448,0,0,0-.161.716,1.513,1.513,0,0,0,.1.575,1.3,1.3,0,0,0,.282.433,1.227,1.227,0,0,0,.425.278,1.437,1.437,0,0,0,.533.1,1.718,1.718,0,0,0,.9-0.239,1.3,1.3,0,0,0,.291-0.234,1.593,1.593,0,0,0,.2-0.268h0.045l0.188,0.682h0.528a3.473,3.473,0,0,1-.1-0.594q-0.027-.321-0.027-0.682,0-.5.027-1.052t0.027-1.139a2.854,2.854,0,0,0-.049-0.526,1.271,1.271,0,0,0-.2-0.482,1.058,1.058,0,0,0-.43-0.355,1.732,1.732,0,0,0-.747-0.136,4.083,4.083,0,0,0-.944.107,2.459,2.459,0,0,0-.792.331Zm0.474,3.092a0.75,0.75,0,0,1-.224-0.56,0.654,0.654,0,0,1,.121-0.4,0.825,0.825,0,0,1,.322-0.253,1.608,1.608,0,0,1,.465-0.127,4.229,4.229,0,0,1,.542-0.034q0.125,0,.255,0T73.1,54.7v0.808a1.159,1.159,0,0,1-.376.511,1.258,1.258,0,0,1-.34.185,1.282,1.282,0,0,1-.448.073A0.784,0.784,0,0,1,71.36,56.063ZM74.582,52.7h0.7v2.844a2.112,2.112,0,0,0,.224,1.125,0.856,0.856,0,0,0,.77.336,2.348,2.348,0,0,0,.618-0.078,2.608,2.608,0,0,0,.528-0.2l-0.161-.594q-0.2.088-.358,0.141a1.257,1.257,0,0,1-.394.054,0.413,0.413,0,0,1-.394-0.209A1.58,1.58,0,0,1,76,55.4V52.7h1.217V52.017H76V50.828l-0.716.224v0.964h-0.7V52.7Zm3.777,4.188h0.716v-4.87H78.36v4.87Zm-0.013-5.98a0.466,0.466,0,0,0,.353.146,0.511,0.511,0,0,0,.367-0.146,0.491,0.491,0,0,0,.152-0.37,0.54,0.54,0,0,0-.152-0.385,0.488,0.488,0,0,0-.367-0.161,0.446,0.446,0,0,0-.353.161,0.569,0.569,0,0,0-.139.385A0.515,0.515,0,0,0,78.347,50.906ZM80.472,55.5a2.315,2.315,0,0,0,.358.808,1.608,1.608,0,0,0,.613.516,1.979,1.979,0,0,0,.873.18,1.725,1.725,0,0,0,1.455-.657,3.058,3.058,0,0,0,.506-1.894A4.383,4.383,0,0,0,84.16,53.4,2.322,2.322,0,0,0,83.8,52.6a1.612,1.612,0,0,0-.613-0.516,1.98,1.98,0,0,0-.873-0.18,1.725,1.725,0,0,0-1.455.657,3.057,3.057,0,0,0-.506,1.894A4.371,4.371,0,0,0,80.472,55.5Zm1.844-2.917a1.015,1.015,0,0,1,.564.151,1.145,1.145,0,0,1,.376.4,1.98,1.98,0,0,1,.21.594,3.729,3.729,0,0,1,.067.721q0,1.88-1.217,1.87a0.989,0.989,0,0,1-.564-0.156,1.183,1.183,0,0,1-.376-0.409,1.972,1.972,0,0,1-.21-0.594,3.675,3.675,0,0,1-.067-0.711q0-1.88,1.217-1.87h0Zm6.678,4.3V53.945a4.408,4.408,0,0,0-.094-1,1.614,1.614,0,0,0-.278-0.628,0.964,0.964,0,0,0-.461-0.326,2.041,2.041,0,0,0-.644-0.093,1.765,1.765,0,0,0-.864.2,1.657,1.657,0,0,0-.577.511H86.04l-0.134-.594H85.4v4.87h0.716V53.555a1.49,1.49,0,0,1,.434-0.7,1.128,1.128,0,0,1,.783-0.278,0.758,0.758,0,0,1,.739.385,2.546,2.546,0,0,1,.2,1.144v2.776h0.716Z"/>
        <path id="Low" class="cls-14" d="M102.223,98.658H99.3V93h-1.31v6.85h4.236V98.658Zm0.225-.2a2.225,2.225,0,0,0,.421.817,1.9,1.9,0,0,0,.7.524,2.446,2.446,0,0,0,.994.186,2.089,2.089,0,0,0,1.659-.67,2.807,2.807,0,0,0,.589-1.913,3.812,3.812,0,0,0-.139-1.057,2.266,2.266,0,0,0-.416-0.817,1.866,1.866,0,0,0-.7-0.524,2.451,2.451,0,0,0-1-.186,2.106,2.106,0,0,0-1.664.67,2.8,2.8,0,0,0-.592,1.913A3.812,3.812,0,0,0,102.448,98.462Zm1.4-2.212a0.839,0.839,0,0,1,.717-0.352,0.775,0.775,0,0,1,.746.416,2.33,2.33,0,0,1,.22,1.091,2.131,2.131,0,0,1-.239,1.145,0.811,0.811,0,0,1-.727.362,0.807,0.807,0,0,1-.746-0.431A1.727,1.727,0,0,1,103.648,98a2.932,2.932,0,0,1-.057-0.6A1.994,1.994,0,0,1,103.849,96.25Zm6.283-1.292L109.338,97.4l-0.162.881h-0.048l-0.115-.871-0.7-2.456h-1.348l1.539,4.942h0.947l0.918-2.73,0.115-.626h0.047l0.125,0.617,0.966,2.74h0.918l1.472-4.942h-1.138l-0.612,2.5-0.134.822h-0.038l-0.172-.812-0.87-2.505h-0.918Z"/>
      </g>
      <path class="cls-15" d="M16,62H129v1H16V62Zm0,22H129v1H16V84Z"/>
    </g>
  </g>
</svg>
