<svg id="icon" xmlns="http://www.w3.org/2000/svg" width="178" height="122" viewBox="0 0 178 122">
  <defs>
    <style>
      .cls-1 {
        fill: #eef3fe;
      }

      .cls-1, .cls-10, .cls-11, .cls-12, .cls-13, .cls-2, .cls-3, .cls-4, .cls-5, .cls-6, .cls-8 {
        fill-rule: evenodd;
      }

      .cls-2 {
        fill: #f3d5af;
      }

      .cls-3 {
        fill: #8388e4;
      }

      .cls-4, .cls-8, .cls-9 {
        fill: #fff;
      }

      .cls-4 {
        opacity: 0.5;
      }

      .cls-5 {
        fill: #fbe3c5;
      }

      .cls-6 {
        fill: #343439;
      }

      .cls-7 {
        fill: #00ca72;
        stroke: #fff;
        stroke-width: 2px;
      }

      .cls-7, .cls-9 {
        stroke-linejoin: round;
      }

      .cls-9 {
        stroke: #e3e3e3;
        stroke-width: 1px;
      }

      .cls-10, .cls-11 {
        fill: #36be8f;
      }

      .cls-10, .cls-12 {
        opacity: 0.6;
      }

      .cls-12, .cls-13 {
        fill: #de617e;
      }
    </style>
  </defs>
  <path class="cls-1" d="M5,68.019c0.518-12.348,3.106-22.638,28.987-30.87S67.739,25.287,80.68,17.569C91.106,11.175,123.153,11.737,138.654,33c10.784,14.8,10.007,34.037-2.07,47.334-10.26,11.3-31.5,20.432-52.8,24.7-21.692,4.344-37.893,1.057-53.939-5.117S4.655,82.768,5,68.019Z"/>
  <g id="user">
    <g id="user-2" data-name="user">
      <path class="cls-2" d="M56.756,56.97s-2.469,5.279-4.923,6.132L62.91,71.687l11.077-1.227L72.756,63.1s-1.375-1.028-3.692-6.132C66.567,51.47,56.756,56.97,56.756,56.97Z"/>
      <path class="cls-3" d="M54.373,60.757S29.152,64.264,30,92.933c0,0,30.62,20.573,63.52,1.227,0,0,3.976-28.506-21.994-34.341C71.525,59.818,64.066,72.447,54.373,60.757Z"/>
      <path class="cls-4" d="M60.448,65.95a4.685,4.685,0,0,0,1.231,4.906l-2,29.874s-0.116,2.1,3,2.178c2.262,0.056,3.294-1.063,3.422-2.178L64.141,70.856s2.233-2.574,1.231-4.906C65.322,65.241,60.938,65.622,60.448,65.95Z"/>
      <path class="cls-5" d="M48.141,39.8s-3.415,4.6,2.462,7.359c0,0,.214,6.65,6.154,9.812,0.538,0.153,15.009,4.634,17.231-9.812,0,0,4.83-2.7,2.462-7.359,0,0-1.786-8.681-2.462-8.585s-12.308-3.679-12.308-3.679L48.141,33.667V39.8"/>
      <path class="cls-6" d="M47,41a19.749,19.749,0,0,0,6.064-3.654s12.311,1.856,16.25-2.8c0,0,2.81-.438,5.9,4.027,0,0,.513,4.674,2.462,0,0,0,2.919-13.14-8.615-18.4C69.064,20.175,46.083,12.959,47,41Z"/>
    </g>
    <circle class="cls-7" cx="89.5" cy="91.5" r="13.5"/>
    <path class="cls-8" d="M95.757,90.974l-3.969-3.8a0.776,0.776,0,0,0-1.063,0,0.7,0.7,0,0,0,0,1.017l2.686,2.569H83.753a0.72,0.72,0,1,0,0,1.438h9.659l-2.686,2.569a0.7,0.7,0,0,0,0,1.017,0.776,0.776,0,0,0,1.063,0l3.969-3.8A0.7,0.7,0,0,0,95.757,90.974Z"/>
  </g>
  <g id="_1" data-name="1">
    <rect id="Rounded_Rectangle_593_copy" data-name="Rounded Rectangle 593 copy" class="cls-9" x="77" y="20" width="92" height="20" rx="5" ry="5"/>
    <path id="Rounded_Rectangle_599" data-name="Rounded Rectangle 599" class="cls-10" d="M136,26h27a1,1,0,0,1,0,2H136A1,1,0,0,1,136,26Zm0,6h16a1,1,0,0,1,0,2H136A1,1,0,0,1,136,32Z"/>
    <path id="Completed" class="cls-11" d="M87.29,31.531a1.718,1.718,0,0,1-.429,1.238,1.6,1.6,0,0,1-1.21.448,1.452,1.452,0,0,1-1.253-.674,2.882,2.882,0,0,1-.467-1.681V29.541a2.864,2.864,0,0,1,.467-1.671,1.452,1.452,0,0,1,1.253-.674,1.591,1.591,0,0,1,1.21.451,1.705,1.705,0,0,1,.429,1.226h0.9l0.01-.03a2.273,2.273,0,0,0-.677-1.765,2.594,2.594,0,0,0-1.872-.666,2.38,2.38,0,0,0-1.917.889,3.4,3.4,0,0,0-.741,2.251v1.312a3.387,3.387,0,0,0,.741,2.249A2.383,2.383,0,0,0,85.651,34a2.53,2.53,0,0,0,1.863-.7,2.285,2.285,0,0,0,.686-1.737l-0.01-.03h-0.9Zm1.782-.319a3.121,3.121,0,0,0,.622,2,2.213,2.213,0,0,0,3.375,0,3.126,3.126,0,0,0,.619-2.006V31.1a3.132,3.132,0,0,0-.622-2.006,2.2,2.2,0,0,0-3.375,0,3.142,3.142,0,0,0-.619,2v0.111ZM90.01,31.1a2.732,2.732,0,0,1,.345-1.433,1.116,1.116,0,0,1,1.017-.572,1.131,1.131,0,0,1,1.027.572,2.7,2.7,0,0,1,.35,1.433v0.111A2.712,2.712,0,0,1,92.4,32.65a1.206,1.206,0,0,1-2.046,0,2.726,2.726,0,0,1-.345-1.438V31.1Zm4.826-2.689v5.48h0.939V29.834a1.194,1.194,0,0,1,.424-0.527A1.231,1.231,0,0,1,96.9,29.12a0.911,0.911,0,0,1,.774.357,1.883,1.883,0,0,1,.269,1.127v3.287H98.89v-3.52a1.594,1.594,0,0,1,.35-0.9,0.968,0.968,0,0,1,.779-0.355,0.931,0.931,0,0,1,.782.337,1.915,1.915,0,0,1,.262,1.147v3.287H102V30.614a2.745,2.745,0,0,0-.457-1.73,1.506,1.506,0,0,0-1.244-.575,1.614,1.614,0,0,0-.931.271,2.006,2.006,0,0,0-.645.742,1.433,1.433,0,0,0-1.439-1.013,1.833,1.833,0,0,0-.9.215,1.791,1.791,0,0,0-.641.605l-0.067-.719H94.836Zm12.92,2.841a3.831,3.831,0,0,0-.531-2.135,1.687,1.687,0,0,0-1.489-.808,1.786,1.786,0,0,0-.877.208,1.749,1.749,0,0,0-.629.6l-0.147-.709h-0.72V36H104.3V33.319a1.613,1.613,0,0,0,.612.509,1.942,1.942,0,0,0,.836.17,1.725,1.725,0,0,0,1.472-.727,3.153,3.153,0,0,0,.534-1.912V31.252Zm-0.939.106a2.385,2.385,0,0,1-.343,1.34,1.132,1.132,0,0,1-1.01.519,1.238,1.238,0,0,1-.7-0.19A1.378,1.378,0,0,1,104.3,32.5V29.849a1.421,1.421,0,0,1,.462-0.534,1.2,1.2,0,0,1,.691-0.2,1.106,1.106,0,0,1,1.017.6,3.045,3.045,0,0,1,.345,1.532v0.106Zm3.106-5.368h-0.938v7.9h0.938v-7.9Zm4.669,7.812a2.235,2.235,0,0,0,.729-0.479l-0.367-.648a1.853,1.853,0,0,1-.617.4,2.234,2.234,0,0,1-.836.144,1.173,1.173,0,0,1-1.048-.514,2.369,2.369,0,0,1-.343-1.339l0.014-.025h3.3V30.812a2.938,2.938,0,0,0-.517-1.818,1.822,1.822,0,0,0-1.551-.684,1.963,1.963,0,0,0-1.565.772,2.956,2.956,0,0,0-.64,1.952v0.223a3.024,3.024,0,0,0,.621,1.985A2.121,2.121,0,0,0,113.5,34,2.751,2.751,0,0,0,114.592,33.8Zm-0.386-4.318a1.669,1.669,0,0,1,.276.988v0.081h-2.324l-0.01-.025a1.978,1.978,0,0,1,.393-1.031,1,1,0,0,1,.812-0.4A0.973,0.973,0,0,1,114.206,29.485Zm2.634-2.4v1.322h-0.819v0.739h0.819v3.328a1.658,1.658,0,0,0,.339,1.152,1.175,1.175,0,0,0,.91.367,1.482,1.482,0,0,0,.405-0.058,0.809,0.809,0,0,0,.309-0.149l-0.128-.684a1.3,1.3,0,0,1-.167.048,0.824,0.824,0,0,1-.181.023,0.525,0.525,0,0,1-.4-0.157,0.777,0.777,0,0,1-.15-0.542V29.151h0.977V28.411h-0.977V27.089H116.84Zm6.146,6.713a2.246,2.246,0,0,0,.729-0.479l-0.367-.648a1.853,1.853,0,0,1-.617.4,2.238,2.238,0,0,1-.836.144,1.173,1.173,0,0,1-1.048-.514,2.369,2.369,0,0,1-.343-1.339l0.014-.025h3.3V30.812a2.944,2.944,0,0,0-.517-1.818,1.822,1.822,0,0,0-1.551-.684,1.963,1.963,0,0,0-1.565.772,2.956,2.956,0,0,0-.64,1.952v0.223a3.024,3.024,0,0,0,.621,1.985A2.121,2.121,0,0,0,121.9,34,2.755,2.755,0,0,0,122.986,33.8ZM122.6,29.485a1.669,1.669,0,0,1,.276.988v0.081h-2.324l-0.01-.025a1.978,1.978,0,0,1,.393-1.031,1,1,0,0,1,.812-0.4A0.975,0.975,0,0,1,122.6,29.485Zm2.053,1.874a3.153,3.153,0,0,0,.534,1.912,1.729,1.729,0,0,0,1.477.727,1.774,1.774,0,0,0,.862-0.2,1.707,1.707,0,0,0,.624-0.6l0.143,0.694h0.719v-7.9h-0.938V29a1.681,1.681,0,0,0-.6-0.517,1.755,1.755,0,0,0-.8-0.177,1.684,1.684,0,0,0-1.489.81,3.833,3.833,0,0,0-.531,2.132v0.106Zm0.939-.106a3.222,3.222,0,0,1,.321-1.54,1.062,1.062,0,0,1,1-.593,1.184,1.184,0,0,1,.693.2,1.5,1.5,0,0,1,.47.539v2.558a1.5,1.5,0,0,1-.467.567,1.19,1.19,0,0,1-.7.2,1.093,1.093,0,0,1-.991-0.5,2.438,2.438,0,0,1-.319-1.33V31.252Z"/>
  </g>
  <g id="_2" data-name="2">
    <rect id="Rounded_Rectangle_593_copy-2" data-name="Rounded Rectangle 593 copy" class="cls-9" x="87" y="46" width="88" height="20" rx="5" ry="5"/>
    <path id="Rounded_Rectangle_599-2" data-name="Rounded Rectangle 599" class="cls-12" d="M142,52h27a1,1,0,0,1,0,2H142A1,1,0,0,1,142,52Zm0,6h16a1,1,0,0,1,0,2H142A1,1,0,0,1,142,58Z"/>
    <path id="Cancelled" class="cls-13" d="M97.332,57.526a1.706,1.706,0,0,1-.433,1.237,1.621,1.621,0,0,1-1.222.448,1.47,1.47,0,0,1-1.265-.673,2.857,2.857,0,0,1-.471-1.68V55.538a2.839,2.839,0,0,1,.471-1.67,1.47,1.47,0,0,1,1.265-.673,1.616,1.616,0,0,1,1.222.45,1.693,1.693,0,0,1,.433,1.225h0.909l0.01-.03a2.258,2.258,0,0,0-.683-1.764,2.636,2.636,0,0,0-1.891-.665,2.414,2.414,0,0,0-1.936.888,3.372,3.372,0,0,0-.748,2.249v1.311a3.361,3.361,0,0,0,.748,2.247,2.416,2.416,0,0,0,1.936.886,2.571,2.571,0,0,0,1.881-.7,2.271,2.271,0,0,0,.693-1.736l-0.01-.03H97.332Zm6.2,2.358a3.054,3.054,0,0,1-.106-0.536,5.459,5.459,0,0,1-.029-0.567V56.145a1.716,1.716,0,0,0-.539-1.364,2.077,2.077,0,0,0-1.423-.473,2.132,2.132,0,0,0-1.46.5,1.335,1.335,0,0,0-.532,1.093l0.01,0.03,0.9-.01a0.743,0.743,0,0,1,.284-0.582,1.108,1.108,0,0,1,.746-0.243,1.063,1.063,0,0,1,.789.281,1.033,1.033,0,0,1,.279.762v0.541h-1.03a2.715,2.715,0,0,0-1.638.443,1.437,1.437,0,0,0-.6,1.227,1.5,1.5,0,0,0,1.665,1.645,1.7,1.7,0,0,0,.916-0.266,2.262,2.262,0,0,0,.691-0.66,3.248,3.248,0,0,0,.031.382c0.017,0.127.042,0.272,0.074,0.438h0.977Zm-3.189-.941a0.769,0.769,0,0,1-.217-0.577,0.926,0.926,0,0,1,.344-0.713,1.334,1.334,0,0,1,.916-0.3h1.064V58.24a1.307,1.307,0,0,1-.539.638,1.626,1.626,0,0,1-.929.278A0.875,0.875,0,0,1,100.339,58.943Zm4.43-4.534v5.475h0.948V55.821A1.3,1.3,0,0,1,106.2,55.3a1.414,1.414,0,0,1,.743-0.185,1.058,1.058,0,0,1,.83.3,1.537,1.537,0,0,1,.272,1.027v3.436h0.948V56.428a2.356,2.356,0,0,0-.462-1.6,1.849,1.849,0,0,0-2.2-.278,1.934,1.934,0,0,0-.652.676l-0.067-.815h-0.847Zm6.646,4.236a2.829,2.829,0,0,1-.315-1.392V57.041a2.778,2.778,0,0,1,.319-1.379,1.084,1.084,0,0,1,1.018-.569,1,1,0,0,1,.782.352,1.248,1.248,0,0,1,.31.853h0.861l0.01-.03a1.848,1.848,0,0,0-.537-1.392,1.91,1.91,0,0,0-1.426-.567,2,2,0,0,0-1.691.787,3.121,3.121,0,0,0-.6,1.946v0.213a3.131,3.131,0,0,0,.6,1.953,2,2,0,0,0,1.693.784,1.98,1.98,0,0,0,1.385-.549,1.607,1.607,0,0,0,.578-1.258l-0.015-.03h-0.856a0.989,0.989,0,0,1-.327.752A1.165,1.165,0,0,1,111.415,58.645Zm7.367,1.151a2.257,2.257,0,0,0,.736-0.478l-0.371-.648a1.864,1.864,0,0,1-.622.4,2.285,2.285,0,0,1-.845.144,1.189,1.189,0,0,1-1.058-.514,2.35,2.35,0,0,1-.346-1.338l0.014-.025h3.329V56.808a2.916,2.916,0,0,0-.522-1.817,1.847,1.847,0,0,0-1.566-.683,1.989,1.989,0,0,0-1.58.772,2.935,2.935,0,0,0-.647,1.951v0.223a3,3,0,0,0,.628,1.984,2.149,2.149,0,0,0,1.748.754A2.807,2.807,0,0,0,118.782,59.8Zm-0.39-4.314a1.654,1.654,0,0,1,.279.987V56.55h-2.347l-0.01-.025a1.961,1.961,0,0,1,.4-1.03,1.01,1.01,0,0,1,.82-0.4A0.988,0.988,0,0,1,118.392,55.482Zm3.315-3.492h-0.948v7.894h0.948V51.99Zm2.482,0h-0.948v7.894h0.948V51.99ZM128.9,59.8a2.257,2.257,0,0,0,.736-0.478l-0.37-.648a1.879,1.879,0,0,1-.623.4,2.285,2.285,0,0,1-.845.144,1.189,1.189,0,0,1-1.058-.514,2.35,2.35,0,0,1-.346-1.338l0.014-.025h3.329V56.808a2.916,2.916,0,0,0-.522-1.817,1.847,1.847,0,0,0-1.566-.683,1.989,1.989,0,0,0-1.58.772,2.935,2.935,0,0,0-.647,1.951v0.223a3,3,0,0,0,.628,1.984,2.149,2.149,0,0,0,1.748.754A2.807,2.807,0,0,0,128.9,59.8Zm-0.39-4.314a1.654,1.654,0,0,1,.279.987V56.55h-2.347l-0.01-.025a1.961,1.961,0,0,1,.4-1.03,1.011,1.011,0,0,1,.82-0.4A0.988,0.988,0,0,1,128.513,55.482Zm2.074,1.872a3.129,3.129,0,0,0,.538,1.91,1.755,1.755,0,0,0,1.492.726,1.8,1.8,0,0,0,.87-0.2,1.718,1.718,0,0,0,.631-0.6l0.144,0.693h0.726V51.99h-0.947V55a1.683,1.683,0,0,0-.6-0.516,1.789,1.789,0,0,0-.811-0.177,1.705,1.705,0,0,0-1.5.81,3.794,3.794,0,0,0-.536,2.13v0.106Zm0.947-.106a3.192,3.192,0,0,1,.325-1.538,1.074,1.074,0,0,1,1.008-.592,1.207,1.207,0,0,1,.7.2,1.51,1.51,0,0,1,.474.539v2.556a1.487,1.487,0,0,1-.472.567,1.208,1.208,0,0,1-.712.2,1.105,1.105,0,0,1-1-.5,2.416,2.416,0,0,1-.323-1.328V57.248Z"/>
  </g>
</svg>
