<svg id="icon" xmlns="http://www.w3.org/2000/svg" width="178" height="122" viewBox="0 0 178 122">
  <defs>
    <style>
      .cls-1 {
        fill: #eef3fe;
      }

      .cls-1, .cls-2, .cls-3, .cls-4, .cls-6 {
        fill-rule: evenodd;
      }

      .cls-2 {
        fill: #fff;
        stroke: #e3e3e3;
        stroke-linejoin: round;
        stroke-width: 1px;
      }

      .cls-3 {
        fill: #ccc;
      }

      .cls-4, .cls-5 {
        fill: #6493ff;
      }

      .cls-5 {
        opacity: 0.7;
      }
    </style>
  </defs>
  <path class="cls-1" d="M19,68.019c0.518-12.348,3.106-22.638,28.987-30.87S81.739,25.287,94.68,17.569c10.426-6.394,42.473-5.832,57.974,15.435,10.784,14.8,10.007,34.037-2.07,47.334-10.26,11.3-31.5,20.432-52.8,24.7-21.692,4.344-37.893,1.057-53.939-5.117S18.655,82.768,19,68.019Z"/>
  <g id="icon-2" data-name="icon">
    <path id="Forma_1" data-name="Forma 1" class="cls-2" d="M133,21c-43.839-.04-60.116,0-79,0-6.681,0-8,4.628-8,9-0.042,18.855,0,64,0,64,0,6.677,4.261,10,11,10h76c6.738,0,10-3.323,10-10V30C143,23.706,139.49,21,133,21Z"/>
    <path class="cls-3" d="M47,45l-0.53-.027c0.16,0,.021-15,0.038-15.043-0.431-6.573,3.413-9.255,11.129-8.571,10.521-.247,74.583.146,74.61,0.085,7.052-.56,10.986,2.95,10.316,8.626,0,7.54.113,13.485,0.146,14.93-0.023-.018-0.555.013-0.708,0H47Z"/>
    <g>
      <path id="Forma_1_copy_2" data-name="Forma 1 copy 2" class="cls-4" d="M80.015,86.006c0-5.524-4.16-10-9.291-10H63.289C58.157,76,54,80.482,54,86.006v4H80.015v-4Z"/>
      <path id="Forma_1_copy_7" data-name="Forma 1 copy 7" class="cls-4" d="M58.987,65a8,8,0,1,0,8-8A8,8,0,0,0,58.987,65Z"/>
      <rect id="Rounded_Rectangle_598" data-name="Rounded Rectangle 598" class="cls-5" x="89" y="61" width="47" height="5" rx="1.5" ry="1.5"/>
      <rect id="Rounded_Rectangle_598_copy" data-name="Rounded Rectangle 598 copy" class="cls-5" x="89" y="72" width="39" height="5" rx="1.5" ry="1.5"/>
      <rect id="Rounded_Rectangle_598_copy_2" data-name="Rounded Rectangle 598 copy 2" class="cls-5" x="89" y="84" width="29" height="5" rx="1.5" ry="1.5"/>
    </g>
    <path id="Contact" class="cls-6" d="M64.037,37.525a2.8,2.8,0,0,1-.747.318,3.855,3.855,0,0,1-1.038.124,2.986,2.986,0,0,1-1.223-.249,2.683,2.683,0,0,1-.978-0.746,3.635,3.635,0,0,1-.654-1.244,5.746,5.746,0,0,1-.238-1.741,6,6,0,0,1,.251-1.866,3.475,3.475,0,0,1,.667-1.23,2.458,2.458,0,0,1,.945-0.677,2.91,2.91,0,0,1,1.071-.207,3.985,3.985,0,0,1,1.811.332l0.264-1.023a4.023,4.023,0,0,0-.859-0.242,7.615,7.615,0,0,0-1.3-.09,4,4,0,0,0-1.454.276,3.55,3.55,0,0,0-1.289.878,4.428,4.428,0,0,0-.925,1.548,6.658,6.658,0,0,0-.35,2.3,7.09,7.09,0,0,0,.317,2.246,4.408,4.408,0,0,0,.859,1.555,3.41,3.41,0,0,0,1.269.905,4.084,4.084,0,0,0,1.56.3,6.458,6.458,0,0,0,1.3-.124,2.323,2.323,0,0,0,1-.442Zm1.124-.67A3.224,3.224,0,0,0,65.69,38a2.354,2.354,0,0,0,.905.733,3.023,3.023,0,0,0,1.289.256,2.591,2.591,0,0,0,2.148-.933,4.216,4.216,0,0,0,.747-2.688,5.992,5.992,0,0,0-.172-1.486,3.232,3.232,0,0,0-.529-1.147A2.359,2.359,0,0,0,69.173,32a3.027,3.027,0,0,0-1.289-.256,2.59,2.59,0,0,0-2.148.933,4.215,4.215,0,0,0-.747,2.688A5.974,5.974,0,0,0,65.161,36.854Zm2.723-4.139a1.545,1.545,0,0,1,.833.214,1.654,1.654,0,0,1,.555.574,2.737,2.737,0,0,1,.311.843,5.1,5.1,0,0,1,.1,1.023q0,2.667-1.8,2.654a1.505,1.505,0,0,1-.833-0.221,1.707,1.707,0,0,1-.555-0.581,2.731,2.731,0,0,1-.311-0.843,5.02,5.02,0,0,1-.1-1.009q0-2.667,1.8-2.654h0Zm9.86,6.109V34.65a6.026,6.026,0,0,0-.139-1.417,2.252,2.252,0,0,0-.41-0.892,1.422,1.422,0,0,0-.681-0.463,3.125,3.125,0,0,0-.952-0.131,2.693,2.693,0,0,0-1.275.283,2.421,2.421,0,0,0-.853.726H73.382l-0.2-.843h-0.74v6.91H73.5V34.1a2.1,2.1,0,0,1,.641-0.988,1.706,1.706,0,0,1,1.157-.394,1.13,1.13,0,0,1,1.09.546,3.488,3.488,0,0,1,.3,1.624v3.939h1.057ZM78.8,32.881h1.031v4.036a2.9,2.9,0,0,0,.33,1.6,1.284,1.284,0,0,0,1.137.477,3.6,3.6,0,0,0,.912-0.111,3.945,3.945,0,0,0,.78-0.29l-0.238-.843q-0.291.124-.529,0.2a1.927,1.927,0,0,1-.582.076,0.616,0.616,0,0,1-.582-0.3,2.167,2.167,0,0,1-.172-1.016V32.881h1.8V31.913h-1.8V30.227l-1.057.318v1.368H78.8v0.967Zm5.578,0.387a2.518,2.518,0,0,1,.43-0.206,4.179,4.179,0,0,1,.515-0.156q0.271-.064.529-0.1a3.543,3.543,0,0,1,.483-0.036,1.445,1.445,0,0,1,1.057.3,1.531,1.531,0,0,1,.291,1.064q0,0.332-.04.746a2.477,2.477,0,0,0-.364-0.028H86.917a7.835,7.835,0,0,0-1.328.1,3.2,3.2,0,0,0-1.031.345,1.751,1.751,0,0,0-.668.65,1.989,1.989,0,0,0-.238,1.016,2.074,2.074,0,0,0,.152.815,1.837,1.837,0,0,0,.416.615,1.816,1.816,0,0,0,.628.394,2.2,2.2,0,0,0,.786.138,2.688,2.688,0,0,0,.753-0.1A2.642,2.642,0,0,0,86.97,38.6a1.92,1.92,0,0,0,.43-0.332,2.277,2.277,0,0,0,.3-0.38h0.066l0.277,0.968h0.78a4.752,4.752,0,0,1-.145-0.843q-0.04-.456-0.04-0.967,0-.7.04-1.493t0.04-1.617a3.908,3.908,0,0,0-.073-0.746,1.769,1.769,0,0,0-.291-0.684,1.55,1.55,0,0,0-.635-0.5,2.648,2.648,0,0,0-1.1-.194,6.262,6.262,0,0,0-1.394.152,3.712,3.712,0,0,0-1.17.47Zm0.7,4.388a1.043,1.043,0,0,1-.33-0.795,0.9,0.9,0,0,1,.178-0.574,1.214,1.214,0,0,1,.476-0.359,2.448,2.448,0,0,1,.687-0.18,6.517,6.517,0,0,1,.8-0.048q0.185,0,.377.007t0.377,0.021v1.147a1.593,1.593,0,0,1-.2.373,1.634,1.634,0,0,1-.35.352,1.884,1.884,0,0,1-.5.263,1.962,1.962,0,0,1-.661.1A1.185,1.185,0,0,1,85.08,37.656Zm9.794-.131a2.382,2.382,0,0,1-.615.346,2.258,2.258,0,0,1-.853.152,1.813,1.813,0,0,1-.932-0.221,1.762,1.762,0,0,1-.608-0.587,2.524,2.524,0,0,1-.331-0.843,4.912,4.912,0,0,1-.1-1q0-2.654,1.877-2.654a2.93,2.93,0,0,1,.793.1,2.812,2.812,0,0,1,.674.283l0.3-.954a3.2,3.2,0,0,0-.8-0.3,4.8,4.8,0,0,0-1.077-.1,2.556,2.556,0,0,0-2.128.933,4.242,4.242,0,0,0-.74,2.688,6.722,6.722,0,0,0,.152,1.486A3.181,3.181,0,0,0,90.981,38a2.233,2.233,0,0,0,.866.733,2.959,2.959,0,0,0,1.3.256,4.026,4.026,0,0,0,1.137-.159,2.832,2.832,0,0,0,.938-0.463ZM95.8,32.881H96.83v4.036a2.9,2.9,0,0,0,.33,1.6,1.284,1.284,0,0,0,1.137.477,3.6,3.6,0,0,0,.912-0.111,3.944,3.944,0,0,0,.78-0.29l-0.238-.843q-0.291.124-.529,0.2a1.926,1.926,0,0,1-.582.076,0.617,0.617,0,0,1-.582-0.3,2.167,2.167,0,0,1-.172-1.016V32.881h1.8V31.913h-1.8V30.227l-1.057.318v1.368H95.8v0.967Z"/>
  </g>
</svg>
