<svg id="icon" xmlns="http://www.w3.org/2000/svg" width="178" height="122" viewBox="0 0 178 122">
  <defs>
    <style>
      .cls-1 {
        fill: #eef3fe;
      }

      .cls-1, .cls-10, .cls-11, .cls-12, .cls-13, .cls-4, .cls-5, .cls-6, .cls-7, .cls-8, .cls-9 {
        fill-rule: evenodd;
      }

      .cls-2 {
        fill: #f8f0e5;
        stroke: #5387ff;
        stroke-linejoin: round;
        stroke-width: 2px;
      }

      .cls-12, .cls-3 {
        fill: #fff;
      }

      .cls-4 {
        fill: #5387ff;
      }

      .cls-5 {
        fill: #faad27;
      }

      .cls-6 {
        fill: #193151;
      }

      .cls-7 {
        fill: #b5ccfa;
      }

      .cls-8 {
        fill: #77bdfe;
      }

      .cls-9 {
        fill: #fbe3c5;
      }

      .cls-10 {
        fill: #11518e;
      }

      .cls-11 {
        fill: #8388e4;
      }

      .cls-13 {
        fill: #8fc8fc;
      }
    </style>
  </defs>
  <path class="cls-1" d="M19,68.019c0.518-12.348,3.106-22.638,28.987-30.87S81.739,25.287,94.68,17.569c10.426-6.394,42.473-5.832,57.974,15.435,10.784,14.8,10.007,34.037-2.07,47.334-10.26,11.3-31.5,20.432-52.8,24.7-21.692,4.344-37.893,1.057-53.939-5.117S18.655,82.768,19,68.019Z"/>
  <g id="_2" data-name="2">
    <rect id="Rounded_Rectangle_2202" data-name="Rounded Rectangle 2202" class="cls-2" x="58" y="35" width="67" height="57" rx="3" ry="3"/>
    <rect class="cls-3" x="60" y="47" width="63" height="43"/>
    <path id="Shape_711_copy" data-name="Shape 711 copy" class="cls-4" d="M59,36V47h64V36H59Z"/>
    <rect id="Rounded_Rectangle_2203" data-name="Rounded Rectangle 2203" class="cls-3" x="69" y="27" width="4" height="15" rx="2" ry="2"/>
    <rect id="Rounded_Rectangle_2203_copy" data-name="Rounded Rectangle 2203 copy" class="cls-3" x="109" y="27" width="4" height="15" rx="2" ry="2"/>
    <path id="Forma_1" data-name="Forma 1" class="cls-5" d="M103.914,63.145l-6.886-.658a1.192,1.192,0,0,1-.986-0.738l-2.466-6.04a1.176,1.176,0,0,0-2.19,0l-2.447,6.04a1.167,1.167,0,0,1-.987.738l-6.886.658a1.206,1.206,0,0,0-.671,2.093l5.189,4.6a1.2,1.2,0,0,1,.375,1.176L84.4,77.478a1.193,1.193,0,0,0,1.756,1.316L91.9,75.385a1.183,1.183,0,0,1,1.2,0l5.741,3.409a1.189,1.189,0,0,0,1.756-1.316L99.06,71.019a1.2,1.2,0,0,1,.375-1.176l5.189-4.6A1.22,1.22,0,0,0,103.914,63.145Z"/>
  </g>
  <g id="_3" data-name="3">
    <path id="Rounded_Rectangle_599_copy" data-name="Rounded Rectangle 599 copy" class="cls-6" d="M139.027,92.6l0.747-1.744a1.413,1.413,0,0,1,1.9-.7,1.484,1.484,0,0,1,.779,1.915L142.079,95.2c-0.421.876-2.473,1.155-3.029,0.21A3.764,3.764,0,0,1,139.027,92.6Z"/>
    <path id="Rounded_Rectangle_599" data-name="Rounded Rectangle 599" class="cls-6" d="M125.981,91.476l1.814-.561c0.763-.236,2.024.057,2.187,0.856a2,2,0,0,1-1.376,1.969l-2.481,1.785c-0.459-.059-2.628-1.181-2.268-2.216A3.777,3.777,0,0,1,125.981,91.476Z"/>
    <path class="cls-7" d="M123.388,58.652A47.846,47.846,0,0,0,127,91h3s-0.7-24.506,2.445-25.425c0,0-.536,14.421,6.72,25.983h3.945S137.373,64.7,142,57Z"/>
    <path class="cls-8" d="M127.333,30.724S123.833,34.5,123,38s-4.719,16.057-.38,22.515A35.991,35.991,0,0,0,141,60s1-1.207,1-5c0,0,.632-20.329-8.094-26.765,0,0-.349,3.017-4.71,1.388a1.711,1.711,0,0,0-.992.088A6.769,6.769,0,0,0,127.333,30.724Z"/>
    <g id="pen">
      <path class="cls-9" d="M126.311,29.4s-3.277-8.927,4.966-9.1c0,0,8.753,1.781,3.026,9.872,0,0-.611,2.5-1.3,2.828a3.74,3.74,0,0,1-3,0c-0.361-.139-0.592-1.226-0.592-2.082a4.562,4.562,0,0,1-3.1-1.517"/>
      <path class="cls-6" d="M126,32s-7.637-4.959-2.612-13.023c0,0,4.506-6.586,13.148-1.322,0.493,0.951,2.809.464,5.259,9.257,0,0,.793,4.4-4.132,6.345-1.865.76-2.726,0.985-2.442-1.055h0V25.59s-0.365-3.165-1.315-3.967c-1.407,1.406-3.944-1.323-3.944-1.323-0.186-.272-3.528,1.87-3.137,5.445,0.138,1.263.909,3.569,2.175,4.255,1.6,0.869.377,2.7-1,3C127.08,33.2,126,32,126,32Z"/>
      <path class="cls-10" d="M74.615,31.445"/>
      <path class="cls-11" d="M109.451,32.293l18.692,16.975,4.248,4.244,4.248-5.093-22.09-22.068Z"/>
      <path class="cls-12" d="M109.451,32.293l-0.85-5.941,0.85-.849,5.947,0.849Z"/>
      <path class="cls-6" d="M108.6,27.837a47.748,47.748,0,0,1,3.5-3.5h-4.673S108.243,28.435,108.6,27.837Z"/>
    </g>
    <path class="cls-9" d="M120.477,36.981s-4.82.5-3.191,3.219a5.408,5.408,0,0,0,6.382,1.61S125.563,37.484,120.477,36.981Z"/>
    <path class="cls-13" d="M136,34s-1.838,3.807-3,6-4.5,2.807-7,1-3-1-3-1l-2,2s5.328,3.474,9,4,4.972-1.131,7-4a46.22,46.22,0,0,1,3-4S139.982,33.389,136,34Z"/>
  </g>
</svg>
