<svg id="icon" xmlns="http://www.w3.org/2000/svg" width="178" height="122" viewBox="0 0 178 122">
  <defs>
    <style>
      .cls-1 {
        fill: #eef3fe;
      }

      .cls-1, .cls-2, .cls-3, .cls-4, .cls-5, .cls-6, .cls-8 {
        fill-rule: evenodd;
      }

      .cls-2 {
        fill: #f3d5af;
      }

      .cls-3 {
        fill: #5387ff;
      }

      .cls-4, .cls-8 {
        fill: #fff;
      }

      .cls-4 {
        opacity: 0.5;
      }

      .cls-5 {
        fill: #fbe3c5;
      }

      .cls-6 {
        fill: #343439;
      }

      .cls-7 {
        fill: #00ca72;
        stroke: #fff;
        stroke-linejoin: round;
        stroke-width: 2px;
      }
    </style>
  </defs>
  <path class="cls-1" d="M19,68.019c0.518-12.348,3.106-22.638,28.987-30.87S81.739,25.287,94.68,17.569c10.426-6.394,42.473-5.832,57.974,15.435,10.784,14.8,10.007,34.037-2.07,47.334-10.26,11.3-31.5,20.432-52.8,24.7-21.692,4.344-37.893,1.057-53.939-5.117S18.655,82.768,19,68.019Z"/>
  <g>
    <g id="user">
      <path class="cls-2" d="M80.756,56.97s-2.469,5.279-4.923,6.132L86.91,71.687l11.077-1.227L96.756,63.1s-1.375-1.028-3.692-6.132C90.567,51.47,80.756,56.97,80.756,56.97Z"/>
      <path class="cls-3" d="M78.373,60.757S53.152,64.264,54,92.933c0,0,30.621,20.573,63.52,1.227,0,0,3.977-28.506-21.994-34.341C95.525,59.818,88.066,72.447,78.373,60.757Z"/>
      <path class="cls-4" d="M84.448,65.95a4.685,4.685,0,0,0,1.231,4.906l-2,29.874s-0.116,2.1,3,2.178c2.263,0.056,3.294-1.063,3.422-2.178L88.141,70.856s2.233-2.574,1.231-4.906C89.322,65.241,84.938,65.622,84.448,65.95Z"/>
      <path class="cls-5" d="M72.141,39.8s-3.415,4.6,2.462,7.359c0,0,.214,6.65,6.154,9.812,0.538,0.153,15.008,4.634,17.231-9.812,0,0,4.83-2.7,2.462-7.359,0,0-1.786-8.681-2.462-8.585s-12.308-3.679-12.308-3.679L72.141,33.667V39.8"/>
      <path class="cls-6" d="M71,40s3.894-.45,6.064-2.654c0,0,12.311,1.856,16.25-2.8,0,0,2.81-.438,5.9,4.027,0,0,.513,4.674,2.461,0,0,0,2.92-13.14-8.615-18.4C93.064,20.175,70.083,11.959,71,40Z"/>
    </g>
    <g id="arrow">
      <circle class="cls-7" cx="113.5" cy="91.5" r="13.5"/>
      <path class="cls-8" d="M119.757,90.974l-3.968-3.8a0.776,0.776,0,0,0-1.063,0,0.7,0.7,0,0,0,0,1.017l2.685,2.569h-9.658a0.72,0.72,0,1,0,0,1.438h9.658l-2.685,2.569a0.7,0.7,0,0,0,0,1.017,0.776,0.776,0,0,0,1.063,0l3.968-3.8A0.7,0.7,0,0,0,119.757,90.974Z"/>
    </g>
  </g>
</svg>
